<svg id="Layer_1" data-name="Layer 1" xmlns="http://www.w3.org/2000/svg" viewBox="0 0 350.4 1052.8"><defs><style>.cls-1{fill:none;stroke-width:5px;}.cls-1,.cls-2{stroke:#fff;stroke-miterlimit:10;}.cls-2{fill:#2cb6e9;stroke-width:2px;}</style></defs><path class="cls-1" d="M24.66,248.56q140-113.91,280-227.81"/><path class="cls-1" d="M24.66,801.56q140-390.4,280-780.81"/><path class="cls-1" d="M24.66,248.56q140,15,280,30.11"/><path class="cls-1" d="M24.66,248.56q140,140.25,280,280.51"/><path class="cls-1" d="M304.67,278.67q-140,261.45-280,522.89"/><path class="cls-1" d="M24.66,248.56q140,388.08,280,776.14"/><path class="cls-1" d="M24.66,248.56q140,258.92,280,517.83"/><path class="cls-1" d="M304.67,529.07l-280,272.49"/><path class="cls-1" d="M24.66,801.56l280-35.17"/><path class="cls-1" d="M24.66,801.56q140,111.56,280,223.14"/><circle class="cls-2" cx="24.66" cy="248.56" r="15.75"/><circle class="cls-2" cx="304.67" cy="20.75" r="15.75"/><circle class="cls-2" cx="304.67" cy="278.67" r="15.75"/><circle class="cls-2" cx="304.67" cy="529.07" r="15.75"/><circle class="cls-2" cx="304.67" cy="766.39" r="15.75"/><circle class="cls-2" cx="304.67" cy="1024.7" r="15.75"/><circle class="cls-2" cx="24.66" cy="801.56" r="15.75"/></svg>