<?xml version="1.0" encoding="utf-8"?>
<!-- Generator: Adobe Illustrator 26.1.0, SVG Export Plug-In . SVG Version: 6.00 Build 0)  -->
<svg version="1.1" id="Layer_1" xmlns="http://www.w3.org/2000/svg" xmlns:xlink="http://www.w3.org/1999/xlink" x="0px" y="0px"
	 viewBox="0 0 210.4 1052.8" style="enable-background:new 0 0 210.4 1052.8;" xml:space="preserve">
<style type="text/css">
	.st0{fill:#00FCFF;}
</style>
<g id="Layer_2_00000005247748532538532170000014123501392712431751_">
	<g id="a">
		<path class="st0" d="M162.7,38.8c-2.9-1.8-6.1-3.9-9.4-5.7c-0.6-0.3-1.7,0-2.5,0.2c-1.3,0.4-2.7,0-3.6-1c-0.9-1-1.1-2.5-0.6-3.7
			c0.5-1.5,1.9-2.5,3.5-2.5c1.6,0.2,2.9,1.1,2.9,2.7c0,2.2,1.5,2.9,3,3.8c3.5,2.1,6.9,4.3,10.5,6.3c2.2,1.3,3,0.9,3.8-1.5
			c0.4-0.8,0.6-1.7,0.8-2.6c0.1-0.9-0.1-1.7-0.5-2.5c-1-1.4-2-2.8-3.1-4.1c-3.6,0-5.1-0.9-5.4-3.2c-0.2-1.9,0.9-3.7,2.7-4.4
			c2.1-0.7,3.5,0.3,4.9,3.5c0.6,0.2,1.3,0.4,2,0.6s1.4,0.2,2.3,0.3c0.3-0.6,0.6-1.2,0.9-1.9c1.5-4.5,2.9-8.9,4.4-13.4
			c0.4-1.3,0.8-2.5-0.2-3.7c-0.1-0.2-0.2-0.3-0.3-0.5c-0.7-2,0.2-4.2,2-5.2c1.5-0.7,3.4-0.2,4.3,1.2c1.1,1.6,1,4.3-0.8,5.2
			c-2.4,1.2-2.7,3.3-3.2,5.4c-1,4.5-2,8.9-3.1,13.8l9.7,2.1c3.4-4.1,4.8-4.2,7.9-0.8c0.5-0.1,1-0.1,1.4-0.1c2.3,0.1,3.7,1.4,3.8,3.5
			s-1.6,4.3-3.7,4.1c-1.9-0.2-2.6,0.8-3.8,1.8c-3.9,3.2-4.6,7.7-5.6,12.4c2,0.9,4.1,2,3.4,4.8c-0.5,2.1-1.9,2.9-5.4,3
			c-15.6,62.3-31.2,124.8-46.8,187.4c0.8,0.1,1.5,0.3,2.3,0.3l41.6,0.4c1.2,0.2,2.4-0.2,3.2-1.1c1.8-2,3.7-2.1,5.3-0.6
			c1.3,1.2,1.5,3.3,0.4,4.7c-1.2,1.8-3.3,2.1-5.4,0.7c-0.3-0.2-0.6-0.5-1.1-0.8c-6.1,1.8-12.5,3.2-18.8,5.4c1.5,2.5,3.7,3.3,5.5,4.7
			s3.7,2.5,5.4,3.8c4.8-2.2,6.1-1.4,6.8,4.5c5.1-0.7,6,0,6.1,4.5l3.2,1c0-0.9,0.2-1.7,0.3-2.6c0.4-1.9,2.2-3.1,4.1-2.9
			c1.9,0.2,3.1,1.7,3.1,3.9c0,1,0.1,2,0.2,3c0.2,2-0.3,3.7-2.2,4.2s-2.3,1.9-2.8,3.2c-8.6,22.3-17.1,44.5-25.7,66.8
			c-10.1,26.4-20.2,52.7-30.4,79.1c-0.7,1.4-0.6,3.2,0.4,4.4c12.6,17.4,25.2,34.9,37.7,52.4c0.4,0.5,0.8,0.9,1.2,1.5
			c2-0.8,4-1.2,5.5,0.9s0.2,3.7-1.2,5.2l3.8,5.3c5.1-0.2,7.1,2,5.1,6.5c0.7,0,1.3,0.1,2,0.3c1.9,0.4,3,2.3,2.6,4.2c0,0,0,0,0,0
			c-0.4,1.9-2.3,3.1-4.2,2.7c-0.4-0.1-0.8-0.2-1.2-0.4c-1.6-0.7-2.8-0.3-4,1.2c-3.4,4.5-6.1,9.6-8,15c-0.2,0.6-0.2,1.4,0,2
			c0.9,2.5,0.8,3.8-0.7,4.9s-2.6,0.9-5-0.6c-0.2-0.1-0.5-0.2-0.8-0.3L136.4,586c0.3,0.8,0.5,1.7,0.9,2.5
			c16.5,43.5,32.9,87,49.4,130.4c0.4,1.6,1.6,2.8,3.1,3.4c1.5,0.6,2.3,2.2,2,3.8c-0.2,1.4-1.3,2.6-2.8,2.9c-0.8,0.2-1.9,0.4-2.3,1
			c-1,1.2-1.6,2.6-2,4.1c-0.2,2-0.2,4.1-0.1,6.2c1.6,0.1,3.3,0.1,4.9-0.1c0.7-0.1,1.4-1,2-1.6c1.4-1.5,3.7-1.5,5.1-0.1
			c0.3,0.3,0.6,0.7,0.8,1c0.7,1.4,0.4,3.1-0.8,4.2c-1.2,1.1-2.9,1.4-3.9,0.4c-2.5-2.5-4.9-0.8-7.5-0.5v7.5c0.8-0.6,1.3-1,1.8-1.3
			c1.6-1.1,3.7-0.8,4.9,0.8c0,0,0,0,0,0c1.2,1.6,1.1,3.8-0.7,4.8s-1.9,2.4-2.2,4c-0.6,4.2-1.2,8.5-1.8,12.7c-0.2,1.6-0.4,3.1,1,4.5
			c1.2,1.3,1.1,3.4-0.3,4.5c0,0-0.1,0.1-0.1,0.1c-1.4,1.2-3.4,1.1-4.7-0.2c-1.3-1.3-1.7-3.5-0.4-4.7c1.8-1.5,1.6-3.3,1.5-5.2
			c-0.1-3.1-0.3-6.3-0.4-9.8c-1,0.5-1.5,0.8-2.1,1c-1.1,0.6-2.5,0.4-3.4-0.5c-1.5-1.9-3.3-1.5-5.2-1.4c-8.8,0.8-17.7,1.5-26.5,2.3
			c-1,0.1-2,0.2-3.3,0.4c0.2,1.2,0.3,2.1,0.6,3c14.7,56.1,29.5,112.2,44.2,168.3c5.8,22.3,11.7,44.6,17.5,66.8
			c0.5,1.8,0.8,3.5,3,4.6s2.4,3.8,1.1,5.6s-3.5,2-5.5,0.1c-0.7-0.7-1.7-1-2.7-0.8l-9.9,1.5c0,0.7,0.1,1.4,0.2,2.1
			c2.4,9.3,4.9,18.5,7.3,27.8c0.4,1.4,0.8,2.6,2.4,3.2c0.8,0.5,1.4,1.2,1.8,2c1,1.8,0.4,4-1.4,5s-4,0.4-5-1.4
			c-0.1-0.2-0.2-0.5-0.3-0.7c-0.3-0.6-0.4-1.4-0.3-2.1c0.7-2-0.3-3.3-1.3-4.7c-6.6-9.3-13.3-18.6-19.9-27.9
			c-19.1-27.2-38.2-54.4-57.3-81.6C81.9,883.1,46.2,832.5,10.4,781.8c-0.5-0.8-1.1-1.5-1.7-2.4c-2.2,0.6-4.5,0.9-6.3-0.8
			c-1-1-1.8-2.2-2.2-3.5c-1-3.7,1-6.1,6.2-7.7c1.2-5.2,2.5-10.6,3.7-15.9c10.6-46.1,21.1-92.2,31.7-138.3c6.9-30,13.7-60,20.5-90
			c0.3-1.3,0.3-2.6,0-3.9c-10-47.9-20-95.8-30-143.7C23.8,335,15.4,294.5,6.9,254c-0.2-0.9-0.4-1.8-0.7-2.9
			c-2.2-0.4-4.6-1.2-5.5-3.6c-0.5-1.4-0.7-2.9-0.4-4.4c0.8-3.6,3.7-4.8,8.8-3.9c1.5-1.9,3.1-3.9,4.7-5.9L160.3,47.2
			c0.9-1.2,1.8-2.2,1.3-4C161.3,42,162.2,40.5,162.7,38.8L162.7,38.8z M55.4,641.3l-1,2.3l0.6,0.2L55.4,641.3
			c1.2-1.3,1.9-3.1,1.9-4.9c0.5-0.6,0.9-1.3,1.2-2c1.4-3.5,2.7-7,4.1-10.5c4.4-11.5,8.8-23,13.2-34.5c0.5-1.4,1.2-2.7,0.1-4.5
			c-0.4,0.9-0.7,1.5-0.9,2.1c-5.7,15.5-11.3,31-16.9,46.5c-0.3,1-0.5,1.9-0.7,2.9C56.7,638.1,56,639.7,55.4,641.3L55.4,641.3z
			 M32.1,213.3l-2.1,2.3l0.4,0.4l1.9-2.5c3-3.2,6-6.3,8.9-9.6c18.7-20.8,37.3-41.6,55.9-62.5c22.5-25.2,45-50.4,67.6-75.4
			c2.9-3.2,3.7-6.8,4.5-10.8c-0.7,0.4-1.4,0.7-2.1,1c-1.6,0.5-3.4-0.3-4-1.9c-0.8-1.8,0-3.9,1.8-4.8c0.1,0,0.1-0.1,0.2-0.1
			c1.9-0.8,2.1-2.1,2.2-3.7c-2.3,0.5-4.3,0.5-6,2.6c-42.5,54.2-85,108.3-127.6,162.4C33.2,211.6,32.7,212.5,32.1,213.3L32.1,213.3z
			 M125.8,244.6c0.2-0.4,0.4-0.9,0.6-1.3c13.3-58.4,26.7-116.8,40-175.2c0-0.1-0.1-0.2-0.1-0.3s-0.2,0-0.5-0.1L10.6,240.8
			c0.5,1.1,1,2.1,1.4,3L125.8,244.6L125.8,244.6z M145.5,920.4l0.8-0.2c-10.8-51.5-21.5-103-32.3-154.7l-101.9,8.6l-1.4,3.4
			L145.5,920.4L145.5,920.4z M10.3,248.9c3.2,5.7,85.2,119.1,87.2,120.6c8.5-37,16.9-73.9,25.4-111.1L11.8,246.3L10.3,248.9z
			 M195,968.3c-18-68.6-35.9-136.7-53.9-205.1l-25.2,2.2c0.3,2,0.6,3.7,0.9,5.3c10.6,50.4,21.1,100.7,31.6,151.1
			c0.3,1.5,1,2.9,2.1,4c4.7,4.9,9.4,9.9,14.1,14.9c0.6,0.7,1.4,1.3,2.5,2.3c0-3.7,0.2-6.7-0.1-9.7c-0.1-1-1.4-1.9-2-2.9
			c-1-1.5-0.8-3.5,0.6-4.8c1.2-1,2.9-1.2,4.2-0.3c1.5,1,2.2,2.8,1.6,4.5c-0.4,0.8-0.9,1.6-1.4,2.4c1.5,5.8,3.1,11.6,4.6,17.4
			c0.4,1.5,1.2,2.8,2.2,3.9c3.6,3.7,7.1,7.5,10.7,11.3c1.5,1.6,2.9,3.5,5.6,2.8C193.5,967.7,194,968.1,195,968.3L195,968.3z
			 M90.6,653.7h-0.7L10.1,769.3l1.7,2.5l99.8-17.4L90.6,653.7L90.6,653.7z M135.3,259.8c-0.3,1.2-0.6,2-0.8,2.9
			c-2.7,11-5.5,21.9-8.2,32.9c-6.9,27.7-13.8,55.3-20.7,83c-0.5,1.4-0.2,2.9,0.7,4c7,9.6,14,19.4,20.9,29c0.4,0.5,0.9,1,1.4,1.4
			c3.9-9.3,45.9-132.8,46-135.3c-1.2,0.7-2.4,1.3-3.5,2c-1.7,1-3.6,1.6-3.8,4.3c-0.1,1.7-2.5,2.6-4.2,2.1c-1.7-0.6-2.7-2.4-2.3-4.2
			c0.4-1.8,2.1-2.9,3.9-2.7c0.8,0.2,1.6,0.4,2.3,0.7c1.8-1.2,3.7-2.2,5.6-3.2c3.4-1.5,4.7-4.2,5.2-7.5c-0.2-0.2-0.3-0.4-0.5-0.5
			c-6.1-1.9-12.2-3.8-18.4-5.6c-0.9-0.1-1.7,0.1-2.5,0.5c-2.4,1.2-3.5,0.9-5.2-1.2c-0.4-0.5-1-1.1-1.5-1.2
			C145,260.7,140.3,260.3,135.3,259.8L135.3,259.8z M17.5,787.7l-0.4,0.4l157,222.7l4.8-2c1.6-3.3,3.2-6.9,5-10.4
			c0.7-1.4,0.8-3,0.4-4.4c-2.1-7.7-4-15.4-6.1-23.1c-0.2-0.8-0.5-1.5-0.8-2.4c-0.8,0.3-1.5,0.5-2.1,0.8c-1.8,0.7-3.4,1.2-3.9,3.6
			c-0.5,2.1-3.3,2.5-5,1.1s-1.9-3.9,0-5.9c1.8-2.1,1.6-5.3-0.5-7c-0.1-0.1-0.1-0.1-0.2-0.2c-1.6-1-3.1-1.9-4.6-2.8
			c-0.4,0.2-0.7,0.3-1,0.4c-2.5,0.9-4.4,0.1-5.2-2.2c-0.6-1.8,0.3-3.8,2.1-4.5c2.1-0.7,3.9,0.5,4.6,3.2c0.1,0.7,0.4,1.3,0.9,1.8
			c1.5,1,3.1,1.9,4.7,2.9c0.3-3.4,0.3-3.4-1.9-4.8c-3.3-2.2-6.7-4.3-9.9-6.5c-3.1,1-4.4,0.8-5.6-0.8c-1.7-2.3-0.6-4.2,0.9-6
			c-0.8-3.7-1.6-7.3-2.2-10.9c-0.3-1.5-0.9-2.9-2-4c-7.8-8.3-15.6-16.7-23.3-25.1l-49.3-53.2l-45.1-48.6
			C25,795.7,21.3,791.7,17.5,787.7L17.5,787.7z M132.3,575.3c0.7-1,1.1-1.5,1.4-2c11.8-18.3,23.6-36.7,35.4-55.1
			c0.5-0.8,0.9-1.8,1.1-2.8c0.2-1.4,1-2.7,2.2-3.4c0.9-0.6,1.7-1.4,2.2-2.4c1-2.7,1.8-5.6,2.7-8.5l-2.4-1c-1.7,2.4-3.2,4.6-4.8,6.9
			c-1,1.4-2,2.6-1.3,4.7c0.6,1.8-0.9,3.4-2.7,3.7c-1.9,0.3-3.7-0.9-4-2.8c-0.3-1.8,0.8-3.5,2.6-3.9c0.7-0.1,1.5-0.2,2.2-0.2l6.3-9.1
			l-13.8-6c-0.3,0.1-0.6,0.3-0.9,0.5c-1.2,1-3,1-4.2,0c-1.4-0.9-1.8-2.6-1.1-4.1c0.7-1.5-0.1-2.3-0.7-3.3
			c-6.6-10.9-13.3-21.8-19.9-32.6c-0.4-0.7-0.9-1.3-1.6-2.2c-0.5,1.2-0.9,2.1-1.3,3c-6.9,17.9-13.7,35.8-20.7,53.6
			c-0.8,1.9-0.8,4,0,5.8c6.4,16.7,12.8,33.5,19.1,50.3C129.4,567.8,130.8,571.2,132.3,575.3L132.3,575.3z M121.6,607.5
			c-4.5,6.5-8.5,12.4-12.6,18.2c-1.1,1.4-1.4,3.2-0.8,4.8c10.2,38.7,20.4,77.4,30.6,116.2c0.2,0.9,0.6,1.7,0.9,2.8l23.6-4.1
			c-0.8-2.2-0.7-4.7,0.5-6.7L121.6,607.5L121.6,607.5z M11.8,256.4l-0.4,0.2l69.4,182.9c0.6-0.5,1-1.2,1.1-1.9
			c3.5-15.2,6.9-30.4,10.5-45.6c0.5-1.8,0.2-3.8-0.8-5.4C65.5,344,39.4,301.4,13.4,258.8C12.9,257.9,12.4,257.2,11.8,256.4z
			 M169.2,739.9c0.2-0.2,0.4-0.4,0.5-0.6c2.9-5.9,5.7-11.8,8.5-17.6c0.4-0.9,0.4-2,0-2.9c-0.9-2.4,0-4.2,2.2-4.8
			c0.8-0.2,1.6-0.2,2.3-0.3l-47.6-125.5c-0.8,1-1.2,1.5-1.6,2.1c-3.1,4.5-6.1,9-9.2,13.3c-1,1.3-1.2,3-0.6,4.5
			c13.5,42.1,27.1,84.2,40.6,126.3C165.1,737.1,166.2,739.2,169.2,739.9L169.2,739.9z M11.1,763l0.5,0.2c0.2-0.3,0.5-0.6,0.7-1
			c25-38.9,50-77.9,75.1-116.8c0.8-1.1,1-2.4,0.7-3.7C85,627.3,82,612.8,79,598.3c-0.5-2.2-1-4.4-1.4-6.7h-0.6
			C55,648.8,33,705.9,11.1,763z M137.6,749.9c-10.5-40-20.9-79.6-31.4-119.7c-0.9,1.1-1.4,1.7-1.8,2.4c-3.6,5.2-7.1,10.5-10.8,15.5
			c-1.3,1.7-1.7,3.9-1.1,6c6.3,29.9,12.6,59.8,18.8,89.7c0.7,3.4,1.4,6.7,2.2,10.3L137.6,749.9L137.6,749.9z M66.4,538.1h-0.5
			c-0.2,0.3-0.3,0.7-0.5,1.1c-17,68.3-34,136.7-51,205c0,0.1,0.1,0.2,0.1,0.3s0.1,0,0.4,0c0.4-1.1,0.9-2.2,1.2-3.3
			C34.7,686.9,53.4,632.8,72,578.6c1.3-3.4,1.5-7.1,0.7-10.6C70.4,558,68.4,548,66.4,538.1z M101,492.8c0.3-0.5,0.6-1,0.8-1.5
			c6.2-18.1,12.4-36.2,18.6-54.3c0.5-1.2,0.3-2.6-0.5-3.7c-6.2-10.2-12.5-20.3-18.7-30.5c-0.4-0.5-0.9-1.1-1.4-1.5
			c-0.2,0.6-0.3,0.9-0.4,1.2c-4.2,16.8-8.4,33.5-12.5,50.4c-0.2,1.4-0.1,2.8,0.4,4.1c2.7,7.5,5.6,14.9,8.4,22.3
			C97.5,483.6,99.2,488,101,492.8z M17.3,292l-0.5,0.1C32.3,366.5,47.9,440.9,63.6,516c0.3-0.6,0.5-1.2,0.8-1.8
			c1.7-7.2,3.4-14.5,5-21.8c0.2-1.1,0.1-2.2-0.2-3.3c-1.6-6.1-3.2-12.2-4.8-18.3c-14.2-54.2-28.5-108.4-42.7-162.6
			C20.2,302.8,18.8,297.4,17.3,292L17.3,292z M174.2,497.7c1.2-1.9,2.5-3.7,3.9-5.4c1.9-2.1,1-4.1,0.2-6.2c-0.4-0.7-0.9-1.4-1.4-2
			l-36.1-50.2c-0.6-0.8-1.2-1.5-1.9-2.4c-0.3,0.3-0.5,0.6-0.7,0.9c-1.9,5-3.9,10.1-5.9,15.1c-0.4,1-0.3,2.2,0.4,3.1
			c7.2,11.7,14.4,23.5,21.5,35.2c0.4,0.9,1.3,1.6,2.3,1.7c1.6,0.1,2.9,1.2,3.2,2.8c0.3,0.8,0.9,1.5,1.7,1.9
			C165.6,494,169.7,495.8,174.2,497.7L174.2,497.7z M70.2,485.8l0.5,0.1c0.2-0.7,0.5-1.3,0.6-2c1.3-5.5,2.4-11,3.8-16.4
			c0.5-1.9,0.4-3.8-0.3-5.6c-2.2-6.7-4.3-13.4-6.5-20.1C52.2,391.7,36.1,341.7,20,291.6c-0.2-0.8-0.6-1.5-0.9-2.3l-0.5,0.2
			C35.8,354.9,53,420.4,70.2,485.8L70.2,485.8z M98.7,536.5l-0.6,0.1c-0.3,0.7-0.7,1.4-1,2.2c-2.3,5.9-4.5,11.8-6.8,17.7
			c-0.7,1.7-0.8,3.6-0.3,5.3c3.9,14.6,7.7,29.2,11.5,43.7c1,3.9,2.1,7.8,3.3,12.2c0.8-1.1,1.4-1.8,1.9-2.5
			c3.4-5.2,6.7-10.5,10.1-15.7c1-1.4,1.3-3.2,0.6-4.8c-4.3-13.3-8.6-26.6-12.8-39.8L98.7,536.5L98.7,536.5z M106.9,514.2
			c-0.6,1.3-1,2.1-1.3,2.9c-1.7,4.5-3.4,9-5.2,13.4c-0.7,1.6-0.7,3.4-0.1,5c6.1,18.9,12.2,37.8,18.3,56.7c0.3,0.8,0.6,1.6,1,2.8
			c0.7-1,1.2-1.6,1.7-2.3c2.8-4.3,5.4-8.6,8.3-12.8c1.1-1.5,1.3-3.4,0.5-5.1c-7.4-19.2-14.6-38.5-22-57.7
			C107.8,516.2,107.4,515.4,106.9,514.2L106.9,514.2z M88.3,562.7c-0.3,0.4-0.6,0.8-0.8,1.3c-2.8,7.3-5.7,14.6-8.4,22
			c-0.4,1.3-0.4,2.6-0.1,3.8c2.7,13.4,5.5,26.7,8.3,40.1c0.8,3.6,1.5,7.1,2.4,11.2c0.8-1.2,1.4-1.8,1.9-2.6
			c3.4-5.3,6.8-10.7,10.3-15.9c1.1-1.6,1.4-3.6,0.8-5.4c-4.5-16.8-8.8-33.7-13.3-50.5C89.2,565.5,88.8,564.2,88.3,562.7L88.3,562.7z
			 M194.7,276.2c-0.3,0.2-0.5,0.2-0.6,0.4c-3.9,5.4-7.8,10.7-11.6,16.1c-0.6,0.8-0.4,2.1-0.6,3.1s-0.4,2.5-1.1,3.3
			c-1,1-1.7,2.3-2.1,3.6c-10.4,28.6-20.9,57.3-31.3,85.9c-3.8,10.5-7.7,21-11.5,31.6c-0.4,1-0.5,2.1-0.2,3.1
			c0.5,1.2,1.5,2.2,2.6,3.7c0.7-1.8,1.2-2.9,1.7-4.1l48.3-125.6c2.3-6,4.6-12,6.9-18C195.4,278.3,196.2,277.2,194.7,276.2
			L194.7,276.2z M133.7,420.2c14.6-40,29.1-79.9,43.7-119.8c-0.5-0.4-1-0.8-1.4-1.3c-1.5-1.7-1.6-3.8,0.2-5.1
			c1.6-1.1,1.7-2.3,1.8-3.9c0.1-1.9,0.3-3.9,0.4-5.8c0.2-2.9,0.3-5.8,0.5-9c-1.8,0.7-1.8,2.1-2.1,3.1
			c-15.2,44.1-30.2,88.3-45.5,132.3c-1.3,3.8-0.8,6.4,1.8,8.9C133.2,420,133.5,420.1,133.7,420.2L133.7,420.2z M137,244.5
			c0.4-1.6,0.8-2.8,1.1-4.1c13-51.9,25.9-103.8,38.8-155.7c2.4-9.5,4.8-19,7.1-28.5c1-4,0.7-4.4-3.3-5.7c-0.7,1.2-1.2,2.4-1.7,3.7
			c-1.7,6.9-3.4,13.9-5,20.8c-13.3,55.6-26.6,111.2-39.9,166.8c-0.2,0.8-0.2,1.7-0.4,2.7L137,244.5z M76.1,460l0.7-0.1
			c1-4.5,2-8.9,3.1-13.4c0.4-1.7,0.3-3.4-0.4-5c-18.5-48.8-37-97.6-55.5-146.3c-0.4-1-0.9-2-1.3-3l-0.6,0.2
			C40.2,348.2,58.1,404.1,76.1,460L76.1,460z M131.6,244.5c15.1-62.9,30.1-125.6,45-188.1c-2,1.5-3.8,3.3-5.4,5.1
			c-1.2,1.2-2,2.8-2.4,4.5c-13.3,58.5-26.7,117-40.1,175.5c-0.2,0.9-0.3,1.9-0.5,3L131.6,244.5L131.6,244.5z M93.1,385.7l0.7-0.2
			c0.9-3.8,1.7-7.5,2.7-11.2c0.4-1.5-0.3-2.5-1.1-3.6c-23.1-32.2-46.3-64.4-69.4-96.6c-0.4-0.5-0.9-1-1.3-1.6l-0.4,0.3L93.1,385.7
			L93.1,385.7z M84.6,540.6c0.5-1,0.7-1.3,0.9-1.7c2.2-6.5,4.4-13.1,6.8-19.6c0.4-1.2,0.3-2.4-0.1-3.5c-3.6-11.2-7.2-22.5-10.9-33.7
			c-0.3-0.7-0.6-1.4-1-2.1c-1.6,6.4-2.9,12.2-4.6,18c-0.8,2.9-0.8,6,0,8.9C78.7,517.9,81.5,528.9,84.6,540.6L84.6,540.6z
			 M73.8,507.5h-0.5c-2,8-4,16-6,24c-0.2,1-0.1,2,0.2,3c1.5,7.5,3.1,14.9,4.6,22.4c0.8,3.9,1.7,7.8,2.7,12.5c0.6-1.4,1-2.1,1.2-2.8
			c2.3-6.6,4.5-13.3,6.9-19.9c0.5-1.5,0.6-3.2,0.1-4.7c-2.8-10.4-5.5-20.8-8.2-31.3C74.5,509.5,74.1,508.5,73.8,507.5L73.8,507.5z
			 M127.7,415.8l-23.2-32.3c-0.3,1-0.5,1.4-0.7,1.9c-0.9,3.6-1.7,7.1-2.7,10.7c-0.4,1.4-0.2,2.8,0.7,4c6.3,10.2,12.5,20.5,18.8,30.8
			c0.4,0.6,0.9,1.1,1.4,1.6C124,426.7,125.8,421.3,127.7,415.8L127.7,415.8z M29.6,245.8c7.9,1.9,91.2,10.7,93.9,10.2
			c0.7-3,1.3-6.1,2.1-9.5L29.6,245.8z M85.7,458.1c-1.4,5.7-2.6,10.7-4,15.7c-0.4,1.4-0.3,2.8,0.2,4.1c3.7,11.3,7.3,22.6,11,34
			c0.2,0.7,0.6,1.3,1,2.5c2-5.7,3.7-10.9,5.6-16c0.6-1.5,0.6-3.2-0.1-4.7c-4.1-10.7-8.2-21.5-12.2-32.2
			C86.7,460.6,86.3,459.7,85.7,458.1L85.7,458.1z M177.6,267c0.1-2.9-1.6-4.1-3.4-5.3c-2.1-1.4-4.2-2.8-6.3-4.3
			c-1.2-0.9-2.3-1.6-3.9-0.8c-0.7,0.2-1.4,0.2-2.1-0.1c-1.8-0.6-2.8-2.6-2.2-4.4c0-0.1,0.1-0.2,0.1-0.3c0.8-1.9,2.9-2.9,4.9-2.1
			c0.1,0,0.1,0.1,0.2,0.1c0.9,0.4,1.9,1.2,2.7,1c4-0.9,8-2.1,11.9-3.2l-0.1-0.7h-41.2c-0.9,3.6-1.8,7.2-2.7,11l12.5,1.4
			c1.5,0.3,3-0.1,4.1-1.1c1.6-1.5,4.2-1.1,4.9,0.9c0.8,2.2,2.4,2.5,4.1,3L177.6,267z M194,981.9c-1.2,2.9-2.6,5.7-4.1,8.4
			c-2.6,3.8-3,8.7-1.1,12.9c0.8,2.2,1.4,4.5,1.9,6.8c0.4,0.1,0.8,0.1,1.2,0.1c2.7-0.4,5.4-0.8,8.1-1.2c3.4-0.5,5-2.8,4.1-6.1
			c-1.8-6.9-3.6-13.7-5.4-20.6c-0.2-0.6-0.4-1.1-0.7-1.7L194,981.9L194,981.9z M103.7,378.4l29.7-118.8l-3.2-0.2
			c-0.2,0.7-0.4,1.2-0.5,1.6c-6.3,26.4-12.6,52.7-18.9,79.1c-2.8,11.5-5.5,23-8.2,34.5C102,376,101.7,377.3,103.7,378.4L103.7,378.4
			z M100.6,374.1c9.2-38.4,18.3-76.6,27.5-115.2h-3.4c-0.2,1-0.5,1.9-0.7,2.8l-18.8,81.9c-2,8.8-4,17.7-6.1,26.5
			C98.9,371.7,98.6,373,100.6,374.1L100.6,374.1z M134.9,581.3c13.8-20.5,27.4-40.8,41-61c0.1-0.2,0-0.6-0.1-1l-4.8-0.7
			c-0.5,0.7-0.9,1.3-1.4,2c-11.7,18.3-23.4,36.5-35.2,54.7C133,577.5,133.3,579.1,134.9,581.3L134.9,581.3z M104.3,500.6
			c0.5-1.2,0.9-2.2,1.3-3.2c2.8-7.6,5.6-15.3,8.4-23c3.6-9.8,7-19.5,10.7-29.3c0.8-2,0.7-3.7-0.6-5.4c-0.5-0.7-1-1.4-1.7-2.4
			c-0.5,1.3-0.9,2.2-1.2,3.2c-6,17.3-11.8,34.7-17.9,52C102.1,495.3,102.5,498.4,104.3,500.6L104.3,500.6z M107,507.9
			c0.5-1.2,0.9-2,1.2-2.8c6.8-17.6,13.4-35.2,20.4-52.8c1.3-3.2,0.3-5.1-1.8-7.4c-0.4,1.1-0.8,2.1-1.2,3
			c-6.4,17.7-12.9,35.5-19.4,53.1C105.2,503.3,105.5,505.9,107,507.9L107,507.9z M196.4,1042.3l0.6-0.4c-2.6-9.7-5.1-19.4-7.7-29.3
			c-2.2,0.3-4.2,0.6-6.2,1c-0.6,0.1-1.1,0.5-1.4,0.9c-0.9,1.1-1.6,2.2-2.4,3.5L196.4,1042.3L196.4,1042.3z M49.5,767.1l0.1,0.6
			l21.2-2.4c7-0.8,14-1.6,20.9-2.4s14.1-1.4,21.2-2.6c-0.4-1.5-0.6-2.7-0.9-4L49.5,767.1z M162.3,747.5l-22.3,3.9
			c0.6,2.1,1,3.9,1.5,5.8l18.1-2.1c2.2-0.3,4.4-0.5,6.6-0.8c0.5-0.1,0.9-0.6,1.8-1.3C163.6,752.8,162.6,751.9,162.3,747.5
			L162.3,747.5z M180.8,970.2l-0.6,0.5l5.8,22.1l0.6,0c1.2-2.5,2.3-5.1,3.7-7.6s2.6-5,1-7.8c-0.1-0.3-0.2-0.6-0.3-0.9L180.8,970.2
			L180.8,970.2z M114.8,760.2c8.4-1.1,16.6-1.7,24.9-3.1c-0.6-2.1-1.2-3.8-1.7-5.5l-24.1,4.2C114.2,757.5,114.5,758.7,114.8,760.2
			L114.8,760.2z M167.3,953.8c0.6-2.8,0.1-4.8-1.7-6.7c-4.4-4.5-8.6-9.2-12.9-13.8c-0.6-0.6-1.3-1.1-1.9-1.5c0.7,3.3,1.2,6,1.8,8.7
			c0.1,0.6,0.5,1.1,1,1.4c1.5,0.6,2.6,2.1,2.6,3.8c0,0.5,0.2,1,0.6,1.3C160.1,949.2,163.5,951.4,167.3,953.8L167.3,953.8z
			 M74.1,577.7c-7.8,22.7-15.4,45-23.1,67.4l0.6,0.2c0.4-1.1,0.9-2.2,1.3-3.3c2.6-7.1,5.2-14.2,7.7-21.2
			c4.6-12.6,9.2-25.3,13.8-37.9C75,581.3,75.6,579.8,74.1,577.7L74.1,577.7z M94.4,392.1c-0.3,1-0.6,1.8-0.8,2.6
			c-2.1,9.1-4.2,18.2-6.2,27.4c-1.5,6.7-3,13.3-4.5,19.9c-0.3,1.1-0.7,2.3,0.7,3.3c0.3-1,0.6-1.9,0.8-2.8c1.8-7.3,3.5-14.7,5.3-22
			c2-8.3,3.9-16.6,6-24.9C95.9,394.2,96,393.1,94.4,392.1L94.4,392.1z M126.5,439.9c2-5.6,4-10.8,5.8-16c0.2-0.6,0.1-1.2-0.2-1.7
			c-0.9-1.4-1.9-2.7-3.2-4.5c-1.6,4.7-2.7,9-4.5,12.9c-1.5,3.4-0.9,6,1.3,8.6C125.9,439.4,126.1,439.5,126.5,439.9L126.5,439.9z
			 M84.7,450.4h0.8c0.2-0.5,0.4-1.1,0.6-1.6c2.3-9,4.5-18,6.7-27c1.8-7,3.5-14,5.3-21c0.3-1.4,0.9-2.8-0.8-4c-0.3,0.6-0.5,1.3-0.8,2
			c-3.9,16.2-7.7,32.3-11.6,48.4C84.8,448.2,84.7,449.3,84.7,450.4L84.7,450.4z M130.6,446.9c2.2-5.8,4.3-11.1,6.3-16.5
			c0.2-0.7,0.1-1.4-0.2-2c-0.8-1.3-1.7-2.5-2.6-3.7c-1.9,5.3-3.5,10-5.4,14.6c-1,2.3-0.8,4.1,0.7,5.9
			C129.8,445.6,130,446,130.6,446.9L130.6,446.9z M184.3,43.7c4.1-2.6,4.7-6.6,5.5-10.5c0.3-1.4-0.5-2-1.7-1.4
			c-3.6,1.8-7.2,3.7-11.3,5.8c1.3,1.1,2.2,2.6,3.1,2.7C182.4,40.3,183.6,41.6,184.3,43.7L184.3,43.7z M87,548.5
			c2.5-7,4.8-13.5,7.3-20c1-2.5,0.7-4.6-0.7-7.1c-0.4,1-0.8,1.8-1,2.5c-2.1,6.1-4.1,12.2-6.3,18.2C85.6,544.1,85.7,546,87,548.5
			L87,548.5z M192.9,273.6c-1.7-0.5-2.8-1-3.8-1c-1.5,0.3-3,0.2-4.5-0.3c-1.1-0.4-3.5,1.4-3.7,2.6c-0.3,2.5-0.4,5-0.6,7.4
			c1.7-1.5,3.2-2.5,5.4-2c0.5,0,1-0.2,1.3-0.6C188.9,277.9,190.7,276,192.9,273.6L192.9,273.6z M142.3,758.9
			c-0.1,2.5,1.4,2.2,2.6,2.1l20.4-1.7c1.3-0.1,2.7-0.3,4.3-0.4L167,756L142.3,758.9L142.3,758.9z M96.4,522.2
			c0.5-1.1,0.8-1.8,1.1-2.6c1.7-4.5,3.2-9,5-13.5c1.1-2.6,0-4.5-1.5-6.9c-1.8,5.3-3.3,10.3-5.2,15.1
			C94.7,516.9,94.9,519.9,96.4,522.2L96.4,522.2z M131.7,580.1c-0.3,0.3-0.6,0.5-0.8,0.8c-3.2,5-6.5,10.1-9.8,15.1
			c-1.1,1.7-0.6,2.9,0.5,4.5c0.7-0.9,1.2-1.6,1.7-2.4c2.8-4.1,5.5-8.3,8.4-12.4C133.3,583.8,133.5,582.1,131.7,580.1L131.7,580.1z
			 M119,600.2c-0.3,0.2-0.6,0.3-0.8,0.6c-4,6.1-8,12.3-11.9,18.4c-0.9,1-0.8,2.6,0.2,3.5c0.2-0.1,0.4-0.2,0.5-0.4
			c4-6,8.1-12,12.2-17.9C120.3,602.8,119.9,601.6,119,600.2z M84.5,548.6c-0.3,0.3-0.5,0.6-0.7,1c-2.6,7.6-5.2,15.2-7.8,22.8
			c-0.5,1.4-0.1,2.6,0.7,4.2c0.5-1.2,0.9-2,1.2-2.9c2.3-6.4,4.6-12.8,7-19.2C85.7,552.6,85.6,550.4,84.5,548.6z M88.8,555
			c0.3-0.3,0.5-0.7,0.7-1.1c2.5-6.5,5-13.1,7.6-19.6c0.6-1.6,0.3-3.5-0.8-4.9c-0.2,0.3-0.4,0.5-0.6,0.8c-2.5,6.8-5,13.7-7.5,20.6
			C87.5,552.3,87.8,553.8,88.8,555L88.8,555z M104.1,507.3c-0.4,0.9-0.7,1.6-1,2.4c-1.7,4.6-3.2,9.2-5.1,13.7
			c-0.9,1.9-0.6,4.2,0.6,5.9c0.4-0.9,0.8-1.6,1.1-2.3c1.8-4.5,3.4-9.1,5.3-13.6C106.1,511.1,105.6,509.3,104.1,507.3L104.1,507.3z
			 M86.5,556.2c-0.2,0.2-0.4,0.3-0.4,0.5c-2.8,7.6-5.7,15.3-8.4,22.9c-0.2,1-0.2,2,0,3.1c0.7,0,0.9-0.3,1-0.5
			c2.8-7.3,5.6-14.6,8.4-21.9C87.7,558.9,87.5,557.4,86.5,556.2L86.5,556.2z M186,1000.1l-0.7-0.1c-1.5,3.2-3.1,6.4-4.5,9.6
			c-0.6,1.2,0.2,2.2,1.6,2c2-0.2,4-0.6,6.3-1C187.7,1006.9,186.9,1003.5,186,1000.1z M104,622.9c-4.5,7-8.9,13.8-13.1,20.5
			c-0.3,0.5-0.1,1.4-0.2,2.2c0.6-0.2,0.7-0.2,0.7-0.2c4.3-6.3,8.6-12.6,12.9-18.9C105.2,625.3,104.7,624.3,104,622.9L104,622.9z
			 M67.6,679.4l0.6,0.5l20.7-30.6c0.6-0.8,0.5-1.9-0.2-2.7L67.6,679.4z M181,725l-1,0.1c-1.3,5.1-3,10.2-4.1,15.8
			c1.1-0.3,2.1-0.3,2.4-0.8c1.2-1.6,2.1-3.4,2.8-5.4c0.5-2.6,0.7-5.2,0.6-7.9C181.6,726.3,181.3,725.6,181,725z M140.3,761.3
			c0.2-1.6-0.4-2.2-1.9-2c-2.7,0.4-5.4,0.6-8.2,0.9c-4.4,0.5-8.9,1-13.3,1.6c-0.6,0.2-1.1,0.4-1.6,0.8l0.2,0.7
			C123.9,763,132.1,762,140.3,761.3L140.3,761.3z M170.6,58.6l0.5,0.3c2.1-2.4,4.3-4.7,6.4-7.2c0.4-0.7,0.7-1.5,0.8-2.3
			c0.2-1.2-1-2-1.6-1.7c-1.6,0.8-3.5,1.7-4.2,3.1C171.4,53.2,171.2,56,170.6,58.6L170.6,58.6z M180.5,744.1c-1.3,0.5-2.2,0.5-2.5,1
			c-1.7,2.4-3.1,4.9-4.4,7.5c2.2,0.7,2.8,0.7,6.2-0.2C180,749.8,180.2,747.3,180.5,744.1L180.5,744.1z M133,246.7
			c-1,3.5-1.8,7.1-2.4,10.7h3.2l2.7-10.7L133,246.7L133,246.7z M127.5,246.6l-2.3,10.2h3.4c0.5-1.8,0.9-3.5,1.3-5.2s0.7-3.3,1-5
			L127.5,246.6L127.5,246.6z M95.9,390.5h0.7c1-4.2,2-8.4,3-12.6c0.2-1.1-0.3-1.8-1.5-2.7c-1,4.5-2,8.6-2.8,12.8
			C95.2,388.8,95.7,389.7,95.9,390.5L95.9,390.5z M177.1,27.8c1,2.5,1.8,4.2,2.6,6.2c2.2-1.3,4.8-2.1,7.2-4.1L177.1,27.8L177.1,27.8
			z M98.8,395.1l0.7-0.1c1.1-4.3,2.1-8.5,3.2-12.8c0.3-1.1-0.2-1.9-1.4-2.7c-1.1,4.6-2.2,8.9-3.1,13.3
			C97.9,393.5,98.5,394.3,98.8,395.1L98.8,395.1z M87.1,765.6c8.8-0.4,17.5-1.1,26.8-2.1C111.5,762.2,103.9,762.8,87.1,765.6z
			 M72.5,491.6c1.7-6.9,3.3-13.8,4.9-20.6c0.1-0.4-0.3-0.9-0.6-1.8C74.5,476.6,71.9,489.1,72.5,491.6L72.5,491.6z M162.6,543.5
			c4.7-4.7,14.6-19.7,14.8-21.9L162.6,543.5z M169.4,957.5c0,1.9-0.6,3.3,0.9,4.2c2,1.2,3.9,2.4,6.3,3.8c-0.3-1.8-0.2-3.3-1.5-4.2
			C173.4,960.1,171.6,959,169.4,957.5L169.4,957.5z M82.1,448.3l-0.8,0.1c-1.2,5.1-2.4,10.3-3.5,15.4c0,0.7,0,1.4,0.2,2.1
			c1.7-5,3.1-10.2,4.2-15.4C82.3,449.8,82.3,449,82.1,448.3L82.1,448.3z M73.1,497.3l0.6,0.1c0.1-0.1,0.2-0.1,0.2-0.2
			c1.8-7,3.6-13.9,5.3-20.9c0.1-0.3-0.3-0.8-0.7-1.7C76.5,482.6,74.8,489.9,73.1,497.3L73.1,497.3z M181.1,504.2l-0.7-0.2
			c-1.5,2.8-4.3,5-4.4,8.9c1.8-0.3,3.3-0.4,3.8-2C180.4,508.7,180.7,506.4,181.1,504.2L181.1,504.2z M71.3,496.6l-0.9-0.2l-5.6,24.8
			l0.6,0.2L71.3,496.6L71.3,496.6z M80.4,471.7c1.4-5.7,2.7-11.1,4-16.5c0.1-0.4-0.2-1-0.3-1.4h-0.7c-1.3,5.6-2.5,11.2-3.8,16.8
			C79.6,470.8,79.9,471.1,80.4,471.7z M66,526.7c2.6-8,4.8-16.3,6.7-24.6l-0.7-0.2L66,526.7L66,526.7z M171,740.7
			c1.5,0.4,2.7,0.5,3.1-0.8c1-3.2,1.8-6.4,2.6-9.7l-0.6-0.2C174.4,733.5,172.8,737,171,740.7L171,740.7z M169.7,963.5
			c-0.4,2.7,0.3,4.5,2.1,5.5c1-0.8,2.6-0.7,3.6-2.1L169.7,963.5L169.7,963.5z M186,765.2h0.4c0.4-2.5,0.6-5,1.1-7.4
			c0.4-1.8-0.3-2.8-2.2-3.6C185.6,758.1,185.8,761.6,186,765.2L186,765.2z M174.7,958.8c-0.6-2.6-2.8-5.1-5.8-6.7
			c0.4,1.5,0.4,2.9,1.1,3.6C171.5,956.8,173.1,957.9,174.7,958.8L174.7,958.8z M169.4,751.4c1.9-0.8,2.7-2.6,2.4-5.6l-3,0.6
			C169,748.1,169.2,749.7,169.4,751.4L169.4,751.4z M177.7,41.5c-0.8-0.9-1-2.3-2.7-2.6l-1,4.7l2.6,1.4
			C177.1,43.7,177.4,42.7,177.7,41.5L177.7,41.5z M176.1,758.3l2.9-3.5c-2.5-0.2-4.8,1.2-5.6,3.6L176.1,758.3z M182.8,969.3l5.9,3.5
			C188.8,968.9,186.8,967.8,182.8,969.3L182.8,969.3z M169.8,939.1c-1.2,6.4-0.7,7.5,2.2,8.5L169.8,939.1z M172.3,31.3
			c0.6-1.8,0.9-3,1.4-4.3l-4.6-0.9l-0.3,0.5L172.3,31.3L172.3,31.3z M168.2,50.1c2.5-1.3,3.5-3,3.4-5.1c0-0.5-0.7-0.9-1.3-1.7
			C169.5,45.8,169,47.6,168.2,50.1L168.2,50.1z M182,509.7l0.6,0.2l3.2-5.2l-2.8-1C182.6,505.9,182.3,507.8,182,509.7z M182.1,287.2
			l-1.8-2.5c-0.6,2.4-0.6,4.9,0,7.3L182.1,287.2L182.1,287.2z M183,744.5l-0.7-0.1c-0.2,2.2-0.4,4.5-0.5,6.7c-0.1,1,0.4,1.3,1.6,0.8
			C183.3,749.5,183.2,747,183,744.5L183,744.5z M179.1,494.7l-0.5-0.2l-2.8,4l1.9,0.5L179.1,494.7z M156.1,553.2l0.4,0.3l3.6-5.2
			l-0.5-0.3L156.1,553.2z M191.4,35.8c1.3-1,2.5-1.7,2.3-3.5C191.3,32.5,191.4,34,191.4,35.8z M182.1,491.7l-1,3l2.9-0.4
			L182.1,491.7L182.1,491.7z M186.2,500.1l-2.4,1.7l3.5,1.3C186.8,501.9,186.6,501.1,186.2,500.1z M185.8,48.7l0.9-3.9
			C185.2,46.1,184.8,47.4,185.8,48.7L185.8,48.7z M50.6,648.5l-0.5-0.2l-1.3,3.5l0.4,0.2C49.7,650.7,50.1,649.6,50.6,648.5
			L50.6,648.5z M171.6,42.3c0.9-0.4,1.4-1.5,1-2.4C171.1,40.3,170.9,41,171.6,42.3z M182.9,756.5l0.8-0.4c-0.4-0.6-0.7-1.3-1.1-1.9
			c0,0-0.5,0.2-0.8,0.3L182.9,756.5L182.9,756.5z M184.9,726.7l-0.7,0.1c0.2,0.7,0.3,1.4,0.5,2.1l0.7-0.2L184.9,726.7z M169.8,743.2
			l0.2,1l2.8-0.7l-0.1-0.7L169.8,743.2L169.8,743.2z M82.2,766v0.3l2.1-0.1V766H82.2z M179.1,963.8l-0.6,0.2
			c0.1,0.5,0.3,1.1,0.5,1.6l0.6-0.2L179.1,963.8z M183.3,513.4l-0.3-0.2c-0.3,0.3-0.5,0.5-0.7,0.9c-0.1,0.3-0.1,0.7-0.1,1l0.4,0.1
			L183.3,513.4L183.3,513.4z"/>
	</g>
</g>
</svg>
