<svg xmlns="http://www.w3.org/2000/svg" viewBox="0 0 390.63 1052.84"><defs><style>.cls-1{fill:#fff;}</style></defs><g id="Layer_2" data-name="Layer 2"><g id="a"><path class="cls-1" d="M342.93,38.84C340,37,336.83,35,333.56,33.13c-.61-.35-1.69,0-2.52.19a3.33,3.33,0,0,1-3.61-1,3.61,3.61,0,0,1-.56-3.74,3.66,3.66,0,0,1,3.52-2.46c1.57.2,2.88,1.12,2.91,2.68,0,2.19,1.47,2.93,2.95,3.82,3.5,2.1,6.95,4.27,10.49,6.3,2.21,1.27,3,.92,3.84-1.48a10.18,10.18,0,0,0,.79-2.63,4.36,4.36,0,0,0-.47-2.51,49.29,49.29,0,0,0-3.08-4.07c-3.61,0-5.1-.92-5.37-3.25a4.26,4.26,0,0,1,2.69-4.36c2.12-.67,3.52.3,4.91,3.49.62.18,1.29.42,2,.57s1.4.2,2.28.32a18.47,18.47,0,0,0,.87-1.88c1.46-4.46,2.87-8.93,4.35-13.38.44-1.31.84-2.53-.25-3.7a1.63,1.63,0,0,1-.28-.54A4.23,4.23,0,0,1,361.11.34a3.37,3.37,0,0,1,4.31,1.22c1.12,1.63,1,4.27-.78,5.18-2.45,1.23-2.7,3.32-3.19,5.45-1,4.47-2,8.94-3.14,13.77L368,28.11c3.44-4.14,4.81-4.25,7.88-.76a13.35,13.35,0,0,1,1.45-.08c2.3.09,3.71,1.42,3.76,3.54s-1.57,4.29-3.66,4.1c-1.87-.18-2.64.82-3.82,1.8-3.87,3.21-4.64,7.72-5.56,12.42,2,.89,4.1,1.95,3.38,4.82-.52,2.07-1.94,2.88-5.43,3q-23.34,93.5-46.78,187.46a20.28,20.28,0,0,0,2.27.32l41.63.36a3.65,3.65,0,0,0,3.25-1.15c1.78-2,3.74-2.09,5.32-.57a3.56,3.56,0,0,1,.39,4.74c-1.24,1.78-3.28,2.06-5.37.73-.34-.22-.64-.49-1.08-.83-6.15,1.77-12.47,3.16-18.83,5.38,1.46,2.5,3.74,3.33,5.54,4.7s3.68,2.55,5.45,3.78c4.82-2.22,6.06-1.36,6.76,4.52,5.07-.69,6-.05,6.12,4.51l3.19,1a19.9,19.9,0,0,1,.31-2.57,3.81,3.81,0,0,1,4.13-2.9c1.94.25,3.09,1.69,3.15,3.86a30.05,30.05,0,0,0,.23,3c.25,2-.34,3.71-2.21,4.19s-2.26,1.86-2.79,3.23Q363.83,314.08,351,347.48,335.82,387,320.6,426.54A4.07,4.07,0,0,0,321,431q18.93,26.16,37.73,52.4c.35.49.75.94,1.2,1.5,2-.8,4-1.21,5.47.94s.2,3.66-1.2,5.16l3.78,5.3c5.11-.16,7.09,2,5.11,6.51a13.77,13.77,0,0,1,2,.28,3.49,3.49,0,0,1,2.61,4.21,3.57,3.57,0,0,1-4.17,2.7,4.73,4.73,0,0,1-1.16-.36c-1.65-.7-2.84-.26-4,1.18a54.36,54.36,0,0,0-8,15,3.16,3.16,0,0,0,0,2c.9,2.55.77,3.76-.71,4.89s-2.63.93-5-.63a3.79,3.79,0,0,0-.78-.26L316.62,586c.28.82.53,1.68.85,2.51q24.7,65.19,49.39,130.39a4.85,4.85,0,0,0,3.1,3.37,3.3,3.3,0,0,1,2,3.76,3.6,3.6,0,0,1-2.75,2.95c-.82.25-1.91.41-2.34,1a10.32,10.32,0,0,0-2,4.06,38,38,0,0,0-.08,6.15,30.16,30.16,0,0,0,4.93-.08c.73-.13,1.35-1,2-1.63a3.64,3.64,0,0,1,5.91.93,3.53,3.53,0,0,1-.78,4.2c-1.22,1.06-2.91,1.43-3.93.4-2.47-2.47-4.87-.78-7.51-.54V751c.81-.61,1.28-1,1.8-1.34a3.49,3.49,0,0,1,4.88.81c1.21,1.62,1.13,3.8-.67,4.82s-1.95,2.4-2.17,4c-.59,4.24-1.19,8.48-1.77,12.72-.22,1.61-.42,3.06,1,4.5a3.22,3.22,0,0,1-.41,4.66,3.51,3.51,0,0,1-4.73-.17c-1.31-1.27-1.73-3.52-.37-4.67,1.82-1.54,1.6-3.31,1.51-5.23-.15-3.13-.27-6.26-.42-9.78-1,.46-1.54.77-2.15,1a2.79,2.79,0,0,1-3.41-.54c-1.49-1.87-3.29-1.55-5.23-1.38-8.84.78-17.68,1.51-26.52,2.26-1,.09-2,.23-3.28.37.22,1.15.34,2.11.59,3q22.09,84.14,44.22,168.26,8.78,33.42,17.54,66.84c.48,1.85.82,3.55,2.95,4.58s2.39,3.81,1.09,5.6-3.5,2-5.52.08a2.88,2.88,0,0,0-2.74-.8l-9.86,1.5a13.37,13.37,0,0,0,.16,2.12c2.42,9.27,4.89,18.53,7.31,27.8.37,1.42.78,2.62,2.38,3.23a4.1,4.1,0,0,1,1.75,2,3.66,3.66,0,1,1-6.7,2.84,3.41,3.41,0,0,1-.26-2.08c.7-2-.29-3.3-1.31-4.72-6.64-9.3-13.31-18.57-19.88-27.91q-28.69-40.8-57.35-81.63-53.56-76.07-107.2-152.09c-.53-.75-1.07-1.49-1.71-2.37-2.18.59-4.49.91-6.27-.83a8.17,8.17,0,0,1-2.2-3.52c-1-3.66,1-6.13,6.17-7.71,1.21-5.23,2.46-10.58,3.69-15.94Q206.14,682.28,222,613.12q10.29-45,20.53-90a9.35,9.35,0,0,0,0-3.87q-15-71.85-30-143.68Q199.81,314.77,187.13,254c-.19-.9-.43-1.78-.7-2.9-2.21-.45-4.56-1.2-5.47-3.6a8.12,8.12,0,0,1-.4-4.41c.79-3.57,3.65-4.78,8.77-3.91,1.51-1.9,3.09-3.88,4.66-5.87L340.48,47.15c.95-1.2,1.76-2.21,1.32-4-.28-1.16.65-2.62,1.12-4.23ZM235.59,641.35l-1,2.31.58.17.36-2.56a6.44,6.44,0,0,0,2-4.77,13.23,13.23,0,0,0,1.19-2c1.39-3.5,2.72-7,4.06-10.53q6.61-17.24,13.24-34.46c.53-1.38,1.21-2.73.08-4.46-.38.86-.69,1.47-.92,2.11q-8.48,23.2-16.91,46.43a23.79,23.79,0,0,0-.67,2.92c-.65,1.6-1.29,3.19-1.93,4.8Zm-23.26-428-2.11,2.25.41.36,1.86-2.46c3-3.19,6-6.33,8.93-9.58q28-31.22,55.92-62.46c22.52-25.15,45-50.36,67.65-75.38,2.92-3.22,3.72-6.77,4.53-10.85a16,16,0,0,1-2.15,1,3.19,3.19,0,0,1-4-1.9,3.6,3.6,0,0,1,1.95-4.84c1.94-.77,2.09-2.07,2.24-3.68-2.31.5-4.29.5-6,2.62Q277.9,129.74,214,210.84c-.62.79-1.1,1.68-1.65,2.52ZM306,244.64a8.2,8.2,0,0,0,.59-1.33q20-87.61,40-175.23c0-.08-.07-.2-.14-.26s-.17,0-.48-.13L190.83,240.83c.53,1.11,1,2.08,1.44,3l113.7.79Zm19.76,675.78.77-.23Q310.34,843,294.15,765.53l-101.81,8.65-1.37,3.4L325.75,920.42ZM190.54,248.94c3.25,5.69,85.17,119.12,87.15,120.57,8.47-37,16.91-73.89,25.43-111.11L192,246.3l-1.49,2.64ZM375.2,968.28c-18-68.59-35.92-136.74-53.86-205.06l-25.21,2.16c.35,2,.6,3.66.95,5.34q15.82,75.56,31.62,151.12a7.77,7.77,0,0,0,2.06,4c4.73,4.94,9.38,9.94,14.08,14.9.65.69,1.39,1.3,2.5,2.34,0-3.67.17-6.72-.1-9.72-.09-1-1.36-1.87-2-2.87a3.67,3.67,0,0,1,.58-4.75,3.54,3.54,0,0,1,4.25-.29,3.83,3.83,0,0,1,1.56,4.53,19.12,19.12,0,0,1-1.41,2.42c1.52,5.76,3.1,11.56,4.57,17.38a8.24,8.24,0,0,0,2.25,3.88c3.61,3.73,7.15,7.52,10.71,11.31,1.52,1.62,2.86,3.49,5.56,2.85.42-.1.93.23,1.86.48ZM270.75,653.67l-.72,0L190.33,769.3l1.69,2.52,99.81-17.42L270.76,653.66ZM315.48,259.8c-.33,1.18-.6,2-.82,2.92q-4.12,16.45-8.24,32.92-10.35,41.52-20.74,83a4.23,4.23,0,0,0,.65,4c7,9.65,13.95,19.36,20.93,29a11.58,11.58,0,0,0,1.45,1.43c3.91-9.31,45.92-132.8,46-135.27-1.21.68-2.38,1.3-3.5,2-1.67,1-3.57,1.64-3.77,4.28-.13,1.73-2.52,2.61-4.17,2.08A3.54,3.54,0,0,1,341,282a3.47,3.47,0,0,1,3.89-2.68,16.77,16.77,0,0,1,2.33.72,52.19,52.19,0,0,1,5.6-3.19c3.43-1.45,4.73-4.16,5.16-7.49-.2-.22-.31-.44-.48-.49-6.13-1.9-12.25-3.83-18.41-5.63a4,4,0,0,0-2.49.48c-2.42,1.16-3.53.93-5.25-1.21-.41-.51-1-1.15-1.54-1.22-4.65-.56-9.31-1-14.3-1.52ZM197.75,787.7l-.42.4,157,222.68,4.84-2c1.58-3.27,3.24-6.88,5.05-10.41a5.74,5.74,0,0,0,.35-4.41c-2.06-7.68-4-15.37-6.09-23.06-.2-.76-.51-1.48-.83-2.4-.82.3-1.48.53-2.12.79-1.76.7-3.38,1.23-3.9,3.63-.46,2.14-3.29,2.54-5,1.08s-1.85-3.91,0-5.86a5,5,0,0,0-.77-7.23c-1.55-1-3.12-1.89-4.65-2.81-.4.17-.68.31-1,.4-2.53.86-4.38.08-5.17-2.17a3.58,3.58,0,0,1,2.09-4.5c2.07-.72,3.85.51,4.65,3.15a3.55,3.55,0,0,0,.88,1.81c1.46,1,3.07,1.88,4.73,2.86.34-3.37.34-3.38-1.86-4.83-3.32-2.18-6.66-4.34-9.93-6.47-3.12,1-4.42.84-5.6-.76-1.69-2.29-.59-4.21,1-6-.77-3.7-1.58-7.28-2.24-10.89a7.64,7.64,0,0,0-2-4q-11.7-12.52-23.32-25.12l-49.3-53.21L209,799.74q-5.61-6-11.24-12.06ZM312.47,575.27c.71-1,1.09-1.46,1.41-2q17.7-27.52,35.36-55.08a7.34,7.34,0,0,0,1.05-2.78,4.68,4.68,0,0,1,2.24-3.43,5.7,5.7,0,0,0,2.16-2.42c1-2.73,1.8-5.57,2.71-8.5l-2.45-1c-1.66,2.39-3.22,4.65-4.81,6.9-1,1.4-2,2.6-1.26,4.66.6,1.76-.93,3.43-2.71,3.73a3.44,3.44,0,0,1-1.41-6.73,14.76,14.76,0,0,1,2.2-.22l6.34-9.15-13.75-6a8.3,8.3,0,0,0-.92.48,3.33,3.33,0,0,1-4.25,0,3.14,3.14,0,0,1-1.09-4.08c.72-1.45-.09-2.31-.7-3.33q-9.94-16.32-19.91-32.64c-.4-.66-.91-1.26-1.56-2.16-.52,1.21-.95,2.11-1.31,3-6.88,17.88-13.72,35.77-20.66,53.61a7.49,7.49,0,0,0,0,5.84c6.43,16.74,12.76,33.51,19.13,50.28,1.34,3.52,2.68,7,4.17,11ZM301.8,607.53c-4.5,6.52-8.48,12.43-12.63,18.22a5.11,5.11,0,0,0-.79,4.79Q303.71,688.61,319,746.69c.23.86.55,1.7.92,2.8l23.58-4.09a7.78,7.78,0,0,1,.53-6.7L301.81,607.53ZM192,256.37l-.43.22L261,439.53a3.51,3.51,0,0,0,1.1-1.93c3.49-15.19,6.92-30.39,10.49-45.56a6.6,6.6,0,0,0-.83-5.44q-39.11-63.9-78.12-127.85c-.5-.81-1.05-1.59-1.58-2.38ZM349.36,739.86a3.38,3.38,0,0,0,.51-.62c2.85-5.87,5.66-11.76,8.53-17.62a3.29,3.29,0,0,0,0-2.87c-.9-2.39,0-4.18,2.22-4.82a14.84,14.84,0,0,1,2.34-.27l-47.6-125.53c-.79,1-1.25,1.53-1.64,2.11-3.08,4.45-6.07,9-9.24,13.32a4.47,4.47,0,0,0-.58,4.5q20.37,63.13,40.61,126.32c.86,2.69,1.89,4.81,4.88,5.48ZM191.27,763l.53.18c.23-.33.47-.64.68-1Q230,703.78,267.56,645.4a4.5,4.5,0,0,0,.7-3.69c-3.08-14.44-6.08-28.91-9.1-43.36-.46-2.22-1-4.43-1.44-6.65h-.61Q224.19,677.32,191.27,763Zm126.56-13.12c-10.5-40-20.9-79.57-31.44-119.68-.86,1.12-1.36,1.73-1.81,2.38-3.6,5.19-7.08,10.47-10.83,15.55a6.71,6.71,0,0,0-1.08,6q9.43,44.84,18.79,89.7c.7,3.37,1.45,6.72,2.22,10.32l24.16-4.23ZM246.56,538.07l-.49,0a6.42,6.42,0,0,0-.47,1.08q-25.5,102.48-51,205c0,.08.06.2.13.27s.14,0,.36,0c.4-1.07.85-2.19,1.24-3.33q27.88-81.24,55.81-162.47a18.34,18.34,0,0,0,.71-10.65c-2.31-9.92-4.24-19.92-6.33-29.89Zm34.65-45.23a14.54,14.54,0,0,0,.85-1.55c6.21-18.1,12.38-36.22,18.64-54.31a3.88,3.88,0,0,0-.47-3.69q-9.36-15.23-18.67-30.5a11,11,0,0,0-1.4-1.51c-.21.63-.32.9-.4,1.19-4.21,16.79-8.44,33.57-12.55,50.38a7.57,7.57,0,0,0,.42,4.11c2.73,7.46,5.59,14.86,8.41,22.29,1.66,4.37,3.32,8.74,5.17,13.59ZM197.54,292l-.55.13c15.56,74.39,31.13,148.78,46.83,223.87a17.66,17.66,0,0,0,.76-1.85c1.68-7.25,3.38-14.49,5-21.76a7.4,7.4,0,0,0-.24-3.29c-1.55-6.13-3.16-12.23-4.77-18.34q-21.34-81.31-42.69-162.63c-1.41-5.39-2.88-10.76-4.32-16.14ZM354.38,497.7a53,53,0,0,1,3.86-5.42c1.93-2.11,1-4.12.18-6.17a11,11,0,0,0-1.39-2L321,433.91c-.57-.8-1.21-1.54-1.9-2.43a4.9,4.9,0,0,0-.66.88c-1.95,5-3.86,10.09-5.86,15.11a3.18,3.18,0,0,0,.37,3.14q10.78,17.61,21.53,35.25a2.77,2.77,0,0,0,2.33,1.67,3.57,3.57,0,0,1,3.25,2.78,3.57,3.57,0,0,0,1.71,1.86c4.07,1.87,8.2,3.6,12.66,5.53Zm-104-11.92.49.11c.21-.67.48-1.32.63-2,1.26-5.46,2.4-10.95,3.78-16.38a9.59,9.59,0,0,0-.3-5.64c-2.2-6.68-4.33-13.38-6.49-20.07q-24.16-75.09-48.32-150.17c-.25-.77-.57-1.51-.86-2.27l-.49.17q25.78,98.13,51.56,196.26ZM279,536.51l-.58.08c-.32.73-.67,1.44-1,2.18-2.27,5.89-4.49,11.81-6.82,17.67a8,8,0,0,0-.26,5.32c3.88,14.56,7.67,29.15,11.49,43.73,1,3.9,2.08,7.78,3.26,12.17.84-1.13,1.41-1.8,1.88-2.53,3.37-5.23,6.65-10.51,10.11-15.67a5,5,0,0,0,.61-4.82c-4.34-13.26-8.57-26.56-12.84-39.84L279,536.5Zm8.13-22.35c-.57,1.28-1,2.06-1.28,2.87-1.74,4.46-3.38,9-5.22,13.38a6.7,6.7,0,0,0-.11,5q9.19,28.33,18.29,56.71c.26.82.59,1.62,1,2.78.73-1,1.23-1.62,1.66-2.28,2.77-4.28,5.44-8.62,8.32-12.83a4.84,4.84,0,0,0,.54-5.07c-7.37-19.21-14.64-38.46-21.95-57.7-.31-.81-.7-1.58-1.26-2.84Zm-18.55,48.56a9.29,9.29,0,0,0-.82,1.27c-2.81,7.32-5.67,14.62-8.36,22a7.45,7.45,0,0,0-.07,3.84q4.09,20.06,8.32,40.07c.75,3.57,1.54,7.13,2.44,11.24.83-1.16,1.38-1.85,1.86-2.59,3.43-5.3,6.78-10.66,10.3-15.9a6,6,0,0,0,.82-5.41c-4.49-16.82-8.86-33.67-13.27-50.51-.33-1.26-.75-2.49-1.21-4ZM374.91,276.18c-.3.16-.54.21-.65.36-3.9,5.35-7.84,10.69-11.63,16.12-.56.8-.37,2.1-.64,3.14s-.41,2.53-1.15,3.26a9.32,9.32,0,0,0-2.11,3.62q-15.64,42.94-31.28,85.88c-3.84,10.53-7.7,21.05-11.49,31.6a4.94,4.94,0,0,0-.24,3.13c.47,1.23,1.54,2.23,2.61,3.67.73-1.75,1.25-2.94,1.72-4.15l48.27-125.55q3.45-9,6.89-18c.38-1,1.17-2.07-.3-3.1Zm-61,144q21.84-60,43.65-119.83a15.77,15.77,0,0,1-1.43-1.26c-1.49-1.7-1.58-3.83.25-5.08,1.56-1.07,1.71-2.3,1.76-3.87.06-1.93.32-3.86.44-5.79.18-2.88.32-5.77.49-8.95-1.83.69-1.77,2.1-2.13,3.15-15.16,44.11-30.21,88.26-45.53,132.32-1.32,3.81-.78,6.37,1.82,8.94a4.68,4.68,0,0,0,.67.37Zm3.28-175.71c.42-1.55.78-2.81,1.1-4.09q19.43-77.86,38.84-155.73c2.37-9.49,4.78-19,7.11-28.47,1-4,.66-4.42-3.26-5.72a21.68,21.68,0,0,0-1.69,3.7c-1.74,6.92-3.36,13.87-5,20.8q-20,83.4-39.92,166.8c-.2.84-.23,1.71-.37,2.71ZM256.3,460l.69-.13c1-4.46,2-8.94,3.14-13.38a7.9,7.9,0,0,0-.38-5Q232,368.3,204.27,295.14c-.38-1-.86-2-1.3-3l-.57.2Q229.34,376.16,256.29,460ZM311.83,244.5q22.57-94.32,45-188.15a42.35,42.35,0,0,0-5.43,5.13A9,9,0,0,0,349,66q-20,87.77-40.11,175.52c-.21.94-.31,1.91-.48,3h3.39ZM273.31,385.74l.67-.17c.88-3.75,1.7-7.5,2.65-11.23.38-1.5-.28-2.53-1.08-3.63q-34.73-48.29-69.42-96.58c-.4-.55-.87-1.05-1.31-1.57l-.43.32L273.3,385.74Zm-8.49,154.87c.52-1,.73-1.34.86-1.69,2.25-6.54,4.45-13.11,6.78-19.62a5.14,5.14,0,0,0-.14-3.53q-5.43-16.86-10.89-33.7a20.43,20.43,0,0,0-1-2.11c-1.59,6.36-3,12.21-4.55,18a16.08,16.08,0,0,0,0,8.94c3,11,5.86,22,8.95,33.73Zm-10.77-33.15-.52,0c-2,8-4,16-6,24a7.19,7.19,0,0,0,.15,3q2.26,11.22,4.63,22.41c.82,3.91,1.68,7.82,2.68,12.47.62-1.42,1-2.1,1.23-2.83,2.29-6.63,4.53-13.28,6.86-19.9a7.57,7.57,0,0,0,.12-4.73c-2.79-10.41-5.49-20.84-8.23-31.27-.28-1.06-.64-2.09-1-3.14Zm53.88-91.67-23.24-32.32c-.35,1-.54,1.4-.66,1.85-.9,3.56-1.69,7.14-2.71,10.66a4.59,4.59,0,0,0,.65,4c6.3,10.25,12.54,20.53,18.82,30.78a15.61,15.61,0,0,0,1.42,1.65c2-5.72,3.81-11.1,5.71-16.63Zm-98.16-170c7.91,1.88,91.15,10.72,93.89,10.23.66-3,1.34-6.06,2.1-9.5Zm56.08,212.36c-1.41,5.67-2.6,10.71-4,15.71a6.8,6.8,0,0,0,.16,4.14c3.68,11.32,7.31,22.65,11,34,.22.69.56,1.34,1.05,2.47,2-5.7,3.72-10.9,5.58-16a6.26,6.26,0,0,0-.07-4.68c-4.13-10.73-8.17-21.48-12.25-32.23-.35-.92-.8-1.81-1.48-3.33Zm92-191.14c.11-2.91-1.56-4.14-3.4-5.32-2.14-1.37-4.23-2.84-6.3-4.33-1.19-.86-2.28-1.62-3.88-.81a3.07,3.07,0,0,1-2.06-.09,3.46,3.46,0,0,1-2.07-4.71,3.74,3.74,0,0,1,5.07-2c.88.39,1.9,1.17,2.67,1,4-.92,8-2.09,11.94-3.17l-.09-.68H318.56c-.89,3.65-1.78,7.25-2.7,11l12.49,1.4a4.51,4.51,0,0,0,4.15-1.14c1.56-1.53,4.22-1.11,4.88.85.75,2.2,2.36,2.51,4.07,3Zm16.35,714.89a80.13,80.13,0,0,1-4.11,8.38,13.31,13.31,0,0,0-1.14,12.94,60.74,60.74,0,0,1,1.91,6.85,7.9,7.9,0,0,0,1.23.1c2.71-.39,5.43-.79,8.14-1.21,3.41-.53,5-2.8,4.11-6.08q-2.7-10.3-5.44-20.61a12,12,0,0,0-.7-1.68l-4,1.32ZM283.85,378.36,313.5,259.52l-3.25-.18c-.21.69-.38,1.16-.5,1.65q-9.48,39.54-18.94,79.07c-2.75,11.49-5.47,23-8.24,34.49-.35,1.46-.68,2.79,1.28,3.82Zm-3.05-4.23C290,335.7,299.13,297.49,308.35,259H305c-.25,1-.5,1.88-.7,2.77l-18.78,81.94c-2,8.84-4,17.68-6.07,26.52-.34,1.46-.58,2.82,1.39,3.93Zm34.26,207.13c13.78-20.48,27.42-40.75,41-61,.13-.19,0-.57-.07-1l-4.75-.7c-.46.68-.93,1.34-1.37,2-11.73,18.26-23.42,36.55-35.25,54.74-1.44,2.22-1.12,3.84.4,6Zm-30.57-80.62c.48-1.18.92-2.18,1.29-3.2q4.2-11.47,8.37-23c3.55-9.76,7.05-19.54,10.71-29.26.77-2,.71-3.7-.64-5.36-.53-.66-1-1.38-1.68-2.35-.51,1.3-.91,2.23-1.23,3.18-5.95,17.34-11.83,34.7-17.89,52a8.06,8.06,0,0,0,1.08,8Zm2.7,7.24c.5-1.16.87-2,1.18-2.78,6.77-17.6,13.43-35.24,20.39-52.76,1.28-3.21.32-5.14-1.79-7.37-.45,1.13-.84,2.06-1.19,3-6.45,17.72-12.86,35.45-19.4,53.13A6.74,6.74,0,0,0,287.19,507.88ZM376.6,1042.3l.59-.4c-2.57-9.72-5.13-19.44-7.74-29.32-2.24.33-4.25.58-6.23,1a2.64,2.64,0,0,0-1.43.91c-.85,1.07-1.58,2.24-2.42,3.46l17.23,24.4ZM229.7,767.13l.09.64L251,765.33c7-.81,13.95-1.58,20.92-2.43s14.06-1.37,21.18-2.63c-.36-1.54-.63-2.67-.95-4l-62.4,10.89Zm112.79-19.68-22.3,3.91c.55,2.07,1,3.88,1.54,5.78l18.12-2.09c2.22-.26,4.45-.49,6.65-.85.5-.08.91-.63,1.81-1.3-4.56-.08-5.55-1-5.83-5.45ZM361,970.22l-.6.5,5.83,22.06.65.05c1.22-2.53,2.34-5.11,3.68-7.57s2.58-5,1-7.84a4.82,4.82,0,0,1-.27-.94L361,970.22Zm-66-210c8.44-1.11,16.58-1.71,24.9-3.08-.65-2.1-1.18-3.79-1.71-5.51l-24.05,4.25c.32,1.61.55,2.78.86,4.33Zm52.47,193.61c.55-2.83.12-4.82-1.72-6.71-4.4-4.52-8.61-9.23-12.91-13.85a20.76,20.76,0,0,0-1.93-1.55c.66,3.3,1.16,6,1.77,8.65a2.26,2.26,0,0,0,1,1.39,4.19,4.19,0,0,1,2.59,3.81,1.88,1.88,0,0,0,.58,1.3c3.43,2.31,6.91,4.55,10.58,7ZM254.33,577.74c-7.78,22.69-15.44,45-23.11,67.4l.59.22c.43-1.09.9-2.16,1.3-3.26q3.88-10.62,7.73-21.24,6.9-18.95,13.8-37.88c.6-1.63,1.18-3.23-.31-5.25ZM274.57,392.1c-.28.95-.57,1.78-.77,2.63q-3.14,13.68-6.25,27.36-2.26,10-4.54,19.93c-.26,1.15-.7,2.28.67,3.28.29-1.05.55-1.92.76-2.8q2.65-11,5.28-21.95c2-8.31,3.93-16.63,5.95-24.92.34-1.39.46-2.56-1.1-3.53Zm32.17,47.81c2-5.58,4-10.8,5.83-16a2.23,2.23,0,0,0-.16-1.7c-.87-1.4-1.89-2.7-3.18-4.49-1.62,4.74-2.74,9-4.53,12.92-1.52,3.37-.91,6,1.27,8.6.13.15.29.28.76.71Zm-41.8,10.45.78,0c.19-.55.42-1.09.56-1.65q3.38-13.47,6.74-26.95c1.75-7,3.53-14,5.26-21,.33-1.35.91-2.8-.75-4a16.21,16.21,0,0,0-.75,2Q271,423,265.2,447.17a22.52,22.52,0,0,0-.28,3.2Zm45.87-3.5c2.24-5.83,4.31-11.14,6.29-16.49a2.65,2.65,0,0,0-.18-2,42.28,42.28,0,0,0-2.62-3.67c-1.92,5.29-3.47,10-5.39,14.63-1,2.27-.82,4.06.73,5.86.32.37.58.8,1.18,1.64ZM364.48,43.72c4.1-2.63,4.7-6.64,5.49-10.53.28-1.38-.48-2-1.71-1.43-3.63,1.78-7.2,3.68-11.28,5.79,1.28,1.14,2.19,2.63,3.15,2.66,2.51.08,3.69,1.35,4.35,3.5ZM267.22,548.46c2.54-7,4.8-13.53,7.34-20,1-2.51.69-4.6-.71-7.1-.43,1-.76,1.76-1,2.51-2.1,6.06-4.13,12.15-6.31,18.18-.76,2.08-.59,3.92.71,6.37ZM373.1,273.62c-1.69-.47-2.77-1.05-3.82-1a9.71,9.71,0,0,1-4.47-.27c-1.09-.44-3.54,1.35-3.68,2.56-.29,2.47-.4,4.95-.59,7.43,1.72-1.45,3.2-2.55,5.4-2a1.81,1.81,0,0,0,1.3-.59c1.85-1.87,3.66-3.8,5.86-6.1ZM322.51,758.93c-.05,2.54,1.35,2.16,2.55,2.06l20.42-1.72c1.34-.11,2.68-.27,4.26-.44l-2.5-2.8-24.74,2.9ZM276.65,522.2c.48-1.12.83-1.84,1.1-2.58,1.65-4.49,3.16-9,4.95-13.46,1.07-2.63,0-4.52-1.46-6.87-1.81,5.31-3.34,10.27-5.23,15.1a7.83,7.83,0,0,0,.63,7.82Zm35.28,57.89a6.27,6.27,0,0,0-.79.85c-3.25,5-6.46,10.11-9.76,15.12-1.1,1.66-.57,2.93.51,4.5.68-.91,1.24-1.61,1.74-2.36,2.8-4.12,5.49-8.33,8.41-12.36,1.47-2,1.68-3.79-.1-5.76ZM299.2,600.16c-.3.23-.61.35-.76.59q-6,9.21-11.9,18.44a2.57,2.57,0,0,0,.21,3.51,2.61,2.61,0,0,0,.54-.39c4-6,8.06-12,12.16-17.91C300.53,602.84,300.07,601.58,299.2,600.16Zm-34.49-51.59a4.74,4.74,0,0,0-.71,1q-3.93,11.38-7.83,22.78c-.49,1.41-.14,2.64.67,4.24.51-1.23.89-2.05,1.2-2.9,2.34-6.39,4.6-12.82,7-19.18a6.49,6.49,0,0,0-.36-5.93ZM269,555a7.53,7.53,0,0,0,.68-1.1c2.53-6.53,5-13.07,7.57-19.59a4.89,4.89,0,0,0-.81-4.86,4.83,4.83,0,0,0-.57.85q-3.79,10.27-7.54,20.57A4.05,4.05,0,0,0,269,555Zm15.38-47.74c-.38.93-.72,1.65-1,2.4-1.68,4.58-3.25,9.2-5.06,13.73a5.88,5.88,0,0,0,.64,5.93c.4-.87.76-1.58,1.05-2.32,1.76-4.55,3.41-9.14,5.31-13.64,1-2.27.54-4.08-.94-6.11Zm-17.64,48.94c-.2.23-.39.35-.45.53-2.82,7.64-5.66,15.27-8.39,22.94a9.76,9.76,0,0,0,0,3.06c.68,0,.86-.29,1-.55q4.23-11,8.45-21.94a4.14,4.14,0,0,0-.52-4Zm99.47,443.88-.68-.1c-1.52,3.2-3.11,6.37-4.54,9.61-.55,1.25.24,2.18,1.63,2,2-.25,4-.64,6.3-1C367.94,1006.92,367.06,1003.52,366.18,1000.12Zm-82-377.26c-4.51,7-8.86,13.76-13.13,20.54-.33.52-.12,1.36-.18,2.21.55-.16.67-.16.71-.22,4.31-6.3,8.59-12.61,12.93-18.89.85-1.23.4-2.2-.33-3.65Zm-36.35,56.58.56.48,20.66-30.57a2.09,2.09,0,0,0-.18-2.67ZM361.2,725l-1,.14c-1.26,5.14-3,10.16-4.09,15.82,1.15-.34,2.12-.33,2.38-.76a18.81,18.81,0,0,0,2.75-5.36,42.23,42.23,0,0,0,.65-7.89A5.77,5.77,0,0,0,361.2,725Zm-40.68,36.33c.19-1.62-.36-2.21-1.88-2-2.72.36-5.45.62-8.18.94-4.44.52-8.89,1-13.32,1.6a5.58,5.58,0,0,0-1.56.75l.21.7c8.26-.36,16.47-1.3,24.73-2ZM350.79,58.58l.51.26c2.14-2.39,4.33-4.74,6.4-7.19a5.28,5.28,0,0,0,.81-2.26c.25-1.23-1-2-1.56-1.66-1.56.76-3.53,1.68-4.2,3.08-1.12,2.37-1.36,5.16-2,7.77Zm9.89,685.5c-1.29.48-2.19.53-2.52,1a46.94,46.94,0,0,0-4.37,7.5c2.19.74,2.82.71,6.23-.22.2-2.52.41-5.11.66-8.27Zm-47.46-497.4a89.63,89.63,0,0,0-2.37,10.71H314l2.68-10.71h-3.48Zm-5.48-.06-2.32,10.19h3.41c.46-1.82.91-3.48,1.28-5.16s.66-3.26,1-5h-3.39ZM276.14,390.5l.73,0c1-4.2,2-8.4,3-12.6.25-1.1-.34-1.83-1.53-2.69-1,4.5-2,8.6-2.83,12.75-.15.79.43,1.72.67,2.58ZM357.29,27.76c1,2.46,1.76,4.23,2.58,6.22,2.21-1.34,4.78-2.14,7.21-4.13l-9.79-2.09ZM279,395.1l.71-.06c1.06-4.28,2.13-8.55,3.17-12.83.27-1.09-.2-1.86-1.43-2.68-1.11,4.63-2.2,8.93-3.13,13.26-.15.69.43,1.54.68,2.32ZM267.33,765.64c8.78-.44,17.48-1.12,26.81-2.14C291.67,762.16,284.13,762.83,267.33,765.64Zm-14.66-274c1.65-6.88,3.32-13.76,4.93-20.65.09-.4-.32-.93-.62-1.75-2.27,7.36-4.92,19.83-4.3,22.39Zm90.1,51.91c4.68-4.7,14.64-19.68,14.81-21.92Zm6.85,414c0,1.94-.59,3.3.92,4.19,2,1.17,3.95,2.37,6.31,3.78-.32-1.82-.23-3.31-1.51-4.23-1.71-1.23-3.52-2.32-5.72-3.75ZM262.3,448.32l-.75.06c-1.18,5.13-2.39,10.26-3.51,15.4a6.91,6.91,0,0,0,.21,2.09,140.64,140.64,0,0,0,4.25-15.39,7.45,7.45,0,0,0-.2-2.17Zm-9.05,48.94.57.12c.08-.06.2-.11.22-.19,1.79-7,3.59-13.93,5.33-20.91.08-.32-.3-.75-.73-1.71C256.74,482.57,255,489.92,253.25,497.26Zm108,6.91-.67-.23c-1.49,2.82-4.3,5-4.35,8.91,1.78-.29,3.34-.37,3.76-2,.57-2.19.86-4.45,1.27-6.68Zm-109.82-7.55-.91-.22-5.64,24.83.64.15,5.91-24.75Zm9.1-24.92c1.4-5.73,2.73-11.08,4-16.45.1-.43-.22-.95-.35-1.43h-.65c-1.26,5.6-2.53,11.2-3.77,16.81,0,.18.31.45.77,1.07Zm-14.36,55c2.59-8,4.82-16.28,6.66-24.64l-.72-.18-5.95,24.82Zm105,214c1.49.38,2.66.55,3.08-.85,1-3.19,1.76-6.43,2.62-9.65l-.57-.19c-1.68,3.5-3.36,7-5.13,10.68Zm-1.3,222.77c-.39,2.65.3,4.47,2.06,5.48,1-.78,2.62-.67,3.58-2.1l-5.65-3.37Zm16.26-198.24.38,0c.37-2.47.62-5,1.14-7.41.4-1.85-.34-2.76-2.16-3.6.22,3.86.43,7.42.63,11ZM354.92,958.75c-.64-2.58-2.81-5.08-5.82-6.74.44,1.49.45,2.89,1.15,3.59a29.24,29.24,0,0,0,4.66,3.15ZM349.63,751.4c1.92-.8,2.69-2.56,2.39-5.62l-3,.59c.22,1.73.42,3.28.64,5Zm8.26-709.88c-.76-.87-1-2.31-2.66-2.56l-1,4.71,2.63,1.42C357.28,43.71,357.57,42.65,357.89,41.52ZM356.33,758.3l2.92-3.45a5.45,5.45,0,0,0-5.6,3.57Zm6.7,211,5.87,3.52C369,968.93,367,967.76,363,969.33Zm-13-30.22c-1.16,6.39-.7,7.5,2.24,8.51Zm2.45-907.79c.58-1.84.92-2.95,1.36-4.33l-4.55-.93-.32.48,3.51,4.78Zm-4.07,18.82c2.49-1.28,3.53-3,3.4-5.1,0-.46-.68-.88-1.34-1.69-.74,2.44-1.31,4.3-2.07,6.79ZM362.21,509.7l.61.24,3.22-5.25-2.84-.95C362.83,505.94,362.52,507.82,362.21,509.7Zm.12-222.46-1.81-2.45a15.52,15.52,0,0,0,0,7.33l1.83-4.87Zm.92,457.28-.68-.08c-.17,2.22-.36,4.45-.52,6.67-.08,1,.43,1.26,1.58.79-.13-2.4-.26-4.89-.39-7.38Zm-3.9-249.87-.47-.21-2.84,4L358,499l1.36-4.34Zm-23.07,58.5.44.31,3.6-5.16-.5-.35ZM371.56,35.8c1.32-1,2.48-1.7,2.29-3.53C371.49,32.48,371.65,34,371.56,35.8Zm-9.25,455.88-.95,3,2.87-.42-1.92-2.58Zm4.09,8.43L364,501.85l3.48,1.26C367,501.88,366.76,501.14,366.4,500.11ZM366,48.68l.94-3.92Q364.56,46.77,366,48.68ZM230.8,648.45l-.46-.22-1.35,3.5.41.15c.47-1.15.93-2.29,1.4-3.43Zm121-606.13a1.89,1.89,0,0,0,1-2.43C351.35,40.31,351.07,41,351.8,42.32Zm11.32,714.19.77-.38c-.35-.63-.69-1.28-1.08-1.88,0,0-.5.19-.77.3l1.08,2Zm1.95-29.79-.72.07c.16.7.31,1.4.47,2.1l.7-.17Zm-15.14,16.52.2,1,2.84-.66-.12-.66-2.91.32ZM262.43,766v.27l2.06-.13V766Zm96.88,197.78-.55.18c.15.54.31,1.08.46,1.62l.64-.2-.55-1.6Zm4.2-450.37-.29-.15a4.11,4.11,0,0,0-.71.86,3.49,3.49,0,0,0-.14,1l.41.06.72-1.81Z"/><path class="cls-1" d="M128.71,776.19l-20.52.92c.39,16.52.78,32.71,1.16,49,.68.48,1.37.88,2,1.39a4.63,4.63,0,0,1,.79,6.56,4.51,4.51,0,0,1-7.37-5.19,4.61,4.61,0,0,0,.55-4.76c-2.91-8.91-5.72-17.86-8.58-26.78-.24-.76-.56-1.5-1.09-2.88-.76,3.42-1.43,6.18-1.94,9a3.37,3.37,0,0,0,.59,1.88c.32.62.92,1.11,1.2,1.74a4.49,4.49,0,0,1-1.82,5.6,4.2,4.2,0,0,1-5.3-.79c-1.39-1.54-1.75-4.22-.15-5.57,2-1.67,1.61-3.42,1.31-5.47-1-6.45-1.8-12.92-2.7-19.39-.14-1-.36-2-.61-3.33-1.32,0-2.61,0-3.89,0-1.94.07-3.87.26-5.81.29a3.47,3.47,0,0,0-3.45,1.87,4.26,4.26,0,0,1-5.32,1.85,4.64,4.64,0,0,1-2.91-4.29A4.8,4.8,0,0,1,68,773.36a4,4,0,0,1,3.8.43,22.06,22.06,0,0,1,2,1.61L81.68,773c.85-1.49,1.58-2.8,2.33-4.09.88-1.5-.12-4.61-1.79-5-5.93-1.49-11.89-2.85-17.83-4.32a2.49,2.49,0,0,0-2.43.78c-2.14,1.79-4.37,1.78-6,.15a4.14,4.14,0,0,1,0-6,3.47,3.47,0,0,0,.79-3.6L38.24,664.43Q26.45,609.26,14.64,554.1l-8-37.38c-.08-.39-.2-.78-.29-1.11-4.79-1.78-6.6-3.72-6.35-6.77s2.13-4.67,6.52-5.81c.56-2.09,1.19-4.32,1.76-6.57Q38.83,374.89,69.36,253.32c.41-1.62.69-2.95-.68-4.47a4.13,4.13,0,0,1,.63-6c1.75-1.43,4-1.27,5.8.44a3.73,3.73,0,0,0,3,1.16l3.53-4.36c-1.29-1.36-7.62-4.15-13.53-5.88q-5.59,3.66-8.07-.66a4.66,4.66,0,0,1,2-6.5c2.81-1.28,5.26.24,6.89,4.46l12.68,2.94c.09-1,.21-1.55.2-2.14q-.34-18.51-.7-37a3.42,3.42,0,0,0-1.59-3.3A4.63,4.63,0,0,1,78.4,185a4.35,4.35,0,0,1,6.28-.54,4.83,4.83,0,0,1,.42,7.07,16,16,0,0,1-1.28,1.22q4.16,20.33,8.37,40.89h2.87c3.11-4.35,4.66-4.57,9.41-1.24,1.67-4.63,3.33-9.21,5-13.86a20.57,20.57,0,0,1-1.46-2.29,4.4,4.4,0,0,1,1.67-5.63,4.22,4.22,0,0,1,5.67,1.3c1.35,1.9,1.33,4.65-.65,5.72-2.64,1.42-2.54,3.57-2.74,5.89-.5,5.79-1.09,11.57-1.63,17.36-.19,2.11-.54,4.16.69,6.21.89,1.5.34,3.11-.67,4.57a6.66,6.66,0,0,0-1.26,3c-1.14,11.88-2.17,23.76-3.26,35.64-.14,1.57-.1,2.79,1.37,4a4.1,4.1,0,0,1,.2,6,4.25,4.25,0,0,1-5.81.37,4.16,4.16,0,0,1-.49-6.23,3.59,3.59,0,0,0,1-3.55Q99.31,277.46,96.54,264a13.35,13.35,0,0,0-.79-1.86L9.05,503.54c3.93,5,3.94,6.94-.12,11.22Q43.48,614.21,78.2,714.14c.67.21,1.35.37,2,.62,3.1,1.19,4.16,4.51,1.88,6.86A4.53,4.53,0,0,0,80.79,726c1.27,8.78,2.34,17.59,3.79,26.34.56,3.39,1.93,6.65,3,9.92a2.44,2.44,0,0,0,1.49,1.32c3.43.9,6.89,1.67,10.6,2.55.41-1.58.79-2.92,1.09-4.28,1-4.68,2-9.36,3-14,.35-1.61.53-2.94-.93-4.4a4.54,4.54,0,1,1,7.28-5.38,4.31,4.31,0,0,1-.86,5.8c-1.64,1.22-1.93,2.6-1.86,4.43.19,5.51.25,11,.38,16.52,0,1,.12,2,.21,3.35l20.9,5c3.42-3,5.84-3.22,7.74-.83a4.41,4.41,0,0,1-.74,6.28c-2.31,1.85-4.68,1.12-7.24-2.41ZM75,720a2.58,2.58,0,0,1,.38-3.36c1.44-1.4.91-2.7.4-4.17Q56.45,657.07,37.18,601.66c-.41-1.17-.89-2.31-1.34-3.47a2.14,2.14,0,0,0,0,1.52q9.48,29.85,19,59.69Q64,688.23,73.21,717c.35,1.09.27,2.52,1.76,3a15,15,0,0,0,.24,3.23c1.41,4.75,2.94,9.47,4.45,14.19a12.44,12.44,0,0,0,.79,1.65c-.32-4.93-.93-9.74-1.7-14.53-.1-.6-1-1.18-1.56-1.59-1.11-.74-2.27-1.37-2.22-3ZM13.34,536.21l-.59.16Q35.84,644.54,58.88,752.58a9.2,9.2,0,0,1,4.94,5l18.94,4.48C59.5,686.4,36.42,611.3,13.34,536.21ZM71.81,251Q42.91,366.1,14.13,480.73a11.31,11.31,0,0,0,1.76-3.59q19.88-58.63,39.75-117.27,12.36-36.48,24.73-73c.51-1.51.8-2.65-.46-4.15-1.7-2-1.11-4.45,1-6.19a18.66,18.66,0,0,1,1.73-1.17c-.19-8.22-.48-16.28-.49-24.34,0-2.27-2-2.63-2.89-4-.35-.52-1.57-.45-2.56-.69C76,249,74.54,250.61,71.8,251ZM99.3,777.52c-.87,3.91-1.78,7.57-2.46,11.26a7.84,7.84,0,0,0,.36,3.55c2.89,9.32,5.86,18.61,8.82,27.91a16.92,16.92,0,0,0,.79,1.74l.52-.12-1-44.4a10,10,0,0,0-1.54-.22C103,777.31,101.3,777.41,99.3,777.52Zm4.26-488.38h.56c1.09-11.83,2.17-23.65,3.25-35.35-2.76-1.44-2.72-1.47-4.59-4.1-.38-.53-1.2-.74-2.07-1.25-1,2.89-2.06,5.33-2.81,7.85a8.63,8.63,0,0,0-.27,3.84c.86,4.81,1.89,9.6,2.88,14.39s2,9.74,3.06,14.62ZM84,249.81c.18,8.28.37,16.72.56,25.16a2.26,2.26,0,0,0,1.11-1.32q3.72-10.84,7.41-21.69a10.47,10.47,0,0,0,.4-1.15c.47-2.25-.31-3.35-2.62-3.74l-3.07-.54L84,249.82Zm-.2-47.61-.67,0c.21,10.87.42,21.75.63,32.73,1.52.41,2.77.81,4,1.08,2.52.54,3,.09,2.48-2.41q-1.79-8.84-3.6-17.65c-.94-4.57-1.91-9.14-2.87-13.71ZM85.63,285c-2.37-.25-2.34,1.42-2.72,2.53q-10.86,31.61-21.65,63.24c-.25.74-.42,1.5-.63,2.25l.48.16C69.25,330.54,77.38,307.92,85.63,285Zm2.71,493.26c.47,8,2.67,21.63,3.84,23.33.71-3.3,1.44-6.46,2-9.65a6,6,0,0,0-.07-2.69c-1-3.32-2.08-6.59-3.09-9.89-.42-1.37-1.21-1.78-2.72-1.11Zm19.92-534,1.84-20.1-.66-.11c-2.55,7.14-5.1,14.27-7.83,21.93,2.74-.07,4.28-2.12,6.65-1.72ZM97.78,775.54c.46-2.73,1.59-5,1.23-7.71-3.44-.75-6.64-1.85-10.27-2.21a8,8,0,0,0,.64,2.14,9,9,0,0,1,2.08,6.43c-.09.93.65,1.66,1.81,1.58,1.4-.09,2.81-.15,4.52-.23ZM87.4,278.33c.58-.66.87-.85,1-1.11q3.27-9,6.52-18.06c.54-1.48.11-2.76-.63-4.78-2.59,7.52-5,14.31-7.22,21.14C86.8,276.21,87.22,277.12,87.4,278.33Zm36.65,496.23.13-.72-15.84-3.79v5.09l15.71-.59Zm-18.37-23.15-.69-.09c-1.09,5-2.18,9.95-3.33,15.22l4,1Zm-5.9,23.8h6.16v-5.74l-4.68-1c-.54,2.44-1,4.56-1.48,6.73Zm-2.42,2.24-4.82.5,2.52,7.51.6-.09c.54-2.5,1.07-5,1.7-7.91ZM100,244.88c.66-2,1.21-3.68,1.86-5.63l-2.62.49-1.42,4.08,2.19,1.06Zm-7.89.42.37-.82c-1.42-1.84-3.71-2-6.2-3,.61,1.35,1,2.21,1.45,3.22Zm-8.82-7.79a14,14,0,0,0,6.49,2.92C89,237.87,87.88,237.34,83.33,237.51Zm15.39,11c-3.23-.4-3.71,1-1.94,5.34ZM79.66,775.61l-.11.7,4.34-.3c-1.83-1.87-3-.59-4.24-.4Zm1.53-27-.48.15,1.43,4.55.51-.16-1.47-4.54ZM79.61,236.11l-.09.42,2,.67.18-.62-2.11-.48Z"/></g></g></svg>