<?xml version="1.0" encoding="utf-8"?>
<!-- Generator: Adobe Illustrator 26.1.0, SVG Export Plug-In . SVG Version: 6.00 Build 0)  -->
<svg version="1.1" id="Layer_1" xmlns="http://www.w3.org/2000/svg" xmlns:xlink="http://www.w3.org/1999/xlink" x="0px" y="0px"
	 viewBox="0 0 200 947.9" style="enable-background:new 0 0 200 947.9;" xml:space="preserve">
<style type="text/css">
	.st0{fill:#00FCFF;}
</style>
<g id="Layer_2_00000168820295802460984050000017421953860215408544_">
	<g id="a">
		<path class="st0" d="M187.1,861.2l-29.8,1.3c0.6,24,1.1,47.5,1.7,71.2c1,0.7,2,1.3,2.9,2c2.9,2.3,3.5,6.5,1.2,9.4
			c0,0-0.1,0.1-0.1,0.1c-2.2,2.9-6.3,3.4-9.2,1.3c-2.7-2.1-3.4-5.9-1.5-8.8c1.5-2,1.8-4.6,0.8-6.9c-4.2-12.9-8.3-25.9-12.5-38.9
			c-0.3-1.1-0.8-2.2-1.6-4.2c-1.1,5-2.1,9-2.8,13.1c0,1,0.3,1.9,0.9,2.7c0.5,0.9,1.3,1.6,1.7,2.5c1.3,3,0.1,6.5-2.6,8.1
			c-2.5,1.5-5.7,1-7.7-1.1c-2-2.2-2.5-6.1-0.2-8.1c2.9-2.4,2.3-5,1.9-7.9c-1.5-9.4-2.6-18.8-3.9-28.2c-0.2-1.5-0.5-2.9-0.9-4.8
			c-1.9,0-3.8,0-5.7,0c-2.8,0.1-5.6,0.4-8.4,0.4c-2.1-0.2-4.1,0.9-5,2.7c-1.5,2.7-4.8,3.9-7.7,2.7c-2.5-1-4.2-3.5-4.2-6.2
			c0-2.9,1.9-5.4,4.6-6.4c1.8-0.7,3.9-0.5,5.5,0.6c1,0.7,2,1.5,2.9,2.3l11.5-3.5c1.2-2.2,2.3-4.1,3.4-5.9c1.3-2.2-0.2-6.7-2.6-7.3
			c-8.6-2.2-17.3-4.1-25.9-6.3c-1.3-0.3-2.7,0.1-3.5,1.1c-3.1,2.6-6.4,2.6-8.7,0.2c-2.4-2.3-2.5-6.1-0.2-8.5
			c0.1-0.1,0.1-0.1,0.2-0.2c1.4-1.4,1.8-3.4,1.1-5.2l-27-125.7c-11.4-53.4-22.9-106.9-34.3-160.3L9.7,484.2
			c-0.1-0.6-0.3-1.1-0.4-1.6c-7-2.6-9.6-5.4-9.2-9.8c0.4-4.4,3.1-6.8,9.5-8.4c0.8-3,1.7-6.3,2.6-9.5
			C41.7,337,71.2,219.3,100.8,101.6c0.6-2.4,1-4.4-1-6.5c-2.2-2.5-1.9-6.3,0.6-8.5c0.1-0.1,0.2-0.2,0.3-0.3c2.5-2.1,5.8-1.8,8.4,0.6
			c1.1,1.2,2.7,1.8,4.4,1.7l5.1-6.3c-1.9-2-11.1-6-19.7-8.5c-5.4,3.5-9.3,3.2-11.7-1c-1.9-3.2-0.7-7.4,2.5-9.2
			c0.1-0.1,0.3-0.1,0.4-0.2c4.1-1.9,7.6,0.3,10,6.5l18.4,4.2c0.1-1.5,0.3-2.3,0.3-3.1c-0.3-17.9-0.7-35.8-1-53.8
			c0.2-1.9-0.7-3.8-2.3-4.8c-3.2-2-4.1-6.1-2.2-9.3c0.2-0.3,0.4-0.6,0.6-0.8c2.2-2.7,6.2-3.2,8.9-1c0.1,0.1,0.2,0.1,0.2,0.2
			c3,2.5,3.4,6.9,1,9.9c-0.1,0.1-0.2,0.3-0.4,0.4c-0.6,0.6-1.2,1.2-1.9,1.8c4,19.7,8.1,39.5,12.2,59.4h4.2c4.5-6.3,6.8-6.6,13.7-1.8
			c2.4-6.7,4.8-13.4,7.3-20.1c-0.8-1.1-1.5-2.2-2.1-3.3c-1.4-2.9-0.3-6.5,2.4-8.2c2.8-1.7,6.4-0.8,8.2,1.9c2,2.8,1.9,6.8-0.9,8.3
			c-3.8,2.1-3.7,5.2-4,8.6c-0.7,8.4-1.6,16.8-2.4,25.2c-0.3,3.1-0.8,6,1,9c1.3,2.2,0.5,4.5-1,6.6c-1,1.3-1.6,2.8-1.8,4.4
			c-1.6,17.2-3.1,34.4-4.7,51.7c-0.2,2.3-0.1,4.1,2,5.8c2.5,2.2,2.7,5.9,0.6,8.4c-0.1,0.1-0.2,0.2-0.3,0.3c-2.2,2.4-5.9,2.6-8.4,0.5
			c-2.7-2-3.2-5.8-1.2-8.5c0.2-0.2,0.3-0.4,0.5-0.6c1.4-1.3,2-3.3,1.5-5.2c-2.7-13-5.4-26.1-8.1-39.2c-0.3-0.9-0.7-1.8-1.1-2.7
			l-126,350.7c5.7,7.3,5.7,10.1-0.2,16.3C46.5,577.7,80,674.3,113.7,771c1,0.3,2,0.5,2.9,0.9c4.5,1.7,6,6.6,2.7,10
			c-1.7,1.6-2.4,4-1.9,6.3c1.8,12.8,3.4,25.6,5.5,38.3c0.8,4.9,2.8,9.7,4.4,14.4c0.4,0.9,1.2,1.6,2.2,1.9c5,1.3,10,2.4,15.4,3.7
			c0.6-2.3,1.1-4.2,1.6-6.2c1.5-6.8,2.9-13.6,4.4-20.3c0.5-2.3,0.8-4.3-1.4-6.4c-2.4-2.8-2.1-6.9,0.7-9.3s6.9-2.1,9.3,0.7
			c0.2,0.3,0.4,0.5,0.6,0.8c1.9,2.7,1.3,6.4-1.2,8.4c-2.4,1.8-2.8,3.8-2.7,6.4c0.3,8,0.4,16,0.6,24c0,1.5,0.2,2.9,0.3,4.9l30.4,7.3
			c5-4.4,8.5-4.7,11.2-1.2c2.2,2.7,1.8,6.8-0.9,9c0,0-0.1,0.1-0.1,0.1c-3.4,2.7-6.8,1.6-10.5-3.5L187.1,861.2z M109,779.6
			c-1.1-1.5-0.8-3.6,0.6-4.9c2.1-2,1.3-3.9,0.6-6.1c-18.7-53.7-37.4-107.3-56.1-161c-0.6-1.7-1.3-3.4-1.9-5c-0.3,0.7-0.3,1.5,0,2.2
			c9.2,28.9,18.4,57.8,27.6,86.7c8.9,27.9,17.8,55.8,26.7,83.7C106.9,776.8,106.8,778.9,109,779.6c-0.1,1.6,0,3.2,0.3,4.7
			c2,6.9,4.3,13.8,6.5,20.6c0.3,0.8,0.7,1.6,1.1,2.4c-0.5-7.2-1.4-14.2-2.5-21.1c-0.1-0.9-1.5-1.7-2.3-2.3
			C110.6,782.8,108.9,781.9,109,779.6L109,779.6z M19.4,512.6l-0.9,0.2c22.4,104.8,44.7,209.5,67,314.1c3.3,1.4,5.8,4,7.2,7.3
			l27.5,6.5C86.5,730.8,53,621.6,19.4,512.6z M104.4,98.1c-28,111.5-55.9,222.8-83.8,333.8c1.2-1.6,2-3.3,2.6-5.2
			c19.3-56.8,38.5-113.6,57.8-170.4c12-35.3,24-70.6,35.9-106c0.7-2.2,1.2-3.8-0.7-6c-2.5-2.9-1.6-6.5,1.5-9
			c0.8-0.6,1.6-1.2,2.5-1.7c-0.3-11.9-0.7-23.7-0.7-35.4c0-3.3-2.9-3.8-4.2-5.8c-0.5-0.8-2.3-0.7-3.7-1
			C110.4,95.3,108.4,97.6,104.4,98.1L104.4,98.1z M144.3,863.1c-1.3,5.7-2.6,11-3.6,16.4c-0.2,1.7,0,3.5,0.5,5.2
			c4.2,13.5,8.5,27,12.8,40.5c0.3,0.9,0.7,1.7,1.1,2.5l0.8-0.2l-1.5-64.5c-0.7-0.2-1.5-0.3-2.2-0.3
			C149.7,862.8,147.2,863,144.3,863.1z M150.5,153.6h0.8c1.6-17.2,3.2-34.4,4.7-51.4c-4-2.1-4-2.1-6.7-6c-0.6-0.8-1.7-1.1-3-1.8
			c-1.5,4.2-3,7.7-4.1,11.4c-0.5,1.8-0.7,3.7-0.4,5.6c1.2,7,2.7,13.9,4.2,20.9S149,146.5,150.5,153.6L150.5,153.6z M122.1,96.5
			c0.3,12,0.5,24.3,0.8,36.6c0.8-0.4,1.4-1.1,1.6-1.9c3.6-10.5,7.2-21,10.8-31.5c0.2-0.5,0.4-1.1,0.6-1.7c0.7-3.3-0.5-4.9-3.8-5.4
			l-4.5-0.8L122.1,96.5L122.1,96.5z M121.8,27.3h-1c0.3,15.8,0.6,31.6,0.9,47.6c2.2,0.6,4,1.2,5.8,1.6c3.7,0.8,4.4,0.1,3.6-3.5
			c-1.7-8.6-3.5-17.1-5.2-25.6C124.6,40.6,123.2,34,121.8,27.3L121.8,27.3z M124.5,147.6c-3.4-0.4-3.4,2.1-4,3.7
			c-10.5,30.6-21,61.2-31.5,91.9c-0.4,1.1-0.6,2.2-0.9,3.3l0.7,0.2C100.7,213.8,112.5,180.9,124.5,147.6L124.5,147.6z M128.4,864.2
			c0.7,11.6,3.9,31.4,5.6,33.9c1-4.8,2.1-9.4,2.9-14c0.3-1.3,0.2-2.6-0.1-3.9c-1.5-4.8-3-9.6-4.5-14.4
			C131.7,863.8,130.6,863.2,128.4,864.2L128.4,864.2z M157.4,88.3l2.7-29.2l-1-0.2c-3.7,10.4-7.4,20.7-11.4,31.9
			C151.7,90.7,153.9,87.7,157.4,88.3z M142.1,860.2c0.7-4,2.3-7.3,1.8-11.2c-5-1.1-9.6-2.7-14.9-3.2c0.2,1.1,0.5,2.1,0.9,3.1
			c2.2,2.6,3.3,6,3,9.3c-0.1,1.4,0.9,2.4,2.6,2.3C137.6,860.5,139.7,860.4,142.1,860.2L142.1,860.2z M127,137.9
			c0.8-1,1.3-1.2,1.5-1.6c3.2-8.7,6.3-17.5,9.5-26.2c0.8-2.2,0.2-4-0.9-6.9c-3.8,10.9-7.3,20.8-10.5,30.7
			C126.2,134.8,126.8,136.1,127,137.9z M180.3,858.8l0.2-1l-23-5.5v7.4L180.3,858.8L180.3,858.8z M153.6,825.2l-1-0.1
			c-1.6,7.3-3.2,14.5-4.8,22.1l5.8,1.5L153.6,825.2z M145,859.8h9v-8.3l-6.8-1.5C146.4,853.5,145.7,856.6,145,859.8L145,859.8z
			 M141.5,863l-7,0.7l3.7,10.9l0.9-0.1C139.8,870.8,140.6,867.2,141.5,863L141.5,863z M145.4,89.3c1-2.9,1.8-5.3,2.7-8.2l-3.8,0.7
			l-2.1,5.9L145.4,89.3L145.4,89.3z M133.9,89.9l0.5-1.2c-2.1-2.7-5.4-2.9-9-4.4c0.9,2,1.5,3.2,2.1,4.7L133.9,89.9z M121.1,78.6
			c2.7,2.2,6,3.6,9.4,4.2C129.4,79.1,127.7,78.4,121.1,78.6z M143.5,94.6c-4.7-0.6-5.4,1.5-2.8,7.8L143.5,94.6z M115.8,860.4l-0.2,1
			l6.3-0.4C119.3,858.2,117.6,860.1,115.8,860.4L115.8,860.4z M118,821.1l-0.7,0.2l2.1,6.6l0.7-0.2L118,821.1L118,821.1z
			 M115.7,76.6l-0.1,0.6l2.9,1l0.3-0.9L115.7,76.6L115.7,76.6z"/>
	</g>
</g>
</svg>
