<svg id="Layer_1" data-name="Layer 1" xmlns="http://www.w3.org/2000/svg" viewBox="0 0 200 947.9"><defs><style>.cls-1{fill:#00fcff;}</style></defs><g id="Layer_2" data-name="Layer 2"><g id="a"><path class="cls-1" d="M187.1,861.2l-29.8,1.3c.6,24,1.1,47.5,1.7,71.2,1,.7,2,1.3,2.9,2a6.7,6.7,0,0,1,1.2,9.4l-.1.1a6.65,6.65,0,0,1-9.2,1.3,6.56,6.56,0,0,1-1.5-8.8,6.86,6.86,0,0,0,.8-6.9c-4.2-12.9-8.3-25.9-12.5-38.9a44.56,44.56,0,0,0-1.6-4.2c-1.1,5-2.1,9-2.8,13.1a4.39,4.39,0,0,0,.9,2.7c.5.9,1.3,1.6,1.7,2.5a6.49,6.49,0,0,1-2.6,8.1,6.23,6.23,0,0,1-7.7-1.1c-2-2.2-2.5-6.1-.2-8.1,2.9-2.4,2.3-5,1.9-7.9-1.5-9.4-2.6-18.8-3.9-28.2-.2-1.5-.5-2.9-.9-4.8h-5.7c-2.8.1-5.6.4-8.4.4a5.06,5.06,0,0,0-5,2.7,6.13,6.13,0,0,1-7.7,2.7,6.75,6.75,0,0,1-4.2-6.2,6.89,6.89,0,0,1,4.6-6.4,6,6,0,0,1,5.5.6,32.53,32.53,0,0,1,2.9,2.3l11.5-3.5c1.2-2.2,2.3-4.1,3.4-5.9,1.3-2.2-.2-6.7-2.6-7.3-8.6-2.2-17.3-4.1-25.9-6.3a3.49,3.49,0,0,0-3.5,1.1c-3.1,2.6-6.4,2.6-8.7.2a6,6,0,0,1-.2-8.5l.2-.2a4.81,4.81,0,0,0,1.1-5.2l-27-125.7Q38.6,618.7,21.4,538.5L9.7,484.2c-.1-.6-.3-1.1-.4-1.6-7-2.6-9.6-5.4-9.2-9.8s3.1-6.8,9.5-8.4c.8-3,1.7-6.3,2.6-9.5q44.25-176.85,88.6-353.3c.6-2.4,1-4.4-1-6.5a6,6,0,0,1,.6-8.5l.3-.3c2.5-2.1,5.8-1.8,8.4.6a5.46,5.46,0,0,0,4.4,1.7l5.1-6.3c-1.9-2-11.1-6-19.7-8.5-5.4,3.5-9.3,3.2-11.7-1a6.72,6.72,0,0,1,2.5-9.2c.1-.1.3-.1.4-.2,4.1-1.9,7.6.3,10,6.5l18.4,4.2c.1-1.5.3-2.3.3-3.1-.3-17.9-.7-35.8-1-53.8a5.07,5.07,0,0,0-2.3-4.8,6.79,6.79,0,0,1-2.2-9.3,5.55,5.55,0,0,1,.6-.8,6.35,6.35,0,0,1,8.9-1c.1.1.2.1.2.2a7.1,7.1,0,0,1,1,9.9c-.1.1-.2.3-.4.4-.6.6-1.2,1.2-1.9,1.8q6,29.55,12.2,59.4h4.2c4.5-6.3,6.8-6.6,13.7-1.8,2.4-6.7,4.8-13.4,7.3-20.1a30.24,30.24,0,0,1-2.1-3.3,6.5,6.5,0,0,1,2.4-8.2,6.08,6.08,0,0,1,8.2,1.9c2,2.8,1.9,6.8-.9,8.3-3.8,2.1-3.7,5.2-4,8.6-.7,8.4-1.6,16.8-2.4,25.2-.3,3.1-.8,6,1,9,1.3,2.2.5,4.5-1,6.6a9,9,0,0,0-1.8,4.4c-1.6,17.2-3.1,34.4-4.7,51.7-.2,2.3-.1,4.1,2,5.8a6,6,0,0,1,.6,8.4l-.3.3a6.27,6.27,0,0,1-9.6-8c.2-.2.3-.4.5-.6a5.27,5.27,0,0,0,1.5-5.2c-2.7-13-5.4-26.1-8.1-39.2-.3-.9-.7-1.8-1.1-2.7L13.3,464.8c5.7,7.3,5.7,10.1-.2,16.3Q63.2,626,113.7,771a24.57,24.57,0,0,1,2.9.9c4.5,1.7,6,6.6,2.7,10a6.69,6.69,0,0,0-1.9,6.3c1.8,12.8,3.4,25.6,5.5,38.3.8,4.9,2.8,9.7,4.4,14.4a3.49,3.49,0,0,0,2.2,1.9c5,1.3,10,2.4,15.4,3.7.6-2.3,1.1-4.2,1.6-6.2,1.5-6.8,2.9-13.6,4.4-20.3.5-2.3.8-4.3-1.4-6.4a6.59,6.59,0,0,1,10-8.6c.2.3.4.5.6.8a6.22,6.22,0,0,1-1.2,8.4c-2.4,1.8-2.8,3.8-2.7,6.4.3,8,.4,16,.6,24,0,1.5.2,2.9.3,4.9l30.4,7.3c5-4.4,8.5-4.7,11.2-1.2a6.46,6.46,0,0,1-.9,9l-.1.1c-3.4,2.7-6.8,1.6-10.5-3.5ZM109,779.6a3.71,3.71,0,0,1,.6-4.9c2.1-2,1.3-3.9.6-6.1q-28-80.55-56.1-161c-.6-1.7-1.3-3.4-1.9-5a2.8,2.8,0,0,0,0,2.2l27.6,86.7,26.7,83.7c.4,1.6.3,3.7,2.5,4.4a18.3,18.3,0,0,0,.3,4.7c2,6.9,4.3,13.8,6.5,20.6a25.57,25.57,0,0,0,1.1,2.4c-.5-7.2-1.4-14.2-2.5-21.1-.1-.9-1.5-1.7-2.3-2.3-1.5-1.1-3.2-2-3.1-4.3Zm-89.6-267-.9.2Q52.1,670,85.5,826.9a13.55,13.55,0,0,1,7.2,7.3l27.5,6.5Q69.65,675.85,19.4,512.6Zm85-414.5q-42,167.25-83.8,333.8a16.92,16.92,0,0,0,2.6-5.2q29-85.2,57.8-170.4,18-53,35.9-106c.7-2.2,1.2-3.8-.7-6-2.5-2.9-1.6-6.5,1.5-9a22,22,0,0,1,2.5-1.7c-.3-11.9-.7-23.7-.7-35.4,0-3.3-2.9-3.8-4.2-5.8-.5-.8-2.3-.7-3.7-1-1.2,3.9-3.2,6.2-7.2,6.7Zm39.9,765c-1.3,5.7-2.6,11-3.6,16.4a13.18,13.18,0,0,0,.5,5.2c4.2,13.5,8.5,27,12.8,40.5a18.89,18.89,0,0,0,1.1,2.5l.8-.2L154.4,863a8.33,8.33,0,0,0-2.2-.3C149.7,862.8,147.2,863,144.3,863.1Zm6.2-709.5h.8c1.6-17.2,3.2-34.4,4.7-51.4-4-2.1-4-2.1-6.7-6-.6-.8-1.7-1.1-3-1.8-1.5,4.2-3,7.7-4.1,11.4a13.2,13.2,0,0,0-.4,5.6c1.2,7,2.7,13.9,4.2,20.9s3,14.2,4.5,21.3ZM122.1,96.5c.3,12,.5,24.3.8,36.6a3,3,0,0,0,1.6-1.9l10.8-31.5c.2-.5.4-1.1.6-1.7.7-3.3-.5-4.9-3.8-5.4l-4.5-.8-5.5,4.7Zm-.3-69.2h-1c.3,15.8.6,31.6.9,47.6,2.2.6,4,1.2,5.8,1.6,3.7.8,4.4.1,3.6-3.5-1.7-8.6-3.5-17.1-5.2-25.6-1.3-6.8-2.7-13.4-4.1-20.1Zm2.7,120.3c-3.4-.4-3.4,2.1-4,3.7Q104.75,197.2,89,243.2c-.4,1.1-.6,2.2-.9,3.3l.7.2c11.9-32.9,23.7-65.8,35.7-99.1Zm3.9,716.6c.7,11.6,3.9,31.4,5.6,33.9,1-4.8,2.1-9.4,2.9-14a8.57,8.57,0,0,0-.1-3.9l-4.5-14.4c-.6-2-1.7-2.6-3.9-1.6Zm29-775.9,2.7-29.2-1-.2c-3.7,10.4-7.4,20.7-11.4,31.9C151.7,90.7,153.9,87.7,157.4,88.3ZM142.1,860.2c.7-4,2.3-7.3,1.8-11.2-5-1.1-9.6-2.7-14.9-3.2a15.83,15.83,0,0,0,.9,3.1,12.76,12.76,0,0,1,3,9.3c-.1,1.4.9,2.4,2.6,2.3,2.1,0,4.2-.1,6.6-.3ZM127,137.9c.8-1,1.3-1.2,1.5-1.6,3.2-8.7,6.3-17.5,9.5-26.2.8-2.2.2-4-.9-6.9-3.8,10.9-7.3,20.8-10.5,30.7C126.2,134.8,126.8,136.1,127,137.9Zm53.3,720.9.2-1-23-5.5v7.4l22.8-.9Zm-26.7-33.6-1-.1c-1.6,7.3-3.2,14.5-4.8,22.1l5.8,1.5ZM145,859.8h9v-8.3l-6.8-1.5c-.8,3.5-1.5,6.6-2.2,9.8Zm-3.5,3.2-7,.7,3.7,10.9.9-.1c.7-3.7,1.5-7.3,2.4-11.5Zm3.9-773.7c1-2.9,1.8-5.3,2.7-8.2l-3.8.7-2.1,5.9,3.2,1.6Zm-11.5.6.5-1.2c-2.1-2.7-5.4-2.9-9-4.4.9,2,1.5,3.2,2.1,4.7ZM121.1,78.6a20.56,20.56,0,0,0,9.4,4.2C129.4,79.1,127.7,78.4,121.1,78.6Zm22.4,16c-4.7-.6-5.4,1.5-2.8,7.8ZM115.8,860.4l-.2,1,6.3-.4c-2.6-2.8-4.3-.9-6.1-.6Zm2.2-39.3-.7.2,2.1,6.6.7-.2-2.1-6.6ZM115.7,76.6l-.1.6,2.9,1,.3-.9-3.1-.7Z"/></g></g></svg>