<?xml version="1.0" standalone="no"?>
<!DOCTYPE svg PUBLIC "-//W3C//DTD SVG 1.1//EN" "http://www.w3.org/Graphics/SVG/1.1/DTD/svg11.dtd" >
<svg xmlns="http://www.w3.org/2000/svg" xmlns:xlink="http://www.w3.org/1999/xlink" version="1.1">
<metadata>
Created by FontForge 20170731 at Fri Oct  9 19:53:29 2015
 By Aleksey,,,
(c)2009 Commercial Type.
</metadata>
<defs>
<font id="KPMG-ExtralightItalic" horiz-adv-x="89" >
  <font-face 
    font-family="KPMG Extralight"
    font-weight="275"
    font-style="italic"
    font-stretch="normal"
    units-per-em="1000"
    panose-1="2 11 3 3 3 2 2 11 2 4"
    ascent="880"
    descent="-120"
    x-height="567"
    cap-height="678"
    bbox="-134 -95 707 814"
    underline-thickness="50"
    underline-position="-150"
    slope="-6"
    unicode-range="U+000D-FB00"
  />
<missing-glyph horiz-adv-x="625" 
 />
    <glyph glyph-name="f_f" unicode="ff" horiz-adv-x="333" 
d="M237 547h-127l-57 -547h-26l57 547h-45l2 20h45l5 42q4 38 21.5 53.5t58.5 15.5h33l-2 -20h-28q-30 0 -42.5 -11t-15.5 -40l-4 -40h127l5 42q5 38 22.5 53.5t57.5 15.5h38l-2 -20h-33q-30 0 -42.5 -11t-14.5 -40l-4 -40h84l-2 -20h-84l-58 -547h-25z" />
    <glyph glyph-name=".notdef" horiz-adv-x="625" 
 />
    <glyph glyph-name=".null" horiz-adv-x="0" 
 />
    <glyph glyph-name="nonmarkingreturn" unicode="&#xd;" horiz-adv-x="132" 
 />
    <glyph glyph-name="NULL" horiz-adv-x="0" 
 />
    <glyph glyph-name="NULL" horiz-adv-x="0" 
 />
    <glyph glyph-name="space" unicode=" " horiz-adv-x="132" 
 />
    <glyph glyph-name="exclam" unicode="!" horiz-adv-x="96" 
d="M8 34h26l-3 -34h-26zM76 678h27l-67 -581h-17z" />
    <glyph glyph-name="quotedbl" unicode="&#x22;" horiz-adv-x="142" 
d="M70 678h25l-14 -101h-19zM128 678h26l-15 -101h-18z" />
    <glyph glyph-name="numbersign" unicode="#" horiz-adv-x="291" 
d="M177 248h-87l-43 -248h-21l43 248h-58l2 23h60l29 162h-60l3 23h61l39 222h21l-39 -222h87l39 222h21l-39 -222h57l-2 -23h-59l-28 -162h58l-3 -23h-59l-43 -248h-22zM94 271h87l29 162h-87z" />
    <glyph glyph-name="dollar" unicode="$" horiz-adv-x="318" 
d="M130 375q-42 47 -60 85t-13 88l3 25q6 56 41 83t89 27l4 35h21l-4 -36q54 -5 81 -39t21 -90l-8 -76h-25l8 78q5 47 -16.5 73.5t-63.5 31.5l-31 -297l30 -33q20 -23 35 -44t24.5 -42t13 -43.5t0.5 -49.5l-3 -36q-5 -54 -38.5 -87t-99.5 -33h-2l-4 -45h-21l5 46
q-59 6 -86.5 44t-21.5 95l11 102h24l-10 -103q-5 -47 16 -78.5t69 -37.5l36 329zM140 17q54 0 80 28t31 72l3 36q5 44 -10.5 79.5t-53.5 78.5l-17 20zM81 545q-2 -22 1 -40.5t11.5 -36.5t22 -36t31.5 -38l11 -14l30 281q-44 -1 -71.5 -22.5t-32.5 -68.5z" />
    <glyph glyph-name="percent" unicode="%" horiz-adv-x="418" 
d="M404 678h23l-401 -678h-23zM135 393q-54 0 -76 33.5t-16 89.5l6 53q6 55 33 84t74 29q54 0 75.5 -33t15.5 -90l-5 -53q-6 -54 -32 -83.5t-75 -29.5zM136 414q38 0 56.5 23.5t23.5 67.5l6 57q5 45 -9.5 72t-56.5 27q-38 0 -57.5 -23.5t-24.5 -67.5l-6 -57q-5 -45 10 -72
t58 -27zM274 -4q-54 0 -76 33.5t-16 89.5l5 53q6 55 33.5 84t74.5 29q54 0 75.5 -33t15.5 -90l-6 -53q-6 -54 -32 -83.5t-74 -29.5zM274 17q39 0 57.5 23.5t23.5 67.5l6 57q5 45 -10 72t-57 27q-38 0 -57.5 -23.5t-24.5 -67.5l-6 -57q-5 -45 10.5 -72t57.5 -27z" />
    <glyph glyph-name="ampersand" unicode="&#x26;" horiz-adv-x="355" 
d="M133 -5q-70 0 -99 40.5t-21 112.5l11 101q6 56 34.5 80.5t68.5 32.5q-36 8 -53.5 37.5t-12.5 78.5l7 74q7 69 41.5 100t91.5 31q63 0 91.5 -32.5t20.5 -107.5l-6 -53h-25l5 53q7 66 -15.5 92t-70.5 26q-47 0 -74 -25t-33 -85l-8 -76q-5 -46 14 -74t70 -28h179l-3 -23h-46
l-36 -350h-24l7 65q-11 -28 -37 -49t-77 -21zM137 17q31 0 52.5 9.5t34.5 26t19.5 38.5t9.5 47l22 212h-106q-50 0 -82 -23t-37 -76l-11 -105q-6 -62 16.5 -95.5t81.5 -33.5z" />
    <glyph glyph-name="quotesingle" unicode="'" horiz-adv-x="82" 
d="M70 678h25l-14 -101h-19z" />
    <glyph glyph-name="parenleft" unicode="(" horiz-adv-x="169" 
d="M109 -90q-24 6 -43.5 17t-32 30.5t-17.5 50t0 75.5l48 456q5 44 15.5 73t27 46.5t38 26.5t47.5 13l-2 -21q-22 -4 -39.5 -12.5t-30 -24t-20.5 -40t-12 -61.5l-48 -456q-4 -38 -1 -64.5t12 -44t24 -27.5t36 -16z" />
    <glyph glyph-name="parenright" unicode=")" horiz-adv-x="169" 
d="M-18 -69q22 4 39.5 12.5t30 24t20.5 40t12 61.5l48 456q4 38 1 64.5t-12 44t-24 27.5t-36 16l2 21q24 -6 43.5 -17t32 -30.5t17 -50t0.5 -75.5l-48 -456q-5 -44 -15.5 -73t-27 -46.5t-38 -26.5t-47.5 -13z" />
    <glyph glyph-name="asterisk" unicode="*" horiz-adv-x="202" 
d="M133 579l-46 -59l-17 16l52 53l-69 26l9 22l65 -35l2 76h24l-11 -77l69 24l5 -23l-72 -14l42 -61l-21 -12z" />
    <glyph glyph-name="plus" unicode="+" horiz-adv-x="341" 
d="M29 346h136l16 153h23l-16 -153h135l-2 -22h-136l-16 -153h-23l16 153h-135z" />
    <glyph glyph-name="comma" unicode="," horiz-adv-x="95" 
d="M11 34h26v-2l-33 -108h-19z" />
    <glyph glyph-name="hyphen" unicode="-" horiz-adv-x="160" 
d="M22 326h123l-2 -22h-123z" />
    <glyph glyph-name="period" unicode="." horiz-adv-x="95" 
d="M8 34h26l-3 -34h-26z" />
    <glyph glyph-name="slash" unicode="/" horiz-adv-x="180" 
d="M190 698h23l-226 -788h-24z" />
    <glyph glyph-name="zero" unicode="0" horiz-adv-x="343" 
d="M150 17q31 0 53 10.5t36.5 28t22.5 40.5t11 49l39 371q3 30 -1.5 56t-17 46t-34.5 31.5t-54 11.5q-30 0 -52.5 -10t-37.5 -27.5t-23 -41t-11 -49.5l-39 -371q-3 -29 1.5 -55.5t17.5 -46.5t35 -31.5t54 -11.5zM150 -5q-40 0 -67 13.5t-43 37t-21.5 55t-1.5 66.5l38 364
q3 32 13.5 59.5t29 48t45.5 32.5t63 12q39 0 66 -13.5t43 -37t21.5 -54.5t1.5 -67l-38 -364q-3 -31 -13.5 -58.5t-28.5 -48.5t-44.5 -33t-63.5 -12z" />
    <glyph glyph-name="one" unicode="1" horiz-adv-x="175" 
d="M133 635h-1l-89 -93h-1l3 31l98 105h20l-71 -678h-26z" />
    <glyph glyph-name="two" unicode="2" horiz-adv-x="315" 
d="M9 99q3 30 10.5 52t19.5 41t29 38t40 42l84 85q36 35 60 69.5t28 69.5l6 57q6 56 -21 82t-71 26q-46 0 -76 -26.5t-35 -83.5l-8 -77h-25l8 80q7 66 42.5 97.5t94.5 31.5q61 0 92.5 -33t24.5 -98l-6 -58q-5 -38 -29 -74.5t-66 -78.5l-85 -86q-22 -22 -38 -39.5
t-27.5 -34.5t-17.5 -36.5t-9 -45.5l-8 -77h232l-1 -22h-259z" />
    <glyph glyph-name="three" unicode="3" horiz-adv-x="329" 
d="M141 -5q-72 0 -105.5 36.5t-25.5 103.5l9 86h25l-9 -86q-12 -118 106 -118q60 0 85.5 28t30.5 84l12 108q5 52 -18.5 82.5t-73.5 30.5h-41l3 22h36q101 0 111 91l8 75q7 64 -18.5 93.5t-77.5 29.5q-53 0 -79.5 -25.5t-31.5 -72.5l-8 -76h-25l8 76q6 56 39.5 88t97.5 32
q66 0 97 -37t23 -109l-8 -73q-5 -49 -30.5 -72.5t-63.5 -29.5q38 -8 60.5 -40t16.5 -88l-11 -106q-3 -32 -12 -56.5t-25.5 -41.5t-42 -26t-62.5 -9z" />
    <glyph glyph-name="four" unicode="4" horiz-adv-x="329" 
d="M219 157h-223l2 17l269 504h32l-53 -500h54l-2 -21h-54l-16 -157h-26zM221 178l48 457h-1l-243 -457h196z" />
    <glyph glyph-name="five" unicode="5" horiz-adv-x="326" 
d="M141 -5q-72 0 -104.5 39t-24.5 112l8 73h25l-8 -77q-7 -64 21 -94.5t83 -30.5q57 0 82.5 32t31.5 87l17 163q4 37 -3 62t-20.5 39.5t-32.5 20.5t-39 6q-21 0 -41 -6t-36 -19.5t-27 -35t-14 -51.5l-1 -10h-24l39 373h249l-2 -22h-226l-29 -279h1q16 38 47.5 55.5
t69.5 17.5q24 0 47 -7.5t39.5 -25t24.5 -47t4 -72.5l-17 -163q-7 -66 -40 -103t-100 -37z" />
    <glyph glyph-name="six" unicode="6" horiz-adv-x="334" 
d="M147 -5q-67 0 -102.5 43.5t-27.5 126.5l40 375q8 72 44.5 107.5t97.5 35.5q62 0 96 -34.5t27 -109.5l-5 -48h-24l5 48q7 65 -22 93.5t-78 28.5q-50 0 -79.5 -29.5t-35.5 -91.5l-20 -191h1q17 36 47.5 56t75.5 20q61 0 94.5 -38.5t24.5 -122.5l-12 -121q-8 -78 -44.5 -113
t-102.5 -35zM148 17q54 0 83 29.5t37 96.5l13 125q8 70 -19.5 102.5t-81.5 32.5q-49 0 -83.5 -30t-41.5 -98l-12 -115q-8 -71 22 -107t83 -36z" />
    <glyph glyph-name="seven" unicode="7" horiz-adv-x="292" 
d="M56 678h254l-6 -65l-235 -613h-27l237 618l4 38h-229z" />
    <glyph glyph-name="eight" unicode="8" horiz-adv-x="341" 
d="M145 -5q-40 0 -66.5 12.5t-42.5 34t-21 50t-2 60.5l10 92q5 53 31.5 88t80.5 46q-47 14 -60 50t-8 87l4 34q6 63 39.5 98.5t96.5 35.5q34 0 58 -10.5t38 -30t19 -46.5t2 -59l-3 -34q-5 -50 -26.5 -84t-71.5 -44q25 -6 42.5 -19.5t27.5 -33t13.5 -43t0.5 -49.5l-10 -92
q-7 -64 -43 -103.5t-109 -39.5zM145 17q60 0 90 33.5t36 87.5l10 96q3 27 -1 51t-17 42t-34.5 28t-52.5 10q-61 0 -91 -33t-36 -87l-10 -96q-3 -27 1 -51t16 -42t34 -28.5t55 -10.5zM183 387q30 0 50.5 9t33 24t19 36t9.5 45l4 37q6 57 -15 90t-78 33q-52 0 -78.5 -29.5
t-31.5 -82.5l-4 -38q-3 -25 -0.5 -47.5t12.5 -39.5t29 -27t50 -10z" />
    <glyph glyph-name="nine" unicode="9" horiz-adv-x="334" 
d="M144 -5q-30 0 -54.5 8t-41.5 25.5t-25 44.5t-4 66l5 48h24l-5 -48q-3 -33 3 -56t20 -38t34 -21.5t45 -6.5q54 0 82.5 30t34.5 91l20 191h-1q-17 -36 -47.5 -56t-73.5 -20q-62 0 -96 38.5t-25 122.5l12 121q8 78 45 113t102 35q68 0 103 -43.5t27 -126.5l-39 -375
q-15 -143 -145 -143zM165 275q49 0 83.5 30.5t41.5 98.5l12 116q8 71 -21 106t-84 35q-54 0 -83 -29.5t-37 -96.5l-13 -125q-8 -71 19.5 -103t81.5 -32z" />
    <glyph glyph-name="colon" unicode=":" horiz-adv-x="95" 
d="M8 34h26l-3 -34h-26zM37 310h26l-3 -35h-27z" />
    <glyph glyph-name="semicolon" unicode=";" horiz-adv-x="95" 
d="M11 34h26v-2l-33 -108h-19zM39 310h27l-4 -35h-26z" />
    <glyph glyph-name="less" unicode="&#x3c;" horiz-adv-x="307" 
d="M16 324l2 11l287 134l-3 -24l-253 -116l229 -115l-3 -24z" />
    <glyph glyph-name="equal" unicode="=" horiz-adv-x="354" 
d="M24 290h306l-2 -20h-306zM34 382h306l-2 -20h-306z" />
    <glyph glyph-name="greater" unicode="&#x3e;" horiz-adv-x="307" 
d="M14 214l252 116l-228 116l2 23l259 -134l-1 -11l-287 -134z" />
    <glyph glyph-name="question" unicode="?" horiz-adv-x="301" 
d="M113 205q2 22 5.5 37t10 28.5t16.5 27t25 32.5l51 64q25 31 36 52.5t14 51.5l5 49q7 58 -17 86t-73 28t-74.5 -28t-31.5 -80l-7 -71h-26l8 71q7 63 40 96.5t91 33.5q61 0 92 -34t24 -105l-5 -49q-2 -18 -6 -32t-11 -27t-16.5 -26t-22.5 -29l-52 -64q-13 -16 -22 -28
t-15 -24t-9.5 -26t-5.5 -34l-11 -108h-25zM93 34h27l-4 -34h-26z" />
    <glyph glyph-name="at" unicode="@" horiz-adv-x="492" 
d="M223 -90q-113 0 -164 58t-40 161l37 357q6 51 25 88t48 61t67 35.5t82 11.5q46 0 85 -11.5t66.5 -35.5t41 -61.5t8.5 -89.5l-40 -378q-4 -34 -18.5 -52.5t-46.5 -18.5q-33 0 -47.5 17t-14.5 44h-1q-11 -26 -33.5 -43.5t-58.5 -17.5q-46 0 -73 29.5t-20 93.5l28 269
q7 63 37 90t72 27q37 0 57 -16.5t29 -40.5h1l6 53h23l-45 -429q-3 -31 8 -44.5t33 -13.5q19 0 30.5 12t14.5 41l40 379q5 48 -6.5 82.5t-36.5 56t-61 31.5t-79 10q-41 0 -75.5 -10t-61 -32t-43.5 -56t-22 -82l-37 -356q-10 -97 35 -149.5t151 -52.5h147l-2 -17h-146zM223 55
q34 0 59 21.5t30 70.5l29 278q5 51 -17 75t-55 24q-38 0 -61.5 -24.5t-28.5 -75.5l-28 -268q-5 -50 14.5 -75.5t57.5 -25.5z" />
    <glyph glyph-name="A" unicode="A" horiz-adv-x="335" 
d="M187 678h36l70 -678h-26l-19 188h-184l-57 -188h-26zM71 211h174l-43 430h-1z" />
    <glyph glyph-name="B" unicode="B" horiz-adv-x="308" 
d="M73 678h109q68 0 94.5 -32.5t20.5 -93.5l-12 -106q-5 -45 -25.5 -66.5t-57.5 -29.5q90 -12 80 -113l-14 -134q-6 -54 -37 -78.5t-95 -24.5h-134zM135 22q52 0 77 20t30 62l14 135q5 48 -16 74t-78 26h-99l-34 -317h106zM154 360q49 0 75 20t31 65l12 109q5 50 -17 76
t-76 26h-83l-31 -296h89z" />
    <glyph glyph-name="C" unicode="C" horiz-adv-x="330" 
d="M150 -5q-41 0 -68 13.5t-43 37t-21 54.5t-1 67l38 364q3 34 13 62t27.5 48t44 31t63.5 11q39 0 65 -11.5t40 -31.5t18.5 -48.5t0.5 -61.5l-8 -76h-26l8 77q3 28 0 52t-14 41.5t-31.5 27t-52.5 9.5q-61 0 -88 -35.5t-34 -92.5l-38 -371q-3 -30 0.5 -56.5t16.5 -46t35 -31
t56 -11.5q31 0 51.5 8.5t33 24t18.5 37.5t9 49l13 124h26l-13 -124q-4 -32 -12 -58t-24 -44.5t-41 -28.5t-62 -10z" />
    <glyph glyph-name="D" unicode="D" horiz-adv-x="337" 
d="M129 22q68 0 100 36t37 92l38 362q3 30 -0.5 56t-16.5 45.5t-37 31t-61 11.5h-93l-67 -634h100zM73 678h120q44 0 72 -13.5t44 -36.5t20.5 -54t0.5 -67l-37 -356q-3 -32 -14 -60t-30.5 -48t-48.5 -31.5t-69 -11.5h-129z" />
    <glyph glyph-name="E" unicode="E" horiz-adv-x="293" 
d="M73 678h233l-3 -22h-207l-31 -300h153l-3 -22h-152l-33 -312h210l-2 -22h-236z" />
    <glyph glyph-name="F" unicode="F" horiz-adv-x="275" 
d="M73 678h228l-3 -22h-202l-31 -300h153l-2 -22h-153l-35 -334h-26z" />
    <glyph glyph-name="G" unicode="G" horiz-adv-x="338" 
d="M142 -5q-38 0 -63.5 14t-40.5 37.5t-20 54.5t-1 66l38 364q3 32 12.5 59.5t27.5 48t45 32.5t64 12q41 0 67 -11.5t39.5 -31.5t16.5 -48.5t0 -62.5l-6 -55h-25l7 58q3 28 0.5 52t-13.5 41t-32 26.5t-55 9.5q-30 0 -52 -10t-36.5 -27.5t-22.5 -41t-11 -49.5l-38 -371
q-3 -29 0.5 -55t16 -46t34 -32t53.5 -12q30 0 51.5 9.5t35.5 26.5t21 40.5t10 50.5l17 165h-99l2 22h124l-34 -331h-24l8 69q-13 -31 -39.5 -52.5t-77.5 -21.5z" />
    <glyph glyph-name="H" unicode="H" horiz-adv-x="331" 
d="M278 334h-215l-35 -334h-26l71 678h26l-34 -322h215l34 322h27l-71 -678h-27z" />
    <glyph glyph-name="I" unicode="I" 
d="M73 678h26l-71 -678h-26z" />
    <glyph glyph-name="J" unicode="J" horiz-adv-x="289" 
d="M117 -5q-65 0 -90 37t-19 97l14 131h25l-14 -132q-5 -51 15 -81t69 -30q47 0 70.5 24t28.5 70l59 567h26l-59 -566q-7 -58 -36.5 -87.5t-88.5 -29.5z" />
    <glyph glyph-name="K" unicode="K" horiz-adv-x="305" 
d="M64 343l-36 -343h-26l71 678h26l-34 -325l245 325h29l-249 -331l179 -347h-28z" />
    <glyph glyph-name="L" unicode="L" horiz-adv-x="256" 
d="M73 678h26l-69 -656h182l-2 -22h-208z" />
    <glyph glyph-name="M" unicode="M" horiz-adv-x="414" 
d="M73 678h42l66 -611h1l197 611h45l-71 -678h-26l66 635h-4l-204 -635h-21l-69 635h-3l-67 -635h-23z" />
    <glyph glyph-name="N" unicode="N" horiz-adv-x="326" 
d="M73 678h32l142 -613l64 613h24l-71 -678h-27l-146 630l-66 -630h-23z" />
    <glyph glyph-name="O" unicode="O" horiz-adv-x="349" 
d="M153 17q31 0 53.5 10.5t37.5 28t23 40.5t11 49l39 371q3 30 -1 56.5t-17.5 46t-36 31t-55.5 11.5q-30 0 -52.5 -10t-38 -27.5t-24 -41t-11.5 -49.5l-38 -371q-3 -30 1 -56t17.5 -46t36 -31.5t55.5 -11.5zM153 -5q-40 0 -67.5 13.5t-44 37t-22.5 55t-2 66.5l38 364
q3 31 13.5 59t29 48.5t46 32.5t64.5 12q40 0 67.5 -13.5t44 -37t22 -54.5t1.5 -67l-38 -364q-3 -31 -13 -58.5t-28.5 -48.5t-46 -33t-64.5 -12z" />
    <glyph glyph-name="P" unicode="P" horiz-adv-x="300" 
d="M73 678h115q65 0 93.5 -32t22.5 -90l-20 -191q-6 -55 -37 -82.5t-94 -27.5h-99l-26 -255h-26zM152 277q51 0 75.5 21.5t29.5 66.5l20 193q5 48 -17 73t-75 25h-89l-39 -379h95z" />
    <glyph glyph-name="Q" unicode="Q" horiz-adv-x="349" 
d="M289 -56l-173 41l1 15q-30 6 -50.5 21t-32.5 37t-16 50t-1 59l38 364q3 31 13.5 59t29 48.5t46 32.5t64.5 12q40 0 67.5 -13.5t44 -37t22 -54.5t1.5 -67l-38 -364q-3 -29 -12.5 -56t-26.5 -47.5t-42.5 -33.5t-60.5 -14l128 -30zM153 17q31 0 53.5 10.5t37.5 27.5t23 40
t11 49l39 372q3 30 -1 56.5t-17.5 46t-36 31t-55.5 11.5q-30 0 -52.5 -10t-38 -27.5t-24 -41t-11.5 -49.5l-39 -373q-3 -29 1.5 -55t18 -45.5t36 -31t55.5 -11.5z" />
    <glyph glyph-name="R" unicode="R" horiz-adv-x="303" 
d="M64 342l-36 -342h-26l71 678h115q128 0 114 -121l-11 -114q-6 -55 -37 -82.5t-94 -27.5h-63l172 -333h-28zM158 355q52 0 76.5 21.5t29.5 66.5l12 115q5 50 -16 74t-74 24h-90l-31 -301h93z" />
    <glyph glyph-name="S" unicode="S" horiz-adv-x="317" 
d="M138 -5q-69 0 -103 39t-27 101l10 102h26l-11 -103q-5 -51 21.5 -84t84.5 -33q54 0 79.5 28t30.5 72l4 36q5 44 -10.5 78.5t-53.5 77.5l-60 68q-21 24 -36 44t-24.5 39.5t-13 40t-0.5 44.5l3 27q6 56 41 83.5t90 27.5q65 0 97 -34.5t26 -95.5l-9 -76h-25l8 78
q5 52 -21 79t-76 27q-45 0 -73 -21.5t-33 -68.5l-3 -26q-2 -21 1 -39.5t11.5 -36t22.5 -35t32 -38.5l60 -67q20 -23 35 -43.5t24 -41.5t12.5 -43.5t0.5 -49.5l-4 -35q-5 -54 -38 -87.5t-99 -33.5z" />
    <glyph glyph-name="T" unicode="T" horiz-adv-x="296" 
d="M52 678h273l-2 -22h-124l-68 -656h-26l68 656h-123z" />
    <glyph glyph-name="U" unicode="U" horiz-adv-x="334" 
d="M145 -5q-39 0 -65.5 12t-42 33.5t-20.5 51t-1 65.5l55 521h26l-55 -525q-3 -30 1 -55t16 -43t33.5 -28t53.5 -10q30 0 51 9t34.5 24.5t21 37.5t10.5 48l57 542h25l-57 -541q-3 -31 -12 -57t-26 -45t-43 -29.5t-62 -10.5z" />
    <glyph glyph-name="V" unicode="V" horiz-adv-x="325" 
d="M52 678h26l58 -636h1l192 636h26l-207 -678h-32z" />
    <glyph glyph-name="W" unicode="W" horiz-adv-x="481" 
d="M55 678h26l22 -625h1l167 625h24l37 -625h1l151 625h24l-165 -678h-31l-36 608h-1l-163 -608h-32z" />
    <glyph glyph-name="X" unicode="X" horiz-adv-x="325" 
d="M150 360l-81 318h26l76 -298l139 298h26l-150 -322l93 -356h-26l-88 335l-153 -335h-27z" />
    <glyph glyph-name="Y" unicode="Y" horiz-adv-x="305" 
d="M138 258l-86 420h27l75 -380h1l154 380h26l-171 -419l-27 -259h-26z" />
    <glyph glyph-name="Z" unicode="Z" horiz-adv-x="298" 
d="M-10 22l297 634h-209l3 22h237l-2 -22l-298 -634h222l-2 -22h-250z" />
    <glyph glyph-name="bracketleft" unicode="[" horiz-adv-x="163" 
d="M84 698h102l-2 -20h-78l-79 -748h78l-2 -20h-102z" />
    <glyph glyph-name="backslash" unicode="\" horiz-adv-x="180" 
d="M52 698h23l64 -788h-23z" />
    <glyph glyph-name="bracketright" unicode="]" horiz-adv-x="163" 
d="M-18 -70h78l79 748h-78l2 20h101l-83 -788h-101z" />
    <glyph glyph-name="asciicircum" unicode="^" horiz-adv-x="236" 
d="M151 678h12l76 -173h-24l-61 141l-88 -141h-23z" />
    <glyph glyph-name="underscore" unicode="_" horiz-adv-x="240" 
d="M-39 -70h244l-2 -20h-244z" />
    <glyph glyph-name="grave" unicode="`" horiz-adv-x="400" 
d="M165 652l2 21l139 -62l-2 -18z" />
    <glyph glyph-name="a" unicode="a" horiz-adv-x="301" 
d="M113 -5q-54 0 -84 32.5t-22 100.5l5 47q3 33 13.5 54.5t27 36t38.5 25.5t50 23q64 26 89.5 44t27.5 40l4 43q6 53 -12.5 81t-69.5 28q-48 0 -71.5 -25.5t-28.5 -73.5l-5 -53h-25l5 54q7 57 37 88.5t88 31.5q63 0 89 -34t18 -97l-45 -441h-26l7 62h-2q-13 -27 -39.5 -47
t-68.5 -20zM118 17q20 0 39 6.5t34 19.5t25 33t13 46l24 232q-4 -5 -10.5 -10.5t-18 -12.5t-30.5 -16t-48 -22q-25 -11 -44.5 -21t-33 -22.5t-21 -29.5t-10.5 -44l-5 -48q-6 -57 17 -84t69 -27z" />
    <glyph glyph-name="b" unicode="b" horiz-adv-x="315" 
d="M141 -5q-46 0 -72 21.5t-34 50.5h-1l-7 -67h-25l71 678h25l-19 -182h1q14 30 40.5 53t73.5 23q54 0 84.5 -33.5t23.5 -102.5l-33 -315q-7 -66 -40 -96t-88 -30zM135 17q99 0 109 106l33 314q5 55 -19 84t-72 29q-45 0 -76.5 -31t-38.5 -94l-30 -294q-6 -56 21.5 -85
t72.5 -29z" />
    <glyph glyph-name="c" unicode="c" horiz-adv-x="304" 
d="M133 -5q-64 0 -95.5 39t-24.5 108l31 292q8 68 43 103t95 35q64 0 93 -35t21 -101l-4 -38h-25l4 39q5 55 -16.5 84t-73.5 29q-99 0 -111 -115l-32 -298q-6 -57 19.5 -88.5t76.5 -31.5q49 0 75 24.5t31 78.5l6 61h25l-6 -61q-13 -125 -132 -125z" />
    <glyph glyph-name="d" unicode="d" horiz-adv-x="315" 
d="M123 -5q-54 0 -85.5 33.5t-24.5 102.5l33 315q7 66 42 96t86 30q46 0 72 -21.5t34 -50.5h1l18 178h25l-70 -678h-25l7 71h-1q-12 -29 -38.5 -52.5t-73.5 -23.5zM129 16q45 0 76.5 32.5t37.5 93.5l31 294q6 55 -22.5 84.5t-71.5 29.5q-47 0 -75.5 -26t-33.5 -80l-32 -314
q-6 -55 18 -84.5t72 -29.5z" />
    <glyph glyph-name="e" unicode="e" horiz-adv-x="316" 
d="M138 -5q-65 0 -98.5 39t-25.5 108l31 294q7 67 42.5 101.5t96.5 34.5q63 0 94 -37.5t23 -106.5l-14 -134h-232l-16 -154q-7 -60 20 -91.5t80 -31.5q50 0 75 27.5t31 86.5l5 50h25l-5 -51q-8 -70 -39.5 -102.5t-92.5 -32.5zM264 315l12 114q6 59 -18 90t-75 31
q-101 0 -113 -114l-13 -121h207z" />
    <glyph glyph-name="f" unicode="f" horiz-adv-x="180" 
d="M41 567h45l5 42q4 38 21.5 53.5t58.5 15.5h38l-2 -20h-33q-30 0 -42.5 -11t-15.5 -40l-4 -40h85l-2 -20h-85l-57 -547h-26l57 547h-45z" />
    <glyph glyph-name="g" unicode="g" horiz-adv-x="316" 
d="M139 106q45 0 76 32.5t38 93.5l21 204q6 55 -22.5 84.5t-71.5 29.5q-46 0 -75 -26t-34 -80l-23 -225q-6 -54 18 -83.5t73 -29.5zM127 -95q-63 0 -95.5 32.5t-26.5 92.5l2 19h25l-2 -19q-5 -52 20.5 -77.5t76.5 -25.5q48 0 73.5 25t30.5 68l15 141h-1q-13 -30 -40 -53
t-74 -23q-53 0 -84.5 33.5t-24.5 101.5l24 226q7 66 42 96t86 30q46 0 72 -21.5t34 -50.5h1l7 67h25l-57 -547q-5 -54 -37.5 -84.5t-91.5 -30.5z" />
    <glyph glyph-name="h" unicode="h" horiz-adv-x="308" 
d="M73 678h25l-19 -181h1q6 13 16 26.5t24 24.5t32.5 17.5t41.5 6.5q52 0 80.5 -35.5t20.5 -106.5l-45 -430h-25l45 431q6 58 -15.5 88.5t-68.5 30.5q-48 0 -78.5 -35t-36.5 -90l-44 -425h-25z" />
    <glyph glyph-name="i" unicode="i" 
d="M61 567h25l-59 -567h-25zM73 678h25l-3 -31h-26z" />
    <glyph glyph-name="j" unicode="j" 
d="M-51 -69h11q21 0 28.5 9t9.5 30l63 597h25l-62 -598q-4 -32 -17 -45.5t-45 -13.5h-15zM73 678h25l-3 -31h-26z" />
    <glyph glyph-name="k" unicode="k" horiz-adv-x="270" 
d="M58 297l-31 -297h-25l71 678h25l-40 -376l202 265h27l-203 -269l150 -298h-27z" />
    <glyph glyph-name="l" unicode="l" 
d="M73 678h25l-71 -678h-25z" />
    <glyph glyph-name="m" unicode="m" horiz-adv-x="496" 
d="M61 567h25l-7 -69h1q6 13 15 26.5t22 24t30.5 17t38.5 6.5q41 0 63.5 -22t27.5 -61h1q12 32 40 57.5t73 25.5q52 0 75.5 -34t16.5 -100l-46 -438h-25l46 439q5 51 -12.5 81t-62.5 30q-42 0 -71 -32t-35 -84l-45 -434h-25l45 439q6 54 -12.5 82.5t-61.5 28.5
q-46 0 -73.5 -35t-33.5 -89l-44 -426h-25z" />
    <glyph glyph-name="n" unicode="n" horiz-adv-x="308" 
d="M61 567h25l-7 -70h1q6 13 16 26.5t24 24.5t32.5 17.5t41.5 6.5q52 0 80.5 -35.5t20.5 -106.5l-45 -430h-25l45 431q6 58 -15.5 88.5t-68.5 30.5q-48 0 -78.5 -35t-36.5 -90l-44 -425h-25z" />
    <glyph glyph-name="o" unicode="o" horiz-adv-x="318" 
d="M135 -5q-64 0 -96.5 39t-24.5 108l31 292q7 68 42 103t95 35q64 0 96 -39t25 -108l-31 -293q-7 -68 -42 -102.5t-95 -34.5zM135 17q99 0 111 114l32 298q6 57 -19.5 89t-76.5 32q-100 0 -112 -115l-31 -298q-7 -57 19 -88.5t77 -31.5z" />
    <glyph glyph-name="p" unicode="p" horiz-adv-x="315" 
d="M61 567h25l-7 -71h1q14 30 40.5 53t73.5 23q54 0 84.5 -33.5t23.5 -102.5l-33 -315q-7 -66 -40 -96t-88 -30q-46 0 -72 21.5t-34 50.5h-1l-16 -157h-25zM135 17q99 0 109 106l33 314q5 55 -19 84t-72 29q-45 0 -76.5 -31t-38.5 -94l-30 -294q-6 -56 21.5 -85t72.5 -29z
" />
    <glyph glyph-name="q" unicode="q" horiz-adv-x="315" 
d="M236 71h-1q-12 -29 -38.5 -52.5t-73.5 -23.5q-54 0 -85.5 33.5t-24.5 102.5l33 315q7 66 42 96t86 30q46 0 72 -21.5t34 -50.5h1l7 67h25l-69 -657h-25zM129 16q45 0 76.5 32.5t37.5 93.5l31 294q6 55 -22.5 84.5t-71.5 29.5q-47 0 -75.5 -26t-33.5 -80l-32 -314
q-6 -55 18 -84.5t72 -29.5z" />
    <glyph glyph-name="r" unicode="r" horiz-adv-x="182" 
d="M61 567h25l-7 -73h1q12 30 41 52.5t72 22.5l-3 -26h-4q-42 0 -75 -28.5t-39 -83.5l-45 -431h-25z" />
    <glyph glyph-name="s" unicode="s" horiz-adv-x="290" 
d="M122 -5q-66 0 -96 35t-23 94l6 54h24l-6 -55q-5 -49 18 -77.5t77 -28.5q53 0 75 26t27 73l2 18q4 37 -7.5 64.5t-50.5 61.5l-63 53q-38 33 -54 64.5t-11 73.5l2 18q5 47 35 75t87 28q60 0 89 -30t23 -92l-5 -48h-25l5 48q5 52 -17 76t-70 24q-47 0 -70 -22.5t-28 -60.5
l-2 -18q-4 -33 8.5 -59.5t50.5 -58.5l62 -53q22 -18 35.5 -35.5t21 -34.5t9.5 -35.5t0 -39.5l-2 -18q-7 -57 -34.5 -88.5t-92.5 -31.5z" />
    <glyph glyph-name="t" unicode="t" horiz-adv-x="192" 
d="M41 567h45l12 111h26l-12 -111h86l-2 -20h-86l-49 -462q-3 -30 6 -47t44 -17h29l-1 -21h-30q-48 0 -63 22.5t-10 64.5l48 460h-45z" />
    <glyph glyph-name="u" unicode="u" horiz-adv-x="311" 
d="M119 -5q-53 0 -83.5 32.5t-22.5 109.5l45 430h25l-45 -431q-7 -65 17 -92t69 -27q49 0 77.5 35t34.5 90l45 425h25l-59 -567h-25l7 69h-1q-13 -27 -38.5 -50.5t-70.5 -23.5z" />
    <glyph glyph-name="v" unicode="v" horiz-adv-x="285" 
d="M33 567h26l55 -528h1l170 528h26l-185 -567h-32z" />
    <glyph glyph-name="w" unicode="w" horiz-adv-x="450" 
d="M36 567h25l31 -515h1l150 515h24l39 -515h1l141 515h24l-157 -567h-28l-38 512l-150 -512h-29z" />
    <glyph glyph-name="x" unicode="x" horiz-adv-x="289" 
d="M131 298l-86 269h26l81 -252l131 252h26l-141 -272l84 -295h-26l-79 278l-144 -278h-26z" />
    <glyph glyph-name="y" unicode="y" horiz-adv-x="286" 
d="M-8 -69h25q16 0 26 2.5t16.5 8.5t11 15.5t9.5 23.5l28 77h-8l-67 509h25l62 -471h1l165 471h26l-209 -592q-6 -18 -12.5 -30.5t-16 -20t-23 -11t-33.5 -3.5h-29z" />
    <glyph glyph-name="z" unicode="z" horiz-adv-x="273" 
d="M-9 21l261 525h-188l2 21h216l-2 -21l-261 -525h200l-1 -21h-228z" />
    <glyph glyph-name="braceleft" unicode="{" horiz-adv-x="204" 
d="M137 -69q-51 0 -72.5 29.5t-6.5 90.5l41 172q9 37 -1.5 59t-58.5 22h-18l2 21h16q26 0 41.5 6.5t24 17.5t11 26.5t2.5 33.5l-5 181q-2 60 21.5 84t74.5 24h18l-2 -20h-17q-37 0 -54.5 -17.5t-15.5 -68.5l4 -182q2 -36 -10.5 -61t-50.5 -34q35 -9 42.5 -35t-0.5 -60
l-41 -173q-13 -52 3.5 -73.5t53.5 -21.5h9l-2 -21h-9z" />
    <glyph glyph-name="bar" unicode="|" horiz-adv-x="92" 
d="M78 698h22l-83 -788h-22z" />
    <glyph glyph-name="braceright" unicode="}" horiz-adv-x="204" 
d="M-16 -49h16q37 0 54.5 18t16.5 68l-5 182q-1 36 11.5 61.5t50.5 33.5q-36 9 -43 35t1 60l41 173q12 52 -4 74t-53 22h-10l2 20h9q51 0 72.5 -29.5t7.5 -90.5l-42 -172q-8 -37 2.5 -59t58.5 -22h18l-2 -21h-16q-26 0 -42 -6t-24.5 -17.5t-11 -26.5t-2.5 -33l5 -181
q2 -60 -21 -84.5t-74 -24.5h-18z" />
    <glyph glyph-name="asciitilde" unicode="~" horiz-adv-x="234" 
d="M22 288q3 25 16 40.5t36 15.5q13 0 25 -4.5t23 -10.5t21.5 -10.5t21.5 -4.5q15 0 22.5 10t9.5 24h20q-2 -25 -15.5 -40.5t-36.5 -15.5q-13 0 -24.5 4.5t-22.5 10.5t-22 10.5t-22 4.5q-15 0 -22 -10t-9 -24h-21z" />
    <glyph glyph-name="exclamdown" unicode="&#xa1;" horiz-adv-x="96" 
d="M66 588h27l-4 -34h-26zM61 491h17l-56 -581h-28z" />
    <glyph glyph-name="cent" unicode="&#xa2;" horiz-adv-x="304" 
d="M118 -4q-57 4 -84.5 42t-20.5 104l31 292q8 66 42 101t92 37l5 43h21l-5 -44q111 -11 97 -135l-4 -38h-25l4 39q9 103 -74 112l-57 -532q46 2 70.5 26t30.5 77l6 61h25l-6 -61q-13 -122 -128 -125l-5 -45h-20zM38 137q-6 -54 15.5 -84.5t66.5 -35.5l56 533
q-94 -3 -106 -115z" />
    <glyph glyph-name="sterling" unicode="&#xa3;" horiz-adv-x="329" 
d="M19 337h41l21 207q8 74 43.5 106.5t92.5 32.5q59 0 89 -32.5t23 -99.5l-7 -65h-26l7 67q5 56 -17.5 82t-68.5 26q-45 0 -73.5 -27t-36.5 -90l-22 -207h149l-3 -22h-148l-30 -293h226l-2 -22h-252l32 315h-41z" />
    <glyph glyph-name="yen" unicode="&#xa5;" horiz-adv-x="317" 
d="M40 278h105l2 17l-89 383h27l78 -348h1l151 348h26l-168 -383l-2 -17h106l-2 -19h-106l-3 -34h105l-2 -18h-105l-22 -207h-26l22 207h-106l2 18h106l3 34h-105z" />
    <glyph glyph-name="brokenbar" unicode="&#xa6;" horiz-adv-x="91" 
d="M34 289h22l-40 -379h-21zM78 698h21l-38 -359h-21z" />
    <glyph glyph-name="section" unicode="&#xa7;" horiz-adv-x="346" 
d="M146 -95q-67 0 -97 34.5t-24 93.5l5 47h24l-5 -48q-5 -49 17.5 -77t79.5 -28q27 0 45 6.5t29 19t17 29.5t8 38l1 17q4 35 -5 62t-45 52l-97 66q-36 25 -52 51t-16 59q0 46 24.5 71.5t64.5 38.5v1q-27 24 -34 52t-3 64l2 15q12 114 124 114q63 0 89.5 -32.5t21.5 -89.5
l-5 -47h-24l5 48q5 46 -15.5 72.5t-71.5 26.5q-49 0 -72 -23.5t-28 -69.5l-1 -15q-4 -34 4 -60.5t40 -49.5l96 -64q36 -25 53 -50t17 -60q0 -48 -25.5 -72t-65.5 -38v-1q32 -26 40 -55.5t5 -67.5l-2 -17q-5 -52 -32.5 -82.5t-91.5 -30.5zM209 171q38 12 61.5 32.5t23.5 62.5
q0 28 -14 49t-46 44l-98 66q-39 -12 -60 -33.5t-21 -62.5q0 -26 13 -48.5t45 -43.5z" />
    <glyph glyph-name="dieresis" unicode="&#xa8;" horiz-adv-x="400" 
d="M189 645h25l-4 -31h-24zM261 645h24l-3 -31h-25z" />
    <glyph glyph-name="copyright" unicode="&#xa9;" horiz-adv-x="379" 
d="M183 202q-43 0 -60.5 26.5t-13.5 66.5l11 105q5 41 25 63t57 22q41 0 58 -21.5t13 -58.5l-2 -19h-20l2 20q2 29 -9 45t-42 16q-29 0 -43.5 -17t-17.5 -49l-12 -109q-3 -31 9.5 -52t44.5 -21q30 0 43 17t16 43l3 31h21l-4 -32q-4 -34 -21 -55t-58 -21zM181 139q38 0 66 12
t47.5 33t30.5 50.5t15 65.5l7 70q4 38 -2.5 70t-24 55.5t-45.5 37t-68 13.5q-76 0 -114 -45t-45 -116l-7 -71q-4 -37 2.5 -69t24 -55.5t45.5 -37t68 -13.5zM181 126q-42 0 -73.5 14.5t-51 39.5t-27 59.5t-3.5 74.5l8 71q4 38 16.5 70t34 55.5t52 36.5t70.5 13q42 0 73 -14.5
t50.5 -40t27.5 -60.5t4 -75l-8 -70q-8 -78 -50 -126t-123 -48z" />
    <glyph glyph-name="ordfeminine" unicode="&#xaa;" horiz-adv-x="284" 
d="M127 195q-51 0 -78.5 30t-21.5 91l3 24q3 29 12.5 47.5t24.5 30.5t35.5 21t46.5 20q59 25 82.5 42t25.5 36l3 25q5 49 -12 75t-65 26q-45 0 -66.5 -24t-26.5 -67l-4 -40h-24l5 42q5 50 33.5 79.5t83.5 29.5q59 0 82.5 -31.5t17.5 -90.5l-38 -361h-24l6 57h-1
q-11 -25 -36.5 -43.5t-63.5 -18.5zM131 215q38 0 68 25t35 74l20 186l-11 -11q-6 -6 -17 -13t-28.5 -15.5t-44.5 -20.5q-24 -11 -41.5 -18.5t-30 -17.5t-19.5 -25t-9 -40l-2 -24q-6 -52 16 -76t64 -24z" />
    <glyph glyph-name="guillemotleft" unicode="&#xab;" horiz-adv-x="202" 
d="M20 233l78 145h22l-78 -147l48 -145h-23zM85 232l79 146h22l-78 -148l47 -144h-22z" />
    <glyph glyph-name="registered" unicode="&#xae;" horiz-adv-x="379" 
d="M196 248q-42 0 -73.5 14.5t-51 40t-27 60t-3.5 74.5l8 70q4 39 16.5 71t34 55t52 36t71.5 13q42 0 73 -14.5t50.5 -40t27 -60t3.5 -74.5l-7 -70q-4 -39 -16.5 -71t-34 -55t-52.5 -36t-71 -13zM196 261q76 0 113.5 45t45.5 117l7 70q4 37 -2.5 69.5t-24 56t-45.5 37
t-68 13.5q-76 0 -113 -45t-45 -117l-8 -70q-4 -38 2.5 -70t24 -55.5t45.5 -37t68 -13.5zM169 467l-14 -133h-20l28 271h65q32 0 47 -16.5t12 -45.5l-3 -29q-3 -28 -19.5 -39t-47.5 -11h-24l82 -130h-23zM217 479q23 0 34 8.5t13 26.5l3 31q2 19 -7 31.5t-34 12.5h-45
l-11 -110h47z" />
    <glyph glyph-name="macron" unicode="&#xaf;" horiz-adv-x="400" 
d="M163 634h145l-2 -19h-145z" />
    <glyph glyph-name="degree" unicode="&#xb0;" horiz-adv-x="173" 
d="M116 548q-28 0 -47.5 19.5t-19.5 46.5q0 29 19.5 49t47.5 20q29 0 49 -20t20 -49q0 -27 -20 -46.5t-49 -19.5zM116 566q22 0 36 14t14 34q0 22 -14 36.5t-36 14.5q-20 0 -33.5 -14.5t-13.5 -36.5q0 -20 13.5 -34t33.5 -14z" />
    <glyph glyph-name="twosuperior" unicode="&#xb2;" horiz-adv-x="205" 
d="M39 418q3 29 14 47.5t39 38.5l51 36q23 17 33 29t12 32l1 10q2 26 -10.5 40t-38.5 14q-24 0 -40 -13t-19 -41l-3 -34h-21l4 35q4 35 25 52.5t54 17.5q37 0 55.5 -19t14.5 -54l-1 -9q-2 -27 -15.5 -41.5t-36.5 -31.5l-52 -38q-25 -17 -34 -32.5t-11 -39.5l-1 -11h128
l-2 -18h-149z" />
    <glyph glyph-name="threesuperior" unicode="&#xb3;" horiz-adv-x="208" 
d="M118 384q-42 0 -60 19.5t-15 51.5l3 29h21l-3 -29q-3 -26 9.5 -40t44.5 -14q31 0 44 13.5t15 36.5l3 36q2 20 -6 33t-35 14h-29l2 16h27q26 0 36.5 13.5t12.5 28.5l2 22q2 25 -10 38t-41 13t-41 -14.5t-15 -37.5l-2 -18h-20l2 18q4 29 21 49t55 20q39 0 56.5 -18.5
t14.5 -50.5l-2 -21q-2 -17 -11.5 -31t-31.5 -19q23 -5 31 -20.5t6 -36.5l-4 -36q-3 -29 -20 -47t-60 -18z" />
    <glyph glyph-name="acute" unicode="&#xb4;" horiz-adv-x="400" 
d="M162 612l152 61l-3 -22l-151 -58z" />
    <glyph glyph-name="paragraph" unicode="&#xb6;" horiz-adv-x="313" 
d="M187 299h-36q-58 0 -88.5 30.5t-25.5 84.5l17 162q6 53 35.5 77.5t83.5 24.5h149l-71 -678h-22l69 658h-52l-68 -658h-22z" />
    <glyph glyph-name="periodcentered" unicode="&#xb7;" horiz-adv-x="95" 
d="M42 359h26l-3 -35h-27z" />
    <glyph glyph-name="cedilla" unicode="&#xb8;" horiz-adv-x="400" 
d="M91 -76q22 0 41.5 3.5t19.5 17.5q0 16 -32 16h-10l5 39h17l-3 -22q23 0 35 -9t12 -23q0 -23 -25.5 -30.5t-61.5 -7.5z" />
    <glyph glyph-name="onesuperior" unicode="&#xb9;" horiz-adv-x="135" 
d="M109 647h-1l-60 -58h-1l4 24l65 65h19l-31 -290h-22z" />
    <glyph glyph-name="ordmasculine" unicode="&#xba;" horiz-adv-x="293" 
d="M144 195q-58 0 -88 37t-24 100l24 224q7 63 39 95t86 32q58 0 88 -37t23 -100l-24 -224q-7 -62 -38 -94.5t-86 -32.5zM144 215q89 0 100 106l24 228q6 53 -17.5 83.5t-69.5 30.5q-90 0 -101 -106l-24 -229q-6 -53 18 -83t70 -30z" />
    <glyph glyph-name="guillemotright" unicode="&#xbb;" horiz-adv-x="202" 
d="M147 233l-47 145h22l48 -147l-78 -145h-22zM82 234l-47 144h22l48 -146l-79 -146h-23z" />
    <glyph glyph-name="onequarter" unicode="&#xbc;" horiz-adv-x="243" 
d="M121 59h-117l2 14l135 217h26l-22 -214h30l-2 -17h-30l-6 -59h-22zM149 647h-1l-60 -58h-1l3 24l66 65h19l-31 -290h-23zM124 76l18 182h-1l-114 -182h97zM27 348h201l-1 -16h-201z" />
    <glyph glyph-name="onehalf" unicode="&#xbd;" horiz-adv-x="243" 
d="M28 348h201l-2 -16h-201zM149 647h-1l-59 -58h-1l3 24l66 65h18l-31 -290h-22zM22 30q1 15 4.5 26.5t9.5 21t15.5 18.5t23.5 19l50 37q23 17 33.5 29t12.5 32l1 9q5 54 -50 54q-24 0 -39.5 -12.5t-18.5 -40.5l-4 -34h-20l4 35q4 35 25 52.5t54 17.5q37 0 55.5 -19
t14.5 -54l-1 -9q-3 -27 -16 -41.5t-37 -31.5l-52 -38q-24 -18 -33 -33t-11 -40l-1 -10h128l-2 -18h-149z" />
    <glyph glyph-name="threequarters" unicode="&#xbe;" horiz-adv-x="253" 
d="M135 384q-42 0 -60 19.5t-15 51.5l3 29h21l-3 -29q-3 -26 9.5 -40t44.5 -14t44.5 13.5t14.5 36.5l4 36q2 20 -6.5 33t-35.5 14h-29l2 16h27q26 0 36.5 13.5t12.5 28.5l2 22q2 25 -10 38t-41 13t-41 -14.5t-14 -37.5l-2 -18h-21l2 18q4 29 21 49t55 20q39 0 56.5 -18.5
t14.5 -50.5l-2 -21q-2 -17 -11.5 -31t-31.5 -19q23 -5 31 -20.5t6 -36.5l-4 -36q-3 -29 -20 -47t-60 -18zM125 59h-118l2 14l136 217h25l-21 -214h29l-1 -17h-31l-6 -59h-21zM127 76l19 182h-1l-114 -182h96zM28 348h199l-1 -16h-200z" />
    <glyph glyph-name="questiondown" unicode="&#xbf;" horiz-adv-x="301" 
d="M116 -95q-61 0 -92 34t-24 105l5 49q2 18 6 32t11 27t16.5 26t22.5 29l52 64q13 16 22 28t15 24t9.5 26t5.5 34l12 108h24l-11 -108q-2 -22 -5.5 -37t-10 -28.5t-17 -27t-25.5 -32.5l-51 -64q-24 -31 -35.5 -52.5t-14.5 -51.5l-5 -49q-7 -58 17 -86t74 -28q48 0 74 28
t31 80l7 71h26l-7 -71q-7 -63 -40.5 -96.5t-91.5 -33.5zM186 588h26l-3 -34h-26z" />
    <glyph glyph-name="Agrave" unicode="&#xc0;" horiz-adv-x="335" 
d="M187 678h36l70 -678h-26l-19 188h-184l-57 -188h-26zM71 211h174l-43 430h-1zM130 757l2 21l139 -62l-2 -18z" />
    <glyph glyph-name="Aacute" unicode="&#xc1;" horiz-adv-x="335" 
d="M187 678h36l70 -678h-26l-19 188h-184l-57 -188h-26zM71 211h174l-43 430h-1zM146 717l152 61l-3 -22l-151 -58z" />
    <glyph glyph-name="Acircumflex" unicode="&#xc2;" horiz-adv-x="335" 
d="M187 678h36l70 -678h-26l-19 188h-184l-57 -188h-26zM71 211h174l-43 430h-1zM130 719l79 68h14l67 -69l-2 -18l-73 65l-87 -65z" />
    <glyph glyph-name="Atilde" unicode="&#xc3;" horiz-adv-x="335" 
d="M187 678h36l70 -678h-26l-19 188h-184l-57 -188h-26zM71 211h174l-43 430h-1zM123 717q2 22 14 37t35 15q11 0 20.5 -4.5t18.5 -10t18 -10t18 -4.5q14 0 20.5 10t8.5 23h18q-2 -23 -14 -37.5t-35 -14.5q-11 0 -20.5 4.5t-18.5 9.5t-18 9.5t-18 4.5q-14 0 -21 -9.5
t-9 -22.5h-17z" />
    <glyph glyph-name="Adieresis" unicode="&#xc4;" horiz-adv-x="335" 
d="M187 678h36l70 -678h-26l-19 188h-184l-57 -188h-26zM71 211h174l-43 430h-1zM166 750h25l-4 -31h-24zM238 750h24l-3 -31h-25z" />
    <glyph glyph-name="Aring" unicode="&#xc5;" horiz-adv-x="335" 
d="M187 678h36l70 -678h-26l-19 188h-184l-57 -188h-26zM71 211h174l-43 430h-1zM210 702q-23 0 -39 16t-16 40q0 23 16 39.5t39 16.5q25 0 41 -16.5t16 -39.5q0 -24 -16 -40t-41 -16zM210 717q17 0 28.5 12t11.5 29t-11.5 29t-28.5 12t-27.5 -12t-10.5 -29t10.5 -29
t27.5 -12z" />
    <glyph glyph-name="AE" unicode="&#xc6;" horiz-adv-x="513" 
d="M249 188h-169l-73 -188h-25l262 678h281l-3 -22h-198l-31 -300h144l-2 -22h-144l-33 -312h202l-2 -22h-228zM89 211h163l46 445h-37z" />
    <glyph glyph-name="Ccedilla" unicode="&#xc7;" horiz-adv-x="330" 
d="M95 -76q22 0 41.5 3.5t19.5 17.5q0 16 -32 16h-10l5 37q-32 5 -53 20t-33 37.5t-15.5 51t-0.5 60.5l38 364q3 34 13 62t27.5 48t44 31t63.5 11q39 0 65 -11.5t40 -31.5t18.5 -48.5t0.5 -61.5l-8 -76h-26l8 77q3 28 0 52t-14 41.5t-31.5 27t-52.5 9.5q-61 0 -88 -35.5
t-34 -92.5l-38 -371q-3 -30 0.5 -56.5t16.5 -46t35 -31t56 -11.5q31 0 51.5 8.5t33 24t18.5 37.5t9 49l13 124h26l-13 -124q-4 -32 -12 -58t-24 -44.5t-41 -28.5t-62 -10h-15l-2 -17q23 0 35 -9t12 -23q0 -23 -25.5 -30.5t-61.5 -7.5z" />
    <glyph glyph-name="Egrave" unicode="&#xc8;" horiz-adv-x="293" 
d="M73 678h233l-3 -22h-207l-31 -300h153l-3 -22h-152l-33 -312h210l-2 -22h-236zM116 757l2 21l139 -62l-2 -18z" />
    <glyph glyph-name="Eacute" unicode="&#xc9;" horiz-adv-x="293" 
d="M133 717l152 61l-3 -22l-151 -58zM73 678h233l-3 -22h-207l-31 -300h153l-3 -22h-152l-33 -312h210l-2 -22h-236z" />
    <glyph glyph-name="Ecircumflex" unicode="&#xca;" horiz-adv-x="293" 
d="M111 719l79 68h14l67 -69l-2 -18l-73 65l-87 -65zM73 678h233l-3 -22h-207l-31 -300h153l-3 -22h-152l-33 -312h210l-2 -22h-236z" />
    <glyph glyph-name="Edieresis" unicode="&#xcb;" horiz-adv-x="293" 
d="M147 750h25l-4 -31h-24zM219 750h24l-3 -31h-25zM73 678h233l-3 -22h-207l-31 -300h153l-3 -22h-152l-33 -312h210l-2 -22h-236z" />
    <glyph glyph-name="Igrave" unicode="&#xcc;" 
d="M73 678h26l-71 -678h-26zM15 757l2 21l139 -62l-2 -18z" />
    <glyph glyph-name="Iacute" unicode="&#xcd;" 
d="M73 678h26l-71 -678h-26zM33 717l152 61l-3 -22l-151 -58z" />
    <glyph glyph-name="Icircumflex" unicode="&#xce;" 
d="M73 678h26l-71 -678h-26zM10 719l79 68h14l67 -69l-2 -18l-73 65l-87 -65z" />
    <glyph glyph-name="Idieresis" unicode="&#xcf;" 
d="M73 678h26l-71 -678h-26zM46 750h25l-4 -31h-24zM118 750h24l-3 -31h-25z" />
    <glyph glyph-name="Eth" unicode="&#xd0;" horiz-adv-x="347" 
d="M16 356h33l34 322h121q43 0 71.5 -13.5t44 -36.5t20 -54t0.5 -67l-37 -356q-3 -32 -14 -60t-30.5 -48t-48.5 -31.5t-69 -11.5h-129l35 334h-33zM139 22q68 0 100 36t37 92l38 362q3 30 -0.5 56t-16.5 45.5t-36.5 31t-60.5 11.5h-93l-32 -300h131l-2 -22h-131l-33 -312h99
z" />
    <glyph glyph-name="Ntilde" unicode="&#xd1;" horiz-adv-x="326" 
d="M73 678h32l142 -613l64 613h24l-71 -678h-27l-146 630l-66 -630h-23zM128 717q2 22 14 37t35 15q11 0 20.5 -4.5t18.5 -10t18 -10t18 -4.5q14 0 20.5 10t8.5 23h18q-2 -23 -14 -37.5t-35 -14.5q-11 0 -20.5 4.5t-18.5 9.5t-18 9.5t-18 4.5q-14 0 -21 -9.5t-9 -22.5h-17z
" />
    <glyph glyph-name="Ograve" unicode="&#xd2;" horiz-adv-x="349" 
d="M153 17q31 0 53.5 10.5t37.5 28t23 40.5t11 49l39 371q3 30 -1 56.5t-17.5 46t-36 31t-55.5 11.5q-30 0 -52.5 -10t-38 -27.5t-24 -41t-11.5 -49.5l-38 -371q-3 -30 1 -56t17.5 -46t36 -31.5t55.5 -11.5zM153 -5q-40 0 -67.5 13.5t-44 37t-22.5 55t-2 66.5l38 364
q3 31 13.5 59t29 48.5t46 32.5t64.5 12q40 0 67.5 -13.5t44 -37t22 -54.5t1.5 -67l-38 -364q-3 -31 -13 -58.5t-28.5 -48.5t-46 -33t-64.5 -12zM142 757l2 21l139 -62l-2 -18z" />
    <glyph glyph-name="Oacute" unicode="&#xd3;" horiz-adv-x="349" 
d="M160 717l152 61l-3 -22l-151 -58zM153 17q31 0 53.5 10.5t37.5 28t23 40.5t11 49l39 371q3 30 -1 56.5t-17.5 46t-36 31t-55.5 11.5q-30 0 -52.5 -10t-38 -27.5t-24 -41t-11.5 -49.5l-38 -371q-3 -30 1 -56t17.5 -46t36 -31.5t55.5 -11.5zM153 -5q-40 0 -67.5 13.5
t-44 37t-22.5 55t-2 66.5l38 364q3 31 13.5 59t29 48.5t46 32.5t64.5 12q40 0 67.5 -13.5t44 -37t22 -54.5t1.5 -67l-38 -364q-3 -31 -13 -58.5t-28.5 -48.5t-46 -33t-64.5 -12z" />
    <glyph glyph-name="Ocircumflex" unicode="&#xd4;" horiz-adv-x="349" 
d="M138 719l79 68h14l67 -69l-2 -18l-73 65l-87 -65zM153 17q31 0 53.5 10.5t37.5 28t23 40.5t11 49l39 371q3 30 -1 56.5t-17.5 46t-36 31t-55.5 11.5q-30 0 -52.5 -10t-38 -27.5t-24 -41t-11.5 -49.5l-38 -371q-3 -30 1 -56t17.5 -46t36 -31.5t55.5 -11.5zM153 -5
q-40 0 -67.5 13.5t-44 37t-22.5 55t-2 66.5l38 364q3 31 13.5 59t29 48.5t46 32.5t64.5 12q40 0 67.5 -13.5t44 -37t22 -54.5t1.5 -67l-38 -364q-3 -31 -13 -58.5t-28.5 -48.5t-46 -33t-64.5 -12z" />
    <glyph glyph-name="Otilde" unicode="&#xd5;" horiz-adv-x="349" 
d="M153 17q31 0 53.5 10.5t37.5 28t23 40.5t11 49l39 371q3 30 -1 56.5t-17.5 46t-36 31t-55.5 11.5q-30 0 -52.5 -10t-38 -27.5t-24 -41t-11.5 -49.5l-38 -371q-3 -30 1 -56t17.5 -46t36 -31.5t55.5 -11.5zM153 -5q-40 0 -67.5 13.5t-44 37t-22.5 55t-2 66.5l38 364
q3 31 13.5 59t29 48.5t46 32.5t64.5 12q40 0 67.5 -13.5t44 -37t22 -54.5t1.5 -67l-38 -364q-3 -31 -13 -58.5t-28.5 -48.5t-46 -33t-64.5 -12zM131 717q2 22 14 37t35 15q11 0 20.5 -4.5t18.5 -10t18 -10t18 -4.5q14 0 20.5 10t8.5 23h18q-2 -23 -14 -37.5t-35 -14.5
q-11 0 -20.5 4.5t-18.5 9.5t-18 9.5t-18 4.5q-14 0 -21 -9.5t-9 -22.5h-17z" />
    <glyph glyph-name="Odieresis" unicode="&#xd6;" horiz-adv-x="349" 
d="M174 750h25l-4 -31h-24zM246 750h24l-3 -31h-25zM153 17q31 0 53.5 10.5t37.5 28t23 40.5t11 49l39 371q3 30 -1 56.5t-17.5 46t-36 31t-55.5 11.5q-30 0 -52.5 -10t-38 -27.5t-24 -41t-11.5 -49.5l-38 -371q-3 -30 1 -56t17.5 -46t36 -31.5t55.5 -11.5zM153 -5
q-40 0 -67.5 13.5t-44 37t-22.5 55t-2 66.5l38 364q3 31 13.5 59t29 48.5t46 32.5t64.5 12q40 0 67.5 -13.5t44 -37t22 -54.5t1.5 -67l-38 -364q-3 -31 -13 -58.5t-28.5 -48.5t-46 -33t-64.5 -12z" />
    <glyph glyph-name="multiply" unicode="&#xd7;" horiz-adv-x="321" 
d="M24 206l126 125l-104 129l16 16l104 -129l126 123l14 -15l-127 -124l106 -130l-17 -15l-105 129l-125 -123z" />
    <glyph glyph-name="Oslash" unicode="&#xd8;" horiz-adv-x="349" 
d="M54 30q-24 24 -33 59.5t-4 77.5l38 364q3 31 13.5 59t29 48.5t46 32.5t64.5 12q26 0 46.5 -6t36.5 -17l16 42h20l-21 -54q24 -23 33 -59t4 -78l-38 -364q-3 -31 -13 -58.5t-28.5 -48.5t-46 -33t-64.5 -12q-50 0 -83 22l-18 -48h-21zM43 162q-4 -32 0.5 -59.5t19.5 -47.5
l220 583q-14 11 -32.5 17t-43.5 6q-30 0 -52.5 -10t-38 -27.5t-24 -41t-11.5 -49.5zM153 17q31 0 53.5 10.5t37.5 28t23 40.5t11 49l39 371q3 32 -1.5 59t-18.5 47l-219 -583q28 -22 75 -22z" />
    <glyph glyph-name="Ugrave" unicode="&#xd9;" horiz-adv-x="334" 
d="M145 -5q-39 0 -65.5 12t-42 33.5t-20.5 51t-1 65.5l55 521h26l-55 -525q-3 -30 1 -55t16 -43t33.5 -28t53.5 -10q30 0 51 9t34.5 24.5t21 37.5t10.5 48l57 542h25l-57 -541q-3 -31 -12 -57t-26 -45t-43 -29.5t-62 -10.5zM136 757l2 21l139 -62l-2 -18z" />
    <glyph glyph-name="Uacute" unicode="&#xda;" horiz-adv-x="334" 
d="M154 717l152 61l-3 -22l-151 -58zM145 -5q-39 0 -65.5 12t-42 33.5t-20.5 51t-1 65.5l55 521h26l-55 -525q-3 -30 1 -55t16 -43t33.5 -28t53.5 -10q30 0 51 9t34.5 24.5t21 37.5t10.5 48l57 542h25l-57 -541q-3 -31 -12 -57t-26 -45t-43 -29.5t-62 -10.5z" />
    <glyph glyph-name="Ucircumflex" unicode="&#xdb;" horiz-adv-x="334" 
d="M131 719l79 68h14l67 -69l-2 -18l-73 65l-87 -65zM145 -5q-39 0 -65.5 12t-42 33.5t-20.5 51t-1 65.5l55 521h26l-55 -525q-3 -30 1 -55t16 -43t33.5 -28t53.5 -10q30 0 51 9t34.5 24.5t21 37.5t10.5 48l57 542h25l-57 -541q-3 -31 -12 -57t-26 -45t-43 -29.5t-62 -10.5z
" />
    <glyph glyph-name="Udieresis" unicode="&#xdc;" horiz-adv-x="334" 
d="M168 750h25l-4 -31h-24zM240 750h24l-3 -31h-25zM145 -5q-39 0 -65.5 12t-42 33.5t-20.5 51t-1 65.5l55 521h26l-55 -525q-3 -30 1 -55t16 -43t33.5 -28t53.5 -10q30 0 51 9t34.5 24.5t21 37.5t10.5 48l57 542h25l-57 -541q-3 -31 -12 -57t-26 -45t-43 -29.5t-62 -10.5z
" />
    <glyph glyph-name="Yacute" unicode="&#xdd;" horiz-adv-x="305" 
d="M145 258l-86 420h27l75 -380h1l154 380h26l-171 -419l-27 -259h-26zM148 717l152 61l-3 -22l-151 -58z" />
    <glyph glyph-name="Thorn" unicode="&#xde;" horiz-adv-x="300" 
d="M73 678h26l-14 -126h89q66 0 94.5 -32t21.5 -90l-17 -165q-7 -57 -36 -86t-92 -29h-101l-16 -150h-26zM143 172q52 0 75 22.5t28 70.5l18 166q11 98 -92 98h-89l-37 -357h97z" />
    <glyph glyph-name="germandbls" unicode="&#xdf;" horiz-adv-x="302" 
d="M62 575q6 55 38.5 81.5t89.5 26.5q53 0 76.5 -19t23.5 -49q0 -53 -55 -64q66 -13 56 -106l-35 -327q-6 -61 -33.5 -89.5t-90.5 -28.5h-45l2 21h42q51 0 73 24t27 75l34 327q5 45 -9.5 69.5t-58.5 24.5h-45l3 20h40q27 0 49 10t22 42q0 23 -18 35.5t-59 12.5
q-46 0 -71.5 -20t-30.5 -67l-60 -574h-25z" />
    <glyph glyph-name="agrave" unicode="&#xe0;" horiz-adv-x="301" 
d="M113 -5q-54 0 -84 32.5t-22 100.5l5 47q3 33 13.5 54.5t27 36t38.5 25.5t50 23q64 26 89.5 44t27.5 40l4 43q6 53 -12.5 81t-69.5 28q-48 0 -71.5 -25.5t-28.5 -73.5l-5 -53h-25l5 54q7 57 37 88.5t88 31.5q63 0 89 -34t18 -97l-45 -441h-26l7 62h-2q-13 -27 -39.5 -47
t-68.5 -20zM118 17q20 0 39 6.5t34 19.5t25 33t13 46l24 232q-4 -5 -10.5 -10.5t-18 -12.5t-30.5 -16t-48 -22q-25 -11 -44.5 -21t-33 -22.5t-21 -29.5t-10.5 -44l-5 -48q-6 -57 17 -84t69 -27zM112 652l2 21l139 -62l-2 -18z" />
    <glyph glyph-name="aacute" unicode="&#xe1;" horiz-adv-x="301" 
d="M113 -5q-54 0 -84 32.5t-22 100.5l5 47q3 33 13.5 54.5t27 36t38.5 25.5t50 23q64 26 89.5 44t27.5 40l4 43q6 53 -12.5 81t-69.5 28q-48 0 -71.5 -25.5t-28.5 -73.5l-5 -53h-25l5 54q7 57 37 88.5t88 31.5q63 0 89 -34t18 -97l-45 -441h-26l7 62h-2q-13 -27 -39.5 -47
t-68.5 -20zM118 17q20 0 39 6.5t34 19.5t25 33t13 46l24 232q-4 -5 -10.5 -10.5t-18 -12.5t-30.5 -16t-48 -22q-25 -11 -44.5 -21t-33 -22.5t-21 -29.5t-10.5 -44l-5 -48q-6 -57 17 -84t69 -27zM130 612l152 61l-3 -22l-151 -58z" />
    <glyph glyph-name="acircumflex" unicode="&#xe2;" horiz-adv-x="301" 
d="M113 -5q-54 0 -84 32.5t-22 100.5l5 47q3 33 13.5 54.5t27 36t38.5 25.5t50 23q64 26 89.5 44t27.5 40l4 43q6 53 -12.5 81t-69.5 28q-48 0 -71.5 -25.5t-28.5 -73.5l-5 -53h-25l5 54q7 57 37 88.5t88 31.5q63 0 89 -34t18 -97l-45 -441h-26l7 62h-2q-13 -27 -39.5 -47
t-68.5 -20zM118 17q20 0 39 6.5t34 19.5t25 33t13 46l24 232q-4 -5 -10.5 -10.5t-18 -12.5t-30.5 -16t-48 -22q-25 -11 -44.5 -21t-33 -22.5t-21 -29.5t-10.5 -44l-5 -48q-6 -57 17 -84t69 -27zM108 614l79 68h14l67 -69l-2 -18l-73 65l-87 -65z" />
    <glyph glyph-name="atilde" unicode="&#xe3;" horiz-adv-x="301" 
d="M113 -5q-54 0 -84 32.5t-22 100.5l5 47q3 33 13.5 54.5t27 36t38.5 25.5t50 23q64 26 89.5 44t27.5 40l4 43q6 53 -12.5 81t-69.5 28q-48 0 -71.5 -25.5t-28.5 -73.5l-5 -53h-25l5 54q7 57 37 88.5t88 31.5q63 0 89 -34t18 -97l-45 -441h-26l7 62h-2q-13 -27 -39.5 -47
t-68.5 -20zM118 17q20 0 39 6.5t34 19.5t25 33t13 46l24 232q-4 -5 -10.5 -10.5t-18 -12.5t-30.5 -16t-48 -22q-25 -11 -44.5 -21t-33 -22.5t-21 -29.5t-10.5 -44l-5 -48q-6 -57 17 -84t69 -27zM102 612q2 22 14 37t35 15q11 0 20.5 -4.5t18.5 -10t18 -10t18 -4.5
q14 0 20.5 10t8.5 23h18q-2 -23 -14 -37.5t-35 -14.5q-11 0 -20.5 4.5t-18.5 9.5t-18 9.5t-18 4.5q-14 0 -21 -9.5t-9 -22.5h-17z" />
    <glyph glyph-name="adieresis" unicode="&#xe4;" horiz-adv-x="301" 
d="M113 -5q-54 0 -84 32.5t-22 100.5l5 47q3 33 13.5 54.5t27 36t38.5 25.5t50 23q64 26 89.5 44t27.5 40l4 43q6 53 -12.5 81t-69.5 28q-48 0 -71.5 -25.5t-28.5 -73.5l-5 -53h-25l5 54q7 57 37 88.5t88 31.5q63 0 89 -34t18 -97l-45 -441h-26l7 62h-2q-13 -27 -39.5 -47
t-68.5 -20zM118 17q20 0 39 6.5t34 19.5t25 33t13 46l24 232q-4 -5 -10.5 -10.5t-18 -12.5t-30.5 -16t-48 -22q-25 -11 -44.5 -21t-33 -22.5t-21 -29.5t-10.5 -44l-5 -48q-6 -57 17 -84t69 -27zM143 645h25l-4 -31h-24zM215 645h24l-3 -31h-25z" />
    <glyph glyph-name="aring" unicode="&#xe5;" horiz-adv-x="301" 
d="M113 -5q-54 0 -84 32.5t-22 100.5l5 47q3 33 13.5 54.5t27 36t38.5 25.5t50 23q64 26 89.5 44t27.5 40l4 43q6 53 -12.5 81t-69.5 28q-48 0 -71.5 -25.5t-28.5 -73.5l-5 -53h-25l5 54q7 57 37 88.5t88 31.5q63 0 89 -34t18 -97l-45 -441h-26l7 62h-2q-13 -27 -39.5 -47
t-68.5 -20zM118 17q20 0 39 6.5t34 19.5t25 33t13 46l24 232q-4 -5 -10.5 -10.5t-18 -12.5t-30.5 -16t-48 -22q-25 -11 -44.5 -21t-33 -22.5t-21 -29.5t-10.5 -44l-5 -48q-6 -57 17 -84t69 -27zM189 592q-23 0 -39 16t-16 40q0 23 16 39.5t39 16.5q25 0 41 -16.5t16 -39.5
q0 -24 -16 -40t-41 -16zM189 607q17 0 28.5 12t11.5 29t-11.5 29t-28.5 12t-27.5 -12t-10.5 -29t10.5 -29t27.5 -12z" />
    <glyph glyph-name="ae" unicode="&#xe6;" horiz-adv-x="535" 
d="M355 -5q-48 0 -77.5 22t-37.5 64h-1q-11 -40 -41 -63t-75 -23q-59 0 -91 35.5t-24 103.5l6 58q7 66 38 94t94 28h106l14 131q5 51 -14.5 78t-70.5 27q-48 0 -72.5 -25.5t-29.5 -73.5l-5 -53h-25l5 54q7 58 39 89t89 31q45 0 70 -18.5t33 -52.5q32 71 115 71
q63 0 93.5 -37.5t22.5 -106.5l-14 -135h-227l-16 -156q-7 -57 19.5 -88.5t77.5 -31.5t74.5 27.5t30.5 86.5l5 50h25l-6 -51q-8 -70 -38.5 -102.5t-91.5 -32.5zM128 16q41 0 69.5 27t34.5 84l18 166h-102q-52 0 -78 -24t-32 -79l-5 -56q-6 -57 18.5 -87.5t76.5 -30.5z
M480 314l12 117q6 57 -18 88t-75 31t-77 -28t-32 -85l-13 -123h203z" />
    <glyph glyph-name="ccedilla" unicode="&#xe7;" horiz-adv-x="304" 
d="M84 -76q22 0 41.5 3.5t19.5 17.5q0 16 -32 16h-10l5 36q-51 7 -76 44.5t-19 100.5l31 292q8 68 43 103t95 35q64 0 93 -35t21 -101l-4 -38h-25l4 39q5 55 -16.5 84t-73.5 29q-99 0 -111 -115l-32 -298q-6 -57 19.5 -88.5t76.5 -31.5q49 0 75 24.5t31 78.5l6 61h25l-6 -61
q-13 -125 -132 -125h-9l-2 -17q23 0 35 -9t12 -23q0 -23 -25.5 -30.5t-61.5 -7.5z" />
    <glyph glyph-name="egrave" unicode="&#xe8;" horiz-adv-x="316" 
d="M138 -5q-65 0 -98.5 39t-25.5 108l31 294q7 67 42.5 101.5t96.5 34.5q63 0 94 -37.5t23 -106.5l-14 -134h-232l-16 -154q-7 -60 20 -91.5t80 -31.5q50 0 75 27.5t31 86.5l5 50h25l-5 -51q-8 -70 -39.5 -102.5t-92.5 -32.5zM264 315l12 114q6 59 -18 90t-75 31
q-101 0 -113 -114l-13 -121h207zM112 652l2 21l139 -62l-2 -18z" />
    <glyph glyph-name="eacute" unicode="&#xe9;" horiz-adv-x="316" 
d="M130 612l152 61l-3 -22l-151 -58zM138 -5q-65 0 -98.5 39t-25.5 108l31 294q7 67 42.5 101.5t96.5 34.5q63 0 94 -37.5t23 -106.5l-14 -134h-232l-16 -154q-7 -60 20 -91.5t80 -31.5q50 0 75 27.5t31 86.5l5 50h25l-5 -51q-8 -70 -39.5 -102.5t-92.5 -32.5zM264 315
l12 114q6 59 -18 90t-75 31q-101 0 -113 -114l-13 -121h207z" />
    <glyph glyph-name="ecircumflex" unicode="&#xea;" horiz-adv-x="316" 
d="M108 614l79 68h14l67 -69l-2 -18l-73 65l-87 -65zM138 -5q-65 0 -98.5 39t-25.5 108l31 294q7 67 42.5 101.5t96.5 34.5q63 0 94 -37.5t23 -106.5l-14 -134h-232l-16 -154q-7 -60 20 -91.5t80 -31.5q50 0 75 27.5t31 86.5l5 50h25l-5 -51q-8 -70 -39.5 -102.5
t-92.5 -32.5zM264 315l12 114q6 59 -18 90t-75 31q-101 0 -113 -114l-13 -121h207z" />
    <glyph glyph-name="edieresis" unicode="&#xeb;" horiz-adv-x="316" 
d="M143 645h25l-4 -31h-24zM215 645h24l-3 -31h-25zM138 -5q-65 0 -98.5 39t-25.5 108l31 294q7 67 42.5 101.5t96.5 34.5q63 0 94 -37.5t23 -106.5l-14 -134h-232l-16 -154q-7 -60 20 -91.5t80 -31.5q50 0 75 27.5t31 86.5l5 50h25l-5 -51q-8 -70 -39.5 -102.5t-92.5 -32.5
zM264 315l12 114q6 59 -18 90t-75 31q-101 0 -113 -114l-13 -121h207z" />
    <glyph glyph-name="igrave" unicode="&#xec;" 
d="M27 651l2 22l92 -62l-2 -18zM61 567h25l-59 -567h-25z" />
    <glyph glyph-name="iacute" unicode="&#xed;" 
d="M37 613l104 60l-3 -22l-104 -58zM61 567h25l-59 -567h-25z" />
    <glyph glyph-name="icircumflex" unicode="&#xee;" 
d="M21 615l58 67h14l42 -67l-2 -20l-48 65l-66 -65zM61 567h25l-59 -567h-25z" />
    <glyph glyph-name="idieresis" unicode="&#xef;" 
d="M41 645h21l-3 -31h-21zM100 645h21l-3 -31h-21zM61 567h25l-59 -567h-25z" />
    <glyph glyph-name="eth" unicode="&#xf0;" horiz-adv-x="318" 
d="M104 615l69 23l-36 40h29l29 -32l69 23l-2 -17l-55 -19l43 -46q31 -32 44.5 -70t8.5 -91l-31 -294q-7 -68 -42 -102.5t-95 -34.5q-64 0 -96.5 39t-24.5 108l31 292q7 68 41 102t91 34q26 0 48.5 -9.5t38.5 -32.5q-7 17 -34 49l-45 49l-83 -28zM135 17q99 0 111 114
l32 298q5 56 -19.5 88.5t-76.5 32.5q-100 0 -112 -115l-31 -298q-7 -57 19 -88.5t77 -31.5z" />
    <glyph glyph-name="ntilde" unicode="&#xf1;" horiz-adv-x="308" 
d="M61 567h25l-7 -70h1q6 13 16 26.5t24 24.5t32.5 17.5t41.5 6.5q52 0 80.5 -35.5t20.5 -106.5l-45 -430h-25l45 431q6 58 -15.5 88.5t-68.5 30.5q-48 0 -78.5 -35t-36.5 -90l-44 -425h-25zM100 612q2 22 14 37t35 15q11 0 20.5 -4.5t18.5 -10t18 -10t18 -4.5q14 0 20.5 10
t8.5 23h18q-2 -23 -14 -37.5t-35 -14.5q-11 0 -20.5 4.5t-18.5 9.5t-18 9.5t-18 4.5q-14 0 -21 -9.5t-9 -22.5h-17z" />
    <glyph glyph-name="ograve" unicode="&#xf2;" horiz-adv-x="318" 
d="M135 -5q-64 0 -96.5 39t-24.5 108l31 292q7 68 42 103t95 35q64 0 96 -39t25 -108l-31 -293q-7 -68 -42 -102.5t-95 -34.5zM135 17q99 0 111 114l32 298q6 57 -19.5 89t-76.5 32q-100 0 -112 -115l-31 -298q-7 -57 19 -88.5t77 -31.5zM118 652l2 21l139 -62l-2 -18z" />
    <glyph glyph-name="oacute" unicode="&#xf3;" horiz-adv-x="318" 
d="M130 612l152 61l-3 -22l-151 -58zM135 -5q-64 0 -96.5 39t-24.5 108l31 292q7 68 42 103t95 35q64 0 96 -39t25 -108l-31 -293q-7 -68 -42 -102.5t-95 -34.5zM135 17q99 0 111 114l32 298q6 57 -19.5 89t-76.5 32q-100 0 -112 -115l-31 -298q-7 -57 19 -88.5t77 -31.5z
" />
    <glyph glyph-name="ocircumflex" unicode="&#xf4;" horiz-adv-x="318" 
d="M110 614l79 68h14l67 -69l-2 -18l-73 65l-87 -65zM135 -5q-64 0 -96.5 39t-24.5 108l31 292q7 68 42 103t95 35q64 0 96 -39t25 -108l-31 -293q-7 -68 -42 -102.5t-95 -34.5zM135 17q99 0 111 114l32 298q6 57 -19.5 89t-76.5 32q-100 0 -112 -115l-31 -298
q-7 -57 19 -88.5t77 -31.5z" />
    <glyph glyph-name="otilde" unicode="&#xf5;" horiz-adv-x="318" 
d="M135 -5q-64 0 -96.5 39t-24.5 108l31 292q7 68 42 103t95 35q64 0 96 -39t25 -108l-31 -293q-7 -68 -42 -102.5t-95 -34.5zM135 17q99 0 111 114l32 298q6 57 -19.5 89t-76.5 32q-100 0 -112 -115l-31 -298q-7 -57 19 -88.5t77 -31.5zM107 612q2 22 14 37t35 15
q11 0 20.5 -4.5t18.5 -10t18 -10t18 -4.5q14 0 20.5 10t8.5 23h18q-2 -23 -14 -37.5t-35 -14.5q-11 0 -20.5 4.5t-18.5 9.5t-18 9.5t-18 4.5q-14 0 -21 -9.5t-9 -22.5h-17z" />
    <glyph glyph-name="odieresis" unicode="&#xf6;" horiz-adv-x="318" 
d="M149 645h25l-4 -31h-24zM221 645h24l-3 -31h-25zM135 -5q-64 0 -96.5 39t-24.5 108l31 292q7 68 42 103t95 35q64 0 96 -39t25 -108l-31 -293q-7 -68 -42 -102.5t-95 -34.5zM135 17q99 0 111 114l32 298q6 57 -19.5 89t-76.5 32q-100 0 -112 -115l-31 -298
q-7 -57 19 -88.5t77 -31.5z" />
    <glyph glyph-name="divide" unicode="&#xf7;" horiz-adv-x="341" 
d="M29 346h294l-2 -22h-294zM152 242h26l-3 -34h-27zM176 467h26l-3 -34h-27z" />
    <glyph glyph-name="oslash" unicode="&#xf8;" horiz-adv-x="318" 
d="M49 23q-44 39 -35 119l31 292q7 68 42 103t95 35q41 0 70 -18l15 38h20l-19 -50q42 -39 35 -117l-31 -293q-7 -68 -42 -102.5t-95 -34.5q-41 0 -70 17l-16 -43h-20zM39 137q-8 -59 19 -90l186 485q-24 18 -62 18q-100 0 -112 -115zM135 17q99 0 111 114l32 298
q6 56 -19 89l-186 -485q23 -16 62 -16z" />
    <glyph glyph-name="ugrave" unicode="&#xf9;" horiz-adv-x="311" 
d="M119 -5q-53 0 -83.5 32.5t-22.5 109.5l45 430h25l-45 -431q-7 -65 17 -92t69 -27q49 0 77.5 35t34.5 90l45 425h25l-59 -567h-25l7 69h-1q-13 -27 -38.5 -50.5t-70.5 -23.5zM110 652l2 21l139 -62l-2 -18z" />
    <glyph glyph-name="uacute" unicode="&#xfa;" horiz-adv-x="311" 
d="M122 612l152 61l-3 -22l-151 -58zM119 -5q-53 0 -83.5 32.5t-22.5 109.5l45 430h25l-45 -431q-7 -65 17 -92t69 -27q49 0 77.5 35t34.5 90l45 425h25l-59 -567h-25l7 69h-1q-13 -27 -38.5 -50.5t-70.5 -23.5z" />
    <glyph glyph-name="ucircumflex" unicode="&#xfb;" horiz-adv-x="311" 
d="M105 614l79 68h14l67 -69l-2 -18l-73 65l-87 -65zM119 -5q-53 0 -83.5 32.5t-22.5 109.5l45 430h25l-45 -431q-7 -65 17 -92t69 -27q49 0 77.5 35t34.5 90l45 425h25l-59 -567h-25l7 69h-1q-13 -27 -38.5 -50.5t-70.5 -23.5z" />
    <glyph glyph-name="udieresis" unicode="&#xfc;" horiz-adv-x="311" 
d="M141 645h25l-4 -31h-24zM213 645h24l-3 -31h-25zM119 -5q-53 0 -83.5 32.5t-22.5 109.5l45 430h25l-45 -431q-7 -65 17 -92t69 -27q49 0 77.5 35t34.5 90l45 425h25l-59 -567h-25l7 69h-1q-13 -27 -38.5 -50.5t-70.5 -23.5z" />
    <glyph glyph-name="yacute" unicode="&#xfd;" horiz-adv-x="286" 
d="M-8 -69h25q16 0 26 2.5t16.5 8.5t11 15.5t9.5 23.5l28 77h-8l-67 509h25l62 -471h1l165 471h26l-209 -592q-6 -18 -12.5 -30.5t-16 -20t-23 -11t-33.5 -3.5h-29zM118 612l152 61l-3 -22l-151 -58z" />
    <glyph glyph-name="thorn" unicode="&#xfe;" horiz-adv-x="315" 
d="M73 678h25l-19 -182h1q14 30 40.5 53t73.5 23q54 0 84.5 -33.5t23.5 -102.5l-33 -315q-7 -66 -40 -96t-88 -30q-46 0 -72 21.5t-34 50.5h-1l-16 -157h-25zM135 17q99 0 109 106l33 314q5 55 -19 84t-72 29q-45 0 -76.5 -31t-38.5 -94l-30 -294q-6 -56 21.5 -85t72.5 -29z
" />
    <glyph glyph-name="ydieresis" unicode="&#xff;" horiz-adv-x="286" 
d="M-8 -69h25q16 0 26 2.5t16.5 8.5t11 15.5t9.5 23.5l28 77h-8l-67 509h25l62 -471h1l165 471h26l-209 -592q-6 -18 -12.5 -30.5t-16 -20t-23 -11t-33.5 -3.5h-29zM130 645h25l-4 -31h-24zM202 645h24l-3 -31h-25z" />
    <glyph glyph-name="Amacron" unicode="&#x100;" horiz-adv-x="335" 
d="M187 678h36l70 -678h-26l-19 188h-184l-57 -188h-26zM71 211h174l-43 430h-1zM140 739h145l-2 -19h-145z" />
    <glyph glyph-name="amacron" unicode="&#x101;" horiz-adv-x="301" 
d="M113 -5q-54 0 -84 32.5t-22 100.5l5 47q3 33 13.5 54.5t27 36t38.5 25.5t50 23q64 26 89.5 44t27.5 40l4 43q6 53 -12.5 81t-69.5 28q-48 0 -71.5 -25.5t-28.5 -73.5l-5 -53h-25l5 54q7 57 37 88.5t88 31.5q63 0 89 -34t18 -97l-45 -441h-26l7 62h-2q-13 -27 -39.5 -47
t-68.5 -20zM118 17q20 0 39 6.5t34 19.5t25 33t13 46l24 232q-4 -5 -10.5 -10.5t-18 -12.5t-30.5 -16t-48 -22q-25 -11 -44.5 -21t-33 -22.5t-21 -29.5t-10.5 -44l-5 -48q-6 -57 17 -84t69 -27zM118 634h145l-2 -19h-145z" />
    <glyph glyph-name="Abreve" unicode="&#x102;" horiz-adv-x="335" 
d="M187 678h36l70 -678h-26l-19 188h-184l-57 -188h-26zM71 211h174l-43 430h-1zM214 702q-34 0 -55 21t-19 56h19q-1 -27 14 -42t41 -15q25 0 41 14.5t20 42.5h19q-4 -38 -26 -57.5t-54 -19.5z" />
    <glyph glyph-name="abreve" unicode="&#x103;" horiz-adv-x="301" 
d="M113 -5q-54 0 -84 32.5t-22 100.5l5 47q3 33 13.5 54.5t27 36t38.5 25.5t50 23q64 26 89.5 44t27.5 40l4 43q6 53 -12.5 81t-69.5 28q-48 0 -71.5 -25.5t-28.5 -73.5l-5 -53h-25l5 54q7 57 37 88.5t88 31.5q63 0 89 -34t18 -97l-45 -441h-26l7 62h-2q-13 -27 -39.5 -47
t-68.5 -20zM118 17q20 0 39 6.5t34 19.5t25 33t13 46l24 232q-4 -5 -10.5 -10.5t-18 -12.5t-30.5 -16t-48 -22q-25 -11 -44.5 -21t-33 -22.5t-21 -29.5t-10.5 -44l-5 -48q-6 -57 17 -84t69 -27zM191 597q-34 0 -55 21t-19 56h19q-1 -27 14 -42t41 -15q25 0 41 14.5t20 42.5
h19q-4 -38 -26 -57.5t-54 -19.5z" />
    <glyph glyph-name="Aogonek" unicode="&#x104;" horiz-adv-x="335" 
d="M279 -90q-26 0 -37.5 10.5t-11.5 26.5q0 19 11.5 31.5t25.5 21.5l-19 188h-184l-57 -188h-26l206 678h36l70 -678q-12 -9 -25 -21.5t-13 -27.5q0 -8 5.5 -14t21.5 -6h10l-3 -21h-10zM245 211l-43 430h-1l-131 -430h175z" />
    <glyph glyph-name="aogonek" unicode="&#x105;" horiz-adv-x="301" 
d="M242 0q-12 -9 -25 -21.5t-13 -27.5q0 -8 5.5 -14t21.5 -6h10l-3 -21h-10q-26 0 -37.5 10.5t-11.5 26.5q0 19 11.5 31.5t25.5 21.5l7 62h-2q-13 -27 -39.5 -47t-68.5 -20q-54 0 -84 32.5t-22 100.5l5 47q3 33 13.5 54.5t27 36t38.5 25.5t50 23q64 26 89.5 44t27.5 40l4 43
q6 53 -12.5 81t-69.5 28q-48 0 -71.5 -25.5t-28.5 -73.5l-5 -53h-25l5 54q7 57 37 88.5t88 31.5q63 0 89 -34t18 -97zM118 17q20 0 39 6.5t34 19.5t25 33t13 46l24 232q-4 -5 -10.5 -10.5t-18 -12.5t-30.5 -16t-48 -22q-25 -11 -44.5 -21t-33 -22.5t-21 -29.5t-10.5 -44
l-5 -48q-6 -57 17 -84t69 -27z" />
    <glyph glyph-name="Cacute" unicode="&#x106;" horiz-adv-x="330" 
d="M148 717l152 61l-3 -22l-151 -58zM150 -5q-41 0 -68 13.5t-43 37t-21 54.5t-1 67l38 364q3 34 13 62t27.5 48t44 31t63.5 11q39 0 65 -11.5t40 -31.5t18.5 -48.5t0.5 -61.5l-8 -76h-26l8 77q3 28 0 52t-14 41.5t-31.5 27t-52.5 9.5q-61 0 -88 -35.5t-34 -92.5l-38 -371
q-3 -30 0.5 -56.5t16.5 -46t35 -31t56 -11.5q31 0 51.5 8.5t33 24t18.5 37.5t9 49l13 124h26l-13 -124q-4 -32 -12 -58t-24 -44.5t-41 -28.5t-62 -10z" />
    <glyph glyph-name="cacute" unicode="&#x107;" horiz-adv-x="304" 
d="M130 612l152 61l-3 -22l-151 -58zM133 -5q-64 0 -95.5 39t-24.5 108l31 292q8 68 43 103t95 35q64 0 93 -35t21 -101l-4 -38h-25l4 39q5 55 -16.5 84t-73.5 29q-99 0 -111 -115l-32 -298q-6 -57 19.5 -88.5t76.5 -31.5q49 0 75 24.5t31 78.5l6 61h25l-6 -61
q-13 -125 -132 -125z" />
    <glyph glyph-name="Ccircumflex" unicode="&#x108;" horiz-adv-x="330" 
d="M131 719l79 68h14l67 -69l-2 -18l-73 65l-87 -65zM150 -5q-41 0 -68 13.5t-43 37t-21 54.5t-1 67l38 364q3 34 13 62t27.5 48t44 31t63.5 11q39 0 65 -11.5t40 -31.5t18.5 -48.5t0.5 -61.5l-8 -76h-26l8 77q3 28 0 52t-14 41.5t-31.5 27t-52.5 9.5q-61 0 -88 -35.5
t-34 -92.5l-38 -371q-3 -30 0.5 -56.5t16.5 -46t35 -31t56 -11.5q31 0 51.5 8.5t33 24t18.5 37.5t9 49l13 124h26l-13 -124q-4 -32 -12 -58t-24 -44.5t-41 -28.5t-62 -10z" />
    <glyph glyph-name="ccircumflex" unicode="&#x109;" horiz-adv-x="304" 
d="M110 614l79 68h14l67 -69l-2 -18l-73 65l-87 -65zM133 -5q-64 0 -95.5 39t-24.5 108l31 292q8 68 43 103t95 35q64 0 93 -35t21 -101l-4 -38h-25l4 39q5 55 -16.5 84t-73.5 29q-99 0 -111 -115l-32 -298q-6 -57 19.5 -88.5t76.5 -31.5q49 0 75 24.5t31 78.5l6 61h25
l-6 -61q-13 -125 -132 -125z" />
    <glyph glyph-name="Cdotaccent" unicode="&#x10a;" horiz-adv-x="330" 
d="M150 -5q-41 0 -68 13.5t-43 37t-21 54.5t-1 67l38 364q3 34 13 62t27.5 48t44 31t63.5 11q39 0 65 -11.5t40 -31.5t18.5 -48.5t0.5 -61.5l-8 -76h-26l8 77q3 28 0 52t-14 41.5t-31.5 27t-52.5 9.5q-61 0 -88 -35.5t-34 -92.5l-38 -371q-3 -30 0.5 -56.5t16.5 -46t35 -31
t56 -11.5q31 0 51.5 8.5t33 24t18.5 37.5t9 49l13 124h26l-13 -124q-4 -32 -12 -58t-24 -44.5t-41 -28.5t-62 -10zM198 750h26l-3 -31h-26z" />
    <glyph glyph-name="cdotaccent" unicode="&#x10b;" horiz-adv-x="304" 
d="M133 -5q-64 0 -95.5 39t-24.5 108l31 292q8 68 43 103t95 35q64 0 93 -35t21 -101l-4 -38h-25l4 39q5 55 -16.5 84t-73.5 29q-99 0 -111 -115l-32 -298q-6 -57 19.5 -88.5t76.5 -31.5q49 0 75 24.5t31 78.5l6 61h25l-6 -61q-13 -125 -132 -125zM182 678h26l-3 -31h-26z
" />
    <glyph glyph-name="Ccaron" unicode="&#x10c;" horiz-adv-x="330" 
d="M135 770l2 19l73 -65l88 65l-2 -19l-80 -68h-14zM150 -5q-41 0 -68 13.5t-43 37t-21 54.5t-1 67l38 364q3 34 13 62t27.5 48t44 31t63.5 11q39 0 65 -11.5t40 -31.5t18.5 -48.5t0.5 -61.5l-8 -76h-26l8 77q3 28 0 52t-14 41.5t-31.5 27t-52.5 9.5q-61 0 -88 -35.5
t-34 -92.5l-38 -371q-3 -30 0.5 -56.5t16.5 -46t35 -31t56 -11.5q31 0 51.5 8.5t33 24t18.5 37.5t9 49l13 124h26l-13 -124q-4 -32 -12 -58t-24 -44.5t-41 -28.5t-62 -10z" />
    <glyph glyph-name="ccaron" unicode="&#x10d;" horiz-adv-x="304" 
d="M114 665l2 19l73 -65l88 65l-2 -19l-80 -68h-14zM133 -5q-64 0 -95.5 39t-24.5 108l31 292q8 68 43 103t95 35q64 0 93 -35t21 -101l-4 -38h-25l4 39q5 55 -16.5 84t-73.5 29q-99 0 -111 -115l-32 -298q-6 -57 19.5 -88.5t76.5 -31.5q49 0 75 24.5t31 78.5l6 61h25
l-6 -61q-13 -125 -132 -125z" />
    <glyph glyph-name="Dcaron" unicode="&#x10e;" horiz-adv-x="337" 
d="M117 770l2 19l73 -65l88 65l-2 -19l-80 -68h-14zM129 22q68 0 100 36t37 92l38 362q3 30 -0.5 56t-16.5 45.5t-37 31t-61 11.5h-93l-67 -634h100zM73 678h120q44 0 72 -13.5t44 -36.5t20.5 -54t0.5 -67l-37 -356q-3 -32 -14 -60t-30.5 -48t-48.5 -31.5t-69 -11.5h-129z
" />
    <glyph glyph-name="dcaron" unicode="&#x10f;" horiz-adv-x="315" 
d="M352 678h22v-2l-18 -89h-17zM123 -5q-54 0 -85.5 33.5t-24.5 102.5l33 315q7 66 42 96t86 30q46 0 72 -21.5t34 -50.5h1l18 178h25l-70 -678h-25l7 71h-1q-12 -29 -38.5 -52.5t-73.5 -23.5zM129 16q45 0 76.5 32.5t37.5 93.5l31 294q6 55 -22.5 84.5t-71.5 29.5
q-47 0 -75.5 -26t-33.5 -80l-32 -314q-6 -55 18 -84.5t72 -29.5z" />
    <glyph glyph-name="Dcroat" unicode="&#x110;" horiz-adv-x="347" 
d="M16 356h33l34 322h121q43 0 71.5 -13.5t44 -36.5t20 -54t0.5 -67l-37 -356q-3 -32 -14 -60t-30.5 -48t-48.5 -31.5t-69 -11.5h-129l35 334h-33zM139 22q68 0 100 36t37 92l38 362q3 30 -0.5 56t-16.5 45.5t-36.5 31t-60.5 11.5h-93l-32 -300h131l-2 -22h-131l-33 -312h99
z" />
    <glyph glyph-name="dcroat" unicode="&#x111;" horiz-adv-x="315" 
d="M187 631h107l5 47h25l-5 -47h38l-2 -17h-38l-63 -614h-25l7 71h-1q-12 -29 -38.5 -52.5t-73.5 -23.5q-54 0 -85.5 33.5t-24.5 102.5l33 315q7 66 42 96t86 30q46 0 72 -21.5t34 -50.5h1l11 114h-107zM129 16q45 0 76.5 32.5t37.5 93.5l31 294q6 55 -22.5 84.5t-71.5 29.5
q-47 0 -75.5 -26t-33.5 -80l-32 -314q-6 -55 18 -84.5t72 -29.5z" />
    <glyph glyph-name="Emacron" unicode="&#x112;" horiz-adv-x="293" 
d="M73 678h233l-3 -22h-207l-31 -300h153l-3 -22h-152l-33 -312h210l-2 -22h-236zM121 739h145l-2 -19h-145z" />
    <glyph glyph-name="emacron" unicode="&#x113;" horiz-adv-x="316" 
d="M138 -5q-65 0 -98.5 39t-25.5 108l31 294q7 67 42.5 101.5t96.5 34.5q63 0 94 -37.5t23 -106.5l-14 -134h-232l-16 -154q-7 -60 20 -91.5t80 -31.5q50 0 75 27.5t31 86.5l5 50h25l-5 -51q-8 -70 -39.5 -102.5t-92.5 -32.5zM264 315l12 114q6 59 -18 90t-75 31
q-101 0 -113 -114l-13 -121h207zM118 634h145l-2 -19h-145z" />
    <glyph glyph-name="Ebreve" unicode="&#x114;" horiz-adv-x="293" 
d="M73 678h233l-3 -22h-207l-31 -300h153l-3 -22h-152l-33 -312h210l-2 -22h-236zM195 702q-34 0 -55 21t-19 56h19q-1 -27 14 -42t41 -15q25 0 41 14.5t20 42.5h19q-4 -38 -26 -57.5t-54 -19.5z" />
    <glyph glyph-name="ebreve" unicode="&#x115;" horiz-adv-x="316" 
d="M138 -5q-65 0 -98.5 39t-25.5 108l31 294q7 67 42.5 101.5t96.5 34.5q63 0 94 -37.5t23 -106.5l-14 -134h-232l-16 -154q-7 -60 20 -91.5t80 -31.5q50 0 75 27.5t31 86.5l5 50h25l-5 -51q-8 -70 -39.5 -102.5t-92.5 -32.5zM264 315l12 114q6 59 -18 90t-75 31
q-101 0 -113 -114l-13 -121h207zM191 597q-34 0 -55 21t-19 56h19q-1 -27 14 -42t41 -15q25 0 41 14.5t20 42.5h19q-4 -38 -26 -57.5t-54 -19.5z" />
    <glyph glyph-name="Edotaccent" unicode="&#x116;" horiz-adv-x="293" 
d="M73 678h233l-3 -22h-207l-31 -300h153l-3 -22h-152l-33 -312h210l-2 -22h-236zM182 750h26l-3 -31h-26z" />
    <glyph glyph-name="edotaccent" unicode="&#x117;" horiz-adv-x="316" 
d="M138 -5q-65 0 -98.5 39t-25.5 108l31 294q7 67 42.5 101.5t96.5 34.5q63 0 94 -37.5t23 -106.5l-14 -134h-232l-16 -154q-7 -60 20 -91.5t80 -31.5q50 0 75 27.5t31 86.5l5 50h25l-5 -51q-8 -70 -39.5 -102.5t-92.5 -32.5zM264 315l12 114q6 59 -18 90t-75 31
q-101 0 -113 -114l-13 -121h207zM182 678h26l-3 -31h-26z" />
    <glyph glyph-name="Eogonek" unicode="&#x118;" horiz-adv-x="293" 
d="M2 0l71 678h233l-3 -22h-207l-31 -300h153l-3 -22h-152l-33 -312h210l-2 -22h-24q-12 -9 -25 -21.5t-13 -27.5q0 -8 5.5 -14t21.5 -6h10l-3 -21h-10q-26 0 -37.5 10.5t-11.5 26.5q0 19 11.5 31.5t25.5 21.5h-186z" />
    <glyph glyph-name="eogonek" unicode="&#x119;" horiz-adv-x="316" 
d="M127 -53q0 16 8.5 27t23.5 22q-7 -1 -12 -1h-9q-65 0 -98.5 39t-25.5 108l31 294q7 67 42.5 101.5t96.5 34.5q63 0 94 -37.5t23 -106.5l-14 -134h-232l-16 -154q-7 -60 20 -91.5t80 -31.5q50 0 75 27.5t31 86.5l5 50h25l-5 -51q-9 -84 -55 -115q-8 -6 -19 -12.5
t-21 -14.5t-16.5 -17.5t-6.5 -19.5q0 -8 5.5 -14t21.5 -6h10l-3 -21h-10q-26 0 -37.5 10.5t-11.5 26.5zM264 315l12 114q6 59 -18 90t-75 31q-101 0 -113 -114l-13 -121h207z" />
    <glyph glyph-name="Ecaron" unicode="&#x11a;" horiz-adv-x="293" 
d="M116 770l2 19l73 -65l88 65l-2 -19l-80 -68h-14zM73 678h233l-3 -22h-207l-31 -300h153l-3 -22h-152l-33 -312h210l-2 -22h-236z" />
    <glyph glyph-name="ecaron" unicode="&#x11b;" horiz-adv-x="316" 
d="M111 665l2 19l73 -65l88 65l-2 -19l-80 -68h-14zM138 -5q-65 0 -98.5 39t-25.5 108l31 294q7 67 42.5 101.5t96.5 34.5q63 0 94 -37.5t23 -106.5l-14 -134h-232l-16 -154q-7 -60 20 -91.5t80 -31.5q50 0 75 27.5t31 86.5l5 50h25l-5 -51q-8 -70 -39.5 -102.5t-92.5 -32.5
zM264 315l12 114q6 59 -18 90t-75 31q-101 0 -113 -114l-13 -121h207z" />
    <glyph glyph-name="Gcircumflex" unicode="&#x11c;" horiz-adv-x="338" 
d="M132 719l79 68h14l67 -69l-2 -18l-73 65l-87 -65zM142 -5q-38 0 -63.5 14t-40.5 37.5t-20 54.5t-1 66l38 364q3 32 12.5 59.5t27.5 48t45 32.5t64 12q41 0 67 -11.5t39.5 -31.5t16.5 -48.5t0 -62.5l-6 -55h-25l7 58q3 28 0.5 52t-13.5 41t-32 26.5t-55 9.5q-30 0 -52 -10
t-36.5 -27.5t-22.5 -41t-11 -49.5l-38 -371q-3 -29 0.5 -55t16 -46t34 -32t53.5 -12q30 0 51.5 9.5t35.5 26.5t21 40.5t10 50.5l17 165h-99l2 22h124l-34 -331h-24l8 69q-13 -31 -39.5 -52.5t-77.5 -21.5z" />
    <glyph glyph-name="gcircumflex" unicode="&#x11d;" horiz-adv-x="316" 
d="M104 614l79 68h14l67 -69l-2 -18l-73 65l-87 -65zM139 106q45 0 76 32.5t38 93.5l21 204q6 55 -22.5 84.5t-71.5 29.5q-46 0 -75 -26t-34 -80l-23 -225q-6 -54 18 -83.5t73 -29.5zM127 -95q-63 0 -95.5 32.5t-26.5 92.5l2 19h25l-2 -19q-5 -52 20.5 -77.5t76.5 -25.5
q48 0 73.5 25t30.5 68l15 141h-1q-13 -30 -40 -53t-74 -23q-53 0 -84.5 33.5t-24.5 101.5l24 226q7 66 42 96t86 30q46 0 72 -21.5t34 -50.5h1l7 67h25l-57 -547q-5 -54 -37.5 -84.5t-91.5 -30.5z" />
    <glyph glyph-name="Gbreve" unicode="&#x11e;" horiz-adv-x="338" 
d="M142 -5q-38 0 -63.5 14t-40.5 37.5t-20 54.5t-1 66l38 364q3 32 12.5 59.5t27.5 48t45 32.5t64 12q41 0 67 -11.5t39.5 -31.5t16.5 -48.5t0 -62.5l-6 -55h-25l7 58q3 28 0.5 52t-13.5 41t-32 26.5t-55 9.5q-30 0 -52 -10t-36.5 -27.5t-22.5 -41t-11 -49.5l-38 -371
q-3 -29 0.5 -55t16 -46t34 -32t53.5 -12q30 0 51.5 9.5t35.5 26.5t21 40.5t10 50.5l17 165h-99l2 22h124l-34 -331h-24l8 69q-13 -31 -39.5 -52.5t-77.5 -21.5zM214 702q-34 0 -55 21t-19 56h19q-1 -27 14 -42t41 -15q25 0 41 14.5t20 42.5h19q-4 -38 -26 -57.5t-54 -19.5z
" />
    <glyph glyph-name="gbreve" unicode="&#x11f;" horiz-adv-x="316" 
d="M139 106q45 0 76 32.5t38 93.5l21 204q6 55 -22.5 84.5t-71.5 29.5q-46 0 -75 -26t-34 -80l-23 -225q-6 -54 18 -83.5t73 -29.5zM127 -95q-63 0 -95.5 32.5t-26.5 92.5l2 19h25l-2 -19q-5 -52 20.5 -77.5t76.5 -25.5q48 0 73.5 25t30.5 68l15 141h-1q-13 -30 -40 -53
t-74 -23q-53 0 -84.5 33.5t-24.5 101.5l24 226q7 66 42 96t86 30q46 0 72 -21.5t34 -50.5h1l7 67h25l-57 -547q-5 -54 -37.5 -84.5t-91.5 -30.5zM187 597q-34 0 -55 21t-19 56h19q-1 -27 14 -42t41 -15q25 0 41 14.5t20 42.5h19q-4 -38 -26 -57.5t-54 -19.5z" />
    <glyph glyph-name="Gdotaccent" unicode="&#x120;" horiz-adv-x="338" 
d="M142 -5q-38 0 -63.5 14t-40.5 37.5t-20 54.5t-1 66l38 364q3 32 12.5 59.5t27.5 48t45 32.5t64 12q41 0 67 -11.5t39.5 -31.5t16.5 -48.5t0 -62.5l-6 -55h-25l7 58q3 28 0.5 52t-13.5 41t-32 26.5t-55 9.5q-30 0 -52 -10t-36.5 -27.5t-22.5 -41t-11 -49.5l-38 -371
q-3 -29 0.5 -55t16 -46t34 -32t53.5 -12q30 0 51.5 9.5t35.5 26.5t21 40.5t10 50.5l17 165h-99l2 22h124l-34 -331h-24l8 69q-13 -31 -39.5 -52.5t-77.5 -21.5zM202 750h26l-3 -31h-26z" />
    <glyph glyph-name="gdotaccent" unicode="&#x121;" horiz-adv-x="316" 
d="M139 106q45 0 76 32.5t38 93.5l21 204q6 55 -22.5 84.5t-71.5 29.5q-46 0 -75 -26t-34 -80l-23 -225q-6 -54 18 -83.5t73 -29.5zM127 -95q-63 0 -95.5 32.5t-26.5 92.5l2 19h25l-2 -19q-5 -52 20.5 -77.5t76.5 -25.5q48 0 73.5 25t30.5 68l15 141h-1q-13 -30 -40 -53
t-74 -23q-53 0 -84.5 33.5t-24.5 101.5l24 226q7 66 42 96t86 30q46 0 72 -21.5t34 -50.5h1l7 67h25l-57 -547q-5 -54 -37.5 -84.5t-91.5 -30.5zM178 678h26l-3 -31h-26z" />
    <glyph glyph-name="Gcommaaccent" unicode="&#x122;" horiz-adv-x="338" 
d="M120 -18h25v-2l-22 -70h-19zM142 -5q-38 0 -63.5 14t-40.5 37.5t-20 54.5t-1 66l38 364q3 32 12.5 59.5t27.5 48t45 32.5t64 12q41 0 67 -11.5t39.5 -31.5t16.5 -48.5t0 -62.5l-6 -55h-25l7 58q3 28 0.5 52t-13.5 41t-32 26.5t-55 9.5q-30 0 -52 -10t-36.5 -27.5
t-22.5 -41t-11 -49.5l-38 -371q-3 -29 0.5 -55t16 -46t34 -32t53.5 -12q30 0 51.5 9.5t35.5 26.5t21 40.5t10 50.5l17 165h-99l2 22h124l-34 -331h-24l8 69q-13 -31 -39.5 -52.5t-77.5 -21.5z" />
    <glyph glyph-name="gcommaaccent" unicode="&#x123;" horiz-adv-x="316" 
d="M174 605l21 70h20l-17 -72h-24v2zM139 106q45 0 76 32.5t38 93.5l21 204q6 55 -22.5 84.5t-71.5 29.5q-46 0 -75 -26t-34 -80l-23 -225q-6 -54 18 -83.5t73 -29.5zM127 -95q-63 0 -95.5 32.5t-26.5 92.5l2 19h25l-2 -19q-5 -52 20.5 -77.5t76.5 -25.5q48 0 73.5 25
t30.5 68l15 141h-1q-13 -30 -40 -53t-74 -23q-53 0 -84.5 33.5t-24.5 101.5l24 226q7 66 42 96t86 30q46 0 72 -21.5t34 -50.5h1l7 67h25l-57 -547q-5 -54 -37.5 -84.5t-91.5 -30.5z" />
    <glyph glyph-name="Hcircumflex" unicode="&#x124;" horiz-adv-x="331" 
d="M131 719l79 68h14l67 -69l-2 -18l-73 65l-87 -65zM278 334h-215l-35 -334h-26l71 678h26l-34 -322h215l34 322h27l-71 -678h-27z" />
    <glyph glyph-name="hcircumflex" unicode="&#x125;" horiz-adv-x="308" 
d="M122 719l79 68h14l67 -69l-2 -18l-73 65l-87 -65zM73 678h25l-19 -181h1q6 13 16 26.5t24 24.5t32.5 17.5t41.5 6.5q52 0 80.5 -35.5t20.5 -106.5l-45 -430h-25l45 431q6 58 -15.5 88.5t-68.5 30.5q-48 0 -78.5 -35t-36.5 -90l-44 -425h-25z" />
    <glyph glyph-name="Hbar" unicode="&#x126;" horiz-adv-x="331" 
d="M20 503h34l19 175h26l-19 -175h215l19 175h27l-19 -175h35l-2 -20h-35l-50 -483h-27l35 334h-215l-35 -334h-26l50 483h-34zM65 356h215l13 127h-215z" />
    <glyph glyph-name="hbar" unicode="&#x127;" horiz-adv-x="308" 
d="M32 631h36l5 47h25l-5 -47h110l-3 -17h-109l-12 -117h1q6 13 16 26.5t24 24.5t32.5 17.5t41.5 6.5q52 0 80.5 -35.5t20.5 -106.5l-45 -430h-25l45 431q6 58 -15.5 88.5t-68.5 30.5q-48 0 -78.5 -35t-36.5 -90l-44 -425h-25l64 614h-36z" />
    <glyph glyph-name="Itilde" unicode="&#x128;" 
d="M73 678h26l-71 -678h-26zM8 722q2 22 14 37t35 15q11 0 20.5 -4.5t18.5 -10t18 -10t18 -4.5q14 0 20.5 10t8.5 23h18q-2 -23 -14 -37.5t-35 -14.5q-11 0 -20.5 4.5t-18.5 9.5t-18 9.5t-18 4.5q-14 0 -21 -9.5t-9 -22.5h-17z" />
    <glyph glyph-name="itilde" unicode="&#x129;" 
d="M8 612q3 26 14 39t27 13q9 0 18 -4.5t17 -10t15 -10t14 -4.5q20 0 23 33h17q-5 -52 -40 -52q-9 0 -18 4.5t-17 10t-15 10t-14 4.5q-10 0 -16 -9t-8 -24h-17zM61 567h25l-59 -567h-25z" />
    <glyph glyph-name="Imacron" unicode="&#x12a;" 
d="M73 678h26l-71 -678h-26zM20 739h145l-2 -19h-145z" />
    <glyph glyph-name="imacron" unicode="&#x12b;" 
d="M32 634h97l-2 -19h-97zM61 567h25l-59 -567h-25z" />
    <glyph glyph-name="Ibreve" unicode="&#x12c;" 
d="M73 678h26l-71 -678h-26zM94 707q-34 0 -55 21t-19 56h19q-1 -27 14 -42t41 -15q25 0 41 14.5t20 42.5h19q-4 -38 -26 -57.5t-54 -19.5z" />
    <glyph glyph-name="ibreve" unicode="&#x12d;" 
d="M81 597q-27 0 -43 20t-13 57h19q-3 -29 7.5 -43.5t30.5 -14.5q18 0 29.5 13t14.5 45h18q-3 -39 -20 -58t-43 -19zM61 567h25l-59 -567h-25z" />
    <glyph glyph-name="Iogonek" unicode="&#x12e;" 
d="M28 0q-12 -9 -25 -21.5t-13 -27.5q0 -8 5.5 -14t21.5 -6h10l-3 -21h-10q-26 0 -37.5 10.5t-11.5 26.5q0 19 11.5 31.5t25.5 21.5l71 678h26z" />
    <glyph glyph-name="iogonek" unicode="&#x12f;" 
d="M73 678h25l-3 -31h-26zM61 567h25l-59 -567q-12 -9 -25 -21.5t-13 -27.5q0 -8 5.5 -14t21.5 -6h10l-3 -21h-10q-26 0 -37.5 10.5t-11.5 26.5q0 19 12 31.5t26 21.5z" />
    <glyph glyph-name="Idotaccent" unicode="&#x130;" 
d="M73 678h26l-71 -678h-26zM81 750h26l-3 -31h-26z" />
    <glyph glyph-name="dotlessi" unicode="&#x131;" 
d="M61 567h25l-59 -567h-25z" />
    <glyph glyph-name="IJ" unicode="&#x132;" horiz-adv-x="377" 
d="M73 678h26l-71 -678h-26zM204 -5q-65 0 -90 37t-19 97l14 131h25l-14 -132q-5 -51 15 -81t69 -30q47 0 70.5 24t28.5 70l59 567h26l-59 -566q-7 -58 -36.5 -87.5t-88.5 -29.5z" />
    <glyph glyph-name="ij" unicode="&#x133;" 
d="M61 567h25l-59 -567h-25zM73 678h25l-3 -31h-26zM37 -69h11q21 0 28.5 9t9.5 30l63 597h25l-62 -598q-4 -32 -17 -45.5t-45 -13.5h-15zM161 678h25l-3 -31h-26z" />
    <glyph glyph-name="Jcircumflex" unicode="&#x134;" horiz-adv-x="289" 
d="M212 719l79 68h14l67 -69l-2 -18l-73 65l-87 -65zM117 -5q-65 0 -90 37t-19 97l14 131h25l-14 -132q-5 -51 15 -81t69 -30q47 0 70.5 24t28.5 70l59 567h26l-59 -566q-7 -58 -36.5 -87.5t-88.5 -29.5z" />
    <glyph glyph-name="jcircumflex" unicode="&#x135;" 
d="M21 615l58 67h14l42 -67l-2 -20l-48 65l-66 -65zM-51 -69h11q21 0 28.5 9t9.5 30l63 597h25l-62 -598q-4 -32 -17 -45.5t-45 -13.5h-15z" />
    <glyph glyph-name="Kcommaaccent" unicode="&#x136;" horiz-adv-x="305" 
d="M112 -18h25v-2l-22 -70h-19zM64 343l-36 -343h-26l71 678h26l-34 -325l245 325h29l-249 -331l179 -347h-28z" />
    <glyph glyph-name="kcommaaccent" unicode="&#x137;" horiz-adv-x="270" 
d="M95 -18h25v-2l-22 -70h-19zM58 297l-31 -297h-25l71 678h25l-40 -376l202 265h27l-203 -269l150 -298h-27z" />
    <glyph glyph-name="Lacute" unicode="&#x139;" horiz-adv-x="256" 
d="M41 717l152 61l-3 -22l-151 -58zM73 678h26l-69 -656h182l-2 -22h-208z" />
    <glyph glyph-name="lacute" unicode="&#x13a;" 
d="M38 717l152 61l-3 -22l-151 -58zM73 678h25l-71 -678h-25z" />
    <glyph glyph-name="Lcommaaccent" unicode="&#x13b;" horiz-adv-x="258" 
d="M91 -18h25v-2l-22 -70h-19zM73 678h26l-69 -656h182l-2 -22h-208z" />
    <glyph glyph-name="lcommaaccent" unicode="&#x13c;" 
d="M-1 -18h25v-2l-22 -70h-19zM73 678h25l-71 -678h-25z" />
    <glyph glyph-name="Lcaron" unicode="&#x13d;" horiz-adv-x="256" 
d="M73 678h26l-69 -656h182l-2 -22h-208zM178 678h23v-2l-19 -97h-19z" />
    <glyph glyph-name="lcaron" unicode="&#x13e;" 
d="M125 678h22v-2l-18 -89h-17zM73 678h25l-71 -678h-25z" />
    <glyph glyph-name="Ldot" unicode="&#x13f;" horiz-adv-x="258" 
d="M73 678h26l-69 -656h182l-2 -22h-208zM170 355h26l-3 -35h-27z" />
    <glyph glyph-name="ldot" unicode="&#x140;" horiz-adv-x="128" 
d="M73 678h25l-71 -678h-25zM102 359h26l-3 -35h-27z" />
    <glyph glyph-name="Lslash" unicode="&#x141;" horiz-adv-x="269" 
d="M4 277l39 19l40 382h26l-39 -369l139 67l-2 -24l-139 -67l-28 -263h183l-2 -22h-209l28 271l-38 -18z" />
    <glyph glyph-name="lslash" unicode="&#x142;" horiz-adv-x="96" 
d="M10 356l36 31l31 291h25l-28 -267l41 35l-3 -26l-41 -35l-40 -385h-25l38 361l-37 -31z" />
    <glyph glyph-name="Nacute" unicode="&#x143;" horiz-adv-x="326" 
d="M152 717l152 61l-3 -22l-151 -58zM73 678h32l142 -613l64 613h24l-71 -678h-27l-146 630l-66 -630h-23z" />
    <glyph glyph-name="nacute" unicode="&#x144;" horiz-adv-x="308" 
d="M121 612l152 61l-3 -22l-151 -58zM61 567h25l-7 -70h1q6 13 16 26.5t24 24.5t32.5 17.5t41.5 6.5q52 0 80.5 -35.5t20.5 -106.5l-45 -430h-25l45 431q6 58 -15.5 88.5t-68.5 30.5q-48 0 -78.5 -35t-36.5 -90l-44 -425h-25z" />
    <glyph glyph-name="Ncommaaccent" unicode="&#x145;" horiz-adv-x="326" 
d="M117 -18h25v-2l-22 -70h-19zM73 678h32l142 -613l64 613h24l-71 -678h-27l-146 630l-66 -630h-23z" />
    <glyph glyph-name="ncommaaccent" unicode="&#x146;" horiz-adv-x="308" 
d="M115 -18h25v-2l-22 -70h-19zM61 567h25l-7 -70h1q6 13 16 26.5t24 24.5t32.5 17.5t41.5 6.5q52 0 80.5 -35.5t20.5 -106.5l-45 -430h-25l45 431q6 58 -15.5 88.5t-68.5 30.5q-48 0 -78.5 -35t-36.5 -90l-44 -425h-25z" />
    <glyph glyph-name="Ncaron" unicode="&#x147;" horiz-adv-x="326" 
d="M134 770l2 19l73 -65l88 65l-2 -19l-80 -68h-14zM73 678h32l142 -613l64 613h24l-71 -678h-27l-146 630l-66 -630h-23z" />
    <glyph glyph-name="ncaron" unicode="&#x148;" horiz-adv-x="308" 
d="M111 665l2 19l73 -65l88 65l-2 -19l-80 -68h-14zM61 567h25l-7 -70h1q6 13 16 26.5t24 24.5t32.5 17.5t41.5 6.5q52 0 80.5 -35.5t20.5 -106.5l-45 -430h-25l45 431q6 58 -15.5 88.5t-68.5 30.5q-48 0 -78.5 -35t-36.5 -90l-44 -425h-25z" />
    <glyph glyph-name="Eng" unicode="&#x14a;" horiz-adv-x="326" 
d="M163 -69h18q29 0 41 10.5t14 29.5l2 26l-147 633l-66 -630h-23l71 678h32l142 -613l64 613h24l-74 -709q-3 -29 -21 -44t-58 -15h-21z" />
    <glyph glyph-name="eng" unicode="&#x14b;" horiz-adv-x="308" 
d="M172 -69h11q21 0 28.5 9t9.5 30l49 461q6 58 -15.5 88.5t-68.5 30.5q-48 0 -78.5 -35t-36.5 -90l-44 -425h-25l59 567h25l-7 -70h1q6 13 16 26.5t24 24.5t32.5 17.5t41.5 6.5q52 0 80.5 -35.5t20.5 -106.5l-48 -461q-4 -32 -17 -45.5t-45 -13.5h-15z" />
    <glyph glyph-name="Omacron" unicode="&#x14c;" horiz-adv-x="349" 
d="M147 739h145l-2 -19h-145zM153 17q31 0 53.5 10.5t37.5 28t23 40.5t11 49l39 371q3 30 -1 56.5t-17.5 46t-36 31t-55.5 11.5q-30 0 -52.5 -10t-38 -27.5t-24 -41t-11.5 -49.5l-38 -371q-3 -30 1 -56t17.5 -46t36 -31.5t55.5 -11.5zM153 -5q-40 0 -67.5 13.5t-44 37
t-22.5 55t-2 66.5l38 364q3 31 13.5 59t29 48.5t46 32.5t64.5 12q40 0 67.5 -13.5t44 -37t22 -54.5t1.5 -67l-38 -364q-3 -31 -13 -58.5t-28.5 -48.5t-46 -33t-64.5 -12z" />
    <glyph glyph-name="omacron" unicode="&#x14d;" horiz-adv-x="318" 
d="M123 634h145l-2 -19h-145zM135 -5q-64 0 -96.5 39t-24.5 108l31 292q7 68 42 103t95 35q64 0 96 -39t25 -108l-31 -293q-7 -68 -42 -102.5t-95 -34.5zM135 17q99 0 111 114l32 298q6 57 -19.5 89t-76.5 32q-100 0 -112 -115l-31 -298q-7 -57 19 -88.5t77 -31.5z" />
    <glyph glyph-name="Obreve" unicode="&#x14e;" horiz-adv-x="349" 
d="M153 17q31 0 53.5 10.5t37.5 28t23 40.5t11 49l39 371q3 30 -1 56.5t-17.5 46t-36 31t-55.5 11.5q-30 0 -52.5 -10t-38 -27.5t-24 -41t-11.5 -49.5l-38 -371q-3 -30 1 -56t17.5 -46t36 -31.5t55.5 -11.5zM153 -5q-40 0 -67.5 13.5t-44 37t-22.5 55t-2 66.5l38 364
q3 31 13.5 59t29 48.5t46 32.5t64.5 12q40 0 67.5 -13.5t44 -37t22 -54.5t1.5 -67l-38 -364q-3 -31 -13 -58.5t-28.5 -48.5t-46 -33t-64.5 -12zM224 707q-34 0 -55 21t-19 56h19q-1 -27 14 -42t41 -15q25 0 41 14.5t20 42.5h19q-4 -38 -26 -57.5t-54 -19.5z" />
    <glyph glyph-name="obreve" unicode="&#x14f;" horiz-adv-x="318" 
d="M135 -5q-64 0 -96.5 39t-24.5 108l31 292q7 68 42 103t95 35q64 0 96 -39t25 -108l-31 -293q-7 -68 -42 -102.5t-95 -34.5zM135 17q99 0 111 114l32 298q6 57 -19.5 89t-76.5 32q-100 0 -112 -115l-31 -298q-7 -57 19 -88.5t77 -31.5zM197 597q-34 0 -55 21t-19 56h19
q-1 -27 14 -42t41 -15q25 0 41 14.5t20 42.5h19q-4 -38 -26 -57.5t-54 -19.5z" />
    <glyph glyph-name="Ohungarumlaut" unicode="&#x150;" horiz-adv-x="349" 
d="M216 787h24l-47 -87h-20zM284 787h24l-47 -87h-20zM153 17q31 0 53.5 10.5t37.5 28t23 40.5t11 49l39 371q3 30 -1 56.5t-17.5 46t-36 31t-55.5 11.5q-30 0 -52.5 -10t-38 -27.5t-24 -41t-11.5 -49.5l-38 -371q-3 -30 1 -56t17.5 -46t36 -31.5t55.5 -11.5zM153 -5
q-40 0 -67.5 13.5t-44 37t-22.5 55t-2 66.5l38 364q3 31 13.5 59t29 48.5t46 32.5t64.5 12q40 0 67.5 -13.5t44 -37t22 -54.5t1.5 -67l-38 -364q-3 -31 -13 -58.5t-28.5 -48.5t-46 -33t-64.5 -12z" />
    <glyph glyph-name="ohungarumlaut" unicode="&#x151;" horiz-adv-x="318" 
d="M191 682h24l-47 -87h-20zM259 682h24l-47 -87h-20zM135 -5q-64 0 -96.5 39t-24.5 108l31 292q7 68 42 103t95 35q64 0 96 -39t25 -108l-31 -293q-7 -68 -42 -102.5t-95 -34.5zM135 17q99 0 111 114l32 298q6 57 -19.5 89t-76.5 32q-100 0 -112 -115l-31 -298
q-7 -57 19 -88.5t77 -31.5z" />
    <glyph glyph-name="OE" unicode="&#x152;" horiz-adv-x="555" 
d="M150 -5q-39 0 -66 13.5t-43 37t-22 55t-2 66.5l38 364q3 32 14 59.5t29.5 48t46 32.5t63.5 12q55 0 82 -25.5t37 -62.5l8 83h232l-2 -22h-206l-31 -300h152l-3 -22h-152l-32 -312h209l-2 -22h-236l8 73q-14 -32 -41.5 -55t-80.5 -23zM154 17q61 0 90 37t35 93l39 369
q7 64 -19.5 104.5t-89.5 40.5q-31 0 -53.5 -10t-38.5 -27.5t-24.5 -41t-11.5 -49.5l-39 -371q-3 -30 2 -56t18.5 -46t36 -31.5t55.5 -11.5z" />
    <glyph glyph-name="oe" unicode="&#x153;" horiz-adv-x="550" 
d="M134 -5q-63 0 -95.5 39t-24.5 108l31 292q7 68 42 103t94 35q47 0 75.5 -21.5t38.5 -61.5q31 83 123 83q63 0 94 -37.5t23 -106.5l-14 -134h-232l-16 -154q-7 -60 19.5 -91.5t79.5 -31.5q51 0 76 27.5t31 86.5l5 50h25l-5 -51q-8 -70 -39.5 -102.5t-92.5 -32.5
q-47 0 -76.5 21.5t-39.5 61.5q-30 -83 -122 -83zM135 17q99 0 111 114l32 298q6 57 -19.5 89t-76.5 32q-100 0 -112 -115l-31 -298q-7 -57 19 -88.5t77 -31.5zM498 315l12 114q6 59 -18 90t-75 31q-99 0 -113 -114l-13 -121h207z" />
    <glyph glyph-name="Racute" unicode="&#x154;" horiz-adv-x="303" 
d="M130 717l152 61l-3 -22l-151 -58zM64 342l-36 -342h-26l71 678h115q128 0 114 -121l-11 -114q-6 -55 -37 -82.5t-94 -27.5h-63l172 -333h-28zM158 355q52 0 76.5 21.5t29.5 66.5l12 115q5 50 -16 74t-74 24h-90l-31 -301h93z" />
    <glyph glyph-name="racute" unicode="&#x155;" horiz-adv-x="182" 
d="M73 612l152 61l-3 -22l-151 -58zM61 567h25l-7 -73h1q12 30 41 52.5t72 22.5l-3 -26h-4q-42 0 -75 -28.5t-39 -83.5l-45 -431h-25z" />
    <glyph glyph-name="Rcommaaccent" unicode="&#x156;" horiz-adv-x="303" 
d="M117 -18h25v-2l-22 -70h-19zM64 342l-36 -342h-26l71 678h115q128 0 114 -121l-11 -114q-6 -55 -37 -82.5t-94 -27.5h-63l172 -333h-28zM158 355q52 0 76.5 21.5t29.5 66.5l12 115q5 50 -16 74t-74 24h-90l-31 -301h93z" />
    <glyph glyph-name="rcommaaccent" unicode="&#x157;" horiz-adv-x="182" 
d="M0 -18h25v-2l-22 -70h-19zM61 567h25l-7 -73h1q12 30 41 52.5t72 22.5l-3 -26h-4q-42 0 -75 -28.5t-39 -83.5l-45 -431h-25z" />
    <glyph glyph-name="Rcaron" unicode="&#x158;" horiz-adv-x="303" 
d="M112 770l2 19l73 -65l88 65l-2 -19l-80 -68h-14zM64 342l-36 -342h-26l71 678h115q128 0 114 -121l-11 -114q-6 -55 -37 -82.5t-94 -27.5h-63l172 -333h-28zM158 355q52 0 76.5 21.5t29.5 66.5l12 115q5 50 -16 74t-74 24h-90l-31 -301h93z" />
    <glyph glyph-name="rcaron" unicode="&#x159;" horiz-adv-x="182" 
d="M55 665l2 19l73 -65l88 65l-2 -19l-80 -68h-14zM61 567h25l-7 -73h1q12 30 41 52.5t72 22.5l-3 -26h-4q-42 0 -75 -28.5t-39 -83.5l-45 -431h-25z" />
    <glyph glyph-name="Sacute" unicode="&#x15a;" horiz-adv-x="317" 
d="M138 717l152 61l-3 -22l-151 -58zM138 -5q-69 0 -103 39t-27 101l10 102h26l-11 -103q-5 -51 21.5 -84t84.5 -33q54 0 79.5 28t30.5 72l4 36q5 44 -10.5 78.5t-53.5 77.5l-60 68q-21 24 -36 44t-24.5 39.5t-13 40t-0.5 44.5l3 27q6 56 41 83.5t90 27.5q65 0 97 -34.5
t26 -95.5l-9 -76h-25l8 78q5 52 -21 79t-76 27q-45 0 -73 -21.5t-33 -68.5l-3 -26q-2 -21 1 -39.5t11.5 -36t22.5 -35t32 -38.5l60 -67q20 -23 35 -43.5t24 -41.5t12.5 -43.5t0.5 -49.5l-4 -35q-5 -54 -38 -87.5t-99 -33.5z" />
    <glyph glyph-name="sacute" unicode="&#x15b;" horiz-adv-x="290" 
d="M111 612l152 61l-3 -22l-151 -58zM122 -5q-66 0 -96 35t-23 94l6 54h24l-6 -55q-5 -49 18 -77.5t77 -28.5q53 0 75 26t27 73l2 18q4 37 -7.5 64.5t-50.5 61.5l-63 53q-38 33 -54 64.5t-11 73.5l2 18q5 47 35 75t87 28q60 0 89 -30t23 -92l-5 -48h-25l5 48q5 52 -17 76
t-70 24q-47 0 -70 -22.5t-28 -60.5l-2 -18q-4 -33 8.5 -59.5t50.5 -58.5l62 -53q22 -18 35.5 -35.5t21 -34.5t9.5 -35.5t0 -39.5l-2 -18q-7 -57 -34.5 -88.5t-92.5 -31.5z" />
    <glyph glyph-name="Scircumflex" unicode="&#x15c;" horiz-adv-x="317" 
d="M115 719l79 68h14l67 -69l-2 -18l-73 65l-87 -65zM138 -5q-69 0 -103 39t-27 101l10 102h26l-11 -103q-5 -51 21.5 -84t84.5 -33q54 0 79.5 28t30.5 72l4 36q5 44 -10.5 78.5t-53.5 77.5l-60 68q-21 24 -36 44t-24.5 39.5t-13 40t-0.5 44.5l3 27q6 56 41 83.5t90 27.5
q65 0 97 -34.5t26 -95.5l-9 -76h-25l8 78q5 52 -21 79t-76 27q-45 0 -73 -21.5t-33 -68.5l-3 -26q-2 -21 1 -39.5t11.5 -36t22.5 -35t32 -38.5l60 -67q20 -23 35 -43.5t24 -41.5t12.5 -43.5t0.5 -49.5l-4 -35q-5 -54 -38 -87.5t-99 -33.5z" />
    <glyph glyph-name="scircumflex" unicode="&#x15d;" horiz-adv-x="290" 
d="M95 614l79 68h14l67 -69l-2 -18l-73 65l-87 -65zM122 -5q-66 0 -96 35t-23 94l6 54h24l-6 -55q-5 -49 18 -77.5t77 -28.5q53 0 75 26t27 73l2 18q4 37 -7.5 64.5t-50.5 61.5l-63 53q-38 33 -54 64.5t-11 73.5l2 18q5 47 35 75t87 28q60 0 89 -30t23 -92l-5 -48h-25l5 48
q5 52 -17 76t-70 24q-47 0 -70 -22.5t-28 -60.5l-2 -18q-4 -33 8.5 -59.5t50.5 -58.5l62 -53q22 -18 35.5 -35.5t21 -34.5t9.5 -35.5t0 -39.5l-2 -18q-7 -57 -34.5 -88.5t-92.5 -31.5z" />
    <glyph glyph-name="Scedilla" unicode="&#x15e;" horiz-adv-x="317" 
d="M86 -76q22 0 41.5 3.5t19.5 17.5q0 16 -32 16h-10l5 36q-54 8 -81 45t-21 93l10 102h26l-11 -103q-5 -51 21.5 -84t84.5 -33q54 0 79.5 28t30.5 72l4 36q5 44 -10.5 78.5t-53.5 77.5l-60 68q-21 24 -36 44t-24.5 39.5t-13 40t-0.5 44.5l3 27q6 56 41 83.5t90 27.5
q65 0 97 -34.5t26 -95.5l-9 -76h-25l8 78q5 52 -21 79t-76 27q-45 0 -73 -21.5t-33 -68.5l-3 -26q-2 -21 1 -39.5t11.5 -36t22.5 -35t32 -38.5l60 -67q20 -23 35 -43.5t24 -41.5t12.5 -43.5t0.5 -49.5l-4 -35q-5 -54 -38 -87.5t-99 -33.5h-12l-2 -17q23 0 35 -9t12 -23
q0 -23 -25.5 -30.5t-61.5 -7.5z" />
    <glyph glyph-name="scedilla" unicode="&#x15f;" horiz-adv-x="290" 
d="M76 -76q22 0 41.5 3.5t19.5 17.5q0 16 -32 16h-10l4 35q-54 6 -78 40t-18 88l6 54h24l-6 -55q-5 -49 18 -77.5t77 -28.5q53 0 75 26t27 73l2 18q4 37 -7.5 64.5t-50.5 61.5l-63 53q-38 33 -54 64.5t-11 73.5l2 18q5 47 35 75t87 28q60 0 89 -30t23 -92l-5 -48h-25l5 48
q5 52 -17 76t-70 24q-47 0 -70 -22.5t-28 -60.5l-2 -18q-4 -33 8.5 -59.5t50.5 -58.5l62 -53q22 -18 35.5 -35.5t21 -34.5t9.5 -35.5t0 -39.5l-2 -18q-7 -57 -34.5 -88.5t-92.5 -31.5h-6l-2 -17q23 0 35 -9t12 -23q0 -23 -25.5 -30.5t-61.5 -7.5z" />
    <glyph glyph-name="Scaron" unicode="&#x160;" horiz-adv-x="317" 
d="M120 770l2 19l73 -65l88 65l-2 -19l-80 -68h-14zM138 -5q-69 0 -103 39t-27 101l10 102h26l-11 -103q-5 -51 21.5 -84t84.5 -33q54 0 79.5 28t30.5 72l4 36q5 44 -10.5 78.5t-53.5 77.5l-60 68q-21 24 -36 44t-24.5 39.5t-13 40t-0.5 44.5l3 27q6 56 41 83.5t90 27.5
q65 0 97 -34.5t26 -95.5l-9 -76h-25l8 78q5 52 -21 79t-76 27q-45 0 -73 -21.5t-33 -68.5l-3 -26q-2 -21 1 -39.5t11.5 -36t22.5 -35t32 -38.5l60 -67q20 -23 35 -43.5t24 -41.5t12.5 -43.5t0.5 -49.5l-4 -35q-5 -54 -38 -87.5t-99 -33.5z" />
    <glyph glyph-name="scaron" unicode="&#x161;" horiz-adv-x="290" 
d="M99 665l2 19l73 -65l88 65l-2 -19l-80 -68h-14zM122 -5q-66 0 -96 35t-23 94l6 54h24l-6 -55q-5 -49 18 -77.5t77 -28.5q53 0 75 26t27 73l2 18q4 37 -7.5 64.5t-50.5 61.5l-63 53q-38 33 -54 64.5t-11 73.5l2 18q5 47 35 75t87 28q60 0 89 -30t23 -92l-5 -48h-25l5 48
q5 52 -17 76t-70 24q-47 0 -70 -22.5t-28 -60.5l-2 -18q-4 -33 8.5 -59.5t50.5 -58.5l62 -53q22 -18 35.5 -35.5t21 -34.5t9.5 -35.5t0 -39.5l-2 -18q-7 -57 -34.5 -88.5t-92.5 -31.5z" />
    <glyph glyph-name="Tcommaaccent" unicode="&#x162;" horiz-adv-x="294" 
d="M102 -18h25v-2l-22 -70h-19zM52 678h273l-2 -22h-124l-68 -656h-26l68 656h-123z" />
    <glyph glyph-name="tcommaaccent" unicode="&#x163;" horiz-adv-x="192" 
d="M69 -18h25v-2l-22 -70h-19zM41 567h45l12 111h26l-12 -111h86l-2 -20h-86l-49 -462q-3 -30 6 -47t44 -17h29l-1 -21h-30q-48 0 -63 22.5t-10 64.5l48 460h-45z" />
    <glyph glyph-name="Tcaron" unicode="&#x164;" horiz-adv-x="296" 
d="M116 770l2 19l73 -65l88 65l-2 -19l-80 -68h-14zM52 678h273l-2 -22h-124l-68 -656h-26l68 656h-123z" />
    <glyph glyph-name="tcaron" unicode="&#x165;" horiz-adv-x="192" 
d="M172 678h22v-2l-18 -89h-17zM41 567h45l12 111h26l-12 -111h86l-2 -20h-86l-49 -462q-3 -30 6 -47t44 -17h29l-1 -21h-30q-48 0 -63 22.5t-10 64.5l48 460h-45z" />
    <glyph glyph-name="Tbar" unicode="&#x166;" horiz-adv-x="296" 
d="M52 678h273l-2 -22h-124l-20 -200h81l-2 -20h-81l-46 -436h-26l45 436h-79l2 20h79l21 200h-123z" />
    <glyph glyph-name="tbar" unicode="&#x167;" horiz-adv-x="192" 
d="M41 567h45l12 111h26l-12 -111h86l-2 -20h-86l-10 -95h86l-1 -18h-87l-37 -349q-3 -30 6 -47t44 -17h29l-1 -21h-30q-48 0 -63 22.5t-10 64.5l36 347h-45l2 18h45l10 95h-45z" />
    <glyph glyph-name="Utilde" unicode="&#x168;" horiz-adv-x="334" 
d="M145 -5q-39 0 -65.5 12t-42 33.5t-20.5 51t-1 65.5l55 521h26l-55 -525q-3 -30 1 -55t16 -43t33.5 -28t53.5 -10q30 0 51 9t34.5 24.5t21 37.5t10.5 48l57 542h25l-57 -541q-3 -31 -12 -57t-26 -45t-43 -29.5t-62 -10.5zM132 722q2 22 14 37t35 15q11 0 20.5 -4.5
t18.5 -10t18 -10t18 -4.5q14 0 20.5 10t8.5 23h18q-2 -23 -14 -37.5t-35 -14.5q-11 0 -20.5 4.5t-18.5 9.5t-18 9.5t-18 4.5q-14 0 -21 -9.5t-9 -22.5h-17z" />
    <glyph glyph-name="utilde" unicode="&#x169;" horiz-adv-x="311" 
d="M119 -5q-53 0 -83.5 32.5t-22.5 109.5l45 430h25l-45 -431q-7 -65 17 -92t69 -27q49 0 77.5 35t34.5 90l45 425h25l-59 -567h-25l7 69h-1q-13 -27 -38.5 -50.5t-70.5 -23.5zM105 612q2 22 14 37t35 15q11 0 20.5 -4.5t18.5 -10t18 -10t18 -4.5q14 0 20.5 10t8.5 23h18
q-2 -23 -14 -37.5t-35 -14.5q-11 0 -20.5 4.5t-18.5 9.5t-18 9.5t-18 4.5q-14 0 -21 -9.5t-9 -22.5h-17z" />
    <glyph glyph-name="Umacron" unicode="&#x16a;" horiz-adv-x="334" 
d="M145 -5q-39 0 -65.5 12t-42 33.5t-20.5 51t-1 65.5l55 521h26l-55 -525q-3 -30 1 -55t16 -43t33.5 -28t53.5 -10q30 0 51 9t34.5 24.5t21 37.5t10.5 48l57 542h25l-57 -541q-3 -31 -12 -57t-26 -45t-43 -29.5t-62 -10.5zM141 739h145l-2 -19h-145z" />
    <glyph glyph-name="umacron" unicode="&#x16b;" horiz-adv-x="311" 
d="M119 -5q-53 0 -83.5 32.5t-22.5 109.5l45 430h25l-45 -431q-7 -65 17 -92t69 -27q49 0 77.5 35t34.5 90l45 425h25l-59 -567h-25l7 69h-1q-13 -27 -38.5 -50.5t-70.5 -23.5zM115 634h145l-2 -19h-145z" />
    <glyph glyph-name="Ubreve" unicode="&#x16c;" horiz-adv-x="334" 
d="M145 -5q-39 0 -65.5 12t-42 33.5t-20.5 51t-1 65.5l55 521h26l-55 -525q-3 -30 1 -55t16 -43t33.5 -28t53.5 -10q30 0 51 9t34.5 24.5t21 37.5t10.5 48l57 542h25l-57 -541q-3 -31 -12 -57t-26 -45t-43 -29.5t-62 -10.5zM214 702q-34 0 -55 21t-19 56h19q-1 -27 14 -42
t41 -15q25 0 41 14.5t20 42.5h19q-4 -38 -26 -57.5t-54 -19.5z" />
    <glyph glyph-name="ubreve" unicode="&#x16d;" horiz-adv-x="311" 
d="M119 -5q-53 0 -83.5 32.5t-22.5 109.5l45 430h25l-45 -431q-7 -65 17 -92t69 -27q49 0 77.5 35t34.5 90l45 425h25l-59 -567h-25l7 69h-1q-13 -27 -38.5 -50.5t-70.5 -23.5zM188 597q-34 0 -55 21t-19 56h19q-1 -27 14 -42t41 -15q25 0 41 14.5t20 42.5h19
q-4 -38 -26 -57.5t-54 -19.5z" />
    <glyph glyph-name="Uring" unicode="&#x16e;" horiz-adv-x="334" 
d="M212 672q-23 0 -39 16t-16 40q0 23 16 39.5t39 16.5q25 0 41 -16.5t16 -39.5q0 -24 -16 -40t-41 -16zM212 687q17 0 28.5 12t11.5 29t-11.5 29t-28.5 12t-27.5 -12t-10.5 -29t10.5 -29t27.5 -12zM145 -5q-39 0 -65.5 12t-42 33.5t-20.5 51t-1 65.5l55 521h26l-55 -525
q-3 -30 1 -55t16 -43t33.5 -28t53.5 -10q30 0 51 9t34.5 24.5t21 37.5t10.5 48l57 542h25l-57 -541q-3 -31 -12 -57t-26 -45t-43 -29.5t-62 -10.5z" />
    <glyph glyph-name="uring" unicode="&#x16f;" horiz-adv-x="311" 
d="M187 592q-23 0 -39 16t-16 40q0 23 16 39.5t39 16.5q25 0 41 -16.5t16 -39.5q0 -24 -16 -40t-41 -16zM187 607q17 0 28.5 12t11.5 29t-11.5 29t-28.5 12t-27.5 -12t-10.5 -29t10.5 -29t27.5 -12zM119 -5q-53 0 -83.5 32.5t-22.5 109.5l45 430h25l-45 -431q-7 -65 17 -92
t69 -27q49 0 77.5 35t34.5 90l45 425h25l-59 -567h-25l7 69h-1q-13 -27 -38.5 -50.5t-70.5 -23.5z" />
    <glyph glyph-name="Uhungarumlaut" unicode="&#x170;" horiz-adv-x="334" 
d="M145 -5q-39 0 -65.5 12t-42 33.5t-20.5 51t-1 65.5l55 521h26l-55 -525q-3 -30 1 -55t16 -43t33.5 -28t53.5 -10q30 0 51 9t34.5 24.5t21 37.5t10.5 48l57 542h25l-57 -541q-3 -31 -12 -57t-26 -45t-43 -29.5t-62 -10.5zM210 787h24l-47 -87h-20zM278 787h24l-47 -87h-20
z" />
    <glyph glyph-name="uhungarumlaut" unicode="&#x171;" horiz-adv-x="311" 
d="M119 -5q-53 0 -83.5 32.5t-22.5 109.5l45 430h25l-45 -431q-7 -65 17 -92t69 -27q49 0 77.5 35t34.5 90l45 425h25l-59 -567h-25l7 69h-1q-13 -27 -38.5 -50.5t-70.5 -23.5zM184 682h24l-47 -87h-20zM252 682h24l-47 -87h-20z" />
    <glyph glyph-name="Uogonek" unicode="&#x172;" horiz-adv-x="334" 
d="M173 -90q-26 0 -37 11t-11 26q0 19 10 29.5t22 18.5h-12q-39 0 -65.5 12t-42 33.5t-20.5 51t-1 65.5l55 521h26l-55 -525q-3 -30 1 -55t16 -43t33.5 -28t53.5 -10q30 0 51 9t34.5 24.5t21 37.5t10.5 48l57 542h25l-57 -541q-5 -48 -23.5 -82t-57.5 -49q-19 -8 -38 -22.5
t-19 -31.5q0 -9 5 -15t21 -6h11l-3 -21h-11z" />
    <glyph glyph-name="uogonek" unicode="&#x173;" horiz-adv-x="311" 
d="M229 69h-1q-13 -27 -38.5 -50.5t-70.5 -23.5q-53 0 -83.5 32.5t-22.5 109.5l45 430h25l-45 -431q-7 -65 17 -92t69 -27q49 0 77.5 35t34.5 90l45 425h25l-59 -567q-12 -9 -25 -21.5t-13 -27.5q0 -8 5.5 -14t21.5 -6h10l-3 -21h-10q-26 0 -37.5 10.5t-11.5 26.5
q0 19 11.5 31.5t26.5 21.5z" />
    <glyph glyph-name="Wcircumflex" unicode="&#x174;" horiz-adv-x="481" 
d="M205 724l79 68h14l67 -69l-2 -18l-73 65l-87 -65zM55 678h26l22 -625h1l167 625h24l37 -625h1l151 625h24l-165 -678h-31l-36 608h-1l-163 -608h-32z" />
    <glyph glyph-name="wcircumflex" unicode="&#x175;" horiz-adv-x="450" 
d="M178 614l79 68h14l67 -69l-2 -18l-73 65l-87 -65zM36 567h25l31 -515h1l150 515h24l39 -515h1l141 515h24l-157 -567h-28l-38 512l-150 -512h-29z" />
    <glyph glyph-name="Ycircumflex" unicode="&#x176;" horiz-adv-x="305" 
d="M138 258l-86 420h27l75 -380h1l154 380h26l-171 -419l-27 -259h-26zM118 724l79 68h14l67 -69l-2 -18l-73 65l-87 -65z" />
    <glyph glyph-name="ycircumflex" unicode="&#x177;" horiz-adv-x="286" 
d="M-8 -69h25q16 0 26 2.5t16.5 8.5t11 15.5t9.5 23.5l28 77h-8l-67 509h25l62 -471h1l165 471h26l-209 -592q-6 -18 -12.5 -30.5t-16 -20t-23 -11t-33.5 -3.5h-29zM98 614l79 68h14l67 -69l-2 -18l-73 65l-87 -65z" />
    <glyph glyph-name="Ydieresis" unicode="&#x178;" horiz-adv-x="305" 
d="M138 258l-86 420h27l75 -380h1l154 380h26l-171 -419l-27 -259h-26zM153 750h25l-4 -31h-24zM225 750h24l-3 -31h-25z" />
    <glyph glyph-name="Zacute" unicode="&#x179;" horiz-adv-x="298" 
d="M142 717l152 61l-3 -22l-151 -58zM-10 22l297 634h-209l3 22h237l-2 -22l-298 -634h222l-2 -22h-250z" />
    <glyph glyph-name="zacute" unicode="&#x17a;" horiz-adv-x="273" 
d="M119 612l152 61l-3 -22l-151 -58zM-9 21l261 525h-188l2 21h216l-2 -21l-261 -525h200l-1 -21h-228z" />
    <glyph glyph-name="Zdotaccent" unicode="&#x17b;" horiz-adv-x="298" 
d="M-10 22l297 634h-209l3 22h237l-2 -22l-298 -634h222l-2 -22h-250zM191 750h26l-3 -31h-26z" />
    <glyph glyph-name="zdotaccent" unicode="&#x17c;" horiz-adv-x="273" 
d="M-9 21l261 525h-188l2 21h216l-2 -21l-261 -525h200l-1 -21h-228zM170 678h26l-3 -31h-26z" />
    <glyph glyph-name="Zcaron" unicode="&#x17d;" horiz-adv-x="298" 
d="M124 770l2 19l73 -65l88 65l-2 -19l-80 -68h-14zM-10 22l297 634h-209l3 22h237l-2 -22l-298 -634h222l-2 -22h-250z" />
    <glyph glyph-name="zcaron" unicode="&#x17e;" horiz-adv-x="273" 
d="M100 665l2 19l73 -65l88 65l-2 -19l-80 -68h-14zM-9 21l261 525h-188l2 21h216l-2 -21l-261 -525h200l-1 -21h-228z" />
    <glyph glyph-name="florin" unicode="&#x192;" horiz-adv-x="224" 
d="M28 421h60l27 179q6 42 27 60t66 18h33l-3 -21h-28q-35 0 -49.5 -13.5t-19.5 -45.5l-26 -177h98l-2 -21h-99l-73 -490h-25l71 490h-59z" />
    <glyph glyph-name="Scommaaccent" unicode="&#x218;" horiz-adv-x="317" 
d="M114 -18h25v-2l-22 -70h-19zM138 -5q-69 0 -103 39t-27 101l10 102h26l-11 -103q-5 -51 21.5 -84t84.5 -33q54 0 79.5 28t30.5 72l4 36q5 44 -10.5 78.5t-53.5 77.5l-60 68q-21 24 -36 44t-24.5 39.5t-13 40t-0.5 44.5l3 27q6 56 41 83.5t90 27.5q65 0 97 -34.5t26 -95.5
l-9 -76h-25l8 78q5 52 -21 79t-76 27q-45 0 -73 -21.5t-33 -68.5l-3 -26q-2 -21 1 -39.5t11.5 -36t22.5 -35t32 -38.5l60 -67q20 -23 35 -43.5t24 -41.5t12.5 -43.5t0.5 -49.5l-4 -35q-5 -54 -38 -87.5t-99 -33.5z" />
    <glyph glyph-name="scommaaccent" unicode="&#x219;" horiz-adv-x="290" 
d="M98 -18h25v-2l-22 -70h-19zM122 -5q-66 0 -96 35t-23 94l6 54h24l-6 -55q-5 -49 18 -77.5t77 -28.5q53 0 75 26t27 73l2 18q4 37 -7.5 64.5t-50.5 61.5l-63 53q-38 33 -54 64.5t-11 73.5l2 18q5 47 35 75t87 28q60 0 89 -30t23 -92l-5 -48h-25l5 48q5 52 -17 76t-70 24
q-47 0 -70 -22.5t-28 -60.5l-2 -18q-4 -33 8.5 -59.5t50.5 -58.5l62 -53q22 -18 35.5 -35.5t21 -34.5t9.5 -35.5t0 -39.5l-2 -18q-7 -57 -34.5 -88.5t-92.5 -31.5z" />
    <glyph glyph-name="uni021A" unicode="&#x21a;" horiz-adv-x="294" 
d="M102 -18h25v-2l-22 -70h-19zM52 678h273l-2 -22h-124l-68 -656h-26l68 656h-123z" />
    <glyph glyph-name="uni021B" unicode="&#x21b;" horiz-adv-x="192" 
d="M69 -18h25v-2l-22 -70h-19zM41 567h45l12 111h26l-12 -111h86l-2 -20h-86l-49 -462q-3 -30 6 -47t44 -17h29l-1 -21h-30q-48 0 -63 22.5t-10 64.5l48 460h-45z" />
    <glyph glyph-name="uni0237" unicode="&#x237;" 
d="M-51 -69h11q21 0 28.5 9t9.5 30l63 597h25l-62 -598q-4 -32 -17 -45.5t-45 -13.5h-15z" />
    <glyph glyph-name="circumflex" unicode="&#x2c6;" horiz-adv-x="400" 
d="M154 614l79 68h14l67 -69l-2 -18l-73 65l-87 -65z" />
    <glyph glyph-name="caron" unicode="&#x2c7;" horiz-adv-x="400" 
d="M159 665l2 19l73 -65l88 65l-2 -19l-80 -68h-14z" />
    <glyph glyph-name="breve" unicode="&#x2d8;" horiz-adv-x="400" 
d="M237 597q-34 0 -55 21t-19 56h19q-1 -27 14 -42t41 -15q25 0 41 14.5t20 42.5h19q-4 -38 -26 -57.5t-54 -19.5z" />
    <glyph glyph-name="dotaccent" unicode="&#x2d9;" horiz-adv-x="400" 
d="M227 678h26l-3 -31h-26z" />
    <glyph glyph-name="ring" unicode="&#x2da;" horiz-adv-x="400" 
d="M236 592q-23 0 -39 16t-16 40q0 23 16 39.5t39 16.5q25 0 41 -16.5t16 -39.5q0 -24 -16 -40t-41 -16zM236 607q17 0 28.5 12t11.5 29t-11.5 29t-28.5 12t-27.5 -12t-10.5 -29t10.5 -29t27.5 -12z" />
    <glyph glyph-name="ogonek" unicode="&#x2db;" horiz-adv-x="400" 
d="M167 -90q-26 0 -37.5 9.5t-11.5 25.5q0 20 14 32.5t28 22.5h22q-13 -10 -26.5 -22t-13.5 -27q0 -8 5.5 -14t22.5 -6h9l-2 -21h-10z" />
    <glyph glyph-name="tilde" unicode="&#x2dc;" horiz-adv-x="400" 
d="M150 612q2 22 14 37t35 15q11 0 20.5 -4.5t18.5 -10t18 -10t18 -4.5q14 0 20.5 10t8.5 23h18q-2 -23 -14 -37.5t-35 -14.5q-11 0 -20.5 4.5t-18.5 9.5t-18 9.5t-18 4.5q-14 0 -21 -9.5t-9 -22.5h-17z" />
    <glyph glyph-name="hungarumlaut" unicode="&#x2dd;" horiz-adv-x="400" 
d="M231 682h24l-47 -87h-20zM299 682h24l-47 -87h-20z" />
    <glyph glyph-name="Wgrave" unicode="&#x1e80;" horiz-adv-x="481" 
d="M55 678h26l22 -625h1l167 625h24l37 -625h1l151 625h24l-165 -678h-31l-36 608h-1l-163 -608h-32zM216 762l2 21l139 -62l-2 -18z" />
    <glyph glyph-name="wgrave" unicode="&#x1e81;" horiz-adv-x="450" 
d="M36 567h25l31 -515h1l150 515h24l39 -515h1l141 515h24l-157 -567h-28l-38 512l-150 -512h-29zM188 652l2 21l139 -62l-2 -18z" />
    <glyph glyph-name="Wacute" unicode="&#x1e82;" horiz-adv-x="481" 
d="M213 722l152 61l-3 -22l-151 -58zM55 678h26l22 -625h1l167 625h24l37 -625h1l151 625h24l-165 -678h-31l-36 608h-1l-163 -608h-32z" />
    <glyph glyph-name="wacute" unicode="&#x1e83;" horiz-adv-x="450" 
d="M186 612l152 61l-3 -22l-151 -58zM36 567h25l31 -515h1l150 515h24l39 -515h1l141 515h24l-157 -567h-28l-38 512l-150 -512h-29z" />
    <glyph glyph-name="Wdieresis" unicode="&#x1e84;" horiz-adv-x="481" 
d="M241 755h25l-4 -31h-24zM313 755h24l-3 -31h-25zM55 678h26l22 -625h1l167 625h24l37 -625h1l151 625h24l-165 -678h-31l-36 608h-1l-163 -608h-32z" />
    <glyph glyph-name="wdieresis" unicode="&#x1e85;" horiz-adv-x="450" 
d="M213 645h25l-4 -31h-24zM285 645h24l-3 -31h-25zM36 567h25l31 -515h1l150 515h24l39 -515h1l141 515h24l-157 -567h-28l-38 512l-150 -512h-29z" />
    <glyph glyph-name="Ygrave" unicode="&#x1ef2;" horiz-adv-x="305" 
d="M138 258l-86 420h27l75 -380h1l154 380h26l-171 -419l-27 -259h-26zM129 762l2 21l139 -62l-2 -18z" />
    <glyph glyph-name="ygrave" unicode="&#x1ef3;" horiz-adv-x="286" 
d="M-8 -69h25q16 0 26 2.5t16.5 8.5t11 15.5t9.5 23.5l28 77h-8l-67 509h25l62 -471h1l165 471h26l-209 -592q-6 -18 -12.5 -30.5t-16 -20t-23 -11t-33.5 -3.5h-29zM107 652l2 21l139 -62l-2 -18z" />
    <glyph glyph-name="uni2009" unicode="&#x2009;" horiz-adv-x="50" 
 />
    <glyph glyph-name="endash" unicode="&#x2013;" horiz-adv-x="219" 
d="M17 326h193l-2 -22h-194z" />
    <glyph glyph-name="emdash" unicode="&#x2014;" horiz-adv-x="467" 
d="M17 326h441l-2 -22h-442z" />
    <glyph glyph-name="quoteleft" unicode="&#x2018;" horiz-adv-x="82" 
d="M53 579l27 99h19l-22 -101h-24v2z" />
    <glyph glyph-name="quoteright" unicode="&#x2019;" horiz-adv-x="82" 
d="M75 678h25v-2l-28 -99h-19z" />
    <glyph glyph-name="quotesinglbase" unicode="&#x201a;" horiz-adv-x="82" 
d="M9 54h24v-2l-27 -99h-19z" />
    <glyph glyph-name="quotedblleft" unicode="&#x201c;" horiz-adv-x="140" 
d="M111 579l28 99h19l-22 -101h-25v2zM53 579l27 99h19l-22 -101h-24v2z" />
    <glyph glyph-name="quotedblright" unicode="&#x201d;" horiz-adv-x="140" 
d="M75 678h25v-2l-28 -99h-19zM134 678h24v-2l-27 -99h-19z" />
    <glyph glyph-name="quotedblbase" unicode="&#x201e;" horiz-adv-x="140" 
d="M9 54h24v-2l-27 -99h-19zM67 54h25v-2l-27 -99h-20z" />
    <glyph glyph-name="dagger" unicode="&#x2020;" horiz-adv-x="213" 
d="M45 567h79l12 111h24l-12 -111h79l-3 -21h-78l-57 -546h-24l57 546h-79z" />
    <glyph glyph-name="daggerdbl" unicode="&#x2021;" horiz-adv-x="213" 
d="M45 567h79l12 111h24l-12 -111h79l-3 -21h-78l-44 -414h79l-2 -21h-79l-11 -111h-24l11 111h-79l3 21h78l44 414h-79z" />
    <glyph glyph-name="bullet" unicode="&#x2022;" horiz-adv-x="191" 
d="M100 268q-29 0 -48.5 20t-19.5 49q0 27 19.5 48t48.5 21q28 0 48.5 -21t20.5 -48q0 -29 -20.5 -49t-48.5 -20z" />
    <glyph glyph-name="ellipsis" unicode="&#x2026;" horiz-adv-x="288" 
d="M8 34h26l-3 -34h-26zM104 34h27l-4 -34h-26zM200 34h26l-3 -34h-26z" />
    <glyph glyph-name="perthousand" unicode="&#x2030;" horiz-adv-x="650" 
d="M404 678h23l-401 -678h-23zM135 393q-54 0 -76 33.5t-16 89.5l6 53q6 55 33 84t74 29q54 0 75.5 -33t15.5 -90l-5 -53q-6 -54 -32 -83.5t-75 -29.5zM136 414q38 0 56.5 23.5t23.5 67.5l6 57q5 45 -9.5 72t-56.5 27q-38 0 -57.5 -23.5t-24.5 -67.5l-6 -57q-5 -45 10 -72
t58 -27zM274 -4q-54 0 -76 33.5t-16 89.5l5 53q6 55 33.5 84t74.5 29q54 0 75.5 -33t15.5 -90l-6 -53q-6 -54 -32 -83.5t-74 -29.5zM274 17q39 0 57.5 23.5t23.5 67.5l6 57q5 45 -10 72t-57 27q-38 0 -57.5 -23.5t-24.5 -67.5l-6 -57q-5 -45 10.5 -72t57.5 -27zM506 -4
q-54 0 -76 33.5t-16 89.5l5 53q6 55 33.5 84t74.5 29q54 0 75.5 -33t15.5 -90l-6 -53q-6 -54 -32 -83.5t-74 -29.5zM506 17q39 0 57.5 23.5t23.5 67.5l6 57q5 45 -10 72t-57 27q-38 0 -57.5 -23.5t-24.5 -67.5l-6 -57q-5 -45 10.5 -72t57.5 -27z" />
    <glyph glyph-name="guilsinglleft" unicode="&#x2039;" horiz-adv-x="136" 
d="M20 232l78 146h22l-78 -147l48 -145h-23z" />
    <glyph glyph-name="guilsinglright" unicode="&#x203a;" horiz-adv-x="136" 
d="M81 233l-47 145h22l48 -146l-78 -146h-23z" />
    <glyph glyph-name="fraction" unicode="&#x2044;" horiz-adv-x="146" 
d="M267 678h24l-401 -678h-24z" />
    <glyph glyph-name="Euro" unicode="&#x20ac;" horiz-adv-x="345" 
d="M26 391h36l14 132q3 33 12.5 62t27 50.5t44 34.5t63.5 13q39 0 64 -11.5t38.5 -31.5t17.5 -48t1 -62l-7 -63h-26l6 64q3 29 0.5 53t-13 41t-30.5 26.5t-51 9.5t-52.5 -11t-36 -30t-22 -43.5t-10.5 -52.5l-14 -133h156l-2 -18h-156l-4 -34h156l-2 -18h-156l-17 -167
q-3 -27 0.5 -52t15 -44t32 -30t52.5 -11t53 9.5t33.5 27t19 40.5t9.5 50l10 102h26l-11 -102q-3 -32 -11.5 -59t-24 -47t-41 -31.5t-63.5 -11.5q-39 0 -65 13t-40.5 35.5t-19 52t-1.5 62.5l17 163h-36l2 18h36l4 34h-36z" />
    <glyph glyph-name="trademark" unicode="&#x2122;" horiz-adv-x="338" 
d="M197 678h29l25 -200h1l67 200h30l-25 -239h-17l22 211h-3l-71 -211h-14l-28 211h-3l-22 -211h-16zM58 678h110l-1 -15h-47l-23 -224h-18l23 224h-46z" />
    <glyph glyph-name="onethird" unicode="&#x2153;" horiz-adv-x="240" 
d="M97 -4q-42 0 -59.5 19.5t-14.5 51.5l3 29h20l-3 -29q-2 -26 10.5 -40t43.5 -14q32 0 44.5 14t14.5 37l4 35q2 20 -6.5 33t-34.5 14h-30l3 17h27q26 0 36 13t12 28l2 22q5 51 -51 51q-29 0 -41 -14.5t-14 -37.5l-2 -18h-20l2 18q3 29 20 49t56 20q38 0 56 -18.5t15 -50.5
l-2 -21q-2 -17 -11.5 -30.5t-31.5 -18.5q23 -5 30.5 -21t5.5 -37l-3 -36q-3 -29 -20.5 -47t-60.5 -18zM149 647h-1l-60 -58h-1l3 24l66 65h19l-31 -290h-23zM26 348h201l-2 -16h-201z" />
    <glyph glyph-name="twothirds" unicode="&#x2154;" horiz-adv-x="243" 
d="M27 348h201l-1 -16h-201zM60 418q3 29 14 47.5t39 38.5l51 36q23 17 33 29t12 32l1 10q2 26 -10.5 40t-38.5 14q-24 0 -40 -13t-19 -41l-3 -34h-21l4 35q4 35 25.5 52.5t53.5 17.5q37 0 55.5 -19t14.5 -54l-1 -9q-2 -27 -15.5 -41.5t-36.5 -31.5l-52 -38
q-25 -17 -34 -32.5t-11 -39.5l-1 -11h128l-2 -18h-149zM100 -4q-42 0 -59.5 19.5t-14.5 51.5l3 29h20l-3 -29q-3 -26 10 -40t44 -14q32 0 44.5 14t14.5 37l4 35q2 20 -6.5 33t-34.5 14h-30l2 17h28q26 0 36 13t12 28l2 22q2 25 -10 38t-41 13t-41 -14.5t-14 -37.5l-2 -18
h-21l2 18q4 29 21 49t56 20q38 0 55.5 -18.5t14.5 -50.5l-2 -21q-2 -17 -11.5 -30.5t-30.5 -18.5q23 -5 30.5 -21t5.5 -37l-4 -36q-3 -29 -20 -47t-60 -18z" />
    <glyph glyph-name="minus" unicode="&#x2212;" horiz-adv-x="341" 
d="M29 346h294l-2 -22h-294z" />
    <glyph glyph-name="idotaccent" 
d="M61 567h25l-59 -567h-25zM73 678h25l-3 -31h-26z" />
    <glyph glyph-name="space_uni0326" horiz-adv-x="400" 
d="M145 -18h25v-2l-22 -70h-19z" />
    <glyph glyph-name="G.alt" horiz-adv-x="333" 
d="M187 334h124l-20 -194q-4 -35 -12.5 -61.5t-24.5 -45.5t-41.5 -28.5t-62.5 -9.5q-41 0 -68 14t-43 37.5t-21 54.5t-1 66l38 364q3 33 13 61t28 48t44.5 31.5t63.5 11.5q40 0 66 -11.5t40 -32t17.5 -48.5t-0.5 -60l-6 -57h-26l6 57q3 28 0.5 52t-13.5 41t-31.5 27
t-52.5 10q-30 0 -52 -9.5t-37 -27t-23 -41t-11 -50.5l-38 -371q-3 -29 0.5 -55t16 -46t35 -32t55.5 -12q31 0 51.5 8.5t33.5 24t20 38.5t10 53l18 171h-99z" />
    <glyph glyph-name="Q.alt1" horiz-adv-x="349" 
d="M153 -5q-40 0 -67.5 13.5t-44 37t-22.5 55t-2 66.5l38 364q3 31 13.5 59t29 48.5t46 32.5t64.5 12q40 0 67.5 -13.5t44 -37t22 -54.5t1.5 -67l-38 -364q-4 -35 -16.5 -66t-35.5 -52l47 -74v-1h-28l-39 60q-17 -9 -36.5 -14t-43.5 -5zM153 17q41 0 67 17l-58 92v1h29
l49 -77q17 18 26 42.5t12 52.5l39 371q3 30 -1 56.5t-17.5 46t-36 31t-55.5 11.5q-30 0 -52.5 -10t-38 -27.5t-24 -41t-11.5 -49.5l-38 -371q-3 -30 1 -56t17.5 -46t36 -31.5t55.5 -11.5z" />
    <glyph glyph-name="Q.alt2" horiz-adv-x="349" 
d="M153 -5q-40 0 -67.5 13.5t-44 37t-22.5 55t-2 66.5l38 364q3 31 13.5 59t29 48.5t46 32.5t64.5 12q40 0 67.5 -13.5t44 -37t22 -54.5t1.5 -67l-38 -364q-5 -55 -34 -97.5t-87 -51.5l-1 -11q-4 -32 7.5 -47.5t34.5 -15.5t34 12t13 34l5 43h16l-5 -43q-6 -64 -66 -64
q-35 0 -51.5 21t-12.5 60l1 8h-6zM186 19q45 11 66 45.5t26 79.5l39 372q3 30 -1 56.5t-17.5 46t-36 31t-55.5 11.5q-30 0 -52.5 -10t-38 -27.5t-24 -41t-11.5 -49.5l-39 -373q-4 -37 4 -70.5t30 -51.5l1 1q-9 11 -13.5 27.5t-4.5 34.5q0 37 19.5 63.5t55.5 26.5
q31 0 48.5 -21.5t12.5 -66.5zM161 16l9 87q4 38 -8.5 54t-32.5 16q-26 0 -39.5 -21t-13.5 -51q0 -36 18 -60.5t56 -24.5h11z" />
    <glyph glyph-name="R.alt1" horiz-adv-x="321" 
d="M73 678h112q67 0 95 -31.5t23 -91.5l-12 -110q-9 -88 -85 -104q45 -6 63.5 -35.5t13.5 -78.5l-19 -186q-3 -21 18 -21h5l-2 -20h-11q-40 0 -37 41l20 189q5 46 -15.5 72.5t-72.5 26.5h-107l-34 -329h-26zM158 351q48 0 75 21.5t32 70.5l12 113q5 48 -17 74t-76 26h-88
l-31 -305h93z" />
    <glyph glyph-name="R.alt2" horiz-adv-x="322" 
d="M73 678h112q67 0 95 -31.5t23 -91.5l-12 -110q-9 -88 -85 -104q45 -6 63.5 -35.5t13.5 -78.5l-23 -227h-27l24 230q5 46 -15.5 72.5t-72.5 26.5h-107l-34 -329h-26zM158 351q48 0 75 21.5t32 70.5l12 113q5 48 -17 74t-76 26h-88l-31 -305h93z" />
    <glyph glyph-name="g.alt1" horiz-adv-x="309" 
d="M119 266q-12 0 -26.5 -1.5t-27 -7.5t-21 -16.5t-8.5 -28.5q0 -17 10.5 -27.5t33.5 -10.5h74q125 0 111 -119l-2 -26q-6 -59 -37 -91.5t-101 -32.5t-103 33.5t-26 99.5l6 54h24l-5 -54q-14 -111 105 -111q30 0 50.5 7t33 20t19 31.5t9.5 42.5l2 26q12 97 -88 97h-75
q-34 0 -49 15.5t-15 38.5q0 18 6.5 30.5t17 21t24 13.5t28.5 8q-65 31 -54 129l3 30q7 66 41 98t94 32q2 0 4.5 -0.5t4.5 -0.5v1h135l-2 -20h-77v-2q29 -11 42 -41.5t8 -77.5l-3 -28q-7 -69 -41.5 -100.5t-95.5 -31.5h-29zM148 287q51 0 78.5 26.5t33.5 83.5l4 32
q6 57 -17.5 87t-73.5 30t-77 -26t-33 -83l-4 -31q-6 -57 16.5 -88t72.5 -31z" />
    <glyph glyph-name="g.alt2" horiz-adv-x="309" 
d="M126 266q-34 0 -58 -12.5t-28 -49.5l-3 -30h117q125 0 111 -119l-2 -26q-6 -59 -37 -91.5t-101 -32.5q-142 0 -128 133l5 54h25l-6 -54q-6 -56 19.5 -83.5t85.5 -27.5q30 0 50.5 7t33 20t19 31.5t9.5 42.5l2 26q12 97 -88 97h-141l4 45q2 22 9 36t17.5 23t23.5 13.5
t27 7.5v1q-32 14 -47 47.5t-10 82.5l3 30q7 66 41 98t94 32q2 0 4.5 -0.5t4.5 -0.5v1h135l-2 -20h-77v-2q29 -11 42 -41.5t8 -77.5l-3 -28q-7 -69 -41.5 -100.5t-95.5 -31.5h-22zM148 287q51 0 78.5 26.5t33.5 83.5l4 32q6 57 -17.5 87t-73.5 30t-77 -26t-33 -83l-4 -31
q-6 -57 16.5 -88t72.5 -31z" />
    <glyph glyph-name="Gbreve.alt" horiz-adv-x="333" 
d="M187 334h124l-20 -194q-4 -35 -12.5 -61.5t-24.5 -45.5t-41.5 -28.5t-62.5 -9.5q-41 0 -68 14t-43 37.5t-21 54.5t-1 66l38 364q3 33 13 61t28 48t44.5 31.5t63.5 11.5q40 0 66 -11.5t40 -32t17.5 -48.5t-0.5 -60l-6 -57h-26l6 57q3 28 0.5 52t-13.5 41t-31.5 27
t-52.5 10q-30 0 -52 -9.5t-37 -27t-23 -41t-11 -50.5l-38 -371q-3 -29 0.5 -55t16 -46t35 -32t55.5 -12q31 0 51.5 8.5t33.5 24t20 38.5t10 53l18 171h-99zM217 702q-34 0 -55 21t-19 56h19q-1 -27 14 -42t41 -15q25 0 41 14.5t20 42.5h19q-4 -38 -26 -57.5t-54 -19.5z" />
    <glyph glyph-name="Gcircumflex.alt" horiz-adv-x="333" 
d="M135 719l79 68h14l67 -69l-2 -18l-73 65l-87 -65zM187 334h124l-20 -194q-4 -35 -12.5 -61.5t-24.5 -45.5t-41.5 -28.5t-62.5 -9.5q-41 0 -68 14t-43 37.5t-21 54.5t-1 66l38 364q3 33 13 61t28 48t44.5 31.5t63.5 11.5q40 0 66 -11.5t40 -32t17.5 -48.5t-0.5 -60l-6 -57
h-26l6 57q3 28 0.5 52t-13.5 41t-31.5 27t-52.5 10q-30 0 -52 -9.5t-37 -27t-23 -41t-11 -50.5l-38 -371q-3 -29 0.5 -55t16 -46t35 -32t55.5 -12q31 0 51.5 8.5t33.5 24t20 38.5t10 53l18 171h-99z" />
    <glyph glyph-name="Gcommaaccent.alt" horiz-adv-x="333" 
d="M127 -18h25v-2l-22 -70h-19zM187 334h124l-20 -194q-4 -35 -12.5 -61.5t-24.5 -45.5t-41.5 -28.5t-62.5 -9.5q-41 0 -68 14t-43 37.5t-21 54.5t-1 66l38 364q3 33 13 61t28 48t44.5 31.5t63.5 11.5q40 0 66 -11.5t40 -32t17.5 -48.5t-0.5 -60l-6 -57h-26l6 57
q3 28 0.5 52t-13.5 41t-31.5 27t-52.5 10q-30 0 -52 -9.5t-37 -27t-23 -41t-11 -50.5l-38 -371q-3 -29 0.5 -55t16 -46t35 -32t55.5 -12q31 0 51.5 8.5t33.5 24t20 38.5t10 53l18 171h-99z" />
    <glyph glyph-name="Gdotaccent.alt" horiz-adv-x="333" 
d="M187 334h124l-20 -194q-4 -35 -12.5 -61.5t-24.5 -45.5t-41.5 -28.5t-62.5 -9.5q-41 0 -68 14t-43 37.5t-21 54.5t-1 66l38 364q3 33 13 61t28 48t44.5 31.5t63.5 11.5q40 0 66 -11.5t40 -32t17.5 -48.5t-0.5 -60l-6 -57h-26l6 57q3 28 0.5 52t-13.5 41t-31.5 27
t-52.5 10q-30 0 -52 -9.5t-37 -27t-23 -41t-11 -50.5l-38 -371q-3 -29 0.5 -55t16 -46t35 -32t55.5 -12q31 0 51.5 8.5t33.5 24t20 38.5t10 53l18 171h-99zM197 750h26l-3 -31h-26z" />
    <glyph glyph-name="Racute.alt1" horiz-adv-x="321" 
d="M125 717l152 61l-3 -22l-151 -58zM73 678h112q67 0 95 -31.5t23 -91.5l-12 -110q-9 -88 -85 -104q45 -6 63.5 -35.5t13.5 -78.5l-19 -186q-3 -21 18 -21h5l-2 -20h-11q-40 0 -37 41l20 189q5 46 -15.5 72.5t-72.5 26.5h-107l-34 -329h-26zM158 351q48 0 75 21.5t32 70.5
l12 113q5 48 -17 74t-76 26h-88l-31 -305h93z" />
    <glyph glyph-name="Racute.alt2" horiz-adv-x="322" 
d="M125 717l152 61l-3 -22l-151 -58zM73 678h112q67 0 95 -31.5t23 -91.5l-12 -110q-9 -88 -85 -104q45 -6 63.5 -35.5t13.5 -78.5l-23 -227h-27l24 230q5 46 -15.5 72.5t-72.5 26.5h-107l-34 -329h-26zM158 351q48 0 75 21.5t32 70.5l12 113q5 48 -17 74t-76 26h-88
l-31 -305h93z" />
    <glyph glyph-name="Rcaron.alt1" horiz-adv-x="321" 
d="M110 770l2 19l73 -65l88 65l-2 -19l-80 -68h-14zM73 678h112q67 0 95 -31.5t23 -91.5l-12 -110q-9 -88 -85 -104q45 -6 63.5 -35.5t13.5 -78.5l-19 -186q-3 -21 18 -21h5l-2 -20h-11q-40 0 -37 41l20 189q5 46 -15.5 72.5t-72.5 26.5h-107l-34 -329h-26zM158 351
q48 0 75 21.5t32 70.5l12 113q5 48 -17 74t-76 26h-88l-31 -305h93z" />
    <glyph glyph-name="Rcaron.alt2" horiz-adv-x="322" 
d="M107 770l2 19l73 -65l88 65l-2 -19l-80 -68h-14zM73 678h112q67 0 95 -31.5t23 -91.5l-12 -110q-9 -88 -85 -104q45 -6 63.5 -35.5t13.5 -78.5l-23 -227h-27l24 230q5 46 -15.5 72.5t-72.5 26.5h-107l-34 -329h-26zM158 351q48 0 75 21.5t32 70.5l12 113q5 48 -17 74
t-76 26h-88l-31 -305h93z" />
    <glyph glyph-name="Rcommaaccent.alt1" horiz-adv-x="321" 
d="M121 -18h25v-2l-22 -70h-19zM73 678h112q67 0 95 -31.5t23 -91.5l-12 -110q-9 -88 -85 -104q45 -6 63.5 -35.5t13.5 -78.5l-19 -186q-3 -21 18 -21h5l-2 -20h-11q-40 0 -37 41l20 189q5 46 -15.5 72.5t-72.5 26.5h-107l-34 -329h-26zM158 351q48 0 75 21.5t32 70.5
l12 113q5 48 -17 74t-76 26h-88l-31 -305h93z" />
    <glyph glyph-name="Rcommaaccent.alt2" horiz-adv-x="322" 
d="M123 -18h25v-2l-22 -70h-19zM73 678h112q67 0 95 -31.5t23 -91.5l-12 -110q-9 -88 -85 -104q45 -6 63.5 -35.5t13.5 -78.5l-23 -227h-27l24 230q5 46 -15.5 72.5t-72.5 26.5h-107l-34 -329h-26zM158 351q48 0 75 21.5t32 70.5l12 113q5 48 -17 74t-76 26h-88l-31 -305h93
z" />
    <glyph glyph-name="gbreve.alt1" horiz-adv-x="309" 
d="M119 266q-12 0 -26.5 -1.5t-27 -7.5t-21 -16.5t-8.5 -28.5q0 -17 10.5 -27.5t33.5 -10.5h74q125 0 111 -119l-2 -26q-6 -59 -37 -91.5t-101 -32.5t-103 33.5t-26 99.5l6 54h24l-5 -54q-14 -111 105 -111q30 0 50.5 7t33 20t19 31.5t9.5 42.5l2 26q12 97 -88 97h-75
q-34 0 -49 15.5t-15 38.5q0 18 6.5 30.5t17 21t24 13.5t28.5 8q-65 31 -54 129l3 30q7 66 41 98t94 32q2 0 4.5 -0.5t4.5 -0.5v1h135l-2 -20h-77v-2q29 -11 42 -41.5t8 -77.5l-3 -28q-7 -69 -41.5 -100.5t-95.5 -31.5h-29zM148 287q51 0 78.5 26.5t33.5 83.5l4 32
q6 57 -17.5 87t-73.5 30t-77 -26t-33 -83l-4 -31q-6 -57 16.5 -88t72.5 -31zM194 597q-34 0 -55 21t-19 56h19q-1 -27 14 -42t41 -15q25 0 41 14.5t20 42.5h19q-4 -38 -26 -57.5t-54 -19.5z" />
    <glyph glyph-name="gbreve.alt2" horiz-adv-x="309" 
d="M126 266q-34 0 -58 -12.5t-28 -49.5l-3 -30h117q125 0 111 -119l-2 -26q-6 -59 -37 -91.5t-101 -32.5q-142 0 -128 133l5 54h25l-6 -54q-6 -56 19.5 -83.5t85.5 -27.5q30 0 50.5 7t33 20t19 31.5t9.5 42.5l2 26q12 97 -88 97h-141l4 45q2 22 9 36t17.5 23t23.5 13.5
t27 7.5v1q-32 14 -47 47.5t-10 82.5l3 30q7 66 41 98t94 32q2 0 4.5 -0.5t4.5 -0.5v1h135l-2 -20h-77v-2q29 -11 42 -41.5t8 -77.5l-3 -28q-7 -69 -41.5 -100.5t-95.5 -31.5h-22zM148 287q51 0 78.5 26.5t33.5 83.5l4 32q6 57 -17.5 87t-73.5 30t-77 -26t-33 -83l-4 -31
q-6 -57 16.5 -88t72.5 -31zM188 597q-34 0 -55 21t-19 56h19q-1 -27 14 -42t41 -15q25 0 41 14.5t20 42.5h19q-4 -38 -26 -57.5t-54 -19.5z" />
    <glyph glyph-name="gcircumflex.alt1" horiz-adv-x="309" 
d="M110 614l79 68h14l67 -69l-2 -18l-73 65l-87 -65zM119 266q-12 0 -26.5 -1.5t-27 -7.5t-21 -16.5t-8.5 -28.5q0 -17 10.5 -27.5t33.5 -10.5h74q125 0 111 -119l-2 -26q-6 -59 -37 -91.5t-101 -32.5t-103 33.5t-26 99.5l6 54h24l-5 -54q-14 -111 105 -111q30 0 50.5 7
t33 20t19 31.5t9.5 42.5l2 26q12 97 -88 97h-75q-34 0 -49 15.5t-15 38.5q0 18 6.5 30.5t17 21t24 13.5t28.5 8q-65 31 -54 129l3 30q7 66 41 98t94 32q2 0 4.5 -0.5t4.5 -0.5v1h135l-2 -20h-77v-2q29 -11 42 -41.5t8 -77.5l-3 -28q-7 -69 -41.5 -100.5t-95.5 -31.5h-29z
M148 287q51 0 78.5 26.5t33.5 83.5l4 32q6 57 -17.5 87t-73.5 30t-77 -26t-33 -83l-4 -31q-6 -57 16.5 -88t72.5 -31z" />
    <glyph glyph-name="gcircumflex.alt2" horiz-adv-x="309" 
d="M104 614l79 68h14l67 -69l-2 -18l-73 65l-87 -65zM126 266q-34 0 -58 -12.5t-28 -49.5l-3 -30h117q125 0 111 -119l-2 -26q-6 -59 -37 -91.5t-101 -32.5q-142 0 -128 133l5 54h25l-6 -54q-6 -56 19.5 -83.5t85.5 -27.5q30 0 50.5 7t33 20t19 31.5t9.5 42.5l2 26
q12 97 -88 97h-141l4 45q2 22 9 36t17.5 23t23.5 13.5t27 7.5v1q-32 14 -47 47.5t-10 82.5l3 30q7 66 41 98t94 32q2 0 4.5 -0.5t4.5 -0.5v1h135l-2 -20h-77v-2q29 -11 42 -41.5t8 -77.5l-3 -28q-7 -69 -41.5 -100.5t-95.5 -31.5h-22zM148 287q51 0 78.5 26.5t33.5 83.5
l4 32q6 57 -17.5 87t-73.5 30t-77 -26t-33 -83l-4 -31q-6 -57 16.5 -88t72.5 -31z" />
    <glyph glyph-name="gcommaaccent.alt1" horiz-adv-x="309" 
d="M173 605l21 70h20l-17 -72h-24v2zM119 266q-12 0 -26.5 -1.5t-27 -7.5t-21 -16.5t-8.5 -28.5q0 -17 10.5 -27.5t33.5 -10.5h74q125 0 111 -119l-2 -26q-6 -59 -37 -91.5t-101 -32.5t-103 33.5t-26 99.5l6 54h24l-5 -54q-14 -111 105 -111q30 0 50.5 7t33 20t19 31.5
t9.5 42.5l2 26q12 97 -88 97h-75q-34 0 -49 15.5t-15 38.5q0 18 6.5 30.5t17 21t24 13.5t28.5 8q-65 31 -54 129l3 30q7 66 41 98t94 32q2 0 4.5 -0.5t4.5 -0.5v1h135l-2 -20h-77v-2q29 -11 42 -41.5t8 -77.5l-3 -28q-7 -69 -41.5 -100.5t-95.5 -31.5h-29zM148 287
q51 0 78.5 26.5t33.5 83.5l4 32q6 57 -17.5 87t-73.5 30t-77 -26t-33 -83l-4 -31q-6 -57 16.5 -88t72.5 -31z" />
    <glyph glyph-name="gcommaaccent.alt2" horiz-adv-x="309" 
d="M173 605l21 70h20l-17 -72h-24v2zM126 266q-34 0 -58 -12.5t-28 -49.5l-3 -30h117q125 0 111 -119l-2 -26q-6 -59 -37 -91.5t-101 -32.5q-142 0 -128 133l5 54h25l-6 -54q-6 -56 19.5 -83.5t85.5 -27.5q30 0 50.5 7t33 20t19 31.5t9.5 42.5l2 26q12 97 -88 97h-141l4 45
q2 22 9 36t17.5 23t23.5 13.5t27 7.5v1q-32 14 -47 47.5t-10 82.5l3 30q7 66 41 98t94 32q2 0 4.5 -0.5t4.5 -0.5v1h135l-2 -20h-77v-2q29 -11 42 -41.5t8 -77.5l-3 -28q-7 -69 -41.5 -100.5t-95.5 -31.5h-22zM148 287q51 0 78.5 26.5t33.5 83.5l4 32q6 57 -17.5 87
t-73.5 30t-77 -26t-33 -83l-4 -31q-6 -57 16.5 -88t72.5 -31z" />
    <glyph glyph-name="gdotaccent.alt1" horiz-adv-x="309" 
d="M119 266q-12 0 -26.5 -1.5t-27 -7.5t-21 -16.5t-8.5 -28.5q0 -17 10.5 -27.5t33.5 -10.5h74q125 0 111 -119l-2 -26q-6 -59 -37 -91.5t-101 -32.5t-103 33.5t-26 99.5l6 54h24l-5 -54q-14 -111 105 -111q30 0 50.5 7t33 20t19 31.5t9.5 42.5l2 26q12 97 -88 97h-75
q-34 0 -49 15.5t-15 38.5q0 18 6.5 30.5t17 21t24 13.5t28.5 8q-65 31 -54 129l3 30q7 66 41 98t94 32q2 0 4.5 -0.5t4.5 -0.5v1h135l-2 -20h-77v-2q29 -11 42 -41.5t8 -77.5l-3 -28q-7 -69 -41.5 -100.5t-95.5 -31.5h-29zM148 287q51 0 78.5 26.5t33.5 83.5l4 32
q6 57 -17.5 87t-73.5 30t-77 -26t-33 -83l-4 -31q-6 -57 16.5 -88t72.5 -31zM170 678h26l-3 -31h-26z" />
    <glyph glyph-name="gdotaccent.alt2" horiz-adv-x="309" 
d="M126 266q-34 0 -58 -12.5t-28 -49.5l-3 -30h117q125 0 111 -119l-2 -26q-6 -59 -37 -91.5t-101 -32.5q-142 0 -128 133l5 54h25l-6 -54q-6 -56 19.5 -83.5t85.5 -27.5q30 0 50.5 7t33 20t19 31.5t9.5 42.5l2 26q12 97 -88 97h-141l4 45q2 22 9 36t17.5 23t23.5 13.5
t27 7.5v1q-32 14 -47 47.5t-10 82.5l3 30q7 66 41 98t94 32q2 0 4.5 -0.5t4.5 -0.5v1h135l-2 -20h-77v-2q29 -11 42 -41.5t8 -77.5l-3 -28q-7 -69 -41.5 -100.5t-95.5 -31.5h-22zM148 287q51 0 78.5 26.5t33.5 83.5l4 32q6 57 -17.5 87t-73.5 30t-77 -26t-33 -83l-4 -31
q-6 -57 16.5 -88t72.5 -31zM170 678h26l-3 -31h-26z" />
    <glyph glyph-name="space_uni0326.alt" horiz-adv-x="400" 
d="M217 605l21 70h20l-17 -72h-24v2z" />
    <glyph glyph-name="asterisk.alt" horiz-adv-x="202" 
d="M129 678h24l-13 -66h-11v66zM151 590l-3 11l64 23l5 -23zM137 574l10 6l39 -53l-20 -12zM53 615l9 21l58 -33l-4 -9zM69 536l48 46l9 -8l-40 -53z" />
    <glyph glyph-name="ampersand.alt1" horiz-adv-x="356" 
d="M141 -5q-75 0 -105.5 40t-22.5 112l11 103q6 56 34.5 80t68.5 32q-36 8 -53.5 37.5t-12.5 78.5l7 74q7 69 41 100t92 31q64 0 92 -32.5t20 -107.5l-6 -53h-25l5 53q7 66 -15 92t-71 26q-48 0 -74.5 -25t-32.5 -85l-8 -76q-5 -46 14 -74t70 -28h179l-2 -23h-47l-24 -227
q-6 -63 -36.5 -95.5t-98.5 -32.5zM141 17q56 0 80.5 28t29.5 78l24 227h-106q-50 0 -82 -23t-37 -76l-11 -105q-7 -63 17.5 -96t84.5 -33z" />
    <glyph glyph-name="ampersand.alt2" horiz-adv-x="401" 
d="M348 0q-23 0 -34 9.5t-21 32.5l-22 52q-9 -21 -20 -39t-27 -31.5t-39 -21t-54 -7.5q-61 0 -94.5 37t-24.5 116l13 130q6 61 32.5 93t75.5 52q-13 31 -19 55.5t-6 55.5t7 58t22 47t38.5 32t56.5 12q51 0 79.5 -30t21.5 -94l-7 -66h-24l7 66q6 56 -17 79t-61 23
q-27 0 -45.5 -10t-30 -27.5t-16.5 -40.5t-5 -48q0 -29 6.5 -54t19.5 -55l114 -272l94 248h23l-106 -275l32 -75q8 -20 15.5 -26t21.5 -6h11l-3 -20h-14zM133 17q29 0 49.5 8t35 21.5t24.5 32t18 40.5l-120 286q-41 -18 -62 -44.5t-26 -79.5l-14 -136q-8 -69 19.5 -98.5
t75.5 -29.5z" />
    <glyph glyph-name="ampersand.alt3" horiz-adv-x="393" 
d="M275 107q-9 -23 -20 -43t-27.5 -35.5t-40 -24.5t-55.5 -9q-60 0 -94 39.5t-26 115.5l14 129q3 32 11.5 55t22.5 40t33.5 29t45.5 23q-12 28 -19.5 55.5t-7.5 63.5q0 27 7 52t21.5 44t36 30.5t51.5 11.5q45 0 71.5 -26t26.5 -74q0 -36 -13 -62t-34.5 -45t-50 -33
t-58.5 -26l108 -251l90 236h23l-101 -264l59 -138h-27zM135 17q28 0 48.5 8.5t35.5 24t25.5 36.5t20.5 46l-118 276q-22 -9 -38.5 -19.5t-28 -25t-18.5 -34t-10 -47.5l-14 -135q-7 -66 21 -98t76 -32zM138 545q0 -33 7 -59t18 -52q28 11 52.5 23.5t43.5 29.5t30 39.5
t11 54.5q0 39 -19 59.5t-53 20.5q-24 0 -41.5 -9.5t-28 -25.5t-15.5 -37t-5 -44z" />
    <glyph glyph-name="caron.alt" horiz-adv-x="400" 
d="M237 678h22v-2l-18 -89h-17z" />
    <glyph glyph-name="questiondown.uc" horiz-adv-x="303" 
d="M125 -5q-61 0 -92 34t-24 105l5 49q2 18 6 32t11 27t16.5 26t22.5 29l52 64q13 16 22 28t15 24t9.5 26t5.5 34l11 108h25l-12 -108q-2 -22 -5.5 -37t-10 -28.5t-16.5 -27t-25 -32.5l-52 -64q-24 -31 -35 -52.5t-15 -51.5l-5 -49q-6 -58 17.5 -86t73.5 -28q49 0 74.5 28
t30.5 80l8 71h26l-8 -71q-7 -63 -40 -96.5t-91 -33.5zM195 678h26l-3 -34h-27z" />
    <glyph glyph-name="exclamdown.uc" horiz-adv-x="96" 
d="M76 678h26l-3 -34h-27zM71 581h17l-57 -581h-27z" />
    <glyph glyph-name="hyphen.uc" horiz-adv-x="160" 
d="M26 357h122l-2 -21h-123z" />
    <glyph glyph-name="endash.uc" horiz-adv-x="219" 
d="M20 357h193l-2 -21h-194z" />
    <glyph glyph-name="emdash.uc" horiz-adv-x="467" 
d="M20 357h442l-3 -21h-442z" />
    <glyph glyph-name="C.round" horiz-adv-x="682" 
d="M352 -8q-73 0 -133.5 26.5t-104 71.5t-68 105t-24.5 128q0 78 27.5 144t75 115t110.5 76.5t135 27.5q58 0 108 -17t89 -47.5t66 -73.5t38 -94h-25q-11 46 -36 84.5t-61 66.5t-81.5 43t-97.5 15q-68 0 -126.5 -26t-102 -71.5t-68.5 -107.5t-25 -135q0 -63 22 -119
t62.5 -98.5t96 -67t123.5 -24.5q58 0 107 18.5t87 51.5t63 78t36 98h25q-11 -59 -38.5 -108.5t-69 -85t-94.5 -55t-116 -19.5z" />
    <glyph glyph-name="D.round" horiz-adv-x="610" 
d="M270 678q72 0 132.5 -25t104 -68.5t68 -102.5t24.5 -127q0 -78 -27 -143.5t-74.5 -112.5t-111.5 -73t-137 -26h-247l70 678h198zM95 656l-66 -634h220q68 0 127.5 24.5t103 69t68.5 105.5t25 135q0 63 -22 117.5t-62.5 95t-96.5 64t-123 23.5h-174z" />
    <glyph glyph-name="G.round" horiz-adv-x="708" 
d="M647 195q-16 -43 -42 -80t-62 -64.5t-83 -43t-106 -15.5q-76 0 -137.5 26.5t-105 71.5t-67 105t-23.5 127q0 79 28.5 145.5t77.5 115t113.5 76t136.5 27.5q56 0 105 -14.5t87 -42.5t65 -68t39 -91h-25q-26 93 -97.5 143t-174.5 50q-68 0 -127.5 -25.5t-104.5 -71.5
t-71 -108.5t-26 -135.5q0 -62 21.5 -118t61.5 -98t97 -67t128 -25q67 0 119.5 22.5t91 62t61.5 93.5t31 117h-240l3 22h263l-35 -331h-23z" />
    <glyph glyph-name="O.round" horiz-adv-x="716" 
d="M21 325q0 77 28.5 143t76.5 114.5t112.5 76t136.5 27.5q73 0 134 -26.5t105 -71.5t68.5 -105.5t24.5 -127.5q0 -80 -28 -147t-76.5 -115t-112.5 -74.5t-136 -26.5q-73 0 -134 26.5t-105.5 71.5t-69 105.5t-24.5 129.5zM47 325q0 -64 22.5 -120.5t63.5 -99t97 -67
t124 -24.5q67 0 127 25.5t104 70.5t70 107.5t26 137.5q0 62 -22.5 118t-63 98t-97 67t-123.5 25q-68 0 -127.5 -26t-104 -71.5t-70.5 -107t-26 -133.5z" />
    <glyph glyph-name="Q.round" horiz-adv-x="716" 
d="M325 -23l2 16q-69 5 -125 33t-96.5 73t-62.5 103t-22 123q0 77 28.5 143t76.5 114.5t112.5 76t136.5 27.5q73 0 134 -26.5t105 -71.5t68.5 -105.5t24.5 -127.5q0 -79 -26.5 -144.5t-73 -113t-108.5 -74.5t-133 -29l264 -38l-2 -22zM47 325q0 -64 22.5 -120.5t63.5 -99
t97 -67t124 -24.5q67 0 127 25.5t104 70.5t70 107.5t26 137.5q0 62 -22.5 118t-63 98t-97 67t-123.5 25q-68 0 -127.5 -26t-104 -71.5t-70.5 -107t-26 -133.5z" />
    <glyph glyph-name="X.round" horiz-adv-x="561" 
d="M272 351l-207 327h29l197 -310l262 310h29l-278 -330l221 -348h-29l-211 330l-280 -330h-29z" />
    <glyph glyph-name="Oslash.round" horiz-adv-x="716" 
d="M21 325q0 77 28.5 143t76.5 114.5t112.5 76t136.5 27.5q63 0 117 -20t97 -55l60 67h27l-72 -81q48 -46 75.5 -108t27.5 -134q0 -80 -28 -147t-76.5 -115t-112.5 -74.5t-136 -26.5q-66 0 -121.5 20.5t-98.5 58.5l-63 -71h-27l76 85q-47 45 -73 107t-26 133zM681 355
q0 66 -24.5 123.5t-69.5 100.5l-437 -490q40 -35 91.5 -55t112.5 -20q67 0 127 25.5t104 70.5t70 107.5t26 137.5zM47 325q0 -66 23.5 -123t65.5 -99l436 489q-39 33 -88.5 52t-108.5 19q-68 0 -127.5 -26t-104 -71.5t-70.5 -107t-26 -133.5z" />
    <glyph glyph-name="Eth.round" horiz-adv-x="630" 
d="M8 356h50l33 322h198q72 0 133 -25t104.5 -68.5t68 -102.5t24.5 -127q0 -78 -27.5 -143t-74.5 -112t-111.5 -73.5t-137.5 -26.5h-247l34 334h-49zM114 656l-31 -300h199l-3 -22h-198l-32 -312h219q68 0 127.5 24.5t103 69t68.5 105.5t25 135q0 63 -22 117.5t-62.5 95
t-96.5 64t-123 23.5h-174z" />
    <glyph glyph-name="Dcroat.round" horiz-adv-x="630" 
d="M8 356h50l33 322h198q72 0 133 -25t104.5 -68.5t68 -102.5t24.5 -127q0 -78 -27.5 -143t-74.5 -112t-111.5 -73.5t-137.5 -26.5h-247l34 334h-49zM114 656l-31 -300h199l-3 -22h-198l-32 -312h219q68 0 127.5 24.5t103 69t68.5 105.5t25 135q0 63 -22 117.5t-62.5 95
t-96.5 64t-123 23.5h-174z" />
    <glyph glyph-name="Cacute.round" horiz-adv-x="682" 
d="M324 717l152 61l-3 -22l-151 -58zM352 -8q-73 0 -133.5 26.5t-104 71.5t-68 105t-24.5 128q0 78 27.5 144t75 115t110.5 76.5t135 27.5q58 0 108 -17t89 -47.5t66 -73.5t38 -94h-25q-11 46 -36 84.5t-61 66.5t-81.5 43t-97.5 15q-68 0 -126.5 -26t-102 -71.5
t-68.5 -107.5t-25 -135q0 -63 22 -119t62.5 -98.5t96 -67t123.5 -24.5q58 0 107 18.5t87 51.5t63 78t36 98h25q-11 -59 -38.5 -108.5t-69 -85t-94.5 -55t-116 -19.5z" />
    <glyph glyph-name="Ccaron.round" horiz-adv-x="682" 
d="M312 770l2 19l73 -65l88 65l-2 -19l-80 -68h-14zM352 -8q-73 0 -133.5 26.5t-104 71.5t-68 105t-24.5 128q0 78 27.5 144t75 115t110.5 76.5t135 27.5q58 0 108 -17t89 -47.5t66 -73.5t38 -94h-25q-11 46 -36 84.5t-61 66.5t-81.5 43t-97.5 15q-68 0 -126.5 -26
t-102 -71.5t-68.5 -107.5t-25 -135q0 -63 22 -119t62.5 -98.5t96 -67t123.5 -24.5q58 0 107 18.5t87 51.5t63 78t36 98h25q-11 -59 -38.5 -108.5t-69 -85t-94.5 -55t-116 -19.5z" />
    <glyph glyph-name="Ccedilla.round" horiz-adv-x="682" 
d="M282 -79q22 0 41.5 3.5t19.5 17.5q0 16 -32 16h-10l5 37q-63 8 -115.5 36.5t-90 72.5t-58 100t-20.5 119q0 78 27.5 144t75 115t110.5 76.5t135 27.5q58 0 108 -17t89 -47.5t66 -73.5t38 -94h-25q-11 46 -36 84.5t-61 66.5t-81.5 43t-97.5 15q-68 0 -126.5 -26
t-102 -71.5t-68.5 -107.5t-25 -135q0 -63 22 -119t62.5 -98.5t96 -67t123.5 -24.5q58 0 107 18.5t87 51.5t63 78t36 98h25q-11 -59 -38.5 -108.5t-69 -85t-94.5 -55t-116 -19.5h-30l-2 -17q23 0 35 -9t12 -23q0 -23 -25.5 -30.5t-61.5 -7.5z" />
    <glyph glyph-name="Ccircumflex.round" horiz-adv-x="682" 
d="M308 719l79 68h14l67 -69l-2 -18l-73 65l-87 -65zM352 -8q-73 0 -133.5 26.5t-104 71.5t-68 105t-24.5 128q0 78 27.5 144t75 115t110.5 76.5t135 27.5q58 0 108 -17t89 -47.5t66 -73.5t38 -94h-25q-11 46 -36 84.5t-61 66.5t-81.5 43t-97.5 15q-68 0 -126.5 -26
t-102 -71.5t-68.5 -107.5t-25 -135q0 -63 22 -119t62.5 -98.5t96 -67t123.5 -24.5q58 0 107 18.5t87 51.5t63 78t36 98h25q-11 -59 -38.5 -108.5t-69 -85t-94.5 -55t-116 -19.5z" />
    <glyph glyph-name="Cdotaccent.round" horiz-adv-x="682" 
d="M352 -8q-73 0 -133.5 26.5t-104 71.5t-68 105t-24.5 128q0 78 27.5 144t75 115t110.5 76.5t135 27.5q58 0 108 -17t89 -47.5t66 -73.5t38 -94h-25q-11 46 -36 84.5t-61 66.5t-81.5 43t-97.5 15q-68 0 -126.5 -26t-102 -71.5t-68.5 -107.5t-25 -135q0 -63 22 -119
t62.5 -98.5t96 -67t123.5 -24.5q58 0 107 18.5t87 51.5t63 78t36 98h25q-11 -59 -38.5 -108.5t-69 -85t-94.5 -55t-116 -19.5zM376 750h26l-3 -31h-26z" />
    <glyph glyph-name="Dcaron.round" horiz-adv-x="610" 
d="M221 770l2 19l73 -65l88 65l-2 -19l-80 -68h-14zM270 678q72 0 132.5 -25t104 -68.5t68 -102.5t24.5 -127q0 -78 -27 -143.5t-74.5 -112.5t-111.5 -73t-137 -26h-247l70 678h198zM95 656l-66 -634h220q68 0 127.5 24.5t103 69t68.5 105.5t25 135q0 63 -22 117.5t-62.5 95
t-96.5 64t-123 23.5h-174z" />
    <glyph glyph-name="Gbreve.round" horiz-adv-x="708" 
d="M647 195q-16 -43 -42 -80t-62 -64.5t-83 -43t-106 -15.5q-76 0 -137.5 26.5t-105 71.5t-67 105t-23.5 127q0 79 28.5 145.5t77.5 115t113.5 76t136.5 27.5q56 0 105 -14.5t87 -42.5t65 -68t39 -91h-25q-26 93 -97.5 143t-174.5 50q-68 0 -127.5 -25.5t-104.5 -71.5
t-71 -108.5t-26 -135.5q0 -62 21.5 -118t61.5 -98t97 -67t128 -25q67 0 119.5 22.5t91 62t61.5 93.5t31 117h-240l3 22h263l-35 -331h-23zM384 702q-34 0 -55 21t-19 56h19q-1 -27 14 -42t41 -15q25 0 41 14.5t20 42.5h19q-4 -38 -26 -57.5t-54 -19.5z" />
    <glyph glyph-name="Gcircumflex.round" horiz-adv-x="708" 
d="M302 719l79 68h14l67 -69l-2 -18l-73 65l-87 -65zM647 195q-16 -43 -42 -80t-62 -64.5t-83 -43t-106 -15.5q-76 0 -137.5 26.5t-105 71.5t-67 105t-23.5 127q0 79 28.5 145.5t77.5 115t113.5 76t136.5 27.5q56 0 105 -14.5t87 -42.5t65 -68t39 -91h-25q-26 93 -97.5 143
t-174.5 50q-68 0 -127.5 -25.5t-104.5 -71.5t-71 -108.5t-26 -135.5q0 -62 21.5 -118t61.5 -98t97 -67t128 -25q67 0 119.5 22.5t91 62t61.5 93.5t31 117h-240l3 22h263l-35 -331h-23z" />
    <glyph glyph-name="Gcommaaccent.round" horiz-adv-x="708" 
d="M316 -18h25v-2l-22 -70h-19zM647 195q-16 -43 -42 -80t-62 -64.5t-83 -43t-106 -15.5q-76 0 -137.5 26.5t-105 71.5t-67 105t-23.5 127q0 79 28.5 145.5t77.5 115t113.5 76t136.5 27.5q56 0 105 -14.5t87 -42.5t65 -68t39 -91h-25q-26 93 -97.5 143t-174.5 50
q-68 0 -127.5 -25.5t-104.5 -71.5t-71 -108.5t-26 -135.5q0 -62 21.5 -118t61.5 -98t97 -67t128 -25q67 0 119.5 22.5t91 62t61.5 93.5t31 117h-240l3 22h263l-35 -331h-23z" />
    <glyph glyph-name="Gdotaccent.round" horiz-adv-x="708" 
d="M647 195q-16 -43 -42 -80t-62 -64.5t-83 -43t-106 -15.5q-76 0 -137.5 26.5t-105 71.5t-67 105t-23.5 127q0 79 28.5 145.5t77.5 115t113.5 76t136.5 27.5q56 0 105 -14.5t87 -42.5t65 -68t39 -91h-25q-26 93 -97.5 143t-174.5 50q-68 0 -127.5 -25.5t-104.5 -71.5
t-71 -108.5t-26 -135.5q0 -62 21.5 -118t61.5 -98t97 -67t128 -25q67 0 119.5 22.5t91 62t61.5 93.5t31 117h-240l3 22h263l-35 -331h-23zM373 750h26l-3 -31h-26z" />
    <glyph glyph-name="Oacute.round" horiz-adv-x="716" 
d="M322 717l152 61l-3 -22l-151 -58zM21 325q0 77 28.5 143t76.5 114.5t112.5 76t136.5 27.5q73 0 134 -26.5t105 -71.5t68.5 -105.5t24.5 -127.5q0 -80 -28 -147t-76.5 -115t-112.5 -74.5t-136 -26.5q-73 0 -134 26.5t-105.5 71.5t-69 105.5t-24.5 129.5zM47 325
q0 -64 22.5 -120.5t63.5 -99t97 -67t124 -24.5q67 0 127 25.5t104 70.5t70 107.5t26 137.5q0 62 -22.5 118t-63 98t-97 67t-123.5 25q-68 0 -127.5 -26t-104 -71.5t-70.5 -107t-26 -133.5z" />
    <glyph glyph-name="Obreve.round" horiz-adv-x="716" 
d="M21 325q0 77 28.5 143t76.5 114.5t112.5 76t136.5 27.5q73 0 134 -26.5t105 -71.5t68.5 -105.5t24.5 -127.5q0 -80 -28 -147t-76.5 -115t-112.5 -74.5t-136 -26.5q-73 0 -134 26.5t-105.5 71.5t-69 105.5t-24.5 129.5zM47 325q0 -64 22.5 -120.5t63.5 -99t97 -67
t124 -24.5q67 0 127 25.5t104 70.5t70 107.5t26 137.5q0 62 -22.5 118t-63 98t-97 67t-123.5 25q-68 0 -127.5 -26t-104 -71.5t-70.5 -107t-26 -133.5zM388 702q-34 0 -55 21t-19 56h19q-1 -27 14 -42t41 -15q25 0 41 14.5t20 42.5h19q-4 -38 -26 -57.5t-54 -19.5z" />
    <glyph glyph-name="Ocircumflex.round" horiz-adv-x="716" 
d="M305 719l79 68h14l67 -69l-2 -18l-73 65l-87 -65zM21 325q0 77 28.5 143t76.5 114.5t112.5 76t136.5 27.5q73 0 134 -26.5t105 -71.5t68.5 -105.5t24.5 -127.5q0 -80 -28 -147t-76.5 -115t-112.5 -74.5t-136 -26.5q-73 0 -134 26.5t-105.5 71.5t-69 105.5t-24.5 129.5z
M47 325q0 -64 22.5 -120.5t63.5 -99t97 -67t124 -24.5q67 0 127 25.5t104 70.5t70 107.5t26 137.5q0 62 -22.5 118t-63 98t-97 67t-123.5 25q-68 0 -127.5 -26t-104 -71.5t-70.5 -107t-26 -133.5z" />
    <glyph glyph-name="Odieresis.round" horiz-adv-x="716" 
d="M340 750h25l-4 -31h-24zM412 750h24l-3 -31h-25zM21 325q0 77 28.5 143t76.5 114.5t112.5 76t136.5 27.5q73 0 134 -26.5t105 -71.5t68.5 -105.5t24.5 -127.5q0 -80 -28 -147t-76.5 -115t-112.5 -74.5t-136 -26.5q-73 0 -134 26.5t-105.5 71.5t-69 105.5t-24.5 129.5z
M47 325q0 -64 22.5 -120.5t63.5 -99t97 -67t124 -24.5q67 0 127 25.5t104 70.5t70 107.5t26 137.5q0 62 -22.5 118t-63 98t-97 67t-123.5 25q-68 0 -127.5 -26t-104 -71.5t-70.5 -107t-26 -133.5z" />
    <glyph glyph-name="Ograve.round" horiz-adv-x="716" 
d="M21 325q0 77 28.5 143t76.5 114.5t112.5 76t136.5 27.5q73 0 134 -26.5t105 -71.5t68.5 -105.5t24.5 -127.5q0 -80 -28 -147t-76.5 -115t-112.5 -74.5t-136 -26.5q-73 0 -134 26.5t-105.5 71.5t-69 105.5t-24.5 129.5zM47 325q0 -64 22.5 -120.5t63.5 -99t97 -67
t124 -24.5q67 0 127 25.5t104 70.5t70 107.5t26 137.5q0 62 -22.5 118t-63 98t-97 67t-123.5 25q-68 0 -127.5 -26t-104 -71.5t-70.5 -107t-26 -133.5zM313 757l2 21l139 -62l-2 -18z" />
    <glyph glyph-name="Ohungarumlaut.round" horiz-adv-x="716" 
d="M21 325q0 77 28.5 143t76.5 114.5t112.5 76t136.5 27.5q73 0 134 -26.5t105 -71.5t68.5 -105.5t24.5 -127.5q0 -80 -28 -147t-76.5 -115t-112.5 -74.5t-136 -26.5q-73 0 -134 26.5t-105.5 71.5t-69 105.5t-24.5 129.5zM47 325q0 -64 22.5 -120.5t63.5 -99t97 -67
t124 -24.5q67 0 127 25.5t104 70.5t70 107.5t26 137.5q0 62 -22.5 118t-63 98t-97 67t-123.5 25q-68 0 -127.5 -26t-104 -71.5t-70.5 -107t-26 -133.5zM381 787h24l-47 -87h-20zM449 787h24l-47 -87h-20z" />
    <glyph glyph-name="Omacron.round" horiz-adv-x="716" 
d="M21 325q0 77 28.5 143t76.5 114.5t112.5 76t136.5 27.5q73 0 134 -26.5t105 -71.5t68.5 -105.5t24.5 -127.5q0 -80 -28 -147t-76.5 -115t-112.5 -74.5t-136 -26.5q-73 0 -134 26.5t-105.5 71.5t-69 105.5t-24.5 129.5zM47 325q0 -64 22.5 -120.5t63.5 -99t97 -67
t124 -24.5q67 0 127 25.5t104 70.5t70 107.5t26 137.5q0 62 -22.5 118t-63 98t-97 67t-123.5 25q-68 0 -127.5 -26t-104 -71.5t-70.5 -107t-26 -133.5zM314 739h145l-2 -19h-145z" />
    <glyph glyph-name="Otilde.round" horiz-adv-x="716" 
d="M21 325q0 77 28.5 143t76.5 114.5t112.5 76t136.5 27.5q73 0 134 -26.5t105 -71.5t68.5 -105.5t24.5 -127.5q0 -80 -28 -147t-76.5 -115t-112.5 -74.5t-136 -26.5q-73 0 -134 26.5t-105.5 71.5t-69 105.5t-24.5 129.5zM47 325q0 -64 22.5 -120.5t63.5 -99t97 -67
t124 -24.5q67 0 127 25.5t104 70.5t70 107.5t26 137.5q0 62 -22.5 118t-63 98t-97 67t-123.5 25q-68 0 -127.5 -26t-104 -71.5t-70.5 -107t-26 -133.5zM303 717q2 22 14 37t35 15q11 0 20.5 -4.5t18.5 -10t18 -10t18 -4.5q14 0 20.5 10t8.5 23h18q-2 -23 -14 -37.5
t-35 -14.5q-11 0 -20.5 4.5t-18.5 9.5t-18 9.5t-18 4.5q-14 0 -21 -9.5t-9 -22.5h-17z" />
    <glyph glyph-name="zero.round" horiz-adv-x="716" 
d="M21 325q0 77 28.5 143t76.5 114.5t112.5 76t136.5 27.5q73 0 134 -26.5t105 -71.5t68.5 -105.5t24.5 -127.5q0 -80 -28 -147t-76.5 -115t-112.5 -74.5t-136 -26.5q-73 0 -134 26.5t-105.5 71.5t-69 105.5t-24.5 129.5zM47 325q0 -64 22.5 -120.5t63.5 -99t97 -67
t124 -24.5q67 0 127 25.5t104 70.5t70 107.5t26 137.5q0 62 -22.5 118t-63 98t-97 67t-123.5 25q-68 0 -127.5 -26t-104 -71.5t-70.5 -107t-26 -133.5z" />
    <glyph glyph-name="G.altround" horiz-adv-x="694" 
d="M424 334h264q-3 -78 -27.5 -141.5t-68 -108t-104 -68.5t-134.5 -24t-135.5 26t-105.5 71t-68 105.5t-24 129.5q0 77 28.5 143.5t77 115t113 76t136.5 27.5q56 0 104.5 -14.5t86.5 -41.5t64.5 -66.5t39.5 -89.5h-26q-26 90 -97 139.5t-173 49.5q-68 0 -127.5 -26
t-104 -71.5t-70.5 -107.5t-26 -134q0 -63 22.5 -119.5t63 -99t97 -67t124.5 -24.5q66 0 120.5 21t94 60t63 94t29.5 123h-240z" />
    <glyph glyph-name="Q.altround" horiz-adv-x="716" 
d="M21 325q0 77 28.5 143t76.5 114.5t112.5 76t136.5 27.5q73 0 134 -26.5t105 -71.5t68.5 -105.5t24.5 -127.5q0 -102 -43.5 -180.5t-115.5 -125.5l75 -94v-1h-28l-67 83q-39 -22 -82.5 -33.5t-91.5 -11.5q-73 0 -134 26.5t-105.5 71.5t-69 105.5t-24.5 129.5zM47 325
q0 -64 22.5 -120.5t63.5 -99t97 -67t124 -24.5q88 0 159 41l-84 105v1h29l75 -94q67 44 107.5 118t40.5 170q0 62 -22.5 118t-63 98t-97 67t-123.5 25q-68 0 -127.5 -26t-104 -71.5t-70.5 -107t-26 -133.5z" />
    <glyph glyph-name="Gbreve.altround" horiz-adv-x="694" 
d="M424 334h264q-3 -78 -27.5 -141.5t-68 -108t-104 -68.5t-134.5 -24t-135.5 26t-105.5 71t-68 105.5t-24 129.5q0 77 28.5 143.5t77 115t113 76t136.5 27.5q56 0 104.5 -14.5t86.5 -41.5t64.5 -66.5t39.5 -89.5h-26q-26 90 -97 139.5t-173 49.5q-68 0 -127.5 -26
t-104 -71.5t-70.5 -107.5t-26 -134q0 -63 22.5 -119.5t63 -99t97 -67t124.5 -24.5q66 0 120.5 21t94 60t63 94t29.5 123h-240zM386 702q-34 0 -55 21t-19 56h19q-1 -27 14 -42t41 -15q25 0 41 14.5t20 42.5h19q-4 -38 -26 -57.5t-54 -19.5z" />
    <glyph glyph-name="Gcircumflex.altround" horiz-adv-x="694" 
d="M308 719l79 68h14l67 -69l-2 -18l-73 65l-87 -65zM424 334h264q-3 -78 -27.5 -141.5t-68 -108t-104 -68.5t-134.5 -24t-135.5 26t-105.5 71t-68 105.5t-24 129.5q0 77 28.5 143.5t77 115t113 76t136.5 27.5q56 0 104.5 -14.5t86.5 -41.5t64.5 -66.5t39.5 -89.5h-26
q-26 90 -97 139.5t-173 49.5q-68 0 -127.5 -26t-104 -71.5t-70.5 -107.5t-26 -134q0 -63 22.5 -119.5t63 -99t97 -67t124.5 -24.5q66 0 120.5 21t94 60t63 94t29.5 123h-240z" />
    <glyph glyph-name="Gcommaaccent.altround" horiz-adv-x="697" 
d="M319 -18h25v-2l-22 -70h-19zM424 334h264q-3 -78 -27.5 -141.5t-68 -108t-104 -68.5t-134.5 -24t-135.5 26t-105.5 71t-68 105.5t-24 129.5q0 77 28.5 143.5t77 115t113 76t136.5 27.5q56 0 104.5 -14.5t86.5 -41.5t64.5 -66.5t39.5 -89.5h-26q-26 90 -97 139.5
t-173 49.5q-68 0 -127.5 -26t-104 -71.5t-70.5 -107.5t-26 -134q0 -63 22.5 -119.5t63 -99t97 -67t124.5 -24.5q66 0 120.5 21t94 60t63 94t29.5 123h-240z" />
    <glyph glyph-name="Gdotaccent.altround" horiz-adv-x="694" 
d="M424 334h264q-3 -78 -27.5 -141.5t-68 -108t-104 -68.5t-134.5 -24t-135.5 26t-105.5 71t-68 105.5t-24 129.5q0 77 28.5 143.5t77 115t113 76t136.5 27.5q56 0 104.5 -14.5t86.5 -41.5t64.5 -66.5t39.5 -89.5h-26q-26 90 -97 139.5t-173 49.5q-68 0 -127.5 -26
t-104 -71.5t-70.5 -107.5t-26 -134q0 -63 22.5 -119.5t63 -99t97 -67t124.5 -24.5q66 0 120.5 21t94 60t63 94t29.5 123h-240zM374 750h26l-3 -31h-26z" />
    <glyph glyph-name="f.short" horiz-adv-x="169" 
d="M41 567h45l5 42q4 38 21.5 53.5t58.5 15.5h31l-2 -20h-26q-30 0 -42.5 -11t-15.5 -40l-4 -40h78l-2 -20h-78l-57 -547h-26l57 547h-45z" />
    <glyph glyph-name="f_f.short" horiz-adv-x="323" 
d="M237 547h-127l-57 -547h-26l57 547h-45l2 20h45l5 42q4 38 21.5 53.5t58.5 15.5h33l-2 -20h-28q-30 0 -42.5 -11t-15.5 -40l-4 -40h127l5 42q5 38 22.5 53.5t57.5 15.5h32l-3 -20h-26q-30 0 -42.5 -11t-14.5 -40l-4 -40h78l-3 -20h-77l-58 -547h-25z" />
    <glyph glyph-name="i.low" horiz-adv-x="92" 
d="M61 567h25l-59 -567h-25zM69 645h25l-3 -31h-25z" />
    <glyph glyph-name="j.low" horiz-adv-x="92" 
d="M69 645h25l-3 -31h-25zM-51 -69h11q21 0 28.5 9t9.5 30l63 597h25l-62 -598q-4 -32 -17 -45.5t-45 -13.5h-15z" />
    <glyph glyph-name="K.alt" horiz-adv-x="302" 
d="M73 678h26l-34 -327h72l164 327h28l-166 -327q33 -1 54 -11t32 -26.5t14.5 -39t0.5 -47.5l-19 -186q-3 -21 18 -21h6l-3 -20h-11q-41 0 -37 42l20 188q5 46 -13 72.5t-71 26.5h-92l-34 -329h-26z" />
    <glyph glyph-name="Kcommaaccent.alt" horiz-adv-x="302" 
d="M73 678h26l-34 -327h72l164 327h28l-166 -327q33 -1 54 -11t32 -26.5t14.5 -39t0.5 -47.5l-19 -186q-3 -21 18 -21h6l-3 -20h-11q-41 0 -37 42l20 188q5 46 -13 72.5t-71 26.5h-92l-34 -329h-26zM114 -18h25v-2l-22 -70h-19z" />
    <glyph glyph-name="a.tail" horiz-adv-x="312" 
d="M113 -5q-54 0 -84 32.5t-22 100.5l5 47q3 33 13.5 54.5t27 36t38.5 25.5t50 23q64 26 89.5 44t27.5 40l4 43q6 53 -12.5 81t-69.5 28q-48 0 -71.5 -25.5t-28.5 -73.5l-5 -53h-25l5 54q7 57 37 88.5t88 31.5q63 0 88.5 -34t18.5 -97l-40 -392q-2 -17 3.5 -22.5t18.5 -5.5
h9l-2 -21h-14q-20 0 -31.5 9.5t-9.5 33.5l2 19h-1q-14 -27 -40.5 -47t-68.5 -20zM118 17q20 0 39 6.5t34 19.5t25 33t13 46l24 232q-4 -5 -10.5 -10.5t-18 -12.5t-30.5 -16t-48 -22q-26 -11 -45 -21t-32.5 -22.5t-21 -29.5t-10.5 -44l-5 -48q-6 -57 17 -84t69 -27z" />
    <glyph glyph-name="aacute.tail" horiz-adv-x="312" 
d="M113 -5q-54 0 -84 32.5t-22 100.5l5 47q3 33 13.5 54.5t27 36t38.5 25.5t50 23q64 26 89.5 44t27.5 40l4 43q6 53 -12.5 81t-69.5 28q-48 0 -71.5 -25.5t-28.5 -73.5l-5 -53h-25l5 54q7 57 37 88.5t88 31.5q63 0 88.5 -34t18.5 -97l-40 -392q-2 -17 3.5 -22.5t18.5 -5.5
h9l-2 -21h-14q-20 0 -31.5 9.5t-9.5 33.5l2 19h-1q-14 -27 -40.5 -47t-68.5 -20zM118 17q20 0 39 6.5t34 19.5t25 33t13 46l24 232q-4 -5 -10.5 -10.5t-18 -12.5t-30.5 -16t-48 -22q-26 -11 -45 -21t-32.5 -22.5t-21 -29.5t-10.5 -44l-5 -48q-6 -57 17 -84t69 -27zM130 612
l152 61l-3 -22l-151 -58z" />
    <glyph glyph-name="abreve.tail" horiz-adv-x="312" 
d="M113 -5q-54 0 -84 32.5t-22 100.5l5 47q3 33 13.5 54.5t27 36t38.5 25.5t50 23q64 26 89.5 44t27.5 40l4 43q6 53 -12.5 81t-69.5 28q-48 0 -71.5 -25.5t-28.5 -73.5l-5 -53h-25l5 54q7 57 37 88.5t88 31.5q63 0 88.5 -34t18.5 -97l-40 -392q-2 -17 3.5 -22.5t18.5 -5.5
h9l-2 -21h-14q-20 0 -31.5 9.5t-9.5 33.5l2 19h-1q-14 -27 -40.5 -47t-68.5 -20zM118 17q20 0 39 6.5t34 19.5t25 33t13 46l24 232q-4 -5 -10.5 -10.5t-18 -12.5t-30.5 -16t-48 -22q-26 -11 -45 -21t-32.5 -22.5t-21 -29.5t-10.5 -44l-5 -48q-6 -57 17 -84t69 -27zM190 597
q-34 0 -55 21t-19 56h19q-1 -27 14 -42t41 -15q25 0 41 14.5t20 42.5h19q-4 -38 -26 -57.5t-54 -19.5z" />
    <glyph glyph-name="acircumflex.tail" horiz-adv-x="312" 
d="M108 614l79 68h14l67 -69l-2 -18l-73 65l-87 -65zM113 -5q-54 0 -84 32.5t-22 100.5l5 47q3 33 13.5 54.5t27 36t38.5 25.5t50 23q64 26 89.5 44t27.5 40l4 43q6 53 -12.5 81t-69.5 28q-48 0 -71.5 -25.5t-28.5 -73.5l-5 -53h-25l5 54q7 57 37 88.5t88 31.5
q63 0 88.5 -34t18.5 -97l-40 -392q-2 -17 3.5 -22.5t18.5 -5.5h9l-2 -21h-14q-20 0 -31.5 9.5t-9.5 33.5l2 19h-1q-14 -27 -40.5 -47t-68.5 -20zM118 17q20 0 39 6.5t34 19.5t25 33t13 46l24 232q-4 -5 -10.5 -10.5t-18 -12.5t-30.5 -16t-48 -22q-26 -11 -45 -21
t-32.5 -22.5t-21 -29.5t-10.5 -44l-5 -48q-6 -57 17 -84t69 -27z" />
    <glyph glyph-name="adieresis.tail" horiz-adv-x="312" 
d="M143 645h25l-4 -31h-24zM215 645h24l-3 -31h-25zM113 -5q-54 0 -84 32.5t-22 100.5l5 47q3 33 13.5 54.5t27 36t38.5 25.5t50 23q64 26 89.5 44t27.5 40l4 43q6 53 -12.5 81t-69.5 28q-48 0 -71.5 -25.5t-28.5 -73.5l-5 -53h-25l5 54q7 57 37 88.5t88 31.5q63 0 88.5 -34
t18.5 -97l-40 -392q-2 -17 3.5 -22.5t18.5 -5.5h9l-2 -21h-14q-20 0 -31.5 9.5t-9.5 33.5l2 19h-1q-14 -27 -40.5 -47t-68.5 -20zM118 17q20 0 39 6.5t34 19.5t25 33t13 46l24 232q-4 -5 -10.5 -10.5t-18 -12.5t-30.5 -16t-48 -22q-26 -11 -45 -21t-32.5 -22.5t-21 -29.5
t-10.5 -44l-5 -48q-6 -57 17 -84t69 -27z" />
    <glyph glyph-name="agrave.tail" horiz-adv-x="312" 
d="M113 -5q-54 0 -84 32.5t-22 100.5l5 47q3 33 13.5 54.5t27 36t38.5 25.5t50 23q64 26 89.5 44t27.5 40l4 43q6 53 -12.5 81t-69.5 28q-48 0 -71.5 -25.5t-28.5 -73.5l-5 -53h-25l5 54q7 57 37 88.5t88 31.5q63 0 88.5 -34t18.5 -97l-40 -392q-2 -17 3.5 -22.5t18.5 -5.5
h9l-2 -21h-14q-20 0 -31.5 9.5t-9.5 33.5l2 19h-1q-14 -27 -40.5 -47t-68.5 -20zM118 17q20 0 39 6.5t34 19.5t25 33t13 46l24 232q-4 -5 -10.5 -10.5t-18 -12.5t-30.5 -16t-48 -22q-26 -11 -45 -21t-32.5 -22.5t-21 -29.5t-10.5 -44l-5 -48q-6 -57 17 -84t69 -27zM112 652
l2 21l139 -62l-2 -18z" />
    <glyph glyph-name="amacron.tail" horiz-adv-x="312" 
d="M113 -5q-54 0 -84 32.5t-22 100.5l5 47q3 33 13.5 54.5t27 36t38.5 25.5t50 23q64 26 89.5 44t27.5 40l4 43q6 53 -12.5 81t-69.5 28q-48 0 -71.5 -25.5t-28.5 -73.5l-5 -53h-25l5 54q7 57 37 88.5t88 31.5q63 0 88.5 -34t18.5 -97l-40 -392q-2 -17 3.5 -22.5t18.5 -5.5
h9l-2 -21h-14q-20 0 -31.5 9.5t-9.5 33.5l2 19h-1q-14 -27 -40.5 -47t-68.5 -20zM118 17q20 0 39 6.5t34 19.5t25 33t13 46l24 232q-4 -5 -10.5 -10.5t-18 -12.5t-30.5 -16t-48 -22q-26 -11 -45 -21t-32.5 -22.5t-21 -29.5t-10.5 -44l-5 -48q-6 -57 17 -84t69 -27zM117 634
h145l-2 -19h-145z" />
    <glyph glyph-name="aogonek.tail" horiz-adv-x="312" 
d="M208 -53q0 19 10.5 31.5t27.5 23.5q-14 3 -20.5 14t-3.5 36l1 10h-1q-14 -27 -40.5 -47t-68.5 -20q-54 0 -84 32.5t-22 100.5l5 47q3 33 13.5 54.5t27 36t38.5 25.5t50 23q64 26 89.5 44t27.5 40l4 43q6 53 -12.5 81t-69.5 28q-48 0 -71.5 -25.5t-28.5 -73.5l-5 -53h-25
l5 54q7 57 37 88.5t88 31.5q63 0 88.5 -34t18.5 -97l-40 -392q-2 -17 4.5 -22.5t19.5 -5.5h7l-2 -21q-17 -8 -30 -21t-13 -28q0 -8 5.5 -14t21.5 -6h10l-3 -21h-10q-26 0 -37.5 10.5t-11.5 26.5zM118 17q20 0 39 6.5t34 19.5t25 33t13 46l24 232q-4 -5 -10.5 -10.5
t-18 -12.5t-30.5 -16t-48 -22q-26 -11 -45 -21t-32.5 -22.5t-21 -29.5t-10.5 -44l-5 -48q-6 -57 17 -84t69 -27z" />
    <glyph glyph-name="aring.tail" horiz-adv-x="312" 
d="M113 -5q-54 0 -84 32.5t-22 100.5l5 47q3 33 13.5 54.5t27 36t38.5 25.5t50 23q64 26 89.5 44t27.5 40l4 43q6 53 -12.5 81t-69.5 28q-48 0 -71.5 -25.5t-28.5 -73.5l-5 -53h-25l5 54q7 57 37 88.5t88 31.5q63 0 88.5 -34t18.5 -97l-40 -392q-2 -17 3.5 -22.5t18.5 -5.5
h9l-2 -21h-14q-20 0 -31.5 9.5t-9.5 33.5l2 19h-1q-14 -27 -40.5 -47t-68.5 -20zM118 17q20 0 39 6.5t34 19.5t25 33t13 46l24 232q-4 -5 -10.5 -10.5t-18 -12.5t-30.5 -16t-48 -22q-26 -11 -45 -21t-32.5 -22.5t-21 -29.5t-10.5 -44l-5 -48q-6 -57 17 -84t69 -27zM189 592
q-23 0 -39 16t-16 40q0 23 16 39.5t39 16.5q25 0 41 -16.5t16 -39.5q0 -24 -16 -40t-41 -16zM189 607q17 0 28.5 12t11.5 29t-11.5 29t-28.5 12t-27.5 -12t-10.5 -29t10.5 -29t27.5 -12z" />
    <glyph glyph-name="atilde.tail" horiz-adv-x="312" 
d="M113 -5q-54 0 -84 32.5t-22 100.5l5 47q3 33 13.5 54.5t27 36t38.5 25.5t50 23q64 26 89.5 44t27.5 40l4 43q6 53 -12.5 81t-69.5 28q-48 0 -71.5 -25.5t-28.5 -73.5l-5 -53h-25l5 54q7 57 37 88.5t88 31.5q63 0 88.5 -34t18.5 -97l-40 -392q-2 -17 3.5 -22.5t18.5 -5.5
h9l-2 -21h-14q-20 0 -31.5 9.5t-9.5 33.5l2 19h-1q-14 -27 -40.5 -47t-68.5 -20zM118 17q20 0 39 6.5t34 19.5t25 33t13 46l24 232q-4 -5 -10.5 -10.5t-18 -12.5t-30.5 -16t-48 -22q-26 -11 -45 -21t-32.5 -22.5t-21 -29.5t-10.5 -44l-5 -48q-6 -57 17 -84t69 -27zM101 612
q2 22 14 37t35 15q11 0 20.5 -4.5t18.5 -10t18 -10t18 -4.5q14 0 20.5 10t8.5 23h18q-2 -23 -14 -37.5t-35 -14.5q-11 0 -20.5 4.5t-18.5 9.5t-18 9.5t-18 4.5q-14 0 -21 -9.5t-9 -22.5h-17z" />
    <glyph glyph-name="d.tail" horiz-adv-x="326" 
d="M129 16q45 0 76.5 32.5t37.5 93.5l31 294q6 55 -22.5 84.5t-71.5 29.5q-47 0 -75.5 -26t-33.5 -80l-32 -314q-6 -55 18 -84.5t72 -29.5zM123 -5q-54 0 -85.5 33.5t-24.5 102.5l33 315q7 66 42 96t86 30q46 0 72 -21.5t34 -50.5h1l18 178h25l-65 -629q-2 -17 4 -22.5
t18 -5.5h9l-2 -21h-14q-20 0 -31 10t-9 36l3 24h-2q-12 -29 -39 -52t-73 -23z" />
    <glyph glyph-name="dcaron.tail" horiz-adv-x="326" 
d="M352 678h22v-2l-18 -89h-17zM129 16q45 0 76.5 32.5t37.5 93.5l31 294q6 55 -22.5 84.5t-71.5 29.5q-47 0 -75.5 -26t-33.5 -80l-32 -314q-6 -55 18 -84.5t72 -29.5zM123 -5q-54 0 -85.5 33.5t-24.5 102.5l33 315q7 66 42 96t86 30q46 0 72 -21.5t34 -50.5h1l18 178h25
l-65 -629q-2 -17 4 -22.5t18 -5.5h9l-2 -21h-14q-20 0 -31 10t-9 36l3 24h-2q-12 -29 -39 -52t-73 -23z" />
    <glyph glyph-name="dcroat.tail" horiz-adv-x="326" 
d="M187 631h107l5 47h25l-5 -47h38l-2 -17h-38l-58 -565q-2 -17 4 -22.5t18 -5.5h9l-2 -21h-14q-20 0 -31 10t-9 36l3 24h-2q-12 -29 -39 -52t-73 -23q-54 0 -85.5 33.5t-24.5 102.5l33 315q7 66 42 96t86 30q46 0 72 -21.5t34 -50.5h1l11 114h-107zM129 16q45 0 76.5 32.5
t37.5 93.5l31 294q6 55 -22.5 84.5t-71.5 29.5q-47 0 -75.5 -26t-33.5 -80l-32 -314q-6 -55 18 -84.5t72 -29.5z" />
    <glyph glyph-name="dotlessi.tail" horiz-adv-x="100" 
d="M47 0q-21 0 -32 10.5t-8 38.5l54 518h25l-54 -518q-2 -17 4 -22.5t18 -5.5h9l-2 -21h-14z" />
    <glyph glyph-name="f.alt" horiz-adv-x="180" 
d="M41 567h46l4 42q4 38 21.5 53.5t58.5 15.5h38l-2 -20h-33q-30 0 -42.5 -11t-15.5 -40l-4 -40h85l-2 -20h-85l-63 -637h-26l64 637h-46z" />
    <glyph glyph-name="f.shortalt" horiz-adv-x="169" 
d="M41 567h46l4 42q4 38 21.5 53.5t58.5 15.5h31l-2 -20h-26q-30 0 -42.5 -11t-15.5 -40l-4 -40h78l-2 -20h-78l-63 -637h-26l64 637h-46z" />
    <glyph glyph-name="f.shorttail" horiz-adv-x="169" 
d="M41 567h46l4 42q4 38 21.5 53.5t58.5 15.5h31l-2 -20h-26q-30 0 -42.5 -11t-15.5 -40l-4 -40h78l-2 -20h-78l-58 -579q-3 -32 -16.5 -45t-45.5 -13h-13l3 21h8q21 0 29 9.5t10 30.5l58 576h-46z" />
    <glyph glyph-name="f.tail" horiz-adv-x="180" 
d="M41 567h46l4 42q4 38 21.5 53.5t58.5 15.5h38l-2 -20h-33q-30 0 -42.5 -11t-15.5 -40l-4 -40h85l-2 -20h-85l-58 -579q-3 -32 -16.5 -45t-45.5 -13h-13l3 21h8q21 0 29 9.5t10 30.5l58 576h-46z" />
    <glyph glyph-name="h.tail" horiz-adv-x="320" 
d="M73 678h25l-19 -181h1q6 13 16 26.5t24 24.5t32.5 17.5t41.5 6.5q52 0 80.5 -35.5t20.5 -106.5l-40 -381q-2 -17 4 -22.5t18 -5.5h9l-2 -21h-14q-21 0 -32 10.5t-8 38.5l40 382q6 58 -15.5 88.5t-68.5 30.5q-48 0 -78.5 -35t-36.5 -90l-44 -425h-25z" />
    <glyph glyph-name="hbar.tail" horiz-adv-x="320" 
d="M32 631h36l5 47h25l-5 -47h110l-3 -17h-109l-12 -117h1q6 13 16 26.5t24 24.5t32.5 17.5t41.5 6.5q52 0 80.5 -35.5t20.5 -106.5l-40 -381q-2 -17 4 -22.5t18 -5.5h9l-2 -21h-14q-21 0 -32 10.5t-8 38.5l40 382q6 58 -15.5 88.5t-68.5 30.5q-48 0 -78.5 -35t-36.5 -90
l-44 -425h-25l64 614h-36z" />
    <glyph glyph-name="hcircumflex.tail" horiz-adv-x="320" 
d="M122 719l79 68h14l67 -69l-2 -18l-73 65l-87 -65zM73 678h25l-19 -181h1q6 13 16 26.5t24 24.5t32.5 17.5t41.5 6.5q52 0 80.5 -35.5t20.5 -106.5l-40 -381q-2 -17 4 -22.5t18 -5.5h9l-2 -21h-14q-21 0 -32 10.5t-8 38.5l40 382q6 58 -15.5 88.5t-68.5 30.5
q-48 0 -78.5 -35t-36.5 -90l-44 -425h-25z" />
    <glyph glyph-name="i.tail" horiz-adv-x="100" 
d="M73 678h25l-3 -31h-26zM47 0q-21 0 -32 10.5t-8 38.5l54 518h25l-54 -518q-2 -17 4 -22.5t18 -5.5h9l-2 -21h-14z" />
    <glyph glyph-name="i.lowtail" horiz-adv-x="100" 
d="M69 645h25l-3 -31h-25zM47 0q-21 0 -32 10.5t-8 38.5l54 518h25l-54 -518q-2 -17 4 -22.5t18 -5.5h9l-2 -21h-14z" />
    <glyph glyph-name="iacute.tail" horiz-adv-x="100" 
d="M37 613l104 60l-3 -22l-104 -58zM47 0q-21 0 -32 10.5t-8 38.5l54 518h25l-54 -518q-2 -17 4 -22.5t18 -5.5h9l-2 -21h-14z" />
    <glyph glyph-name="ibreve.tail" horiz-adv-x="100" 
d="M81 597q-27 0 -43 20t-13 57h19q-3 -29 7.5 -43.5t30.5 -14.5q18 0 29.5 13t14.5 45h18q-3 -39 -20 -58t-43 -19zM47 0q-21 0 -32 10.5t-8 38.5l54 518h25l-54 -518q-2 -17 4 -22.5t18 -5.5h9l-2 -21h-14z" />
    <glyph glyph-name="icircumflex.tail" horiz-adv-x="100" 
d="M21 615l58 67h14l42 -67l-2 -20l-48 65l-66 -65zM47 0q-21 0 -32 10.5t-8 38.5l54 518h25l-54 -518q-2 -17 4 -22.5t18 -5.5h9l-2 -21h-14z" />
    <glyph glyph-name="idieresis.tail" horiz-adv-x="100" 
d="M41 645h21l-3 -31h-21zM100 645h21l-3 -31h-21zM47 0q-21 0 -32 10.5t-8 38.5l54 518h25l-54 -518q-2 -17 4 -22.5t18 -5.5h9l-2 -21h-14z" />
    <glyph glyph-name="idotaccent.tail" horiz-adv-x="100" 
d="M73 678h25l-3 -31h-26zM47 0q-21 0 -32 10.5t-8 38.5l54 518h25l-54 -518q-2 -17 4 -22.5t18 -5.5h9l-2 -21h-14z" />
    <glyph glyph-name="igrave.tail" horiz-adv-x="100" 
d="M27 651l2 22l92 -62l-2 -18zM47 0q-21 0 -32 10.5t-8 38.5l54 518h25l-54 -518q-2 -17 4 -22.5t18 -5.5h9l-2 -21h-14z" />
    <glyph glyph-name="imacron.tail" horiz-adv-x="100" 
d="M32 634h97l-2 -19h-97zM47 0q-21 0 -32 10.5t-8 38.5l54 518h25l-54 -518q-2 -17 4 -22.5t18 -5.5h9l-2 -21h-14z" />
    <glyph glyph-name="iogonek.tail" horiz-adv-x="100" 
d="M73 678h25l-3 -31h-26zM61 567h25l-54 -518q-2 -17 4.5 -22.5t19.5 -5.5h7l-2 -21q-17 -8 -30 -21t-13 -28q0 -8 5.5 -14t21.5 -6h10l-3 -21h-10q-26 0 -37.5 10.5t-11.5 26.5q0 19 10.5 31.5t27.5 23.5q-14 3 -20 13t-4 34z" />
    <glyph glyph-name="itilde.tail" horiz-adv-x="100" 
d="M8 612q3 26 14 39t27 13q9 0 18 -4.5t17 -10t15 -10t14 -4.5q20 0 23 33h17q-5 -52 -40 -52q-9 0 -18 4.5t-17 10t-15 10t-14 4.5q-10 0 -16 -9t-8 -24h-17zM47 0q-21 0 -32 10.5t-8 38.5l54 518h25l-54 -518q-2 -17 4 -22.5t18 -5.5h9l-2 -21h-14z" />
    <glyph glyph-name="ij.tail" horiz-adv-x="184" 
d="M73 678h25l-3 -31h-26zM47 0q-21 0 -32 10.5t-8 38.5l54 518h25l-54 -518q-2 -17 4 -22.5t18 -5.5h7l-2 -21h-12zM44 -69h10q21 0 29 9t10 30l62 597h26l-62 -598q-4 -32 -17.5 -45.5t-45.5 -13.5h-14zM167 678h26l-3 -31h-26z" />
    <glyph glyph-name="k.alt" horiz-adv-x="289" 
d="M73 678h25l-39 -376h66l145 265h26l-146 -267q48 -3 73 -33t17 -96l-13 -126q-2 -14 2.5 -19t15.5 -5h5l-2 -21h-10q-40 0 -36 45l13 127q6 57 -15 82.5t-66 25.5h-78l-29 -280h-25z" />
    <glyph glyph-name="k.tail" horiz-adv-x="288" 
d="M240 0q-21 0 -32 10.5t-8 38.5l13 129q7 58 -14.5 80t-66.5 22h-76l-29 -280h-25l71 678h25l-39 -376h66l145 265h26l-145 -266q45 -3 70 -31t18 -94l-14 -127q-2 -17 4 -22.5t18 -5.5h9l-2 -21h-14z" />
    <glyph glyph-name="kcommaaccent.alt" horiz-adv-x="289" 
d="M73 678h25l-39 -376h66l145 265h26l-146 -267q48 -3 73 -33t17 -96l-13 -126q-2 -14 2.5 -19t15.5 -5h5l-2 -21h-10q-40 0 -36 45l13 127q6 57 -15 82.5t-66 25.5h-78l-29 -280h-25zM108 -18h25v-2l-22 -70h-19z" />
    <glyph glyph-name="kcommaaccent.tail" horiz-adv-x="288" 
d="M240 0q-21 0 -32 10.5t-8 38.5l13 129q7 58 -14.5 80t-66.5 22h-76l-29 -280h-25l71 678h25l-39 -376h66l145 265h26l-145 -266q45 -3 70 -31t18 -94l-14 -127q-2 -17 4 -22.5t18 -5.5h9l-2 -21h-14zM109 -18h25v-2l-22 -70h-19z" />
    <glyph glyph-name="l.tail" horiz-adv-x="100" 
d="M47 0q-21 0 -32 10.5t-8 38.5l66 629h25l-66 -629q-2 -17 4 -22.5t18 -5.5h9l-2 -21h-14z" />
    <glyph glyph-name="lacute.tail" horiz-adv-x="100" 
d="M38 717l152 61l-3 -22l-151 -58zM47 0q-21 0 -32 10.5t-8 38.5l66 629h25l-66 -629q-2 -17 4 -22.5t18 -5.5h9l-2 -21h-14z" />
    <glyph glyph-name="lcaron.tail" horiz-adv-x="100" 
d="M125 678h22v-2l-18 -89h-17zM47 0q-21 0 -32 10.5t-8 38.5l66 629h25l-66 -629q-2 -17 4 -22.5t18 -5.5h9l-2 -21h-14z" />
    <glyph glyph-name="lcommaaccent.tail" horiz-adv-x="100" 
d="M13 -18h25v-2l-22 -70h-19zM47 0q-21 0 -32 10.5t-8 38.5l66 629h25l-66 -629q-2 -17 4 -22.5t18 -5.5h9l-2 -21h-14z" />
    <glyph glyph-name="ldot.tail" horiz-adv-x="128" 
d="M102 359h26l-3 -35h-27zM47 0q-21 0 -32 10.5t-8 38.5l66 629h25l-66 -629q-2 -17 4 -22.5t18 -5.5h9l-2 -21h-14z" />
    <glyph glyph-name="lslash.tail" horiz-adv-x="104" 
d="M9 356l36 31l31 291h25l-28 -268l42 36l-3 -26l-42 -36l-35 -335q-2 -17 4 -22.5t18 -5.5h9l-2 -21h-14q-21 0 -32 10.5t-8 38.5l32 311l-35 -30z" />
    <glyph glyph-name="m.tail" horiz-adv-x="507" 
d="M61 567h25l-7 -69h1q6 13 15 26.5t22 24t30.5 17t38.5 6.5q41 0 63.5 -22t27.5 -61h1q12 32 40 57.5t73 25.5q52 0 75.5 -34t16.5 -100l-41 -389q-2 -17 4 -22.5t18 -5.5h9l-2 -21h-14q-21 0 -32 10.5t-8 38.5l41 390q5 51 -12.5 81t-62.5 30q-42 0 -71 -32t-35 -84
l-45 -434h-25l45 439q6 54 -12.5 82.5t-61.5 28.5q-46 0 -73.5 -35t-33.5 -89l-44 -426h-25z" />
    <glyph glyph-name="n.tail" horiz-adv-x="320" 
d="M61 567h25l-7 -70h1q6 13 16 26.5t24 24.5t32.5 17.5t41.5 6.5q52 0 80.5 -35.5t20.5 -106.5l-40 -381q-2 -17 4 -22.5t18 -5.5h9l-2 -21h-14q-21 0 -32 10.5t-8 38.5l40 382q6 58 -15.5 88.5t-68.5 30.5q-48 0 -78.5 -35t-36.5 -90l-44 -425h-25z" />
    <glyph glyph-name="nacute.tail" horiz-adv-x="320" 
d="M123 612l152 61l-3 -22l-151 -58zM61 567h25l-7 -70h1q6 13 16 26.5t24 24.5t32.5 17.5t41.5 6.5q52 0 80.5 -35.5t20.5 -106.5l-40 -381q-2 -17 4 -22.5t18 -5.5h9l-2 -21h-14q-21 0 -32 10.5t-8 38.5l40 382q6 58 -15.5 88.5t-68.5 30.5q-48 0 -78.5 -35t-36.5 -90
l-44 -425h-25z" />
    <glyph glyph-name="ncaron.tail" horiz-adv-x="320" 
d="M105 665l2 19l73 -65l88 65l-2 -19l-80 -68h-14zM61 567h25l-7 -70h1q6 13 16 26.5t24 24.5t32.5 17.5t41.5 6.5q52 0 80.5 -35.5t20.5 -106.5l-40 -381q-2 -17 4 -22.5t18 -5.5h9l-2 -21h-14q-21 0 -32 10.5t-8 38.5l40 382q6 58 -15.5 88.5t-68.5 30.5q-48 0 -78.5 -35
t-36.5 -90l-44 -425h-25z" />
    <glyph glyph-name="ncommaaccent.tail" horiz-adv-x="320" 
d="M124 -18h25v-2l-22 -70h-19zM61 567h25l-7 -70h1q6 13 16 26.5t24 24.5t32.5 17.5t41.5 6.5q52 0 80.5 -35.5t20.5 -106.5l-40 -381q-2 -17 4 -22.5t18 -5.5h9l-2 -21h-14q-21 0 -32 10.5t-8 38.5l40 382q6 58 -15.5 88.5t-68.5 30.5q-48 0 -78.5 -35t-36.5 -90l-44 -425
h-25z" />
    <glyph glyph-name="ntilde.tail" horiz-adv-x="320" 
d="M61 567h25l-7 -70h1q6 13 16 26.5t24 24.5t32.5 17.5t41.5 6.5q52 0 80.5 -35.5t20.5 -106.5l-40 -381q-2 -17 4 -22.5t18 -5.5h9l-2 -21h-14q-21 0 -32 10.5t-8 38.5l40 382q6 58 -15.5 88.5t-68.5 30.5q-48 0 -78.5 -35t-36.5 -90l-44 -425h-25zM99 612q2 22 14 37
t35 15q11 0 20.5 -4.5t18.5 -10t18 -10t18 -4.5q14 0 20.5 10t8.5 23h18q-2 -23 -14 -37.5t-35 -14.5q-11 0 -20.5 4.5t-18.5 9.5t-18 9.5t-18 4.5q-14 0 -21 -9.5t-9 -22.5h-17z" />
    <glyph glyph-name="u.tail" horiz-adv-x="321" 
d="M119 -5q-53 0 -83.5 32.5t-22.5 109.5l45 430h25l-45 -431q-7 -65 17 -92t69 -27q49 0 77.5 35t34.5 90l45 425h25l-54 -518q-2 -17 3.5 -22.5t18.5 -5.5h9l-2 -21h-14q-20 0 -31.5 10t-8.5 35l2 24h-1q-13 -27 -38.5 -50.5t-70.5 -23.5z" />
    <glyph glyph-name="uacute.tail" horiz-adv-x="321" 
d="M128 612l152 61l-3 -22l-151 -58zM119 -5q-53 0 -83.5 32.5t-22.5 109.5l45 430h25l-45 -431q-7 -65 17 -92t69 -27q49 0 77.5 35t34.5 90l45 425h25l-54 -518q-2 -17 3.5 -22.5t18.5 -5.5h9l-2 -21h-14q-20 0 -31.5 10t-8.5 35l2 24h-1q-13 -27 -38.5 -50.5t-70.5 -23.5
z" />
    <glyph glyph-name="ubreve.tail" horiz-adv-x="321" 
d="M119 -5q-53 0 -83.5 32.5t-22.5 109.5l45 430h25l-45 -431q-7 -65 17 -92t69 -27q49 0 77.5 35t34.5 90l45 425h25l-54 -518q-2 -17 3.5 -22.5t18.5 -5.5h9l-2 -21h-14q-20 0 -31.5 10t-8.5 35l2 24h-1q-13 -27 -38.5 -50.5t-70.5 -23.5zM188 597q-34 0 -55 21t-19 56h19
q-1 -27 14 -42t41 -15q25 0 41 14.5t20 42.5h19q-4 -38 -26 -57.5t-54 -19.5z" />
    <glyph glyph-name="ucircumflex.tail" horiz-adv-x="321" 
d="M105 614l79 68h14l67 -69l-2 -18l-73 65l-87 -65zM119 -5q-53 0 -83.5 32.5t-22.5 109.5l45 430h25l-45 -431q-7 -65 17 -92t69 -27q49 0 77.5 35t34.5 90l45 425h25l-54 -518q-2 -17 3.5 -22.5t18.5 -5.5h9l-2 -21h-14q-20 0 -31.5 10t-8.5 35l2 24h-1
q-13 -27 -38.5 -50.5t-70.5 -23.5z" />
    <glyph glyph-name="udieresis.tail" horiz-adv-x="321" 
d="M141 645h25l-4 -31h-24zM213 645h24l-3 -31h-25zM119 -5q-53 0 -83.5 32.5t-22.5 109.5l45 430h25l-45 -431q-7 -65 17 -92t69 -27q49 0 77.5 35t34.5 90l45 425h25l-54 -518q-2 -17 3.5 -22.5t18.5 -5.5h9l-2 -21h-14q-20 0 -31.5 10t-8.5 35l2 24h-1
q-13 -27 -38.5 -50.5t-70.5 -23.5z" />
    <glyph glyph-name="ugrave.tail" horiz-adv-x="321" 
d="M119 -5q-53 0 -83.5 32.5t-22.5 109.5l45 430h25l-45 -431q-7 -65 17 -92t69 -27q49 0 77.5 35t34.5 90l45 425h25l-54 -518q-2 -17 3.5 -22.5t18.5 -5.5h9l-2 -21h-14q-20 0 -31.5 10t-8.5 35l2 24h-1q-13 -27 -38.5 -50.5t-70.5 -23.5zM110 652l2 21l139 -62l-2 -18z
" />
    <glyph glyph-name="uhungarumlaut.tail" horiz-adv-x="321" 
d="M119 -5q-53 0 -83.5 32.5t-22.5 109.5l45 430h25l-45 -431q-7 -65 17 -92t69 -27q49 0 77.5 35t34.5 90l45 425h25l-54 -518q-2 -17 3.5 -22.5t18.5 -5.5h9l-2 -21h-14q-20 0 -31.5 10t-8.5 35l2 24h-1q-13 -27 -38.5 -50.5t-70.5 -23.5zM184 682h24l-47 -87h-20z
M252 682h24l-47 -87h-20z" />
    <glyph glyph-name="umacron.tail" horiz-adv-x="321" 
d="M115 634h145l-2 -19h-145zM119 -5q-53 0 -83.5 32.5t-22.5 109.5l45 430h25l-45 -431q-7 -65 17 -92t69 -27q49 0 77.5 35t34.5 90l45 425h25l-54 -518q-2 -17 3.5 -22.5t18.5 -5.5h9l-2 -21h-14q-20 0 -31.5 10t-8.5 35l2 24h-1q-13 -27 -38.5 -50.5t-70.5 -23.5z" />
    <glyph glyph-name="uogonek.tail" horiz-adv-x="321" 
d="M229 69h-1q-13 -27 -38.5 -50.5t-70.5 -23.5q-53 0 -83.5 32.5t-22.5 109.5l45 430h25l-45 -431q-7 -65 17 -92t69 -27q49 0 77.5 35t34.5 90l45 425h25l-54 -518q-2 -17 4.5 -22.5t19.5 -5.5h7l-2 -21q-17 -8 -30 -21t-13 -28q0 -8 5.5 -14t21.5 -6h10l-3 -21h-10
q-26 0 -37.5 10.5t-11.5 26.5q0 19 10.5 31.5t27.5 23.5q-14 3 -20.5 14.5t-3.5 35.5z" />
    <glyph glyph-name="uring.tail" horiz-adv-x="321" 
d="M187 592q-23 0 -39 16t-16 40q0 23 16 39.5t39 16.5q25 0 41 -16.5t16 -39.5q0 -24 -16 -40t-41 -16zM187 607q17 0 28.5 12t11.5 29t-11.5 29t-28.5 12t-27.5 -12t-10.5 -29t10.5 -29t27.5 -12zM119 -5q-53 0 -83.5 32.5t-22.5 109.5l45 430h25l-45 -431q-7 -65 17 -92
t69 -27q49 0 77.5 35t34.5 90l45 425h25l-54 -518q-2 -17 3.5 -22.5t18.5 -5.5h9l-2 -21h-14q-20 0 -31.5 10t-8.5 35l2 24h-1q-13 -27 -38.5 -50.5t-70.5 -23.5z" />
    <glyph glyph-name="utilde.tail" horiz-adv-x="321" 
d="M119 -5q-53 0 -83.5 32.5t-22.5 109.5l45 430h25l-45 -431q-7 -65 17 -92t69 -27q49 0 77.5 35t34.5 90l45 425h25l-54 -518q-2 -17 3.5 -22.5t18.5 -5.5h9l-2 -21h-14q-20 0 -31.5 10t-8.5 35l2 24h-1q-13 -27 -38.5 -50.5t-70.5 -23.5zM106 612q2 22 14 37t35 15
q11 0 20.5 -4.5t18.5 -10t18 -10t18 -4.5q14 0 20.5 10t8.5 23h18q-2 -23 -14 -37.5t-35 -14.5q-11 0 -20.5 4.5t-18.5 9.5t-18 9.5t-18 4.5q-14 0 -21 -9.5t-9 -22.5h-17z" />
    <glyph glyph-name="germandbls.alt" horiz-adv-x="302" 
d="M62 575q6 55 38.5 81.5t89.5 26.5q53 0 76.5 -19t23.5 -49q0 -53 -55 -64q66 -13 56 -106l-35 -327q-6 -61 -33.5 -89.5t-90.5 -28.5h-45l2 21h42q51 0 73 24t27 75l34 327q5 45 -9.5 69.5t-58.5 24.5h-45l3 20h40q27 0 49 10t22 42q0 23 -18 35.5t-59 12.5
q-46 0 -71.5 -20.5t-30.5 -66.5l-66 -664h-26z" />
    <glyph glyph-name="germandbls.tail" horiz-adv-x="302" 
d="M-46 -69h9q20 0 28 9t10 31l61 604q6 55 38.5 81.5t89.5 26.5q53 0 76.5 -19t23.5 -49q0 -53 -55 -64q66 -13 56 -106l-35 -327q-6 -61 -33.5 -89.5t-90.5 -28.5h-45l2 21h42q51 0 73 24t27 75l34 327q5 45 -9.5 69.5t-58.5 24.5h-45l3 20h40q27 0 49 10t22 42
q0 23 -18 35.5t-59 12.5q-46 0 -71.5 -20.5t-30.5 -66.5l-60 -606q-4 -32 -17 -45t-45 -13h-14z" />
    <glyph glyph-name="f_f.alt" horiz-adv-x="334" 
d="M238 547h-128l-63 -637h-26l64 637h-46l2 20h46l4 42q4 38 21.5 53.5t58.5 15.5h33l-2 -20h-28q-30 0 -42.5 -11t-15.5 -40l-4 -40h128l4 42q5 38 22.5 53.5t57.5 15.5h38l-2 -20h-33q-30 0 -42.5 -11t-14.5 -40l-4 -40h84l-2 -20h-84l-64 -637h-26z" />
    <glyph glyph-name="f_f.shorttail" horiz-adv-x="323" 
d="M133 -69h9q21 0 28.5 9.5t9.5 30.5l58 576h-128l-58 -579q-3 -32 -16.5 -45t-45.5 -13h-13l3 21h8q21 0 29 9.5t10 30.5l58 576h-46l2 20h46l4 42q4 38 21.5 53.5t58.5 15.5h33l-2 -20h-28q-30 0 -42.5 -11t-15.5 -40l-4 -40h128l4 42q5 38 22.5 53.5t57.5 15.5h32
l-3 -20h-26q-30 0 -42.5 -11t-14.5 -40l-4 -40h78l-3 -20h-77l-58 -579q-4 -32 -17 -45t-45 -13h-13z" />
    <glyph glyph-name="f_f.tail" horiz-adv-x="334" 
d="M133 -69h9q21 0 28.5 9.5t9.5 30.5l58 576h-128l-58 -579q-3 -32 -16.5 -45t-45.5 -13h-13l3 21h8q21 0 29 9.5t10 30.5l58 576h-46l2 20h46l4 42q4 38 21.5 53.5t58.5 15.5h33l-2 -20h-28q-30 0 -42.5 -11t-15.5 -40l-4 -40h128l4 42q5 38 22.5 53.5t57.5 15.5h38
l-2 -20h-33q-30 0 -42.5 -11t-14.5 -40l-4 -40h84l-2 -20h-84l-58 -579q-4 -32 -17 -45t-45 -13h-13z" />
    <glyph glyph-name="f_f.shortalt" horiz-adv-x="323" 
d="M238 547h-128l-63 -637h-26l64 637h-46l2 20h46l4 42q4 38 21.5 53.5t58.5 15.5h33l-2 -20h-28q-30 0 -42.5 -11t-15.5 -40l-4 -40h128l4 42q5 38 22.5 53.5t57.5 15.5h32l-3 -20h-26q-30 0 -42.5 -11t-14.5 -40l-4 -40h78l-3 -20h-77l-64 -637h-26z" />
    </font>
</defs>
</svg>
