<?xml version="1.0" standalone="no"?>
<!DOCTYPE svg PUBLIC "-//W3C//DTD SVG 1.1//EN" "http://www.w3.org/Graphics/SVG/1.1/DTD/svg11.dtd" >
<svg xmlns="http://www.w3.org/2000/svg" xmlns:xlink="http://www.w3.org/1999/xlink" version="1.1">
<metadata>
Created by FontForge 20170731 at Fri Oct  9 19:53:26 2015
 By Aleksey,,,
(c)2009 Commercial Type.
</metadata>
<defs>
<font id="KPMG-Thin" horiz-adv-x="308" >
  <font-face 
    font-family="KPMG Thin"
    font-weight="250"
    font-stretch="normal"
    units-per-em="1000"
    panose-1="2 11 2 3 3 2 2 4 2 4"
    ascent="880"
    descent="-120"
    x-height="567"
    cap-height="678"
    bbox="-90 -94 701 807"
    underline-thickness="50"
    underline-position="-150"
    unicode-range="U+000D-FB00"
  />
<missing-glyph horiz-adv-x="625" 
 />
    <glyph glyph-name="f_f" unicode="ff" horiz-adv-x="313" 
d="M12 567h46v43q0 36 16 52t54 16h23v-8h-23q-33 0 -47 -13.5t-14 -46.5v-43h135v43q0 36 16 52t54 16h29v-8h-29q-33 0 -47 -13.5t-14 -46.5v-43h90v-8h-90v-559h-9v559h-135v-559h-9v559h-46v8z" />
    <glyph glyph-name=".notdef" horiz-adv-x="625" 
 />
    <glyph glyph-name=".null" horiz-adv-x="0" 
 />
    <glyph glyph-name="nonmarkingreturn" unicode="&#xd;" horiz-adv-x="140" 
 />
    <glyph glyph-name="NULL" horiz-adv-x="0" 
 />
    <glyph glyph-name="NULL" horiz-adv-x="0" 
 />
    <glyph glyph-name="space" unicode=" " horiz-adv-x="140" 
 />
    <glyph glyph-name="exclam" unicode="!" horiz-adv-x="81" 
d="M36 22h9v-22h-9v22zM36 678h9l-1 -590h-7z" />
    <glyph glyph-name="quotedbl" unicode="&#x22;" horiz-adv-x="115" 
d="M39 587h-7l-1 91h9zM83 587h-7l-1 91h9z" />
    <glyph glyph-name="numbersign" unicode="#" horiz-adv-x="285" 
d="M181 255h-97l-26 -255h-8l26 255h-58v8h59l19 177h-60v8h61l24 230h8l-24 -230h97l24 230h8l-24 -230h57v-8h-58l-19 -177h59v-8h-60l-26 -255h-8zM85 263h97l19 177h-97z" />
    <glyph glyph-name="dollar" unicode="$" horiz-adv-x="309" 
d="M159 -50h-8v46q-60 2 -92 36t-32 89v116h8v-116q0 -52 29.5 -83.5t86.5 -33.5v352l-28 27q-23 22 -40.5 41t-29 37t-17 37t-5.5 43v28q0 55 34 84t86 29v36h8v-36q56 -2 85 -29.5t29 -85.5v-90h-8v90q0 54 -27.5 79.5t-78.5 27.5v-315l36 -35q22 -22 38.5 -40.5t28 -37
t17 -39t5.5 -46.5v-41q0 -25 -7.5 -47.5t-23.5 -39.5t-39.5 -27t-54.5 -10v-46zM159 348v-344q29 0 51 9.5t36.5 25t22 36.5t7.5 45v41q0 23 -5 42.5t-15.5 37.5t-26.5 36.5t-39 40.5zM39 541q0 -23 6 -42t17 -36.5t28 -35t38 -38.5l23 -23v308q-49 0 -80.5 -27t-31.5 -78
v-28z" />
    <glyph glyph-name="percent" unicode="%" horiz-adv-x="389" 
d="M360 678l-322 -678h-9l322 678h9zM277 -3q-51 0 -72 31t-21 86v53q0 55 21 86t72 31t71.5 -31t20.5 -86v-53q0 -55 -20.5 -86t-71.5 -31zM277 5q48 0 65.5 29.5t17.5 79.5v53q0 50 -17.5 79.5t-65.5 29.5t-66 -29.5t-18 -79.5v-53q0 -50 18 -79.5t66 -29.5zM113 394
q-51 0 -72 31t-21 86v53q0 55 21 86t72 31t71.5 -31t20.5 -86v-53q0 -55 -20.5 -86t-71.5 -31zM113 402q48 0 65.5 29.5t17.5 79.5v53q0 50 -17.5 79.5t-65.5 29.5t-66 -29.5t-18 -79.5v-53q0 -50 18 -79.5t66 -29.5z" />
    <glyph glyph-name="ampersand" unicode="&#x26;" horiz-adv-x="348" 
d="M284 358v-358h-9v77q-8 -37 -37.5 -59t-82.5 -22q-69 0 -97 37t-28 108v102q0 56 27 83.5t65 35.5q-35 8 -57 34.5t-22 76.5v74q0 72 30.5 103.5t87.5 31.5t85.5 -27.5t28.5 -96.5v-65h-9v65q0 65 -26.5 90.5t-78.5 25.5q-50 0 -79.5 -28.5t-29.5 -98.5v-74
q0 -49 25.5 -78t79.5 -29h177v-8h-50zM155 4q33 0 55.5 9.5t36.5 26t20.5 39.5t7.5 50v229h-118q-55 0 -86.5 -29.5t-31.5 -85.5v-102q0 -67 26.5 -102t89.5 -35z" />
    <glyph glyph-name="quotesingle" unicode="'" horiz-adv-x="71" 
d="M39 587h-7l-1 91h9z" />
    <glyph glyph-name="parenleft" unicode="(" horiz-adv-x="156" 
d="M39 534q0 43 7.5 72t20 47.5t30.5 28.5t39 16v-8q-21 -6 -37 -16t-27.5 -28t-17.5 -45t-6 -67v-461q0 -40 6 -67t17.5 -44.5t27.5 -27.5t37 -16v-8q-21 6 -39 15.5t-30.5 28t-20 47t-7.5 72.5v461z" />
    <glyph glyph-name="parenright" unicode=")" horiz-adv-x="156" 
d="M117 73q0 -44 -7.5 -72.5t-20 -47t-30.5 -28t-39 -15.5v8q21 6 37 16t27.5 27.5t17.5 44.5t6 67v461q0 40 -6 67t-17.5 45t-27.5 28t-37 16v8q21 -6 39 -16t30.5 -28.5t20 -47.5t7.5 -72v-461z" />
    <glyph glyph-name="asterisk" unicode="*" horiz-adv-x="183" 
d="M92 592l-42 -57l-7 5l43 57l-68 23l2 8l68 -24l-1 74h9l-1 -74l68 24l2 -8l-68 -23l43 -57l-7 -5z" />
    <glyph glyph-name="plus" unicode="+" horiz-adv-x="337" 
d="M24 339h140v160h9v-160h140v-8h-140v-160h-9v160h-140v8z" />
    <glyph glyph-name="comma" unicode="," horiz-adv-x="81" 
d="M47 21l-17 -101h-8l16 102h9v-1z" />
    <glyph glyph-name="hyphen" unicode="-" horiz-adv-x="153" 
d="M19 319h115v-8h-115v8z" />
    <glyph glyph-name="period" unicode="." horiz-adv-x="81" 
d="M36 22h9v-22h-9v22z" />
    <glyph glyph-name="slash" unicode="/" horiz-adv-x="166" 
d="M156 698l-145 -788h-9l145 788h9z" />
    <glyph glyph-name="zero" unicode="0" horiz-adv-x="336" 
d="M168 4q33 0 57.5 11.5t40.5 31.5t23.5 46t7.5 56v380q0 30 -7.5 56.5t-23.5 46t-40.5 31t-57.5 11.5t-57.5 -11.5t-40.5 -31t-23.5 -46t-7.5 -56.5v-380q0 -30 7.5 -56t23.5 -46t40.5 -31.5t57.5 -11.5zM168 -4q-36 0 -62 12t-43 33t-25 49t-8 59v380q0 31 8 59t25 49
t43 33t62 12t62 -12t43 -33t25 -49t8 -59v-380q0 -31 -8 -59t-25 -49t-43 -33t-62 -12z" />
    <glyph glyph-name="one" unicode="1" horiz-adv-x="159" 
d="M97 678h7v-678h-9v660h-1l-79 -98h-1v12z" />
    <glyph glyph-name="two" unicode="2" 
d="M29 97q0 30 5 51.5t15.5 40t26 36t35.5 40.5l78 88q32 36 55.5 73.5t23.5 72.5v62q0 60 -30.5 86.5t-81.5 26.5q-50 0 -82.5 -29.5t-32.5 -92.5v-75h-9v75q0 66 34 98t90 32q57 0 89 -28.5t32 -92.5v-62q0 -37 -24 -75t-56 -75l-78 -88q-21 -23 -36 -41t-25 -35.5
t-15 -38t-5 -49.5v-89h242v-8h-251v97z" />
    <glyph glyph-name="three" unicode="3" horiz-adv-x="322" 
d="M165 682q58 0 89 -30.5t31 -101.5v-80q0 -50 -24 -75t-59 -33q19 -4 35.5 -12.5t28.5 -22.5t19 -35t7 -49v-112q0 -65 -29 -100t-100 -35q-69 0 -102 32t-33 100v87h9v-87q0 -66 31.5 -95t94.5 -29q65 0 92.5 32t27.5 95v112q0 56 -30.5 85.5t-85.5 29.5h-36v8h36
q54 0 81.5 27.5t27.5 76.5v80q0 69 -29.5 96.5t-81.5 27.5q-56 0 -88 -29t-32 -84v-68h-9v68q0 60 35 90.5t94 30.5z" />
    <glyph glyph-name="four" unicode="4" horiz-adv-x="315" 
d="M8 173l221 505h13v-504h56v-8h-56v-166h-9v166h-225v7zM18 174h215v489h-1z" />
    <glyph glyph-name="five" unicode="5" horiz-adv-x="317" 
d="M159 447q23 0 46 -6t41 -22t29.5 -44t11.5 -71v-165q0 -69 -28.5 -106t-99.5 -37q-132 0 -132 137v82h9v-82q0 -68 32 -98.5t91 -30.5q67 0 93 35t26 100v165q0 42 -10.5 68.5t-28 41t-39 20t-42.5 5.5q-20 0 -40.5 -6.5t-37.5 -21t-28 -38t-11 -56.5v-10h-9v371h243v-8
h-235v-305h1q13 41 45.5 61.5t72.5 20.5z" />
    <glyph glyph-name="six" unicode="6" horiz-adv-x="325" 
d="M164 -4q-61 0 -97.5 38t-36.5 117v382q0 40 10.5 68t29 46t43 26.5t51.5 8.5q26 0 48.5 -7t39 -23.5t25.5 -42.5t9 -64v-52h-9v52q0 70 -30.5 99.5t-82.5 29.5q-26 0 -48.5 -8t-39.5 -25t-27 -43.5t-10 -64.5v-200h1q6 17 16.5 33.5t26 29t36.5 20.5t47 8q61 0 96 -35
t35 -114v-130q0 -79 -35.5 -114t-97.5 -35zM164 4q57 0 90.5 32t33.5 109v130q0 75 -32 108t-90 33q-24 0 -46.5 -8.5t-40.5 -26t-29 -44t-11 -62.5v-124q0 -75 34 -111t91 -36z" />
    <glyph glyph-name="seven" unicode="7" horiz-adv-x="277" 
d="M16 678h238v-55l-167 -623h-9l168 625v45h-230v8z" />
    <glyph glyph-name="eight" unicode="8" horiz-adv-x="332" 
d="M166 -4q-72 0 -105 40.5t-33 101.5v99q0 53 24.5 91t78.5 48q-51 10 -69 46.5t-18 85.5v40q0 60 28.5 97t93.5 37t93.5 -37t28.5 -97v-40q0 -49 -18.5 -85.5t-69.5 -46.5q54 -10 79 -48t25 -91v-99q0 -61 -33 -101.5t-105 -40.5zM166 4q67 0 98 38t31 96v99q0 59 -31 97
t-98 38t-98 -38t-31 -97v-99q0 -58 31 -96t98 -38zM166 380q33 0 55 10t35 27.5t18 40.5t5 50v40q0 57 -26.5 91.5t-86.5 34.5t-86.5 -34.5t-26.5 -91.5v-40q0 -27 5 -50t18 -40.5t35 -27.5t55 -10z" />
    <glyph glyph-name="nine" unicode="9" horiz-adv-x="325" 
d="M161 682q61 0 97.5 -38t36.5 -117v-385q0 -42 -10.5 -70t-28.5 -45t-42 -24t-51 -7q-26 0 -49 7t-40 23.5t-27 42.5t-10 64v52h9v-52q0 -70 32.5 -99.5t84.5 -29.5q26 0 48.5 6.5t39 22.5t26 42.5t9.5 66.5v203h-1q-6 -17 -16.5 -33.5t-26.5 -29.5t-36.5 -20.5
t-46.5 -7.5q-61 0 -96 35t-35 114v130q0 79 35.5 114t97.5 35zM161 674q-57 0 -90.5 -32t-33.5 -109v-130q0 -75 32 -108t90 -33q24 0 46.5 8.5t40.5 26t29 44t11 62.5v124q0 75 -34 111t-91 36z" />
    <glyph glyph-name="colon" unicode=":" horiz-adv-x="81" 
d="M36 22h9v-22h-9v22zM36 302h9v-22h-9v22z" />
    <glyph glyph-name="semicolon" unicode=";" horiz-adv-x="81" 
d="M47 21l-17 -101h-8l16 102h9v-1zM39 302h9v-22h-9v22z" />
    <glyph glyph-name="less" unicode="&#x3c;" horiz-adv-x="304" 
d="M11 330l273 134v-9l-258 -126l258 -126v-9l-273 134v2z" />
    <glyph glyph-name="equal" unicode="=" horiz-adv-x="352" 
d="M24 289h304v-8h-304v8zM24 373h304v-8h-304v8z" />
    <glyph glyph-name="greater" unicode="&#x3e;" horiz-adv-x="304" 
d="M293 328l-273 -134v9l258 126l-258 126v9l273 -134v-2z" />
    <glyph glyph-name="question" unicode="?" horiz-adv-x="293" 
d="M124 88v107q0 25 2 41t7 29.5t13.5 27t21.5 32.5l44 64q23 34 32.5 58t9.5 56v48q0 63 -25.5 93t-79.5 30q-53 0 -83.5 -28t-30.5 -88v-71h-9v71q0 65 33.5 94.5t89.5 29.5q114 0 114 -131v-48q0 -35 -10.5 -60.5t-33.5 -58.5l-44 -64q-12 -17 -20 -29.5t-13 -26
t-7 -29.5t-2 -40v-107h-9zM124 22h9v-22h-9v22z" />
    <glyph glyph-name="at" unicode="@" horiz-adv-x="487" 
d="M391 35q-29 0 -41.5 16t-14.5 48h-1q-11 -29 -32.5 -46.5t-60.5 -17.5q-45 0 -72.5 27.5t-27.5 90.5v273q0 63 28.5 90.5t73.5 27.5q38 0 59 -16.5t32 -45.5h1v58h9v-435q0 -35 12 -48.5t35 -13.5q22 0 35.5 14.5t13.5 53.5v379q0 49 -14 83.5t-39.5 56.5t-61.5 32.5
t-79 10.5q-42 0 -78.5 -12t-63 -36t-42 -60.5t-15.5 -85.5v-352q0 -97 50.5 -153t155.5 -56h151v-8h-151q-110 0 -162.5 58.5t-52.5 158.5v352q0 50 16 88t44.5 63.5t66 38t81.5 12.5q45 0 82.5 -11t64 -34.5t41.5 -59.5t15 -86v-379q0 -40 -14.5 -58t-43.5 -18zM150 153
q0 -57 24.5 -83.5t66.5 -26.5q19 0 36 6t30 19t20.5 33.5t7.5 48.5v280q0 28 -7.5 48t-20 33t-29 19t-35.5 6q-42 0 -67.5 -26.5t-25.5 -83.5v-273z" />
    <glyph glyph-name="A" unicode="A" horiz-adv-x="321" 
d="M12 0l140 678h15l142 -678h-9l-43 202h-195l-41 -202h-9zM64 210h192l-96 461h-1z" />
    <glyph glyph-name="B" unicode="B" horiz-adv-x="298" 
d="M33 678h103q60 0 90.5 -28t30.5 -81v-115q0 -85 -74 -103q46 -5 69 -32.5t23 -73.5v-136q0 -53 -30.5 -81t-90.5 -28h-121v678zM154 8q56 0 84 26t28 75v136q0 49 -27 75t-87 26h-110v-338h112zM42 670v-317h99q52 0 79.5 26t27.5 75v115q0 49 -28 75t-84 26h-94z" />
    <glyph glyph-name="C" unicode="C" horiz-adv-x="321" 
d="M166 -4q-37 0 -63 13t-42 34.5t-23.5 50t-7.5 59.5v372q0 31 7.5 59.5t23.5 50.5t42 34.5t63 12.5q39 0 63.5 -10t39 -29t20 -45.5t5.5 -59.5v-81h-9v81q0 31 -5 56.5t-18.5 43t-36.5 27t-59 9.5q-35 0 -59 -12t-39 -32.5t-22 -47.5t-7 -57v-372q0 -30 7 -57t22 -47.5
t39 -32.5t59 -12q36 0 59 10.5t36.5 29t18.5 43.5t5 54v116h9v-116q0 -31 -5.5 -57.5t-20 -46t-39 -30.5t-63.5 -11z" />
    <glyph glyph-name="D" unicode="D" horiz-adv-x="326" 
d="M42 8h104q38 0 65 12t44 32.5t24.5 47.5t7.5 57v364q0 30 -7.5 57t-24.5 47.5t-44 32.5t-65 12h-104v-662zM146 678q40 0 68.5 -12.5t46.5 -34.5t26.5 -50.5t8.5 -59.5v-364q0 -31 -8.5 -59.5t-26.5 -50t-46.5 -34.5t-68.5 -13h-113v678h113z" />
    <glyph glyph-name="E" unicode="E" horiz-adv-x="288" 
d="M33 678h230v-8h-221v-321h161v-8h-161v-333h221v-8h-230v678z" />
    <glyph glyph-name="F" unicode="F" horiz-adv-x="270" 
d="M33 678h220v-8h-211v-321h161v-8h-161v-341h-9v678z" />
    <glyph glyph-name="G" unicode="G" horiz-adv-x="327" 
d="M177 324h117v-324h-9v77q-8 -37 -36.5 -59t-82.5 -22q-37 0 -63 13t-42 34.5t-23.5 50t-7.5 59.5v372q0 31 7.5 59.5t23.5 50.5t42 34.5t63 12.5q39 0 63.5 -10t39 -29t20 -45.5t5.5 -59.5v-61h-9v61q0 31 -5 56.5t-18.5 43t-36.5 27t-59 9.5q-35 0 -59 -12t-39 -32.5
t-22 -47.5t-7 -57v-372q0 -30 7 -57t22 -47.5t39 -32.5t59 -12q34 0 56.5 9.5t36 26t19.5 39.5t7 50v187h-108v8z" />
    <glyph glyph-name="H" unicode="H" horiz-adv-x="320" 
d="M278 341h-236v-341h-9v678h9v-329h236v329h9v-678h-9v341z" />
    <glyph glyph-name="I" unicode="I" horiz-adv-x="75" 
d="M33 678h9v-678h-9v678z" />
    <glyph glyph-name="J" unicode="J" horiz-adv-x="274" 
d="M244 678v-560q0 -57 -27 -89.5t-84 -32.5t-84 32.5t-27 89.5v139h9v-139q0 -51 24 -82.5t78 -31.5t78 31.5t24 82.5v560h9z" />
    <glyph glyph-name="K" unicode="K" horiz-adv-x="290" 
d="M42 341v-341h-9v678h9v-331l230 331h10l-232 -334l234 -344h-10z" />
    <glyph glyph-name="L" unicode="L" horiz-adv-x="252" 
d="M33 678h9v-670h198v-8h-207v678z" />
    <glyph glyph-name="M" unicode="M" horiz-adv-x="404" 
d="M362 669h-4l-151 -669h-11l-150 669h-4v-669h-9v678h20l148 -657h1l149 657h20v-678h-9v669z" />
    <glyph glyph-name="N" unicode="N" horiz-adv-x="315" 
d="M42 667v-667h-9v678h15l225 -659v659h9v-678h-12z" />
    <glyph glyph-name="O" unicode="O" horiz-adv-x="340" 
d="M170 4q34 0 59 12t41 32.5t23.5 47.5t7.5 57v372q0 30 -7.5 57t-23.5 47.5t-41 32.5t-59 12q-35 0 -59.5 -12t-40.5 -32.5t-23.5 -47.5t-7.5 -57v-372q0 -30 7.5 -57t23.5 -47.5t40.5 -32.5t59.5 -12zM170 -4q-37 0 -63.5 13t-43.5 34.5t-25 50t-8 59.5v372q0 31 8 59.5
t25 50.5t43.5 34.5t63.5 12.5t63.5 -12.5t43.5 -34.5t25 -50.5t8 -59.5v-372q0 -31 -8 -59.5t-25 -50t-43.5 -34.5t-63.5 -13z" />
    <glyph glyph-name="P" unicode="P" horiz-adv-x="287" 
d="M33 678h108q60 0 90.5 -28t30.5 -81v-200q0 -53 -30.5 -81t-90.5 -28h-99v-260h-9v678zM42 670v-402h99q56 0 84 26t28 75v200q0 49 -28 75t-84 26h-99z" />
    <glyph glyph-name="Q" unicode="Q" horiz-adv-x="340" 
d="M151 -10v7q-32 3 -55 17t-37.5 35t-21.5 48t-7 56v372q0 31 8 59.5t25 50.5t43.5 34.5t63.5 12.5t63.5 -12.5t43.5 -34.5t25 -50.5t8 -59.5v-372q0 -31 -8 -59.5t-25 -50t-43.5 -34.5t-63.5 -13h-7l158 -37v-9zM170 4q34 0 59 12t41 32.5t23.5 47.5t7.5 57v372
q0 30 -7.5 57t-23.5 47.5t-41 32.5t-59 12q-35 0 -59.5 -12t-40.5 -32.5t-23.5 -47.5t-7.5 -57v-372q0 -30 7.5 -57t23.5 -47.5t40.5 -32.5t59.5 -12z" />
    <glyph glyph-name="R" unicode="R" horiz-adv-x="290" 
d="M42 343v-343h-9v678h108q60 0 90.5 -28t30.5 -81v-119q0 -53 -30.5 -81t-90.5 -28h-88l231 -341h-10zM42 670v-321h99q56 0 84 26t28 75v119q0 49 -28 75t-84 26h-99z" />
    <glyph glyph-name="S" unicode="S" horiz-adv-x="307" 
d="M157 -4q-64 0 -98 34t-34 91v116h9v-116q0 -54 31.5 -85.5t91.5 -31.5q29 0 51 9.5t36.5 25t21.5 36.5t7 45v41q0 23 -4.5 42.5t-15 37.5t-26.5 36.5t-39 40.5l-67 65q-23 22 -40.5 41t-29 37t-17 37t-5.5 43v28q0 55 34 84t86 29q60 0 91 -27.5t31 -87.5v-90h-9v90
q0 56 -29 81.5t-84 25.5q-49 0 -80 -27t-31 -78v-28q0 -23 5.5 -41.5t17 -36t28 -35t37.5 -38.5l67 -65q22 -22 38.5 -40.5t28 -37.5t17 -39.5t5.5 -46.5v-41q0 -25 -7.5 -47.5t-23.5 -39.5t-39.5 -27t-54.5 -10z" />
    <glyph glyph-name="T" unicode="T" horiz-adv-x="287" 
d="M14 678h259v-8h-125v-670h-9v670h-125v8z" />
    <glyph glyph-name="U" unicode="U" horiz-adv-x="324" 
d="M293 678v-533q0 -31 -6.5 -58t-22 -47.5t-40.5 -32t-62 -11.5t-62 11.5t-40.5 32t-22 47.5t-6.5 58v533h9v-533q0 -30 6 -55.5t20.5 -44.5t37.5 -30t58 -11q34 0 57.5 11t38 30t20.5 44.5t6 55.5v533h9z" />
    <glyph glyph-name="V" unicode="V" horiz-adv-x="311" 
d="M299 678l-135 -678h-15l-137 678h9l135 -669h1l133 669h9z" />
    <glyph glyph-name="W" unicode="W" horiz-adv-x="469" 
d="M234 646l-106 -646h-15l-98 678h9l96 -667h1l109 667h9l111 -667h1l94 667h9l-96 -678h-15l-108 646h-1z" />
    <glyph glyph-name="X" unicode="X" horiz-adv-x="311" 
d="M16 0l132 359l-119 319h10l116 -311l115 311h10l-119 -320l134 -358h-10l-131 349l-128 -349h-10z" />
    <glyph glyph-name="Y" unicode="Y" horiz-adv-x="287" 
d="M149 258v-258h-9v258l-130 420h9l125 -405h1l123 405h9z" />
    <glyph glyph-name="Z" unicode="Z" horiz-adv-x="287" 
d="M28 8h232v-8h-242v8l241 662h-219v8h229v-8z" />
    <glyph glyph-name="bracketleft" unicode="[" horiz-adv-x="149" 
d="M129 690h-78v-772h78v-8h-87v788h87v-8z" />
    <glyph glyph-name="backslash" unicode="\" horiz-adv-x="166" 
d="M19 698l145 -788h-9l-145 788h9z" />
    <glyph glyph-name="bracketright" unicode="]" horiz-adv-x="149" 
d="M20 698h87v-788h-87v8h78v772h-78v8z" />
    <glyph glyph-name="asciicircum" unicode="^" horiz-adv-x="224" 
d="M194 511l-82 156l-82 -156h-9l88 167h6l88 -167h-9z" />
    <glyph glyph-name="underscore" unicode="_" horiz-adv-x="233" 
d="M-2 -82h237v-8h-237v8z" />
    <glyph glyph-name="grave" unicode="`" horiz-adv-x="400" 
d="M131 669l139 -68v-8l-139 67v9z" />
    <glyph glyph-name="a" unicode="a" horiz-adv-x="290" 
d="M251 0v72h-1q-11 -32 -39.5 -54t-73.5 -22q-52 0 -82 30t-30 96v49q0 32 8 53t22.5 36t35.5 26t47 23q63 28 88 47.5t25 39.5v50q0 54 -20 85.5t-75 31.5q-53 0 -80.5 -28t-27.5 -79v-53h-9v53q0 55 30.5 85t86.5 30q58 0 81 -32.5t23 -92.5v-446h-9zM137 4
q21 0 41.5 7.5t36.5 22t26 36.5t10 52v249q-4 -6 -10 -12.5t-18.5 -14.5t-32 -18.5t-50.5 -24.5q-26 -12 -45.5 -23t-33 -25t-20.5 -33.5t-7 -48.5v-49q0 -60 27 -89t76 -29z" />
    <glyph glyph-name="b" unicode="b" horiz-adv-x="306" 
d="M33 678h9v-185h1q11 32 40 55t77 23q55 0 85.5 -31t30.5 -97v-319q0 -66 -31.5 -97t-86.5 -31q-48 0 -76 21t-39 53h-1v-70h-9v678zM267 443q0 60 -27.5 90t-79.5 30q-23 0 -43.5 -7.5t-37 -21.5t-26.5 -35.5t-11 -49.5v-335q1 -28 10.5 -49t25.5 -34.5t36.5 -20
t43.5 -6.5q52 0 80.5 30t28.5 90v319z" />
    <glyph glyph-name="c" unicode="c" horiz-adv-x="296" 
d="M271 173v-47q0 -130 -116 -130q-60 0 -92.5 35t-32.5 101v305q0 66 33 100t91 34t87.5 -31t29.5 -97v-40h-9v40q0 120 -108 120q-55 0 -85 -33t-30 -93v-305q0 -60 29.5 -94t86.5 -34q107 0 107 122v47h9z" />
    <glyph glyph-name="d" unicode="d" horiz-adv-x="306" 
d="M275 0h-9v74h-1q-11 -32 -38.5 -55t-75.5 -23q-55 0 -87 31t-32 97v319q0 66 33 97t88 31q48 0 74.5 -22t37.5 -54h1v183h9v-678zM41 124q0 -60 29 -90t81 -30q22 0 42.5 7.5t36 21.5t25.5 35.5t11 49.5v327q0 30 -9 52t-24.5 36.5t-36 22t-43.5 7.5q-52 0 -82 -30
t-30 -90v-319z" />
    <glyph glyph-name="e" unicode="e" 
d="M278 173v-47q0 -66 -31 -98t-90 -32q-60 0 -93.5 35t-33.5 101v305q0 66 33 100t91 34t91 -34t33 -100v-137h-239v-168q0 -60 30.5 -94t87.5 -34q112 0 112 122v47h9zM39 308h230v129q0 60 -30 93t-85 33t-85 -33t-30 -93v-129z" />
    <glyph glyph-name="f" unicode="f" horiz-adv-x="169" 
d="M12 567h46v43q0 36 16 52t54 16h29v-8h-29q-33 0 -47 -13.5t-14 -46.5v-43h90v-8h-90v-559h-9v559h-46v8z" />
    <glyph glyph-name="g" unicode="g" horiz-adv-x="306" 
d="M273 567v-545q0 -54 -28.5 -85t-88.5 -31q-59 0 -90 29.5t-31 80.5v31h9v-31q0 -48 28.5 -75t83.5 -27q57 0 82.5 30t25.5 78v140h-1q-11 -32 -38.5 -55t-75.5 -23q-55 0 -87 31t-32 97v231q0 66 33 97t88 31q48 0 74.5 -22t37.5 -54h1v72h9zM39 212q0 -60 29 -90t81 -30
q22 0 42.5 7.5t36 21.5t25.5 35.5t11 49.5v239q0 30 -9 52t-24.5 36.5t-36 22t-43.5 7.5q-52 0 -82 -30t-30 -90v-231z" />
    <glyph glyph-name="h" unicode="h" horiz-adv-x="298" 
d="M259 445q0 60 -27 89t-76 29q-21 0 -41 -7t-36 -21t-26 -35t-11 -49v-451h-9v678h9v-183h1q11 32 39.5 54t73.5 22q52 0 82 -30t30 -96v-445h-9v445z" />
    <glyph glyph-name="i" unicode="i" horiz-adv-x="75" 
d="M33 567h9v-567h-9v567zM33 678h9v-20h-9v20z" />
    <glyph glyph-name="j" unicode="j" horiz-adv-x="75" 
d="M42 567v-604q0 -26 -12 -39.5t-40 -13.5h-6v8h6q23 0 33 11t10 34v604h9zM33 678h9v-20h-9v20z" />
    <glyph glyph-name="k" unicode="k" horiz-adv-x="254" 
d="M237 0l-195 288v-288h-9v678h9v-387l189 276h10l-190 -277l196 -290h-10z" />
    <glyph glyph-name="l" unicode="l" horiz-adv-x="75" 
d="M33 678h9v-678h-9v678z" />
    <glyph glyph-name="m" unicode="m" horiz-adv-x="484" 
d="M239 451q0 54 -23.5 83t-69.5 29q-20 0 -38 -7t-32.5 -20.5t-23.5 -33.5t-10 -46v-456h-9v567h9v-67h1q11 28 36 49.5t67 21.5q40 0 65 -20t33 -61h1q10 35 37.5 58t69.5 23q49 0 75.5 -30t26.5 -90v-451h-9v451q0 54 -23.5 83t-69.5 29q-20 0 -38.5 -7.5t-33 -22
t-23.5 -35t-9 -47.5v-451h-9v451z" />
    <glyph glyph-name="n" unicode="n" horiz-adv-x="298" 
d="M259 445q0 60 -27 89t-76 29q-21 0 -41 -7t-36 -21t-26 -35t-11 -49v-451h-9v567h9v-72h1q11 32 39.5 54t73.5 22q52 0 82 -30t30 -96v-445h-9v445z" />
    <glyph glyph-name="o" unicode="o" 
d="M278 132q0 -66 -33 -101t-91 -35t-91 35t-33 101v303q0 66 33 101t91 35t91 -35t33 -101v-303zM154 4q55 0 85 34t30 94v303q0 60 -30 94t-85 34t-85 -34t-30 -94v-303q0 -60 30 -94t85 -34z" />
    <glyph glyph-name="p" unicode="p" horiz-adv-x="306" 
d="M33 567h9v-74h1q11 32 40 55t77 23q55 0 85.5 -31t30.5 -97v-319q0 -66 -31.5 -97t-86.5 -31q-48 0 -76 21t-39 53h-1v-160h-9v657zM267 443q0 60 -27.5 90t-79.5 30q-23 0 -43.5 -7.5t-37 -21.5t-26.5 -35.5t-11 -49.5v-335q1 -28 10.5 -49t25.5 -34.5t36.5 -20
t43.5 -6.5q52 0 80.5 30t28.5 90v319z" />
    <glyph glyph-name="q" unicode="q" horiz-adv-x="306" 
d="M273 -90h-9v164h-1q-11 -32 -38.5 -55t-75.5 -23q-55 0 -87 31t-32 97v319q0 66 33 97t88 31q48 0 74.5 -22t37.5 -54h1v72h9v-657zM39 124q0 -60 29 -90t81 -30q22 0 42.5 7.5t36 21.5t25.5 35.5t11 49.5v327q0 30 -9 52t-24.5 36.5t-36 22t-43.5 7.5q-52 0 -82 -30
t-30 -90v-319z" />
    <glyph glyph-name="r" unicode="r" horiz-adv-x="171" 
d="M152 561h-1q-20 0 -39 -7t-34.5 -21t-25 -35t-10.5 -48v-450h-9v567h9v-72h1q11 31 38.5 52.5t70.5 21.5v-8z" />
    <glyph glyph-name="s" unicode="s" horiz-adv-x="290" 
d="M263 117q0 -58 -28.5 -89.5t-92.5 -31.5q-60 0 -88.5 34t-28.5 90v53h9v-53q0 -51 25.5 -83.5t82.5 -32.5q60 0 86 29t26 84v18q0 36 -15 65t-58 63l-72 56q-42 32 -61 60.5t-19 66.5v18q0 48 27 77.5t82 29.5q116 0 116 -118v-50h-9v50q0 110 -107 110q-51 0 -75.5 -27
t-24.5 -72v-18q0 -17 4 -32t12.5 -29t23 -28t35.5 -30l72 -56q46 -36 62 -67t16 -69v-18z" />
    <glyph glyph-name="t" unicode="t" horiz-adv-x="181" 
d="M12 567h46v111h9v-111h90v-8h-90v-491q0 -33 14 -46.5t47 -13.5h29v-8h-29q-38 0 -54 16t-16 52v491h-46v8z" />
    <glyph glyph-name="u" unicode="u" horiz-adv-x="298" 
d="M39 122q0 -60 27 -89t76 -29q21 0 41.5 7.5t36.5 22t26 36.5t10 52v445h9v-567h-9v72h-1q-11 -32 -39.5 -54t-73.5 -22q-52 0 -82 30t-30 96v445h9v-445z" />
    <glyph glyph-name="v" unicode="v" horiz-adv-x="274" 
d="M270 567l-125 -567h-15l-126 567h9l124 -558h1l123 558h9z" />
    <glyph glyph-name="w" unicode="w" horiz-adv-x="442" 
d="M435 567l-97 -567h-15l-102 549l-101 -549h-15l-98 567h9l96 -552h1l102 552h12l103 -552h1l95 552h9z" />
    <glyph glyph-name="x" unicode="x" horiz-adv-x="276" 
d="M269 567l-119 -271l119 -296h-10l-116 287l-126 -287h-10l129 296l-119 271h10l116 -263l116 263h10z" />
    <glyph glyph-name="y" unicode="y" horiz-adv-x="276" 
d="M272 567l-150 -586q-5 -20 -11 -33.5t-14 -22t-20.5 -12t-31.5 -3.5h-20v8h20q33 0 46 14.5t22 49.5l20 77h-5l-124 508h9l122 -497h1l127 497h9z" />
    <glyph glyph-name="z" unicode="z" horiz-adv-x="266" 
d="M30 8h211v-8h-221v8l216 551h-199v8h209v-8z" />
    <glyph glyph-name="braceleft" unicode="{" horiz-adv-x="201" 
d="M69 317q19 -5 29.5 -13.5t15.5 -20.5t5 -27t-1 -31l-15 -181q-2 -29 1 -48.5t12 -31t23 -16t34 -4.5h8v-8h-8q-45 0 -64.5 24t-14.5 84l15 181q1 20 0 36t-8 27.5t-22.5 18t-42.5 6.5h-19v8h19q27 0 42.5 6.5t22.5 18t8 27.5t0 36l-15 181q-5 60 14.5 84t64.5 24h8v-8h-8
q-39 0 -57 -21t-13 -79l15 -181q1 -16 1 -31t-5 -27t-15.5 -21t-29.5 -13z" />
    <glyph glyph-name="bar" unicode="|" horiz-adv-x="79" 
d="M44 698v-788h-9v788h9z" />
    <glyph glyph-name="braceright" unicode="}" horiz-adv-x="201" 
d="M132 317q-19 4 -29.5 13t-15.5 21t-5.5 27t1.5 31l15 181q4 58 -13.5 79t-56.5 21h-8v8h8q45 0 64.5 -24t14.5 -84l-15 -181q-2 -20 -0.5 -36t8.5 -27.5t22.5 -18t42.5 -6.5h19v-8h-19q-27 0 -42.5 -6.5t-22.5 -18t-8.5 -27.5t0.5 -36l15 -181q5 -60 -14.5 -84t-64.5 -24
h-8v8h8q19 0 33.5 4.5t23.5 16t12 31t1 48.5l-15 181q-2 16 -1.5 31t5.5 27t15.5 20.5t29.5 13.5z" />
    <glyph glyph-name="asciitilde" unicode="~" horiz-adv-x="229" 
d="M67 339q14 0 25.5 -5t23 -11t22.5 -11t24 -5q17 0 24 11.5t9 25.5h8q-1 -19 -11.5 -32t-29.5 -13q-14 0 -25.5 5t-23 11t-22.5 11t-24 5q-17 0 -24 -11.5t-9 -25.5h-8q1 19 11.5 32t29.5 13z" />
    <glyph glyph-name="exclamdown" unicode="&#xa1;" horiz-adv-x="81" 
d="M45 566h-9v22h9v-22zM45 -90h-9l1 590h7z" />
    <glyph glyph-name="cent" unicode="&#xa2;" horiz-adv-x="296" 
d="M271 173v-47q0 -129 -114 -130v-46h-8v46q-57 2 -88 36.5t-31 99.5v305q0 65 31.5 98.5t87.5 35.5v42h8v-42q57 -1 85.5 -31.5t28.5 -96.5v-40h-9v40q0 119 -105 120v-559q105 0 105 122v47h9zM39 132q0 -59 28 -92.5t82 -35.5v559q-53 -2 -81.5 -34.5t-28.5 -91.5v-305z
" />
    <glyph glyph-name="sterling" unicode="&#xa3;" horiz-adv-x="322" 
d="M15 331h42v215q0 73 31.5 104.5t88.5 31.5q56 0 87 -28.5t31 -93.5v-73h-9v73q0 62 -29.5 88t-79.5 26q-51 0 -81 -29.5t-30 -98.5v-215h154v-8h-154v-315h234v-8h-243v323h-42v8z" />
    <glyph glyph-name="yen" unicode="&#xa5;" horiz-adv-x="305" 
d="M41 267h108v27l-130 384h9l125 -369h1l123 369h9l-128 -384v-27h106v-8h-106v-35h106v-8h-106v-216h-9v216h-108v8h108v35h-108v8z" />
    <glyph glyph-name="brokenbar" unicode="&#xa6;" horiz-adv-x="79" 
d="M35 -90v381h9v-381h-9zM44 698v-359h-9v359h9z" />
    <glyph glyph-name="section" unicode="&#xa7;" horiz-adv-x="334" 
d="M27 341q0 38 23 61.5t58 34.5q-34 25 -43 51.5t-9 61.5v17q0 56 26.5 85.5t84.5 29.5q60 0 86 -32t26 -88v-46h-9v46q0 51 -23 81.5t-80 30.5q-54 0 -78 -26.5t-24 -80.5v-17q0 -36 10.5 -62.5t49.5 -51.5l101 -65q42 -27 61.5 -53t19.5 -68q0 -35 -23.5 -59t-57.5 -33
v-1q36 -26 48 -54t12 -63v-20q0 -58 -26 -86t-90 -28q-60 0 -89 31.5t-29 87.5v51h9v-51q0 -51 26 -81t83 -30q60 0 83.5 25.5t23.5 80.5v20q0 36 -13.5 64.5t-54.5 54.5l-101 65q-41 26 -61 52t-20 65zM212 167l7 -5q36 11 57.5 33.5t21.5 54.5q0 38 -17 62.5t-58 50.5
l-101 65q-2 1 -3.5 2t-3.5 2q-38 -12 -58.5 -34t-20.5 -57t17.5 -59t57.5 -50z" />
    <glyph glyph-name="dieresis" unicode="&#xa8;" horiz-adv-x="400" 
d="M165 638h9v-20h-9v20zM225 638h9v-20h-9v20z" />
    <glyph glyph-name="copyright" unicode="&#xa9;" horiz-adv-x="368" 
d="M344 305q0 -38 -10.5 -70.5t-30.5 -56t-50 -36.5t-69 -13t-69 13t-50.5 36.5t-30.5 56t-10 70.5v76q0 38 10 70.5t30.5 56t50.5 36.5t69 13t69 -13t50 -36.5t30.5 -56t10.5 -70.5v-76zM335 381q0 37 -9.5 67.5t-28.5 53t-47.5 35t-65.5 12.5q-38 0 -66 -12.5t-47 -35
t-28.5 -53t-9.5 -67.5v-76q0 -37 9.5 -67.5t28.5 -53t47 -35t66 -12.5q37 0 65.5 12.5t47.5 35t28.5 53t9.5 67.5v76zM256 307v-23q0 -38 -16.5 -59t-58.5 -21q-41 0 -58 24t-17 63v107q0 40 17.5 63.5t57.5 23.5q42 0 58.5 -20t16.5 -58v-17h-9v17q0 35 -15 52.5t-51 17.5
q-37 0 -51.5 -21.5t-14.5 -57.5v-107q0 -35 14.5 -57t51.5 -22q36 0 51 18.5t15 53.5v23h9z" />
    <glyph glyph-name="ordfeminine" unicode="&#xaa;" horiz-adv-x="277" 
d="M238 202v72h-1q-11 -32 -35 -54t-69 -22q-52 0 -80 27t-28 88v16q0 28 8 47.5t22.5 33.5t34.5 25t44 22q57 27 80.5 47t23.5 40v28q0 22 -4 41t-14 33t-27.5 21.5t-44.5 7.5q-53 0 -76 -24.5t-23 -70.5v-43h-9v43q0 49 26 76t82 27q58 0 78.5 -30t20.5 -81v-370h-9z
M133 206q43 0 74 29t31 89v195q-4 -6 -9.5 -12.5t-16.5 -15t-29.5 -19t-46.5 -23.5q-23 -11 -42 -21.5t-32.5 -23.5t-20.5 -31t-7 -44v-16q0 -56 25 -81.5t74 -25.5z" />
    <glyph glyph-name="guillemotleft" unicode="&#xab;" horiz-adv-x="180" 
d="M100 378l-64 -146l64 -146h-9l-64 146l64 146h9zM153 378l-64 -146l64 -146h-9l-64 146l64 146h9z" />
    <glyph glyph-name="registered" unicode="&#xae;" horiz-adv-x="368" 
d="M344 429q0 -38 -10.5 -70.5t-30.5 -56t-50 -36.5t-69 -13t-69 13t-50.5 36.5t-30.5 56t-10 70.5v76q0 38 10 70.5t30.5 56t50.5 36.5t69 13t69 -13t50 -36.5t30.5 -56t10.5 -70.5v-76zM335 505q0 37 -9.5 67.5t-28.5 53t-47.5 35t-65.5 12.5q-38 0 -66 -12.5t-47 -35
t-28.5 -53t-9.5 -67.5v-76q0 -37 9.5 -67.5t28.5 -53t47 -35t66 -12.5q37 0 65.5 12.5t47.5 35t28.5 53t9.5 67.5v76zM137 472v-134h-9v268h60q62 0 62 -55v-27q0 -32 -15 -44t-47 -12h-37l107 -130h-11zM137 598v-122h51q30 0 41.5 12t11.5 36v27q0 21 -11.5 34t-41.5 13
h-51z" />
    <glyph glyph-name="macron" unicode="&#xaf;" horiz-adv-x="400" 
d="M132 626h136v-8h-136v8z" />
    <glyph glyph-name="degree" unicode="&#xb0;" horiz-adv-x="167" 
d="M19 617q0 28 18.5 47t44.5 19q28 0 47 -19t19 -47q0 -26 -19 -44.5t-47 -18.5q-26 0 -44.5 18.5t-18.5 44.5zM28 617q0 -23 15.5 -39t38.5 -16q24 0 40.5 16t16.5 39q0 25 -16.5 41.5t-40.5 16.5q-23 0 -38.5 -16.5t-15.5 -41.5z" />
    <glyph glyph-name="twosuperior" unicode="&#xb2;" horiz-adv-x="203" 
d="M173 386h-146v21q0 32 9.5 49t35.5 38l50 40q22 18 33 32.5t11 32.5v16q0 28 -15.5 43.5t-46.5 15.5q-29 0 -47.5 -16t-18.5 -47v-35h-9v35q0 35 21.5 53t53.5 18q34 0 52.5 -17.5t18.5 -49.5v-16q0 -20 -11 -35.5t-36 -35.5l-50 -40q-26 -20 -34 -36t-8 -45v-13h137v-8z
" />
    <glyph glyph-name="threesuperior" unicode="&#xb3;" horiz-adv-x="207" 
d="M36 480v-29q0 -61 67 -61q37 0 52 15.5t15 43.5v39q0 22 -11 35.5t-41 14.5h-31v8h31q28 0 37.5 17t9.5 33v22q0 56 -63 56q-35 0 -48.5 -17t-13.5 -42v-18h-9v18q0 28 15.5 47.5t55.5 19.5q72 0 72 -64v-22q0 -17 -8 -32.5t-30 -21.5q24 -5 33.5 -19t9.5 -35v-39
q0 -31 -17 -49t-59 -18q-38 0 -57 18t-19 51v29h9z" />
    <glyph glyph-name="acute" unicode="&#xb4;" horiz-adv-x="400" 
d="M269 660l-139 -67v8l139 68v-9z" />
    <glyph glyph-name="paragraph" unicode="&#xb6;" horiz-adv-x="299" 
d="M193 0v300h-47q-60 0 -90.5 28t-30.5 81v160q0 53 30.5 81t90.5 28h120v-678h-9v670h-55v-670h-9z" />
    <glyph glyph-name="periodcentered" unicode="&#xb7;" horiz-adv-x="81" 
d="M36 352h9v-22h-9v22z" />
    <glyph glyph-name="cedilla" unicode="&#xb8;" horiz-adv-x="400" 
d="M153 -25q23 0 36 -7.5t13 -23.5q0 -18 -20.5 -26t-55.5 -8v8q29 0 48 6t19 20q0 12 -11 17.5t-28 5.5h-9v33h8v-25z" />
    <glyph glyph-name="onesuperior" unicode="&#xb9;" horiz-adv-x="131" 
d="M86 678v-292h-9v276h-1l-57 -64h-1v11l61 69h7z" />
    <glyph glyph-name="ordmasculine" unicode="&#xba;" horiz-adv-x="288" 
d="M258 329q0 -63 -30 -97t-84 -34t-84 34t-30 97v223q0 63 30 97t84 34t84 -34t30 -97v-223zM144 206q51 0 78 32.5t27 90.5v223q0 58 -27 90.5t-78 32.5t-78 -32.5t-27 -90.5v-223q0 -58 27 -90.5t78 -32.5z" />
    <glyph glyph-name="guillemotright" unicode="&#xbb;" horiz-adv-x="180" 
d="M89 378l64 -146l-64 -146h-9l64 146l-64 146h9zM36 378l64 -146l-64 -146h-9l64 146l-64 146h9z" />
    <glyph glyph-name="onequarter" unicode="&#xbc;" horiz-adv-x="239" 
d="M21 344h197v-8h-197v8zM127 678v-292h-9v276h-1l-57 -64h-1v11l61 69h7zM30 70l117 222h13v-220h33v-8h-33v-64h-9v64h-121v6zM41 72h110v208h-1z" />
    <glyph glyph-name="onehalf" unicode="&#xbd;" horiz-adv-x="239" 
d="M21 344h197v-8h-197v8zM127 678v-292h-9v276h-1l-57 -64h-1v11l61 69h7zM195 0h-146v21q0 32 9.5 49t35.5 38l50 40q22 18 33 32.5t11 32.5v16q0 28 -15.5 43.5t-46.5 15.5q-29 0 -47.5 -16t-18.5 -47v-35h-9v35q0 35 21.5 53t53.5 18q34 0 52.5 -17.5t18.5 -49.5v-16
q0 -20 -11 -35.5t-36 -35.5l-50 -40q-26 -20 -34 -36t-8 -45v-13h137v-8z" />
    <glyph glyph-name="threequarters" unicode="&#xbe;" horiz-adv-x="253" 
d="M21 344h197v-8h-197v8zM34 70l117 222h13v-220h33v-8h-33v-64h-9v64h-121v6zM45 72h110v208h-1zM52 480v-29q0 -61 67 -61q37 0 52 15.5t15 43.5v39q0 22 -11 35.5t-41 14.5h-31v8h31q28 0 37.5 17t9.5 33v22q0 56 -63 56q-35 0 -48.5 -17t-13.5 -42v-18h-9v18
q0 28 15.5 47.5t55.5 19.5q72 0 72 -64v-22q0 -17 -8 -32.5t-30 -21.5q24 -5 33.5 -19t9.5 -35v-39q0 -31 -17 -49t-59 -18q-38 0 -57 18t-19 51v29h9z" />
    <glyph glyph-name="questiondown" unicode="&#xbf;" horiz-adv-x="293" 
d="M169 500v-107q0 -25 -2 -41.5t-7 -30t-13.5 -26.5t-21.5 -32l-44 -64q-23 -34 -32.5 -58t-9.5 -56v-48q0 -63 25.5 -93t79.5 -30q53 0 83.5 28t30.5 88v71h9v-71q0 -65 -33.5 -94.5t-89.5 -29.5q-114 0 -114 131v48q0 35 10.5 60.5t33.5 58.5l44 64q12 17 20 29.5t13 26
t7 29.5t2 40v107h9zM169 566h-9v22h9v-22z" />
    <glyph glyph-name="Agrave" unicode="&#xc0;" horiz-adv-x="321" 
d="M12 0l140 678h15l142 -678h-9l-43 202h-195l-41 -202h-9zM64 210h192l-96 461h-1zM86 774l139 -68v-8l-139 67v9z" />
    <glyph glyph-name="Aacute" unicode="&#xc1;" horiz-adv-x="321" 
d="M12 0l140 678h15l142 -678h-9l-43 202h-195l-41 -202h-9zM64 210h192l-96 461h-1zM240 765l-139 -67v8l139 68v-9z" />
    <glyph glyph-name="Acircumflex" unicode="&#xc2;" horiz-adv-x="321" 
d="M12 0l140 678h15l142 -678h-9l-43 202h-195l-41 -202h-9zM64 210h192l-96 461h-1zM83 700v9l75 74h6l73 -74v-9l-76 74z" />
    <glyph glyph-name="Atilde" unicode="&#xc3;" horiz-adv-x="321" 
d="M12 0l140 678h15l142 -678h-9l-43 202h-195l-41 -202h-9zM64 210h192l-96 461h-1zM123 765q11 0 20.5 -5t18.5 -11t17.5 -11t18.5 -5q17 0 24 11.5t9 25.5h8q-1 -19 -11.5 -32t-29.5 -13q-11 0 -20.5 5t-18.5 11t-17.5 11t-18.5 5q-17 0 -24 -11.5t-9 -25.5h-8
q1 19 11.5 32t29.5 13z" />
    <glyph glyph-name="Adieresis" unicode="&#xc4;" horiz-adv-x="321" 
d="M12 0l140 678h15l142 -678h-9l-43 202h-195l-41 -202h-9zM64 210h192l-96 461h-1zM126 743h9v-20h-9v20zM186 743h9v-20h-9v20z" />
    <glyph glyph-name="Aring" unicode="&#xc5;" horiz-adv-x="321" 
d="M12 0l140 678h15l142 -678h-9l-43 202h-195l-41 -202h-9zM64 210h192l-96 461h-1zM109 754q0 22 14.5 37.5t36.5 15.5q23 0 38 -15.5t15 -37.5t-15 -37t-38 -15q-22 0 -36.5 15t-14.5 37zM118 754q0 -19 12 -31.5t30 -12.5q19 0 31.5 12.5t12.5 31.5t-12.5 32t-31.5 13
q-18 0 -30 -13t-12 -32z" />
    <glyph glyph-name="AE" unicode="&#xc6;" horiz-adv-x="503" 
d="M9 0l197 678h272v-8h-211v-321h151v-8h-151v-333h211v-8h-220v202h-182l-58 -202h-9zM79 210h179v460h-46z" />
    <glyph glyph-name="Ccedilla" unicode="&#xc7;" horiz-adv-x="321" 
d="M155 -4v-21q23 0 36 -7.5t13 -23.5q0 -18 -20.5 -26t-55.5 -8v8q29 0 48 6t19 20q0 12 -11 17.5t-28 5.5h-9v30q-32 3 -54 17t-36 35t-20.5 48t-6.5 56v372q0 31 7.5 59.5t23.5 50.5t42 34.5t63 12.5q39 0 63.5 -10t39 -29t20 -45.5t5.5 -59.5v-81h-9v81q0 31 -5 56.5
t-18.5 43t-36.5 27t-59 9.5q-35 0 -59 -12t-39 -32.5t-22 -47.5t-7 -57v-372q0 -30 7 -57t22 -47.5t39 -32.5t59 -12q36 0 59 10.5t36.5 29t18.5 43.5t5 54v116h9v-116q0 -31 -5.5 -57.5t-20 -46t-39 -30.5t-63.5 -11h-11z" />
    <glyph glyph-name="Egrave" unicode="&#xc8;" horiz-adv-x="288" 
d="M33 678h230v-8h-221v-321h161v-8h-161v-333h221v-8h-230v678zM81 774l139 -68v-8l-139 67v9z" />
    <glyph glyph-name="Eacute" unicode="&#xc9;" horiz-adv-x="288" 
d="M235 765l-139 -67v8l139 68v-9zM33 678h230v-8h-221v-321h161v-8h-161v-333h221v-8h-230v678z" />
    <glyph glyph-name="Ecircumflex" unicode="&#xca;" horiz-adv-x="288" 
d="M78 700v9l75 74h6l73 -74v-9l-76 74zM33 678h230v-8h-221v-321h161v-8h-161v-333h221v-8h-230v678z" />
    <glyph glyph-name="Edieresis" unicode="&#xcb;" horiz-adv-x="288" 
d="M121 743h9v-20h-9v20zM181 743h9v-20h-9v20zM33 678h230v-8h-221v-321h161v-8h-161v-333h221v-8h-230v678z" />
    <glyph glyph-name="Igrave" unicode="&#xcc;" horiz-adv-x="75" 
d="M33 678h9v-678h-9v678zM-37 774l139 -68v-8l-139 67v9z" />
    <glyph glyph-name="Iacute" unicode="&#xcd;" horiz-adv-x="75" 
d="M33 678h9v-678h-9v678zM117 765l-139 -67v8l139 68v-9z" />
    <glyph glyph-name="Icircumflex" unicode="&#xce;" horiz-adv-x="75" 
d="M33 678h9v-678h-9v678zM-40 700v9l75 74h6l73 -74v-9l-76 74z" />
    <glyph glyph-name="Idieresis" unicode="&#xcf;" horiz-adv-x="75" 
d="M33 678h9v-678h-9v678zM3 743h9v-20h-9v20zM63 743h9v-20h-9v20z" />
    <glyph glyph-name="Eth" unicode="&#xd0;" horiz-adv-x="338" 
d="M12 349h33v329h113q40 0 68.5 -12.5t46.5 -34.5t26.5 -50.5t8.5 -59.5v-364q0 -31 -8.5 -59.5t-26.5 -50t-46.5 -34.5t-68.5 -13h-113v341h-33v8zM54 349h143v-8h-143v-333h104q38 0 65 12t44 32.5t24.5 47.5t7.5 57v364q0 30 -7.5 57t-24.5 47.5t-44 32.5t-65 12h-104
v-321z" />
    <glyph glyph-name="Ntilde" unicode="&#xd1;" horiz-adv-x="315" 
d="M42 667v-667h-9v678h15l225 -659v659h9v-678h-12zM130 765q11 0 20.5 -5t18.5 -11t17.5 -11t18.5 -5q17 0 24 11.5t9 25.5h8q-1 -19 -11.5 -32t-29.5 -13q-11 0 -20.5 5t-18.5 11t-17.5 11t-18.5 5q-17 0 -24 -11.5t-9 -25.5h-8q1 19 11.5 32t29.5 13z" />
    <glyph glyph-name="Ograve" unicode="&#xd2;" horiz-adv-x="340" 
d="M170 4q34 0 59 12t41 32.5t23.5 47.5t7.5 57v372q0 30 -7.5 57t-23.5 47.5t-41 32.5t-59 12q-35 0 -59.5 -12t-40.5 -32.5t-23.5 -47.5t-7.5 -57v-372q0 -30 7.5 -57t23.5 -47.5t40.5 -32.5t59.5 -12zM170 -4q-37 0 -63.5 13t-43.5 34.5t-25 50t-8 59.5v372q0 31 8 59.5
t25 50.5t43.5 34.5t63.5 12.5t63.5 -12.5t43.5 -34.5t25 -50.5t8 -59.5v-372q0 -31 -8 -59.5t-25 -50t-43.5 -34.5t-63.5 -13zM96 774l139 -68v-8l-139 67v9z" />
    <glyph glyph-name="Oacute" unicode="&#xd3;" horiz-adv-x="340" 
d="M250 765l-139 -67v8l139 68v-9zM170 4q34 0 59 12t41 32.5t23.5 47.5t7.5 57v372q0 30 -7.5 57t-23.5 47.5t-41 32.5t-59 12q-35 0 -59.5 -12t-40.5 -32.5t-23.5 -47.5t-7.5 -57v-372q0 -30 7.5 -57t23.5 -47.5t40.5 -32.5t59.5 -12zM170 -4q-37 0 -63.5 13t-43.5 34.5
t-25 50t-8 59.5v372q0 31 8 59.5t25 50.5t43.5 34.5t63.5 12.5t63.5 -12.5t43.5 -34.5t25 -50.5t8 -59.5v-372q0 -31 -8 -59.5t-25 -50t-43.5 -34.5t-63.5 -13z" />
    <glyph glyph-name="Ocircumflex" unicode="&#xd4;" horiz-adv-x="340" 
d="M93 700v9l75 74h6l73 -74v-9l-76 74zM170 4q34 0 59 12t41 32.5t23.5 47.5t7.5 57v372q0 30 -7.5 57t-23.5 47.5t-41 32.5t-59 12q-35 0 -59.5 -12t-40.5 -32.5t-23.5 -47.5t-7.5 -57v-372q0 -30 7.5 -57t23.5 -47.5t40.5 -32.5t59.5 -12zM170 -4q-37 0 -63.5 13
t-43.5 34.5t-25 50t-8 59.5v372q0 31 8 59.5t25 50.5t43.5 34.5t63.5 12.5t63.5 -12.5t43.5 -34.5t25 -50.5t8 -59.5v-372q0 -31 -8 -59.5t-25 -50t-43.5 -34.5t-63.5 -13z" />
    <glyph glyph-name="Otilde" unicode="&#xd5;" horiz-adv-x="340" 
d="M170 4q34 0 59 12t41 32.5t23.5 47.5t7.5 57v372q0 30 -7.5 57t-23.5 47.5t-41 32.5t-59 12q-35 0 -59.5 -12t-40.5 -32.5t-23.5 -47.5t-7.5 -57v-372q0 -30 7.5 -57t23.5 -47.5t40.5 -32.5t59.5 -12zM170 -4q-37 0 -63.5 13t-43.5 34.5t-25 50t-8 59.5v372q0 31 8 59.5
t25 50.5t43.5 34.5t63.5 12.5t63.5 -12.5t43.5 -34.5t25 -50.5t8 -59.5v-372q0 -31 -8 -59.5t-25 -50t-43.5 -34.5t-63.5 -13zM133 765q11 0 20.5 -5t18.5 -11t17.5 -11t18.5 -5q17 0 24 11.5t9 25.5h8q-1 -19 -11.5 -32t-29.5 -13q-11 0 -20.5 5t-18.5 11t-17.5 11t-18.5 5
q-17 0 -24 -11.5t-9 -25.5h-8q1 19 11.5 32t29.5 13z" />
    <glyph glyph-name="Odieresis" unicode="&#xd6;" horiz-adv-x="340" 
d="M136 743h9v-20h-9v20zM196 743h9v-20h-9v20zM170 4q34 0 59 12t41 32.5t23.5 47.5t7.5 57v372q0 30 -7.5 57t-23.5 47.5t-41 32.5t-59 12q-35 0 -59.5 -12t-40.5 -32.5t-23.5 -47.5t-7.5 -57v-372q0 -30 7.5 -57t23.5 -47.5t40.5 -32.5t59.5 -12zM170 -4q-37 0 -63.5 13
t-43.5 34.5t-25 50t-8 59.5v372q0 31 8 59.5t25 50.5t43.5 34.5t63.5 12.5t63.5 -12.5t43.5 -34.5t25 -50.5t8 -59.5v-372q0 -31 -8 -59.5t-25 -50t-43.5 -34.5t-63.5 -13z" />
    <glyph glyph-name="multiply" unicode="&#xd7;" horiz-adv-x="316" 
d="M35 199l117 130l-124 138l6 6l124 -138l117 131l6 -6l-118 -131l125 -137l-6 -6l-124 137l-117 -130z" />
    <glyph glyph-name="Oslash" unicode="&#xd8;" horiz-adv-x="340" 
d="M170 -4q-47 0 -78 20l-13 -50h-9l14 56q-29 21 -41.5 56t-12.5 75v372q0 31 8 59.5t25 50.5t43.5 34.5t63.5 12.5q47 0 80 -22l11 43h9l-13 -48q28 -22 40.5 -56t12.5 -74v-372q0 -31 -8 -59.5t-25 -50t-43.5 -34.5t-63.5 -13zM170 674q-35 0 -59.5 -12t-40.5 -32.5
t-23.5 -47.5t-7.5 -57v-372q0 -37 11.5 -69t36.5 -53l160 620q-15 11 -34 17t-43 6zM170 4q34 0 59 12t41 32.5t23.5 47.5t7.5 57v372q0 36 -11 68t-35 52l-161 -620q32 -21 76 -21z" />
    <glyph glyph-name="Ugrave" unicode="&#xd9;" horiz-adv-x="324" 
d="M293 678v-533q0 -31 -6.5 -58t-22 -47.5t-40.5 -32t-62 -11.5t-62 11.5t-40.5 32t-22 47.5t-6.5 58v533h9v-533q0 -30 6 -55.5t20.5 -44.5t37.5 -30t58 -11q34 0 57.5 11t38 30t20.5 44.5t6 55.5v533h9zM88 774l139 -68v-8l-139 67v9z" />
    <glyph glyph-name="Uacute" unicode="&#xda;" horiz-adv-x="324" 
d="M242 765l-139 -67v8l139 68v-9zM293 678v-533q0 -31 -6.5 -58t-22 -47.5t-40.5 -32t-62 -11.5t-62 11.5t-40.5 32t-22 47.5t-6.5 58v533h9v-533q0 -30 6 -55.5t20.5 -44.5t37.5 -30t58 -11q34 0 57.5 11t38 30t20.5 44.5t6 55.5v533h9z" />
    <glyph glyph-name="Ucircumflex" unicode="&#xdb;" horiz-adv-x="324" 
d="M85 700v9l75 74h6l73 -74v-9l-76 74zM293 678v-533q0 -31 -6.5 -58t-22 -47.5t-40.5 -32t-62 -11.5t-62 11.5t-40.5 32t-22 47.5t-6.5 58v533h9v-533q0 -30 6 -55.5t20.5 -44.5t37.5 -30t58 -11q34 0 57.5 11t38 30t20.5 44.5t6 55.5v533h9z" />
    <glyph glyph-name="Udieresis" unicode="&#xdc;" horiz-adv-x="324" 
d="M128 743h9v-20h-9v20zM188 743h9v-20h-9v20zM293 678v-533q0 -31 -6.5 -58t-22 -47.5t-40.5 -32t-62 -11.5t-62 11.5t-40.5 32t-22 47.5t-6.5 58v533h9v-533q0 -30 6 -55.5t20.5 -44.5t37.5 -30t58 -11q34 0 57.5 11t38 30t20.5 44.5t6 55.5v533h9z" />
    <glyph glyph-name="Yacute" unicode="&#xdd;" horiz-adv-x="287" 
d="M149 258v-258h-9v258l-130 420h9l125 -405h1l123 405h9zM225 765l-139 -67v8l139 68v-9z" />
    <glyph glyph-name="Thorn" unicode="&#xde;" horiz-adv-x="287" 
d="M33 678h9v-130h99q60 0 90.5 -28t30.5 -81v-176q0 -53 -30.5 -81t-90.5 -28h-99v-154h-9v678zM42 540v-378h99q56 0 84 26t28 75v176q0 49 -28 75t-84 26h-99z" />
    <glyph glyph-name="germandbls" unicode="&#xdf;" horiz-adv-x="290" 
d="M42 0h-9v573q0 58 30 83.5t84 25.5q51 0 74 -15.5t23 -47.5q0 -27 -13.5 -39t-37.5 -17q35 -5 51 -29t16 -71v-339q0 -54 -25.5 -89t-89.5 -35h-36v8h36q57 0 81.5 32t24.5 84v339q0 48 -19 72t-63 24h-50v8h51q35 0 50 14.5t15 37.5q0 27 -19.5 41t-68.5 14
q-51 0 -78 -23.5t-27 -77.5v-573z" />
    <glyph glyph-name="agrave" unicode="&#xe0;" horiz-adv-x="290" 
d="M251 0v72h-1q-11 -32 -39.5 -54t-73.5 -22q-52 0 -82 30t-30 96v49q0 32 8 53t22.5 36t35.5 26t47 23q63 28 88 47.5t25 39.5v50q0 54 -20 85.5t-75 31.5q-53 0 -80.5 -28t-27.5 -79v-53h-9v53q0 55 30.5 85t86.5 30q58 0 81 -32.5t23 -92.5v-446h-9zM137 4
q21 0 41.5 7.5t36.5 22t26 36.5t10 52v249q-4 -6 -10 -12.5t-18.5 -14.5t-32 -18.5t-50.5 -24.5q-26 -12 -45.5 -23t-33 -25t-20.5 -33.5t-7 -48.5v-49q0 -60 27 -89t76 -29zM79 669l139 -68v-8l-139 67v9z" />
    <glyph glyph-name="aacute" unicode="&#xe1;" horiz-adv-x="290" 
d="M251 0v72h-1q-11 -32 -39.5 -54t-73.5 -22q-52 0 -82 30t-30 96v49q0 32 8 53t22.5 36t35.5 26t47 23q63 28 88 47.5t25 39.5v50q0 54 -20 85.5t-75 31.5q-53 0 -80.5 -28t-27.5 -79v-53h-9v53q0 55 30.5 85t86.5 30q58 0 81 -32.5t23 -92.5v-446h-9zM137 4
q21 0 41.5 7.5t36.5 22t26 36.5t10 52v249q-4 -6 -10 -12.5t-18.5 -14.5t-32 -18.5t-50.5 -24.5q-26 -12 -45.5 -23t-33 -25t-20.5 -33.5t-7 -48.5v-49q0 -60 27 -89t76 -29zM233 660l-139 -67v8l139 68v-9z" />
    <glyph glyph-name="acircumflex" unicode="&#xe2;" horiz-adv-x="290" 
d="M251 0v72h-1q-11 -32 -39.5 -54t-73.5 -22q-52 0 -82 30t-30 96v49q0 32 8 53t22.5 36t35.5 26t47 23q63 28 88 47.5t25 39.5v50q0 54 -20 85.5t-75 31.5q-53 0 -80.5 -28t-27.5 -79v-53h-9v53q0 55 30.5 85t86.5 30q58 0 81 -32.5t23 -92.5v-446h-9zM137 4
q21 0 41.5 7.5t36.5 22t26 36.5t10 52v249q-4 -6 -10 -12.5t-18.5 -14.5t-32 -18.5t-50.5 -24.5q-26 -12 -45.5 -23t-33 -25t-20.5 -33.5t-7 -48.5v-49q0 -60 27 -89t76 -29zM76 595v9l75 74h6l73 -74v-9l-76 74z" />
    <glyph glyph-name="atilde" unicode="&#xe3;" horiz-adv-x="290" 
d="M251 0v72h-1q-11 -32 -39.5 -54t-73.5 -22q-52 0 -82 30t-30 96v49q0 32 8 53t22.5 36t35.5 26t47 23q63 28 88 47.5t25 39.5v50q0 54 -20 85.5t-75 31.5q-53 0 -80.5 -28t-27.5 -79v-53h-9v53q0 55 30.5 85t86.5 30q58 0 81 -32.5t23 -92.5v-446h-9zM137 4
q21 0 41.5 7.5t36.5 22t26 36.5t10 52v249q-4 -6 -10 -12.5t-18.5 -14.5t-32 -18.5t-50.5 -24.5q-26 -12 -45.5 -23t-33 -25t-20.5 -33.5t-7 -48.5v-49q0 -60 27 -89t76 -29zM116 660q11 0 20.5 -5t18.5 -11t17.5 -11t18.5 -5q17 0 24 11.5t9 25.5h8q-1 -19 -11.5 -32
t-29.5 -13q-11 0 -20.5 5t-18.5 11t-17.5 11t-18.5 5q-17 0 -24 -11.5t-9 -25.5h-8q1 19 11.5 32t29.5 13z" />
    <glyph glyph-name="adieresis" unicode="&#xe4;" horiz-adv-x="290" 
d="M251 0v72h-1q-11 -32 -39.5 -54t-73.5 -22q-52 0 -82 30t-30 96v49q0 32 8 53t22.5 36t35.5 26t47 23q63 28 88 47.5t25 39.5v50q0 54 -20 85.5t-75 31.5q-53 0 -80.5 -28t-27.5 -79v-53h-9v53q0 55 30.5 85t86.5 30q58 0 81 -32.5t23 -92.5v-446h-9zM137 4
q21 0 41.5 7.5t36.5 22t26 36.5t10 52v249q-4 -6 -10 -12.5t-18.5 -14.5t-32 -18.5t-50.5 -24.5q-26 -12 -45.5 -23t-33 -25t-20.5 -33.5t-7 -48.5v-49q0 -60 27 -89t76 -29zM119 638h9v-20h-9v20zM179 638h9v-20h-9v20z" />
    <glyph glyph-name="aring" unicode="&#xe5;" horiz-adv-x="290" 
d="M251 0v72h-1q-11 -32 -39.5 -54t-73.5 -22q-52 0 -82 30t-30 96v49q0 32 8 53t22.5 36t35.5 26t47 23q63 28 88 47.5t25 39.5v50q0 54 -20 85.5t-75 31.5q-53 0 -80.5 -28t-27.5 -79v-53h-9v53q0 55 30.5 85t86.5 30q58 0 81 -32.5t23 -92.5v-446h-9zM137 4
q21 0 41.5 7.5t36.5 22t26 36.5t10 52v249q-4 -6 -10 -12.5t-18.5 -14.5t-32 -18.5t-50.5 -24.5q-26 -12 -45.5 -23t-33 -25t-20.5 -33.5t-7 -48.5v-49q0 -60 27 -89t76 -29zM101 644q0 22 14.5 37.5t36.5 15.5q23 0 38 -15.5t15 -37.5t-15 -37t-38 -15q-22 0 -36.5 15
t-14.5 37zM110 644q0 -19 12 -31.5t30 -12.5q19 0 31.5 12.5t12.5 31.5t-12.5 32t-31.5 13q-18 0 -30 -13t-12 -32z" />
    <glyph glyph-name="ae" unicode="&#xe6;" horiz-adv-x="529" 
d="M499 173v-47q0 -66 -32.5 -98t-91.5 -32q-49 0 -75.5 23.5t-34.5 68.5h-1q-12 -42 -48.5 -67t-81.5 -25q-52 0 -80.5 30t-28.5 96v59q0 64 31.5 95.5t91.5 31.5h113v138q0 54 -21.5 85.5t-76.5 31.5q-53 0 -84 -28t-31 -79v-53h-9v53q0 55 34 85t90 30q48 0 72.5 -23
t30.5 -66q20 89 116 89q117 0 117 -134v-137h-229v-168q0 -60 24 -94t81 -34q55 0 85 29.5t30 92.5v47h9zM134 4q21 0 43.5 7.5t41 22t30.5 36.5t12 52v178h-114q-57 0 -85 -30.5t-28 -88.5v-59q0 -118 100 -118zM270 308h220v129q0 60 -26.5 93t-81.5 33t-83.5 -33
t-28.5 -93v-129z" />
    <glyph glyph-name="ccedilla" unicode="&#xe7;" horiz-adv-x="296" 
d="M271 173v-47q0 -130 -116 -130h-13v-21q20 0 33.5 -7.5t13.5 -23.5q0 -18 -20.5 -26t-55.5 -8v8q29 0 48 6t19 20q0 12 -11 17.5t-26 5.5h-9v30q-51 6 -77.5 40.5t-26.5 94.5v305q0 66 33 100t91 34t87.5 -31t29.5 -97v-40h-9v40q0 120 -108 120q-55 0 -85 -33t-30 -93
v-305q0 -60 29.5 -94t86.5 -34q107 0 107 122v47h9z" />
    <glyph glyph-name="egrave" unicode="&#xe8;" 
d="M278 173v-47q0 -66 -31 -98t-90 -32q-60 0 -93.5 35t-33.5 101v305q0 66 33 100t91 34t91 -34t33 -100v-137h-239v-168q0 -60 30.5 -94t87.5 -34q112 0 112 122v47h9zM39 308h230v129q0 60 -30 93t-85 33t-85 -33t-30 -93v-129zM81 669l139 -68v-8l-139 67v9z" />
    <glyph glyph-name="eacute" unicode="&#xe9;" 
d="M278 173v-47q0 -66 -31 -98t-90 -32q-60 0 -93.5 35t-33.5 101v305q0 66 33 100t91 34t91 -34t33 -100v-137h-239v-168q0 -60 30.5 -94t87.5 -34q112 0 112 122v47h9zM39 308h230v129q0 60 -30 93t-85 33t-85 -33t-30 -93v-129zM235 660l-139 -67v8l139 68v-9z" />
    <glyph glyph-name="ecircumflex" unicode="&#xea;" 
d="M278 173v-47q0 -66 -31 -98t-90 -32q-60 0 -93.5 35t-33.5 101v305q0 66 33 100t91 34t91 -34t33 -100v-137h-239v-168q0 -60 30.5 -94t87.5 -34q112 0 112 122v47h9zM39 308h230v129q0 60 -30 93t-85 33t-85 -33t-30 -93v-129zM78 595v9l75 74h6l73 -74v-9l-76 74z" />
    <glyph glyph-name="edieresis" unicode="&#xeb;" 
d="M278 173v-47q0 -66 -31 -98t-90 -32q-60 0 -93.5 35t-33.5 101v305q0 66 33 100t91 34t91 -34t33 -100v-137h-239v-168q0 -60 30.5 -94t87.5 -34q112 0 112 122v47h9zM39 308h230v129q0 60 -30 93t-85 33t-85 -33t-30 -93v-129zM121 638h9v-20h-9v20zM181 638h9v-20h-9
v20z" />
    <glyph glyph-name="igrave" unicode="&#xec;" horiz-adv-x="75" 
d="M33 567h9v-567h-9v567zM-14 669l88 -67v-9l-88 66v10z" />
    <glyph glyph-name="iacute" unicode="&#xed;" horiz-adv-x="75" 
d="M33 567h9v-567h-9v567zM89 659l-88 -66v9l88 67v-10z" />
    <glyph glyph-name="icircumflex" unicode="&#xee;" horiz-adv-x="75" 
d="M33 567h9v-567h-9v567zM-15 595v12l50 71h6l48 -71v-12l-51 73z" />
    <glyph glyph-name="idieresis" unicode="&#xef;" horiz-adv-x="75" 
d="M33 567h9v-567h-9v567zM8 638h9v-20h-9v20zM58 638h9v-20h-9v20z" />
    <glyph glyph-name="eth" unicode="&#xf0;" 
d="M78 614l71 26l-37 38h12l34 -35l61 23v-8l-55 -21l57 -57q28 -29 42.5 -64t14.5 -81v-303q0 -66 -33 -101t-91 -35t-91 35t-33 101v303q0 66 33 101t91 35q28 0 52 -9.5t41 -29.5q-4 8 -11.5 18.5t-21.5 24.5l-59 59l-77 -28v8zM154 4q55 0 85 34t30 94v303q0 60 -28 94
t-87 34q-55 0 -85 -34t-30 -94v-303q0 -60 30 -94t85 -34z" />
    <glyph glyph-name="ntilde" unicode="&#xf1;" horiz-adv-x="298" 
d="M259 445q0 60 -27 89t-76 29q-21 0 -41 -7t-36 -21t-26 -35t-11 -49v-451h-9v567h9v-72h1q11 32 39.5 54t73.5 22q52 0 82 -30t30 -96v-445h-9v445zM117 660q11 0 20.5 -5t18.5 -11t17.5 -11t18.5 -5q17 0 24 11.5t9 25.5h8q-1 -19 -11.5 -32t-29.5 -13q-11 0 -20.5 5
t-18.5 11t-17.5 11t-18.5 5q-17 0 -24 -11.5t-9 -25.5h-8q1 19 11.5 32t29.5 13z" />
    <glyph glyph-name="ograve" unicode="&#xf2;" 
d="M278 132q0 -66 -33 -101t-91 -35t-91 35t-33 101v303q0 66 33 101t91 35t91 -35t33 -101v-303zM154 4q55 0 85 34t30 94v303q0 60 -30 94t-85 34t-85 -34t-30 -94v-303q0 -60 30 -94t85 -34zM80 669l139 -68v-8l-139 67v9z" />
    <glyph glyph-name="oacute" unicode="&#xf3;" 
d="M234 660l-139 -67v8l139 68v-9zM278 132q0 -66 -33 -101t-91 -35t-91 35t-33 101v303q0 66 33 101t91 35t91 -35t33 -101v-303zM154 4q55 0 85 34t30 94v303q0 60 -30 94t-85 34t-85 -34t-30 -94v-303q0 -60 30 -94t85 -34z" />
    <glyph glyph-name="ocircumflex" unicode="&#xf4;" 
d="M77 595v9l75 74h6l73 -74v-9l-76 74zM278 132q0 -66 -33 -101t-91 -35t-91 35t-33 101v303q0 66 33 101t91 35t91 -35t33 -101v-303zM154 4q55 0 85 34t30 94v303q0 60 -30 94t-85 34t-85 -34t-30 -94v-303q0 -60 30 -94t85 -34z" />
    <glyph glyph-name="otilde" unicode="&#xf5;" 
d="M278 132q0 -66 -33 -101t-91 -35t-91 35t-33 101v303q0 66 33 101t91 35t91 -35t33 -101v-303zM154 4q55 0 85 34t30 94v303q0 60 -30 94t-85 34t-85 -34t-30 -94v-303q0 -60 30 -94t85 -34zM117 660q11 0 20.5 -5t18.5 -11t17.5 -11t18.5 -5q17 0 24 11.5t9 25.5h8
q-1 -19 -11.5 -32t-29.5 -13q-11 0 -20.5 5t-18.5 11t-17.5 11t-18.5 5q-17 0 -24 -11.5t-9 -25.5h-8q1 19 11.5 32t29.5 13z" />
    <glyph glyph-name="odieresis" unicode="&#xf6;" 
d="M120 638h9v-20h-9v20zM180 638h9v-20h-9v20zM278 132q0 -66 -33 -101t-91 -35t-91 35t-33 101v303q0 66 33 101t91 35t91 -35t33 -101v-303zM154 4q55 0 85 34t30 94v303q0 60 -30 94t-85 34t-85 -34t-30 -94v-303q0 -60 30 -94t85 -34z" />
    <glyph glyph-name="divide" unicode="&#xf7;" horiz-adv-x="337" 
d="M24 339h289v-8h-289v8zM164 240h9v-22h-9v22zM164 460h9v-22h-9v22z" />
    <glyph glyph-name="oslash" unicode="&#xf8;" 
d="M278 132q0 -66 -33 -101t-91 -35q-37 0 -65 14l-11 -44h-9l12 49q-51 34 -51 117v303q0 66 33 101t91 35q36 0 66 -16l10 38h9l-11 -43q50 -34 50 -115v-303zM39 132q0 -74 45 -108l134 522q-28 17 -64 17q-55 0 -85 -34t-30 -94v-303zM154 4q55 0 85 34t30 94v303
q0 36 -11.5 62.5t-32.5 43.5l-133 -522q25 -15 62 -15z" />
    <glyph glyph-name="ugrave" unicode="&#xf9;" horiz-adv-x="298" 
d="M39 122q0 -60 27 -89t76 -29q21 0 41.5 7.5t36.5 22t26 36.5t10 52v445h9v-567h-9v72h-1q-11 -32 -39.5 -54t-73.5 -22q-52 0 -82 30t-30 96v445h9v-445zM73 669l139 -68v-8l-139 67v9z" />
    <glyph glyph-name="uacute" unicode="&#xfa;" horiz-adv-x="298" 
d="M227 660l-139 -67v8l139 68v-9zM39 122q0 -60 27 -89t76 -29q21 0 41.5 7.5t36.5 22t26 36.5t10 52v445h9v-567h-9v72h-1q-11 -32 -39.5 -54t-73.5 -22q-52 0 -82 30t-30 96v445h9v-445z" />
    <glyph glyph-name="ucircumflex" unicode="&#xfb;" horiz-adv-x="298" 
d="M70 595v9l75 74h6l73 -74v-9l-76 74zM39 122q0 -60 27 -89t76 -29q21 0 41.5 7.5t36.5 22t26 36.5t10 52v445h9v-567h-9v72h-1q-11 -32 -39.5 -54t-73.5 -22q-52 0 -82 30t-30 96v445h9v-445z" />
    <glyph glyph-name="udieresis" unicode="&#xfc;" horiz-adv-x="298" 
d="M113 638h9v-20h-9v20zM173 638h9v-20h-9v20zM39 122q0 -60 27 -89t76 -29q21 0 41.5 7.5t36.5 22t26 36.5t10 52v445h9v-567h-9v72h-1q-11 -32 -39.5 -54t-73.5 -22q-52 0 -82 30t-30 96v445h9v-445z" />
    <glyph glyph-name="yacute" unicode="&#xfd;" horiz-adv-x="276" 
d="M272 567l-150 -586q-5 -20 -11 -33.5t-14 -22t-20.5 -12t-31.5 -3.5h-20v8h20q33 0 46 14.5t22 49.5l20 77h-5l-124 508h9l122 -497h1l127 497h9zM217 660l-139 -67v8l139 68v-9z" />
    <glyph glyph-name="thorn" unicode="&#xfe;" horiz-adv-x="306" 
d="M33 678h9v-185h1q11 32 40 55t77 23q55 0 85.5 -31t30.5 -97v-319q0 -66 -31.5 -97t-86.5 -31q-48 0 -76 21t-39 53h-1v-160h-9v768zM267 443q0 60 -27.5 90t-79.5 30q-23 0 -43.5 -7.5t-37 -21.5t-26.5 -35.5t-11 -49.5v-335q1 -28 10.5 -49t25.5 -34.5t36.5 -20
t43.5 -6.5q52 0 80.5 30t28.5 90v319z" />
    <glyph glyph-name="ydieresis" unicode="&#xff;" horiz-adv-x="276" 
d="M272 567l-150 -586q-5 -20 -11 -33.5t-14 -22t-20.5 -12t-31.5 -3.5h-20v8h20q33 0 46 14.5t22 49.5l20 77h-5l-124 508h9l122 -497h1l127 497h9zM103 638h9v-20h-9v20zM163 638h9v-20h-9v20z" />
    <glyph glyph-name="Amacron" unicode="&#x100;" horiz-adv-x="321" 
d="M12 0l140 678h15l142 -678h-9l-43 202h-195l-41 -202h-9zM64 210h192l-96 461h-1zM92 731h136v-8h-136v8z" />
    <glyph glyph-name="amacron" unicode="&#x101;" horiz-adv-x="290" 
d="M251 0v72h-1q-11 -32 -39.5 -54t-73.5 -22q-52 0 -82 30t-30 96v49q0 32 8 53t22.5 36t35.5 26t47 23q63 28 88 47.5t25 39.5v50q0 54 -20 85.5t-75 31.5q-53 0 -80.5 -28t-27.5 -79v-53h-9v53q0 55 30.5 85t86.5 30q58 0 81 -32.5t23 -92.5v-446h-9zM137 4
q21 0 41.5 7.5t36.5 22t26 36.5t10 52v249q-4 -6 -10 -12.5t-18.5 -14.5t-32 -18.5t-50.5 -24.5q-26 -12 -45.5 -23t-33 -25t-20.5 -33.5t-7 -48.5v-49q0 -60 27 -89t76 -29zM85 626h136v-8h-136v8z" />
    <glyph glyph-name="Abreve" unicode="&#x102;" horiz-adv-x="321" 
d="M12 0l140 678h15l142 -678h-9l-43 202h-195l-41 -202h-9zM64 210h192l-96 461h-1zM234 776q0 -34 -20.5 -53.5t-51.5 -19.5q-32 0 -53.5 19.5t-21.5 53.5h8q1 -31 19.5 -48t47.5 -17q28 0 45.5 17t18.5 48h8z" />
    <glyph glyph-name="abreve" unicode="&#x103;" horiz-adv-x="290" 
d="M251 0v72h-1q-11 -32 -39.5 -54t-73.5 -22q-52 0 -82 30t-30 96v49q0 32 8 53t22.5 36t35.5 26t47 23q63 28 88 47.5t25 39.5v50q0 54 -20 85.5t-75 31.5q-53 0 -80.5 -28t-27.5 -79v-53h-9v53q0 55 30.5 85t86.5 30q58 0 81 -32.5t23 -92.5v-446h-9zM137 4
q21 0 41.5 7.5t36.5 22t26 36.5t10 52v249q-4 -6 -10 -12.5t-18.5 -14.5t-32 -18.5t-50.5 -24.5q-26 -12 -45.5 -23t-33 -25t-20.5 -33.5t-7 -48.5v-49q0 -60 27 -89t76 -29zM227 671q0 -34 -20.5 -53.5t-51.5 -19.5q-32 0 -53.5 19.5t-21.5 53.5h8q1 -31 19.5 -48t47.5 -17
q28 0 45.5 17t18.5 48h8z" />
    <glyph glyph-name="Aogonek" unicode="&#x104;" horiz-adv-x="321" 
d="M257 202h-195l-41 -202h-9l140 678h15l142 -678q-14 -11 -27 -24.5t-13 -30.5q0 -10 8 -18.5t31 -8.5h9v-8h-9q-26 0 -37 10.5t-11 24.5q0 20 14.5 34.5t25.5 22.5zM64 210h192l-96 461h-1z" />
    <glyph glyph-name="aogonek" unicode="&#x105;" horiz-adv-x="290" 
d="M251 72h-1q-11 -32 -39.5 -54t-73.5 -22q-52 0 -82 30t-30 96v49q0 32 8 53t22.5 36t35.5 26t47 23q63 28 88 47.5t25 39.5v50q0 54 -20 85.5t-75 31.5q-53 0 -80.5 -28t-27.5 -79v-53h-9v53q0 55 30.5 85t86.5 30q58 0 81 -32.5t23 -92.5v-446q-14 -11 -27 -24.5
t-13 -30.5q0 -10 8 -18.5t31 -8.5h9v-8h-9q-26 0 -37 10.5t-11 24.5q0 20 14.5 34t25.5 23v70zM137 4q21 0 41.5 7.5t36.5 22t26 36.5t10 52v249q-4 -6 -10 -12.5t-18.5 -14.5t-32 -18.5t-50.5 -24.5q-26 -12 -45.5 -23t-33 -25t-20.5 -33.5t-7 -48.5v-49q0 -60 27 -89
t76 -29z" />
    <glyph glyph-name="Cacute" unicode="&#x106;" horiz-adv-x="321" 
d="M245 765l-139 -67v8l139 68v-9zM166 -4q-37 0 -63 13t-42 34.5t-23.5 50t-7.5 59.5v372q0 31 7.5 59.5t23.5 50.5t42 34.5t63 12.5q39 0 63.5 -10t39 -29t20 -45.5t5.5 -59.5v-81h-9v81q0 31 -5 56.5t-18.5 43t-36.5 27t-59 9.5q-35 0 -59 -12t-39 -32.5t-22 -47.5
t-7 -57v-372q0 -30 7 -57t22 -47.5t39 -32.5t59 -12q36 0 59 10.5t36.5 29t18.5 43.5t5 54v116h9v-116q0 -31 -5.5 -57.5t-20 -46t-39 -30.5t-63.5 -11z" />
    <glyph glyph-name="cacute" unicode="&#x107;" horiz-adv-x="296" 
d="M234 660l-139 -67v8l139 68v-9zM271 173v-47q0 -130 -116 -130q-60 0 -92.5 35t-32.5 101v305q0 66 33 100t91 34t87.5 -31t29.5 -97v-40h-9v40q0 120 -108 120q-55 0 -85 -33t-30 -93v-305q0 -60 29.5 -94t86.5 -34q107 0 107 122v47h9z" />
    <glyph glyph-name="Ccircumflex" unicode="&#x108;" horiz-adv-x="321" 
d="M88 700v9l75 74h6l73 -74v-9l-76 74zM166 -4q-37 0 -63 13t-42 34.5t-23.5 50t-7.5 59.5v372q0 31 7.5 59.5t23.5 50.5t42 34.5t63 12.5q39 0 63.5 -10t39 -29t20 -45.5t5.5 -59.5v-81h-9v81q0 31 -5 56.5t-18.5 43t-36.5 27t-59 9.5q-35 0 -59 -12t-39 -32.5t-22 -47.5
t-7 -57v-372q0 -30 7 -57t22 -47.5t39 -32.5t59 -12q36 0 59 10.5t36.5 29t18.5 43.5t5 54v116h9v-116q0 -31 -5.5 -57.5t-20 -46t-39 -30.5t-63.5 -11z" />
    <glyph glyph-name="ccircumflex" unicode="&#x109;" horiz-adv-x="296" 
d="M77 595v9l75 74h6l73 -74v-9l-76 74zM271 173v-47q0 -130 -116 -130q-60 0 -92.5 35t-32.5 101v305q0 66 33 100t91 34t87.5 -31t29.5 -97v-40h-9v40q0 120 -108 120q-55 0 -85 -33t-30 -93v-305q0 -60 29.5 -94t86.5 -34q107 0 107 122v47h9z" />
    <glyph glyph-name="Cdotaccent" unicode="&#x10a;" horiz-adv-x="321" 
d="M166 -4q-37 0 -63 13t-42 34.5t-23.5 50t-7.5 59.5v372q0 31 7.5 59.5t23.5 50.5t42 34.5t63 12.5q39 0 63.5 -10t39 -29t20 -45.5t5.5 -59.5v-81h-9v81q0 31 -5 56.5t-18.5 43t-36.5 27t-59 9.5q-35 0 -59 -12t-39 -32.5t-22 -47.5t-7 -57v-372q0 -30 7 -57t22 -47.5
t39 -32.5t59 -12q36 0 59 10.5t36.5 29t18.5 43.5t5 54v116h9v-116q0 -31 -5.5 -57.5t-20 -46t-39 -30.5t-63.5 -11zM161 743h9v-20h-9v20z" />
    <glyph glyph-name="cdotaccent" unicode="&#x10b;" horiz-adv-x="296" 
d="M271 173v-47q0 -130 -116 -130q-60 0 -92.5 35t-32.5 101v305q0 66 33 100t91 34t87.5 -31t29.5 -97v-40h-9v40q0 120 -108 120q-55 0 -85 -33t-30 -93v-305q0 -60 29.5 -94t86.5 -34q107 0 107 122v47h9zM150 678h9v-20h-9v20z" />
    <glyph glyph-name="Ccaron" unicode="&#x10c;" horiz-adv-x="321" 
d="M242 786v-9l-75 -74h-6l-73 74v9l76 -74zM166 -4q-37 0 -63 13t-42 34.5t-23.5 50t-7.5 59.5v372q0 31 7.5 59.5t23.5 50.5t42 34.5t63 12.5q39 0 63.5 -10t39 -29t20 -45.5t5.5 -59.5v-81h-9v81q0 31 -5 56.5t-18.5 43t-36.5 27t-59 9.5q-35 0 -59 -12t-39 -32.5
t-22 -47.5t-7 -57v-372q0 -30 7 -57t22 -47.5t39 -32.5t59 -12q36 0 59 10.5t36.5 29t18.5 43.5t5 54v116h9v-116q0 -31 -5.5 -57.5t-20 -46t-39 -30.5t-63.5 -11z" />
    <glyph glyph-name="ccaron" unicode="&#x10d;" horiz-adv-x="296" 
d="M231 681v-9l-75 -74h-6l-73 74v9l76 -74zM271 173v-47q0 -130 -116 -130q-60 0 -92.5 35t-32.5 101v305q0 66 33 100t91 34t87.5 -31t29.5 -97v-40h-9v40q0 120 -108 120q-55 0 -85 -33t-30 -93v-305q0 -60 29.5 -94t86.5 -34q107 0 107 122v47h9z" />
    <glyph glyph-name="Dcaron" unicode="&#x10e;" horiz-adv-x="326" 
d="M225 786v-9l-75 -74h-6l-73 74v9l76 -74zM42 8h104q38 0 65 12t44 32.5t24.5 47.5t7.5 57v364q0 30 -7.5 57t-24.5 47.5t-44 32.5t-65 12h-104v-662zM146 678q40 0 68.5 -12.5t46.5 -34.5t26.5 -50.5t8.5 -59.5v-364q0 -31 -8.5 -59.5t-26.5 -50t-46.5 -34.5t-68.5 -13
h-113v678h113z" />
    <glyph glyph-name="dcaron" unicode="&#x10f;" horiz-adv-x="306" 
d="M311 677l-5 -90h-8l4 91h9v-1zM275 0h-9v74h-1q-11 -32 -38.5 -55t-75.5 -23q-55 0 -87 31t-32 97v319q0 66 33 97t88 31q48 0 74.5 -22t37.5 -54h1v183h9v-678zM41 124q0 -60 29 -90t81 -30q22 0 42.5 7.5t36 21.5t25.5 35.5t11 49.5v327q0 30 -9 52t-24.5 36.5t-36 22
t-43.5 7.5q-52 0 -82 -30t-30 -90v-319z" />
    <glyph glyph-name="Dcroat" unicode="&#x110;" horiz-adv-x="338" 
d="M12 349h33v329h113q40 0 68.5 -12.5t46.5 -34.5t26.5 -50.5t8.5 -59.5v-364q0 -31 -8.5 -59.5t-26.5 -50t-46.5 -34.5t-68.5 -13h-113v341h-33v8zM54 349h143v-8h-143v-333h104q38 0 65 12t44 32.5t24.5 47.5t7.5 57v364q0 30 -7.5 57t-24.5 47.5t-44 32.5t-65 12h-104
v-321z" />
    <glyph glyph-name="dcroat" unicode="&#x111;" horiz-adv-x="306" 
d="M275 626h37v-8h-37v-618h-9v74h-1q-11 -32 -38.5 -55t-75.5 -23q-55 0 -87 31t-32 97v319q0 66 33 97t88 31q48 0 74.5 -22t37.5 -54h1v123h-115v8h115v52h9v-52zM41 124q0 -60 29 -90t81 -30q23 0 44 7.5t36.5 22.5t25 37.5t9.5 52.5v327q-2 56 -35.5 84t-77.5 28
q-52 0 -82 -30t-30 -90v-319z" />
    <glyph glyph-name="Emacron" unicode="&#x112;" horiz-adv-x="288" 
d="M33 678h230v-8h-221v-321h161v-8h-161v-333h221v-8h-230v678zM87 731h136v-8h-136v8z" />
    <glyph glyph-name="emacron" unicode="&#x113;" 
d="M278 173v-47q0 -66 -31 -98t-90 -32q-60 0 -93.5 35t-33.5 101v305q0 66 33 100t91 34t91 -34t33 -100v-137h-239v-168q0 -60 30.5 -94t87.5 -34q112 0 112 122v47h9zM39 308h230v129q0 60 -30 93t-85 33t-85 -33t-30 -93v-129zM87 626h136v-8h-136v8z" />
    <glyph glyph-name="Ebreve" unicode="&#x114;" horiz-adv-x="288" 
d="M33 678h230v-8h-221v-321h161v-8h-161v-333h221v-8h-230v678zM229 776q0 -34 -20.5 -53.5t-51.5 -19.5q-32 0 -53.5 19.5t-21.5 53.5h8q1 -31 19.5 -48t47.5 -17q28 0 45.5 17t18.5 48h8z" />
    <glyph glyph-name="ebreve" unicode="&#x115;" 
d="M278 173v-47q0 -66 -31 -98t-90 -32q-60 0 -93.5 35t-33.5 101v305q0 66 33 100t91 34t91 -34t33 -100v-137h-239v-168q0 -60 30.5 -94t87.5 -34q112 0 112 122v47h9zM39 308h230v129q0 60 -30 93t-85 33t-85 -33t-30 -93v-129zM229 671q0 -34 -20.5 -53.5t-51.5 -19.5
q-32 0 -53.5 19.5t-21.5 53.5h8q1 -31 19.5 -48t47.5 -17q28 0 45.5 17t18.5 48h8z" />
    <glyph glyph-name="Edotaccent" unicode="&#x116;" horiz-adv-x="288" 
d="M33 678h230v-8h-221v-321h161v-8h-161v-333h221v-8h-230v678zM151 743h9v-20h-9v20z" />
    <glyph glyph-name="edotaccent" unicode="&#x117;" 
d="M278 173v-47q0 -66 -31 -98t-90 -32q-60 0 -93.5 35t-33.5 101v305q0 66 33 100t91 34t91 -34t33 -100v-137h-239v-168q0 -60 30.5 -94t87.5 -34q112 0 112 122v47h9zM39 308h230v129q0 60 -30 93t-85 33t-85 -33t-30 -93v-129zM151 678h9v-20h-9v20z" />
    <glyph glyph-name="Eogonek" unicode="&#x118;" horiz-adv-x="288" 
d="M33 678h230v-8h-221v-321h161v-8h-161v-333h221v-8h-38q-15 -11 -28 -24.5t-13 -30.5q0 -10 8 -18.5t31 -8.5h9v-8h-9q-26 0 -37 10.5t-11 24.5q0 20 14 33.5t25 21.5h-181v678z" />
    <glyph glyph-name="eogonek" unicode="&#x119;" 
d="M154 -55q0 20 13.5 33.5t24.5 21.5q-17 -4 -35 -4q-60 0 -93.5 35t-33.5 101v305q0 66 33 100t91 34t91 -34t33 -100v-137h-239v-168q0 -60 30.5 -94t87.5 -34q112 0 112 122v47h9v-47q0 -45 -14 -73t-40 -42q-9 -5 -19.5 -12t-19.5 -15.5t-15.5 -18.5t-6.5 -20t8 -18.5
t31 -8.5h9v-8h-9q-26 0 -37 10.5t-11 24.5zM39 308h230v129q0 60 -30 93t-85 33t-85 -33t-30 -93v-129z" />
    <glyph glyph-name="Ecaron" unicode="&#x11a;" horiz-adv-x="288" 
d="M232 786v-9l-75 -74h-6l-73 74v9l76 -74zM33 678h230v-8h-221v-321h161v-8h-161v-333h221v-8h-230v678z" />
    <glyph glyph-name="ecaron" unicode="&#x11b;" 
d="M278 173v-47q0 -66 -31 -98t-90 -32q-60 0 -93.5 35t-33.5 101v305q0 66 33 100t91 34t91 -34t33 -100v-137h-239v-168q0 -60 30.5 -94t87.5 -34q112 0 112 122v47h9zM39 308h230v129q0 60 -30 93t-85 33t-85 -33t-30 -93v-129zM232 681v-9l-75 -74h-6l-73 74v9l76 -74z
" />
    <glyph glyph-name="Gcircumflex" unicode="&#x11c;" horiz-adv-x="327" 
d="M87 700v9l75 74h6l73 -74v-9l-76 74zM177 324h117v-324h-9v77q-8 -37 -36.5 -59t-82.5 -22q-37 0 -63 13t-42 34.5t-23.5 50t-7.5 59.5v372q0 31 7.5 59.5t23.5 50.5t42 34.5t63 12.5q39 0 63.5 -10t39 -29t20 -45.5t5.5 -59.5v-61h-9v61q0 31 -5 56.5t-18.5 43t-36.5 27
t-59 9.5q-35 0 -59 -12t-39 -32.5t-22 -47.5t-7 -57v-372q0 -30 7 -57t22 -47.5t39 -32.5t59 -12q34 0 56.5 9.5t36 26t19.5 39.5t7 50v187h-108v8z" />
    <glyph glyph-name="gcircumflex" unicode="&#x11d;" horiz-adv-x="306" 
d="M79 595v9l75 74h6l73 -74v-9l-76 74zM273 567v-545q0 -54 -28.5 -85t-88.5 -31q-59 0 -90 29.5t-31 80.5v31h9v-31q0 -48 28.5 -75t83.5 -27q57 0 82.5 30t25.5 78v140h-1q-11 -32 -38.5 -55t-75.5 -23q-55 0 -87 31t-32 97v231q0 66 33 97t88 31q48 0 74.5 -22t37.5 -54
h1v72h9zM39 212q0 -60 29 -90t81 -30q22 0 42.5 7.5t36 21.5t25.5 35.5t11 49.5v239q0 30 -9 52t-24.5 36.5t-36 22t-43.5 7.5q-52 0 -82 -30t-30 -90v-231z" />
    <glyph glyph-name="Gbreve" unicode="&#x11e;" horiz-adv-x="327" 
d="M177 324h117v-324h-9v77q-8 -37 -36.5 -59t-82.5 -22q-37 0 -63 13t-42 34.5t-23.5 50t-7.5 59.5v372q0 31 7.5 59.5t23.5 50.5t42 34.5t63 12.5q39 0 63.5 -10t39 -29t20 -45.5t5.5 -59.5v-61h-9v61q0 31 -5 56.5t-18.5 43t-36.5 27t-59 9.5q-35 0 -59 -12t-39 -32.5
t-22 -47.5t-7 -57v-372q0 -30 7 -57t22 -47.5t39 -32.5t59 -12q34 0 56.5 9.5t36 26t19.5 39.5t7 50v187h-108v8zM238 776q0 -34 -20.5 -53.5t-51.5 -19.5q-32 0 -53.5 19.5t-21.5 53.5h8q1 -31 19.5 -48t47.5 -17q28 0 45.5 17t18.5 48h8z" />
    <glyph glyph-name="gbreve" unicode="&#x11f;" horiz-adv-x="306" 
d="M273 567v-545q0 -54 -28.5 -85t-88.5 -31q-59 0 -90 29.5t-31 80.5v31h9v-31q0 -48 28.5 -75t83.5 -27q57 0 82.5 30t25.5 78v140h-1q-11 -32 -38.5 -55t-75.5 -23q-55 0 -87 31t-32 97v231q0 66 33 97t88 31q48 0 74.5 -22t37.5 -54h1v72h9zM39 212q0 -60 29 -90t81 -30
q22 0 42.5 7.5t36 21.5t25.5 35.5t11 49.5v239q0 30 -9 52t-24.5 36.5t-36 22t-43.5 7.5q-52 0 -82 -30t-30 -90v-231zM230 671q0 -34 -20.5 -53.5t-51.5 -19.5q-32 0 -53.5 19.5t-21.5 53.5h8q1 -31 19.5 -48t47.5 -17q28 0 45.5 17t18.5 48h8z" />
    <glyph glyph-name="Gdotaccent" unicode="&#x120;" horiz-adv-x="327" 
d="M177 324h117v-324h-9v77q-8 -37 -36.5 -59t-82.5 -22q-37 0 -63 13t-42 34.5t-23.5 50t-7.5 59.5v372q0 31 7.5 59.5t23.5 50.5t42 34.5t63 12.5q39 0 63.5 -10t39 -29t20 -45.5t5.5 -59.5v-61h-9v61q0 31 -5 56.5t-18.5 43t-36.5 27t-59 9.5q-35 0 -59 -12t-39 -32.5
t-22 -47.5t-7 -57v-372q0 -30 7 -57t22 -47.5t39 -32.5t59 -12q34 0 56.5 9.5t36 26t19.5 39.5t7 50v187h-108v8zM160 743h9v-20h-9v20z" />
    <glyph glyph-name="gdotaccent" unicode="&#x121;" horiz-adv-x="306" 
d="M273 567v-545q0 -54 -28.5 -85t-88.5 -31q-59 0 -90 29.5t-31 80.5v31h9v-31q0 -48 28.5 -75t83.5 -27q57 0 82.5 30t25.5 78v140h-1q-11 -32 -38.5 -55t-75.5 -23q-55 0 -87 31t-32 97v231q0 66 33 97t88 31q48 0 74.5 -22t37.5 -54h1v72h9zM39 212q0 -60 29 -90t81 -30
q22 0 42.5 7.5t36 21.5t25.5 35.5t11 49.5v239q0 30 -9 52t-24.5 36.5t-36 22t-43.5 7.5q-52 0 -82 -30t-30 -90v-231zM152 678h9v-20h-9v20z" />
    <glyph glyph-name="Gcommaaccent" unicode="&#x122;" horiz-adv-x="327" 
d="M170 -22l-14 -68h-8l13 69h9v-1zM177 324h117v-324h-9v77q-8 -37 -36.5 -59t-82.5 -22q-37 0 -63 13t-42 34.5t-23.5 50t-7.5 59.5v372q0 31 7.5 59.5t23.5 50.5t42 34.5t63 12.5q39 0 63.5 -10t39 -29t20 -45.5t5.5 -59.5v-61h-9v61q0 31 -5 56.5t-18.5 43t-36.5 27
t-59 9.5q-35 0 -59 -12t-39 -32.5t-22 -47.5t-7 -57v-372q0 -30 7 -57t22 -47.5t39 -32.5t59 -12q34 0 56.5 9.5t36 26t19.5 39.5t7 50v187h-108v8z" />
    <glyph glyph-name="gcommaaccent" unicode="&#x123;" horiz-adv-x="306" 
d="M151 610l14 68h8l-13 -69h-9v1zM273 567v-545q0 -54 -28.5 -85t-88.5 -31q-59 0 -90 29.5t-31 80.5v31h9v-31q0 -48 28.5 -75t83.5 -27q57 0 82.5 30t25.5 78v140h-1q-11 -32 -38.5 -55t-75.5 -23q-55 0 -87 31t-32 97v231q0 66 33 97t88 31q48 0 74.5 -22t37.5 -54h1v72
h9zM39 212q0 -60 29 -90t81 -30q22 0 42.5 7.5t36 21.5t25.5 35.5t11 49.5v239q0 30 -9 52t-24.5 36.5t-36 22t-43.5 7.5q-52 0 -82 -30t-30 -90v-231z" />
    <glyph glyph-name="Hcircumflex" unicode="&#x124;" horiz-adv-x="320" 
d="M83 700v9l75 74h6l73 -74v-9l-76 74zM278 341h-236v-341h-9v678h9v-329h236v329h9v-678h-9v341z" />
    <glyph glyph-name="hcircumflex" unicode="&#x125;" horiz-adv-x="298" 
d="M71 700v9l75 74h6l73 -74v-9l-76 74zM259 445q0 60 -27 89t-76 29q-21 0 -41 -7t-36 -21t-26 -35t-11 -49v-451h-9v678h9v-183h1q11 32 39.5 54t73.5 22q52 0 82 -30t30 -96v-445h-9v445z" />
    <glyph glyph-name="Hbar" unicode="&#x126;" horiz-adv-x="320" 
d="M-2 491h35v187h9v-187h236v187h9v-187h36v-8h-36v-483h-9v341h-236v-341h-9v483h-35v8zM42 349h236v134h-236v-134z" />
    <glyph glyph-name="hbar" unicode="&#x127;" horiz-adv-x="298" 
d="M33 618h-37v8h37v52h9v-52h115v-8h-115v-123h1q11 32 39.5 54t73.5 22q52 0 82 -30t30 -96v-445h-9v445q0 60 -27 89t-76 29q-21 0 -41 -7t-36 -21t-26 -35t-11 -49v-451h-9v618z" />
    <glyph glyph-name="Itilde" unicode="&#x128;" horiz-adv-x="75" 
d="M33 678h9v-678h-9v678zM0 771q11 0 20.5 -5t18.5 -11t17.5 -11t18.5 -5q17 0 24 11.5t9 25.5h8q-1 -19 -11.5 -32t-29.5 -13q-11 0 -20.5 5t-18.5 11t-17.5 11t-18.5 5q-17 0 -24 -11.5t-9 -25.5h-8q1 19 11.5 32t29.5 13z" />
    <glyph glyph-name="itilde" unicode="&#x129;" horiz-adv-x="75" 
d="M33 567h9v-567h-9v567zM3 660q9 0 18.5 -5t18 -11t16.5 -11t16 -5q11 0 15.5 10.5t5.5 26.5h8q-1 -21 -8.5 -33t-20.5 -12q-9 0 -18.5 5t-18 11t-17 11t-15.5 5q-11 0 -15.5 -10.5t-5.5 -26.5h-8q1 21 8.5 33t20.5 12z" />
    <glyph glyph-name="Imacron" unicode="&#x12a;" horiz-adv-x="75" 
d="M33 678h9v-678h-9v678zM-11 731h96v-8h-96v8z" />
    <glyph glyph-name="imacron" unicode="&#x12b;" horiz-adv-x="75" 
d="M-5 626h86v-8h-86v8zM33 567h9v-567h-9v567z" />
    <glyph glyph-name="Ibreve" unicode="&#x12c;" horiz-adv-x="75" 
d="M33 678h9v-678h-9v678zM111 782q0 -34 -20.5 -53.5t-51.5 -19.5q-32 0 -53.5 19.5t-21.5 53.5h8q1 -31 19.5 -48t47.5 -17q28 0 45.5 17t18.5 48h8z" />
    <glyph glyph-name="ibreve" unicode="&#x12d;" horiz-adv-x="75" 
d="M33 567h9v-567h-9v567zM91 671q0 -37 -14.5 -55t-37.5 -18t-39 18t-16 55h8q1 -34 13.5 -49.5t33.5 -15.5q43 0 44 65h8z" />
    <glyph glyph-name="Iogonek" unicode="&#x12e;" horiz-adv-x="75" 
d="M33 678h9v-678q-14 -11 -27 -24.5t-13 -30.5q0 -10 8 -18.5t31 -8.5h9v-8h-9q-26 0 -37 10.5t-11 24.5q0 20 14.5 34.5t25.5 22.5v676z" />
    <glyph glyph-name="iogonek" unicode="&#x12f;" horiz-adv-x="75" 
d="M33 567h9v-567q-15 -11 -28 -24.5t-13 -30.5q0 -10 8 -18.5t31 -8.5h9v-8h-9q-26 0 -37 10.5t-11 24.5q0 20 15 34.5t26 22.5v565zM33 678h9v-20h-9v20z" />
    <glyph glyph-name="Idotaccent" unicode="&#x130;" horiz-adv-x="75" 
d="M33 678h9v-678h-9v678zM33 743h9v-20h-9v20z" />
    <glyph glyph-name="dotlessi" unicode="&#x131;" horiz-adv-x="75" 
d="M33 567h9v-567h-9v567z" />
    <glyph glyph-name="IJ" unicode="&#x132;" horiz-adv-x="352" 
d="M33 678h9v-678h-9v678zM322 678v-560q0 -57 -27 -89.5t-84 -32.5t-84 32.5t-27 89.5v139h9v-139q0 -51 24 -82.5t78 -31.5t78 31.5t24 82.5v560h9z" />
    <glyph glyph-name="ij" unicode="&#x133;" horiz-adv-x="75" 
d="M33 567h9v-567h-9v567zM33 678h9v-20h-9v20zM117 567v-604q0 -26 -12 -39.5t-40 -13.5h-6v8h6q23 0 33 11t10 34v604h9zM108 678h9v-20h-9v20z" />
    <glyph glyph-name="Jcircumflex" unicode="&#x134;" horiz-adv-x="274" 
d="M163 700v9l75 74h6l73 -74v-9l-76 74zM244 678v-560q0 -57 -27 -89.5t-84 -32.5t-84 32.5t-27 89.5v139h9v-139q0 -51 24 -82.5t78 -31.5t78 31.5t24 82.5v560h9z" />
    <glyph glyph-name="jcircumflex" unicode="&#x135;" horiz-adv-x="75" 
d="M-15 595v12l50 71h6l48 -71v-12l-51 73zM42 567v-604q0 -26 -12 -39.5t-40 -13.5h-6v8h6q23 0 33 11t10 34v604h9z" />
    <glyph glyph-name="Kcommaaccent" unicode="&#x136;" horiz-adv-x="290" 
d="M161 -22l-14 -68h-8l13 69h9v-1zM42 341v-341h-9v678h9v-331l230 331h10l-232 -334l234 -344h-10z" />
    <glyph glyph-name="kcommaaccent" unicode="&#x137;" horiz-adv-x="254" 
d="M140 -22l-14 -68h-8l13 69h9v-1zM237 0l-195 288v-288h-9v678h9v-387l189 276h10l-190 -277l196 -290h-10z" />
    <glyph glyph-name="Lacute" unicode="&#x139;" horiz-adv-x="252" 
d="M119 765l-139 -67v8l139 68v-9zM33 678h9v-670h198v-8h-207v678z" />
    <glyph glyph-name="lacute" unicode="&#x13a;" horiz-adv-x="75" 
d="M89 764l-88 -66v9l88 67v-10zM33 678h9v-678h-9v678z" />
    <glyph glyph-name="Lcommaaccent" unicode="&#x13b;" horiz-adv-x="252" 
d="M136 -22l-14 -68h-8l13 69h9v-1zM33 678h9v-670h198v-8h-207v678z" />
    <glyph glyph-name="lcommaaccent" unicode="&#x13c;" horiz-adv-x="75" 
d="M43 -22l-14 -68h-8l13 69h9v-1zM33 678h9v-678h-9v678z" />
    <glyph glyph-name="Lcaron" unicode="&#x13d;" horiz-adv-x="252" 
d="M33 678h9v-670h198v-8h-207v678zM138 677l-5 -90h-8l4 91h9v-1z" />
    <glyph glyph-name="lcaron" unicode="&#x13e;" horiz-adv-x="75" 
d="M78 677l-5 -90h-8l4 91h9v-1zM33 678h9v-678h-9v678z" />
    <glyph glyph-name="Ldot" unicode="&#x13f;" horiz-adv-x="252" 
d="M33 678h9v-670h198v-8h-207v678zM163 345h9v-22h-9v22z" />
    <glyph glyph-name="ldot" unicode="&#x140;" horiz-adv-x="96" 
d="M33 678h9v-678h-9v678zM81 352h9v-22h-9v22z" />
    <glyph glyph-name="Lslash" unicode="&#x141;" horiz-adv-x="270" 
d="M51 282l-38 -18v9l38 18v387h9v-382l139 68v-9l-139 -68v-279h198v-8h-207v282z" />
    <glyph glyph-name="lslash" unicode="&#x142;" horiz-adv-x="83" 
d="M37 376l-35 -33v10l35 33v292h9v-283l38 37v-10l-38 -37v-385h-9v376z" />
    <glyph glyph-name="Nacute" unicode="&#x143;" horiz-adv-x="315" 
d="M247 765l-139 -67v8l139 68v-9zM42 667v-667h-9v678h15l225 -659v659h9v-678h-12z" />
    <glyph glyph-name="nacute" unicode="&#x144;" horiz-adv-x="298" 
d="M234 660l-139 -67v8l139 68v-9zM259 445q0 60 -27 89t-76 29q-21 0 -41 -7t-36 -21t-26 -35t-11 -49v-451h-9v567h9v-72h1q11 32 39.5 54t73.5 22q52 0 82 -30t30 -96v-445h-9v445z" />
    <glyph glyph-name="Ncommaaccent" unicode="&#x145;" horiz-adv-x="315" 
d="M155 -22l-14 -68h-8l13 69h9v-1zM42 667v-667h-9v678h15l225 -659v659h9v-678h-12z" />
    <glyph glyph-name="ncommaaccent" unicode="&#x146;" horiz-adv-x="298" 
d="M158 -22l-14 -68h-8l13 69h9v-1zM259 445q0 60 -27 89t-76 29q-21 0 -41 -7t-36 -21t-26 -35t-11 -49v-451h-9v567h9v-72h1q11 32 39.5 54t73.5 22q52 0 82 -30t30 -96v-445h-9v445z" />
    <glyph glyph-name="Ncaron" unicode="&#x147;" horiz-adv-x="315" 
d="M244 786v-9l-75 -74h-6l-73 74v9l76 -74zM42 667v-667h-9v678h15l225 -659v659h9v-678h-12z" />
    <glyph glyph-name="ncaron" unicode="&#x148;" horiz-adv-x="298" 
d="M231 681v-9l-75 -74h-6l-73 74v9l76 -74zM259 445q0 60 -27 89t-76 29q-21 0 -41 -7t-36 -21t-26 -35t-11 -49v-451h-9v567h9v-72h1q11 32 39.5 54t73.5 22q52 0 82 -30t30 -96v-445h-9v445z" />
    <glyph glyph-name="Eng" unicode="&#x14a;" horiz-adv-x="315" 
d="M218 -82q31 0 43 12t12 38v32l-231 666v-666h-9v678h15l225 -650v650h9v-710q0 -29 -14.5 -43.5t-49.5 -14.5h-16v8h16z" />
    <glyph glyph-name="eng" unicode="&#x14b;" horiz-adv-x="298" 
d="M33 567h9v-72h1q11 32 39.5 54t73.5 22q52 0 82 -30t30 -96v-477q0 -29 -14.5 -43.5t-49.5 -14.5h-6v8h6q31 0 43 12t12 38v477q0 60 -27 89t-76 29q-21 0 -41.5 -7.5t-36.5 -22t-26 -36.5t-10 -52v-445h-9v567z" />
    <glyph glyph-name="Omacron" unicode="&#x14c;" horiz-adv-x="340" 
d="M102 731h136v-8h-136v8zM170 4q34 0 59 12t41 32.5t23.5 47.5t7.5 57v372q0 30 -7.5 57t-23.5 47.5t-41 32.5t-59 12q-35 0 -59.5 -12t-40.5 -32.5t-23.5 -47.5t-7.5 -57v-372q0 -30 7.5 -57t23.5 -47.5t40.5 -32.5t59.5 -12zM170 -4q-37 0 -63.5 13t-43.5 34.5t-25 50
t-8 59.5v372q0 31 8 59.5t25 50.5t43.5 34.5t63.5 12.5t63.5 -12.5t43.5 -34.5t25 -50.5t8 -59.5v-372q0 -31 -8 -59.5t-25 -50t-43.5 -34.5t-63.5 -13z" />
    <glyph glyph-name="omacron" unicode="&#x14d;" 
d="M86 626h136v-8h-136v8zM278 132q0 -66 -33 -101t-91 -35t-91 35t-33 101v303q0 66 33 101t91 35t91 -35t33 -101v-303zM154 4q55 0 85 34t30 94v303q0 60 -30 94t-85 34t-85 -34t-30 -94v-303q0 -60 30 -94t85 -34z" />
    <glyph glyph-name="Obreve" unicode="&#x14e;" horiz-adv-x="340" 
d="M170 4q34 0 59 12t41 32.5t23.5 47.5t7.5 57v372q0 30 -7.5 57t-23.5 47.5t-41 32.5t-59 12q-35 0 -59.5 -12t-40.5 -32.5t-23.5 -47.5t-7.5 -57v-372q0 -30 7.5 -57t23.5 -47.5t40.5 -32.5t59.5 -12zM170 -4q-37 0 -63.5 13t-43.5 34.5t-25 50t-8 59.5v372q0 31 8 59.5
t25 50.5t43.5 34.5t63.5 12.5t63.5 -12.5t43.5 -34.5t25 -50.5t8 -59.5v-372q0 -31 -8 -59.5t-25 -50t-43.5 -34.5t-63.5 -13zM244 782q0 -34 -20.5 -53.5t-51.5 -19.5q-32 0 -53.5 19.5t-21.5 53.5h8q1 -31 19.5 -48t47.5 -17q28 0 45.5 17t18.5 48h8z" />
    <glyph glyph-name="obreve" unicode="&#x14f;" 
d="M278 132q0 -66 -33 -101t-91 -35t-91 35t-33 101v303q0 66 33 101t91 35t91 -35t33 -101v-303zM154 4q55 0 85 34t30 94v303q0 60 -30 94t-85 34t-85 -34t-30 -94v-303q0 -60 30 -94t85 -34zM228 671q0 -34 -20.5 -53.5t-51.5 -19.5q-32 0 -53.5 19.5t-21.5 53.5h8
q1 -31 19.5 -48t47.5 -17q28 0 45.5 17t18.5 48h8z" />
    <glyph glyph-name="Ohungarumlaut" unicode="&#x150;" horiz-adv-x="340" 
d="M188 783l-46 -83h-9l45 83h10zM248 783l-46 -83h-9l45 83h10zM170 4q34 0 59 12t41 32.5t23.5 47.5t7.5 57v372q0 30 -7.5 57t-23.5 47.5t-41 32.5t-59 12q-35 0 -59.5 -12t-40.5 -32.5t-23.5 -47.5t-7.5 -57v-372q0 -30 7.5 -57t23.5 -47.5t40.5 -32.5t59.5 -12zM170 -4
q-37 0 -63.5 13t-43.5 34.5t-25 50t-8 59.5v372q0 31 8 59.5t25 50.5t43.5 34.5t63.5 12.5t63.5 -12.5t43.5 -34.5t25 -50.5t8 -59.5v-372q0 -31 -8 -59.5t-25 -50t-43.5 -34.5t-63.5 -13z" />
    <glyph glyph-name="ohungarumlaut" unicode="&#x151;" 
d="M172 678l-46 -83h-9l45 83h10zM232 678l-46 -83h-9l45 83h10zM278 132q0 -66 -33 -101t-91 -35t-91 35t-33 101v303q0 66 33 101t91 35t91 -35t33 -101v-303zM154 4q55 0 85 34t30 94v303q0 60 -30 94t-85 34t-85 -34t-30 -94v-303q0 -60 30 -94t85 -34z" />
    <glyph glyph-name="OE" unicode="&#x152;" horiz-adv-x="556" 
d="M170 -4q-37 0 -63.5 13t-43.5 34.5t-25 50t-8 59.5v372q0 31 8 59.5t25 50.5t43.5 34.5t63.5 12.5q57 0 88.5 -28t42.5 -71v95h230v-8h-221v-321h161v-8h-161v-333h221v-8h-230v95q-11 -43 -42.5 -71t-88.5 -28zM170 4q34 0 59 12t41 32.5t23.5 47.5t7.5 57v372
q0 30 -7.5 57t-23.5 47.5t-41 32.5t-59 12q-35 0 -59.5 -12t-40.5 -32.5t-23.5 -47.5t-7.5 -57v-372q0 -30 7.5 -57t23.5 -47.5t40.5 -32.5t59.5 -12z" />
    <glyph glyph-name="oe" unicode="&#x153;" horiz-adv-x="547" 
d="M517 173v-47q0 -66 -31 -98t-90 -32q-51 0 -83 25.5t-40 76.5q-8 -51 -38.5 -76.5t-80.5 -25.5q-58 0 -91 35t-33 101v303q0 66 33 101t91 35q50 0 80.5 -26t38.5 -75q8 50 38.5 75.5t81.5 25.5q58 0 91 -34t33 -100v-137h-239v-168q0 -60 30.5 -94t87.5 -34
q112 0 112 122v47h9zM154 4q55 0 85 34t30 94v303q0 60 -30 94t-85 34t-85 -34t-30 -94v-303q0 -60 30 -94t85 -34zM278 308h230v129q0 60 -30 93t-85 33t-85 -33t-30 -93v-129z" />
    <glyph glyph-name="Racute" unicode="&#x154;" horiz-adv-x="290" 
d="M218 765l-139 -67v8l139 68v-9zM42 343v-343h-9v678h108q60 0 90.5 -28t30.5 -81v-119q0 -53 -30.5 -81t-90.5 -28h-88l231 -341h-10zM42 670v-321h99q56 0 84 26t28 75v119q0 49 -28 75t-84 26h-99z" />
    <glyph glyph-name="racute" unicode="&#x155;" horiz-adv-x="171" 
d="M175 660l-139 -67v8l139 68v-9zM152 561h-1q-20 0 -39 -7t-34.5 -21t-25 -35t-10.5 -48v-450h-9v567h9v-72h1q11 31 38.5 52.5t70.5 21.5v-8z" />
    <glyph glyph-name="Rcommaaccent" unicode="&#x156;" horiz-adv-x="290" 
d="M154 -22l-14 -68h-8l13 69h9v-1zM42 343v-343h-9v678h108q60 0 90.5 -28t30.5 -81v-119q0 -53 -30.5 -81t-90.5 -28h-88l231 -341h-10zM42 670v-321h99q56 0 84 26t28 75v119q0 49 -28 75t-84 26h-99z" />
    <glyph glyph-name="rcommaaccent" unicode="&#x157;" horiz-adv-x="171" 
d="M42 -22l-14 -68h-8l13 69h9v-1zM152 561h-1q-20 0 -39 -7t-34.5 -21t-25 -35t-10.5 -48v-450h-9v567h9v-72h1q11 31 38.5 52.5t70.5 21.5v-8z" />
    <glyph glyph-name="Rcaron" unicode="&#x158;" horiz-adv-x="290" 
d="M218 786v-9l-75 -74h-6l-73 74v9l76 -74zM42 343v-343h-9v678h108q60 0 90.5 -28t30.5 -81v-119q0 -53 -30.5 -81t-90.5 -28h-88l231 -341h-10zM42 670v-321h99q56 0 84 26t28 75v119q0 49 -28 75t-84 26h-99z" />
    <glyph glyph-name="rcaron" unicode="&#x159;" horiz-adv-x="171" 
d="M167 681v-9l-75 -74h-6l-73 74v9l76 -74zM152 561h-1q-20 0 -39 -7t-34.5 -21t-25 -35t-10.5 -48v-450h-9v567h9v-72h1q11 31 38.5 52.5t70.5 21.5v-8z" />
    <glyph glyph-name="Sacute" unicode="&#x15a;" horiz-adv-x="307" 
d="M233 765l-139 -67v8l139 68v-9zM157 -4q-64 0 -98 34t-34 91v116h9v-116q0 -54 31.5 -85.5t91.5 -31.5q29 0 51 9.5t36.5 25t21.5 36.5t7 45v41q0 23 -4.5 42.5t-15 37.5t-26.5 36.5t-39 40.5l-67 65q-23 22 -40.5 41t-29 37t-17 37t-5.5 43v28q0 55 34 84t86 29
q60 0 91 -27.5t31 -87.5v-90h-9v90q0 56 -29 81.5t-84 25.5q-49 0 -80 -27t-31 -78v-28q0 -23 5.5 -41.5t17 -36t28 -35t37.5 -38.5l67 -65q22 -22 38.5 -40.5t28 -37.5t17 -39.5t5.5 -46.5v-41q0 -25 -7.5 -47.5t-23.5 -39.5t-39.5 -27t-54.5 -10z" />
    <glyph glyph-name="sacute" unicode="&#x15b;" horiz-adv-x="290" 
d="M224 660l-139 -67v8l139 68v-9zM263 117q0 -58 -28.5 -89.5t-92.5 -31.5q-60 0 -88.5 34t-28.5 90v53h9v-53q0 -51 25.5 -83.5t82.5 -32.5q60 0 86 29t26 84v18q0 36 -15 65t-58 63l-72 56q-42 32 -61 60.5t-19 66.5v18q0 48 27 77.5t82 29.5q116 0 116 -118v-50h-9v50
q0 110 -107 110q-51 0 -75.5 -27t-24.5 -72v-18q0 -17 4 -32t12.5 -29t23 -28t35.5 -30l72 -56q46 -36 62 -67t16 -69v-18z" />
    <glyph glyph-name="Scircumflex" unicode="&#x15c;" horiz-adv-x="307" 
d="M76 700v9l75 74h6l73 -74v-9l-76 74zM157 -4q-64 0 -98 34t-34 91v116h9v-116q0 -54 31.5 -85.5t91.5 -31.5q29 0 51 9.5t36.5 25t21.5 36.5t7 45v41q0 23 -4.5 42.5t-15 37.5t-26.5 36.5t-39 40.5l-67 65q-23 22 -40.5 41t-29 37t-17 37t-5.5 43v28q0 55 34 84t86 29
q60 0 91 -27.5t31 -87.5v-90h-9v90q0 56 -29 81.5t-84 25.5q-49 0 -80 -27t-31 -78v-28q0 -23 5.5 -41.5t17 -36t28 -35t37.5 -38.5l67 -65q22 -22 38.5 -40.5t28 -37.5t17 -39.5t5.5 -46.5v-41q0 -25 -7.5 -47.5t-23.5 -39.5t-39.5 -27t-54.5 -10z" />
    <glyph glyph-name="scircumflex" unicode="&#x15d;" horiz-adv-x="290" 
d="M67 595v9l75 74h6l73 -74v-9l-76 74zM263 117q0 -58 -28.5 -89.5t-92.5 -31.5q-60 0 -88.5 34t-28.5 90v53h9v-53q0 -51 25.5 -83.5t82.5 -32.5q60 0 86 29t26 84v18q0 36 -15 65t-58 63l-72 56q-42 32 -61 60.5t-19 66.5v18q0 48 27 77.5t82 29.5q116 0 116 -118v-50h-9
v50q0 110 -107 110q-51 0 -75.5 -27t-24.5 -72v-18q0 -17 4 -32t12.5 -29t23 -28t35.5 -30l72 -56q46 -36 62 -67t16 -69v-18z" />
    <glyph glyph-name="Scedilla" unicode="&#x15e;" horiz-adv-x="307" 
d="M145 -4v-21q47 0 47 -31q0 -18 -20.5 -26t-55.5 -8v8q29 0 48 6t19 20q0 23 -37 23h-9v30q-54 5 -83 38.5t-29 85.5v116h8v-116q0 -54 32 -85.5t92 -31.5q29 0 51 9.5t36.5 25t22 36.5t7.5 45v41q0 23 -5 42.5t-15.5 37.5t-26.5 36.5t-39 40.5l-67 65q-23 22 -40.5 41
t-29 37t-17 37t-5.5 43v28q0 55 34 84t86 29q60 0 91 -27.5t31 -87.5v-90h-8v90q0 56 -29.5 81.5t-84.5 25.5q-49 0 -80.5 -27t-31.5 -78v-28q0 -23 6 -41.5t17 -36t28 -35t38 -38.5l67 -65q22 -22 38.5 -40.5t28 -37.5t17 -39.5t5.5 -46.5v-41q0 -25 -7.5 -47.5
t-23.5 -39.5t-39.5 -27t-54.5 -10h-12z" />
    <glyph glyph-name="scedilla" unicode="&#x15f;" horiz-adv-x="290" 
d="M263 117q0 -58 -28.5 -89.5t-92.5 -31.5h-7v-21q23 0 36 -7.5t13 -23.5q0 -18 -20.5 -26t-55.5 -8v8q29 0 48 6t19 20q0 12 -11 17.5t-28 5.5h-9v30q-52 4 -77 37.5t-25 85.5v53h9v-53q0 -51 25.5 -83.5t82.5 -32.5q60 0 86 29t26 84v18q0 36 -15 65t-58 63l-72 56
q-42 32 -61 60.5t-19 66.5v18q0 48 27 77.5t82 29.5q116 0 116 -118v-50h-9v50q0 110 -107 110q-51 0 -75.5 -27t-24.5 -72v-18q0 -17 4 -32t12.5 -29t23 -28t35.5 -30l72 -56q46 -36 62 -67t16 -69v-18z" />
    <glyph glyph-name="Scaron" unicode="&#x160;" horiz-adv-x="307" 
d="M230 786v-9l-75 -74h-6l-73 74v9l76 -74zM157 -4q-64 0 -98 34t-34 91v116h9v-116q0 -54 31.5 -85.5t91.5 -31.5q29 0 51 9.5t36.5 25t21.5 36.5t7 45v41q0 23 -4.5 42.5t-15 37.5t-26.5 36.5t-39 40.5l-67 65q-23 22 -40.5 41t-29 37t-17 37t-5.5 43v28q0 55 34 84
t86 29q60 0 91 -27.5t31 -87.5v-90h-9v90q0 56 -29 81.5t-84 25.5q-49 0 -80 -27t-31 -78v-28q0 -23 5.5 -41.5t17 -36t28 -35t37.5 -38.5l67 -65q22 -22 38.5 -40.5t28 -37.5t17 -39.5t5.5 -46.5v-41q0 -25 -7.5 -47.5t-23.5 -39.5t-39.5 -27t-54.5 -10z" />
    <glyph glyph-name="scaron" unicode="&#x161;" horiz-adv-x="290" 
d="M221 681v-9l-75 -74h-6l-73 74v9l76 -74zM263 117q0 -58 -28.5 -89.5t-92.5 -31.5q-60 0 -88.5 34t-28.5 90v53h9v-53q0 -51 25.5 -83.5t82.5 -32.5q60 0 86 29t26 84v18q0 36 -15 65t-58 63l-72 56q-42 32 -61 60.5t-19 66.5v18q0 48 27 77.5t82 29.5q116 0 116 -118
v-50h-9v50q0 110 -107 110q-51 0 -75.5 -27t-24.5 -72v-18q0 -17 4 -32t12.5 -29t23 -28t35.5 -30l72 -56q46 -36 62 -67t16 -69v-18z" />
    <glyph glyph-name="Tcommaaccent" unicode="&#x162;" horiz-adv-x="287" 
d="M149 -22l-14 -68h-8l13 69h9v-1zM14 678h259v-8h-125v-670h-9v670h-125v8z" />
    <glyph glyph-name="tcommaaccent" unicode="&#x163;" horiz-adv-x="181" 
d="M106 -22l-14 -68h-8l13 69h9v-1zM12 567h46v111h9v-111h90v-8h-90v-491q0 -33 14 -46.5t47 -13.5h29v-8h-29q-38 0 -54 16t-16 52v491h-46v8z" />
    <glyph glyph-name="Tcaron" unicode="&#x164;" horiz-adv-x="287" 
d="M220 786v-9l-75 -74h-6l-73 74v9l76 -74zM14 678h259v-8h-125v-670h-9v670h-125v8z" />
    <glyph glyph-name="tcaron" unicode="&#x165;" horiz-adv-x="181" 
d="M130 677l-5 -90h-8l4 91h9v-1zM12 567h46v111h9v-111h90v-8h-90v-491q0 -33 14 -46.5t47 -13.5h29v-8h-29q-38 0 -54 16t-16 52v491h-46v8z" />
    <glyph glyph-name="Tbar" unicode="&#x166;" horiz-adv-x="287" 
d="M14 678h259v-8h-125v-214h84v-8h-84v-448h-9v448h-83v8h83v214h-125v8z" />
    <glyph glyph-name="tbar" unicode="&#x167;" horiz-adv-x="181" 
d="M67 678v-111h90v-8h-90v-102h90v-8h-90v-381q0 -33 14 -46.5t47 -13.5h29v-8h-29q-38 0 -54 16t-16 52v381h-46v8h46v102h-46v8h46v111h9z" />
    <glyph glyph-name="Utilde" unicode="&#x168;" horiz-adv-x="324" 
d="M293 678v-533q0 -31 -6.5 -58t-22 -47.5t-40.5 -32t-62 -11.5t-62 11.5t-40.5 32t-22 47.5t-6.5 58v533h9v-533q0 -30 6 -55.5t20.5 -44.5t37.5 -30t58 -11q34 0 57.5 11t38 30t20.5 44.5t6 55.5v533h9zM125 771q11 0 20.5 -5t18.5 -11t17.5 -11t18.5 -5q17 0 24 11.5
t9 25.5h8q-1 -19 -11.5 -32t-29.5 -13q-11 0 -20.5 5t-18.5 11t-17.5 11t-18.5 5q-17 0 -24 -11.5t-9 -25.5h-8q1 19 11.5 32t29.5 13z" />
    <glyph glyph-name="utilde" unicode="&#x169;" horiz-adv-x="298" 
d="M39 122q0 -60 27 -89t76 -29q21 0 41.5 7.5t36.5 22t26 36.5t10 52v445h9v-567h-9v72h-1q-11 -32 -39.5 -54t-73.5 -22q-52 0 -82 30t-30 96v445h9v-445zM112 660q11 0 20.5 -5t18.5 -11t17.5 -11t18.5 -5q17 0 24 11.5t9 25.5h8q-1 -19 -11.5 -32t-29.5 -13
q-11 0 -20.5 5t-18.5 11t-17.5 11t-18.5 5q-17 0 -24 -11.5t-9 -25.5h-8q1 19 11.5 32t29.5 13z" />
    <glyph glyph-name="Umacron" unicode="&#x16a;" horiz-adv-x="324" 
d="M293 678v-533q0 -31 -6.5 -58t-22 -47.5t-40.5 -32t-62 -11.5t-62 11.5t-40.5 32t-22 47.5t-6.5 58v533h9v-533q0 -30 6 -55.5t20.5 -44.5t37.5 -30t58 -11q34 0 57.5 11t38 30t20.5 44.5t6 55.5v533h9zM94 731h136v-8h-136v8z" />
    <glyph glyph-name="umacron" unicode="&#x16b;" horiz-adv-x="298" 
d="M39 122q0 -60 27 -89t76 -29q21 0 41.5 7.5t36.5 22t26 36.5t10 52v445h9v-567h-9v72h-1q-11 -32 -39.5 -54t-73.5 -22q-52 0 -82 30t-30 96v445h9v-445zM79 626h136v-8h-136v8z" />
    <glyph glyph-name="Ubreve" unicode="&#x16c;" horiz-adv-x="324" 
d="M293 678v-533q0 -31 -6.5 -58t-22 -47.5t-40.5 -32t-62 -11.5t-62 11.5t-40.5 32t-22 47.5t-6.5 58v533h9v-533q0 -30 6 -55.5t20.5 -44.5t37.5 -30t58 -11q34 0 57.5 11t38 30t20.5 44.5t6 55.5v533h9zM236 776q0 -34 -20.5 -53.5t-51.5 -19.5q-32 0 -53.5 19.5
t-21.5 53.5h8q1 -31 19.5 -48t47.5 -17q28 0 45.5 17t18.5 48h8z" />
    <glyph glyph-name="ubreve" unicode="&#x16d;" horiz-adv-x="298" 
d="M39 122q0 -60 27 -89t76 -29q21 0 41.5 7.5t36.5 22t26 36.5t10 52v445h9v-567h-9v72h-1q-11 -32 -39.5 -54t-73.5 -22q-52 0 -82 30t-30 96v445h9v-445zM221 671q0 -34 -20.5 -53.5t-51.5 -19.5q-32 0 -53.5 19.5t-21.5 53.5h8q1 -31 19.5 -48t47.5 -17q28 0 45.5 17
t18.5 48h8z" />
    <glyph glyph-name="Uring" unicode="&#x16e;" horiz-adv-x="324" 
d="M110 723q0 22 14.5 37.5t36.5 15.5q23 0 38 -15.5t15 -37.5t-15 -37t-38 -15q-22 0 -36.5 15t-14.5 37zM119 723q0 -19 12 -31.5t30 -12.5q19 0 31.5 12.5t12.5 31.5t-12.5 32t-31.5 13q-18 0 -30 -13t-12 -32zM293 678v-533q0 -31 -6.5 -58t-22 -47.5t-40.5 -32
t-62 -11.5t-62 11.5t-40.5 32t-22 47.5t-6.5 58v533h9v-533q0 -30 6 -55.5t20.5 -44.5t37.5 -30t58 -11q34 0 57.5 11t38 30t20.5 44.5t6 55.5v533h9z" />
    <glyph glyph-name="uring" unicode="&#x16f;" horiz-adv-x="298" 
d="M95 644q0 22 14.5 37.5t36.5 15.5q23 0 38 -15.5t15 -37.5t-15 -37t-38 -15q-22 0 -36.5 15t-14.5 37zM104 644q0 -19 12 -31.5t30 -12.5q19 0 31.5 12.5t12.5 31.5t-12.5 32t-31.5 13q-18 0 -30 -13t-12 -32zM39 122q0 -60 27 -89t76 -29q21 0 41.5 7.5t36.5 22t26 36.5
t10 52v445h9v-567h-9v72h-1q-11 -32 -39.5 -54t-73.5 -22q-52 0 -82 30t-30 96v445h9v-445z" />
    <glyph glyph-name="Uhungarumlaut" unicode="&#x170;" horiz-adv-x="324" 
d="M293 678v-533q0 -31 -6.5 -58t-22 -47.5t-40.5 -32t-62 -11.5t-62 11.5t-40.5 32t-22 47.5t-6.5 58v533h9v-533q0 -30 6 -55.5t20.5 -44.5t37.5 -30t58 -11q34 0 57.5 11t38 30t20.5 44.5t6 55.5v533h9zM180 783l-46 -83h-9l45 83h10zM240 783l-46 -83h-9l45 83h10z" />
    <glyph glyph-name="uhungarumlaut" unicode="&#x171;" horiz-adv-x="298" 
d="M39 122q0 -60 27 -89t76 -29q21 0 41.5 7.5t36.5 22t26 36.5t10 52v445h9v-567h-9v72h-1q-11 -32 -39.5 -54t-73.5 -22q-52 0 -82 30t-30 96v445h9v-445zM165 678l-46 -83h-9l45 83h10zM225 678l-46 -83h-9l45 83h10z" />
    <glyph glyph-name="Uogonek" unicode="&#x172;" horiz-adv-x="324" 
d="M293 678v-533q0 -53 -19 -91t-65 -52q-10 -3 -20.5 -8.5t-19 -13t-14 -16.5t-5.5 -19t8 -18.5t31 -8.5h9v-8h-9q-26 0 -37 10.5t-11 24.5q0 18 13 31t27 21q-6 -1 -11 -1h-8q-37 0 -62 11.5t-40.5 32t-22 47.5t-6.5 58v533h9v-533q0 -30 6 -55.5t20.5 -44.5t37.5 -30
t58 -11q34 0 57.5 11t38 30t20.5 44.5t6 55.5v533h9z" />
    <glyph glyph-name="uogonek" unicode="&#x173;" horiz-adv-x="298" 
d="M39 122q0 -60 27 -89t76 -29q21 0 41.5 7.5t36.5 22t26 36.5t10 52v445h9v-567q-15 -11 -28 -24.5t-13 -30.5q0 -10 8 -18.5t31 -8.5h9v-8h-9q-26 0 -37 10.5t-11 24.5q0 20 15 34t26 22v71h-1q-11 -32 -39.5 -54t-73.5 -22q-52 0 -82 30t-30 96v445h9v-445z" />
    <glyph glyph-name="Wcircumflex" unicode="&#x174;" horiz-adv-x="469" 
d="M157 706v9l75 74h6l73 -74v-9l-76 74zM234 646l-106 -646h-15l-98 678h9l96 -667h1l109 667h9l111 -667h1l94 667h9l-96 -678h-15l-108 646h-1z" />
    <glyph glyph-name="wcircumflex" unicode="&#x175;" horiz-adv-x="442" 
d="M144 595v9l75 74h6l73 -74v-9l-76 74zM435 567l-97 -567h-15l-102 549l-101 -549h-15l-98 567h9l96 -552h1l102 552h12l103 -552h1l95 552h9z" />
    <glyph glyph-name="Ycircumflex" unicode="&#x176;" horiz-adv-x="287" 
d="M149 258v-258h-9v258l-130 420h9l125 -405h1l123 405h9zM67 706v9l75 74h6l73 -74v-9l-76 74z" />
    <glyph glyph-name="ycircumflex" unicode="&#x177;" horiz-adv-x="276" 
d="M272 567l-150 -586q-5 -20 -11 -33.5t-14 -22t-20.5 -12t-31.5 -3.5h-20v8h20q33 0 46 14.5t22 49.5l20 77h-5l-124 508h9l122 -497h1l127 497h9zM61 595v9l75 74h6l73 -74v-9l-76 74z" />
    <glyph glyph-name="Ydieresis" unicode="&#x178;" horiz-adv-x="287" 
d="M149 258v-258h-9v258l-130 420h9l125 -405h1l123 405h9zM111 743h9v-20h-9v20zM171 743h9v-20h-9v20z" />
    <glyph glyph-name="Zacute" unicode="&#x179;" horiz-adv-x="287" 
d="M235 765l-139 -67v8l139 68v-9zM28 8h232v-8h-242v8l241 662h-219v8h229v-8z" />
    <glyph glyph-name="zacute" unicode="&#x17a;" horiz-adv-x="266" 
d="M224 660l-139 -67v8l139 68v-9zM30 8h211v-8h-221v8l216 551h-199v8h209v-8z" />
    <glyph glyph-name="Zdotaccent" unicode="&#x17b;" horiz-adv-x="287" 
d="M28 8h232v-8h-242v8l241 662h-219v8h229v-8zM151 783h9v-20h-9v20z" />
    <glyph glyph-name="zdotaccent" unicode="&#x17c;" horiz-adv-x="266" 
d="M30 8h211v-8h-221v8l216 551h-199v8h209v-8zM140 678h9v-20h-9v20z" />
    <glyph glyph-name="Zcaron" unicode="&#x17d;" horiz-adv-x="287" 
d="M232 786v-9l-75 -74h-6l-73 74v9l76 -74zM28 8h232v-8h-242v8l241 662h-219v8h229v-8z" />
    <glyph glyph-name="zcaron" unicode="&#x17e;" horiz-adv-x="266" 
d="M221 681v-9l-75 -74h-6l-73 74v9l76 -74zM30 8h211v-8h-221v8l216 551h-199v8h209v-8z" />
    <glyph glyph-name="florin" unicode="&#x192;" horiz-adv-x="217" 
d="M14 417h61l9 183q2 41 19.5 59.5t60.5 18.5h27v-8h-27q-38 0 -53.5 -16t-17.5 -54l-10 -183h108v-8h-108l-25 -499h-9l25 499h-60v8z" />
    <glyph glyph-name="Scommaaccent" unicode="&#x218;" horiz-adv-x="307" 
d="M159 -22l-14 -68h-8l13 69h9v-1zM157 -4q-64 0 -98 34t-34 91v116h9v-116q0 -54 31.5 -85.5t91.5 -31.5q29 0 51 9.5t36.5 25t21.5 36.5t7 45v41q0 23 -4.5 42.5t-15 37.5t-26.5 36.5t-39 40.5l-67 65q-23 22 -40.5 41t-29 37t-17 37t-5.5 43v28q0 55 34 84t86 29
q60 0 91 -27.5t31 -87.5v-90h-9v90q0 56 -29 81.5t-84 25.5q-49 0 -80 -27t-31 -78v-28q0 -23 5.5 -41.5t17 -36t28 -35t37.5 -38.5l67 -65q22 -22 38.5 -40.5t28 -37.5t17 -39.5t5.5 -46.5v-41q0 -25 -7.5 -47.5t-23.5 -39.5t-39.5 -27t-54.5 -10z" />
    <glyph glyph-name="scommaaccent" unicode="&#x219;" horiz-adv-x="290" 
d="M150 -22l-14 -68h-8l13 69h9v-1zM263 117q0 -58 -28.5 -89.5t-92.5 -31.5q-60 0 -88.5 34t-28.5 90v53h9v-53q0 -51 25.5 -83.5t82.5 -32.5q60 0 86 29t26 84v18q0 36 -15 65t-58 63l-72 56q-42 32 -61 60.5t-19 66.5v18q0 48 27 77.5t82 29.5q116 0 116 -118v-50h-9v50
q0 110 -107 110q-51 0 -75.5 -27t-24.5 -72v-18q0 -17 4 -32t12.5 -29t23 -28t35.5 -30l72 -56q46 -36 62 -67t16 -69v-18z" />
    <glyph glyph-name="uni021A" unicode="&#x21a;" horiz-adv-x="287" 
d="M149 -22l-14 -68h-8l13 69h9v-1zM14 678h259v-8h-125v-670h-9v670h-125v8z" />
    <glyph glyph-name="uni021B" unicode="&#x21b;" horiz-adv-x="181" 
d="M106 -22l-14 -68h-8l13 69h9v-1zM12 567h46v111h9v-111h90v-8h-90v-491q0 -33 14 -46.5t47 -13.5h29v-8h-29q-38 0 -54 16t-16 52v491h-46v8z" />
    <glyph glyph-name="uni0237" unicode="&#x237;" horiz-adv-x="75" 
d="M42 567v-604q0 -26 -12 -39.5t-40 -13.5h-6v8h6q23 0 33 11t10 34v604h9z" />
    <glyph glyph-name="circumflex" unicode="&#x2c6;" horiz-adv-x="400" 
d="M123 595v9l75 74h6l73 -74v-9l-76 74z" />
    <glyph glyph-name="caron" unicode="&#x2c7;" horiz-adv-x="400" 
d="M277 681v-9l-75 -74h-6l-73 74v9l76 -74z" />
    <glyph glyph-name="breve" unicode="&#x2d8;" horiz-adv-x="400" 
d="M273 671q0 -34 -20.5 -53.5t-51.5 -19.5q-32 0 -53.5 19.5t-21.5 53.5h8q1 -31 19.5 -48t47.5 -17q28 0 45.5 17t18.5 48h8z" />
    <glyph glyph-name="dotaccent" unicode="&#x2d9;" horiz-adv-x="400" 
d="M195 678h9v-20h-9v20z" />
    <glyph glyph-name="ring" unicode="&#x2da;" horiz-adv-x="400" 
d="M148 644q0 22 14.5 37.5t36.5 15.5q23 0 38 -15.5t15 -37.5t-15 -37t-38 -15q-22 0 -36.5 15t-14.5 37zM157 644q0 -19 12 -31.5t30 -12.5q19 0 31.5 12.5t12.5 31.5t-12.5 32t-31.5 13q-18 0 -30 -13t-12 -32z" />
    <glyph glyph-name="ogonek" unicode="&#x2db;" horiz-adv-x="400" 
d="M204 0q-15 -11 -28 -24.5t-13 -30.5q0 -10 8 -18.5t31 -8.5h9v-8h-9q-26 0 -37 10.5t-11 24.5q0 20 14.5 33.5t25.5 21.5h10z" />
    <glyph glyph-name="tilde" unicode="&#x2dc;" horiz-adv-x="400" 
d="M161 660q11 0 20.5 -5t18.5 -11t17.5 -11t18.5 -5q17 0 24 11.5t9 25.5h8q-1 -19 -11.5 -32t-29.5 -13q-11 0 -20.5 5t-18.5 11t-17.5 11t-18.5 5q-17 0 -24 -11.5t-9 -25.5h-8q1 19 11.5 32t29.5 13z" />
    <glyph glyph-name="hungarumlaut" unicode="&#x2dd;" horiz-adv-x="400" 
d="M216 678l-46 -83h-9l45 83h10zM276 678l-46 -83h-9l45 83h10z" />
    <glyph glyph-name="Wgrave" unicode="&#x1e80;" horiz-adv-x="469" 
d="M234 646l-106 -646h-15l-98 678h9l96 -667h1l109 667h9l111 -667h1l94 667h9l-96 -678h-15l-108 646h-1zM165 780l139 -68v-8l-139 67v9z" />
    <glyph glyph-name="wgrave" unicode="&#x1e81;" horiz-adv-x="442" 
d="M435 567l-97 -567h-15l-102 549l-101 -549h-15l-98 567h9l96 -552h1l102 552h12l103 -552h1l95 552h9zM151 669l139 -68v-8l-139 67v9z" />
    <glyph glyph-name="Wacute" unicode="&#x1e82;" horiz-adv-x="469" 
d="M304 771l-139 -67v8l139 68v-9zM234 646l-106 -646h-15l-98 678h9l96 -667h1l109 667h9l111 -667h1l94 667h9l-96 -678h-15l-108 646h-1z" />
    <glyph glyph-name="wacute" unicode="&#x1e83;" horiz-adv-x="442" 
d="M290 660l-139 -67v8l139 68v-9zM435 567l-97 -567h-15l-102 549l-101 -549h-15l-98 567h9l96 -552h1l102 552h12l103 -552h1l95 552h9z" />
    <glyph glyph-name="Wdieresis" unicode="&#x1e84;" horiz-adv-x="469" 
d="M200 749h9v-20h-9v20zM260 749h9v-20h-9v20zM234 646l-106 -646h-15l-98 678h9l96 -667h1l109 667h9l111 -667h1l94 667h9l-96 -678h-15l-108 646h-1z" />
    <glyph glyph-name="wdieresis" unicode="&#x1e85;" horiz-adv-x="442" 
d="M186 638h9v-20h-9v20zM246 638h9v-20h-9v20zM435 567l-97 -567h-15l-102 549l-101 -549h-15l-98 567h9l96 -552h1l102 552h12l103 -552h1l95 552h9z" />
    <glyph glyph-name="Ygrave" unicode="&#x1ef2;" horiz-adv-x="287" 
d="M149 258v-258h-9v258l-130 420h9l125 -405h1l123 405h9zM74 780l139 -68v-8l-139 67v9z" />
    <glyph glyph-name="ygrave" unicode="&#x1ef3;" horiz-adv-x="276" 
d="M272 567l-150 -586q-5 -20 -11 -33.5t-14 -22t-20.5 -12t-31.5 -3.5h-20v8h20q33 0 46 14.5t22 49.5l20 77h-5l-124 508h9l122 -497h1l127 497h9zM69 669l139 -68v-8l-139 67v9z" />
    <glyph glyph-name="uni2009" unicode="&#x2009;" horiz-adv-x="50" 
 />
    <glyph glyph-name="endash" unicode="&#x2013;" horiz-adv-x="197" 
d="M11 319h175v-8h-175v8z" />
    <glyph glyph-name="emdash" unicode="&#x2014;" horiz-adv-x="437" 
d="M11 319h415v-8h-415v8z" />
    <glyph glyph-name="quoteleft" unicode="&#x2018;" horiz-adv-x="71" 
d="M26 588l14 90h8l-13 -91h-9v1z" />
    <glyph glyph-name="quoteright" unicode="&#x2019;" horiz-adv-x="71" 
d="M45 677l-14 -90h-8l13 91h9v-1z" />
    <glyph glyph-name="quotesinglbase" unicode="&#x201a;" horiz-adv-x="71" 
d="M45 42l-14 -90h-8l13 91h9v-1z" />
    <glyph glyph-name="quotedblleft" unicode="&#x201c;" horiz-adv-x="115" 
d="M70 588l14 90h8l-13 -91h-9v1zM26 588l14 90h8l-13 -91h-9v1z" />
    <glyph glyph-name="quotedblright" unicode="&#x201d;" horiz-adv-x="115" 
d="M45 677l-14 -90h-8l13 91h9v-1zM89 677l-14 -90h-8l13 91h9v-1z" />
    <glyph glyph-name="quotedblbase" unicode="&#x201e;" horiz-adv-x="115" 
d="M45 42l-14 -90h-8l13 91h9v-1zM89 42l-14 -90h-8l13 91h9v-1z" />
    <glyph glyph-name="dagger" unicode="&#x2020;" horiz-adv-x="207" 
d="M16 567h83v111h9v-111h83v-8h-83v-559h-9v559h-83v8z" />
    <glyph glyph-name="daggerdbl" unicode="&#x2021;" horiz-adv-x="207" 
d="M16 567h83v111h9v-111h83v-8h-83v-440h83v-8h-83v-111h-9v111h-83v8h83v440h-83v8z" />
    <glyph glyph-name="bullet" unicode="&#x2022;" horiz-adv-x="188" 
d="M28 337q0 26 19 46t47 20q26 0 46 -20t20 -46q0 -28 -20 -47t-46 -19q-28 0 -47 19t-19 47z" />
    <glyph glyph-name="ellipsis" unicode="&#x2026;" horiz-adv-x="243" 
d="M117 22h9v-22h-9v22zM198 22h9v-22h-9v22zM36 22h9v-22h-9v22z" />
    <glyph glyph-name="perthousand" unicode="&#x2030;" horiz-adv-x="609" 
d="M360 678l-322 -678h-9l322 678h9zM277 -3q-51 0 -72 31t-21 86v53q0 55 21 86t72 31t71.5 -31t20.5 -86v-53q0 -55 -20.5 -86t-71.5 -31zM277 5q48 0 65.5 29.5t17.5 79.5v53q0 50 -17.5 79.5t-65.5 29.5t-66 -29.5t-18 -79.5v-53q0 -50 18 -79.5t66 -29.5zM113 394
q-51 0 -72 31t-21 86v53q0 55 21 86t72 31t71.5 -31t20.5 -86v-53q0 -55 -20.5 -86t-71.5 -31zM113 402q48 0 65.5 29.5t17.5 79.5v53q0 50 -17.5 79.5t-65.5 29.5t-66 -29.5t-18 -79.5v-53q0 -50 18 -79.5t66 -29.5zM497 -3q-51 0 -72 31t-21 86v53q0 55 21 86t72 31
t71.5 -31t20.5 -86v-53q0 -55 -20.5 -86t-71.5 -31zM497 5q48 0 65.5 29.5t17.5 79.5v53q0 50 -17.5 79.5t-65.5 29.5t-66 -29.5t-18 -79.5v-53q0 -50 18 -79.5t66 -29.5z" />
    <glyph glyph-name="guilsinglleft" unicode="&#x2039;" horiz-adv-x="127" 
d="M100 378l-64 -146l64 -146h-9l-64 146l64 146h9z" />
    <glyph glyph-name="guilsinglright" unicode="&#x203a;" horiz-adv-x="127" 
d="M36 378l64 -146l-64 -146h-9l64 146l-64 146h9z" />
    <glyph glyph-name="fraction" unicode="&#x2044;" horiz-adv-x="151" 
d="M241 678l-322 -678h-9l322 678h9z" />
    <glyph glyph-name="Euro" unicode="&#x20ac;" horiz-adv-x="335" 
d="M16 381h36v144q0 31 6.5 59.5t22 50.5t40 34.5t60.5 12.5q37 0 62 -10t39 -29t20 -45.5t6 -59.5v-71h-9v71q0 31 -5.5 56.5t-19 43t-36 27t-57.5 9.5q-33 0 -56 -12t-37.5 -32.5t-20.5 -47.5t-6 -57v-144h168v-8h-168v-35h168v-8h-168v-177q0 -30 6 -57t20.5 -47.5
t37.5 -32.5t56 -12q35 0 57.5 10.5t36 29t19 43.5t5.5 54v106h9v-106q0 -31 -6 -57.5t-20 -46t-39 -30.5t-62 -11q-36 0 -60.5 13t-40 34.5t-22 50t-6.5 59.5v177h-36v8h36v35h-36v8z" />
    <glyph glyph-name="trademark" unicode="&#x2122;" horiz-adv-x="337" 
d="M298 670h-4l-56 -231h-11l-56 231h-3v-231h-9v239h19l54 -224h1l54 224h20v-239h-9v231zM19 678h109v-8h-50v-231h-9v231h-50v8z" />
    <glyph glyph-name="onethird" unicode="&#x2153;" horiz-adv-x="239" 
d="M56 94v-29q0 -61 67 -61q37 0 52 15.5t15 43.5v39q0 22 -11 35.5t-41 14.5h-31v8h31q28 0 37.5 17t9.5 33v22q0 56 -63 56q-35 0 -48.5 -17t-13.5 -42v-18h-9v18q0 28 15.5 47.5t55.5 19.5q72 0 72 -64v-22q0 -17 -8 -32.5t-30 -21.5q24 -5 33.5 -19t9.5 -35v-39
q0 -31 -17 -49t-59 -18q-38 0 -57 18t-19 51v29h9zM21 344h197v-8h-197v8zM127 678v-292h-9v276h-1l-57 -64h-1v11l61 69h7z" />
    <glyph glyph-name="twothirds" unicode="&#x2154;" horiz-adv-x="239" 
d="M56 94v-29q0 -61 67 -61q37 0 52 15.5t15 43.5v39q0 22 -11 35.5t-41 14.5h-31v8h31q28 0 37.5 17t9.5 33v22q0 56 -63 56q-35 0 -48.5 -17t-13.5 -42v-18h-9v18q0 28 15.5 47.5t55.5 19.5q72 0 72 -64v-22q0 -17 -8 -32.5t-30 -21.5q24 -5 33.5 -19t9.5 -35v-39
q0 -31 -17 -49t-59 -18q-38 0 -57 18t-19 51v29h9zM193 386h-146v21q0 32 9.5 49t35.5 38l50 40q22 18 33 32.5t11 32.5v16q0 28 -15.5 43.5t-46.5 15.5q-29 0 -47.5 -16t-18.5 -47v-35h-9v35q0 35 21.5 53t53.5 18q34 0 52.5 -17.5t18.5 -49.5v-16q0 -20 -11 -35.5
t-36 -35.5l-50 -40q-26 -20 -34 -36t-8 -45v-13h137v-8zM21 344h197v-8h-197v8z" />
    <glyph glyph-name="minus" unicode="&#x2212;" horiz-adv-x="337" 
d="M24 339h289v-8h-289v8z" />
    <glyph glyph-name="idotaccent" horiz-adv-x="75" 
d="M33 567h9v-567h-9v567zM33 678h9v-20h-9v20z" />
    <glyph glyph-name="space_uni0326" horiz-adv-x="400" 
d="M198 -22l-14 -68h-8l13 69h9v-1z" />
    <glyph glyph-name="G.alt" horiz-adv-x="324" 
d="M177 329h117v-188q0 -31 -5.5 -57.5t-20 -46t-39 -30.5t-63.5 -11q-37 0 -63 13t-42 34.5t-23.5 50t-7.5 59.5v372q0 31 7.5 59.5t23.5 50.5t42 34.5t63 12.5q39 0 63.5 -10t39 -29t20 -45.5t5.5 -59.5v-61h-9v61q0 31 -5 56.5t-18.5 43t-36.5 27t-59 9.5q-35 0 -59 -12
t-39 -32.5t-22 -47.5t-7 -57v-372q0 -30 7 -57t22 -47.5t39 -32.5t59 -12q36 0 59 10.5t36.5 29t18.5 43.5t5 54v180h-108v8z" />
    <glyph glyph-name="Q.alt1" horiz-adv-x="340" 
d="M257 23q-33 -27 -87 -27q-37 0 -63.5 13t-43.5 34.5t-25 50t-8 59.5v372q0 31 8 59.5t25 50.5t43.5 34.5t63.5 12.5t63.5 -12.5t43.5 -34.5t25 -50.5t8 -59.5v-372q0 -37 -11 -69t-35 -55l60 -74v-1h-11zM170 4q26 0 46 7t36 19l-66 84v1h11l62 -79q22 21 32 51.5
t10 65.5v372q0 30 -7.5 57t-23.5 47.5t-41 32.5t-59 12q-35 0 -59.5 -12t-40.5 -32.5t-23.5 -47.5t-7.5 -57v-372q0 -30 7.5 -57t23.5 -47.5t40.5 -32.5t59.5 -12z" />
    <glyph glyph-name="Q.alt2" horiz-adv-x="340" 
d="M250 -94q-32 0 -48.5 19t-16.5 51v20h-10q-39 0 -66.5 13t-45 34.5t-25.5 50t-8 59.5v372q0 31 8 59.5t25 50.5t43.5 34.5t63.5 12.5t63.5 -12.5t43.5 -34.5t25 -50.5t8 -59.5v-372q0 -29 -6.5 -55.5t-21 -47.5t-36.5 -35t-52 -18v-21q0 -29 14.5 -45.5t41.5 -16.5
q25 0 36.5 14.5t11.5 38.5v43h9v-43q0 -26 -13.5 -43.5t-43.5 -17.5zM170 674q-35 0 -59.5 -12t-40.5 -32.5t-23.5 -47.5t-7.5 -57v-372q0 -46 18 -83.5t56 -54.5v1q-20 14 -29.5 37t-9.5 52q0 40 18.5 60.5t44.5 20.5q25 0 41 -18.5t16 -60.5v-102q28 4 48.5 17.5
t33.5 33.5t19 45t6 52v372q0 30 -7.5 57t-23.5 47.5t-41 32.5t-59 12zM185 4v103q0 38 -13 54.5t-35 16.5t-38.5 -18.5t-16.5 -54.5q0 -43 23.5 -72t64.5 -29h15z" />
    <glyph glyph-name="R.alt1" horiz-adv-x="309" 
d="M33 678h108q60 0 90.5 -28t30.5 -81v-123q0 -85 -77 -103q48 -5 69.5 -32.5t21.5 -74.5v-203q0 -25 21 -25h5v-8h-5q-30 0 -30 33v203q0 49 -25 75t-81 26h-119v-337h-9v678zM42 670v-325h99q56 0 84 26t28 75v123q0 49 -28 75t-84 26h-99z" />
    <glyph glyph-name="R.alt2" horiz-adv-x="309" 
d="M33 678h108q60 0 90.5 -28t30.5 -81v-123q0 -85 -77 -103q48 -5 69.5 -32.5t21.5 -74.5v-236h-9v236q0 49 -25 75t-81 26h-119v-337h-9v678zM42 670v-325h99q56 0 84 26t28 75v123q0 49 -28 75t-84 26h-99z" />
    <glyph glyph-name="g.alt1" 
d="M114 270q-15 0 -29.5 -2.5t-26.5 -9t-19 -17.5t-7 -28q0 -44 54 -44h80q118 0 118 -103v-26q0 -29 -6.5 -53.5t-22 -42.5t-40.5 -28t-62 -10q-69 0 -98.5 33t-29.5 99v57h9v-57q0 -61 26.5 -92.5t92.5 -31.5q35 0 58.5 10t37.5 27.5t20 40t6 48.5v26q0 95 -109 95h-80
q-63 0 -63 52q0 16 6.5 27.5t17 19t23.5 11.5t27 6q-36 13 -55.5 45.5t-19.5 83.5v25q0 66 33 101t91 35h136v-8h-87v-1q36 -12 55.5 -44t19.5 -83v-25q0 -66 -33 -101t-91 -35h-32zM146 278q55 0 85 34t30 94v25q0 60 -30 94t-85 34t-85 -34t-30 -94v-25q0 -60 30 -94
t85 -34z" />
    <glyph glyph-name="g.alt2" 
d="M270 406q0 -66 -33 -101t-91 -35h-32q-15 0 -29 -3.5t-25 -12.5t-17.5 -24.5t-6.5 -39.5v-21h130q118 0 118 -103v-26q0 -29 -6.5 -53.5t-22 -42.5t-40.5 -28t-62 -10q-69 0 -98.5 33t-29.5 99v57h9v-57q0 -61 26.5 -92.5t92.5 -31.5q35 0 58.5 10t37.5 27.5t20 40
t6 48.5v26q0 95 -109 95h-139v29q0 24 6 39.5t15.5 25.5t22 15t26.5 7q-36 13 -55.5 45.5t-19.5 83.5v25q0 66 33 101t91 35h136v-8h-87v-1q36 -12 55.5 -44t19.5 -83v-25zM146 278q55 0 85 34t30 94v25q0 60 -30 94t-85 34t-85 -34t-30 -94v-25q0 -60 30 -94t85 -34z" />
    <glyph glyph-name="Gbreve.alt" horiz-adv-x="324" 
d="M177 329h117v-188q0 -31 -5.5 -57.5t-20 -46t-39 -30.5t-63.5 -11q-37 0 -63 13t-42 34.5t-23.5 50t-7.5 59.5v372q0 31 7.5 59.5t23.5 50.5t42 34.5t63 12.5q39 0 63.5 -10t39 -29t20 -45.5t5.5 -59.5v-61h-9v61q0 31 -5 56.5t-18.5 43t-36.5 27t-59 9.5q-35 0 -59 -12
t-39 -32.5t-22 -47.5t-7 -57v-372q0 -30 7 -57t22 -47.5t39 -32.5t59 -12q36 0 59 10.5t36.5 29t18.5 43.5t5 54v180h-108v8zM236 776q0 -34 -20.5 -53.5t-51.5 -19.5q-32 0 -53.5 19.5t-21.5 53.5h8q1 -31 19.5 -48t47.5 -17q28 0 45.5 17t18.5 48h8z" />
    <glyph glyph-name="Gcircumflex.alt" horiz-adv-x="324" 
d="M88 700v9l75 74h6l73 -74v-9l-76 74zM177 329h117v-188q0 -31 -5.5 -57.5t-20 -46t-39 -30.5t-63.5 -11q-37 0 -63 13t-42 34.5t-23.5 50t-7.5 59.5v372q0 31 7.5 59.5t23.5 50.5t42 34.5t63 12.5q39 0 63.5 -10t39 -29t20 -45.5t5.5 -59.5v-61h-9v61q0 31 -5 56.5
t-18.5 43t-36.5 27t-59 9.5q-35 0 -59 -12t-39 -32.5t-22 -47.5t-7 -57v-372q0 -30 7 -57t22 -47.5t39 -32.5t59 -12q36 0 59 10.5t36.5 29t18.5 43.5t5 54v180h-108v8z" />
    <glyph glyph-name="Gcommaaccent.alt" horiz-adv-x="324" 
d="M171 -22l-14 -68h-8l13 69h9v-1zM177 329h117v-188q0 -31 -5.5 -57.5t-20 -46t-39 -30.5t-63.5 -11q-37 0 -63 13t-42 34.5t-23.5 50t-7.5 59.5v372q0 31 7.5 59.5t23.5 50.5t42 34.5t63 12.5q39 0 63.5 -10t39 -29t20 -45.5t5.5 -59.5v-61h-9v61q0 31 -5 56.5t-18.5 43
t-36.5 27t-59 9.5q-35 0 -59 -12t-39 -32.5t-22 -47.5t-7 -57v-372q0 -30 7 -57t22 -47.5t39 -32.5t59 -12q36 0 59 10.5t36.5 29t18.5 43.5t5 54v180h-108v8z" />
    <glyph glyph-name="Gdotaccent.alt" horiz-adv-x="324" 
d="M177 329h117v-188q0 -31 -5.5 -57.5t-20 -46t-39 -30.5t-63.5 -11q-37 0 -63 13t-42 34.5t-23.5 50t-7.5 59.5v372q0 31 7.5 59.5t23.5 50.5t42 34.5t63 12.5q39 0 63.5 -10t39 -29t20 -45.5t5.5 -59.5v-61h-9v61q0 31 -5 56.5t-18.5 43t-36.5 27t-59 9.5q-35 0 -59 -12
t-39 -32.5t-22 -47.5t-7 -57v-372q0 -30 7 -57t22 -47.5t39 -32.5t59 -12q36 0 59 10.5t36.5 29t18.5 43.5t5 54v180h-108v8zM158 743h9v-20h-9v20z" />
    <glyph glyph-name="Racute.alt1" horiz-adv-x="309" 
d="M224 765l-139 -67v8l139 68v-9zM33 678h108q60 0 90.5 -28t30.5 -81v-123q0 -85 -77 -103q48 -5 69.5 -32.5t21.5 -74.5v-203q0 -25 21 -25h5v-8h-5q-30 0 -30 33v203q0 49 -25 75t-81 26h-119v-337h-9v678zM42 670v-325h99q56 0 84 26t28 75v123q0 49 -28 75t-84 26h-99
z" />
    <glyph glyph-name="Racute.alt2" horiz-adv-x="309" 
d="M222 765l-139 -67v8l139 68v-9zM33 678h108q60 0 90.5 -28t30.5 -81v-123q0 -85 -77 -103q48 -5 69.5 -32.5t21.5 -74.5v-236h-9v236q0 49 -25 75t-81 26h-119v-337h-9v678zM42 670v-325h99q56 0 84 26t28 75v123q0 49 -28 75t-84 26h-99z" />
    <glyph glyph-name="Rcaron.alt1" horiz-adv-x="309" 
d="M221 786v-9l-75 -74h-6l-73 74v9l76 -74zM33 678h108q60 0 90.5 -28t30.5 -81v-123q0 -85 -77 -103q48 -5 69.5 -32.5t21.5 -74.5v-203q0 -25 21 -25h5v-8h-5q-30 0 -30 33v203q0 49 -25 75t-81 26h-119v-337h-9v678zM42 670v-325h99q56 0 84 26t28 75v123q0 49 -28 75
t-84 26h-99z" />
    <glyph glyph-name="Rcaron.alt2" horiz-adv-x="309" 
d="M218 786v-9l-75 -74h-6l-73 74v9l76 -74zM33 678h108q60 0 90.5 -28t30.5 -81v-123q0 -85 -77 -103q48 -5 69.5 -32.5t21.5 -74.5v-236h-9v236q0 49 -25 75t-81 26h-119v-337h-9v678zM42 670v-325h99q56 0 84 26t28 75v123q0 49 -28 75t-84 26h-99z" />
    <glyph glyph-name="Rcommaaccent.alt1" horiz-adv-x="309" 
d="M162 -22l-14 -68h-8l13 69h9v-1zM33 678h108q60 0 90.5 -28t30.5 -81v-123q0 -85 -77 -103q48 -5 69.5 -32.5t21.5 -74.5v-203q0 -25 21 -25h5v-8h-5q-30 0 -30 33v203q0 49 -25 75t-81 26h-119v-337h-9v678zM42 670v-325h99q56 0 84 26t28 75v123q0 49 -28 75t-84 26
h-99z" />
    <glyph glyph-name="Rcommaaccent.alt2" horiz-adv-x="309" 
d="M160 -22l-14 -68h-8l13 69h9v-1zM33 678h108q60 0 90.5 -28t30.5 -81v-123q0 -85 -77 -103q48 -5 69.5 -32.5t21.5 -74.5v-236h-9v236q0 49 -25 75t-81 26h-119v-337h-9v678zM42 670v-325h99q56 0 84 26t28 75v123q0 49 -28 75t-84 26h-99z" />
    <glyph glyph-name="gbreve.alt1" 
d="M114 270q-15 0 -29.5 -2.5t-26.5 -9t-19 -17.5t-7 -28q0 -44 54 -44h80q118 0 118 -103v-26q0 -29 -6.5 -53.5t-22 -42.5t-40.5 -28t-62 -10q-69 0 -98.5 33t-29.5 99v57h9v-57q0 -61 26.5 -92.5t92.5 -31.5q35 0 58.5 10t37.5 27.5t20 40t6 48.5v26q0 95 -109 95h-80
q-63 0 -63 52q0 16 6.5 27.5t17 19t23.5 11.5t27 6q-36 13 -55.5 45.5t-19.5 83.5v25q0 66 33 101t91 35h136v-8h-87v-1q36 -12 55.5 -44t19.5 -83v-25q0 -66 -33 -101t-91 -35h-32zM146 278q55 0 85 34t30 94v25q0 60 -30 94t-85 34t-85 -34t-30 -94v-25q0 -60 30 -94
t85 -34zM226 671q0 -34 -20.5 -53.5t-51.5 -19.5q-32 0 -53.5 19.5t-21.5 53.5h8q1 -31 19.5 -48t47.5 -17q28 0 45.5 17t18.5 48h8z" />
    <glyph glyph-name="gbreve.alt2" 
d="M270 406q0 -66 -33 -101t-91 -35h-32q-15 0 -29 -3.5t-25 -12.5t-17.5 -24.5t-6.5 -39.5v-21h130q118 0 118 -103v-26q0 -29 -6.5 -53.5t-22 -42.5t-40.5 -28t-62 -10q-69 0 -98.5 33t-29.5 99v57h9v-57q0 -61 26.5 -92.5t92.5 -31.5q35 0 58.5 10t37.5 27.5t20 40
t6 48.5v26q0 95 -109 95h-139v29q0 24 6 39.5t15.5 25.5t22 15t26.5 7q-36 13 -55.5 45.5t-19.5 83.5v25q0 66 33 101t91 35h136v-8h-87v-1q36 -12 55.5 -44t19.5 -83v-25zM146 278q55 0 85 34t30 94v25q0 60 -30 94t-85 34t-85 -34t-30 -94v-25q0 -60 30 -94t85 -34z
M225 671q0 -34 -20.5 -53.5t-51.5 -19.5q-32 0 -53.5 19.5t-21.5 53.5h8q1 -31 19.5 -48t47.5 -17q28 0 45.5 17t18.5 48h8z" />
    <glyph glyph-name="gcircumflex.alt1" 
d="M75 595v9l75 74h6l73 -74v-9l-76 74zM114 270q-15 0 -29.5 -2.5t-26.5 -9t-19 -17.5t-7 -28q0 -44 54 -44h80q118 0 118 -103v-26q0 -29 -6.5 -53.5t-22 -42.5t-40.5 -28t-62 -10q-69 0 -98.5 33t-29.5 99v57h9v-57q0 -61 26.5 -92.5t92.5 -31.5q35 0 58.5 10t37.5 27.5
t20 40t6 48.5v26q0 95 -109 95h-80q-63 0 -63 52q0 16 6.5 27.5t17 19t23.5 11.5t27 6q-36 13 -55.5 45.5t-19.5 83.5v25q0 66 33 101t91 35h136v-8h-87v-1q36 -12 55.5 -44t19.5 -83v-25q0 -66 -33 -101t-91 -35h-32zM146 278q55 0 85 34t30 94v25q0 60 -30 94t-85 34
t-85 -34t-30 -94v-25q0 -60 30 -94t85 -34z" />
    <glyph glyph-name="gcircumflex.alt2" 
d="M74 595v9l75 74h6l73 -74v-9l-76 74zM270 406q0 -66 -33 -101t-91 -35h-32q-15 0 -29 -3.5t-25 -12.5t-17.5 -24.5t-6.5 -39.5v-21h130q118 0 118 -103v-26q0 -29 -6.5 -53.5t-22 -42.5t-40.5 -28t-62 -10q-69 0 -98.5 33t-29.5 99v57h9v-57q0 -61 26.5 -92.5t92.5 -31.5
q35 0 58.5 10t37.5 27.5t20 40t6 48.5v26q0 95 -109 95h-139v29q0 24 6 39.5t15.5 25.5t22 15t26.5 7q-36 13 -55.5 45.5t-19.5 83.5v25q0 66 33 101t91 35h136v-8h-87v-1q36 -12 55.5 -44t19.5 -83v-25zM146 278q55 0 85 34t30 94v25q0 60 -30 94t-85 34t-85 -34t-30 -94
v-25q0 -60 30 -94t85 -34z" />
    <glyph glyph-name="gcommaaccent.alt1" 
d="M145 610l14 68h8l-13 -69h-9v1zM114 270q-15 0 -29.5 -2.5t-26.5 -9t-19 -17.5t-7 -28q0 -44 54 -44h80q118 0 118 -103v-26q0 -29 -6.5 -53.5t-22 -42.5t-40.5 -28t-62 -10q-69 0 -98.5 33t-29.5 99v57h9v-57q0 -61 26.5 -92.5t92.5 -31.5q35 0 58.5 10t37.5 27.5t20 40
t6 48.5v26q0 95 -109 95h-80q-63 0 -63 52q0 16 6.5 27.5t17 19t23.5 11.5t27 6q-36 13 -55.5 45.5t-19.5 83.5v25q0 66 33 101t91 35h136v-8h-87v-1q36 -12 55.5 -44t19.5 -83v-25q0 -66 -33 -101t-91 -35h-32zM146 278q55 0 85 34t30 94v25q0 60 -30 94t-85 34t-85 -34
t-30 -94v-25q0 -60 30 -94t85 -34z" />
    <glyph glyph-name="gcommaaccent.alt2" 
d="M143 610l14 68h8l-13 -69h-9v1zM270 406q0 -66 -33 -101t-91 -35h-32q-15 0 -29 -3.5t-25 -12.5t-17.5 -24.5t-6.5 -39.5v-21h130q118 0 118 -103v-26q0 -29 -6.5 -53.5t-22 -42.5t-40.5 -28t-62 -10q-69 0 -98.5 33t-29.5 99v57h9v-57q0 -61 26.5 -92.5t92.5 -31.5
q35 0 58.5 10t37.5 27.5t20 40t6 48.5v26q0 95 -109 95h-139v29q0 24 6 39.5t15.5 25.5t22 15t26.5 7q-36 13 -55.5 45.5t-19.5 83.5v25q0 66 33 101t91 35h136v-8h-87v-1q36 -12 55.5 -44t19.5 -83v-25zM146 278q55 0 85 34t30 94v25q0 60 -30 94t-85 34t-85 -34t-30 -94
v-25q0 -60 30 -94t85 -34z" />
    <glyph glyph-name="gdotaccent.alt1" 
d="M114 270q-15 0 -29.5 -2.5t-26.5 -9t-19 -17.5t-7 -28q0 -44 54 -44h80q118 0 118 -103v-26q0 -29 -6.5 -53.5t-22 -42.5t-40.5 -28t-62 -10q-69 0 -98.5 33t-29.5 99v57h9v-57q0 -61 26.5 -92.5t92.5 -31.5q35 0 58.5 10t37.5 27.5t20 40t6 48.5v26q0 95 -109 95h-80
q-63 0 -63 52q0 16 6.5 27.5t17 19t23.5 11.5t27 6q-36 13 -55.5 45.5t-19.5 83.5v25q0 66 33 101t91 35h136v-8h-87v-1q36 -12 55.5 -44t19.5 -83v-25q0 -66 -33 -101t-91 -35h-32zM146 278q55 0 85 34t30 94v25q0 60 -30 94t-85 34t-85 -34t-30 -94v-25q0 -60 30 -94
t85 -34zM151 678h9v-20h-9v20z" />
    <glyph glyph-name="gdotaccent.alt2" 
d="M270 406q0 -66 -33 -101t-91 -35h-32q-15 0 -29 -3.5t-25 -12.5t-17.5 -24.5t-6.5 -39.5v-21h130q118 0 118 -103v-26q0 -29 -6.5 -53.5t-22 -42.5t-40.5 -28t-62 -10q-69 0 -98.5 33t-29.5 99v57h9v-57q0 -61 26.5 -92.5t92.5 -31.5q35 0 58.5 10t37.5 27.5t20 40
t6 48.5v26q0 95 -109 95h-139v29q0 24 6 39.5t15.5 25.5t22 15t26.5 7q-36 13 -55.5 45.5t-19.5 83.5v25q0 66 33 101t91 35h136v-8h-87v-1q36 -12 55.5 -44t19.5 -83v-25zM146 278q55 0 85 34t30 94v25q0 60 -30 94t-85 34t-85 -34t-30 -94v-25q0 -60 30 -94t85 -34z
M147 678h9v-20h-9v20z" />
    <glyph glyph-name="space_uni0326.alt" horiz-adv-x="400" 
d="M192 610l14 68h8l-13 -69h-9v1z" />
    <glyph glyph-name="asterisk.alt" horiz-adv-x="183" 
d="M95 616h-7l-1 62h9zM106 600l-2 7l59 21l2 -8zM97 585l6 4l37 -49l-7 -5zM18 620l2 8l59 -21l-2 -7zM50 535l-7 5l37 49l6 -4z" />
    <glyph glyph-name="ampersand.alt1" horiz-adv-x="349" 
d="M161 682q57 0 85.5 -27.5t28.5 -96.5v-65h-9v65q0 65 -26.5 90.5t-78.5 25.5q-50 0 -79.5 -28.5t-29.5 -98.5v-74q0 -49 25.5 -78t79.5 -29h178v-8h-51v-229q0 -68 -30.5 -100.5t-96.5 -32.5q-69 0 -98 37t-29 108v102q0 56 27 83.5t65 35.5q-35 8 -57 34.5t-22 76.5v74
q0 72 30.5 103.5t87.5 31.5zM157 4q61 0 89.5 29.5t28.5 95.5v229h-118q-55 0 -86.5 -29.5t-31.5 -85.5v-102q0 -67 27.5 -102t90.5 -35z" />
    <glyph glyph-name="ampersand.alt2" horiz-adv-x="394" 
d="M286 498v67q0 58 -26 83.5t-65 25.5q-45 0 -73.5 -27.5t-28.5 -81.5q0 -21 2 -37.5t7 -32.5t13 -33t20 -39l153 -290l2 6l72 263h9l-75 -272l-1 -3q-1 -2 -1 -4l41 -78q12 -23 20 -30t22 -7h10v-8h-10q-17 0 -27 8t-21 31l-39 72q-8 -23 -18.5 -44t-27.5 -36.5t-40.5 -25
t-56.5 -9.5q-53 0 -86 32.5t-33 109.5v135q0 62 23 96t72 56q-20 37 -29.5 67.5t-9.5 72.5q0 58 31 87.5t80 29.5q44 0 72 -28t28 -89v-67h-9zM147 4q31 0 54 9t39 24.5t26.5 37t18.5 46.5l-157 296l-1 1q-47 -20 -68.5 -52.5t-21.5 -92.5v-135q0 -72 31 -103t79 -31z" />
    <glyph glyph-name="ampersand.alt3" horiz-adv-x="385" 
d="M28 273q0 65 24.5 99t77.5 56q-18 33 -27.5 63.5t-9.5 73.5q0 58 30 87.5t74 29.5q42 0 67.5 -27t25.5 -81q0 -27 -9 -48t-27.5 -38t-46 -32.5t-64.5 -31.5l148 -279l71 257h9l-74 -268l72 -134h-10l-66 122q-7 -25 -17.5 -47.5t-27.5 -40t-41.5 -28t-59.5 -10.5
q-53 0 -86 32.5t-33 109.5v135zM147 4q33 0 56.5 10t40 27.5t26.5 40.5t18 50l-154 289q-50 -20 -73.5 -53t-23.5 -95v-135q0 -72 31 -103t79 -31zM102 565q0 -20 2 -36.5t6.5 -31.5t11.5 -31t18 -35q36 16 63 31t44 31.5t25.5 36t8.5 44.5q0 49 -23 74.5t-61 25.5
q-39 0 -67 -27.5t-28 -81.5z" />
    <glyph glyph-name="caron.alt" horiz-adv-x="400" 
d="M210 677l-5 -90h-8l4 91h9v-1z" />
    <glyph glyph-name="questiondown.uc" horiz-adv-x="293" 
d="M169 590v-107q0 -25 -2 -41.5t-7 -30t-13.5 -26.5t-21.5 -32l-44 -64q-23 -34 -32.5 -58t-9.5 -56v-48q0 -63 25.5 -93t79.5 -30q53 0 83.5 28t30.5 88v71h9v-71q0 -65 -33.5 -94.5t-89.5 -29.5q-114 0 -114 131v48q0 35 10.5 60.5t33.5 58.5l44 64q12 17 20 29.5t13 26
t7 29.5t2 40v107h9zM169 656h-9v22h9v-22z" />
    <glyph glyph-name="exclamdown.uc" horiz-adv-x="81" 
d="M45 656h-9v22h9v-22zM45 0h-9l1 590h7z" />
    <glyph glyph-name="hyphen.uc" horiz-adv-x="153" 
d="M19 349h115v-8h-115v8z" />
    <glyph glyph-name="endash.uc" horiz-adv-x="197" 
d="M11 349h175v-8h-175v8z" />
    <glyph glyph-name="emdash.uc" horiz-adv-x="437" 
d="M11 349h415v-8h-415v8z" />
    <glyph glyph-name="C.round" horiz-adv-x="680" 
d="M668 257q-9 -57 -36 -106t-68.5 -84t-94.5 -55t-115 -20q-72 0 -134 27t-107.5 73.5t-71.5 110t-26 135.5t26 135.5t71.5 110.5t107.5 74t134 27q57 0 106 -17t88 -47t67 -72t42 -92h-10q-14 48 -41 88.5t-64.5 70t-85 45.5t-102.5 16q-71 0 -131 -26.5t-104.5 -72.5
t-69.5 -108t-25 -132q0 -71 25 -132.5t69.5 -107t104.5 -72t131 -26.5q60 0 111.5 20t91.5 54.5t66.5 81.5t35.5 101h9z" />
    <glyph glyph-name="D.round" horiz-adv-x="610" 
d="M252 678q72 0 135 -26t109 -71.5t72.5 -108t26.5 -134.5t-26.5 -134t-72.5 -107.5t-109 -71t-135 -25.5h-219v678h219zM42 670v-662h210q70 0 131 25t106 69.5t71 104.5t26 131q0 70 -26 131t-71 105.5t-106 70t-131 25.5h-210z" />
    <glyph glyph-name="G.round" horiz-adv-x="709" 
d="M667 235q-10 -56 -35.5 -101t-64.5 -76.5t-91 -48.5t-114 -17q-77 0 -140.5 27t-109.5 73.5t-71.5 110t-25.5 135.5t26.5 135.5t72.5 110.5t109 74t135 27q110 0 190 -54.5t112 -153.5h-10q-31 93 -108.5 146.5t-183.5 53.5q-71 0 -132 -26.5t-106 -72.5t-70.5 -108
t-25.5 -132q0 -71 24.5 -132.5t69.5 -107t107 -72t137 -26.5q70 0 126.5 22.5t96 64t61 100t21.5 129.5h-254v8h263v-324h-9v235z" />
    <glyph glyph-name="O.round" horiz-adv-x="716" 
d="M15 338q0 72 26.5 135.5t72.5 110.5t109 74t135 27t135 -27t109 -74t72.5 -110.5t26.5 -135.5t-26.5 -135.5t-72.5 -110t-109 -73.5t-135 -27t-135 27t-109 73.5t-72.5 110t-26.5 135.5zM24 338q0 -71 25.5 -132.5t70.5 -107t106 -72t132 -26.5q70 0 131 26.5t106 72
t71 107t26 132.5q0 70 -26 132t-71 108t-106 72.5t-131 26.5q-71 0 -132 -26.5t-106 -72.5t-70.5 -108t-25.5 -132z" />
    <glyph glyph-name="Q.round" horiz-adv-x="716" 
d="M15 338q0 72 26.5 135.5t72.5 110.5t109 74t135 27t135 -27t109 -74t72.5 -110.5t26.5 -135.5t-26.5 -135.5t-72.5 -110t-109 -73.5t-135 -27h-12l287 -46v-8l-299 48v7q-68 4 -126.5 32.5t-101.5 75t-67 107.5t-24 130zM24 338q0 -71 25.5 -132.5t70.5 -107t106 -72
t132 -26.5q70 0 131 26.5t106 72t71 107t26 132.5q0 70 -26 132t-71 108t-106 72.5t-131 26.5q-71 0 -132 -26.5t-106 -72.5t-70.5 -108t-25.5 -132z" />
    <glyph glyph-name="X.round" horiz-adv-x="557" 
d="M274 349l-249 329h11l245 -323l247 323h11l-252 -330l264 -348h-11l-260 342l-263 -342h-11z" />
    <glyph glyph-name="Oslash.round" horiz-adv-x="716" 
d="M15 338q0 72 26.5 135.5t72.5 110.5t109 74t135 27q63 0 118.5 -20.5t100.5 -57.5l60 71h11l-65 -77q55 -48 86.5 -116t31.5 -147q0 -72 -26.5 -135.5t-72.5 -110t-109 -73.5t-135 -27q-64 0 -119.5 20.5t-100.5 57.5l-59 -70h-11l64 76q-54 48 -85.5 115t-31.5 147z
M692 338q0 78 -30.5 143.5t-83.5 112.5l-435 -517q44 -36 98 -56.5t117 -20.5q70 0 131 26.5t106 72t71 107t26 132.5zM24 338q0 -78 30 -143t83 -112l435 517q-43 36 -97.5 56.5t-116.5 20.5q-71 0 -132 -26.5t-106 -72.5t-70.5 -108t-25.5 -132z" />
    <glyph glyph-name="Eth.round" horiz-adv-x="630" 
d="M2 349h51v329h219q72 0 135 -26t109 -71.5t72.5 -108t26.5 -134.5t-26.5 -134t-72.5 -107.5t-109 -71t-135 -25.5h-219v341h-51v8zM62 670v-321h205v-8h-205v-333h210q70 0 131 25t106 69.5t71 104.5t26 131q0 70 -26 131t-71 105.5t-106 70t-131 25.5h-210z" />
    <glyph glyph-name="Dcroat.round" horiz-adv-x="630" 
d="M2 349h51v329h219q72 0 135 -26t109 -71.5t72.5 -108t26.5 -134.5t-26.5 -134t-72.5 -107.5t-109 -71t-135 -25.5h-219v341h-51v8zM62 670v-321h205v-8h-205v-333h210q70 0 131 25t106 69.5t71 104.5t26 131q0 70 -26 131t-71 105.5t-106 70t-131 25.5h-210z" />
    <glyph glyph-name="Cacute.round" horiz-adv-x="680" 
d="M432 765l-139 -67v8l139 68v-9zM668 257q-9 -57 -36 -106t-68.5 -84t-94.5 -55t-115 -20q-72 0 -134 27t-107.5 73.5t-71.5 110t-26 135.5t26 135.5t71.5 110.5t107.5 74t134 27q57 0 106 -17t88 -47t67 -72t42 -92h-10q-14 48 -41 88.5t-64.5 70t-85 45.5t-102.5 16
q-71 0 -131 -26.5t-104.5 -72.5t-69.5 -108t-25 -132q0 -71 25 -132.5t69.5 -107t104.5 -72t131 -26.5q60 0 111.5 20t91.5 54.5t66.5 81.5t35.5 101h9z" />
    <glyph glyph-name="Ccaron.round" horiz-adv-x="680" 
d="M429 786v-9l-75 -74h-6l-73 74v9l76 -74zM668 257q-9 -57 -36 -106t-68.5 -84t-94.5 -55t-115 -20q-72 0 -134 27t-107.5 73.5t-71.5 110t-26 135.5t26 135.5t71.5 110.5t107.5 74t134 27q57 0 106 -17t88 -47t67 -72t42 -92h-10q-14 48 -41 88.5t-64.5 70t-85 45.5
t-102.5 16q-71 0 -131 -26.5t-104.5 -72.5t-69.5 -108t-25 -132q0 -71 25 -132.5t69.5 -107t104.5 -72t131 -26.5q60 0 111.5 20t91.5 54.5t66.5 81.5t35.5 101h9z" />
    <glyph glyph-name="Ccedilla.round" horiz-adv-x="680" 
d="M668 257q-9 -57 -36 -106t-68.5 -84t-94.5 -55t-115 -20h-9q-3 0 -11 1v-22q23 0 36 -7.5t13 -23.5q0 -18 -20.5 -26t-55.5 -8v8q29 0 48 6t19 20q0 12 -11 17.5t-28 5.5h-9v30q-67 5 -124 34t-98.5 75t-65 106.5t-23.5 129.5q0 72 26 135.5t71.5 110.5t107.5 74t134 27
q57 0 106 -17t88 -47t67 -72t42 -92h-10q-14 48 -41 88.5t-64.5 70t-85 45.5t-102.5 16q-71 0 -131 -26.5t-104.5 -72.5t-69.5 -108t-25 -132q0 -71 25 -132.5t69.5 -107t104.5 -72t131 -26.5q60 0 111.5 20t91.5 54.5t66.5 81.5t35.5 101h9z" />
    <glyph glyph-name="Ccircumflex.round" horiz-adv-x="680" 
d="M275 700v9l75 74h6l73 -74v-9l-76 74zM668 257q-9 -57 -36 -106t-68.5 -84t-94.5 -55t-115 -20q-72 0 -134 27t-107.5 73.5t-71.5 110t-26 135.5t26 135.5t71.5 110.5t107.5 74t134 27q57 0 106 -17t88 -47t67 -72t42 -92h-10q-14 48 -41 88.5t-64.5 70t-85 45.5
t-102.5 16q-71 0 -131 -26.5t-104.5 -72.5t-69.5 -108t-25 -132q0 -71 25 -132.5t69.5 -107t104.5 -72t131 -26.5q60 0 111.5 20t91.5 54.5t66.5 81.5t35.5 101h9z" />
    <glyph glyph-name="Cdotaccent.round" horiz-adv-x="680" 
d="M668 257q-9 -57 -36 -106t-68.5 -84t-94.5 -55t-115 -20q-72 0 -134 27t-107.5 73.5t-71.5 110t-26 135.5t26 135.5t71.5 110.5t107.5 74t134 27q57 0 106 -17t88 -47t67 -72t42 -92h-10q-14 48 -41 88.5t-64.5 70t-85 45.5t-102.5 16q-71 0 -131 -26.5t-104.5 -72.5
t-69.5 -108t-25 -132q0 -71 25 -132.5t69.5 -107t104.5 -72t131 -26.5q60 0 111.5 20t91.5 54.5t66.5 81.5t35.5 101h9zM348 743h9v-20h-9v20z" />
    <glyph glyph-name="Dcaron.round" horiz-adv-x="610" 
d="M342 786v-9l-75 -74h-6l-73 74v9l76 -74zM252 678q72 0 135 -26t109 -71.5t72.5 -108t26.5 -134.5t-26.5 -134t-72.5 -107.5t-109 -71t-135 -25.5h-219v678h219zM42 670v-662h210q70 0 131 25t106 69.5t71 104.5t26 131q0 70 -26 131t-71 105.5t-106 70t-131 25.5h-210z
" />
    <glyph glyph-name="Gbreve.round" horiz-adv-x="709" 
d="M667 235q-10 -56 -35.5 -101t-64.5 -76.5t-91 -48.5t-114 -17q-77 0 -140.5 27t-109.5 73.5t-71.5 110t-25.5 135.5t26.5 135.5t72.5 110.5t109 74t135 27q110 0 190 -54.5t112 -153.5h-10q-31 93 -108.5 146.5t-183.5 53.5q-71 0 -132 -26.5t-106 -72.5t-70.5 -108
t-25.5 -132q0 -71 24.5 -132.5t69.5 -107t107 -72t137 -26.5q70 0 126.5 22.5t96 64t61 100t21.5 129.5h-254v8h263v-324h-9v235zM433 776q0 -34 -20.5 -53.5t-51.5 -19.5q-32 0 -53.5 19.5t-21.5 53.5h8q1 -31 19.5 -48t47.5 -17q28 0 45.5 17t18.5 48h8z" />
    <glyph glyph-name="Gcircumflex.round" horiz-adv-x="709" 
d="M282 700v9l75 74h6l73 -74v-9l-76 74zM667 235q-10 -56 -35.5 -101t-64.5 -76.5t-91 -48.5t-114 -17q-77 0 -140.5 27t-109.5 73.5t-71.5 110t-25.5 135.5t26.5 135.5t72.5 110.5t109 74t135 27q110 0 190 -54.5t112 -153.5h-10q-31 93 -108.5 146.5t-183.5 53.5
q-71 0 -132 -26.5t-106 -72.5t-70.5 -108t-25.5 -132q0 -71 24.5 -132.5t69.5 -107t107 -72t137 -26.5q70 0 126.5 22.5t96 64t61 100t21.5 129.5h-254v8h263v-324h-9v235z" />
    <glyph glyph-name="Gcommaaccent.round" horiz-adv-x="709" 
d="M365 -22l-14 -68h-8l13 69h9v-1zM667 235q-10 -56 -35.5 -101t-64.5 -76.5t-91 -48.5t-114 -17q-77 0 -140.5 27t-109.5 73.5t-71.5 110t-25.5 135.5t26.5 135.5t72.5 110.5t109 74t135 27q110 0 190 -54.5t112 -153.5h-10q-31 93 -108.5 146.5t-183.5 53.5
q-71 0 -132 -26.5t-106 -72.5t-70.5 -108t-25.5 -132q0 -71 24.5 -132.5t69.5 -107t107 -72t137 -26.5q70 0 126.5 22.5t96 64t61 100t21.5 129.5h-254v8h263v-324h-9v235z" />
    <glyph glyph-name="Gdotaccent.round" horiz-adv-x="709" 
d="M667 235q-10 -56 -35.5 -101t-64.5 -76.5t-91 -48.5t-114 -17q-77 0 -140.5 27t-109.5 73.5t-71.5 110t-25.5 135.5t26.5 135.5t72.5 110.5t109 74t135 27q110 0 190 -54.5t112 -153.5h-10q-31 93 -108.5 146.5t-183.5 53.5q-71 0 -132 -26.5t-106 -72.5t-70.5 -108
t-25.5 -132q0 -71 24.5 -132.5t69.5 -107t107 -72t137 -26.5q70 0 126.5 22.5t96 64t61 100t21.5 129.5h-254v8h263v-324h-9v235zM355 743h9v-20h-9v20z" />
    <glyph glyph-name="Oacute.round" horiz-adv-x="716" 
d="M438 765l-139 -67v8l139 68v-9zM15 338q0 72 26.5 135.5t72.5 110.5t109 74t135 27t135 -27t109 -74t72.5 -110.5t26.5 -135.5t-26.5 -135.5t-72.5 -110t-109 -73.5t-135 -27t-135 27t-109 73.5t-72.5 110t-26.5 135.5zM24 338q0 -71 25.5 -132.5t70.5 -107t106 -72
t132 -26.5q70 0 131 26.5t106 72t71 107t26 132.5q0 70 -26 132t-71 108t-106 72.5t-131 26.5q-71 0 -132 -26.5t-106 -72.5t-70.5 -108t-25.5 -132z" />
    <glyph glyph-name="Obreve.round" horiz-adv-x="716" 
d="M15 338q0 72 26.5 135.5t72.5 110.5t109 74t135 27t135 -27t109 -74t72.5 -110.5t26.5 -135.5t-26.5 -135.5t-72.5 -110t-109 -73.5t-135 -27t-135 27t-109 73.5t-72.5 110t-26.5 135.5zM24 338q0 -71 25.5 -132.5t70.5 -107t106 -72t132 -26.5q70 0 131 26.5t106 72
t71 107t26 132.5q0 70 -26 132t-71 108t-106 72.5t-131 26.5q-71 0 -132 -26.5t-106 -72.5t-70.5 -108t-25.5 -132zM431 776q0 -34 -20.5 -53.5t-51.5 -19.5q-32 0 -53.5 19.5t-21.5 53.5h8q1 -31 19.5 -48t47.5 -17q28 0 45.5 17t18.5 48h8z" />
    <glyph glyph-name="Ocircumflex.round" horiz-adv-x="716" 
d="M281 700v9l75 74h6l73 -74v-9l-76 74zM15 338q0 72 26.5 135.5t72.5 110.5t109 74t135 27t135 -27t109 -74t72.5 -110.5t26.5 -135.5t-26.5 -135.5t-72.5 -110t-109 -73.5t-135 -27t-135 27t-109 73.5t-72.5 110t-26.5 135.5zM24 338q0 -71 25.5 -132.5t70.5 -107
t106 -72t132 -26.5q70 0 131 26.5t106 72t71 107t26 132.5q0 70 -26 132t-71 108t-106 72.5t-131 26.5q-71 0 -132 -26.5t-106 -72.5t-70.5 -108t-25.5 -132z" />
    <glyph glyph-name="Odieresis.round" horiz-adv-x="716" 
d="M324 743h9v-20h-9v20zM384 743h9v-20h-9v20zM15 338q0 72 26.5 135.5t72.5 110.5t109 74t135 27t135 -27t109 -74t72.5 -110.5t26.5 -135.5t-26.5 -135.5t-72.5 -110t-109 -73.5t-135 -27t-135 27t-109 73.5t-72.5 110t-26.5 135.5zM24 338q0 -71 25.5 -132.5t70.5 -107
t106 -72t132 -26.5q70 0 131 26.5t106 72t71 107t26 132.5q0 70 -26 132t-71 108t-106 72.5t-131 26.5q-71 0 -132 -26.5t-106 -72.5t-70.5 -108t-25.5 -132z" />
    <glyph glyph-name="Ograve.round" horiz-adv-x="716" 
d="M15 338q0 72 26.5 135.5t72.5 110.5t109 74t135 27t135 -27t109 -74t72.5 -110.5t26.5 -135.5t-26.5 -135.5t-72.5 -110t-109 -73.5t-135 -27t-135 27t-109 73.5t-72.5 110t-26.5 135.5zM24 338q0 -71 25.5 -132.5t70.5 -107t106 -72t132 -26.5q70 0 131 26.5t106 72
t71 107t26 132.5q0 70 -26 132t-71 108t-106 72.5t-131 26.5q-71 0 -132 -26.5t-106 -72.5t-70.5 -108t-25.5 -132zM284 774l139 -68v-8l-139 67v9z" />
    <glyph glyph-name="Ohungarumlaut.round" horiz-adv-x="716" 
d="M15 338q0 72 26.5 135.5t72.5 110.5t109 74t135 27t135 -27t109 -74t72.5 -110.5t26.5 -135.5t-26.5 -135.5t-72.5 -110t-109 -73.5t-135 -27t-135 27t-109 73.5t-72.5 110t-26.5 135.5zM24 338q0 -71 25.5 -132.5t70.5 -107t106 -72t132 -26.5q70 0 131 26.5t106 72
t71 107t26 132.5q0 70 -26 132t-71 108t-106 72.5t-131 26.5q-71 0 -132 -26.5t-106 -72.5t-70.5 -108t-25.5 -132zM376 783l-46 -83h-9l45 83h10zM436 783l-46 -83h-9l45 83h10z" />
    <glyph glyph-name="Omacron.round" horiz-adv-x="716" 
d="M15 338q0 72 26.5 135.5t72.5 110.5t109 74t135 27t135 -27t109 -74t72.5 -110.5t26.5 -135.5t-26.5 -135.5t-72.5 -110t-109 -73.5t-135 -27t-135 27t-109 73.5t-72.5 110t-26.5 135.5zM24 338q0 -71 25.5 -132.5t70.5 -107t106 -72t132 -26.5q70 0 131 26.5t106 72
t71 107t26 132.5q0 70 -26 132t-71 108t-106 72.5t-131 26.5q-71 0 -132 -26.5t-106 -72.5t-70.5 -108t-25.5 -132zM290 731h136v-8h-136v8z" />
    <glyph glyph-name="Otilde.round" horiz-adv-x="716" 
d="M15 338q0 72 26.5 135.5t72.5 110.5t109 74t135 27t135 -27t109 -74t72.5 -110.5t26.5 -135.5t-26.5 -135.5t-72.5 -110t-109 -73.5t-135 -27t-135 27t-109 73.5t-72.5 110t-26.5 135.5zM24 338q0 -71 25.5 -132.5t70.5 -107t106 -72t132 -26.5q70 0 131 26.5t106 72
t71 107t26 132.5q0 70 -26 132t-71 108t-106 72.5t-131 26.5q-71 0 -132 -26.5t-106 -72.5t-70.5 -108t-25.5 -132zM321 765q11 0 20.5 -5t18.5 -11t17.5 -11t18.5 -5q17 0 24 11.5t9 25.5h8q-1 -19 -11.5 -32t-29.5 -13q-11 0 -20.5 5t-18.5 11t-17.5 11t-18.5 5
q-17 0 -24 -11.5t-9 -25.5h-8q1 19 11.5 32t29.5 13z" />
    <glyph glyph-name="zero.round" horiz-adv-x="716" 
d="M15 338q0 72 26.5 135.5t72.5 110.5t109 74t135 27t135 -27t109 -74t72.5 -110.5t26.5 -135.5t-26.5 -135.5t-72.5 -110t-109 -73.5t-135 -27t-135 27t-109 73.5t-72.5 110t-26.5 135.5zM24 338q0 -71 25.5 -132.5t70.5 -107t106 -72t132 -26.5q70 0 131 26.5t106 72
t71 107t26 132.5q0 70 -26 132t-71 108t-106 72.5t-131 26.5q-71 0 -132 -26.5t-106 -72.5t-70.5 -108t-25.5 -132z" />
    <glyph glyph-name="G.altround" horiz-adv-x="697" 
d="M420 329h262v-5q0 -74 -23 -135t-65 -104.5t-102 -68t-134 -24.5q-72 0 -135 27t-109 73.5t-72.5 110t-26.5 135.5t26.5 135.5t72.5 110.5t109 74t135 27q110 0 190 -54.5t112 -153.5h-10q-31 93 -108.5 146.5t-183.5 53.5q-71 0 -132 -26.5t-106 -72.5t-70.5 -108
t-25.5 -132q0 -71 25.5 -132.5t70.5 -107t106 -72t132 -26.5q72 0 130 23.5t99 66t63 101.5t23 130h-253v8z" />
    <glyph glyph-name="Q.altround" horiz-adv-x="716" 
d="M546 47q-40 -26 -88 -40.5t-100 -14.5q-72 0 -135 27t-109 73.5t-72.5 110t-26.5 135.5t26.5 135.5t72.5 110.5t109 74t135 27t135 -27t109 -74t72.5 -110.5t26.5 -135.5q0 -91 -40 -165t-108 -121l90 -97v-1h-11zM24 338q0 -71 25.5 -132.5t70.5 -107t106 -72t132 -26.5
q51 0 97 13.5t85 39.5l-87 93v1h11l83 -89q66 45 105.5 118.5t39.5 161.5q0 70 -26 132t-71 108t-106 72.5t-131 26.5q-71 0 -132 -26.5t-106 -72.5t-70.5 -108t-25.5 -132z" />
    <glyph glyph-name="Gbreve.altround" horiz-adv-x="697" 
d="M420 329h262v-5q0 -74 -23 -135t-65 -104.5t-102 -68t-134 -24.5q-72 0 -135 27t-109 73.5t-72.5 110t-26.5 135.5t26.5 135.5t72.5 110.5t109 74t135 27q110 0 190 -54.5t112 -153.5h-10q-31 93 -108.5 146.5t-183.5 53.5q-71 0 -132 -26.5t-106 -72.5t-70.5 -108
t-25.5 -132q0 -71 25.5 -132.5t70.5 -107t106 -72t132 -26.5q72 0 130 23.5t99 66t63 101.5t23 130h-253v8zM429 776q0 -34 -20.5 -53.5t-51.5 -19.5q-32 0 -53.5 19.5t-21.5 53.5h8q1 -31 19.5 -48t47.5 -17q28 0 45.5 17t18.5 48h8z" />
    <glyph glyph-name="Gcircumflex.altround" horiz-adv-x="697" 
d="M278 700v9l75 74h6l73 -74v-9l-76 74zM420 329h262v-5q0 -74 -23 -135t-65 -104.5t-102 -68t-134 -24.5q-72 0 -135 27t-109 73.5t-72.5 110t-26.5 135.5t26.5 135.5t72.5 110.5t109 74t135 27q110 0 190 -54.5t112 -153.5h-10q-31 93 -108.5 146.5t-183.5 53.5
q-71 0 -132 -26.5t-106 -72.5t-70.5 -108t-25.5 -132q0 -71 25.5 -132.5t70.5 -107t106 -72t132 -26.5q72 0 130 23.5t99 66t63 101.5t23 130h-253v8z" />
    <glyph glyph-name="Gcommaaccent.altround" horiz-adv-x="697" 
d="M361 -22l-14 -68h-8l13 69h9v-1zM420 329h262v-5q0 -74 -23 -135t-65 -104.5t-102 -68t-134 -24.5q-72 0 -135 27t-109 73.5t-72.5 110t-26.5 135.5t26.5 135.5t72.5 110.5t109 74t135 27q110 0 190 -54.5t112 -153.5h-10q-31 93 -108.5 146.5t-183.5 53.5
q-71 0 -132 -26.5t-106 -72.5t-70.5 -108t-25.5 -132q0 -71 25.5 -132.5t70.5 -107t106 -72t132 -26.5q72 0 130 23.5t99 66t63 101.5t23 130h-253v8z" />
    <glyph glyph-name="Gdotaccent.altround" horiz-adv-x="697" 
d="M420 329h262v-5q0 -74 -23 -135t-65 -104.5t-102 -68t-134 -24.5q-72 0 -135 27t-109 73.5t-72.5 110t-26.5 135.5t26.5 135.5t72.5 110.5t109 74t135 27q110 0 190 -54.5t112 -153.5h-10q-31 93 -108.5 146.5t-183.5 53.5q-71 0 -132 -26.5t-106 -72.5t-70.5 -108
t-25.5 -132q0 -71 25.5 -132.5t70.5 -107t106 -72t132 -26.5q72 0 130 23.5t99 66t63 101.5t23 130h-253v8zM351 743h9v-20h-9v20z" />
    <glyph glyph-name="f.short" horiz-adv-x="159" 
d="M12 567h46v43q0 36 16 52t54 16h23v-8h-23q-33 0 -47 -13.5t-14 -46.5v-43h84v-8h-84v-559h-9v559h-46v8z" />
    <glyph glyph-name="f_f.short" horiz-adv-x="303" 
d="M12 567h46v43q0 36 16 52t54 16h23v-8h-23q-33 0 -47 -13.5t-14 -46.5v-43h135v43q0 36 16 52t54 16h23v-8h-23q-33 0 -47 -13.5t-14 -46.5v-43h84v-8h-84v-559h-9v559h-135v-559h-9v559h-46v8z" />
    <glyph glyph-name="i.low" horiz-adv-x="75" 
d="M33 567h9v-567h-9v567zM33 638h9v-20h-9v20z" />
    <glyph glyph-name="j.low" horiz-adv-x="75" 
d="M42 567v-604q0 -26 -12 -39.5t-40 -13.5h-6v8h6q23 0 33 11t10 34v604h9zM33 638h9v-20h-9v20z" />
    </font>
</defs>
</svg>
