<?xml version="1.0" standalone="no"?>
<!DOCTYPE svg PUBLIC "-//W3C//DTD SVG 1.1//EN" "http://www.w3.org/Graphics/SVG/1.1/DTD/svg11.dtd" >
<svg xmlns="http://www.w3.org/2000/svg" xmlns:xlink="http://www.w3.org/1999/xlink" version="1.1">
<metadata>
Created by FontForge 20170731 at Fri Oct  9 19:53:30 2015
 By Aleksey,,,
(c)2009 Commercial Type.
</metadata>
<defs>
<font id="KPMG-Extralight" horiz-adv-x="89" >
  <font-face 
    font-family="KPMG Extralight"
    font-weight="275"
    font-stretch="normal"
    units-per-em="1000"
    panose-1="2 11 3 3 3 2 2 4 2 4"
    ascent="880"
    descent="-120"
    x-height="567"
    cap-height="678"
    bbox="-102 -95 701 812"
    underline-thickness="50"
    underline-position="-150"
    unicode-range="U+000D-FB00"
  />
<missing-glyph horiz-adv-x="625" 
 />
    <glyph glyph-name="f_f" unicode="ff" horiz-adv-x="333" 
d="M12 567h45v39q0 38 17 55t59 17h30v-20h-27q-29 0 -41 -12t-12 -41v-38h128v39q0 38 17 55t58 17h35v-20h-32q-29 0 -41 -12t-12 -41v-38h85v-20h-85v-547h-25v547h-128v-547h-26v547h-45v20z" />
    <glyph glyph-name=".notdef" horiz-adv-x="625" 
 />
    <glyph glyph-name=".null" horiz-adv-x="0" 
 />
    <glyph glyph-name="nonmarkingreturn" unicode="&#xd;" horiz-adv-x="132" 
 />
    <glyph glyph-name="NULL" horiz-adv-x="0" 
 />
    <glyph glyph-name="NULL" horiz-adv-x="0" 
 />
    <glyph glyph-name="space" unicode=" " horiz-adv-x="132" 
 />
    <glyph glyph-name="exclam" unicode="!" horiz-adv-x="96" 
d="M35 36h26v-36h-26v36zM34 678h28l-5 -581h-18z" />
    <glyph glyph-name="quotedbl" unicode="&#x22;" horiz-adv-x="141" 
d="M51 577h-18l-4 101h25zM108 577h-18l-3 101h25z" />
    <glyph glyph-name="numbersign" unicode="#" horiz-adv-x="298" 
d="M182 248h-86l-26 -248h-22l26 248h-56v23h58l17 162h-57v23h60l23 222h22l-23 -222h86l23 222h21l-23 -222h55v-23h-58l-17 -162h57v-23h-59l-26 -248h-21zM98 271h86l17 162h-86z" />
    <glyph glyph-name="dollar" unicode="$" horiz-adv-x="318" 
d="M170 681q57 -3 85.5 -32t28.5 -88v-84h-24v85q0 48 -23 71.5t-67 26.5v-297l34 -34q22 -22 39 -40.5t28.5 -37.5t17 -39.5t5.5 -46.5v-40q0 -26 -7.5 -49t-23.5 -40.5t-39.5 -28t-54.5 -11.5v-46h-21v47q-61 3 -92 38t-31 90v112h25v-112q0 -47 25 -75.5t73 -32.5v333
l-27 26q-24 23 -41 41.5t-28.5 37t-17 38t-5.5 44.5v27q0 55 32.5 85.5t87.5 32.5v36h21v-37zM169 329v-312q50 2 74.5 33t24.5 74v39q0 22 -4.5 40t-14 35t-24.5 34.5t-36 37.5zM53 537q0 -42 22 -72.5t62 -68.5l12 -12v277q-42 -2 -69 -27t-27 -70v-27z" />
    <glyph glyph-name="percent" unicode="%" horiz-adv-x="420" 
d="M364 678h22l-330 -678h-23zM300 -4q-54 0 -77 32t-23 88v49q0 56 23 88t77 32t76.5 -32t22.5 -88v-49q0 -56 -22.5 -88t-76.5 -32zM300 17q43 0 58.5 26t15.5 71v53q0 45 -15.5 71t-58.5 26t-59 -26t-16 -71v-53q0 -45 16 -71t59 -26zM121 393q-54 0 -77 32t-23 88v49
q0 56 23 88t77 32t76.5 -32t22.5 -88v-49q0 -56 -22.5 -88t-76.5 -32zM121 414q42 0 58 26t16 71v53q0 45 -16 71t-58 26q-44 0 -59.5 -26t-15.5 -71v-53q0 -45 15.5 -71t59.5 -26z" />
    <glyph glyph-name="ampersand" unicode="&#x26;" horiz-adv-x="355" 
d="M155 -5q-68 0 -97 38t-29 109v102q0 55 25 82.5t62 35.5q-34 9 -54.5 35.5t-20.5 75.5v71q0 72 32 105.5t92 33.5q63 0 91.5 -29.5t28.5 -101.5v-62h-26v63q0 60 -22.5 84t-70.5 24q-47 0 -73 -26.5t-26 -90.5v-74q0 -45 23 -71t74 -26h177v-23h-46v-350h-24v68
q-9 -32 -36.5 -52.5t-79.5 -20.5zM160 17q60 0 84 33t26 83v217h-108q-51 0 -79 -26.5t-28 -77.5v-104q0 -61 24 -93t81 -32z" />
    <glyph glyph-name="quotesingle" unicode="'" horiz-adv-x="84" 
d="M51 577h-18l-4 101h25z" />
    <glyph glyph-name="parenleft" unicode="(" horiz-adv-x="170" 
d="M39 529q0 44 8 74t23 49.5t35.5 30t44.5 15.5v-21q-43 -11 -65.5 -42.5t-22.5 -105.5v-451q0 -37 5.5 -62.5t17 -42.5t28 -26.5t37.5 -15.5v-21q-24 5 -44.5 15.5t-35.5 30t-23 49t-8 73.5v451z" />
    <glyph glyph-name="parenright" unicode=")" horiz-adv-x="170" 
d="M131 78q0 -44 -8 -73.5t-23 -49t-35.5 -30t-44.5 -15.5v21q21 6 37.5 15.5t28 26.5t17 42.5t5.5 62.5v451q0 74 -22.5 105.5t-65.5 42.5v21q24 -5 44.5 -15.5t35.5 -30t23 -49.5t8 -74v-451z" />
    <glyph glyph-name="asterisk" unicode="*" horiz-adv-x="201" 
d="M101 580l-39 -62l-20 14l48 57l-72 19l7 22l69 -29l-5 77h24l-6 -77l69 29l7 -22l-72 -19l48 -57l-19 -14z" />
    <glyph glyph-name="plus" unicode="+" horiz-adv-x="341" 
d="M24 346h135v153h23v-153h135v-22h-135v-153h-23v153h-135v22z" />
    <glyph glyph-name="comma" unicode="," horiz-adv-x="96" 
d="M64 34l-23 -110h-19l15 112h27v-2z" />
    <glyph glyph-name="hyphen" unicode="-" horiz-adv-x="160" 
d="M19 326h122v-22h-122v22z" />
    <glyph glyph-name="period" unicode="." horiz-adv-x="96" 
d="M35 36h26v-36h-26v36z" />
    <glyph glyph-name="slash" unicode="/" horiz-adv-x="180" 
d="M170 698l-145 -788h-23l145 788h23z" />
    <glyph glyph-name="zero" unicode="0" horiz-adv-x="344" 
d="M172 17q30 0 52 10.5t36.5 29t21.5 42.5t7 51v378q0 27 -7 51.5t-21.5 42.5t-36.5 28.5t-52 10.5t-52 -10.5t-36 -28.5t-21 -42.5t-7 -51.5v-378q0 -27 7 -51t21 -42.5t36 -29t52 -10.5zM172 -5q-37 0 -64 12.5t-44.5 34t-26 50.5t-8.5 61v372q0 33 8.5 61.5t26 50
t44.5 34t64 12.5t64 -12.5t44.5 -34t26 -50t8.5 -61.5v-372q0 -32 -8.5 -61t-26 -50.5t-44.5 -34t-64 -12.5z" />
    <glyph glyph-name="one" unicode="1" horiz-adv-x="175" 
d="M96 636h-1l-79 -95h-1v30l87 107h20v-678h-26v636z" />
    <glyph glyph-name="two" unicode="2" horiz-adv-x="315" 
d="M28 102q0 29 5 50.5t15.5 40t25.5 37.5t36 42l76 84q32 35 52 70t20 71v61q0 56 -27 79.5t-72 23.5t-73.5 -26.5t-28.5 -84.5v-76h-26v76q0 67 34.5 100t93.5 33q60 0 93 -29.5t33 -95.5v-63q0 -39 -22 -76t-57 -77l-79 -88q-18 -21 -32 -37t-23 -32.5t-13.5 -36
t-4.5 -46.5v-80h232v-22h-258v102z" />
    <glyph glyph-name="three" unicode="3" horiz-adv-x="329" 
d="M168 683q62 0 93.5 -32.5t31.5 -103.5v-77q0 -48 -23.5 -73.5t-58.5 -34.5q38 -8 63.5 -35.5t25.5 -82.5v-110q0 -66 -31 -102.5t-104 -36.5q-72 0 -105 34.5t-33 103.5v88h26v-89q0 -60 27.5 -87.5t84.5 -27.5q58 0 83.5 30t25.5 87v111q0 51 -27.5 78t-78.5 27h-38v22
h37q50 0 75.5 25.5t25.5 71.5v78q0 63 -26.5 88.5t-74.5 25.5q-51 0 -79 -27.5t-28 -78.5v-68h-25v67q0 62 34.5 95.5t98.5 33.5z" />
    <glyph glyph-name="four" unicode="4" horiz-adv-x="327" 
d="M9 174l216 504h30v-500h54v-21h-54v-157h-26v157h-220v17zM34 178h195v452h-1z" />
    <glyph glyph-name="five" unicode="5" horiz-adv-x="326" 
d="M169 450q24 0 47 -6.5t41 -23t29 -44.5t11 -71v-165q0 -69 -30 -107t-104 -38q-69 0 -102.5 37t-33.5 106v81h26v-83q0 -62 28 -90.5t82 -28.5q60 0 83.5 32.5t23.5 90.5v165q0 37 -9.5 61t-24.5 37.5t-34.5 18.5t-39.5 5q-18 0 -37 -6t-34.5 -19t-25 -34.5t-9.5 -51.5
v-11h-24v373h252v-22h-229v-279h1q14 36 44.5 54.5t68.5 18.5z" />
    <glyph glyph-name="six" unicode="6" horiz-adv-x="334" 
d="M168 -5q-66 0 -102.5 40.5t-36.5 119.5v373q0 80 39.5 117.5t99.5 37.5t94 -33.5t34 -109.5v-49h-25v51q0 63 -27 91t-75 28q-49 0 -81 -31t-32 -99v-186h1q11 32 40.5 56t77.5 24q63 0 97.5 -36t34.5 -116v-125q0 -79 -36 -116t-103 -37zM168 17q54 0 83.5 30t29.5 99
v128q0 69 -28.5 99t-82.5 30q-22 0 -42.5 -8t-36.5 -24t-25.5 -40t-9.5 -56v-124q0 -67 30 -100.5t82 -33.5z" />
    <glyph glyph-name="seven" unicode="7" horiz-adv-x="284" 
d="M15 678h246v-66l-164 -612h-26l165 616v40h-221v22z" />
    <glyph glyph-name="eight" unicode="8" horiz-adv-x="341" 
d="M170 -5q-75 0 -109 42t-34 106v95q0 51 22 88t72 50q-45 13 -61.5 47.5t-16.5 82.5v38q0 63 30 101t97 38q68 0 98.5 -38t30.5 -101v-38q0 -48 -17.5 -82.5t-62.5 -47.5q49 -13 72 -50t23 -88v-95q0 -64 -34.5 -106t-109.5 -42zM170 17q31 0 53 9.5t36 26.5t21 39.5
t7 49.5v99q0 53 -28 88.5t-89 35.5t-88.5 -35t-27.5 -89v-99q0 -53 27.5 -89t88.5 -36zM170 387q30 0 50 9t32 25t16.5 37.5t4.5 46.5v39q0 54 -24 85.5t-79 31.5t-78.5 -31.5t-23.5 -85.5v-39q0 -25 4.5 -46.5t16.5 -37.5t31.5 -25t49.5 -9z" />
    <glyph glyph-name="nine" unicode="9" horiz-adv-x="334" 
d="M166 683q66 0 102.5 -40.5t36.5 -119.5v-376q0 -41 -10 -70t-28.5 -47t-44 -26.5t-55.5 -8.5q-60 0 -95.5 33.5t-35.5 109.5v49h25v-51q0 -63 28.5 -91t77.5 -28q24 0 44.5 6.5t35.5 21.5t23.5 39.5t8.5 60.5v188h-1q-12 -31 -41.5 -55.5t-78.5 -24.5q-62 0 -96.5 36
t-34.5 116v125q0 79 36.5 116t102.5 37zM166 661q-53 0 -83 -30t-30 -100v-127q0 -69 28.5 -99t82.5 -30q22 0 43 8t37 24t25.5 40t9.5 56v123q0 68 -30 101.5t-83 33.5z" />
    <glyph glyph-name="colon" unicode=":" horiz-adv-x="96" 
d="M35 36h26v-36h-26v36zM35 310h26v-36h-26v36z" />
    <glyph glyph-name="semicolon" unicode=";" horiz-adv-x="96" 
d="M37 36h27v-2l-23 -110h-19zM38 310h26v-36h-26v36z" />
    <glyph glyph-name="less" unicode="&#x3c;" horiz-adv-x="307" 
d="M13 335l273 134v-23l-241 -116l241 -116v-24l-273 134v11z" />
    <glyph glyph-name="equal" unicode="=" horiz-adv-x="354" 
d="M24 290h306v-20h-306v20zM24 382h306v-20h-306v20z" />
    <glyph glyph-name="greater" unicode="&#x3e;" horiz-adv-x="307" 
d="M21 190v24l241 116l-241 116v23l273 -134v-11z" />
    <glyph glyph-name="question" unicode="?" horiz-adv-x="301" 
d="M120 97v102q0 25 2 41.5t7.5 30t14 27t20.5 31.5l44 64q21 32 29.5 54.5t8.5 52.5v49q0 58 -23 85t-71 27t-75 -25.5t-27 -80.5v-73h-25v73q0 66 33.5 97t93.5 31t90 -33t30 -102v-49q0 -35 -10.5 -60.5t-33.5 -58.5l-43 -64q-11 -16 -18.5 -28t-12.5 -24.5t-7 -27.5
t-2 -37v-102h-25zM119 36h27v-36h-27v36z" />
    <glyph glyph-name="at" unicode="@" horiz-adv-x="494" 
d="M394 35q-32 0 -46.5 15.5t-16.5 44.5h-1q-12 -27 -32.5 -43.5t-57.5 -16.5q-44 0 -72.5 27t-28.5 89v275q0 63 29.5 90.5t73.5 27.5q37 0 56 -15t30 -39h1v50h23v-433q0 -31 11 -42.5t33 -11.5q19 0 31 13t12 46v379q0 46 -14 79t-39 54t-60 31t-77 10q-41 0 -76.5 -11
t-61.5 -34t-41 -57.5t-15 -81.5v-356q0 -93 50 -145.5t151 -52.5h153v-17h-153q-110 0 -165.5 57.5t-55.5 157.5v356q0 50 17 88t46.5 63t68 37.5t82.5 12.5q45 0 83.5 -11t66 -34.5t43.5 -59.5t16 -86v-378q0 -78 -64 -78zM164 151q0 -49 21.5 -72.5t59.5 -23.5
q34 0 58 22.5t24 71.5v280q0 51 -23.5 73t-56.5 22q-38 0 -60.5 -23.5t-22.5 -74.5v-275z" />
    <glyph glyph-name="A" unicode="A" horiz-adv-x="335" 
d="M11 0l138 678h35l140 -678h-27l-39 188h-183l-38 -188h-26zM79 211h175l-87 430h-1z" />
    <glyph glyph-name="B" unicode="B" horiz-adv-x="311" 
d="M32 678h113q64 0 95 -29.5t31 -86.5v-105q0 -85 -73 -103q45 -6 68 -33.5t23 -73.5v-131q0 -57 -31.5 -86.5t-95.5 -29.5h-130v678zM160 22q103 0 103 94v132q0 46 -25 69.5t-80 23.5h-100v-319h102zM58 656v-294h89q98 0 98 94v106q0 94 -102 94h-85z" />
    <glyph glyph-name="C" unicode="C" horiz-adv-x="330" 
d="M171 -5q-39 0 -66 13t-44 35.5t-24.5 51.5t-7.5 62v364q0 33 7.5 62.5t24.5 51.5t44 35t66 13q40 0 65.5 -10.5t40.5 -30t21 -47t6 -61.5v-80h-26v82q0 29 -4.5 52t-16.5 39.5t-32.5 25t-53.5 8.5q-32 0 -53.5 -11t-35.5 -30t-20 -43.5t-6 -52.5v-370q0 -27 6 -52t20 -44
t35.5 -30t53.5 -11q33 0 53.5 9.5t32.5 26.5t16.5 40t4.5 50v117h26v-116q0 -32 -6 -59t-21 -47t-40.5 -31.5t-65.5 -11.5z" />
    <glyph glyph-name="D" unicode="D" horiz-adv-x="337" 
d="M58 22h95q35 0 59.5 11t39.5 29.5t22 43.5t7 52v362q0 28 -7 52.5t-22 43t-39.5 29.5t-59.5 11h-95v-634zM155 678q41 0 70 -13t47 -35t26.5 -51t8.5 -62v-356q0 -32 -8.5 -61.5t-26.5 -51.5t-47 -35t-70 -13h-123v678h123z" />
    <glyph glyph-name="E" unicode="E" horiz-adv-x="293" 
d="M32 678h236v-22h-210v-300h153v-22h-153v-312h210v-22h-236v678z" />
    <glyph glyph-name="F" unicode="F" horiz-adv-x="275" 
d="M32 678h228v-22h-202v-300h153v-22h-153v-334h-26v678z" />
    <glyph glyph-name="G" unicode="G" horiz-adv-x="340" 
d="M181 334h125v-334h-23v70q-9 -32 -36 -53.5t-78 -21.5q-38 0 -64.5 13t-43.5 35.5t-24.5 51.5t-7.5 62v364q0 33 8 62.5t25 51.5t44 35t65 13q40 0 66 -10.5t41.5 -30t21.5 -47t6 -61.5v-60h-25v62q0 29 -5 52t-17 39.5t-33 25t-54 8.5q-32 0 -54 -11t-35.5 -30
t-20 -43.5t-6.5 -52.5v-370q0 -27 6 -52t20 -44t35.5 -30t53.5 -11q31 0 51.5 9t33 25t18 37.5t6.5 47.5v176h-99v22z" />
    <glyph glyph-name="H" unicode="H" horiz-adv-x="331" 
d="M273 334h-215v-334h-26v678h26v-322h215v322h27v-678h-27v334z" />
    <glyph glyph-name="I" unicode="I" 
d="M32 678h26v-678h-26v678z" />
    <glyph glyph-name="J" unicode="J" horiz-adv-x="287" 
d="M258 678v-554q0 -60 -28.5 -94.5t-90.5 -34.5q-63 0 -90 34.5t-27 92.5v138h26v-138q0 -48 21.5 -76.5t69.5 -28.5q49 0 70.5 28.5t21.5 76.5v556h27z" />
    <glyph glyph-name="K" unicode="K" horiz-adv-x="305" 
d="M58 341v-341h-26v678h26v-328l212 328h28l-214 -330l215 -348h-28z" />
    <glyph glyph-name="L" unicode="L" horiz-adv-x="258" 
d="M32 678h26v-656h188v-22h-214v678z" />
    <glyph glyph-name="M" unicode="M" horiz-adv-x="414" 
d="M356 631h-4l-137 -631h-19l-137 631h-4v-631h-23v678h41l132 -608h1l132 608h45v-678h-27v631z" />
    <glyph glyph-name="N" unicode="N" horiz-adv-x="326" 
d="M55 625v-625h-23v678h31l208 -612v612h24v-678h-28z" />
    <glyph glyph-name="O" unicode="O" horiz-adv-x="349" 
d="M174 17q31 0 54 11t37 30t21 44t7 52v370q0 28 -7 52.5t-21 43.5t-37 30t-54 11t-53.5 -11t-36.5 -30t-21 -43.5t-7 -52.5v-370q0 -27 7 -52t21 -44t36.5 -30t53.5 -11zM174 -5q-38 0 -65.5 13t-45 35.5t-26 51.5t-8.5 62v364q0 33 8.5 62.5t26 51.5t45 35t65.5 13
q39 0 66.5 -13t45 -35t26 -51.5t8.5 -62.5v-364q0 -33 -8.5 -62t-26 -51.5t-45 -35.5t-66.5 -13z" />
    <glyph glyph-name="P" unicode="P" horiz-adv-x="300" 
d="M32 678h118q64 0 95 -30t31 -86v-190q0 -56 -31 -86.5t-95 -30.5h-92v-255h-26v678zM58 656v-379h90q51 0 76.5 24t25.5 69v192q0 94 -102 94h-90z" />
    <glyph glyph-name="Q" unicode="Q" horiz-adv-x="349" 
d="M152 -16v13q-32 4 -55.5 18t-38.5 35.5t-22 49t-7 57.5v364q0 33 8.5 62.5t26 51.5t45 35t65.5 13q39 0 66.5 -13t45 -35t26 -51.5t8.5 -62.5v-364q0 -31 -7.5 -58.5t-23 -49t-39.5 -35.5t-57 -17l136 -31v-22zM174 17q31 0 54 11t37 29.5t21 43.5t7 52v371q0 28 -7 52.5
t-21 43.5t-37 30t-54 11t-53.5 -11t-36.5 -30t-21 -43.5t-7 -52.5v-371q0 -27 7 -52t21 -43.5t36.5 -29.5t53.5 -11z" />
    <glyph glyph-name="R" unicode="R" horiz-adv-x="303" 
d="M58 343v-343h-26v678h117q65 0 96 -30t31 -86v-112q0 -56 -31 -86.5t-97 -30.5h-56l206 -333h-29zM58 656v-301h89q102 0 102 94v113q0 94 -102 94h-89z" />
    <glyph glyph-name="S" unicode="S" horiz-adv-x="317" 
d="M161 -5q-68 0 -102.5 36t-34.5 94v112h25v-112q0 -50 28.5 -79t83.5 -29q53 0 79.5 31.5t26.5 75.5v39q0 22 -4.5 40t-14 35t-25 34t-36.5 37l-67 66q-24 23 -41 42t-28.5 37.5t-17 38t-5.5 44.5v27q0 57 34.5 88t91.5 31q128 0 128 -122v-84h-24v85q0 51 -26.5 75
t-77.5 24q-45 0 -73.5 -25t-28.5 -72v-27q0 -42 21.5 -72t61.5 -68l68 -66q22 -22 39 -41t28.5 -38t17 -40t5.5 -47v-40q0 -27 -8 -50.5t-24.5 -41t-41.5 -28t-58 -10.5z" />
    <glyph glyph-name="T" unicode="T" horiz-adv-x="294" 
d="M14 678h266v-22h-120v-656h-26v656h-120v22z" />
    <glyph glyph-name="U" unicode="U" horiz-adv-x="334" 
d="M304 678v-530q0 -32 -7 -60t-23 -48.5t-42.5 -32.5t-64.5 -12t-64.5 12t-42.5 32.5t-23 48.5t-7 60v530h26v-532q0 -27 5.5 -50.5t18.5 -41t34.5 -27.5t52.5 -10t52.5 10t35 27.5t19 41t5.5 50.5v532h25z" />
    <glyph glyph-name="V" unicode="V" horiz-adv-x="325" 
d="M314 678l-134 -678h-33l-136 678h27l126 -635h1l123 635h26z" />
    <glyph glyph-name="W" unicode="W" horiz-adv-x="481" 
d="M240 603l-99 -603h-31l-96 678h26l87 -623h1l101 623h25l101 -622h1l86 622h25l-95 -678h-32l-99 603h-1z" />
    <glyph glyph-name="X" unicode="X" horiz-adv-x="324" 
d="M143 359l-115 319h27l107 -297l106 297h27l-116 -321l130 -357h-28l-121 334l-118 -334h-27z" />
    <glyph glyph-name="Y" unicode="Y" horiz-adv-x="302" 
d="M165 258v-258h-26v258l-130 420h27l116 -381h1l114 381h26z" />
    <glyph glyph-name="Z" unicode="Z" horiz-adv-x="295" 
d="M46 22h222v-22h-250v22l230 634h-209v22h238v-22z" />
    <glyph glyph-name="bracketleft" unicode="[" horiz-adv-x="163" 
d="M41 698h102v-20h-78v-748h78v-20h-102v788z" />
    <glyph glyph-name="backslash" unicode="\" horiz-adv-x="180" 
d="M10 698h23l145 -788h-23z" />
    <glyph glyph-name="bracketright" unicode="]" horiz-adv-x="163" 
d="M20 -70h78v748h-78v20h101v-788h-101v20z" />
    <glyph glyph-name="asciicircum" unicode="^" horiz-adv-x="236" 
d="M112 678h12l92 -173h-24l-74 140l-74 -140h-24z" />
    <glyph glyph-name="underscore" unicode="_" horiz-adv-x="241" 
d="M-2 -70h245v-20h-245v20z" />
    <glyph glyph-name="grave" unicode="`" horiz-adv-x="400" 
d="M127 673l145 -61v-19l-145 59v21z" />
    <glyph glyph-name="a" unicode="a" horiz-adv-x="301" 
d="M247 0v64h-1q-11 -28 -38 -48.5t-70 -20.5q-54 0 -84 30.5t-30 98.5v48q0 33 8 54.5t23 36.5t36.5 26.5t47.5 23.5q61 27 84.5 45.5t23.5 38.5v46q0 49 -18.5 78t-68.5 29q-48 0 -72.5 -25.5t-24.5 -73.5v-53h-25v52q0 57 31.5 89.5t91.5 32.5q62 0 87 -34t25 -97v-441
h-26zM143 17q21 0 39.5 6.5t33 20t23 34t8.5 47.5v231q-4 -5 -9.5 -11t-17 -13.5t-29.5 -17t-46 -22.5q-23 -11 -41 -21t-30 -23t-18.5 -31t-6.5 -45v-47q0 -108 94 -108z" />
    <glyph glyph-name="b" unicode="b" horiz-adv-x="316" 
d="M32 678h25v-179h1q12 29 39 51t75 22q55 0 85 -31.5t30 -99.5v-315q0 -68 -31.5 -99.5t-87.5 -31.5q-46 0 -72 20.5t-38 48.5h-1v-64h-25v678zM262 440q0 110 -98 110q-42 0 -73.5 -27t-33.5 -79v-325q2 -51 32.5 -76.5t72.5 -25.5q48 0 74 27.5t26 82.5v313z" />
    <glyph glyph-name="c" unicode="c" horiz-adv-x="306" 
d="M283 181v-50q0 -136 -123 -136q-63 0 -97 37t-34 105v295q0 68 34 104t96 36q124 0 124 -134v-40h-26v41q0 111 -98 111q-51 0 -78 -30t-27 -86v-299q0 -56 27.5 -87t78.5 -31q98 0 98 112v52h25z" />
    <glyph glyph-name="d" unicode="d" horiz-adv-x="316" 
d="M286 0h-26v67h-1q-11 -28 -37 -50t-72 -22q-57 0 -88.5 31.5t-31.5 99.5v315q0 68 33.5 99.5t87.5 31.5q47 0 71.5 -20.5t36.5 -49.5h1v176h26v-678zM56 127q0 -110 99 -110q44 0 74.5 28.5t30.5 82.5v312q0 54 -30 82t-73 28q-48 0 -74.5 -27.5t-26.5 -82.5v-313z" />
    <glyph glyph-name="e" unicode="e" horiz-adv-x="317" 
d="M289 181v-50q0 -136 -127 -136q-63 0 -98 37t-35 105v295q0 68 34 104t96 36q63 0 96.5 -35.5t33.5 -103.5v-139h-235v-159q0 -56 28 -87t80 -31q102 0 102 112v52h25zM54 315h209v119q0 56 -26.5 86t-77.5 30t-78 -30t-27 -86v-119z" />
    <glyph glyph-name="f" unicode="f" horiz-adv-x="180" 
d="M12 567h45v39q0 38 17 55t59 17h35v-20h-32q-29 0 -41 -12t-12 -41v-38h85v-20h-85v-547h-26v547h-45v20z" />
    <glyph glyph-name="g" unicode="g" horiz-adv-x="316" 
d="M285 567v-537q0 -57 -30.5 -91t-94.5 -34q-63 0 -95 31.5t-32 83.5v29h25v-28q0 -45 25.5 -69.5t76.5 -24.5q52 0 75.5 27.5t23.5 72.5v128h-1q-11 -27 -37 -48.5t-72 -21.5q-57 0 -88.5 31t-31.5 99v226q0 68 33.5 99.5t87.5 31.5q47 0 71.5 -20.5t36.5 -49.5h1v65h26z
M154 106q42 0 72.5 27t32.5 78v229q0 54 -30.5 82t-73.5 28q-48 0 -74 -27.5t-26 -82.5v-224q0 -110 99 -110z" />
    <glyph glyph-name="h" unicode="h" horiz-adv-x="309" 
d="M255 442q0 108 -94 108q-40 0 -71 -26t-33 -77v-447h-25v678h25v-177h1q12 29 38.5 50t71.5 21q53 0 82.5 -30.5t29.5 -98.5v-443h-25v442z" />
    <glyph glyph-name="i" unicode="i" 
d="M32 567h25v-567h-25v567zM32 678h25v-31h-25v31z" />
    <glyph glyph-name="j" unicode="j" 
d="M57 567v-597q0 -31 -14.5 -45.5t-49.5 -14.5h-7v21h6q22 0 31 10t9 30v596h25zM32 678h25v-31h-25v31z" />
    <glyph glyph-name="k" unicode="k" horiz-adv-x="270" 
d="M236 0l-179 289v-289h-25v678h25v-383l174 272h27l-175 -273l181 -294h-28z" />
    <glyph glyph-name="l" unicode="l" 
d="M32 678h25v-678h-25v678z" />
    <glyph glyph-name="m" unicode="m" horiz-adv-x="497" 
d="M237 447q0 50 -21 76.5t-64 26.5q-38 0 -65.5 -25.5t-29.5 -73.5v-451h-25v567h25v-63h1q11 27 35 47.5t66 20.5q79 0 98 -76h1q10 32 37 54t69 22q51 0 77.5 -30.5t26.5 -93.5v-448h-26v447q0 50 -21 76.5t-64 26.5q-37 0 -65 -26t-30 -73v-451h-25v447z" />
    <glyph glyph-name="n" unicode="n" horiz-adv-x="309" 
d="M255 442q0 108 -94 108q-40 0 -71 -26t-33 -77v-447h-25v567h25v-66h1q12 29 38.5 50t71.5 21q53 0 82.5 -30.5t29.5 -98.5v-443h-25v442z" />
    <glyph glyph-name="o" unicode="o" horiz-adv-x="318" 
d="M289 137q0 -68 -33.5 -105t-96.5 -37q-62 0 -96 37t-34 105v293q0 68 34 105t96 37q63 0 96.5 -37t33.5 -105v-293zM159 17q51 0 78 31t27 87v297q0 56 -27 87t-78 31t-78 -31t-27 -87v-297q0 -56 27 -87t78 -31z" />
    <glyph glyph-name="p" unicode="p" horiz-adv-x="316" 
d="M32 567h25v-68h1q12 29 39 51t75 22q55 0 85 -31.5t30 -99.5v-315q0 -68 -31.5 -99.5t-87.5 -31.5q-46 0 -72.5 20t-37.5 49h-1v-154h-25v657zM262 440q0 110 -98 110q-42 0 -73.5 -27t-33.5 -79v-325q2 -51 32.5 -76.5t72.5 -25.5q48 0 74 27.5t26 82.5v313z" />
    <glyph glyph-name="q" unicode="q" horiz-adv-x="316" 
d="M285 -90h-26v157h-1q-11 -28 -37 -50t-72 -22q-57 0 -88.5 31.5t-31.5 99.5v315q0 68 33.5 99.5t87.5 31.5q47 0 71.5 -20.5t36.5 -49.5h1v65h26v-657zM55 127q0 -110 99 -110q44 0 74.5 28.5t30.5 82.5v312q0 54 -30.5 82t-73.5 28q-48 0 -74 -27.5t-26 -82.5v-313z" />
    <glyph glyph-name="r" unicode="r" horiz-adv-x="182" 
d="M164 543h-4q-41 0 -71 -26t-32 -77v-440h-25v567h25v-71h2q11 29 36.5 51t68.5 22v-26z" />
    <glyph glyph-name="s" unicode="s" horiz-adv-x="299" 
d="M273 121q0 -60 -30 -93t-96 -33q-63 0 -93 35.5t-30 93.5v54h25v-54q0 -48 23.5 -77.5t74.5 -29.5q54 0 77.5 26t23.5 77v18q0 17 -3 32t-11.5 29t-22 28.5t-34.5 31.5l-67 52q-43 33 -62.5 62t-19.5 69v17q0 51 28.5 82t87.5 31q121 0 121 -124v-46h-25v47q0 51 -23 76
t-73 25q-47 0 -69 -24t-22 -66v-17q0 -32 15 -56t56 -55l67 -52q24 -19 40 -35.5t25 -33t13 -34t4 -38.5v-18z" />
    <glyph glyph-name="t" unicode="t" horiz-adv-x="192" 
d="M12 567h45v111h26v-111h86v-20h-86v-471q0 -30 12.5 -42.5t43.5 -12.5h30v-21h-32q-45 0 -62.5 18t-17.5 59v470h-45v20z" />
    <glyph glyph-name="u" unicode="u" horiz-adv-x="309" 
d="M55 125q0 -108 94 -108q19 0 37 6.5t32.5 19t23.5 31.5t10 45v448h26v-567h-26v66h-1q-12 -31 -38.5 -51t-71.5 -20q-53 0 -82.5 30.5t-29.5 98.5v443h26v-442z" />
    <glyph glyph-name="v" unicode="v" horiz-adv-x="285" 
d="M281 567l-122 -567h-32l-123 567h26l113 -523h1l112 523h25z" />
    <glyph glyph-name="w" unicode="w" horiz-adv-x="450" 
d="M443 567l-95 -567h-29l-94 508l-93 -508h-30l-95 567h25l86 -511h1l95 511h24l95 -511h1l85 511h24z" />
    <glyph glyph-name="x" unicode="x" horiz-adv-x="289" 
d="M280 567l-113 -271l115 -296h-27l-107 275l-115 -275h-27l124 297l-114 270h27l106 -251l105 251h26z" />
    <glyph glyph-name="y" unicode="y" horiz-adv-x="286" 
d="M282 567l-144 -582q-5 -21 -11.5 -35.5t-16 -23t-23.5 -12.5t-35 -4h-23v21h22q31 0 43.5 13.5t20.5 45.5l17 68h-8l-120 509h26l111 -470h1l115 470h25z" />
    <glyph glyph-name="z" unicode="z" horiz-adv-x="273" 
d="M47 21h201v-21h-228v21l205 525h-189v21h216v-21z" />
    <glyph glyph-name="braceleft" unicode="{" horiz-adv-x="210" 
d="M180 -69q-53 0 -75 26.5t-16 89.5l15 175q1 19 0 34.5t-8 26t-21.5 16t-39.5 5.5h-18v21h18q25 0 39.5 6t21.5 16.5t8 26t0 34.5l-15 175q-6 63 16 89t75 26h10v-20h-12q-36 0 -53 -20t-12 -73l15 -176q4 -35 -5 -60t-46 -34q37 -9 46 -35t5 -60l-15 -175
q-5 -54 11.5 -73.5t53.5 -19.5h12v-21h-10z" />
    <glyph glyph-name="bar" unicode="|" horiz-adv-x="92" 
d="M57 698v-788h-22v788h22z" />
    <glyph glyph-name="braceright" unicode="}" horiz-adv-x="210" 
d="M20 -48h12q37 0 53.5 19.5t11.5 73.5l-15 175q-3 35 5.5 60.5t45.5 34.5q-37 9 -45.5 34t-5.5 60l15 176q4 53 -12.5 73t-52.5 20h-12v20h11q52 0 74 -26t16 -89l-15 -175q-2 -19 -0.5 -34.5t8.5 -26t21.5 -16.5t40.5 -6h17v-21h-17q-26 0 -40.5 -5.5t-21.5 -16t-8.5 -26
t0.5 -34.5l15 -175q6 -63 -16 -89.5t-74 -26.5h-11v21z" />
    <glyph glyph-name="asciitilde" unicode="~" horiz-adv-x="235" 
d="M23 288q1 24 13 40t35 16q13 0 25 -4.5t23 -10.5t22 -10.5t22 -4.5q15 0 21 10t8 24h20q-1 -24 -13 -40t-35 -16q-14 0 -25.5 4.5t-22.5 10.5t-21.5 10.5t-22.5 4.5q-15 0 -21 -10t-8 -24h-20z" />
    <glyph glyph-name="exclamdown" unicode="&#xa1;" horiz-adv-x="96" 
d="M61 552h-26v36h26v-36zM39 491h18l5 -581h-28z" />
    <glyph glyph-name="cent" unicode="&#xa2;" horiz-adv-x="306" 
d="M283 181v-50q0 -130 -114 -134v-47h-21v47q-58 3 -88.5 39t-30.5 101v295q0 65 31 100t88 38v45h21v-44q114 -6 114 -133v-40h-25v42q0 106 -89 110v-534q89 4 89 113v52h25zM54 134q0 -52 24 -83t70 -35v534q-45 -3 -69.5 -33t-24.5 -83v-300z" />
    <glyph glyph-name="sterling" unicode="&#xa3;" horiz-adv-x="329" 
d="M14 337h41v206q0 75 33.5 107.5t92.5 32.5q60 0 91.5 -30.5t31.5 -96.5v-70h-26v70q0 57 -26 81t-71 24t-72.5 -26.5t-27.5 -90.5v-207h148v-22h-148v-293h226v-22h-252v315h-41v22z" />
    <glyph glyph-name="yen" unicode="&#xa5;" horiz-adv-x="317" 
d="M40 278h106v17l-129 383h27l115 -348h1l114 348h26l-128 -383v-17h105v-19h-105v-34h105v-18h-105v-207h-26v207h-106v18h106v34h-106v19z" />
    <glyph glyph-name="brokenbar" unicode="&#xa6;" horiz-adv-x="91" 
d="M35 -90v379h21v-379h-21zM56 698v-359h-21v359h21z" />
    <glyph glyph-name="section" unicode="&#xa7;" horiz-adv-x="347" 
d="M26 335q0 40 23 64t58 35v1q-32 23 -41.5 50t-9.5 64v15q0 57 28.5 88t88.5 31q63 0 91 -33.5t28 -92.5v-43h-24v44q0 48 -22 75.5t-73 27.5q-49 0 -70.5 -24.5t-21.5 -72.5v-15q0 -33 9.5 -57t45.5 -47l104 -66q42 -27 61.5 -53t19.5 -69q0 -38 -23 -62.5t-57 -33.5v-1
q32 -25 45 -52.5t13 -63.5v-20q0 -59 -28.5 -89t-94.5 -30q-63 0 -93.5 33t-30.5 92v50h25v-51q0 -48 24 -75t75 -27q55 0 76.5 23.5t21.5 74.5v17q0 34 -12.5 59t-52.5 51l-102 65q-41 26 -61 52t-20 66zM50 338q0 -33 16 -54.5t54 -46.5l102 -64q33 9 54 30t21 52
q0 35 -16 56.5t-54 46.5l-102 65h-1q-34 -11 -54 -31.5t-20 -53.5z" />
    <glyph glyph-name="dieresis" unicode="&#xa8;" horiz-adv-x="400" 
d="M151 645h25v-31h-25v31zM223 645h25v-31h-25v31z" />
    <glyph glyph-name="copyright" unicode="&#xa9;" horiz-adv-x="381" 
d="M356 307q0 -39 -10.5 -72.5t-31.5 -58t-52 -38t-71 -13.5q-41 0 -72 13.5t-52 38t-31.5 58t-10.5 72.5v70q0 39 10.5 72.5t31.5 58t52 38t72 13.5q40 0 71 -13.5t52 -38t31.5 -58t10.5 -72.5v-70zM341 377q0 37 -9.5 68t-28.5 53.5t-47 35t-65 12.5q-38 0 -66 -12.5
t-47 -35t-28.5 -53.5t-9.5 -68v-70q0 -37 9.5 -68t28.5 -53.5t47 -35t66 -12.5q37 0 65 12.5t47 35t28.5 53.5t9.5 68v70zM266 310v-26q0 -38 -17.5 -60t-59.5 -22t-60 24.5t-18 63.5v106q0 41 18 65t60 24t59.5 -21t17.5 -60v-18h-20v20q0 30 -13 45.5t-44 15.5
q-32 0 -44.5 -18.5t-12.5 -49.5v-111q0 -31 12.5 -50t44.5 -19q31 0 44 16.5t13 47.5v27h20z" />
    <glyph glyph-name="ordfeminine" unicode="&#xaa;" horiz-adv-x="284" 
d="M231 200v61h-1q-11 -27 -33.5 -46.5t-64.5 -19.5q-51 0 -79.5 27.5t-28.5 89.5v19q0 29 8 48.5t22.5 33.5t34.5 25t44 22q55 26 76.5 44.5t21.5 38.5v26q0 41 -16 67.5t-65 26.5q-48 0 -68 -22.5t-20 -64.5v-44h-24v43q0 51 27 79.5t86 28.5t81.5 -30.5t22.5 -84.5v-368
h-24zM137 215q40 0 67 26.5t27 80.5v183q-4 -5 -9 -11.5t-15 -14t-26.5 -17t-41.5 -21.5q-21 -10 -38 -19.5t-29 -22t-18.5 -29t-6.5 -40.5v-17q0 -98 90 -98z" />
    <glyph glyph-name="guillemotleft" unicode="&#xab;" horiz-adv-x="203" 
d="M111 378l-62 -146l62 -146h-23l-62 146l62 146h23zM177 378l-62 -146l62 -146h-22l-63 146l63 146h22z" />
    <glyph glyph-name="registered" unicode="&#xae;" horiz-adv-x="381" 
d="M356 430q0 -39 -10.5 -72.5t-31.5 -58t-52 -38t-71 -13.5q-41 0 -72 13.5t-52 38t-31.5 58t-10.5 72.5v71q0 39 10.5 72.5t31.5 57.5t52 37.5t72 13.5q40 0 71 -13.5t52 -37.5t31.5 -57.5t10.5 -72.5v-71zM40 430q0 -37 9.5 -68t28.5 -53.5t47 -35t66 -12.5q37 0 65 12.5
t47 35t28.5 53.5t9.5 68v71q0 37 -9.5 67.5t-28.5 53t-47 35t-65 12.5q-38 0 -66 -12.5t-47 -35t-28.5 -53t-9.5 -67.5v-71zM150 469v-135h-19v271h65q65 0 65 -58v-27q0 -32 -16 -45t-49 -13h-19l92 -128h-23zM150 589v-112h45q26 0 36 10.5t10 31.5v28q0 19 -10 30.5
t-36 11.5h-45z" />
    <glyph glyph-name="macron" unicode="&#xaf;" horiz-adv-x="400" 
d="M127 634h146v-19h-146v19z" />
    <glyph glyph-name="degree" unicode="&#xb0;" horiz-adv-x="172" 
d="M18 614q0 29 19.5 49t47.5 20q29 0 49 -20t20 -49q0 -27 -20 -46.5t-49 -19.5q-28 0 -47.5 19.5t-19.5 46.5zM38 614q0 -20 13.5 -34t33.5 -14q22 0 36 14t14 34q0 22 -14 36.5t-36 14.5q-20 0 -33.5 -14.5t-13.5 -36.5z" />
    <glyph glyph-name="twosuperior" unicode="&#xb2;" horiz-adv-x="206" 
d="M27 414q0 33 9 50t35 37l47 37q20 16 29 28.5t9 29.5v17q0 50 -52 50q-24 0 -39.5 -13.5t-15.5 -40.5v-33h-21v33q0 35 20.5 54t55.5 19t54.5 -17.5t19.5 -51.5v-17q0 -20 -10.5 -36t-34.5 -35l-48 -38q-23 -18 -30 -32t-7 -39v-11h127v-18h-148v27z" />
    <glyph glyph-name="threesuperior" unicode="&#xb3;" horiz-adv-x="209" 
d="M104 384q-40 0 -59 18.5t-19 52.5v29h21v-30q0 -53 57 -53q31 0 43.5 13.5t12.5 37.5v37q0 20 -9.5 32t-36.5 13h-29v16h28q26 0 34.5 15t8.5 30v21q0 49 -53 49q-30 0 -41.5 -14.5t-11.5 -37.5v-18h-20v18q0 28 16 48.5t57 20.5q38 0 56 -17t18 -49v-21q0 -17 -8 -32
t-29 -21q23 -4 32 -18t9 -35v-36q0 -32 -17.5 -50.5t-59.5 -18.5z" />
    <glyph glyph-name="acute" unicode="&#xb4;" horiz-adv-x="400" 
d="M273 652l-145 -59v19l145 61v-21z" />
    <glyph glyph-name="paragraph" unicode="&#xb6;" horiz-adv-x="311" 
d="M184 0v299h-39q-60 0 -90.5 28t-30.5 81v161q0 53 30.5 81t90.5 28h135v-678h-22v658h-52v-658h-22z" />
    <glyph glyph-name="periodcentered" unicode="&#xb7;" horiz-adv-x="96" 
d="M35 360h26v-37h-26v37z" />
    <glyph glyph-name="cedilla" unicode="&#xb8;" horiz-adv-x="400" 
d="M160 -22q22 0 34.5 -8t12.5 -25q0 -19 -21 -28t-60 -9v16q57 0 57 21q0 16 -31 16h-9v39h17v-22z" />
    <glyph glyph-name="onesuperior" unicode="&#xb9;" horiz-adv-x="139" 
d="M95 678v-290h-23v259h-1l-53 -57h-1v23l59 65h19z" />
    <glyph glyph-name="ordmasculine" unicode="&#xba;" horiz-adv-x="293" 
d="M265 329q0 -63 -30.5 -98.5t-87.5 -35.5t-88 35.5t-31 98.5v220q0 64 31 99t88 35t87.5 -35t30.5 -99v-220zM147 215q47 0 70.5 29.5t23.5 82.5v225q0 52 -23.5 81.5t-70.5 29.5t-71 -29.5t-24 -81.5v-225q0 -53 24 -82.5t71 -29.5z" />
    <glyph glyph-name="guillemotright" unicode="&#xbb;" horiz-adv-x="203" 
d="M88 232l-62 146h22l63 -146l-63 -146h-22zM154 232l-62 146h22l63 -146l-63 -146h-22z" />
    <glyph glyph-name="onequarter" unicode="&#xbc;" horiz-adv-x="244" 
d="M22 348h201v-16h-201v16zM136 678v-290h-23v259h-1l-53 -57h-1v23l59 65h19zM29 73l113 217h25v-214h31v-17h-31v-59h-22v59h-116v14zM50 76h95v182h-1z" />
    <glyph glyph-name="onehalf" unicode="&#xbd;" horiz-adv-x="243" 
d="M21 348h201v-16h-201v16zM135 678v-290h-23v259h-1l-53 -57h-1v23l59 65h19zM49 27q0 33 9.5 50t35.5 37l46 37q20 16 29.5 28.5t9.5 29.5v17q0 50 -53 50q-24 0 -39.5 -13.5t-15.5 -40.5v-33h-20v33q0 35 20 53.5t55 18.5q74 0 74 -69v-17q0 -20 -10.5 -36t-34.5 -35
l-48 -38q-11 -9 -18.5 -16.5t-11.5 -15t-5.5 -17t-1.5 -22.5v-10h127v-18h-148v27z" />
    <glyph glyph-name="threequarters" unicode="&#xbe;" horiz-adv-x="253" 
d="M21 348h200v-16h-200v16zM31 73l113 217h25v-214h31v-17h-31v-59h-21v59h-117v14zM148 76v182h-1l-94 -182h95zM64 484v-30q0 -53 56 -53q32 0 44.5 13.5t12.5 37.5v37q0 20 -10 32t-36 13h-29v16h28q26 0 34.5 15t8.5 30v21q0 49 -54 49q-29 0 -40.5 -14.5t-11.5 -37.5
v-18h-20v18q0 28 16 48.5t57 20.5q38 0 55.5 -17t17.5 -49v-21q0 -17 -8 -32t-29 -21q23 -4 32.5 -18t9.5 -35v-36q0 -32 -17.5 -50.5t-60.5 -18.5q-40 0 -58.5 18.5t-18.5 52.5v29h21z" />
    <glyph glyph-name="questiondown" unicode="&#xbf;" horiz-adv-x="301" 
d="M181 491v-102q0 -25 -2 -41.5t-7.5 -30t-14 -27t-20.5 -31.5l-44 -64q-21 -32 -29.5 -54.5t-8.5 -52.5v-49q0 -58 23 -85t71 -27t75 25.5t27 80.5v73h25v-73q0 -66 -33.5 -97t-93.5 -31t-90 33t-30 102v49q0 35 10.5 60.5t33.5 58.5l43 64q11 16 18.5 28t12.5 24.5
t7 27.5t2 37v102h25zM182 552h-27v36h27v-36z" />
    <glyph glyph-name="Agrave" unicode="&#xc0;" horiz-adv-x="335" 
d="M11 0l138 678h35l140 -678h-27l-39 188h-183l-38 -188h-26zM79 211h175l-87 430h-1zM90 778l145 -61v-19l-145 59v21z" />
    <glyph glyph-name="Aacute" unicode="&#xc1;" horiz-adv-x="335" 
d="M11 0l138 678h35l140 -678h-27l-39 188h-183l-38 -188h-26zM79 211h175l-87 430h-1zM249 757l-145 -59v19l145 61v-21z" />
    <glyph glyph-name="Acircumflex" unicode="&#xc2;" horiz-adv-x="335" 
d="M11 0l138 678h35l140 -678h-27l-39 188h-183l-38 -188h-26zM79 211h175l-87 430h-1zM87 700v18l74 69h13l73 -69v-18l-79 65z" />
    <glyph glyph-name="Atilde" unicode="&#xc3;" horiz-adv-x="335" 
d="M11 0l138 678h35l140 -678h-27l-39 188h-183l-38 -188h-26zM79 211h175l-87 430h-1zM204 721q-12 0 -21.5 4.5t-18 9.5t-17 9.5t-17.5 4.5q-15 0 -21 -9.5t-8 -22.5h-17q1 22 12 37t34 15q11 0 20.5 -4.5t18.5 -10t17.5 -10t17.5 -4.5q14 0 20 10t8 23h18
q-1 -22 -12.5 -37t-33.5 -15z" />
    <glyph glyph-name="Adieresis" unicode="&#xc4;" horiz-adv-x="335" 
d="M11 0l138 678h35l140 -678h-27l-39 188h-183l-38 -188h-26zM79 211h175l-87 430h-1zM119 750h25v-31h-25v31zM191 750h25v-31h-25v31z" />
    <glyph glyph-name="Aring" unicode="&#xc5;" horiz-adv-x="335" 
d="M11 0l138 678h35l140 -678h-27l-39 188h-183l-38 -188h-26zM79 211h175l-87 430h-1zM112 756q0 23 15.5 39.5t39.5 16.5q25 0 41 -16.5t16 -39.5q0 -24 -16 -40t-41 -16q-24 0 -39.5 16t-15.5 40zM129 756q0 -17 10.5 -29t27.5 -12t28.5 12t11.5 29t-11.5 29t-28.5 12
t-27.5 -12t-10.5 -29z" />
    <glyph glyph-name="AE" unicode="&#xc6;" horiz-adv-x="510" 
d="M9 0l193 678h284v-22h-202v-300h145v-22h-145v-312h202v-22h-228v188h-171l-52 -188h-26zM94 211h164v445h-39z" />
    <glyph glyph-name="Ccedilla" unicode="&#xc7;" horiz-adv-x="330" 
d="M131 -76q57 0 57 21q0 16 -31 16h-9v36q-32 4 -55 18t-37 35.5t-20.5 49t-6.5 57.5v364q0 33 7.5 62.5t24.5 51.5t44 35t66 13q40 0 65.5 -10.5t40.5 -30t21 -47t6 -61.5v-80h-26v82q0 29 -4.5 52t-16.5 39.5t-32.5 25t-53.5 8.5q-32 0 -53.5 -11t-35.5 -30t-20 -43.5
t-6 -52.5v-370q0 -27 6 -52t20 -44t35.5 -30t53.5 -11q33 0 53.5 9.5t32.5 26.5t16.5 40t4.5 50v117h26v-116q0 -32 -6 -59t-21 -47t-40.5 -31.5t-65.5 -11.5h-6v-17q22 0 34.5 -8t12.5 -25q0 -19 -21 -28t-60 -9v16z" />
    <glyph glyph-name="Egrave" unicode="&#xc8;" horiz-adv-x="293" 
d="M32 678h236v-22h-210v-300h153v-22h-153v-312h210v-22h-236v678zM81 778l145 -61v-19l-145 59v21z" />
    <glyph glyph-name="Eacute" unicode="&#xc9;" horiz-adv-x="293" 
d="M239 757l-145 -59v19l145 61v-21zM32 678h236v-22h-210v-300h153v-22h-153v-312h210v-22h-236v678z" />
    <glyph glyph-name="Ecircumflex" unicode="&#xca;" horiz-adv-x="293" 
d="M78 700v18l74 69h13l73 -69v-18l-79 65zM32 678h236v-22h-210v-300h153v-22h-153v-312h210v-22h-236v678z" />
    <glyph glyph-name="Edieresis" unicode="&#xcb;" horiz-adv-x="293" 
d="M110 750h25v-31h-25v31zM182 750h25v-31h-25v31zM32 678h236v-22h-210v-300h153v-22h-153v-312h210v-22h-236v678z" />
    <glyph glyph-name="Igrave" unicode="&#xcc;" 
d="M32 678h26v-678h-26v678zM-32 778l145 -61v-19l-145 59v21z" />
    <glyph glyph-name="Iacute" unicode="&#xcd;" 
d="M32 678h26v-678h-26v678zM127 757l-145 -59v19l145 61v-21z" />
    <glyph glyph-name="Icircumflex" unicode="&#xce;" 
d="M32 678h26v-678h-26v678zM-34 700v17l73 71h13l71 -71v-17l-78 67z" />
    <glyph glyph-name="Idieresis" unicode="&#xcf;" 
d="M32 678h26v-678h-26v678zM-1 750h24v-31h-24v31zM67 750h24v-31h-24v31z" />
    <glyph glyph-name="Eth" unicode="&#xd0;" horiz-adv-x="347" 
d="M9 356h33v322h123q41 0 70 -13t47 -35t26.5 -51t8.5 -62v-356q0 -32 -8.5 -61.5t-26.5 -51.5t-47 -35t-70 -13h-123v334h-33v22zM68 356h132v-22h-132v-312h95q35 0 59.5 11t39.5 29.5t22 43.5t7 52v362q0 28 -7 52.5t-22 43t-39.5 29.5t-59.5 11h-95v-300z" />
    <glyph glyph-name="Ntilde" unicode="&#xd1;" horiz-adv-x="326" 
d="M55 625v-625h-23v678h31l208 -612v612h24v-678h-28zM211 721q-12 0 -21.5 4.5t-18 9.5t-17 9.5t-17.5 4.5q-15 0 -21 -9.5t-8 -22.5h-17q1 22 12 37t34 15q11 0 20.5 -4.5t18.5 -10t17.5 -10t17.5 -4.5q14 0 20 10t8 23h18q-1 -22 -12.5 -37t-33.5 -15z" />
    <glyph glyph-name="Ograve" unicode="&#xd2;" horiz-adv-x="349" 
d="M174 17q31 0 54 11t37 30t21 44t7 52v370q0 28 -7 52.5t-21 43.5t-37 30t-54 11t-53.5 -11t-36.5 -30t-21 -43.5t-7 -52.5v-370q0 -27 7 -52t21 -44t36.5 -30t53.5 -11zM174 -5q-38 0 -65.5 13t-45 35.5t-26 51.5t-8.5 62v364q0 33 8.5 62.5t26 51.5t45 35t65.5 13
q39 0 66.5 -13t45 -35t26 -51.5t8.5 -62.5v-364q0 -33 -8.5 -62t-26 -51.5t-45 -35.5t-66.5 -13zM100 778l145 -61v-19l-145 59v21z" />
    <glyph glyph-name="Oacute" unicode="&#xd3;" horiz-adv-x="349" 
d="M260 757l-145 -59v19l145 61v-21zM174 17q31 0 54 11t37 30t21 44t7 52v370q0 28 -7 52.5t-21 43.5t-37 30t-54 11t-53.5 -11t-36.5 -30t-21 -43.5t-7 -52.5v-370q0 -27 7 -52t21 -44t36.5 -30t53.5 -11zM174 -5q-38 0 -65.5 13t-45 35.5t-26 51.5t-8.5 62v364
q0 33 8.5 62.5t26 51.5t45 35t65.5 13q39 0 66.5 -13t45 -35t26 -51.5t8.5 -62.5v-364q0 -33 -8.5 -62t-26 -51.5t-45 -35.5t-66.5 -13z" />
    <glyph glyph-name="Ocircumflex" unicode="&#xd4;" horiz-adv-x="349" 
d="M95 700v18l74 69h13l73 -69v-18l-79 65zM174 17q31 0 54 11t37 30t21 44t7 52v370q0 28 -7 52.5t-21 43.5t-37 30t-54 11t-53.5 -11t-36.5 -30t-21 -43.5t-7 -52.5v-370q0 -27 7 -52t21 -44t36.5 -30t53.5 -11zM174 -5q-38 0 -65.5 13t-45 35.5t-26 51.5t-8.5 62v364
q0 33 8.5 62.5t26 51.5t45 35t65.5 13q39 0 66.5 -13t45 -35t26 -51.5t8.5 -62.5v-364q0 -33 -8.5 -62t-26 -51.5t-45 -35.5t-66.5 -13z" />
    <glyph glyph-name="Otilde" unicode="&#xd5;" horiz-adv-x="349" 
d="M174 17q31 0 54 11t37 30t21 44t7 52v370q0 28 -7 52.5t-21 43.5t-37 30t-54 11t-53.5 -11t-36.5 -30t-21 -43.5t-7 -52.5v-370q0 -27 7 -52t21 -44t36.5 -30t53.5 -11zM174 -5q-38 0 -65.5 13t-45 35.5t-26 51.5t-8.5 62v364q0 33 8.5 62.5t26 51.5t45 35t65.5 13
q39 0 66.5 -13t45 -35t26 -51.5t8.5 -62.5v-364q0 -33 -8.5 -62t-26 -51.5t-45 -35.5t-66.5 -13zM212 721q-12 0 -21.5 4.5t-18 9.5t-17 9.5t-17.5 4.5q-15 0 -21 -9.5t-8 -22.5h-17q1 22 12 37t34 15q11 0 20.5 -4.5t18.5 -10t17.5 -10t17.5 -4.5q14 0 20 10t8 23h18
q-1 -22 -12.5 -37t-33.5 -15z" />
    <glyph glyph-name="Odieresis" unicode="&#xd6;" horiz-adv-x="349" 
d="M128 750h25v-31h-25v31zM200 750h25v-31h-25v31zM174 17q31 0 54 11t37 30t21 44t7 52v370q0 28 -7 52.5t-21 43.5t-37 30t-54 11t-53.5 -11t-36.5 -30t-21 -43.5t-7 -52.5v-370q0 -27 7 -52t21 -44t36.5 -30t53.5 -11zM174 -5q-38 0 -65.5 13t-45 35.5t-26 51.5t-8.5 62
v364q0 33 8.5 62.5t26 51.5t45 35t65.5 13q39 0 66.5 -13t45 -35t26 -51.5t8.5 -62.5v-364q0 -33 -8.5 -62t-26 -51.5t-45 -35.5t-66.5 -13z" />
    <glyph glyph-name="multiply" unicode="&#xd7;" horiz-adv-x="321" 
d="M33 207l113 123l-119 130l16 16l118 -129l112 123l16 -15l-114 -124l120 -130l-16 -15l-119 129l-112 -123z" />
    <glyph glyph-name="Oslash" unicode="&#xd8;" horiz-adv-x="349" 
d="M174 -5q-48 0 -80 20l-13 -46h-21l17 60q-25 23 -36.5 56.5t-11.5 71.5v364q0 33 8.5 62.5t26 51.5t45 35t65.5 13q49 0 82 -22l12 41h21l-16 -54q24 -23 35.5 -56t11.5 -71v-364q0 -33 -8.5 -62t-26 -51.5t-45 -35.5t-66.5 -13zM56 154q0 -29 6.5 -54t21.5 -44l165 581
q-29 24 -75 24q-31 0 -53.5 -11t-36.5 -30t-21 -43.5t-7 -52.5v-370zM174 17q31 0 54 11t37 30t21 44t7 52v376q0 26 -6.5 49t-20.5 42l-165 -582q28 -22 73 -22z" />
    <glyph glyph-name="Ugrave" unicode="&#xd9;" horiz-adv-x="334" 
d="M304 678v-530q0 -32 -7 -60t-23 -48.5t-42.5 -32.5t-64.5 -12t-64.5 12t-42.5 32.5t-23 48.5t-7 60v530h26v-532q0 -27 5.5 -50.5t18.5 -41t34.5 -27.5t52.5 -10t52.5 10t35 27.5t19 41t5.5 50.5v532h25zM91 778l145 -61v-19l-145 59v21z" />
    <glyph glyph-name="Uacute" unicode="&#xda;" horiz-adv-x="334" 
d="M249 757l-145 -59v19l145 61v-21zM304 678v-530q0 -32 -7 -60t-23 -48.5t-42.5 -32.5t-64.5 -12t-64.5 12t-42.5 32.5t-23 48.5t-7 60v530h26v-532q0 -27 5.5 -50.5t18.5 -41t34.5 -27.5t52.5 -10t52.5 10t35 27.5t19 41t5.5 50.5v532h25z" />
    <glyph glyph-name="Ucircumflex" unicode="&#xdb;" horiz-adv-x="334" 
d="M88 700v18l74 69h13l73 -69v-18l-79 65zM304 678v-530q0 -32 -7 -60t-23 -48.5t-42.5 -32.5t-64.5 -12t-64.5 12t-42.5 32.5t-23 48.5t-7 60v530h26v-532q0 -27 5.5 -50.5t18.5 -41t34.5 -27.5t52.5 -10t52.5 10t35 27.5t19 41t5.5 50.5v532h25z" />
    <glyph glyph-name="Udieresis" unicode="&#xdc;" horiz-adv-x="334" 
d="M119 750h25v-31h-25v31zM191 750h25v-31h-25v31zM304 678v-530q0 -32 -7 -60t-23 -48.5t-42.5 -32.5t-64.5 -12t-64.5 12t-42.5 32.5t-23 48.5t-7 60v530h26v-532q0 -27 5.5 -50.5t18.5 -41t34.5 -27.5t52.5 -10t52.5 10t35 27.5t19 41t5.5 50.5v532h25z" />
    <glyph glyph-name="Yacute" unicode="&#xdd;" horiz-adv-x="302" 
d="M165 258v-258h-26v258l-130 420h27l116 -381h1l114 381h26zM234 757l-145 -59v19l145 61v-21z" />
    <glyph glyph-name="Thorn" unicode="&#xde;" horiz-adv-x="300" 
d="M32 678h26v-126h92q64 0 95 -30t31 -86v-169q0 -56 -31 -86.5t-95 -30.5h-92v-150h-26v678zM58 529v-357h90q102 0 102 94v170q0 93 -102 93h-90z" />
    <glyph glyph-name="germandbls" unicode="&#xdf;" horiz-adv-x="303" 
d="M57 0h-25v566q0 60 31.5 88.5t90.5 28.5q54 0 79 -18.5t25 -52.5q0 -28 -13.5 -42t-38.5 -19q36 -6 52 -30.5t16 -71.5v-321q0 -57 -27 -92.5t-94 -35.5h-35v21h33q52 0 74.5 29.5t22.5 77.5v323q0 45 -17.5 67.5t-59.5 22.5h-45v20h45q33 0 48 13t15 36q0 25 -18.5 38
t-61.5 13q-48 0 -72.5 -21.5t-24.5 -72.5v-567z" />
    <glyph glyph-name="agrave" unicode="&#xe0;" horiz-adv-x="301" 
d="M247 0v64h-1q-11 -28 -38 -48.5t-70 -20.5q-54 0 -84 30.5t-30 98.5v48q0 33 8 54.5t23 36.5t36.5 26.5t47.5 23.5q61 27 84.5 45.5t23.5 38.5v46q0 49 -18.5 78t-68.5 29q-48 0 -72.5 -25.5t-24.5 -73.5v-53h-25v52q0 57 31.5 89.5t91.5 32.5q62 0 87 -34t25 -97v-441
h-26zM143 17q21 0 39.5 6.5t33 20t23 34t8.5 47.5v231q-4 -5 -9.5 -11t-17 -13.5t-29.5 -17t-46 -22.5q-23 -11 -41 -21t-30 -23t-18.5 -31t-6.5 -45v-47q0 -108 94 -108zM82 673l145 -61v-19l-145 59v21z" />
    <glyph glyph-name="aacute" unicode="&#xe1;" horiz-adv-x="301" 
d="M247 0v64h-1q-11 -28 -38 -48.5t-70 -20.5q-54 0 -84 30.5t-30 98.5v48q0 33 8 54.5t23 36.5t36.5 26.5t47.5 23.5q61 27 84.5 45.5t23.5 38.5v46q0 49 -18.5 78t-68.5 29q-48 0 -72.5 -25.5t-24.5 -73.5v-53h-25v52q0 57 31.5 89.5t91.5 32.5q62 0 87 -34t25 -97v-441
h-26zM143 17q21 0 39.5 6.5t33 20t23 34t8.5 47.5v231q-4 -5 -9.5 -11t-17 -13.5t-29.5 -17t-46 -22.5q-23 -11 -41 -21t-30 -23t-18.5 -31t-6.5 -45v-47q0 -108 94 -108zM241 652l-145 -59v19l145 61v-21z" />
    <glyph glyph-name="acircumflex" unicode="&#xe2;" horiz-adv-x="301" 
d="M247 0v64h-1q-11 -28 -38 -48.5t-70 -20.5q-54 0 -84 30.5t-30 98.5v48q0 33 8 54.5t23 36.5t36.5 26.5t47.5 23.5q61 27 84.5 45.5t23.5 38.5v46q0 49 -18.5 78t-68.5 29q-48 0 -72.5 -25.5t-24.5 -73.5v-53h-25v52q0 57 31.5 89.5t91.5 32.5q62 0 87 -34t25 -97v-441
h-26zM143 17q21 0 39.5 6.5t33 20t23 34t8.5 47.5v231q-4 -5 -9.5 -11t-17 -13.5t-29.5 -17t-46 -22.5q-23 -11 -41 -21t-30 -23t-18.5 -31t-6.5 -45v-47q0 -108 94 -108zM79 595v18l74 69h13l73 -69v-18l-79 65z" />
    <glyph glyph-name="atilde" unicode="&#xe3;" horiz-adv-x="301" 
d="M247 0v64h-1q-11 -28 -38 -48.5t-70 -20.5q-54 0 -84 30.5t-30 98.5v48q0 33 8 54.5t23 36.5t36.5 26.5t47.5 23.5q61 27 84.5 45.5t23.5 38.5v46q0 49 -18.5 78t-68.5 29q-48 0 -72.5 -25.5t-24.5 -73.5v-53h-25v52q0 57 31.5 89.5t91.5 32.5q62 0 87 -34t25 -97v-441
h-26zM143 17q21 0 39.5 6.5t33 20t23 34t8.5 47.5v231q-4 -5 -9.5 -11t-17 -13.5t-29.5 -17t-46 -22.5q-23 -11 -41 -21t-30 -23t-18.5 -31t-6.5 -45v-47q0 -108 94 -108zM197 616q-12 0 -21.5 4.5t-18 9.5t-17 9.5t-17.5 4.5q-15 0 -21 -9.5t-8 -22.5h-17q1 22 12 37t34 15
q11 0 20.5 -4.5t18.5 -10t17.5 -10t17.5 -4.5q14 0 20 10t8 23h18q-1 -22 -12.5 -37t-33.5 -15z" />
    <glyph glyph-name="adieresis" unicode="&#xe4;" horiz-adv-x="301" 
d="M247 0v64h-1q-11 -28 -38 -48.5t-70 -20.5q-54 0 -84 30.5t-30 98.5v48q0 33 8 54.5t23 36.5t36.5 26.5t47.5 23.5q61 27 84.5 45.5t23.5 38.5v46q0 49 -18.5 78t-68.5 29q-48 0 -72.5 -25.5t-24.5 -73.5v-53h-25v52q0 57 31.5 89.5t91.5 32.5q62 0 87 -34t25 -97v-441
h-26zM143 17q21 0 39.5 6.5t33 20t23 34t8.5 47.5v231q-4 -5 -9.5 -11t-17 -13.5t-29.5 -17t-46 -22.5q-23 -11 -41 -21t-30 -23t-18.5 -31t-6.5 -45v-47q0 -108 94 -108zM111 645h25v-31h-25v31zM183 645h25v-31h-25v31z" />
    <glyph glyph-name="aring" unicode="&#xe5;" horiz-adv-x="301" 
d="M247 0v64h-1q-11 -28 -38 -48.5t-70 -20.5q-54 0 -84 30.5t-30 98.5v48q0 33 8 54.5t23 36.5t36.5 26.5t47.5 23.5q61 27 84.5 45.5t23.5 38.5v46q0 49 -18.5 78t-68.5 29q-48 0 -72.5 -25.5t-24.5 -73.5v-53h-25v52q0 57 31.5 89.5t91.5 32.5q62 0 87 -34t25 -97v-441
h-26zM143 17q21 0 39.5 6.5t33 20t23 34t8.5 47.5v231q-4 -5 -9.5 -11t-17 -13.5t-29.5 -17t-46 -22.5q-23 -11 -41 -21t-30 -23t-18.5 -31t-6.5 -45v-47q0 -108 94 -108zM103 648q0 23 15.5 39.5t39.5 16.5q25 0 41 -16.5t16 -39.5q0 -24 -16 -40t-41 -16q-24 0 -39.5 16
t-15.5 40zM120 648q0 -17 10.5 -29t27.5 -12t28.5 12t11.5 29t-11.5 29t-28.5 12t-27.5 -12t-10.5 -29z" />
    <glyph glyph-name="ae" unicode="&#xe6;" horiz-adv-x="536" 
d="M507 181v-50q0 -67 -32.5 -101.5t-95.5 -34.5q-48 0 -75.5 21.5t-38.5 62.5q-12 -39 -46 -61.5t-78 -22.5q-55 0 -86 30.5t-31 98.5v60q0 130 127 130h105v129q0 50 -19.5 78.5t-70.5 28.5q-48 0 -75.5 -25.5t-27.5 -73.5v-53h-25v52q0 57 34 89.5t94 32.5q45 0 69.5 -19
t34.5 -54q28 73 114 73q62 0 92.5 -35.5t30.5 -103.5v-140h-226v-158q0 -56 22.5 -87t75.5 -31q103 0 103 112v52h25zM142 16q21 0 41.5 7t36.5 20.5t26 34t10 47.5v168h-103q-104 0 -104 -110v-58q0 -55 24 -82t69 -27zM281 314h201v120q0 56 -24 86t-75 30t-76.5 -30
t-25.5 -86v-120z" />
    <glyph glyph-name="ccedilla" unicode="&#xe7;" horiz-adv-x="306" 
d="M154 -5v-17q22 0 34.5 -8t12.5 -25q0 -19 -21 -28t-60 -9v16q57 0 57 21q0 16 -31 16h-9v36q-54 6 -81 42.5t-27 97.5v295q0 68 34 104t96 36q124 0 124 -134v-40h-26v41q0 111 -98 111q-51 0 -78 -30t-27 -86v-299q0 -56 27.5 -87t78.5 -31q98 0 98 112v52h25v-50
q0 -135 -122 -136h-7z" />
    <glyph glyph-name="egrave" unicode="&#xe8;" horiz-adv-x="317" 
d="M289 181v-50q0 -136 -127 -136q-63 0 -98 37t-35 105v295q0 68 34 104t96 36q63 0 96.5 -35.5t33.5 -103.5v-139h-235v-159q0 -56 28 -87t80 -31q102 0 102 112v52h25zM54 315h209v119q0 56 -26.5 86t-77.5 30t-78 -30t-27 -86v-119zM84 673l145 -61v-19l-145 59v21z" />
    <glyph glyph-name="eacute" unicode="&#xe9;" horiz-adv-x="317" 
d="M243 652l-145 -59v19l145 61v-21zM289 181v-50q0 -136 -127 -136q-63 0 -98 37t-35 105v295q0 68 34 104t96 36q63 0 96.5 -35.5t33.5 -103.5v-139h-235v-159q0 -56 28 -87t80 -31q102 0 102 112v52h25zM54 315h209v119q0 56 -26.5 86t-77.5 30t-78 -30t-27 -86v-119z
" />
    <glyph glyph-name="ecircumflex" unicode="&#xea;" horiz-adv-x="317" 
d="M81 595v18l74 69h13l73 -69v-18l-79 65zM289 181v-50q0 -136 -127 -136q-63 0 -98 37t-35 105v295q0 68 34 104t96 36q63 0 96.5 -35.5t33.5 -103.5v-139h-235v-159q0 -56 28 -87t80 -31q102 0 102 112v52h25zM54 315h209v119q0 56 -26.5 86t-77.5 30t-78 -30t-27 -86
v-119z" />
    <glyph glyph-name="edieresis" unicode="&#xeb;" horiz-adv-x="317" 
d="M113 645h25v-31h-25v31zM185 645h25v-31h-25v31zM289 181v-50q0 -136 -127 -136q-63 0 -98 37t-35 105v295q0 68 34 104t96 36q63 0 96.5 -35.5t33.5 -103.5v-139h-235v-159q0 -56 28 -87t80 -31q102 0 102 112v52h25zM54 315h209v119q0 56 -26.5 86t-77.5 30t-78 -30
t-27 -86v-119z" />
    <glyph glyph-name="igrave" unicode="&#xec;" 
d="M32 567h25v-567h-25v567zM-11 673l98 -61v-19l-98 58v22z" />
    <glyph glyph-name="iacute" unicode="&#xed;" 
d="M32 567h25v-567h-25v567zM100 651l-98 -58v19l98 61v-22z" />
    <glyph glyph-name="icircumflex" unicode="&#xee;" 
d="M32 567h25v-567h-25v567zM-13 595v20l51 67h14l49 -67v-20l-56 65z" />
    <glyph glyph-name="idieresis" unicode="&#xef;" 
d="M32 567h25v-567h-25v567zM4 645h22v-31h-22v31zM62 645h23v-31h-23v31z" />
    <glyph glyph-name="eth" unicode="&#xf0;" horiz-adv-x="318" 
d="M75 615l69 24l-37 39h29l30 -32l64 23v-16l-53 -19l52 -53q30 -31 45 -67t15 -81v-296q0 -68 -33.5 -105t-96.5 -37q-62 0 -96 37t-34 105v293q0 68 33.5 104t90.5 36q51 0 82 -33q-4 6 -11 15q-7 10 -18 21l-51 54l-80 -28v16zM159 17q51 0 78 31t27 87v297q0 56 -26 87
t-79 31q-51 0 -78 -31t-27 -87v-297q0 -56 27 -87t78 -31z" />
    <glyph glyph-name="ntilde" unicode="&#xf1;" horiz-adv-x="309" 
d="M255 442q0 108 -94 108q-40 0 -71 -26t-33 -77v-447h-25v567h25v-66h1q12 29 38.5 50t71.5 21q53 0 82.5 -30.5t29.5 -98.5v-443h-25v442zM198 616q-12 0 -21.5 4.5t-18 9.5t-17 9.5t-17.5 4.5q-15 0 -21 -9.5t-8 -22.5h-17q1 22 12 37t34 15q11 0 20.5 -4.5t18.5 -10
t17.5 -10t17.5 -4.5q14 0 20 10t8 23h18q-1 -22 -12.5 -37t-33.5 -15z" />
    <glyph glyph-name="ograve" unicode="&#xf2;" horiz-adv-x="318" 
d="M289 137q0 -68 -33.5 -105t-96.5 -37q-62 0 -96 37t-34 105v293q0 68 34 105t96 37q63 0 96.5 -37t33.5 -105v-293zM159 17q51 0 78 31t27 87v297q0 56 -27 87t-78 31t-78 -31t-27 -87v-297q0 -56 27 -87t78 -31zM83 673l145 -61v-19l-145 59v21z" />
    <glyph glyph-name="oacute" unicode="&#xf3;" horiz-adv-x="318" 
d="M241 652l-145 -59v19l145 61v-21zM289 137q0 -68 -33.5 -105t-96.5 -37q-62 0 -96 37t-34 105v293q0 68 34 105t96 37q63 0 96.5 -37t33.5 -105v-293zM159 17q51 0 78 31t27 87v297q0 56 -27 87t-78 31t-78 -31t-27 -87v-297q0 -56 27 -87t78 -31z" />
    <glyph glyph-name="ocircumflex" unicode="&#xf4;" horiz-adv-x="318" 
d="M80 595v18l74 69h13l73 -69v-18l-79 65zM289 137q0 -68 -33.5 -105t-96.5 -37q-62 0 -96 37t-34 105v293q0 68 34 105t96 37q63 0 96.5 -37t33.5 -105v-293zM159 17q51 0 78 31t27 87v297q0 56 -27 87t-78 31t-78 -31t-27 -87v-297q0 -56 27 -87t78 -31z" />
    <glyph glyph-name="otilde" unicode="&#xf5;" horiz-adv-x="318" 
d="M289 137q0 -68 -33.5 -105t-96.5 -37q-62 0 -96 37t-34 105v293q0 68 34 105t96 37q63 0 96.5 -37t33.5 -105v-293zM159 17q51 0 78 31t27 87v297q0 56 -27 87t-78 31t-78 -31t-27 -87v-297q0 -56 27 -87t78 -31zM197 616q-12 0 -21.5 4.5t-18 9.5t-17 9.5t-17.5 4.5
q-15 0 -21 -9.5t-8 -22.5h-17q1 22 12 37t34 15q11 0 20.5 -4.5t18.5 -10t17.5 -10t17.5 -4.5q14 0 20 10t8 23h18q-1 -22 -12.5 -37t-33.5 -15z" />
    <glyph glyph-name="odieresis" unicode="&#xf6;" horiz-adv-x="318" 
d="M111 645h25v-31h-25v31zM183 645h25v-31h-25v31zM289 137q0 -68 -33.5 -105t-96.5 -37q-62 0 -96 37t-34 105v293q0 68 34 105t96 37q63 0 96.5 -37t33.5 -105v-293zM159 17q51 0 78 31t27 87v297q0 56 -27 87t-78 31t-78 -31t-27 -87v-297q0 -56 27 -87t78 -31z" />
    <glyph glyph-name="divide" unicode="&#xf7;" horiz-adv-x="341" 
d="M24 346h293v-22h-293v22zM157 243h27v-36h-27v36zM157 468h27v-36h-27v36z" />
    <glyph glyph-name="oslash" unicode="&#xf8;" horiz-adv-x="318" 
d="M289 137q0 -68 -33.5 -105t-96.5 -37q-40 0 -68 15l-12 -41h-19l15 52q-46 37 -46 116v293q0 68 34 105t96 37q40 0 69 -17l11 37h20l-14 -48q21 -18 32.5 -47t11.5 -67v-293zM54 135q0 -60 28 -89l140 487q-26 17 -63 17q-51 0 -78 -31t-27 -87v-297zM159 17q51 0 78 31
t27 87v297q0 56 -26 87l-141 -486q23 -16 62 -16z" />
    <glyph glyph-name="ugrave" unicode="&#xf9;" horiz-adv-x="309" 
d="M55 125q0 -108 94 -108q19 0 37 6.5t32.5 19t23.5 31.5t10 45v448h26v-567h-26v66h-1q-12 -31 -38.5 -51t-71.5 -20q-53 0 -82.5 30.5t-29.5 98.5v443h26v-442zM77 673l145 -61v-19l-145 59v21z" />
    <glyph glyph-name="uacute" unicode="&#xfa;" horiz-adv-x="309" 
d="M235 652l-145 -59v19l145 61v-21zM55 125q0 -108 94 -108q19 0 37 6.5t32.5 19t23.5 31.5t10 45v448h26v-567h-26v66h-1q-12 -31 -38.5 -51t-71.5 -20q-53 0 -82.5 30.5t-29.5 98.5v443h26v-442z" />
    <glyph glyph-name="ucircumflex" unicode="&#xfb;" horiz-adv-x="309" 
d="M73 595v18l74 69h13l73 -69v-18l-79 65zM55 125q0 -108 94 -108q19 0 37 6.5t32.5 19t23.5 31.5t10 45v448h26v-567h-26v66h-1q-12 -31 -38.5 -51t-71.5 -20q-53 0 -82.5 30.5t-29.5 98.5v443h26v-442z" />
    <glyph glyph-name="udieresis" unicode="&#xfc;" horiz-adv-x="309" 
d="M105 645h25v-31h-25v31zM177 645h25v-31h-25v31zM55 125q0 -108 94 -108q19 0 37 6.5t32.5 19t23.5 31.5t10 45v448h26v-567h-26v66h-1q-12 -31 -38.5 -51t-71.5 -20q-53 0 -82.5 30.5t-29.5 98.5v443h26v-442z" />
    <glyph glyph-name="yacute" unicode="&#xfd;" horiz-adv-x="286" 
d="M282 567l-144 -582q-5 -21 -11.5 -35.5t-16 -23t-23.5 -12.5t-35 -4h-23v21h22q31 0 43.5 13.5t20.5 45.5l17 68h-8l-120 509h26l111 -470h1l115 470h25zM225 652l-145 -59v19l145 61v-21z" />
    <glyph glyph-name="thorn" unicode="&#xfe;" horiz-adv-x="316" 
d="M32 678h25v-179h1q12 29 39 51t75 22q55 0 85 -31.5t30 -99.5v-315q0 -68 -31.5 -99.5t-87.5 -31.5q-46 0 -72 20.5t-38 48.5h-1v-154h-25v768zM262 440q0 110 -98 110q-42 0 -73.5 -27t-33.5 -79v-325q2 -51 32.5 -76.5t72.5 -25.5q48 0 74 27.5t26 82.5v313z" />
    <glyph glyph-name="ydieresis" unicode="&#xff;" horiz-adv-x="286" 
d="M282 567l-144 -582q-5 -21 -11.5 -35.5t-16 -23t-23.5 -12.5t-35 -4h-23v21h22q31 0 43.5 13.5t20.5 45.5l17 68h-8l-120 509h26l111 -470h1l115 470h25zM95 645h25v-31h-25v31zM167 645h25v-31h-25v31z" />
    <glyph glyph-name="Amacron" unicode="&#x100;" horiz-adv-x="335" 
d="M11 0l138 678h35l140 -678h-27l-39 188h-183l-38 -188h-26zM79 211h175l-87 430h-1zM94 739h146v-19h-146v19z" />
    <glyph glyph-name="amacron" unicode="&#x101;" horiz-adv-x="301" 
d="M247 0v64h-1q-11 -28 -38 -48.5t-70 -20.5q-54 0 -84 30.5t-30 98.5v48q0 33 8 54.5t23 36.5t36.5 26.5t47.5 23.5q61 27 84.5 45.5t23.5 38.5v46q0 49 -18.5 78t-68.5 29q-48 0 -72.5 -25.5t-24.5 -73.5v-53h-25v52q0 57 31.5 89.5t91.5 32.5q62 0 87 -34t25 -97v-441
h-26zM143 17q21 0 39.5 6.5t33 20t23 34t8.5 47.5v231q-4 -5 -9.5 -11t-17 -13.5t-29.5 -17t-46 -22.5q-23 -11 -41 -21t-30 -23t-18.5 -31t-6.5 -45v-47q0 -108 94 -108zM86 634h146v-19h-146v19z" />
    <glyph glyph-name="Abreve" unicode="&#x102;" horiz-adv-x="335" 
d="M11 0l138 678h35l140 -678h-27l-39 188h-183l-38 -188h-26zM79 211h175l-87 430h-1zM245 779q-1 -35 -22 -56t-54 -21q-34 0 -56 21t-23 56h20q1 -27 17 -42t42 -15q25 0 40 15t17 42h19z" />
    <glyph glyph-name="abreve" unicode="&#x103;" horiz-adv-x="301" 
d="M247 0v64h-1q-11 -28 -38 -48.5t-70 -20.5q-54 0 -84 30.5t-30 98.5v48q0 33 8 54.5t23 36.5t36.5 26.5t47.5 23.5q61 27 84.5 45.5t23.5 38.5v46q0 49 -18.5 78t-68.5 29q-48 0 -72.5 -25.5t-24.5 -73.5v-53h-25v52q0 57 31.5 89.5t91.5 32.5q62 0 87 -34t25 -97v-441
h-26zM143 17q21 0 39.5 6.5t33 20t23 34t8.5 47.5v231q-4 -5 -9.5 -11t-17 -13.5t-29.5 -17t-46 -22.5q-23 -11 -41 -21t-30 -23t-18.5 -31t-6.5 -45v-47q0 -108 94 -108zM237 674q-1 -35 -22 -56t-54 -21q-34 0 -56 21t-23 56h20q1 -27 17 -42t42 -15q25 0 40 15t17 42h19z
" />
    <glyph glyph-name="Aogonek" unicode="&#x104;" horiz-adv-x="335" 
d="M11 0l138 678h35l140 -678q-13 -10 -24 -22t-11 -26q0 -8 6.5 -14.5t23.5 -6.5h10v-21h-12q-29 0 -40.5 10t-11.5 27t10.5 30.5t21.5 21.5l-39 189h-183l-38 -188h-26zM79 211h175l-87 430h-1z" />
    <glyph glyph-name="aogonek" unicode="&#x105;" horiz-adv-x="301" 
d="M273 0q-13 -10 -24 -22t-11 -26q0 -8 6.5 -14.5t23.5 -6.5h10v-21h-12q-29 0 -40.5 10t-11.5 27t11 30.5t22 21.5v65h-1q-11 -28 -38 -48.5t-70 -20.5q-54 0 -84 30.5t-30 98.5v48q0 33 8 54.5t23 36.5t36.5 26.5t47.5 23.5q61 27 84.5 45.5t23.5 38.5v46q0 49 -18.5 78
t-68.5 29q-48 0 -72.5 -25.5t-24.5 -73.5v-53h-25v52q0 57 31.5 89.5t91.5 32.5q62 0 87 -34t25 -97v-441zM143 17q21 0 39.5 6.5t33 20t23 34t8.5 47.5v231q-4 -5 -9.5 -11t-17 -13.5t-29.5 -17t-46 -22.5q-23 -11 -41 -21t-30 -23t-18.5 -31t-6.5 -45v-47q0 -108 94 -108z
" />
    <glyph glyph-name="Cacute" unicode="&#x106;" horiz-adv-x="330" 
d="M252 757l-145 -59v19l145 61v-21zM171 -5q-39 0 -66 13t-44 35.5t-24.5 51.5t-7.5 62v364q0 33 7.5 62.5t24.5 51.5t44 35t66 13q40 0 65.5 -10.5t40.5 -30t21 -47t6 -61.5v-80h-26v82q0 29 -4.5 52t-16.5 39.5t-32.5 25t-53.5 8.5q-32 0 -53.5 -11t-35.5 -30t-20 -43.5
t-6 -52.5v-370q0 -27 6 -52t20 -44t35.5 -30t53.5 -11q33 0 53.5 9.5t32.5 26.5t16.5 40t4.5 50v117h26v-116q0 -32 -6 -59t-21 -47t-40.5 -31.5t-65.5 -11.5z" />
    <glyph glyph-name="cacute" unicode="&#x107;" horiz-adv-x="306" 
d="M242 652l-145 -59v19l145 61v-21zM283 181v-50q0 -136 -123 -136q-63 0 -97 37t-34 105v295q0 68 34 104t96 36q124 0 124 -134v-40h-26v41q0 111 -98 111q-51 0 -78 -30t-27 -86v-299q0 -56 27.5 -87t78.5 -31q98 0 98 112v52h25z" />
    <glyph glyph-name="Ccircumflex" unicode="&#x108;" horiz-adv-x="330" 
d="M90 700v18l74 69h13l73 -69v-18l-79 65zM171 -5q-39 0 -66 13t-44 35.5t-24.5 51.5t-7.5 62v364q0 33 7.5 62.5t24.5 51.5t44 35t66 13q40 0 65.5 -10.5t40.5 -30t21 -47t6 -61.5v-80h-26v82q0 29 -4.5 52t-16.5 39.5t-32.5 25t-53.5 8.5q-32 0 -53.5 -11t-35.5 -30
t-20 -43.5t-6 -52.5v-370q0 -27 6 -52t20 -44t35.5 -30t53.5 -11q33 0 53.5 9.5t32.5 26.5t16.5 40t4.5 50v117h26v-116q0 -32 -6 -59t-21 -47t-40.5 -31.5t-65.5 -11.5z" />
    <glyph glyph-name="ccircumflex" unicode="&#x109;" horiz-adv-x="306" 
d="M80 595v18l74 69h13l73 -69v-18l-79 65zM283 181v-50q0 -136 -123 -136q-63 0 -97 37t-34 105v295q0 68 34 104t96 36q124 0 124 -134v-40h-26v41q0 111 -98 111q-51 0 -78 -30t-27 -86v-299q0 -56 27.5 -87t78.5 -31q98 0 98 112v52h25z" />
    <glyph glyph-name="Cdotaccent" unicode="&#x10a;" horiz-adv-x="330" 
d="M171 -5q-39 0 -66 13t-44 35.5t-24.5 51.5t-7.5 62v364q0 33 7.5 62.5t24.5 51.5t44 35t66 13q40 0 65.5 -10.5t40.5 -30t21 -47t6 -61.5v-80h-26v82q0 29 -4.5 52t-16.5 39.5t-32.5 25t-53.5 8.5q-32 0 -53.5 -11t-35.5 -30t-20 -43.5t-6 -52.5v-370q0 -27 6 -52t20 -44
t35.5 -30t53.5 -11q33 0 53.5 9.5t32.5 26.5t16.5 40t4.5 50v117h26v-116q0 -32 -6 -59t-21 -47t-40.5 -31.5t-65.5 -11.5zM158 750h26v-31h-26v31z" />
    <glyph glyph-name="cdotaccent" unicode="&#x10b;" horiz-adv-x="306" 
d="M283 181v-50q0 -136 -123 -136q-63 0 -97 37t-34 105v295q0 68 34 104t96 36q124 0 124 -134v-40h-26v41q0 111 -98 111q-51 0 -78 -30t-27 -86v-299q0 -56 27.5 -87t78.5 -31q98 0 98 112v52h25zM148 678h26v-31h-26v31z" />
    <glyph glyph-name="Ccaron" unicode="&#x10c;" horiz-adv-x="330" 
d="M250 789v-19l-74 -68h-13l-73 68v19l79 -65zM171 -5q-39 0 -66 13t-44 35.5t-24.5 51.5t-7.5 62v364q0 33 7.5 62.5t24.5 51.5t44 35t66 13q40 0 65.5 -10.5t40.5 -30t21 -47t6 -61.5v-80h-26v82q0 29 -4.5 52t-16.5 39.5t-32.5 25t-53.5 8.5q-32 0 -53.5 -11t-35.5 -30
t-20 -43.5t-6 -52.5v-370q0 -27 6 -52t20 -44t35.5 -30t53.5 -11q33 0 53.5 9.5t32.5 26.5t16.5 40t4.5 50v117h26v-116q0 -32 -6 -59t-21 -47t-40.5 -31.5t-65.5 -11.5z" />
    <glyph glyph-name="ccaron" unicode="&#x10d;" horiz-adv-x="306" 
d="M240 684v-19l-74 -68h-13l-73 68v19l79 -65zM283 181v-50q0 -136 -123 -136q-63 0 -97 37t-34 105v295q0 68 34 104t96 36q124 0 124 -134v-40h-26v41q0 111 -98 111q-51 0 -78 -30t-27 -86v-299q0 -56 27.5 -87t78.5 -31q98 0 98 112v52h25z" />
    <glyph glyph-name="Dcaron" unicode="&#x10e;" horiz-adv-x="337" 
d="M234 789v-19l-74 -68h-13l-73 68v19l79 -65zM58 22h95q35 0 59.5 11t39.5 29.5t22 43.5t7 52v362q0 28 -7 52.5t-22 43t-39.5 29.5t-59.5 11h-95v-634zM155 678q41 0 70 -13t47 -35t26.5 -51t8.5 -62v-356q0 -32 -8.5 -61.5t-26.5 -51.5t-47 -35t-70 -13h-123v678h123z
" />
    <glyph glyph-name="dcaron" unicode="&#x10f;" horiz-adv-x="316" 
d="M333 676l-8 -89h-17l4 91h21v-2zM286 0h-26v67h-1q-11 -28 -37 -50t-72 -22q-57 0 -88.5 31.5t-31.5 99.5v315q0 68 33.5 99.5t87.5 31.5q47 0 71.5 -20.5t36.5 -49.5h1v176h26v-678zM56 127q0 -110 99 -110q44 0 74.5 28.5t30.5 82.5v312q0 54 -30 82t-73 28
q-48 0 -74.5 -27.5t-26.5 -82.5v-313z" />
    <glyph glyph-name="Dcroat" unicode="&#x110;" horiz-adv-x="347" 
d="M9 356h33v322h123q41 0 70 -13t47 -35t26.5 -51t8.5 -62v-356q0 -32 -8.5 -61.5t-26.5 -51.5t-47 -35t-70 -13h-123v334h-33v22zM68 356h132v-22h-132v-312h95q35 0 59.5 11t39.5 29.5t22 43.5t7 52v362q0 28 -7 52.5t-22 43t-39.5 29.5t-59.5 11h-95v-300z" />
    <glyph glyph-name="dcroat" unicode="&#x111;" horiz-adv-x="316" 
d="M286 631h35v-18h-35v-613h-26v67h-1q-11 -28 -37 -50t-72 -22q-57 0 -88.5 31.5t-31.5 99.5v315q0 68 33.5 99.5t87.5 31.5q47 0 71.5 -20.5t36.5 -49.5h1v111h-109v18h109v47h26v-47zM56 127q0 -110 99 -110q44 0 74.5 28.5t30.5 82.5v312q0 54 -30 82t-73 28
q-48 0 -74.5 -27.5t-26.5 -82.5v-313z" />
    <glyph glyph-name="Emacron" unicode="&#x112;" horiz-adv-x="293" 
d="M32 678h236v-22h-210v-300h153v-22h-153v-312h210v-22h-236v678zM85 739h146v-19h-146v19z" />
    <glyph glyph-name="emacron" unicode="&#x113;" horiz-adv-x="317" 
d="M289 181v-50q0 -136 -127 -136q-63 0 -98 37t-35 105v295q0 68 34 104t96 36q63 0 96.5 -35.5t33.5 -103.5v-139h-235v-159q0 -56 28 -87t80 -31q102 0 102 112v52h25zM54 315h209v119q0 56 -26.5 86t-77.5 30t-78 -30t-27 -86v-119zM88 634h146v-19h-146v19z" />
    <glyph glyph-name="Ebreve" unicode="&#x114;" horiz-adv-x="293" 
d="M32 678h236v-22h-210v-300h153v-22h-153v-312h210v-22h-236v678zM236 779q-1 -35 -22 -56t-54 -21q-34 0 -56 21t-23 56h20q1 -27 17 -42t42 -15q25 0 40 15t17 42h19z" />
    <glyph glyph-name="ebreve" unicode="&#x115;" horiz-adv-x="317" 
d="M289 181v-50q0 -136 -127 -136q-63 0 -98 37t-35 105v295q0 68 34 104t96 36q63 0 96.5 -35.5t33.5 -103.5v-139h-235v-159q0 -56 28 -87t80 -31q102 0 102 112v52h25zM54 315h209v119q0 56 -26.5 86t-77.5 30t-78 -30t-27 -86v-119zM239 674q-1 -35 -22 -56t-54 -21
q-34 0 -56 21t-23 56h20q1 -27 17 -42t42 -15q25 0 40 15t17 42h19z" />
    <glyph glyph-name="Edotaccent" unicode="&#x116;" horiz-adv-x="293" 
d="M32 678h236v-22h-210v-300h153v-22h-153v-312h210v-22h-236v678zM146 750h26v-31h-26v31z" />
    <glyph glyph-name="edotaccent" unicode="&#x117;" horiz-adv-x="317" 
d="M289 181v-50q0 -136 -127 -136q-63 0 -98 37t-35 105v295q0 68 34 104t96 36q63 0 96.5 -35.5t33.5 -103.5v-139h-235v-159q0 -56 28 -87t80 -31q102 0 102 112v52h25zM54 315h209v119q0 56 -26.5 86t-77.5 30t-78 -30t-27 -86v-119zM149 678h26v-31h-26v31z" />
    <glyph glyph-name="Eogonek" unicode="&#x118;" horiz-adv-x="293" 
d="M32 678h236v-22h-210v-300h153v-22h-153v-312h210v-22h-33q-13 -10 -24 -22t-11 -26q0 -8 6.5 -14.5t23.5 -6.5h10v-21h-12q-29 0 -40.5 10t-11.5 27q0 18 11.5 31.5t21.5 21.5h-177v678z" />
    <glyph glyph-name="eogonek" unicode="&#x119;" horiz-adv-x="317" 
d="M210 -90q-29 0 -40.5 10t-11.5 27q0 18 11.5 31t21.5 20q-8 -2 -14.5 -2.5t-14.5 -0.5q-63 0 -98 37t-35 105v295q0 68 34 104t96 36q63 0 96.5 -35.5t33.5 -103.5v-139h-235v-159q0 -56 28 -87t80 -31q102 0 102 112v52h25v-50q0 -44 -14 -72t-39 -46q-8 -6 -17.5 -13
t-17.5 -14.5t-13.5 -16t-5.5 -17.5q0 -8 6.5 -14.5t23.5 -6.5h10v-21h-12zM54 315h209v119q0 56 -26.5 86t-77.5 30t-78 -30t-27 -86v-119z" />
    <glyph glyph-name="Ecaron" unicode="&#x11a;" horiz-adv-x="293" 
d="M238 789v-19l-74 -68h-13l-73 68v19l79 -65zM32 678h236v-22h-210v-300h153v-22h-153v-312h210v-22h-236v678z" />
    <glyph glyph-name="ecaron" unicode="&#x11b;" horiz-adv-x="317" 
d="M241 684v-19l-74 -68h-13l-73 68v19l79 -65zM289 181v-50q0 -136 -127 -136q-63 0 -98 37t-35 105v295q0 68 34 104t96 36q63 0 96.5 -35.5t33.5 -103.5v-139h-235v-159q0 -56 28 -87t80 -31q102 0 102 112v52h25zM54 315h209v119q0 56 -26.5 86t-77.5 30t-78 -30
t-27 -86v-119z" />
    <glyph glyph-name="Gcircumflex" unicode="&#x11c;" horiz-adv-x="340" 
d="M90 700v18l74 69h13l73 -69v-18l-79 65zM181 334h125v-334h-23v70q-9 -32 -36 -53.5t-78 -21.5q-38 0 -64.5 13t-43.5 35.5t-24.5 51.5t-7.5 62v364q0 33 8 62.5t25 51.5t44 35t65 13q40 0 66 -10.5t41.5 -30t21.5 -47t6 -61.5v-60h-25v62q0 29 -5 52t-17 39.5t-33 25
t-54 8.5q-32 0 -54 -11t-35.5 -30t-20 -43.5t-6.5 -52.5v-370q0 -27 6 -52t20 -44t35.5 -30t53.5 -11q31 0 51.5 9t33 25t18 37.5t6.5 47.5v176h-99v22z" />
    <glyph glyph-name="gcircumflex" unicode="&#x11d;" horiz-adv-x="316" 
d="M82 595v18l74 69h13l73 -69v-18l-79 65zM285 567v-537q0 -57 -30.5 -91t-94.5 -34q-63 0 -95 31.5t-32 83.5v29h25v-28q0 -45 25.5 -69.5t76.5 -24.5q52 0 75.5 27.5t23.5 72.5v128h-1q-11 -27 -37 -48.5t-72 -21.5q-57 0 -88.5 31t-31.5 99v226q0 68 33.5 99.5
t87.5 31.5q47 0 71.5 -20.5t36.5 -49.5h1v65h26zM154 106q42 0 72.5 27t32.5 78v229q0 54 -30.5 82t-73.5 28q-48 0 -74 -27.5t-26 -82.5v-224q0 -110 99 -110z" />
    <glyph glyph-name="Gbreve" unicode="&#x11e;" horiz-adv-x="340" 
d="M181 334h125v-334h-23v70q-9 -32 -36 -53.5t-78 -21.5q-38 0 -64.5 13t-43.5 35.5t-24.5 51.5t-7.5 62v364q0 33 8 62.5t25 51.5t44 35t65 13q40 0 66 -10.5t41.5 -30t21.5 -47t6 -61.5v-60h-25v62q0 29 -5 52t-17 39.5t-33 25t-54 8.5q-32 0 -54 -11t-35.5 -30
t-20 -43.5t-6.5 -52.5v-370q0 -27 6 -52t20 -44t35.5 -30t53.5 -11q31 0 51.5 9t33 25t18 37.5t6.5 47.5v176h-99v22zM247 779q-1 -35 -22 -56t-54 -21q-34 0 -56 21t-23 56h20q1 -27 17 -42t42 -15q25 0 40 15t17 42h19z" />
    <glyph glyph-name="gbreve" unicode="&#x11f;" horiz-adv-x="316" 
d="M285 567v-537q0 -57 -30.5 -91t-94.5 -34q-63 0 -95 31.5t-32 83.5v29h25v-28q0 -45 25.5 -69.5t76.5 -24.5q52 0 75.5 27.5t23.5 72.5v128h-1q-11 -27 -37 -48.5t-72 -21.5q-57 0 -88.5 31t-31.5 99v226q0 68 33.5 99.5t87.5 31.5q47 0 71.5 -20.5t36.5 -49.5h1v65h26z
M154 106q42 0 72.5 27t32.5 78v229q0 54 -30.5 82t-73.5 28q-48 0 -74 -27.5t-26 -82.5v-224q0 -110 99 -110zM240 674q-1 -35 -22 -56t-54 -21q-34 0 -56 21t-23 56h20q1 -27 17 -42t42 -15q25 0 40 15t17 42h19z" />
    <glyph glyph-name="Gdotaccent" unicode="&#x120;" horiz-adv-x="340" 
d="M181 334h125v-334h-23v70q-9 -32 -36 -53.5t-78 -21.5q-38 0 -64.5 13t-43.5 35.5t-24.5 51.5t-7.5 62v364q0 33 8 62.5t25 51.5t44 35t65 13q40 0 66 -10.5t41.5 -30t21.5 -47t6 -61.5v-60h-25v62q0 29 -5 52t-17 39.5t-33 25t-54 8.5q-32 0 -54 -11t-35.5 -30
t-20 -43.5t-6.5 -52.5v-370q0 -27 6 -52t20 -44t35.5 -30t53.5 -11q31 0 51.5 9t33 25t18 37.5t6.5 47.5v176h-99v22zM158 750h26v-31h-26v31z" />
    <glyph glyph-name="gdotaccent" unicode="&#x121;" horiz-adv-x="316" 
d="M285 567v-537q0 -57 -30.5 -91t-94.5 -34q-63 0 -95 31.5t-32 83.5v29h25v-28q0 -45 25.5 -69.5t76.5 -24.5q52 0 75.5 27.5t23.5 72.5v128h-1q-11 -27 -37 -48.5t-72 -21.5q-57 0 -88.5 31t-31.5 99v226q0 68 33.5 99.5t87.5 31.5q47 0 71.5 -20.5t36.5 -49.5h1v65h26z
M154 106q42 0 72.5 27t32.5 78v229q0 54 -30.5 82t-73.5 28q-48 0 -74 -27.5t-26 -82.5v-224q0 -110 99 -110zM150 678h26v-31h-26v31z" />
    <glyph glyph-name="Gcommaaccent" unicode="&#x122;" horiz-adv-x="340" 
d="M184 -23l-17 -67h-20l12 69h25v-2zM181 334h125v-334h-23v70q-9 -32 -36 -53.5t-78 -21.5q-38 0 -64.5 13t-43.5 35.5t-24.5 51.5t-7.5 62v364q0 33 8 62.5t25 51.5t44 35t65 13q40 0 66 -10.5t41.5 -30t21.5 -47t6 -61.5v-60h-25v62q0 29 -5 52t-17 39.5t-33 25t-54 8.5
q-32 0 -54 -11t-35.5 -30t-20 -43.5t-6.5 -52.5v-370q0 -27 6 -52t20 -44t35.5 -30t53.5 -11q31 0 51.5 9t33 25t18 37.5t6.5 47.5v176h-99v22z" />
    <glyph glyph-name="gcommaaccent" unicode="&#x123;" horiz-adv-x="316" 
d="M149 609l17 66h19l-12 -69h-24v3zM285 567v-537q0 -57 -30.5 -91t-94.5 -34q-63 0 -95 31.5t-32 83.5v29h25v-28q0 -45 25.5 -69.5t76.5 -24.5q52 0 75.5 27.5t23.5 72.5v128h-1q-11 -27 -37 -48.5t-72 -21.5q-57 0 -88.5 31t-31.5 99v226q0 68 33.5 99.5t87.5 31.5
q47 0 71.5 -20.5t36.5 -49.5h1v65h26zM154 106q42 0 72.5 27t32.5 78v229q0 54 -30.5 82t-73.5 28q-48 0 -74 -27.5t-26 -82.5v-224q0 -110 99 -110z" />
    <glyph glyph-name="Hcircumflex" unicode="&#x124;" horiz-adv-x="331" 
d="M86 700v18l74 69h13l73 -69v-18l-79 65zM273 334h-215v-334h-26v678h26v-322h215v322h27v-678h-27v334z" />
    <glyph glyph-name="hcircumflex" unicode="&#x125;" horiz-adv-x="309" 
d="M74 700v18l74 69h13l73 -69v-18l-79 65zM255 442q0 108 -94 108q-40 0 -71 -26t-33 -77v-447h-25v678h25v-177h1q12 29 38.5 50t71.5 21q53 0 82.5 -30.5t29.5 -98.5v-443h-25v442z" />
    <glyph glyph-name="Hbar" unicode="&#x126;" horiz-adv-x="331" 
d="M-2 503h34v175h26v-175h215v175h27v-175h35v-20h-35v-483h-27v334h-215v-334h-26v483h-34v20zM58 356h215v127h-215v-127z" />
    <glyph glyph-name="hbar" unicode="&#x127;" horiz-adv-x="309" 
d="M32 613h-36v18h36v47h25v-47h110v-18h-110v-112h1q12 29 38.5 50t71.5 21q53 0 82.5 -30.5t29.5 -98.5v-443h-25v442q0 108 -94 108q-40 0 -71 -26t-33 -77v-447h-25v613z" />
    <glyph glyph-name="Itilde" unicode="&#x128;" 
d="M32 678h26v-678h-26v678zM83 727q-12 0 -21.5 4.5t-18 9.5t-17 9.5t-17.5 4.5q-15 0 -21 -9.5t-8 -22.5h-17q1 22 12 37t34 15q11 0 20.5 -4.5t18.5 -10t17.5 -10t17.5 -4.5q14 0 20 10t8 23h18q-1 -22 -12.5 -37t-33.5 -15z" />
    <glyph glyph-name="itilde" unicode="&#x129;" 
d="M32 567h25v-567h-25v567zM79 616q-10 0 -19.5 4.5t-17.5 10t-16 10t-15 4.5q-10 0 -14.5 -9.5t-4.5 -23.5h-18q1 24 10.5 38t25.5 14q10 0 19.5 -4.5t17.5 -10t16 -10t15 -4.5q10 0 14 9.5t5 23.5h17q-2 -52 -35 -52z" />
    <glyph glyph-name="Imacron" unicode="&#x12a;" 
d="M32 678h26v-678h-26v678zM-8 739h105v-18h-105v18z" />
    <glyph glyph-name="imacron" unicode="&#x12b;" 
d="M-4 634h98v-19h-98v19zM32 567h25v-567h-25v567z" />
    <glyph glyph-name="Ibreve" unicode="&#x12c;" 
d="M32 678h26v-678h-26v678zM123 785q-1 -35 -22 -56t-54 -21q-34 0 -56 21t-23 56h20q1 -27 17 -42t42 -15q25 0 40 15t17 42h19z" />
    <glyph glyph-name="ibreve" unicode="&#x12d;" 
d="M32 567h25v-567h-25v567zM46 597q-27 0 -44 19.5t-17 57.5h18q1 -30 12 -44t31 -14q18 0 28.5 14t11.5 44h17q0 -38 -15.5 -57.5t-41.5 -19.5z" />
    <glyph glyph-name="Iogonek" unicode="&#x12e;" 
d="M58 0q-13 -10 -24 -22t-11 -26q0 -8 6.5 -14.5t23.5 -6.5h10v-21h-12q-29 0 -40.5 10t-11.5 27t11 31t22 22v678h26v-678z" />
    <glyph glyph-name="iogonek" unicode="&#x12f;" 
d="M57 0q-13 -10 -24 -22t-11 -26q0 -8 6.5 -14.5t23.5 -6.5h10v-21h-12q-29 0 -40.5 10t-11.5 27q0 18 11.5 31t22.5 21v568h25v-567zM32 678h25v-31h-25v31z" />
    <glyph glyph-name="Idotaccent" unicode="&#x130;" 
d="M32 678h26v-678h-26v678zM33 750h26v-31h-26v31z" />
    <glyph glyph-name="dotlessi" unicode="&#x131;" 
d="M32 567h25v-567h-25v567z" />
    <glyph glyph-name="IJ" unicode="&#x132;" horiz-adv-x="379" 
d="M32 678h26v-678h-26v678zM350 678v-554q0 -60 -28.5 -94.5t-90.5 -34.5q-63 0 -90 34.5t-27 92.5v138h26v-138q0 -48 21.5 -76.5t69.5 -28.5q49 0 70.5 28.5t21.5 76.5v556h27z" />
    <glyph glyph-name="ij" unicode="&#x133;" 
d="M32 567h25v-567h-25v567zM32 678h25v-31h-25v31zM145 567v-597q0 -31 -14.5 -45.5t-49.5 -14.5h-7v21h6q22 0 31 10t9 30v596h25zM120 678h25v-31h-25v31z" />
    <glyph glyph-name="Jcircumflex" unicode="&#x134;" horiz-adv-x="287" 
d="M165 700v18l74 69h13l73 -69v-18l-79 65zM258 678v-554q0 -60 -28.5 -94.5t-90.5 -34.5q-63 0 -90 34.5t-27 92.5v138h26v-138q0 -48 21.5 -76.5t69.5 -28.5q49 0 70.5 28.5t21.5 76.5v556h27z" />
    <glyph glyph-name="jcircumflex" unicode="&#x135;" 
d="M-13 595v20l51 67h14l49 -67v-20l-56 65zM57 567v-597q0 -31 -14.5 -45.5t-49.5 -14.5h-7v21h6q22 0 31 10t9 30v596h25z" />
    <glyph glyph-name="Kcommaaccent" unicode="&#x136;" horiz-adv-x="305" 
d="M175 -23l-17 -67h-20l12 69h25v-2zM58 341v-341h-26v678h26v-328l212 328h28l-214 -330l215 -348h-28z" />
    <glyph glyph-name="kcommaaccent" unicode="&#x137;" horiz-adv-x="270" 
d="M155 -23l-17 -67h-20l12 69h25v-2zM236 0l-179 289v-289h-25v678h25v-383l174 272h27l-175 -273l181 -294h-28z" />
    <glyph glyph-name="Lacute" unicode="&#x139;" horiz-adv-x="258" 
d="M130 757l-145 -59v19l145 61v-21zM32 678h26v-656h188v-22h-214v678z" />
    <glyph glyph-name="lacute" unicode="&#x13a;" 
d="M101 757l-98 -58v19l98 61v-22zM32 678h25v-678h-25v678z" />
    <glyph glyph-name="Lcommaaccent" unicode="&#x13b;" horiz-adv-x="258" 
d="M147 -23l-17 -67h-20l12 69h25v-2zM32 678h26v-656h188v-22h-214v678z" />
    <glyph glyph-name="lcommaaccent" unicode="&#x13c;" 
d="M57 -23l-17 -67h-20l12 69h25v-2zM32 678h25v-678h-25v678z" />
    <glyph glyph-name="Lcaron" unicode="&#x13d;" horiz-adv-x="258" 
d="M32 678h26v-656h188v-22h-214v678zM159 676l-9 -97h-18l4 99h23v-2z" />
    <glyph glyph-name="lcaron" unicode="&#x13e;" 
d="M105 676l-8 -89h-17l4 91h21v-2zM32 678h25v-678h-25v678z" />
    <glyph glyph-name="Ldot" unicode="&#x13f;" horiz-adv-x="258" 
d="M32 678h26v-656h188v-22h-214v678zM165 356h26v-37h-26v37z" />
    <glyph glyph-name="ldot" unicode="&#x140;" horiz-adv-x="128" 
d="M32 678h25v-678h-25v678zM95 360h26v-37h-26v37z" />
    <glyph glyph-name="Lslash" unicode="&#x141;" horiz-adv-x="274" 
d="M48 274l-36 -17v23l36 17v381h26v-368l132 65v-24l-132 -64v-265h188v-22h-214v274z" />
    <glyph glyph-name="lslash" unicode="&#x142;" horiz-adv-x="99" 
d="M3 356l34 31v291h25v-268l37 35v-26l-37 -35v-384h-25v361l-34 -31v26z" />
    <glyph glyph-name="Nacute" unicode="&#x143;" horiz-adv-x="326" 
d="M255 757l-145 -59v19l145 61v-21zM55 625v-625h-23v678h31l208 -612v612h24v-678h-28z" />
    <glyph glyph-name="nacute" unicode="&#x144;" horiz-adv-x="309" 
d="M242 652l-145 -59v19l145 61v-21zM255 442q0 108 -94 108q-40 0 -71 -26t-33 -77v-447h-25v567h25v-66h1q12 29 38.5 50t71.5 21q53 0 82.5 -30.5t29.5 -98.5v-443h-25v442z" />
    <glyph glyph-name="Ncommaaccent" unicode="&#x145;" horiz-adv-x="326" 
d="M169 -23l-17 -67h-20l12 69h25v-2zM55 625v-625h-23v678h31l208 -612v612h24v-678h-28z" />
    <glyph glyph-name="ncommaaccent" unicode="&#x146;" horiz-adv-x="309" 
d="M170 -23l-17 -67h-20l12 69h25v-2zM255 442q0 108 -94 108q-40 0 -71 -26t-33 -77v-447h-25v567h25v-66h1q12 29 38.5 50t71.5 21q53 0 82.5 -30.5t29.5 -98.5v-443h-25v442z" />
    <glyph glyph-name="Ncaron" unicode="&#x147;" horiz-adv-x="326" 
d="M253 789v-19l-74 -68h-13l-73 68v19l79 -65zM55 625v-625h-23v678h31l208 -612v612h24v-678h-28z" />
    <glyph glyph-name="ncaron" unicode="&#x148;" horiz-adv-x="309" 
d="M240 684v-19l-74 -68h-13l-73 68v19l79 -65zM255 442q0 108 -94 108q-40 0 -71 -26t-33 -77v-447h-25v567h25v-66h1q12 29 38.5 50t71.5 21q53 0 82.5 -30.5t29.5 -98.5v-443h-25v442z" />
    <glyph glyph-name="Eng" unicode="&#x14a;" horiz-adv-x="326" 
d="M220 -69q27 0 38 11t11 34v24l-214 624v-624h-23v678h31l208 -606v606h24v-702q0 -34 -17 -50t-57 -16h-20v21h19z" />
    <glyph glyph-name="eng" unicode="&#x14b;" horiz-adv-x="309" 
d="M201 -69h6q27 0 37.5 10t10.5 33v468q0 108 -94 108q-20 0 -39 -7t-33.5 -20.5t-23 -33.5t-8.5 -47v-442h-25v567h25v-66h1q12 29 38.5 50t71.5 21q53 0 82.5 -30.5t29.5 -98.5v-470q0 -32 -16 -47.5t-55 -15.5h-8v21z" />
    <glyph glyph-name="Omacron" unicode="&#x14c;" horiz-adv-x="349" 
d="M102 739h146v-19h-146v19zM174 17q31 0 54 11t37 30t21 44t7 52v370q0 28 -7 52.5t-21 43.5t-37 30t-54 11t-53.5 -11t-36.5 -30t-21 -43.5t-7 -52.5v-370q0 -27 7 -52t21 -44t36.5 -30t53.5 -11zM174 -5q-38 0 -65.5 13t-45 35.5t-26 51.5t-8.5 62v364q0 33 8.5 62.5
t26 51.5t45 35t65.5 13q39 0 66.5 -13t45 -35t26 -51.5t8.5 -62.5v-364q0 -33 -8.5 -62t-26 -51.5t-45 -35.5t-66.5 -13z" />
    <glyph glyph-name="omacron" unicode="&#x14d;" horiz-adv-x="318" 
d="M87 634h146v-19h-146v19zM289 137q0 -68 -33.5 -105t-96.5 -37q-62 0 -96 37t-34 105v293q0 68 34 105t96 37q63 0 96.5 -37t33.5 -105v-293zM159 17q51 0 78 31t27 87v297q0 56 -27 87t-78 31t-78 -31t-27 -87v-297q0 -56 27 -87t78 -31z" />
    <glyph glyph-name="Obreve" unicode="&#x14e;" horiz-adv-x="349" 
d="M174 17q31 0 54 11t37 30t21 44t7 52v370q0 28 -7 52.5t-21 43.5t-37 30t-54 11t-53.5 -11t-36.5 -30t-21 -43.5t-7 -52.5v-370q0 -27 7 -52t21 -44t36.5 -30t53.5 -11zM174 -5q-38 0 -65.5 13t-45 35.5t-26 51.5t-8.5 62v364q0 33 8.5 62.5t26 51.5t45 35t65.5 13
q39 0 66.5 -13t45 -35t26 -51.5t8.5 -62.5v-364q0 -33 -8.5 -62t-26 -51.5t-45 -35.5t-66.5 -13zM252 785q-1 -35 -22 -56t-54 -21q-34 0 -56 21t-23 56h20q1 -27 17 -42t42 -15q25 0 40 15t17 42h19z" />
    <glyph glyph-name="obreve" unicode="&#x14f;" horiz-adv-x="318" 
d="M289 137q0 -68 -33.5 -105t-96.5 -37q-62 0 -96 37t-34 105v293q0 68 34 105t96 37q63 0 96.5 -37t33.5 -105v-293zM159 17q51 0 78 31t27 87v297q0 56 -27 87t-78 31t-78 -31t-27 -87v-297q0 -56 27 -87t78 -31zM238 674q-1 -35 -22 -56t-54 -21q-34 0 -56 21t-23 56h20
q1 -27 17 -42t42 -15q25 0 40 15t17 42h19z" />
    <glyph glyph-name="Ohungarumlaut" unicode="&#x150;" horiz-adv-x="349" 
d="M193 787l-43 -87h-20l39 87h24zM261 787l-43 -87h-20l39 87h24zM174 17q31 0 54 11t37 30t21 44t7 52v370q0 28 -7 52.5t-21 43.5t-37 30t-54 11t-53.5 -11t-36.5 -30t-21 -43.5t-7 -52.5v-370q0 -27 7 -52t21 -44t36.5 -30t53.5 -11zM174 -5q-38 0 -65.5 13t-45 35.5
t-26 51.5t-8.5 62v364q0 33 8.5 62.5t26 51.5t45 35t65.5 13q39 0 66.5 -13t45 -35t26 -51.5t8.5 -62.5v-364q0 -33 -8.5 -62t-26 -51.5t-45 -35.5t-66.5 -13z" />
    <glyph glyph-name="ohungarumlaut" unicode="&#x151;" horiz-adv-x="318" 
d="M177 682l-43 -87h-20l39 87h24zM245 682l-43 -87h-20l39 87h24zM289 137q0 -68 -33.5 -105t-96.5 -37q-62 0 -96 37t-34 105v293q0 68 34 105t96 37q63 0 96.5 -37t33.5 -105v-293zM159 17q51 0 78 31t27 87v297q0 56 -27 87t-78 31t-78 -31t-27 -87v-297q0 -56 27 -87
t78 -31z" />
    <glyph glyph-name="OE" unicode="&#x152;" horiz-adv-x="555" 
d="M171 -5q-37 0 -64 13t-44 35.5t-25.5 51.5t-8.5 62v364q0 33 8.5 62.5t26 51.5t44.5 35t65 13q49 0 78.5 -23.5t42.5 -60.5v79h237v-22h-211v-300h153v-22h-153v-312h211v-22h-237v79q-13 -37 -42.5 -60.5t-80.5 -23.5zM174 17q31 0 54 11t37.5 30t21.5 44t7 52v370
q0 28 -7 52.5t-21.5 43.5t-37.5 30t-54 11t-53.5 -11t-36.5 -30t-21 -43.5t-7 -52.5v-370q0 -27 7 -52t21 -44t36.5 -30t53.5 -11z" />
    <glyph glyph-name="oe" unicode="&#x153;" horiz-adv-x="552" 
d="M159 -5q-62 0 -96 37t-34 105v293q0 68 34 105t96 37q91 0 117 -80q25 80 118 80q63 0 96.5 -35.5t33.5 -103.5v-139h-235v-159q0 -56 28 -87t80 -31q102 0 102 112v52h25v-50q0 -136 -127 -136q-48 0 -78 21t-43 60q-26 -81 -117 -81zM159 17q51 0 78 31t27 87v297
q0 56 -27 87t-78 31t-78 -31t-27 -87v-297q0 -56 27 -87t78 -31zM289 315h209v119q0 56 -26.5 86t-77.5 30t-78 -30t-27 -86v-119z" />
    <glyph glyph-name="Racute" unicode="&#x154;" horiz-adv-x="303" 
d="M227 757l-145 -59v19l145 61v-21zM58 343v-343h-26v678h117q65 0 96 -30t31 -86v-112q0 -56 -31 -86.5t-97 -30.5h-56l206 -333h-29zM58 656v-301h89q102 0 102 94v113q0 94 -102 94h-89z" />
    <glyph glyph-name="racute" unicode="&#x155;" horiz-adv-x="182" 
d="M184 652l-145 -59v19l145 61v-21zM164 543h-4q-41 0 -71 -26t-32 -77v-440h-25v567h25v-71h2q11 29 36.5 51t68.5 22v-26z" />
    <glyph glyph-name="Rcommaaccent" unicode="&#x156;" horiz-adv-x="303" 
d="M169 -23l-17 -67h-20l12 69h25v-2zM58 343v-343h-26v678h117q65 0 96 -30t31 -86v-112q0 -56 -31 -86.5t-97 -30.5h-56l206 -333h-29zM58 656v-301h89q102 0 102 94v113q0 94 -102 94h-89z" />
    <glyph glyph-name="rcommaaccent" unicode="&#x157;" horiz-adv-x="182" 
d="M56 -23l-17 -67h-20l12 69h25v-2zM164 543h-4q-41 0 -71 -26t-32 -77v-440h-25v567h25v-71h2q11 29 36.5 51t68.5 22v-26z" />
    <glyph glyph-name="Rcaron" unicode="&#x158;" horiz-adv-x="303" 
d="M228 789v-19l-74 -68h-13l-73 68v19l79 -65zM58 343v-343h-26v678h117q65 0 96 -30t31 -86v-112q0 -56 -31 -86.5t-97 -30.5h-56l206 -333h-29zM58 656v-301h89q102 0 102 94v113q0 94 -102 94h-89z" />
    <glyph glyph-name="rcaron" unicode="&#x159;" horiz-adv-x="182" 
d="M178 684v-19l-74 -68h-13l-73 68v19l79 -65zM164 543h-4q-41 0 -71 -26t-32 -77v-440h-25v567h25v-71h2q11 29 36.5 51t68.5 22v-26z" />
    <glyph glyph-name="Sacute" unicode="&#x15a;" horiz-adv-x="317" 
d="M240 757l-145 -59v19l145 61v-21zM161 -5q-68 0 -102.5 36t-34.5 94v112h25v-112q0 -50 28.5 -79t83.5 -29q53 0 79.5 31.5t26.5 75.5v39q0 22 -4.5 40t-14 35t-25 34t-36.5 37l-67 66q-24 23 -41 42t-28.5 37.5t-17 38t-5.5 44.5v27q0 57 34.5 88t91.5 31
q128 0 128 -122v-84h-24v85q0 51 -26.5 75t-77.5 24q-45 0 -73.5 -25t-28.5 -72v-27q0 -42 21.5 -72t61.5 -68l68 -66q22 -22 39 -41t28.5 -38t17 -40t5.5 -47v-40q0 -27 -8 -50.5t-24.5 -41t-41.5 -28t-58 -10.5z" />
    <glyph glyph-name="sacute" unicode="&#x15b;" horiz-adv-x="299" 
d="M231 652l-145 -59v19l145 61v-21zM273 121q0 -60 -30 -93t-96 -33q-63 0 -93 35.5t-30 93.5v54h25v-54q0 -48 23.5 -77.5t74.5 -29.5q54 0 77.5 26t23.5 77v18q0 17 -3 32t-11.5 29t-22 28.5t-34.5 31.5l-67 52q-43 33 -62.5 62t-19.5 69v17q0 51 28.5 82t87.5 31
q121 0 121 -124v-46h-25v47q0 51 -23 76t-73 25q-47 0 -69 -24t-22 -66v-17q0 -32 15 -56t56 -55l67 -52q24 -19 40 -35.5t25 -33t13 -34t4 -38.5v-18z" />
    <glyph glyph-name="Scircumflex" unicode="&#x15c;" horiz-adv-x="317" 
d="M78 700v18l74 69h13l73 -69v-18l-79 65zM161 -5q-68 0 -102.5 36t-34.5 94v112h25v-112q0 -50 28.5 -79t83.5 -29q53 0 79.5 31.5t26.5 75.5v39q0 22 -4.5 40t-14 35t-25 34t-36.5 37l-67 66q-24 23 -41 42t-28.5 37.5t-17 38t-5.5 44.5v27q0 57 34.5 88t91.5 31
q128 0 128 -122v-84h-24v85q0 51 -26.5 75t-77.5 24q-45 0 -73.5 -25t-28.5 -72v-27q0 -42 21.5 -72t61.5 -68l68 -66q22 -22 39 -41t28.5 -38t17 -40t5.5 -47v-40q0 -27 -8 -50.5t-24.5 -41t-41.5 -28t-58 -10.5z" />
    <glyph glyph-name="scircumflex" unicode="&#x15d;" horiz-adv-x="299" 
d="M69 595v18l74 69h13l73 -69v-18l-79 65zM273 121q0 -60 -30 -93t-96 -33q-63 0 -93 35.5t-30 93.5v54h25v-54q0 -48 23.5 -77.5t74.5 -29.5q54 0 77.5 26t23.5 77v18q0 17 -3 32t-11.5 29t-22 28.5t-34.5 31.5l-67 52q-43 33 -62.5 62t-19.5 69v17q0 51 28.5 82t87.5 31
q121 0 121 -124v-46h-25v47q0 51 -23 76t-73 25q-47 0 -69 -24t-22 -66v-17q0 -32 15 -56t56 -55l67 -52q24 -19 40 -35.5t25 -33t13 -34t4 -38.5v-18z" />
    <glyph glyph-name="Scedilla" unicode="&#x15e;" horiz-adv-x="317" 
d="M137 -39v36q-57 5 -85 39.5t-28 88.5v112h25v-112q0 -50 28.5 -79t83.5 -29q53 0 79.5 31.5t26.5 75.5v39q0 22 -4.5 40t-14 35t-25 34t-36.5 37l-67 66q-24 23 -41 42t-28.5 37.5t-17 38t-5.5 44.5v27q0 57 34.5 88t91.5 31q128 0 128 -122v-84h-24v85q0 51 -26.5 75
t-77.5 24q-45 0 -73.5 -25t-28.5 -72v-27q0 -42 21.5 -72t61.5 -68l68 -66q22 -22 39 -41t28.5 -38t17 -40t5.5 -47v-40q0 -54 -32.5 -91.5t-99.5 -38.5h-7v-17q22 0 34.5 -8t12.5 -25q0 -19 -21 -28t-60 -9v16q57 0 57 21q0 16 -31 16h-9z" />
    <glyph glyph-name="scedilla" unicode="&#x15f;" horiz-adv-x="299" 
d="M145 -5v-17q22 0 34.5 -8t12.5 -25q0 -19 -21 -28t-60 -9v16q57 0 57 21q0 16 -31 16h-9v36q-54 5 -79 39t-25 88v54h25v-54q0 -48 23.5 -77.5t74.5 -29.5q54 0 77.5 26t23.5 77v18q0 17 -3 32t-11.5 29t-22 28.5t-34.5 31.5l-67 52q-43 33 -62.5 62t-19.5 69v17
q0 51 28.5 82t87.5 31q121 0 121 -124v-46h-25v47q0 51 -23 76t-73 25q-47 0 -69 -24t-22 -66v-17q0 -32 15 -56t56 -55l67 -52q24 -19 40 -35.5t25 -33t13 -34t4 -38.5v-18q0 -60 -29.5 -92.5t-94.5 -33.5h-4z" />
    <glyph glyph-name="Scaron" unicode="&#x160;" horiz-adv-x="317" 
d="M238 789v-19l-74 -68h-13l-73 68v19l79 -65zM161 -5q-68 0 -102.5 36t-34.5 94v112h25v-112q0 -50 28.5 -79t83.5 -29q53 0 79.5 31.5t26.5 75.5v39q0 22 -4.5 40t-14 35t-25 34t-36.5 37l-67 66q-24 23 -41 42t-28.5 37.5t-17 38t-5.5 44.5v27q0 57 34.5 88t91.5 31
q128 0 128 -122v-84h-24v85q0 51 -26.5 75t-77.5 24q-45 0 -73.5 -25t-28.5 -72v-27q0 -42 21.5 -72t61.5 -68l68 -66q22 -22 39 -41t28.5 -38t17 -40t5.5 -47v-40q0 -27 -8 -50.5t-24.5 -41t-41.5 -28t-58 -10.5z" />
    <glyph glyph-name="scaron" unicode="&#x161;" horiz-adv-x="299" 
d="M229 684v-19l-74 -68h-13l-73 68v19l79 -65zM273 121q0 -60 -30 -93t-96 -33q-63 0 -93 35.5t-30 93.5v54h25v-54q0 -48 23.5 -77.5t74.5 -29.5q54 0 77.5 26t23.5 77v18q0 17 -3 32t-11.5 29t-22 28.5t-34.5 31.5l-67 52q-43 33 -62.5 62t-19.5 69v17q0 51 28.5 82
t87.5 31q121 0 121 -124v-46h-25v47q0 51 -23 76t-73 25q-47 0 -69 -24t-22 -66v-17q0 -32 15 -56t56 -55l67 -52q24 -19 40 -35.5t25 -33t13 -34t4 -38.5v-18z" />
    <glyph glyph-name="Tcommaaccent" unicode="&#x162;" horiz-adv-x="294" 
d="M160 -23l-17 -67h-20l12 69h25v-2zM14 678h266v-22h-120v-656h-26v656h-120v22z" />
    <glyph glyph-name="tcommaaccent" unicode="&#x163;" horiz-adv-x="192" 
d="M120 -23l-17 -67h-20l12 69h25v-2zM12 567h45v111h26v-111h86v-20h-86v-471q0 -30 12.5 -42.5t43.5 -12.5h30v-21h-32q-45 0 -62.5 18t-17.5 59v470h-45v20z" />
    <glyph glyph-name="Tcaron" unicode="&#x164;" horiz-adv-x="294" 
d="M227 789v-19l-74 -68h-13l-73 68v19l79 -65zM14 678h266v-22h-120v-656h-26v656h-120v22z" />
    <glyph glyph-name="tcaron" unicode="&#x165;" horiz-adv-x="192" 
d="M153 676l-8 -89h-17l4 91h21v-2zM12 567h45v111h26v-111h86v-20h-86v-471q0 -30 12.5 -42.5t43.5 -12.5h30v-21h-32q-45 0 -62.5 18t-17.5 59v470h-45v20z" />
    <glyph glyph-name="Tbar" unicode="&#x166;" horiz-adv-x="294" 
d="M14 678h266v-22h-120v-200h81v-20h-81v-436h-26v436h-81v20h81v200h-120v22z" />
    <glyph glyph-name="tbar" unicode="&#x167;" horiz-adv-x="192" 
d="M83 678v-111h86v-20h-86v-95h86v-18h-86v-358q0 -30 12.5 -42.5t43.5 -12.5h30v-21h-32q-45 0 -62.5 18t-17.5 59v357h-45v18h45v95h-45v20h45v111h26z" />
    <glyph glyph-name="Utilde" unicode="&#x168;" horiz-adv-x="334" 
d="M304 678v-530q0 -32 -7 -60t-23 -48.5t-42.5 -32.5t-64.5 -12t-64.5 12t-42.5 32.5t-23 48.5t-7 60v530h26v-532q0 -27 5.5 -50.5t18.5 -41t34.5 -27.5t52.5 -10t52.5 10t35 27.5t19 41t5.5 50.5v532h25zM205 727q-12 0 -21.5 4.5t-18 9.5t-17 9.5t-17.5 4.5
q-15 0 -21 -9.5t-8 -22.5h-17q1 22 12 37t34 15q11 0 20.5 -4.5t18.5 -10t17.5 -10t17.5 -4.5q14 0 20 10t8 23h18q-1 -22 -12.5 -37t-33.5 -15z" />
    <glyph glyph-name="utilde" unicode="&#x169;" horiz-adv-x="309" 
d="M55 125q0 -108 94 -108q19 0 37 6.5t32.5 19t23.5 31.5t10 45v448h26v-567h-26v66h-1q-12 -31 -38.5 -51t-71.5 -20q-53 0 -82.5 30.5t-29.5 98.5v443h26v-442zM193 616q-12 0 -21.5 4.5t-18 9.5t-17 9.5t-17.5 4.5q-15 0 -21 -9.5t-8 -22.5h-17q1 22 12 37t34 15
q11 0 20.5 -4.5t18.5 -10t17.5 -10t17.5 -4.5q14 0 20 10t8 23h18q-1 -22 -12.5 -37t-33.5 -15z" />
    <glyph glyph-name="Umacron" unicode="&#x16a;" horiz-adv-x="334" 
d="M304 678v-530q0 -32 -7 -60t-23 -48.5t-42.5 -32.5t-64.5 -12t-64.5 12t-42.5 32.5t-23 48.5t-7 60v530h26v-532q0 -27 5.5 -50.5t18.5 -41t34.5 -27.5t52.5 -10t52.5 10t35 27.5t19 41t5.5 50.5v532h25zM95 739h146v-19h-146v19z" />
    <glyph glyph-name="umacron" unicode="&#x16b;" horiz-adv-x="309" 
d="M55 125q0 -108 94 -108q19 0 37 6.5t32.5 19t23.5 31.5t10 45v448h26v-567h-26v66h-1q-12 -31 -38.5 -51t-71.5 -20q-53 0 -82.5 30.5t-29.5 98.5v443h26v-442zM80 634h146v-19h-146v19z" />
    <glyph glyph-name="Ubreve" unicode="&#x16c;" horiz-adv-x="334" 
d="M304 678v-530q0 -32 -7 -60t-23 -48.5t-42.5 -32.5t-64.5 -12t-64.5 12t-42.5 32.5t-23 48.5t-7 60v530h26v-532q0 -27 5.5 -50.5t18.5 -41t34.5 -27.5t52.5 -10t52.5 10t35 27.5t19 41t5.5 50.5v532h25zM245 779q-1 -35 -22 -56t-54 -21q-34 0 -56 21t-23 56h20
q1 -27 17 -42t42 -15q25 0 40 15t17 42h19z" />
    <glyph glyph-name="ubreve" unicode="&#x16d;" horiz-adv-x="309" 
d="M55 125q0 -108 94 -108q19 0 37 6.5t32.5 19t23.5 31.5t10 45v448h26v-567h-26v66h-1q-12 -31 -38.5 -51t-71.5 -20q-53 0 -82.5 30.5t-29.5 98.5v443h26v-442zM231 674q-1 -35 -22 -56t-54 -21q-34 0 -56 21t-23 56h20q1 -27 17 -42t42 -15q25 0 40 15t17 42h19z" />
    <glyph glyph-name="Uring" unicode="&#x16e;" horiz-adv-x="334" 
d="M112 728q0 23 15.5 39.5t39.5 16.5q25 0 41 -16.5t16 -39.5q0 -24 -16 -40t-41 -16q-24 0 -39.5 16t-15.5 40zM129 728q0 -17 10.5 -29t27.5 -12t28.5 12t11.5 29t-11.5 29t-28.5 12t-27.5 -12t-10.5 -29zM304 678v-530q0 -32 -7 -60t-23 -48.5t-42.5 -32.5t-64.5 -12
t-64.5 12t-42.5 32.5t-23 48.5t-7 60v530h26v-532q0 -27 5.5 -50.5t18.5 -41t34.5 -27.5t52.5 -10t52.5 10t35 27.5t19 41t5.5 50.5v532h25z" />
    <glyph glyph-name="uring" unicode="&#x16f;" horiz-adv-x="309" 
d="M98 648q0 23 15.5 39.5t39.5 16.5q25 0 41 -16.5t16 -39.5q0 -24 -16 -40t-41 -16q-24 0 -39.5 16t-15.5 40zM115 648q0 -17 10.5 -29t27.5 -12t28.5 12t11.5 29t-11.5 29t-28.5 12t-27.5 -12t-10.5 -29zM55 125q0 -108 94 -108q19 0 37 6.5t32.5 19t23.5 31.5t10 45v448
h26v-567h-26v66h-1q-12 -31 -38.5 -51t-71.5 -20q-53 0 -82.5 30.5t-29.5 98.5v443h26v-442z" />
    <glyph glyph-name="Uhungarumlaut" unicode="&#x170;" horiz-adv-x="334" 
d="M304 678v-530q0 -32 -7 -60t-23 -48.5t-42.5 -32.5t-64.5 -12t-64.5 12t-42.5 32.5t-23 48.5t-7 60v530h26v-532q0 -27 5.5 -50.5t18.5 -41t34.5 -27.5t52.5 -10t52.5 10t35 27.5t19 41t5.5 50.5v532h25zM185 787l-43 -87h-20l39 87h24zM253 787l-43 -87h-20l39 87h24z
" />
    <glyph glyph-name="uhungarumlaut" unicode="&#x171;" horiz-adv-x="309" 
d="M55 125q0 -108 94 -108q19 0 37 6.5t32.5 19t23.5 31.5t10 45v448h26v-567h-26v66h-1q-12 -31 -38.5 -51t-71.5 -20q-53 0 -82.5 30.5t-29.5 98.5v443h26v-442zM171 682l-43 -87h-20l39 87h24zM239 682l-43 -87h-20l39 87h24z" />
    <glyph glyph-name="Uogonek" unicode="&#x172;" horiz-adv-x="334" 
d="M304 678v-530q0 -51 -17.5 -88t-59.5 -54q-9 -3 -19 -8.5t-18.5 -12t-14.5 -15t-6 -18.5q0 -8 6.5 -14.5t24.5 -6.5h9v-21h-12q-29 0 -40.5 10t-11.5 27q0 14 9 27t21 21h-8q-38 0 -64.5 12t-42.5 32.5t-23 48.5t-7 60v530h26v-532q0 -27 5.5 -50.5t18.5 -41t34.5 -27.5
t52.5 -10t52.5 10t35 27.5t19 41t5.5 50.5v532h25z" />
    <glyph glyph-name="uogonek" unicode="&#x173;" horiz-adv-x="309" 
d="M278 0q-13 -10 -24 -22t-11 -26q0 -8 6.5 -14.5t23.5 -6.5h10v-21h-12q-29 0 -40.5 10t-11.5 27t11 30.5t22 21.5v67h-1q-12 -31 -38.5 -51t-71.5 -20q-53 0 -82.5 30.5t-29.5 98.5v443h26v-442q0 -108 94 -108q20 0 38.5 6.5t33 20t23 34t8.5 47.5v442h26v-567z" />
    <glyph glyph-name="Wcircumflex" unicode="&#x174;" horiz-adv-x="481" 
d="M160 706v18l74 69h13l73 -69v-18l-79 65zM240 603l-99 -603h-31l-96 678h26l87 -623h1l101 623h25l101 -622h1l86 622h25l-95 -678h-32l-99 603h-1z" />
    <glyph glyph-name="wcircumflex" unicode="&#x175;" horiz-adv-x="450" 
d="M144 595v18l74 69h13l73 -69v-18l-79 65zM443 567l-95 -567h-29l-94 508l-93 -508h-30l-95 567h25l86 -511h1l95 511h24l95 -511h1l85 511h24z" />
    <glyph glyph-name="Ycircumflex" unicode="&#x176;" horiz-adv-x="302" 
d="M165 258v-258h-26v258l-130 420h27l116 -381h1l114 381h26zM72 706v18l74 69h13l73 -69v-18l-79 65z" />
    <glyph glyph-name="ycircumflex" unicode="&#x177;" horiz-adv-x="286" 
d="M282 567l-144 -582q-5 -21 -11.5 -35.5t-16 -23t-23.5 -12.5t-35 -4h-23v21h22q31 0 43.5 13.5t20.5 45.5l17 68h-8l-120 509h26l111 -470h1l115 470h25zM64 595v18l74 69h13l73 -69v-18l-79 65z" />
    <glyph glyph-name="Ydieresis" unicode="&#x178;" horiz-adv-x="302" 
d="M165 258v-258h-26v258l-130 420h27l116 -381h1l114 381h26zM104 750h25v-31h-25v31zM176 750h25v-31h-25v31z" />
    <glyph glyph-name="Zacute" unicode="&#x179;" horiz-adv-x="295" 
d="M241 757l-145 -59v19l145 61v-21zM46 22h222v-22h-250v22l230 634h-209v22h238v-22z" />
    <glyph glyph-name="zacute" unicode="&#x17a;" horiz-adv-x="273" 
d="M228 652l-145 -59v19l145 61v-21zM47 21h201v-21h-228v21l205 525h-189v21h216v-21z" />
    <glyph glyph-name="Zdotaccent" unicode="&#x17b;" horiz-adv-x="295" 
d="M46 22h222v-22h-250v22l230 634h-209v22h238v-22zM147 775h26v-31h-26v31z" />
    <glyph glyph-name="zdotaccent" unicode="&#x17c;" horiz-adv-x="273" 
d="M47 21h201v-21h-228v21l205 525h-189v21h216v-21zM134 678h26v-31h-26v31z" />
    <glyph glyph-name="Zcaron" unicode="&#x17d;" horiz-adv-x="295" 
d="M239 789v-19l-74 -68h-13l-73 68v19l79 -65zM46 22h222v-22h-250v22l230 634h-209v22h238v-22z" />
    <glyph glyph-name="zcaron" unicode="&#x17e;" horiz-adv-x="273" 
d="M226 684v-19l-74 -68h-13l-73 68v19l79 -65zM47 21h201v-21h-228v21l205 525h-189v21h216v-21z" />
    <glyph glyph-name="florin" unicode="&#x192;" horiz-adv-x="224" 
d="M14 421h60l9 176q2 42 21 61.5t64 19.5h31v-21h-30q-32 0 -45.5 -14t-15.5 -48l-9 -174h100v-21h-101l-25 -490h-25l25 490h-59v21z" />
    <glyph glyph-name="Scommaaccent" unicode="&#x218;" horiz-adv-x="317" 
d="M172 -23l-17 -67h-20l12 69h25v-2zM161 -5q-68 0 -102.5 36t-34.5 94v112h25v-112q0 -50 28.5 -79t83.5 -29q53 0 79.5 31.5t26.5 75.5v39q0 22 -4.5 40t-14 35t-25 34t-36.5 37l-67 66q-24 23 -41 42t-28.5 37.5t-17 38t-5.5 44.5v27q0 57 34.5 88t91.5 31
q128 0 128 -122v-84h-24v85q0 51 -26.5 75t-77.5 24q-45 0 -73.5 -25t-28.5 -72v-27q0 -42 21.5 -72t61.5 -68l68 -66q22 -22 39 -41t28.5 -38t17 -40t5.5 -47v-40q0 -27 -8 -50.5t-24.5 -41t-41.5 -28t-58 -10.5z" />
    <glyph glyph-name="scommaaccent" unicode="&#x219;" horiz-adv-x="299" 
d="M163 -23l-17 -67h-20l12 69h25v-2zM273 121q0 -60 -30 -93t-96 -33q-63 0 -93 35.5t-30 93.5v54h25v-54q0 -48 23.5 -77.5t74.5 -29.5q54 0 77.5 26t23.5 77v18q0 17 -3 32t-11.5 29t-22 28.5t-34.5 31.5l-67 52q-43 33 -62.5 62t-19.5 69v17q0 51 28.5 82t87.5 31
q121 0 121 -124v-46h-25v47q0 51 -23 76t-73 25q-47 0 -69 -24t-22 -66v-17q0 -32 15 -56t56 -55l67 -52q24 -19 40 -35.5t25 -33t13 -34t4 -38.5v-18z" />
    <glyph glyph-name="uni021A" unicode="&#x21a;" horiz-adv-x="294" 
d="M160 -23l-17 -67h-20l12 69h25v-2zM14 678h266v-22h-120v-656h-26v656h-120v22z" />
    <glyph glyph-name="uni021B" unicode="&#x21b;" horiz-adv-x="192" 
d="M120 -23l-17 -67h-20l12 69h25v-2zM12 567h45v111h26v-111h86v-20h-86v-471q0 -30 12.5 -42.5t43.5 -12.5h30v-21h-32q-45 0 -62.5 18t-17.5 59v470h-45v20z" />
    <glyph glyph-name="uni0237" unicode="&#x237;" 
d="M57 567v-597q0 -31 -14.5 -45.5t-49.5 -14.5h-7v21h6q22 0 31 10t9 30v596h25z" />
    <glyph glyph-name="circumflex" unicode="&#x2c6;" horiz-adv-x="400" 
d="M120 595v18l74 69h13l73 -69v-18l-79 65z" />
    <glyph glyph-name="caron" unicode="&#x2c7;" horiz-adv-x="400" 
d="M280 684v-19l-74 -68h-13l-73 68v19l79 -65z" />
    <glyph glyph-name="breve" unicode="&#x2d8;" horiz-adv-x="400" 
d="M277 674q-1 -35 -22 -56t-54 -21q-34 0 -56 21t-23 56h20q1 -27 17 -42t42 -15q25 0 40 15t17 42h19z" />
    <glyph glyph-name="dotaccent" unicode="&#x2d9;" horiz-adv-x="400" 
d="M187 678h26v-31h-26v31z" />
    <glyph glyph-name="ring" unicode="&#x2da;" horiz-adv-x="400" 
d="M144 648q0 23 15.5 39.5t39.5 16.5q25 0 41 -16.5t16 -39.5q0 -24 -16 -40t-41 -16q-24 0 -39.5 16t-15.5 40zM161 648q0 -17 10.5 -29t27.5 -12t28.5 12t11.5 29t-11.5 29t-28.5 12t-27.5 -12t-10.5 -29z" />
    <glyph glyph-name="ogonek" unicode="&#x2db;" horiz-adv-x="400" 
d="M210 0q-13 -10 -24 -22t-11 -26q0 -8 6.5 -14.5t23.5 -6.5h10v-21h-12q-29 0 -40.5 10t-11.5 27q0 20 14 33t24 20h21z" />
    <glyph glyph-name="tilde" unicode="&#x2dc;" horiz-adv-x="400" 
d="M236 616q-12 0 -21.5 4.5t-18 9.5t-17 9.5t-17.5 4.5q-15 0 -21 -9.5t-8 -22.5h-17q1 22 12 37t34 15q11 0 20.5 -4.5t18.5 -10t17.5 -10t17.5 -4.5q14 0 20 10t8 23h18q-1 -22 -12.5 -37t-33.5 -15z" />
    <glyph glyph-name="hungarumlaut" unicode="&#x2dd;" horiz-adv-x="400" 
d="M219 682l-43 -87h-20l39 87h24zM287 682l-43 -87h-20l39 87h24z" />
    <glyph glyph-name="Wgrave" unicode="&#x1e80;" horiz-adv-x="481" 
d="M240 603l-99 -603h-31l-96 678h26l87 -623h1l101 623h25l101 -622h1l86 622h25l-95 -678h-32l-99 603h-1zM167 784l145 -61v-19l-145 59v21z" />
    <glyph glyph-name="wgrave" unicode="&#x1e81;" horiz-adv-x="450" 
d="M443 567l-95 -567h-29l-94 508l-93 -508h-30l-95 567h25l86 -511h1l95 511h24l95 -511h1l85 511h24zM151 673l145 -61v-19l-145 59v21z" />
    <glyph glyph-name="Wacute" unicode="&#x1e82;" horiz-adv-x="481" 
d="M313 763l-145 -59v19l145 61v-21zM240 603l-99 -603h-31l-96 678h26l87 -623h1l101 623h25l101 -622h1l86 622h25l-95 -678h-32l-99 603h-1z" />
    <glyph glyph-name="wacute" unicode="&#x1e83;" horiz-adv-x="450" 
d="M296 652l-145 -59v19l145 61v-21zM443 567l-95 -567h-29l-94 508l-93 -508h-30l-95 567h25l86 -511h1l95 511h24l95 -511h1l85 511h24z" />
    <glyph glyph-name="Wdieresis" unicode="&#x1e84;" horiz-adv-x="481" 
d="M192 756h25v-31h-25v31zM264 756h25v-31h-25v31zM240 603l-99 -603h-31l-96 678h26l87 -623h1l101 623h25l101 -622h1l86 622h25l-95 -678h-32l-99 603h-1z" />
    <glyph glyph-name="wdieresis" unicode="&#x1e85;" horiz-adv-x="450" 
d="M175 645h25v-31h-25v31zM247 645h25v-31h-25v31zM443 567l-95 -567h-29l-94 508l-93 -508h-30l-95 567h25l86 -511h1l95 511h24l95 -511h1l85 511h24z" />
    <glyph glyph-name="Ygrave" unicode="&#x1ef2;" horiz-adv-x="302" 
d="M165 258v-258h-26v258l-130 420h27l116 -381h1l114 381h26zM79 784l145 -61v-19l-145 59v21z" />
    <glyph glyph-name="ygrave" unicode="&#x1ef3;" horiz-adv-x="286" 
d="M282 567l-144 -582q-5 -21 -11.5 -35.5t-16 -23t-23.5 -12.5t-35 -4h-23v21h22q31 0 43.5 13.5t20.5 45.5l17 68h-8l-120 509h26l111 -470h1l115 470h25zM72 673l145 -61v-19l-145 59v21z" />
    <glyph glyph-name="uni2009" unicode="&#x2009;" horiz-adv-x="50" 
 />
    <glyph glyph-name="endash" unicode="&#x2013;" horiz-adv-x="219" 
d="M13 326h194v-22h-194v22z" />
    <glyph glyph-name="emdash" unicode="&#x2014;" horiz-adv-x="467" 
d="M13 326h442v-22h-442v22z" />
    <glyph glyph-name="quoteleft" unicode="&#x2018;" horiz-adv-x="83" 
d="M24 579l17 99h19l-12 -101h-24v2z" />
    <glyph glyph-name="quoteright" unicode="&#x2019;" horiz-adv-x="83" 
d="M59 676l-17 -99h-20l12 101h25v-2z" />
    <glyph glyph-name="quotesinglbase" unicode="&#x201a;" horiz-adv-x="83" 
d="M59 52l-17 -99h-20l12 101h25v-2z" />
    <glyph glyph-name="quotedblleft" unicode="&#x201c;" horiz-adv-x="140" 
d="M81 579l17 99h20l-12 -101h-25v2zM24 579l17 99h19l-12 -101h-24v2z" />
    <glyph glyph-name="quotedblright" unicode="&#x201d;" horiz-adv-x="140" 
d="M59 676l-17 -99h-20l12 101h25v-2zM116 676l-17 -99h-19l12 101h24v-2z" />
    <glyph glyph-name="quotedblbase" unicode="&#x201e;" horiz-adv-x="140" 
d="M59 52l-17 -99h-20l12 101h25v-2zM116 52l-17 -99h-19l12 101h24v-2z" />
    <glyph glyph-name="dagger" unicode="&#x2020;" horiz-adv-x="213" 
d="M16 567h79v111h23v-111h79v-21h-79v-546h-23v546h-79v21z" />
    <glyph glyph-name="daggerdbl" unicode="&#x2021;" horiz-adv-x="213" 
d="M16 567h79v111h23v-111h79v-21h-79v-414h79v-21h-79v-111h-23v111h-79v21h79v414h-79v21z" />
    <glyph glyph-name="bullet" unicode="&#x2022;" horiz-adv-x="191" 
d="M27 337q0 27 19.5 48t48.5 21q28 0 48.5 -21t20.5 -48q0 -29 -20.5 -49t-48.5 -20q-29 0 -48.5 20t-19.5 49z" />
    <glyph glyph-name="ellipsis" unicode="&#x2026;" horiz-adv-x="288" 
d="M35 36h26v-36h-26v36zM131 36h27v-36h-27v36zM227 36h26v-36h-26v36z" />
    <glyph glyph-name="perthousand" unicode="&#x2030;" horiz-adv-x="652" 
d="M364 678h22l-330 -678h-23zM300 -4q-54 0 -77 32t-23 88v49q0 56 23 88t77 32t76.5 -32t22.5 -88v-49q0 -56 -22.5 -88t-76.5 -32zM300 17q43 0 58.5 26t15.5 71v53q0 45 -15.5 71t-58.5 26t-59 -26t-16 -71v-53q0 -45 16 -71t59 -26zM121 393q-54 0 -77 32t-23 88v49
q0 56 23 88t77 32t76.5 -32t22.5 -88v-49q0 -56 -22.5 -88t-76.5 -32zM121 414q42 0 58 26t16 71v53q0 45 -16 71t-58 26q-44 0 -59.5 -26t-15.5 -71v-53q0 -45 15.5 -71t59.5 -26zM532 -4q-54 0 -77 32t-23 88v49q0 56 23 88t77 32t76.5 -32t22.5 -88v-49q0 -56 -22.5 -88
t-76.5 -32zM532 17q43 0 58.5 26t15.5 71v53q0 45 -15.5 71t-58.5 26t-59 -26t-16 -71v-53q0 -45 16 -71t59 -26z" />
    <glyph glyph-name="guilsinglleft" unicode="&#x2039;" horiz-adv-x="137" 
d="M111 378l-62 -146l62 -146h-23l-62 146l62 146h23z" />
    <glyph glyph-name="guilsinglright" unicode="&#x203a;" horiz-adv-x="137" 
d="M111 232l-63 -146h-22l62 146l-62 146h22z" />
    <glyph glyph-name="fraction" unicode="&#x2044;" horiz-adv-x="146" 
d="M249 678l-330 -678h-21l329 678h22z" />
    <glyph glyph-name="Euro" unicode="&#x20ac;" horiz-adv-x="345" 
d="M15 391h36v130q0 33 7 62.5t23 51.5t41.5 35t63.5 13q39 0 65 -10.5t41 -30t21 -47t6 -61.5v-67h-26v69q0 58 -21.5 91.5t-84.5 33.5q-31 0 -52 -11t-34 -30t-18.5 -43.5t-5.5 -52.5v-133h156v-18h-156v-34h156v-18h-156v-167q0 -27 5.5 -52t18.5 -44t34 -30t52 -11
t51.5 9.5t32.5 26.5t17 40t5 50v103h26v-102q0 -32 -6 -59t-21.5 -47t-41 -31.5t-64.5 -11.5q-38 0 -63.5 13t-41.5 35.5t-23 51.5t-7 62v164h-36v18h36v34h-36v18z" />
    <glyph glyph-name="trademark" unicode="&#x2122;" horiz-adv-x="340" 
d="M293 650h-3l-50 -211h-13l-50 211h-2v-211h-17v239h29l46 -199h1l46 199h30v-239h-17v211zM19 678h110v-15h-46v-224h-18v224h-46v15z" />
    <glyph glyph-name="onethird" unicode="&#x2153;" horiz-adv-x="243" 
d="M124 -4q-40 0 -59 18.5t-19 52.5v28h21v-29q0 -53 57 -53q31 0 43.5 13.5t12.5 37.5v37q0 20 -9.5 32t-36.5 12h-29v17h28q26 0 34.5 14.5t8.5 29.5v22q0 49 -53 49q-30 0 -41.5 -14.5t-11.5 -37.5v-18h-20v18q0 28 16 48.5t57 20.5q38 0 56 -17t18 -49v-21q0 -17 -8 -32
t-29 -21q23 -4 32 -18t9 -35v-37q0 -31 -17.5 -49.5t-59.5 -18.5zM21 348h201v-16h-201v16zM112 647h-1l-53 -57h-1v23l59 65h19v-290h-23v259z" />
    <glyph glyph-name="twothirds" unicode="&#x2154;" horiz-adv-x="243" 
d="M124 -4q-40 0 -59 18.5t-19 52.5v28h21v-29q0 -53 57 -53q31 0 43.5 13.5t12.5 37.5v37q0 20 -9.5 32t-36.5 12h-29v17h28q26 0 34.5 14.5t8.5 29.5v22q0 49 -53 49q-30 0 -41.5 -14.5t-11.5 -37.5v-18h-20v18q0 28 16 48.5t57 20.5q38 0 56 -17t18 -49v-21q0 -17 -8 -32
t-29 -21q23 -4 32 -18t9 -35v-37q0 -31 -17.5 -49.5t-59.5 -18.5zM47 414q0 33 9.5 50t35.5 37l46 37q20 16 29.5 28.5t9.5 29.5v17q0 50 -53 50q-24 0 -39.5 -13.5t-15.5 -40.5v-33h-20v33q0 35 20 54t55 19q74 0 74 -69v-17q0 -20 -10.5 -36t-34.5 -35l-48 -38
q-11 -9 -18.5 -16.5t-11.5 -15.5t-5.5 -17t-1.5 -22v-11h127v-18h-148v27zM21 348h201v-16h-201v16z" />
    <glyph glyph-name="minus" unicode="&#x2212;" horiz-adv-x="341" 
d="M24 346h293v-22h-293v22z" />
    <glyph glyph-name="idotaccent" 
d="M32 567h25v-567h-25v567zM32 678h25v-31h-25v31z" />
    <glyph glyph-name="space_uni0326" horiz-adv-x="400" 
d="M202 -23l-17 -67h-20l12 69h25v-2z" />
    <glyph glyph-name="G.alt" horiz-adv-x="335" 
d="M181 334h125v-190q0 -32 -6 -59t-21.5 -47t-41.5 -31.5t-66 -11.5q-39 0 -66 13t-44 35.5t-24.5 51.5t-7.5 62v364q0 33 8 62.5t25 51.5t44 35t65 13q40 0 66 -10.5t41.5 -30t21.5 -47t6 -61.5v-60h-26v62q0 29 -5 52t-17 39.5t-33 25t-53 8.5t-54 -11t-35.5 -30
t-20 -43.5t-6.5 -52.5v-370q0 -27 6 -52t20 -44t35.5 -30t53.5 -11q33 0 54 9.5t33.5 26.5t17 40t4.5 50v169h-99v22z" />
    <glyph glyph-name="Q.alt1" horiz-adv-x="349" 
d="M257 17q-17 -11 -37 -16.5t-46 -5.5q-38 0 -65.5 13t-45 35.5t-26 51.5t-8.5 62v364q0 33 8.5 62.5t26 51.5t45 35t65.5 13q39 0 66.5 -13t45 -35t26 -51.5t8.5 -62.5v-364q0 -38 -11 -70.5t-35 -55.5l59 -76v-1h-28zM174 17q41 0 68 19l-68 90v1h28l58 -76q17 19 25 46
t8 57v370q0 28 -7 52.5t-21 43.5t-37 30t-54 11t-53.5 -11t-36.5 -30t-21 -43.5t-7 -52.5v-370q0 -27 7 -52t21 -44t36.5 -30t53.5 -11z" />
    <glyph glyph-name="Q.alt2" horiz-adv-x="349" 
d="M179 -5q-39 0 -67 13t-46.5 35.5t-27.5 51.5t-9 62v364q0 33 8.5 62.5t26 51.5t45 35t65.5 13q39 0 66.5 -13t45 -35t26 -51.5t8.5 -62.5v-364q0 -57 -25 -100.5t-80 -56.5v-20q0 -26 11.5 -41t35.5 -15q22 0 32 13t10 35v41h16v-41q0 -29 -14.5 -47.5t-46.5 -18.5
q-33 0 -51 19.5t-18 54.5v15h-11zM215 22q41 13 59.5 49t18.5 83v370q0 28 -7 52.5t-21 43.5t-37 30t-54 11t-53.5 -11t-36.5 -30t-21 -43.5t-7 -52.5v-370q0 -32 8 -59t26 -46l1 1q-16 24 -16 59q0 44 22 63t49 19q30 0 49.5 -19.5t19.5 -64.5v-85zM190 16v92
q0 35 -12.5 50t-33.5 15q-22 0 -36.5 -16.5t-14.5 -51.5q0 -39 22 -64t65 -25h10z" />
    <glyph glyph-name="R.alt1" horiz-adv-x="321" 
d="M32 678h117q64 0 95.5 -29.5t31.5 -85.5v-113q0 -42 -18 -68t-58 -36q90 -12 90 -109v-194q0 -23 20 -23h5v-20h-13q-39 0 -39 41v198q0 45 -23 69t-75 24h-107v-332h-26v678zM58 656v-302h89q51 0 76.5 24t25.5 69v115q0 94 -102 94h-89z" />
    <glyph glyph-name="R.alt2" horiz-adv-x="322" 
d="M32 678h117q64 0 95.5 -29.5t31.5 -85.5v-113q0 -42 -18 -68t-58 -36q90 -12 90 -109v-237h-26v239q0 45 -23.5 69t-75.5 24h-107v-332h-26v678zM58 656v-302h89q51 0 76.5 24t25.5 69v115q0 94 -102 94h-89z" />
    <glyph glyph-name="g.alt1" horiz-adv-x="314" 
d="M92 151q-70 0 -70 58q0 32 20.5 47.5t47.5 20.5q-68 31 -68 127v27q0 67 33.5 101.5t94.5 34.5h140v-20h-74v-2q62 -23 62 -115v-26q0 -67 -33.5 -102.5t-94.5 -35.5h-32q-28 0 -50.5 -10.5t-22.5 -40.5q0 -41 49 -41h74q124 0 124 -107v-26q0 -60 -31 -98t-104 -38
q-70 0 -101 34t-31 100v53h25v-53q0 -56 24 -84t83 -28q31 0 52.5 9t34 24t18 35.5t5.5 44.5v25q0 86 -99 86h-76zM150 287q50 0 76.5 30t26.5 85v30q0 55 -26.5 84.5t-76.5 29.5t-76.5 -29.5t-26.5 -84.5v-30q0 -55 26.5 -85t76.5 -30z" />
    <glyph glyph-name="g.alt2" horiz-adv-x="313" 
d="M278 403q0 -67 -33.5 -102t-94.5 -35h-24q-34 0 -55 -17t-21 -58v-17h117q124 0 124 -107v-26q0 -60 -30.5 -98t-104.5 -38q-69 0 -100.5 34t-31.5 100v53h25v-53q0 -56 24 -84t83 -28q31 0 52.5 9t34 24t18 35.5t5.5 44.5v25q0 86 -99 86h-141v34q0 46 20 65t47 25v1
q-71 28 -71 127v28q0 67 33.5 101.5t94.5 34.5h140v-20h-74v-2q62 -23 62 -115v-27zM150 287q50 0 76.5 29.5t26.5 85.5v30q0 55 -26.5 84.5t-76.5 29.5t-76.5 -29.5t-26.5 -84.5v-30q0 -56 26.5 -85.5t76.5 -29.5z" />
    <glyph glyph-name="Gbreve.alt" horiz-adv-x="335" 
d="M181 334h125v-190q0 -32 -6 -59t-21.5 -47t-41.5 -31.5t-66 -11.5q-39 0 -66 13t-44 35.5t-24.5 51.5t-7.5 62v364q0 33 8 62.5t25 51.5t44 35t65 13q40 0 66 -10.5t41.5 -30t21.5 -47t6 -61.5v-60h-26v62q0 29 -5 52t-17 39.5t-33 25t-53 8.5t-54 -11t-35.5 -30
t-20 -43.5t-6.5 -52.5v-370q0 -27 6 -52t20 -44t35.5 -30t53.5 -11q33 0 54 9.5t33.5 26.5t17 40t4.5 50v169h-99v22zM246 779q-1 -35 -22 -56t-54 -21q-34 0 -56 21t-23 56h20q1 -27 17 -42t42 -15q25 0 40 15t17 42h19z" />
    <glyph glyph-name="Gcircumflex.alt" horiz-adv-x="335" 
d="M90 700v18l74 69h13l73 -69v-18l-79 65zM181 334h125v-190q0 -32 -6 -59t-21.5 -47t-41.5 -31.5t-66 -11.5q-39 0 -66 13t-44 35.5t-24.5 51.5t-7.5 62v364q0 33 8 62.5t25 51.5t44 35t65 13q40 0 66 -10.5t41.5 -30t21.5 -47t6 -61.5v-60h-26v62q0 29 -5 52t-17 39.5
t-33 25t-53 8.5t-54 -11t-35.5 -30t-20 -43.5t-6.5 -52.5v-370q0 -27 6 -52t20 -44t35.5 -30t53.5 -11q33 0 54 9.5t33.5 26.5t17 40t4.5 50v169h-99v22z" />
    <glyph glyph-name="Gcommaaccent.alt" horiz-adv-x="335" 
d="M184 -23l-17 -67h-20l12 69h25v-2zM181 334h125v-190q0 -32 -6 -59t-21.5 -47t-41.5 -31.5t-66 -11.5q-39 0 -66 13t-44 35.5t-24.5 51.5t-7.5 62v364q0 33 8 62.5t25 51.5t44 35t65 13q40 0 66 -10.5t41.5 -30t21.5 -47t6 -61.5v-60h-26v62q0 29 -5 52t-17 39.5t-33 25
t-53 8.5t-54 -11t-35.5 -30t-20 -43.5t-6.5 -52.5v-370q0 -27 6 -52t20 -44t35.5 -30t53.5 -11q33 0 54 9.5t33.5 26.5t17 40t4.5 50v169h-99v22z" />
    <glyph glyph-name="Gdotaccent.alt" horiz-adv-x="335" 
d="M181 334h125v-190q0 -32 -6 -59t-21.5 -47t-41.5 -31.5t-66 -11.5q-39 0 -66 13t-44 35.5t-24.5 51.5t-7.5 62v364q0 33 8 62.5t25 51.5t44 35t65 13q40 0 66 -10.5t41.5 -30t21.5 -47t6 -61.5v-60h-26v62q0 29 -5 52t-17 39.5t-33 25t-53 8.5t-54 -11t-35.5 -30
t-20 -43.5t-6.5 -52.5v-370q0 -27 6 -52t20 -44t35.5 -30t53.5 -11q33 0 54 9.5t33.5 26.5t17 40t4.5 50v169h-99v22zM156 750h26v-31h-26v31z" />
    <glyph glyph-name="Racute.alt1" horiz-adv-x="321" 
d="M232 757l-145 -59v19l145 61v-21zM32 678h117q64 0 95.5 -29.5t31.5 -85.5v-113q0 -42 -18 -68t-58 -36q90 -12 90 -109v-194q0 -23 20 -23h5v-20h-13q-39 0 -39 41v198q0 45 -23 69t-75 24h-107v-332h-26v678zM58 656v-302h89q51 0 76.5 24t25.5 69v115q0 94 -102 94
h-89z" />
    <glyph glyph-name="Racute.alt2" horiz-adv-x="322" 
d="M230 757l-145 -59v19l145 61v-21zM32 678h117q64 0 95.5 -29.5t31.5 -85.5v-113q0 -42 -18 -68t-58 -36q90 -12 90 -109v-237h-26v239q0 45 -23.5 69t-75.5 24h-107v-332h-26v678zM58 656v-302h89q51 0 76.5 24t25.5 69v115q0 94 -102 94h-89z" />
    <glyph glyph-name="Rcaron.alt1" horiz-adv-x="321" 
d="M231 789v-19l-74 -68h-13l-73 68v19l79 -65zM32 678h117q64 0 95.5 -29.5t31.5 -85.5v-113q0 -42 -18 -68t-58 -36q90 -12 90 -109v-194q0 -23 20 -23h5v-20h-13q-39 0 -39 41v198q0 45 -23 69t-75 24h-107v-332h-26v678zM58 656v-302h89q51 0 76.5 24t25.5 69v115
q0 94 -102 94h-89z" />
    <glyph glyph-name="Rcaron.alt2" horiz-adv-x="322" 
d="M227 789v-19l-74 -68h-13l-73 68v19l79 -65zM32 678h117q64 0 95.5 -29.5t31.5 -85.5v-113q0 -42 -18 -68t-58 -36q90 -12 90 -109v-237h-26v239q0 45 -23.5 69t-75.5 24h-107v-332h-26v678zM58 656v-302h89q51 0 76.5 24t25.5 69v115q0 94 -102 94h-89z" />
    <glyph glyph-name="Rcommaaccent.alt1" horiz-adv-x="321" 
d="M178 -23l-17 -67h-20l12 69h25v-2zM32 678h117q64 0 95.5 -29.5t31.5 -85.5v-113q0 -42 -18 -68t-58 -36q90 -12 90 -109v-194q0 -23 20 -23h5v-20h-13q-39 0 -39 41v198q0 45 -23 69t-75 24h-107v-332h-26v678zM58 656v-302h89q51 0 76.5 24t25.5 69v115q0 94 -102 94
h-89z" />
    <glyph glyph-name="Rcommaaccent.alt2" horiz-adv-x="322" 
d="M174 -23l-17 -67h-20l12 69h25v-2zM32 678h117q64 0 95.5 -29.5t31.5 -85.5v-113q0 -42 -18 -68t-58 -36q90 -12 90 -109v-237h-26v239q0 45 -23.5 69t-75.5 24h-107v-332h-26v678zM58 656v-302h89q51 0 76.5 24t25.5 69v115q0 94 -102 94h-89z" />
    <glyph glyph-name="gbreve.alt1" horiz-adv-x="314" 
d="M92 151q-70 0 -70 58q0 32 20.5 47.5t47.5 20.5q-68 31 -68 127v27q0 67 33.5 101.5t94.5 34.5h140v-20h-74v-2q62 -23 62 -115v-26q0 -67 -33.5 -102.5t-94.5 -35.5h-32q-28 0 -50.5 -10.5t-22.5 -40.5q0 -41 49 -41h74q124 0 124 -107v-26q0 -60 -31 -98t-104 -38
q-70 0 -101 34t-31 100v53h25v-53q0 -56 24 -84t83 -28q31 0 52.5 9t34 24t18 35.5t5.5 44.5v25q0 86 -99 86h-76zM150 287q50 0 76.5 30t26.5 85v30q0 55 -26.5 84.5t-76.5 29.5t-76.5 -29.5t-26.5 -84.5v-30q0 -55 26.5 -85t76.5 -30zM235 674q-1 -35 -22 -56t-54 -21
q-34 0 -56 21t-23 56h20q1 -27 17 -42t42 -15q25 0 40 15t17 42h19z" />
    <glyph glyph-name="gbreve.alt2" horiz-adv-x="313" 
d="M278 403q0 -67 -33.5 -102t-94.5 -35h-24q-34 0 -55 -17t-21 -58v-17h117q124 0 124 -107v-26q0 -60 -30.5 -98t-104.5 -38q-69 0 -100.5 34t-31.5 100v53h25v-53q0 -56 24 -84t83 -28q31 0 52.5 9t34 24t18 35.5t5.5 44.5v25q0 86 -99 86h-141v34q0 46 20 65t47 25v1
q-71 28 -71 127v28q0 67 33.5 101.5t94.5 34.5h140v-20h-74v-2q62 -23 62 -115v-27zM150 287q50 0 76.5 29.5t26.5 85.5v30q0 55 -26.5 84.5t-76.5 29.5t-76.5 -29.5t-26.5 -84.5v-30q0 -56 26.5 -85.5t76.5 -29.5zM237 674q-1 -35 -22 -56t-54 -21q-34 0 -56 21t-23 56h20
q1 -27 17 -42t42 -15q25 0 40 15t17 42h19z" />
    <glyph glyph-name="gcircumflex.alt1" horiz-adv-x="314" 
d="M78 595v18l74 69h13l73 -69v-18l-79 65zM92 151q-70 0 -70 58q0 32 20.5 47.5t47.5 20.5q-68 31 -68 127v27q0 67 33.5 101.5t94.5 34.5h140v-20h-74v-2q62 -23 62 -115v-26q0 -67 -33.5 -102.5t-94.5 -35.5h-32q-28 0 -50.5 -10.5t-22.5 -40.5q0 -41 49 -41h74
q124 0 124 -107v-26q0 -60 -31 -98t-104 -38q-70 0 -101 34t-31 100v53h25v-53q0 -56 24 -84t83 -28q31 0 52.5 9t34 24t18 35.5t5.5 44.5v25q0 86 -99 86h-76zM150 287q50 0 76.5 30t26.5 85v30q0 55 -26.5 84.5t-76.5 29.5t-76.5 -29.5t-26.5 -84.5v-30q0 -55 26.5 -85
t76.5 -30z" />
    <glyph glyph-name="gcircumflex.alt2" horiz-adv-x="313" 
d="M79 595v18l74 69h13l73 -69v-18l-79 65zM278 403q0 -67 -33.5 -102t-94.5 -35h-24q-34 0 -55 -17t-21 -58v-17h117q124 0 124 -107v-26q0 -60 -30.5 -98t-104.5 -38q-69 0 -100.5 34t-31.5 100v53h25v-53q0 -56 24 -84t83 -28q31 0 52.5 9t34 24t18 35.5t5.5 44.5v25
q0 86 -99 86h-141v34q0 46 20 65t47 25v1q-71 28 -71 127v28q0 67 33.5 101.5t94.5 34.5h140v-20h-74v-2q62 -23 62 -115v-27zM150 287q50 0 76.5 29.5t26.5 85.5v30q0 55 -26.5 84.5t-76.5 29.5t-76.5 -29.5t-26.5 -84.5v-30q0 -56 26.5 -85.5t76.5 -29.5z" />
    <glyph glyph-name="gcommaaccent.alt1" horiz-adv-x="314" 
d="M143 609l17 66h19l-12 -69h-24v3zM92 151q-70 0 -70 58q0 32 20.5 47.5t47.5 20.5q-68 31 -68 127v27q0 67 33.5 101.5t94.5 34.5h140v-20h-74v-2q62 -23 62 -115v-26q0 -67 -33.5 -102.5t-94.5 -35.5h-32q-28 0 -50.5 -10.5t-22.5 -40.5q0 -41 49 -41h74q124 0 124 -107
v-26q0 -60 -31 -98t-104 -38q-70 0 -101 34t-31 100v53h25v-53q0 -56 24 -84t83 -28q31 0 52.5 9t34 24t18 35.5t5.5 44.5v25q0 86 -99 86h-76zM150 287q50 0 76.5 30t26.5 85v30q0 55 -26.5 84.5t-76.5 29.5t-76.5 -29.5t-26.5 -84.5v-30q0 -55 26.5 -85t76.5 -30z" />
    <glyph glyph-name="gcommaaccent.alt2" horiz-adv-x="313" 
d="M143 609l17 66h19l-12 -69h-24v3zM278 403q0 -67 -33.5 -102t-94.5 -35h-24q-34 0 -55 -17t-21 -58v-17h117q124 0 124 -107v-26q0 -60 -30.5 -98t-104.5 -38q-69 0 -100.5 34t-31.5 100v53h25v-53q0 -56 24 -84t83 -28q31 0 52.5 9t34 24t18 35.5t5.5 44.5v25
q0 86 -99 86h-141v34q0 46 20 65t47 25v1q-71 28 -71 127v28q0 67 33.5 101.5t94.5 34.5h140v-20h-74v-2q62 -23 62 -115v-27zM150 287q50 0 76.5 29.5t26.5 85.5v30q0 55 -26.5 84.5t-76.5 29.5t-76.5 -29.5t-26.5 -84.5v-30q0 -56 26.5 -85.5t76.5 -29.5z" />
    <glyph glyph-name="gdotaccent.alt1" horiz-adv-x="314" 
d="M92 151q-70 0 -70 58q0 32 20.5 47.5t47.5 20.5q-68 31 -68 127v27q0 67 33.5 101.5t94.5 34.5h140v-20h-74v-2q62 -23 62 -115v-26q0 -67 -33.5 -102.5t-94.5 -35.5h-32q-28 0 -50.5 -10.5t-22.5 -40.5q0 -41 49 -41h74q124 0 124 -107v-26q0 -60 -31 -98t-104 -38
q-70 0 -101 34t-31 100v53h25v-53q0 -56 24 -84t83 -28q31 0 52.5 9t34 24t18 35.5t5.5 44.5v25q0 86 -99 86h-76zM150 287q50 0 76.5 30t26.5 85v30q0 55 -26.5 84.5t-76.5 29.5t-76.5 -29.5t-26.5 -84.5v-30q0 -55 26.5 -85t76.5 -30zM148 678h26v-31h-26v31z" />
    <glyph glyph-name="gdotaccent.alt2" horiz-adv-x="313" 
d="M278 403q0 -67 -33.5 -102t-94.5 -35h-24q-34 0 -55 -17t-21 -58v-17h117q124 0 124 -107v-26q0 -60 -30.5 -98t-104.5 -38q-69 0 -100.5 34t-31.5 100v53h25v-53q0 -56 24 -84t83 -28q31 0 52.5 9t34 24t18 35.5t5.5 44.5v25q0 86 -99 86h-141v34q0 46 20 65t47 25v1
q-71 28 -71 127v28q0 67 33.5 101.5t94.5 34.5h140v-20h-74v-2q62 -23 62 -115v-27zM150 287q50 0 76.5 29.5t26.5 85.5v30q0 55 -26.5 84.5t-76.5 29.5t-76.5 -29.5t-26.5 -84.5v-30q0 -56 26.5 -85.5t76.5 -29.5zM146 678h26v-31h-26v31z" />
    <glyph glyph-name="space_uni0326.alt" horiz-adv-x="400" 
d="M184 609l17 66h19l-12 -69h-24v3z" />
    <glyph glyph-name="asterisk.alt" horiz-adv-x="201" 
d="M106 612h-11l-6 66h24zM118 592l-3 10l61 28l7 -22zM106 574l9 7l44 -49l-19 -14zM18 608l7 22l62 -28l-4 -10zM61 518l-19 14l44 49l9 -7z" />
    <glyph glyph-name="ampersand.alt1" horiz-adv-x="356" 
d="M164 683q63 0 92 -29.5t29 -101.5v-62h-24v63q0 60 -24 84t-72 24q-47 0 -72.5 -26.5t-25.5 -90.5v-74q0 -45 23 -71t74 -26h177v-23h-46v-216q0 -69 -30.5 -104t-102.5 -35t-102.5 38t-30.5 109v102q0 55 25 82.5t62 35.5q-34 9 -54.5 35.5t-20.5 75.5v71
q0 72 31.5 105.5t91.5 33.5zM162 17q56 0 81.5 28t25.5 88v217h-107q-51 0 -79 -26.5t-28 -77.5v-104q0 -60 25 -92.5t82 -32.5z" />
    <glyph glyph-name="ampersand.alt2" horiz-adv-x="401" 
d="M281 493v67q0 54 -23 77.5t-59 23.5q-41 0 -65.5 -24.5t-24.5 -75.5q0 -21 2 -37t7 -31.5t12.5 -31.5t18.5 -37l140 -266l67 244h24l-76 -272v-1l40 -76q11 -20 17.5 -26.5t19.5 -6.5h12v-20h-15q-22 0 -33.5 9.5t-23.5 33.5l-29 55q-15 -43 -47 -73t-93 -30
q-57 0 -91 34.5t-34 112.5v130q0 62 22.5 95.5t70.5 54.5q-19 38 -28 67.5t-9 70.5q0 60 31.5 91.5t84.5 31.5q49 0 78 -29.5t29 -92.5v-68h-25zM154 17q56 0 83.5 30t41.5 75l-150 283q-39 -19 -57.5 -47.5t-18.5 -83.5v-133q0 -66 28 -95t73 -29z" />
    <glyph glyph-name="ampersand.alt3" horiz-adv-x="393" 
d="M27 272q0 62 23.5 96.5t73.5 56.5q-18 34 -27 63t-9 72q0 61 31.5 92t79.5 31t75 -29t27 -85q0 -53 -35 -87.5t-108 -65.5l133 -250l65 236h24l-74 -265l73 -137h-28l-57 106q-7 -22 -18 -42t-27.5 -35.5t-40 -24.5t-56.5 -9q-57 0 -91 34t-34 112v131zM154 17
q30 0 50.5 8.5t35.5 23.5t24.5 36t16.5 46l-147 276q-21 -10 -36 -21.5t-25 -27t-15 -36t-5 -48.5v-133q0 -66 28 -95t73 -29zM114 561q0 -20 2 -35.5t6 -30t11 -29.5t16 -33q33 15 56.5 29t39 30t23 34.5t7.5 41.5q0 45 -20 69t-55 24q-36 0 -61 -24.5t-25 -75.5z" />
    <glyph glyph-name="caron.alt" horiz-adv-x="400" 
d="M218 676l-8 -89h-17l4 91h21v-2z" />
    <glyph glyph-name="questiondown.uc" horiz-adv-x="301" 
d="M181 581v-102q0 -25 -2 -41.5t-7.5 -30t-14 -27t-20.5 -31.5l-44 -64q-21 -32 -29.5 -54.5t-8.5 -52.5v-49q0 -58 23 -85t71 -27t75 25.5t27 80.5v73h25v-73q0 -66 -33.5 -97t-93.5 -31t-90 33t-30 102v49q0 35 10.5 60.5t33.5 58.5l43 64q11 16 18.5 28t12.5 24.5
t7 27.5t2 37v102h25zM182 642h-27v36h27v-36z" />
    <glyph glyph-name="exclamdown.uc" horiz-adv-x="96" 
d="M62 0h-28l5 581h18zM61 642h-26v36h26v-36z" />
    <glyph glyph-name="hyphen.uc" horiz-adv-x="160" 
d="M19 357h122v-21h-122v21z" />
    <glyph glyph-name="endash.uc" horiz-adv-x="219" 
d="M13 357h194v-21h-194v21z" />
    <glyph glyph-name="emdash.uc" horiz-adv-x="467" 
d="M13 357h442v-21h-442v21z" />
    <glyph glyph-name="C.round" horiz-adv-x="682" 
d="M634 454q-13 46 -39 84.5t-62 66t-81.5 43t-97.5 15.5q-68 0 -125 -25.5t-99 -69.5t-65.5 -103t-23.5 -127t23.5 -127t65.5 -103t99 -69t125 -25q58 0 107.5 19t87.5 52t63 78t34 97h24q-9 -58 -36 -107t-68 -85t-95 -56t-117 -20q-72 0 -134 27t-107.5 73.5t-71.5 110
t-26 135.5t26 135.5t71.5 111t107.5 74.5t134 27q58 0 108 -17t89.5 -48t67 -73.5t41.5 -93.5h-26z" />
    <glyph glyph-name="D.round" horiz-adv-x="609" 
d="M32 0v678h223q72 0 134 -25.5t107.5 -70.5t72 -107.5t26.5 -136.5t-26 -136t-71.5 -107t-108 -70t-134.5 -25h-223zM253 22q68 0 126 24t100 66t65.5 100t23.5 126t-23.5 126t-65.5 101t-100 67t-126 24h-195v-634h195z" />
    <glyph glyph-name="G.round" horiz-adv-x="708" 
d="M636 470q-29 91 -102 142t-176 51q-68 0 -125.5 -25.5t-100.5 -69.5t-67 -103t-24 -127t23 -127t65 -103t101 -69t130 -25q67 0 120.5 21.5t91 60.5t58 94t22.5 122h-240v22h264v-334h-23v195q-12 -43 -37 -80t-62 -64.5t-86 -43t-108 -15.5q-76 0 -139.5 27t-109 73.5
t-71 110t-25.5 135.5t26.5 135.5t72.5 111t109 74.5t135 27q56 0 105 -15t88.5 -43t67.5 -68t43 -90h-26z" />
    <glyph glyph-name="O.round" horiz-adv-x="716" 
d="M15 338q0 72 26.5 135.5t72.5 111t109 74.5t135 27t135 -27t109 -74.5t72.5 -111t26.5 -135.5t-26.5 -135.5t-72.5 -110t-109 -73.5t-135 -27t-135 27t-109 73.5t-72.5 110t-26.5 135.5zM41 338q0 -68 24 -127t67 -103t100.5 -69t125.5 -25q67 0 125 25t101 69t67 103
t24 127t-24 127t-67 103t-101 69.5t-125 25.5q-68 0 -125.5 -25.5t-100.5 -69.5t-67 -103t-24 -127z" />
    <glyph glyph-name="Q.round" horiz-adv-x="716" 
d="M333 -21v14q-68 4 -126 32.5t-101 75t-67 107.5t-24 130q0 72 26.5 135.5t72.5 111t109 74.5t135 27t135 -27t109 -74.5t72.5 -111t26.5 -135.5q0 -69 -24 -129.5t-66 -106.5t-100 -74.5t-125 -33.5l250 -38v-22zM358 14q67 0 125 25t101 69t67 103t24 127t-24 127
t-67 103t-101 69.5t-125 25.5q-68 0 -125.5 -25.5t-100.5 -69.5t-67 -103t-24 -127t24 -127t67 -103t100.5 -69t125.5 -25z" />
    <glyph glyph-name="X.round" horiz-adv-x="561" 
d="M283 367l229 311h30l-242 -328l256 -350h-29l-244 332l-247 -332h-30l259 349l-241 329h29z" />
    <glyph glyph-name="Oslash.round" horiz-adv-x="716" 
d="M15 338q0 72 26.5 135.5t72.5 111t109 74.5t135 27q62 0 116 -20t98 -55l57 67h26l-67 -81q53 -48 83 -114.5t30 -144.5q0 -72 -26.5 -135.5t-72.5 -110t-109 -73.5t-135 -27q-63 0 -117 19.5t-98 54.5l-56 -66h-27l67 80q-53 48 -82.5 114t-29.5 144zM675 338
q0 72 -27.5 134t-75.5 107l-414 -495q41 -33 91.5 -51.5t108.5 -18.5q67 0 125 25t101 69t67 103t24 127zM41 338q0 -72 26.5 -133.5t74.5 -106.5l415 495q-40 33 -90.5 51.5t-108.5 18.5q-68 0 -125.5 -25.5t-100.5 -69.5t-67 -103t-24 -127z" />
    <glyph glyph-name="Eth.round" horiz-adv-x="629" 
d="M3 356h49v322h223q72 0 134 -25.5t107.5 -70.5t72 -107.5t26.5 -136.5t-26 -136t-71.5 -107t-108 -70t-134.5 -25h-223v334h-49v22zM273 22q68 0 126 24t100 66t65.5 100t23.5 126t-23.5 126t-65.5 101t-100 67t-126 24h-195v-300h198v-22h-198v-312h195z" />
    <glyph glyph-name="Dcroat.round" horiz-adv-x="629" 
d="M3 356h49v322h223q72 0 134 -25.5t107.5 -70.5t72 -107.5t26.5 -136.5t-26 -136t-71.5 -107t-108 -70t-134.5 -25h-223v334h-49v22zM273 22q68 0 126 24t100 66t65.5 100t23.5 126t-23.5 126t-65.5 101t-100 67t-126 24h-195v-300h198v-22h-198v-312h195z" />
    <glyph glyph-name="Cacute.round" horiz-adv-x="682" 
d="M435 757l-145 -59v19l145 61v-21zM634 454q-13 46 -39 84.5t-62 66t-81.5 43t-97.5 15.5q-68 0 -125 -25.5t-99 -69.5t-65.5 -103t-23.5 -127t23.5 -127t65.5 -103t99 -69t125 -25q58 0 107.5 19t87.5 52t63 78t34 97h24q-9 -58 -36 -107t-68 -85t-95 -56t-117 -20
q-72 0 -134 27t-107.5 73.5t-71.5 110t-26 135.5t26 135.5t71.5 111t107.5 74.5t134 27q58 0 108 -17t89.5 -48t67 -73.5t41.5 -93.5h-26z" />
    <glyph glyph-name="Ccaron.round" horiz-adv-x="682" 
d="M433 789v-19l-74 -68h-13l-73 68v19l79 -65zM634 454q-13 46 -39 84.5t-62 66t-81.5 43t-97.5 15.5q-68 0 -125 -25.5t-99 -69.5t-65.5 -103t-23.5 -127t23.5 -127t65.5 -103t99 -69t125 -25q58 0 107.5 19t87.5 52t63 78t34 97h24q-9 -58 -36 -107t-68 -85t-95 -56
t-117 -20q-72 0 -134 27t-107.5 73.5t-71.5 110t-26 135.5t26 135.5t71.5 111t107.5 74.5t134 27q58 0 108 -17t89.5 -48t67 -73.5t41.5 -93.5h-26z" />
    <glyph glyph-name="Ccedilla.round" horiz-adv-x="682" 
d="M634 454q-13 46 -39 84.5t-62 66t-81.5 43t-97.5 15.5q-68 0 -125 -25.5t-99 -69.5t-65.5 -103t-23.5 -127t23.5 -127t65.5 -103t99 -69t125 -25q58 0 107.5 19t87.5 52t63 78t34 97h24q-9 -58 -36 -107t-68 -85t-95 -56t-117 -20h-12v-16q22 0 34.5 -8t12.5 -25
q0 -19 -21 -28t-60 -9v16q57 0 57 21q0 16 -31 16h-9v34q-67 5 -124 34t-98 75t-64.5 106.5t-23.5 129.5q0 72 26 135.5t71.5 111t107.5 74.5t134 27q58 0 108 -17t89.5 -48t67 -73.5t41.5 -93.5h-26z" />
    <glyph glyph-name="Ccircumflex.round" horiz-adv-x="682" 
d="M273 700v18l74 69h13l73 -69v-18l-79 65zM634 454q-13 46 -39 84.5t-62 66t-81.5 43t-97.5 15.5q-68 0 -125 -25.5t-99 -69.5t-65.5 -103t-23.5 -127t23.5 -127t65.5 -103t99 -69t125 -25q58 0 107.5 19t87.5 52t63 78t34 97h24q-9 -58 -36 -107t-68 -85t-95 -56
t-117 -20q-72 0 -134 27t-107.5 73.5t-71.5 110t-26 135.5t26 135.5t71.5 111t107.5 74.5t134 27q58 0 108 -17t89.5 -48t67 -73.5t41.5 -93.5h-26z" />
    <glyph glyph-name="Cdotaccent.round" horiz-adv-x="682" 
d="M634 454q-13 46 -39 84.5t-62 66t-81.5 43t-97.5 15.5q-68 0 -125 -25.5t-99 -69.5t-65.5 -103t-23.5 -127t23.5 -127t65.5 -103t99 -69t125 -25q58 0 107.5 19t87.5 52t63 78t34 97h24q-9 -58 -36 -107t-68 -85t-95 -56t-117 -20q-72 0 -134 27t-107.5 73.5t-71.5 110
t-26 135.5t26 135.5t71.5 111t107.5 74.5t134 27q58 0 108 -17t89.5 -48t67 -73.5t41.5 -93.5h-26zM341 750h26v-31h-26v31z" />
    <glyph glyph-name="Dcaron.round" horiz-adv-x="609" 
d="M343 789v-19l-74 -68h-13l-73 68v19l79 -65zM32 0v678h223q72 0 134 -25.5t107.5 -70.5t72 -107.5t26.5 -136.5t-26 -136t-71.5 -107t-108 -70t-134.5 -25h-223zM253 22q68 0 126 24t100 66t65.5 100t23.5 126t-23.5 126t-65.5 101t-100 67t-126 24h-195v-634h195z" />
    <glyph glyph-name="Gbreve.round" horiz-adv-x="708" 
d="M636 470q-29 91 -102 142t-176 51q-68 0 -125.5 -25.5t-100.5 -69.5t-67 -103t-24 -127t23 -127t65 -103t101 -69t130 -25q67 0 120.5 21.5t91 60.5t58 94t22.5 122h-240v22h264v-334h-23v195q-12 -43 -37 -80t-62 -64.5t-86 -43t-108 -15.5q-76 0 -139.5 27t-109 73.5
t-71 110t-25.5 135.5t26.5 135.5t72.5 111t109 74.5t135 27q56 0 105 -15t88.5 -43t67.5 -68t43 -90h-26zM437 779q-1 -35 -22 -56t-54 -21q-34 0 -56 21t-23 56h20q1 -27 17 -42t42 -15q25 0 40 15t17 42h19z" />
    <glyph glyph-name="Gcircumflex.round" horiz-adv-x="708" 
d="M279 700v18l74 69h13l73 -69v-18l-79 65zM636 470q-29 91 -102 142t-176 51q-68 0 -125.5 -25.5t-100.5 -69.5t-67 -103t-24 -127t23 -127t65 -103t101 -69t130 -25q67 0 120.5 21.5t91 60.5t58 94t22.5 122h-240v22h264v-334h-23v195q-12 -43 -37 -80t-62 -64.5t-86 -43
t-108 -15.5q-76 0 -139.5 27t-109 73.5t-71 110t-25.5 135.5t26.5 135.5t72.5 111t109 74.5t135 27q56 0 105 -15t88.5 -43t67.5 -68t43 -90h-26z" />
    <glyph glyph-name="Gcommaaccent.round" horiz-adv-x="708" 
d="M370 -23l-17 -67h-20l12 69h25v-2zM636 470q-29 91 -102 142t-176 51q-68 0 -125.5 -25.5t-100.5 -69.5t-67 -103t-24 -127t23 -127t65 -103t101 -69t130 -25q67 0 120.5 21.5t91 60.5t58 94t22.5 122h-240v22h264v-334h-23v195q-12 -43 -37 -80t-62 -64.5t-86 -43
t-108 -15.5q-76 0 -139.5 27t-109 73.5t-71 110t-25.5 135.5t26.5 135.5t72.5 111t109 74.5t135 27q56 0 105 -15t88.5 -43t67.5 -68t43 -90h-26z" />
    <glyph glyph-name="Gdotaccent.round" horiz-adv-x="708" 
d="M636 470q-29 91 -102 142t-176 51q-68 0 -125.5 -25.5t-100.5 -69.5t-67 -103t-24 -127t23 -127t65 -103t101 -69t130 -25q67 0 120.5 21.5t91 60.5t58 94t22.5 122h-240v22h264v-334h-23v195q-12 -43 -37 -80t-62 -64.5t-86 -43t-108 -15.5q-76 0 -139.5 27t-109 73.5
t-71 110t-25.5 135.5t26.5 135.5t72.5 111t109 74.5t135 27q56 0 105 -15t88.5 -43t67.5 -68t43 -90h-26zM347 750h26v-31h-26v31z" />
    <glyph glyph-name="Oacute.round" horiz-adv-x="716" 
d="M439 757l-145 -59v19l145 61v-21zM15 338q0 72 26.5 135.5t72.5 111t109 74.5t135 27t135 -27t109 -74.5t72.5 -111t26.5 -135.5t-26.5 -135.5t-72.5 -110t-109 -73.5t-135 -27t-135 27t-109 73.5t-72.5 110t-26.5 135.5zM41 338q0 -68 24 -127t67 -103t100.5 -69
t125.5 -25q67 0 125 25t101 69t67 103t24 127t-24 127t-67 103t-101 69.5t-125 25.5q-68 0 -125.5 -25.5t-100.5 -69.5t-67 -103t-24 -127z" />
    <glyph glyph-name="Obreve.round" horiz-adv-x="716" 
d="M15 338q0 72 26.5 135.5t72.5 111t109 74.5t135 27t135 -27t109 -74.5t72.5 -111t26.5 -135.5t-26.5 -135.5t-72.5 -110t-109 -73.5t-135 -27t-135 27t-109 73.5t-72.5 110t-26.5 135.5zM41 338q0 -68 24 -127t67 -103t100.5 -69t125.5 -25q67 0 125 25t101 69t67 103
t24 127t-24 127t-67 103t-101 69.5t-125 25.5q-68 0 -125.5 -25.5t-100.5 -69.5t-67 -103t-24 -127zM435 779q-1 -35 -22 -56t-54 -21q-34 0 -56 21t-23 56h20q1 -27 17 -42t42 -15q25 0 40 15t17 42h19z" />
    <glyph glyph-name="Ocircumflex.round" horiz-adv-x="716" 
d="M278 700v18l74 69h13l73 -69v-18l-79 65zM15 338q0 72 26.5 135.5t72.5 111t109 74.5t135 27t135 -27t109 -74.5t72.5 -111t26.5 -135.5t-26.5 -135.5t-72.5 -110t-109 -73.5t-135 -27t-135 27t-109 73.5t-72.5 110t-26.5 135.5zM41 338q0 -68 24 -127t67 -103t100.5 -69
t125.5 -25q67 0 125 25t101 69t67 103t24 127t-24 127t-67 103t-101 69.5t-125 25.5q-68 0 -125.5 -25.5t-100.5 -69.5t-67 -103t-24 -127z" />
    <glyph glyph-name="Odieresis.round" horiz-adv-x="716" 
d="M309 750h25v-31h-25v31zM381 750h25v-31h-25v31zM15 338q0 72 26.5 135.5t72.5 111t109 74.5t135 27t135 -27t109 -74.5t72.5 -111t26.5 -135.5t-26.5 -135.5t-72.5 -110t-109 -73.5t-135 -27t-135 27t-109 73.5t-72.5 110t-26.5 135.5zM41 338q0 -68 24 -127t67 -103
t100.5 -69t125.5 -25q67 0 125 25t101 69t67 103t24 127t-24 127t-67 103t-101 69.5t-125 25.5q-68 0 -125.5 -25.5t-100.5 -69.5t-67 -103t-24 -127z" />
    <glyph glyph-name="Ograve.round" horiz-adv-x="716" 
d="M15 338q0 72 26.5 135.5t72.5 111t109 74.5t135 27t135 -27t109 -74.5t72.5 -111t26.5 -135.5t-26.5 -135.5t-72.5 -110t-109 -73.5t-135 -27t-135 27t-109 73.5t-72.5 110t-26.5 135.5zM41 338q0 -68 24 -127t67 -103t100.5 -69t125.5 -25q67 0 125 25t101 69t67 103
t24 127t-24 127t-67 103t-101 69.5t-125 25.5q-68 0 -125.5 -25.5t-100.5 -69.5t-67 -103t-24 -127zM281 778l145 -61v-19l-145 59v21z" />
    <glyph glyph-name="Ohungarumlaut.round" horiz-adv-x="716" 
d="M15 338q0 72 26.5 135.5t72.5 111t109 74.5t135 27t135 -27t109 -74.5t72.5 -111t26.5 -135.5t-26.5 -135.5t-72.5 -110t-109 -73.5t-135 -27t-135 27t-109 73.5t-72.5 110t-26.5 135.5zM41 338q0 -68 24 -127t67 -103t100.5 -69t125.5 -25q67 0 125 25t101 69t67 103
t24 127t-24 127t-67 103t-101 69.5t-125 25.5q-68 0 -125.5 -25.5t-100.5 -69.5t-67 -103t-24 -127zM375 787l-43 -87h-20l39 87h24zM443 787l-43 -87h-20l39 87h24z" />
    <glyph glyph-name="Omacron.round" horiz-adv-x="716" 
d="M15 338q0 72 26.5 135.5t72.5 111t109 74.5t135 27t135 -27t109 -74.5t72.5 -111t26.5 -135.5t-26.5 -135.5t-72.5 -110t-109 -73.5t-135 -27t-135 27t-109 73.5t-72.5 110t-26.5 135.5zM41 338q0 -68 24 -127t67 -103t100.5 -69t125.5 -25q67 0 125 25t101 69t67 103
t24 127t-24 127t-67 103t-101 69.5t-125 25.5q-68 0 -125.5 -25.5t-100.5 -69.5t-67 -103t-24 -127zM285 739h146v-19h-146v19z" />
    <glyph glyph-name="Otilde.round" horiz-adv-x="716" 
d="M15 338q0 72 26.5 135.5t72.5 111t109 74.5t135 27t135 -27t109 -74.5t72.5 -111t26.5 -135.5t-26.5 -135.5t-72.5 -110t-109 -73.5t-135 -27t-135 27t-109 73.5t-72.5 110t-26.5 135.5zM41 338q0 -68 24 -127t67 -103t100.5 -69t125.5 -25q67 0 125 25t101 69t67 103
t24 127t-24 127t-67 103t-101 69.5t-125 25.5q-68 0 -125.5 -25.5t-100.5 -69.5t-67 -103t-24 -127zM395 721q-12 0 -21.5 4.5t-18 9.5t-17 9.5t-17.5 4.5q-15 0 -21 -9.5t-8 -22.5h-17q1 22 12 37t34 15q11 0 20.5 -4.5t18.5 -10t17.5 -10t17.5 -4.5q14 0 20 10t8 23h18
q-1 -22 -12.5 -37t-33.5 -15z" />
    <glyph glyph-name="zero.round" horiz-adv-x="716" 
d="M15 338q0 72 26.5 135.5t72.5 111t109 74.5t135 27t135 -27t109 -74.5t72.5 -111t26.5 -135.5t-26.5 -135.5t-72.5 -110t-109 -73.5t-135 -27t-135 27t-109 73.5t-72.5 110t-26.5 135.5zM41 338q0 -68 24 -127t67 -103t100.5 -69t125.5 -25q67 0 125 25t101 69t67 103
t24 127t-24 127t-67 103t-101 69.5t-125 25.5q-68 0 -125.5 -25.5t-100.5 -69.5t-67 -103t-24 -127z" />
    <glyph glyph-name="G.altround" horiz-adv-x="697" 
d="M415 334h268v-17q0 -74 -23 -133.5t-65 -102.5t-102 -66t-134 -23q-73 0 -136 27t-109 73.5t-72.5 110t-26.5 135.5t26.5 135.5t73 111t109 74.5t135.5 27q112 0 192.5 -56t110.5 -156h-26q-29 88 -102 138.5t-175 50.5q-68 0 -126 -25.5t-101 -69.5t-67 -103t-24 -127
t24 -127t67 -103t101 -69t126 -25q69 0 123.5 21t93 60t59.5 94t22 123h-242v22z" />
    <glyph glyph-name="Q.altround" horiz-adv-x="716" 
d="M358 -8q-72 0 -135 27t-109 73.5t-72.5 110t-26.5 135.5t26.5 135.5t72.5 111t109 74.5t135 27t135 -27t109 -74.5t72.5 -111t26.5 -135.5q0 -89 -38.5 -162.5t-104.5 -120.5l89 -100v-1h-29l-79 88q-39 -24 -84.5 -37t-96.5 -13zM358 14q46 0 88 11.5t77 33.5l-90 101v2
h30l79 -90q62 44 97.5 113t35.5 153q0 68 -24 127t-67 103t-101 69.5t-125 25.5q-68 0 -125.5 -25.5t-100.5 -69.5t-67 -103t-24 -127t24 -127t67 -103t100.5 -69t125.5 -25z" />
    <glyph glyph-name="Gbreve.altround" horiz-adv-x="697" 
d="M415 334h268v-17q0 -74 -23 -133.5t-65 -102.5t-102 -66t-134 -23q-73 0 -136 27t-109 73.5t-72.5 110t-26.5 135.5t26.5 135.5t73 111t109 74.5t135.5 27q112 0 192.5 -56t110.5 -156h-26q-29 88 -102 138.5t-175 50.5q-68 0 -126 -25.5t-101 -69.5t-67 -103t-24 -127
t24 -127t67 -103t101 -69t126 -25q69 0 123.5 21t93 60t59.5 94t22 123h-242v22zM434 779q-1 -35 -22 -56t-54 -21q-34 0 -56 21t-23 56h20q1 -27 17 -42t42 -15q25 0 40 15t17 42h19z" />
    <glyph glyph-name="Gcircumflex.altround" horiz-adv-x="697" 
d="M276 700v18l74 69h13l73 -69v-18l-79 65zM415 334h268v-17q0 -74 -23 -133.5t-65 -102.5t-102 -66t-134 -23q-73 0 -136 27t-109 73.5t-72.5 110t-26.5 135.5t26.5 135.5t73 111t109 74.5t135.5 27q112 0 192.5 -56t110.5 -156h-26q-29 88 -102 138.5t-175 50.5
q-68 0 -126 -25.5t-101 -69.5t-67 -103t-24 -127t24 -127t67 -103t101 -69t126 -25q69 0 123.5 21t93 60t59.5 94t22 123h-242v22z" />
    <glyph glyph-name="Gcommaaccent.altround" horiz-adv-x="697" 
d="M370 -23l-17 -67h-20l12 69h25v-2zM415 334h268v-17q0 -74 -23 -133.5t-65 -102.5t-102 -66t-134 -23q-73 0 -136 27t-109 73.5t-72.5 110t-26.5 135.5t26.5 135.5t73 111t109 74.5t135.5 27q112 0 192.5 -56t110.5 -156h-26q-29 88 -102 138.5t-175 50.5
q-68 0 -126 -25.5t-101 -69.5t-67 -103t-24 -127t24 -127t67 -103t101 -69t126 -25q69 0 123.5 21t93 60t59.5 94t22 123h-242v22z" />
    <glyph glyph-name="Gdotaccent.altround" horiz-adv-x="697" 
d="M415 334h268v-17q0 -74 -23 -133.5t-65 -102.5t-102 -66t-134 -23q-73 0 -136 27t-109 73.5t-72.5 110t-26.5 135.5t26.5 135.5t73 111t109 74.5t135.5 27q112 0 192.5 -56t110.5 -156h-26q-29 88 -102 138.5t-175 50.5q-68 0 -126 -25.5t-101 -69.5t-67 -103t-24 -127
t24 -127t67 -103t101 -69t126 -25q69 0 123.5 21t93 60t59.5 94t22 123h-242v22zM344 750h26v-31h-26v31z" />
    <glyph glyph-name="f.short" horiz-adv-x="169" 
d="M12 567h45v39q0 38 17 55t59 17h28v-20h-25q-29 0 -41 -12t-12 -41v-38h78v-20h-78v-547h-26v547h-45v20z" />
    <glyph glyph-name="f_f.short" horiz-adv-x="323" 
d="M211 547h-128v-547h-26v547h-45v20h45v39q0 38 17 55t59 17h30v-20h-27q-29 0 -41 -12t-12 -41v-38h128v39q0 38 17 55t58 17h29v-20h-26q-29 0 -41 -12t-12 -41v-38h79v-20h-79v-547h-25v547z" />
    <glyph glyph-name="i.low" 
d="M32 567h25v-567h-25v567zM32 645h25v-31h-25v31z" />
    <glyph glyph-name="j.low" 
d="M57 567v-597q0 -31 -14.5 -45.5t-49.5 -14.5h-7v21h6q22 0 31 10t9 30v596h25zM32 645h25v-31h-25v31z" />
    </font>
</defs>
</svg>
