<?xml version="1.0" standalone="no"?>
<!DOCTYPE svg PUBLIC "-//W3C//DTD SVG 1.1//EN" "http://www.w3.org/Graphics/SVG/1.1/DTD/svg11.dtd" >
<svg xmlns="http://www.w3.org/2000/svg" xmlns:xlink="http://www.w3.org/1999/xlink" version="1.1">
<metadata>
Created by FontForge 20170731 at Thu Mar 26 16:37:49 2009
 By Aleksey,,,
Copyright (c) 2005 - 2006 Linotype GmbH, www.linotype.com. All rights reserved. This font software may not be reproduced, modified, disclosed or transferred without the express written approval of Linotype GmbH. Univers is a trademark of Heidelberger Druckmaschinen AG, exclusively licensed through Linotype GmbH, and may be registered in certain jurisdictions. This typeface is original artwork of Adrian Frutiger and Linotype Design Studio. The design may be protected in certain jurisdictions.
</metadata>
<defs>
<font id="UniversforKPMG-Cond" horiz-adv-x="193" >
  <font-face 
    font-family="Univers for KPMG Cond"
    font-weight="400"
    font-stretch="condensed"
    units-per-em="1000"
    panose-1="2 11 6 6 2 2 2 2 2 4"
    ascent="723"
    descent="-277"
    x-height="504"
    cap-height="723"
    bbox="-134 -214 878 937"
    underline-thickness="50"
    underline-position="-150"
    unicode-range="U+0020-FB02"
  />
<missing-glyph horiz-adv-x="512" 
d="M222 117v67h56v-67h-56zM225 234l-2 17q0 55 13 81t46 59q32 31 41 47.5t9 35.5q0 36 -22.5 60.5t-53.5 24.5t-53.5 -22t-28.5 -73l-50 8q7 71 44 104t91 33q53 0 88.5 -36t35.5 -95q0 -32 -12.5 -58.5t-50.5 -61.5q-37 -33 -43 -52t-6 -72h-46zM462 50v617h-412v-617
h412zM512 718v-718h-512v718h512z" />
    <glyph glyph-name="fi" unicode="fi" horiz-adv-x="455" 
d="M392 627h-88v86h88v-86zM388 0h-80v504h80v-504zM261 664q-9 1 -31 1q-37 0 -50 -27q-8 -19 -8 -61v-73h86v-58h-86v-446h-79v446h-74v58h74v55q0 82 20 117q28 52 108 52q21 0 40 -2v-62z" />
    <glyph glyph-name="fl" unicode="fl" horiz-adv-x="455" 
d="M388 0h-80v723h80v-723zM261 664q-9 1 -31 1q-37 0 -50 -27q-8 -19 -8 -61v-73h86v-58h-86v-446h-79v446h-74v58h74v55q0 82 20 117q28 52 108 52q21 0 40 -2v-62z" />
    <glyph glyph-name=".notdef" horiz-adv-x="512" 
d="M222 117v67h56v-67h-56zM225 234l-2 17q0 55 13 81t46 59q32 31 41 47.5t9 35.5q0 36 -22.5 60.5t-53.5 24.5t-53.5 -22t-28.5 -73l-50 8q7 71 44 104t91 33q53 0 88.5 -36t35.5 -95q0 -32 -12.5 -58.5t-50.5 -61.5q-37 -33 -43 -52t-6 -72h-46zM462 50v617h-412v-617
h412zM512 718v-718h-512v718h512z" />
    <glyph glyph-name=".null" horiz-adv-x="0" 
 />
    <glyph glyph-name="nonmarkingreturn" horiz-adv-x="333" 
 />
    <glyph glyph-name="space" unicode=" " horiz-adv-x="226" 
 />
    <glyph glyph-name="exclam" unicode="!" horiz-adv-x="230" 
d="M158 723l-13 -547h-62l-11 547h86zM155 0h-81v89h81v-89z" />
    <glyph glyph-name="quotedbl" unicode="&#x22;" horiz-adv-x="350" 
d="M290 711l-11 -285h-49l-11 285h71zM132 711l-11 -285h-50l-11 285h72z" />
    <glyph glyph-name="numbersign" unicode="#" horiz-adv-x="452" 
d="M450 444h-90l-28 -165h79v-63h-88l-36 -216h-65l37 216h-113l-37 -216h-64l37 216h-81v63h92l27 165h-80v63h90l36 216h63l-35 -216h113l36 216h64l-37 -216h80v-63zM296 444h-112l-28 -165h113z" />
    <glyph glyph-name="dollar" unicode="$" horiz-adv-x="452" 
d="M409 188q0 -166 -160 -179v-100h-44v98q-164 7 -164 179v25h78v-21q0 -107 86 -117v253q-88 53 -111 78q-46 49 -46 127t48 127q45 45 110 45v88h44v-88q154 0 154 -172v-15h-77v14q0 110 -77 110v-243q88 -52 114 -81q45 -49 45 -128zM206 639q-32 0 -55.5 -27.5
t-23.5 -71.5q0 -69 79 -120v219zM330 175q0 45 -21 75q-17 24 -60 52v-229q81 11 81 102z" />
    <glyph glyph-name="percent" unicode="%" horiz-adv-x="708" 
d="M678 180q0 -191 -130 -191q-128 0 -128 182q0 186 131 186q76 0 105 -56q22 -41 22 -121zM571 740l-374 -769h-56l374 769h56zM288 546q0 -192 -130 -192q-128 0 -128 183q0 186 131 186q76 0 105 -56q22 -41 22 -121zM611 180q0 54 -7 78q-13 46 -53 46q-65 0 -65 -135
q0 -128 62 -128q44 0 57 52q6 23 6 87zM221 546q0 54 -7 78q-13 46 -53 46q-65 0 -65 -135q0 -128 62 -128q44 0 57 52q6 23 6 87z" />
    <glyph glyph-name="ampersand" unicode="&#x26;" horiz-adv-x="563" 
d="M541 341h-97v-341h-168q-109 0 -157 41q-52 44 -52 151q0 75 25 116q29 46 99 67q-55 21 -79 61q-21 36 -21 99q0 188 180 188q30 0 76 -9v-67q-33 8 -56 8q-114 0 -114 -123q0 -126 131 -126h56v160h80v-160h97v-65zM364 66v275h-76q-133 0 -133 -139q0 -82 39 -113
q30 -23 94 -23h76z" />
    <glyph glyph-name="quotesingle" unicode="'" horiz-adv-x="192" 
d="M132 711l-11 -285h-50l-11 285h72z" />
    <glyph glyph-name="parenleft" unicode="(" horiz-adv-x="249" 
d="M136 -153q-87 268 -87 433q0 178 89 443h53q-63 -236 -63 -443q0 -181 63 -433h-55z" />
    <glyph glyph-name="parenright" unicode=")" horiz-adv-x="249" 
d="M200 292q0 -172 -89 -445h-53q63 267 63 441q0 213 -63 435q1 -1 55 0q87 -257 87 -431z" />
    <glyph glyph-name="asterisk" unicode="*" horiz-adv-x="422" 
d="M375 541l-133 15l79 -115l-55 -34l-54 131l-56 -131l-55 35l79 115l-133 -16v66l132 -13l-76 111l55 32l54 -126l54 126l55 -33l-78 -110l132 14v-67z" />
    <glyph glyph-name="plus" unicode="+" horiz-adv-x="594" 
d="M550 215h-217v-215h-72v215h-217v67h217v213h72v-213h217v-67z" />
    <glyph glyph-name="comma" unicode="," horiz-adv-x="226" 
d="M166 94l-63 -196h-61l38 196h86z" />
    <glyph glyph-name="hyphen" unicode="-" horiz-adv-x="286" 
d="M246 234h-206v69h206v-69z" />
    <glyph glyph-name="period" unicode="." horiz-adv-x="226" 
d="M155 0h-84v94h84v-94z" />
    <glyph glyph-name="slash" unicode="/" horiz-adv-x="306" 
d="M302 737l-233 -750h-65l234 750h64z" />
    <glyph glyph-name="zero" unicode="0" horiz-adv-x="452" 
d="M404 305q0 -164 -27 -228q-38 -88 -150 -88q-111 0 -149 80q-30 64 -30 238v156q0 260 181 260q111 0 149 -76q26 -53 26 -184v-158zM322 403q0 145 -11 187q-17 70 -82 70q-63 0 -84 -72q-15 -52 -15 -186v-107q0 -132 15 -180q20 -65 82 -65q68 0 87 84q8 38 8 157v112
z" />
    <glyph glyph-name="one" unicode="1" horiz-adv-x="452" 
d="M303 0h-83v610q-46 -48 -116 -93v85q75 47 125 109h74v-711z" />
    <glyph glyph-name="two" unicode="2" horiz-adv-x="452" 
d="M400 560q0 -85 -76 -200l-195 -296h270v-64h-357v73l233 360q40 62 40 134q0 92 -89 92q-96 0 -96 -123h-82q0 12 2 35q15 152 180 152q170 0 170 -163z" />
    <glyph glyph-name="three" unicode="3" horiz-adv-x="452" 
d="M400 198q0 -208 -181 -208q-95 0 -137 45t-42 140h82q0 -123 94 -123q100 0 100 137q0 86 -31 117.5t-112 30.5v63q76 0 107 29.5t31 110.5q0 120 -89 120q-92 0 -92 -117h-80q-4 180 174 180q170 0 170 -177q0 -153 -106 -176q112 -19 112 -172z" />
    <glyph glyph-name="four" unicode="4" horiz-adv-x="452" 
d="M423 173h-77v-173h-78v173h-233v78l199 460h112v-475h77v-63zM269 236v403l-169 -403h169z" />
    <glyph glyph-name="five" unicode="5" horiz-adv-x="452" 
d="M406 238q0 -121 -32 -177q-42 -72 -151 -72q-169 0 -169 175h82q0 -113 89 -113q60 0 81 50q17 39 17 136q0 158 -94 158q-34 0 -60.5 -20t-31.5 -52h-78l12 388h314v-64h-236l-11 -243q46 52 114 52q91 0 127 -67q27 -50 27 -151z" />
    <glyph glyph-name="six" unicode="6" horiz-adv-x="452" 
d="M409 231q0 -112 -32 -169q-43 -73 -146 -73q-112 0 -152 93q-27 64 -27 207v139q0 134 29 199q43 96 157 96q162 0 162 -164h-82q0 101 -83 101q-64 0 -87 -75q-16 -51 -16 -160v-46q45 68 125 68q152 0 152 -216zM327 228q0 68 -14 103q-21 53 -79 53q-100 0 -100 -167
t99 -167q60 0 81 61q13 38 13 117z" />
    <glyph glyph-name="seven" unicode="7" horiz-adv-x="452" 
d="M392 640l-195 -640h-88l208 645h-271v66h346v-71z" />
    <glyph glyph-name="eight" unicode="8" horiz-adv-x="452" 
d="M407 193q0 -204 -182 -204q-180 0 -180 202q0 70 16 108q23 55 84 71q-93 30 -93 159q0 194 175 194q174 0 174 -179q0 -147 -99 -174q63 -13 87 -65q18 -38 18 -112zM318 526q0 61 -14 91q-21 43 -76 43q-94 0 -94 -131q0 -129 92 -129t92 126zM323 194q0 65 -15 97
q-22 46 -81 46q-99 0 -99 -144q0 -143 97 -143q98 0 98 144z" />
    <glyph glyph-name="nine" unicode="9" horiz-adv-x="452" 
d="M400 342q0 -189 -28 -260q-39 -94 -154 -94q-164 0 -164 168h83q0 -106 84 -106q63 0 84 78q15 57 15 209q-45 -60 -122 -60q-90 0 -126 67q-28 52 -28 158q0 230 181 230q112 0 150 -90q25 -60 25 -210v-90zM319 511q0 158 -94 158q-61 0 -83 -58q-14 -37 -14 -109
t12 -106q20 -57 78 -57q63 0 86 57q15 37 15 115z" />
    <glyph glyph-name="colon" unicode=":" horiz-adv-x="226" 
d="M155 411h-84v93h84v-93zM155 0h-84v94h84v-94z" />
    <glyph glyph-name="semicolon" unicode=";" horiz-adv-x="226" 
d="M155 412h-84v92h84v-92zM166 94l-63 -196h-61l38 196h86z" />
    <glyph glyph-name="less" unicode="&#x3c;" horiz-adv-x="594" 
d="M550 11l-506 200v73l506 201v-75l-419 -163l419 -162v-74z" />
    <glyph glyph-name="equal" unicode="=" horiz-adv-x="594" 
d="M550 312h-506v67h506v-67zM550 117h-506v66h506v-66z" />
    <glyph glyph-name="greater" unicode="&#x3e;" horiz-adv-x="594" 
d="M550 211l-506 -200v74l419 162l-419 163v75l506 -201v-73z" />
    <glyph glyph-name="question" unicode="?" horiz-adv-x="385" 
d="M331 573q0 -74 -30 -131q-30 -50 -57.5 -100t-27.5 -127v-38h-68v54q0 82 26 139l50 84q26 50 26 114q0 105 -67 105q-69 0 -69 -93v-19h-75v16q0 160 145 160q80 0 115 -43q32 -40 32 -121zM224 0h-82v89h82v-89z" />
    <glyph glyph-name="at" unicode="@" horiz-adv-x="805" 
d="M779 436q0 -94 -55 -174q-61 -89 -151 -89q-32 0 -55.5 17t-25.5 47q-1 17 3 38q-52 -103 -147 -103q-63 0 -100 46q-34 43 -34 107q0 89 55 163q60 80 146 80q101 0 121 -88l21 73h64q-28 -86 -69 -229q-10 -38 -10 -60q0 -20 9 -31q12 -15 37 -15q64 0 109 81
q37 70 37 140q0 120 -89 191q-82 66 -205 66q-153 0 -259 -95q-110 -99 -110 -251q0 -146 105 -236q100 -86 248 -86q147 0 283 97l24 -32q-146 -106 -310 -106t-276 97q-118 103 -118 265q0 168 121 280q118 109 288 109q145 0 240 -77q103 -84 103 -225zM508 438
q0 36 -21 60.5t-56 24.5q-62 0 -105 -72q-38 -64 -38 -130q0 -42 18 -71q22 -33 62 -33q62 0 104 82q36 70 36 139z" />
    <glyph glyph-name="A" unicode="A" horiz-adv-x="548" 
d="M537 0h-88l-51 183h-251l-51 -183h-85l212 723h105zM378 250l-105 393l-105 -393h210z" />
    <glyph glyph-name="B" unicode="B" horiz-adv-x="523" 
d="M473 198q0 -110 -55 -156q-50 -42 -161 -42h-177v723h192q97 0 142.5 -42t45.5 -139q0 -68 -23 -104q-24 -41 -85 -60q70 -17 97 -63q24 -40 24 -117zM375 537q0 67 -33 94q-29 24 -94 24h-84v-247h89q122 0 122 129zM386 202q0 71 -30.5 105.5t-100.5 34.5h-91v-274h77
q76 0 108 25q37 29 37 109z" />
    <glyph glyph-name="C" unicode="C" horiz-adv-x="511" 
d="M475 200q0 -213 -206 -213q-139 0 -182 101q-29 70 -29 270q0 193 28 264q46 115 191 115q192 0 192 -201v-16h-86v13q0 135 -108 135q-85 0 -111 -85q-18 -58 -18 -222q0 -176 18 -231q24 -76 105 -76q119 0 119 148v14h87v-16z" />
    <glyph glyph-name="D" unicode="D" horiz-adv-x="559" 
d="M501 373q0 -114 -8 -169q-15 -104 -62 -149q-57 -55 -174 -55h-177v723h177q107 0 163 -42q50 -37 67 -109q14 -60 14 -199zM412 365q0 100 -5 141q-12 94 -54 124q-34 26 -100 26h-88v-588h99q54 0 87 25q42 31 55 126q6 45 6 146z" />
    <glyph glyph-name="E" unicode="E" horiz-adv-x="456" 
d="M420 0h-340v723h333v-69h-248v-248h235v-67h-235v-270h255v-69z" />
    <glyph glyph-name="F" unicode="F" horiz-adv-x="418" 
d="M392 654h-227v-247h214v-68h-214v-339h-85v723h312v-69z" />
    <glyph glyph-name="G" unicode="G" horiz-adv-x="542" 
d="M487 529h-87v13q0 127 -114 127q-93 0 -122 -95q-17 -57 -17 -212q0 -163 17 -217q28 -91 126 -91q61 0 108 21v237h-125v67h208v-360q-95 -32 -189 -32q-152 0 -200 104q-33 72 -33 266t34 270q48 110 192 110q202 0 202 -198v-10z" />
    <glyph glyph-name="H" unicode="H" horiz-adv-x="574" 
d="M494 0h-85v339h-244v-339h-85v723h85v-316h244v316h85v-723z" />
    <glyph glyph-name="I" unicode="I" horiz-adv-x="245" 
d="M165 0h-85v723h85v-723z" />
    <glyph glyph-name="J" unicode="J" horiz-adv-x="456" 
d="M381 215q0 -113 -35 -166q-42 -62 -146 -62q-100 0 -141 57q-34 48 -34 149v20h85v-13q0 -70 13 -99q20 -46 79 -46q65 0 84 57q10 30 10 111v500h85v-508z" />
    <glyph glyph-name="K" unicode="K" horiz-adv-x="499" 
d="M495 0h-100l-226 388l220 335h98l-229 -333zM165 0h-85v723h85v-723z" />
    <glyph glyph-name="L" unicode="L" horiz-adv-x="412" 
d="M392 0h-312v723h85v-654h227v-69z" />
    <glyph glyph-name="M" unicode="M" horiz-adv-x="787" 
d="M707 0h-83v660l-186 -660h-95l-186 660v-660h-77v723h140l174 -637l173 637h140v-723z" />
    <glyph glyph-name="N" unicode="N" horiz-adv-x="613" 
d="M533 0h-132l-243 650v-650h-78v723h132l243 -650v650h78v-723z" />
    <glyph glyph-name="O" unicode="O" horiz-adv-x="554" 
d="M496 359q0 -189 -31 -261q-48 -111 -190 -111q-139 0 -187 105q-22 49 -28 130q-2 32 -2 136q0 135 8 191q11 74 47 120q52 68 164 68q110 0 162 -63q36 -44 48 -122q9 -59 9 -193zM407 364q0 141 -11 196q-22 109 -119 109q-103 0 -123 -125q-8 -51 -8 -181
q0 -141 8 -188q10 -61 36 -89q29 -32 87 -32q94 0 119 114q11 51 11 196z" />
    <glyph glyph-name="P" unicode="P" horiz-adv-x="485" 
d="M453 530q0 -127 -63 -171q-47 -33 -166 -33h-59v-326h-85v723h167q109 0 156 -40q50 -44 50 -153zM366 529q0 72 -29.5 99t-102.5 27h-69v-261h62q77 0 108 29t31 106z" />
    <glyph glyph-name="Q" unicode="Q" horiz-adv-x="560" 
d="M544 0h-107q-27 0 -81.5 -3.5t-81.5 -3.5q-143 0 -189 112q-20 48 -25 126q-2 33 -2 129q0 127 8 185q11 73 43 118q53 74 168 74q118 0 170 -73q31 -44 41 -119q8 -58 8 -185q0 -133 -13 -191q-17 -76 -69 -113q60 10 130 10v-66zM407 367q0 183 -24 237q-29 65 -106 65
q-78 0 -108 -73q-23 -55 -23 -232q0 -152 11 -202q24 -102 120 -102q93 0 118 103q12 47 12 204z" />
    <glyph glyph-name="R" unicode="R" horiz-adv-x="524" 
d="M379 0q-7 40 -7 75q0 18 -4 95q-5 108 -17 130q-20 38 -101 38h-85v-338h-85v723h193q98 0 143 -38q49 -41 49 -140q0 -72 -23 -111q-27 -46 -91 -63q55 -5 77 -36q18 -24 23 -79q0 -4 5 -121q2 -33 5 -89q2 -15 6 -46h-88zM378 541q0 63 -28 88.5t-89 25.5h-96v-250h71
q81 0 111.5 28t30.5 108z" />
    <glyph glyph-name="S" unicode="S" horiz-adv-x="486" 
d="M443 177q0 -94 -53 -142t-145 -48q-107 0 -155 51q-47 49 -47 157v8h88v-8q0 -68 22 -100q27 -41 92 -41q110 0 110 117q0 59 -38 97q-17 17 -87 60q-97 60 -126 90q-51 54 -51 138q0 88 56 136q52 45 141 45q187 0 187 -175v-24h-86v17q0 56 -20 82q-25 32 -84 32
q-50 0 -78 -29t-28 -79q0 -62 47 -103q4 -3 102 -66q87 -55 108 -80q45 -50 45 -135z" />
    <glyph glyph-name="T" unicode="T" horiz-adv-x="433" 
d="M426 654h-167v-654h-85v654h-167v69h419v-69z" />
    <glyph glyph-name="U" unicode="U" horiz-adv-x="574" 
d="M499 239q0 -127 -45 -187q-50 -65 -167 -65q-122 0 -171 71q-41 59 -41 187v478h85v-474q0 -92 20 -134q28 -61 108 -61q79 0 107 60q20 41 20 131v478h84v-484z" />
    <glyph glyph-name="V" unicode="V" horiz-adv-x="507" 
d="M494 723l-191 -723h-102l-188 723h90l152 -644l155 644h84z" />
    <glyph glyph-name="W" unicode="W" horiz-adv-x="829" 
d="M810 723l-166 -723h-102l-127 634l-134 -634h-102l-160 723h90l124 -632l136 632h102l126 -632l132 632h81z" />
    <glyph glyph-name="X" unicode="X" horiz-adv-x="500" 
d="M491 0h-96l-149 314l-148 -314h-89l188 374l-174 349h96l134 -289l137 289h89l-178 -351z" />
    <glyph glyph-name="Y" unicode="Y" horiz-adv-x="483" 
d="M479 723l-198 -439v-284h-85v284l-192 439h94l146 -358l146 358h89z" />
    <glyph glyph-name="Z" unicode="Z" horiz-adv-x="451" 
d="M424 0h-397v75l307 579h-289v69h377v-79l-305 -575h307v-69z" />
    <glyph glyph-name="bracketleft" unicode="[" horiz-adv-x="249" 
d="M211 -153h-154v876h154v-55h-85v-765h85v-56z" />
    <glyph glyph-name="backslash" unicode="\" horiz-adv-x="306" 
d="M302 -13h-64l-234 750h65z" />
    <glyph glyph-name="bracketright" unicode="]" horiz-adv-x="249" 
d="M186 -153h-154v56h86v765h-86v55h154v-876z" />
    <glyph glyph-name="asciicircum" unicode="^" horiz-adv-x="593" 
d="M501 291h-75l-131 332l-127 -332h-76l170 420h69z" />
    <glyph glyph-name="underscore" unicode="_" horiz-adv-x="500" 
d="M500 -124h-500v50h500v-50z" />
    <glyph glyph-name="grave" unicode="`" 
d="M163 590h-58l-133 141h90z" />
    <glyph glyph-name="a" unicode="a" horiz-adv-x="439" 
d="M302 0l-1 66q-51 -74 -135 -74q-64 0 -99 42q-31 40 -31 106q0 107 82 144q54 25 178 26v22q0 62 -10 86q-16 40 -68 40q-36 0 -60 -20t-24 -56v-5h-79v5q0 69 50 103q43 30 116 30q87 0 121 -42q32 -38 32 -126v-186q0 -91 5 -161h-77zM296 255h-20q-158 0 -158 -108
q0 -97 74 -97q56 0 83 48q21 38 21 97v60z" />
    <glyph glyph-name="b" unicode="b" horiz-adv-x="462" 
d="M415 261q0 -120 -22 -178q-35 -91 -133 -91q-77 0 -119 66l-1 -58h-77q4 68 4 96v627h79v-270q47 62 121 62q95 0 128 -86q20 -53 20 -168zM334 262q0 83 -10 121q-20 74 -80 74q-43 0 -69 -36q-31 -43 -31 -171q0 -112 20 -151q25 -49 79 -49q39 0 63 38q28 45 28 174z
" />
    <glyph glyph-name="c" unicode="c" horiz-adv-x="406" 
d="M377 157q0 -167 -157 -167q-108 0 -145 70q-28 53 -28 184t25 186q38 85 150 85q86 0 122 -40q33 -38 33 -123h-78q0 106 -78 106q-62 0 -81 -67q-11 -39 -11 -139q0 -114 17 -157q19 -48 72 -48q47 0 66 33q14 25 15 77h78z" />
    <glyph glyph-name="d" unicode="d" horiz-adv-x="462" 
d="M322 0l-1 58q-43 -66 -118 -66q-97 0 -133 87q-23 58 -23 180q0 115 27 174q36 82 127 82q76 0 114 -59v267h80v-628q0 -27 4 -95h-77zM318 247q0 103 -15 147q-21 63 -81 63q-59 0 -80 -66q-14 -43 -14 -134q0 -99 16 -145q21 -62 75 -62q64 0 85 63q14 41 14 134z" />
    <glyph glyph-name="e" unicode="e" horiz-adv-x="436" 
d="M392 241h-264v-34q0 -77 14 -111q20 -49 78 -49q87 0 91 111h78q-7 -168 -169 -168q-105 0 -144 71q-29 53 -29 171q0 134 25 192q39 91 154 91q108 0 144 -80q22 -50 22 -171v-23zM312 295q0 73 -10 103q-18 60 -77 60q-82 0 -93 -98q-4 -34 -4 -65h184z" />
    <glyph glyph-name="f" unicode="f" horiz-adv-x="278" 
d="M261 664q-9 1 -31 1q-37 0 -50 -27q-8 -19 -8 -61v-73h86v-58h-86v-446h-79v446h-74v58h74v55q0 82 20 117q28 52 108 52q21 0 40 -2v-62z" />
    <glyph glyph-name="g" unicode="g" horiz-adv-x="463" 
d="M400 504q0 -11 -1.5 -39.5t-1.5 -44.5v-441q0 -92 -43 -134t-137 -42q-156 0 -158 146h84q0 -92 78 -92q61 0 81 44q14 29 14 96v68q-42 -59 -117 -59q-94 0 -129 79q-23 52 -23 162q0 122 25 182q36 86 128 86q84 0 121 -70v59h79zM318 268q0 85 -14 126q-22 62 -82 62
q-62 0 -82 -70q-12 -42 -12 -139q0 -87 12 -124q19 -62 77 -62q68 0 90 75q11 39 11 132z" />
    <glyph glyph-name="h" unicode="h" horiz-adv-x="472" 
d="M405 0h-79v322q0 64 -9 89q-17 44 -69 44q-102 0 -102 -149v-306h-79v723h79v-277q49 69 127 69q132 0 132 -158v-357z" />
    <glyph glyph-name="i" unicode="i" horiz-adv-x="213" 
d="M150 627h-87v86h87v-86zM146 0h-79v504h79v-504z" />
    <glyph glyph-name="j" unicode="j" horiz-adv-x="213" 
d="M150 627h-88v86h88v-86zM146 -66q0 -71 -20 -100q-25 -34 -93 -34q-26 0 -40 2v63q11 -2 17 -2q37 0 48 19q8 14 8 58v564h80v-570z" />
    <glyph glyph-name="k" unicode="k" horiz-adv-x="410" 
d="M408 0h-93l-166 282l151 222h92l-157 -220zM146 0h-79v723h79v-723z" />
    <glyph glyph-name="l" unicode="l" horiz-adv-x="213" 
d="M146 0h-79v723h79v-723z" />
    <glyph glyph-name="m" unicode="m" horiz-adv-x="689" 
d="M622 0h-79v339q0 55 -10 78q-15 37 -60 37q-89 0 -89 -137v-317h-79v343q0 53 -8 74q-14 37 -61 37q-45 0 -69 -44q-21 -39 -21 -101v-309h-79v417q0 45 -4 87h79v-66q40 77 119 77q86 0 112 -77q44 77 125 77q69 0 98 -45q26 -39 26 -127v-343z" />
    <glyph glyph-name="n" unicode="n" horiz-adv-x="472" 
d="M405 0h-79v322q0 65 -9 89q-17 44 -69 44q-51 0 -79 -50q-23 -43 -23 -102v-303h-79v394q0 67 -4 110h78v-69q42 80 131 80q133 0 133 -157v-358z" />
    <glyph glyph-name="o" unicode="o" horiz-adv-x="445" 
d="M398 255q0 -138 -31 -195q-39 -70 -146 -70q-109 0 -146 70q-28 53 -28 188q0 130 30 188q40 79 150 79q109 0 145 -73q26 -51 26 -187zM316 278q0 86 -10 119q-19 61 -81 61q-65 0 -86 -65q-11 -34 -11 -117v-72q0 -73 12 -104q21 -53 82 -53q59 0 80 51q14 34 14 103
v77z" />
    <glyph glyph-name="p" unicode="p" horiz-adv-x="462" 
d="M415 261q0 -126 -22 -181q-34 -87 -132 -87q-75 0 -115 56v-240h-79v578q0 85 -4 117h78v-60q43 71 125 71q93 0 127 -81q22 -55 22 -173zM334 262q0 89 -12 128q-20 65 -79 65q-58 0 -82 -65q-17 -48 -17 -143q0 -93 12 -131q22 -65 87 -65q61 0 81 77q10 40 10 134z
" />
    <glyph glyph-name="q" unicode="q" horiz-adv-x="461" 
d="M398 504q-3 -35 -3 -117v-578h-80v241q-43 -57 -116 -57q-96 0 -130 85q-22 55 -22 169q0 117 22 175q35 93 132 93q78 0 120 -70v59h77zM318 240q0 103 -14 148q-22 67 -84 67q-93 0 -93 -191q0 -97 13 -142q20 -71 77 -71q67 0 89 67q12 37 12 122z" />
    <glyph glyph-name="r" unicode="r" horiz-adv-x="290" 
d="M277 438q-12 2 -17 2q-57 0 -85.5 -35t-28.5 -93v-312h-80v412q0 51 -3 92h78v-66q41 76 128 76q8 0 8 -76z" />
    <glyph glyph-name="s" unicode="s" horiz-adv-x="383" 
d="M346 138q0 -147 -158 -147q-155 0 -152 163h79q0 -15 1 -28q7 -79 74 -79q76 0 76 78q0 42 -24 66q-15 16 -67 44q-71 38 -90 56q-38 35 -38 93q0 65 43 99q40 32 107 32q78 0 111 -36.5t35 -112.5h-79q0 94 -71 94q-31 0 -49 -19t-18 -50q0 -34 29 -58q15 -14 71 -44
q61 -33 84 -56q36 -38 36 -95z" />
    <glyph glyph-name="t" unicode="t" horiz-adv-x="279" 
d="M262 0q-37 -4 -58 -4q-68 0 -93 29q-21 26 -21 95v326h-75v58h75v93l79 35v-128h90v-58h-90v-317q0 -42 12 -56.5t45 -14.5q6 0 36 4v-62z" />
    <glyph glyph-name="u" unicode="u" horiz-adv-x="472" 
d="M330 0l-1 64q-46 -72 -127 -72q-135 0 -135 155v357h79v-322q0 -62 10 -88q17 -43 70 -43q99 0 99 147v306h80v-393q0 -59 4 -111h-79z" />
    <glyph glyph-name="v" unicode="v" horiz-adv-x="401" 
d="M386 504l-141 -504h-90l-140 504h85l103 -424l106 424h77z" />
    <glyph glyph-name="w" unicode="w" horiz-adv-x="671" 
d="M654 504l-126 -504h-95l-98 417l-96 -417h-95l-127 504h85l93 -429l98 429h92l100 -429l92 429h77z" />
    <glyph glyph-name="x" unicode="x" horiz-adv-x="388" 
d="M380 0h-92l-97 211l-99 -211h-84l141 267l-122 237h93l80 -183l83 183h83l-126 -236z" />
    <glyph glyph-name="y" unicode="y" horiz-adv-x="402" 
d="M387 504l-202 -695h-77l58 191l-151 504h85l106 -404l103 404h78z" />
    <glyph glyph-name="z" unicode="z" horiz-adv-x="337" 
d="M310 0h-284v64l197 381h-185v59h270v-62l-197 -382h199v-60z" />
    <glyph glyph-name="braceleft" unicode="{" horiz-adv-x="355" 
d="M340 -153q-129 8 -169 83q-25 46 -26 167q0 70 -18 104q-27 51 -117 61v45q28 1 60 13q46 17 63 55q11 24 11 95q0 127 26 174q40 72 170 79v-45q-82 -6 -109 -59q-18 -35 -18 -117v-29q0 -83 -18 -120q-28 -57 -110 -68q81 -12 109 -66q20 -38 20 -116v-24
q-1 -16 -1 -24q0 -75 20 -109q28 -48 107 -53v-46z" />
    <glyph glyph-name="bar" unicode="|" horiz-adv-x="222" 
d="M147 -213h-72v1000h72v-1000z" />
    <glyph glyph-name="braceright" unicode="}" horiz-adv-x="355" 
d="M345 262q-89 -10 -117 -61q-17 -31 -16 -132q1 -103 -33 -151q-44 -64 -164 -71v46q80 5 108 54q19 34 19 111v21v21q0 80 19 117q29 56 110 68q-84 11 -111 70q-17 38 -17 125v16q0 86 -18 121q-27 55 -110 61v45q130 -7 170 -79q27 -47 27 -174q0 -71 11 -95
q17 -39 62 -55q32 -12 60 -13v-45z" />
    <glyph glyph-name="asciitilde" unicode="~" horiz-adv-x="594" 
d="M561 322q-6 -62 -36 -99q-34 -44 -92 -44q-46 0 -140.5 36t-132.5 36q-32 0 -52.5 -22.5t-25.5 -55.5h-49q18 144 128 144q45 0 140.5 -35.5t134.5 -35.5q62 0 77 76h48z" />
    <glyph glyph-name="uni00A0" unicode="&#xa0;" horiz-adv-x="226" 
 />
    <glyph glyph-name="exclamdown" unicode="&#xa1;" horiz-adv-x="230" 
d="M157 449h-82v90h82v-90zM158 -183h-86l13 545h63z" />
    <glyph glyph-name="cent" unicode="&#xa2;" horiz-adv-x="452" 
d="M395 157q0 -167 -157 -167q-30 0 -54 5l-28 -98h-44l32 111q-52 27 -69 104q-10 43 -10 132q0 131 25 186q38 85 150 85q23 0 42 -3l27 95h44l-30 -105q72 -30 72 -150h-78q0 50 -14 75l-103 -373q15 -7 36 -7q47 0 66 33q14 25 15 77h78zM266 455q-12 3 -27 3
q-62 0 -81 -67q-11 -39 -11 -139q0 -120 19 -162z" />
    <glyph glyph-name="sterling" unicode="&#xa3;" horiz-adv-x="452" 
d="M354 545q0 2 -1 20q-5 93 -78 93q-85 0 -85 -114v-135h136v-65h-136v-277h229v-67h-376v67h69v277h-74v65h74v34q0 140 18 189q33 91 146 91q87 0 122 -49q30 -40 30 -129h-74z" />
    <glyph glyph-name="currency" unicode="&#xa4;" horiz-adv-x="452" 
d="M436 178l-39 -39l-59 57q-52 -37 -112 -37q-63 0 -113 37l-58 -57l-40 39l58 58q-38 52 -38 114q0 60 37 112l-57 58l39 40l58 -58q53 37 114 37q60 0 113 -37l58 58l39 -40l-57 -58q37 -52 37 -114q0 -60 -37 -112zM356 348q0 54 -38 93t-92 39t-92.5 -39t-38.5 -93
t38.5 -92t92.5 -38q53 0 91.5 38t38.5 92z" />
    <glyph glyph-name="yen" unicode="&#xa5;" horiz-adv-x="452" 
d="M440 711l-158 -395h124v-53h-141v-63h141v-53h-141v-147h-84v147h-139v53h139v63h-139v53h124l-154 395h93l121 -358l128 358h86z" />
    <glyph glyph-name="brokenbar" unicode="&#xa6;" horiz-adv-x="222" 
d="M147 412h-72v250h72v-250zM147 -88h-72v249h72v-249z" />
    <glyph glyph-name="section" unicode="&#xa7;" horiz-adv-x="427" 
d="M371 386q0 -69 -95 -134q94 -52 94 -127q0 -68 -55 -106q-49 -32 -120 -32q-73 0 -134 22v73q66 -30 133 -30q37 0 61 17q28 20 28 55q0 40 -60 77q-56 32 -112 63q-60 43 -60 97q0 67 104 125q-45 27 -64 50q-26 31 -26 75q0 64 49 97q42 29 109 29q51 0 120 -20v-71
q-68 25 -119 25q-31 0 -52 -14q-25 -17 -25 -46q0 -38 58 -71l108 -58q58 -40 58 -96zM291 377q0 45 -80 82q-82 -43 -82 -87q0 -29 31 -56q13 -11 56 -37q75 52 75 98z" />
    <glyph glyph-name="dieresis" unicode="&#xa8;" 
d="M213 620h-76v96h76v-96zM56 620h-74v96h74v-96z" />
    <glyph glyph-name="copyright" unicode="&#xa9;" horiz-adv-x="797" 
d="M776 363q0 -156 -110.5 -266t-266.5 -110t-267 110t-111 266t111 266.5t267 110.5t266.5 -110.5t110.5 -266.5zM733 363q0 138 -98 236.5t-236 98.5q-139 0 -237.5 -98t-98.5 -237t98.5 -237t237.5 -98q138 0 236 98.5t98 236.5zM582 289q-9 -65 -58 -104.5t-116 -39.5
q-91 0 -149 66q-56 63 -56 155t52 154q56 67 146 67q69 0 121.5 -42t57.5 -110h-57q-8 46 -40.5 73t-78.5 27q-65 0 -102 -52q-33 -47 -33 -114q0 -72 34 -119q39 -54 108 -54q43 0 74 25.5t41 67.5h56z" />
    <glyph glyph-name="ordfeminine" unicode="&#xaa;" horiz-adv-x="283" 
d="M193 419l-1 29q-29 -34 -76 -34q-40 0 -63 27q-21 24 -21 64q0 65 48 88q33 16 109 16v7q0 35 -6 48q-9 20 -38 20q-42 0 -44 -42v-5h-61v5q4 86 109 86q56 0 77 -24.5t21 -78.5v-102q0 -57 4 -104h-58zM189 566h-8q-90 0 -90 -58q0 -49 41 -49q57 0 57 85v22z" />
    <glyph glyph-name="guillemotleft" unicode="&#xab;" horiz-adv-x="382" 
d="M344 447l-80 -194l79 -194h-70l-86 194l86 194h71zM192 59h-68l-86 194l86 194h68l-78 -194z" />
    <glyph glyph-name="logicalnot" unicode="&#xac;" horiz-adv-x="594" 
d="M550 116h-70v196h-436v67h506v-263z" />
    <glyph glyph-name="uni00AD" unicode="&#xad;" horiz-adv-x="286" 
d="M246 234h-206v69h206v-69z" />
    <glyph glyph-name="registered" unicode="&#xae;" horiz-adv-x="387" 
d="M378 554q0 -77 -54 -131t-131 -54q-76 0 -130 54.5t-54 130.5t54 131t130 55q77 0 131 -54.5t54 -131.5zM348 554q0 64 -45.5 110t-109.5 46t-109 -46t-45 -110t45 -109.5t109 -45.5t109.5 45.5t45.5 109.5zM242 460q-5 13 -6 38q-1 19 -8 26q-11 10 -46 10h-25v-74h-37
v191h71q87 0 87 -56q0 -33 -35 -46q27 -12 30 -39q5 -44 8 -50h-39zM241 594q0 27 -53 27h-31v-57h32q52 0 52 30z" />
    <glyph glyph-name="macron" unicode="&#xaf;" 
d="M226 629h-257v51h257v-51z" />
    <glyph glyph-name="degree" unicode="&#xb0;" horiz-adv-x="400" 
d="M353 570q0 -64 -44.5 -109t-108.5 -45q-63 0 -108 45.5t-45 108.5t45 108t108 45t108 -45t45 -108zM292 570q0 38 -27 65t-65 27t-65 -27t-27 -65t27 -65.5t65 -27.5t65 27.5t27 65.5z" />
    <glyph glyph-name="plusminus" unicode="&#xb1;" horiz-adv-x="594" 
d="M550 268h-217v-171h-72v171h-217v67h217v172h72v-172h217v-67zM550 -12h-506v67h506v-67z" />
    <glyph glyph-name="twosuperior" unicode="&#xb2;" horiz-adv-x="282" 
d="M251 299h-227v49l143 211q22 32 22 70q0 45 -49 45q-56 0 -56 -72h-58q-2 121 114 121q49 0 79.5 -24.5t30.5 -72.5q0 -52 -34 -102l-118 -173h153v-52z" />
    <glyph glyph-name="threesuperior" unicode="&#xb3;" horiz-adv-x="282" 
d="M250 419q0 -127 -113 -127q-111 0 -113 120h60q0 -69 56 -69q50 0 50 72q0 42 -14 58t-48 17h-24v49q28 0 56.5 2t28.5 69q0 64 -50 64q-51 0 -50 -69h-58v16q0 48 28 75t76 27q111 0 111 -110q0 -67 -47 -97q51 -24 51 -97z" />
    <glyph glyph-name="acute" unicode="&#xb4;" 
d="M222 731l-134 -141h-58l102 141h90z" />
    <glyph glyph-name="mu" unicode="&#xb5;" horiz-adv-x="581" 
d="M490 0h-67v72q-59 -82 -149 -82q-79 0 -126 67v-264h-71v712h72v-252q0 -91 20 -136q29 -67 109 -67q74 0 114 67q27 46 27 138v249h71v-504z" />
    <glyph glyph-name="paragraph" unicode="&#xb6;" horiz-adv-x="559" 
d="M479 0h-70v665h-115v-665h-70v337q-204 12 -204 188q0 112 79 159q63 39 188 39h192v-723z" />
    <glyph glyph-name="periodcentered" unicode="&#xb7;" horiz-adv-x="226" 
d="M155 274h-84v93h84v-93z" />
    <glyph glyph-name="cedilla" unicode="&#xb8;" 
d="M202 -126q0 -41 -32.5 -63.5t-75.5 -22.5q-51 0 -94 21l15 33q35 -15 66 -15q23 0 41 11t18 33q0 39 -50 39q-17 0 -39 -8l-16 15l60 84h40l-44 -60q16 6 32 6q33 0 56 -20.5t23 -52.5z" />
    <glyph glyph-name="onesuperior" unicode="&#xb9;" horiz-adv-x="282" 
d="M183 299h-60v341q-40 -34 -72 -52v64q48 27 78 65h54v-418z" />
    <glyph glyph-name="ordmasculine" unicode="&#xba;" horiz-adv-x="286" 
d="M254 594q0 -91 -13 -123q-22 -58 -99 -58q-70 0 -94 46q-16 32 -16 109q0 78 17 112q25 48 96 48q64 0 89 -37q20 -30 20 -97zM194 562q0 59 -3 74q-9 44 -46 44q-38 0 -48 -40q-4 -16 -4 -70q0 -55 4 -70q10 -40 48 -40q33 0 44 38q5 18 5 64z" />
    <glyph glyph-name="guillemotright" unicode="&#xbb;" horiz-adv-x="382" 
d="M344 252l-86 -193h-69l79 193l-79 195h69zM194 252l-85 -193h-70l79 193l-80 195h70z" />
    <glyph glyph-name="onequarter" unicode="&#xbc;" horiz-adv-x="725" 
d="M702 99h-43v-99h-59v99h-140v60l120 259h79v-266h43v-53zM567 740l-374 -769h-55l374 769h55zM179 299h-60v341q-40 -34 -72 -52v64q48 27 78 65h54v-418zM602 338l-85 -187h84z" />
    <glyph glyph-name="onehalf" unicode="&#xbd;" horiz-adv-x="725" 
d="M690 0h-227v49l143 211q22 32 22 70q0 45 -49 45q-56 0 -56 -72h-58q-2 121 114 121q49 0 79.5 -24.5t30.5 -72.5q0 -52 -34 -102l-118 -173h153v-52zM554 740l-375 -769h-55l374 769h56zM181 299h-60v341q-40 -34 -72 -52v64q48 27 78 65h54v-418z" />
    <glyph glyph-name="threequarters" unicode="&#xbe;" horiz-adv-x="725" 
d="M706 99h-43v-99h-59v99h-140v60l120 259h79v-266h43v-53zM594 740l-374 -769h-56l374 769h56zM249 419q0 -127 -113 -127q-111 0 -113 120h60q0 -69 56 -69q50 0 50 72q0 42 -14 58t-48 17h-24v49q28 0 56.5 2t28.5 69q0 64 -50 64q-51 0 -50 -69h-58v16q0 48 28 75
t76 27q111 0 111 -110q0 -67 -47 -97q51 -24 51 -97zM606 338l-85 -187h84z" />
    <glyph glyph-name="questiondown" unicode="&#xbf;" horiz-adv-x="385" 
d="M241 449h-82v90h82v-90zM345 -37q0 -160 -146 -160q-80 0 -115 43q-32 40 -32 121q0 73 30 130q30 50 59 100q26 52 26 126v39h68v-54q0 -82 -26 -139l-50 -84q-26 -50 -26 -113q0 -105 67 -105q69 0 69 93v19h76v-16z" />
    <glyph glyph-name="Agrave" unicode="&#xc0;" horiz-adv-x="548" 
d="M537 0h-88l-51 183h-251l-51 -183h-85l212 723h105zM378 250l-105 393l-105 -393h210zM339 780h-58l-133 141h90z" />
    <glyph glyph-name="Aacute" unicode="&#xc1;" horiz-adv-x="548" 
d="M537 0h-88l-51 183h-251l-51 -183h-85l212 723h105zM378 250l-105 393l-105 -393h210zM398 921l-134 -141h-58l102 141h90z" />
    <glyph glyph-name="Acircumflex" unicode="&#xc2;" horiz-adv-x="548" 
d="M537 0h-88l-51 183h-251l-51 -183h-85l212 723h105zM378 250l-105 393l-105 -393h210zM418 780h-69l-76 99l-76 -99h-69l107 141h76z" />
    <glyph glyph-name="Atilde" unicode="&#xc3;" horiz-adv-x="548" 
d="M537 0h-88l-51 183h-251l-51 -183h-85l212 723h105zM378 250l-105 393l-105 -393h210zM429 898q-4 -41 -24 -69q-24 -33 -63 -33q-27 0 -72.5 21t-66.5 21q-36 0 -45 -48h-41q4 43 28.5 72.5t64.5 29.5q24 0 67.5 -21t65.5 -21q36 0 44 48h42z" />
    <glyph glyph-name="Adieresis" unicode="&#xc4;" horiz-adv-x="548" 
d="M537 0h-88l-51 183h-251l-51 -183h-85l212 723h105zM378 250l-105 393l-105 -393h210zM389 800h-76v96h76v-96zM232 800h-74v96h74v-96z" />
    <glyph glyph-name="Aring" unicode="&#xc5;" horiz-adv-x="548" 
d="M537 0h-88l-51 183h-251l-51 -183h-85l212 723h105zM378 250l-105 393l-105 -393h210zM365 845q0 -38 -27 -65t-65 -27t-65 27t-27 65t27 65t65 27t65 -27t27 -65zM331 845q0 24 -17 41.5t-41 17.5t-41 -17.5t-17 -41.5t17 -41t41 -17t41 17t17 41z" />
    <glyph glyph-name="AE" unicode="&#xc6;" horiz-adv-x="747" 
d="M711 0h-298l-18 184h-237l-73 -184h-84l291 723h406v-69h-271l26 -246h234v-68h-225l28 -270h221v-70zM387 251l-43 412l-160 -412h203z" />
    <glyph glyph-name="Ccedilla" unicode="&#xc7;" horiz-adv-x="511" 
d="M475 200q0 -202 -187 -212l-33 -46q14 5 32 5q33 0 56 -20t23 -52q0 -41 -34 -66q-31 -21 -74 -21q-49 0 -94 22l15 32q35 -15 66 -15q23 0 41 11t18 33q0 40 -50 40q-17 0 -39 -8l-16 14l49 70q-132 8 -168 116q-22 66 -22 255q0 155 13 216q35 163 206 163
q192 0 192 -201v-16h-86v13q0 135 -108 135q-96 0 -120 -117q-9 -45 -9 -190q0 -176 16 -227q25 -80 107 -80q119 0 119 148v14h87v-16z" />
    <glyph glyph-name="Egrave" unicode="&#xc8;" horiz-adv-x="456" 
d="M420 0h-340v723h333v-69h-248v-248h235v-67h-235v-270h255v-69zM314 780h-58l-133 141h90z" />
    <glyph glyph-name="Eacute" unicode="&#xc9;" horiz-adv-x="456" 
d="M420 0h-340v723h333v-69h-248v-248h235v-67h-235v-270h255v-69zM383 921l-134 -141h-58l102 141h90z" />
    <glyph glyph-name="Ecircumflex" unicode="&#xca;" horiz-adv-x="456" 
d="M420 0h-340v723h333v-69h-248v-248h235v-67h-235v-270h255v-69zM403 780h-69l-76 99l-76 -99h-69l107 141h76z" />
    <glyph glyph-name="Edieresis" unicode="&#xcb;" horiz-adv-x="456" 
d="M420 0h-340v723h333v-69h-248v-248h235v-67h-235v-270h255v-69zM369 800h-76v96h76v-96zM212 800h-74v96h74v-96z" />
    <glyph glyph-name="Igrave" unicode="&#xcc;" horiz-adv-x="245" 
d="M165 0h-85v723h85v-723zM189 780h-58l-133 141h90z" />
    <glyph glyph-name="Iacute" unicode="&#xcd;" horiz-adv-x="245" 
d="M165 0h-85v723h85v-723zM248 921l-134 -141h-58l102 141h90z" />
    <glyph glyph-name="Icircumflex" unicode="&#xce;" horiz-adv-x="245" 
d="M165 0h-85v723h85v-723zM268 780h-69l-76 99l-76 -99h-69l107 141h76z" />
    <glyph glyph-name="Idieresis" unicode="&#xcf;" horiz-adv-x="245" 
d="M165 0h-85v723h85v-723zM239 800h-76v96h76v-96zM82 800h-74v96h74v-96z" />
    <glyph glyph-name="Eth" unicode="&#xd0;" horiz-adv-x="559" 
d="M501 373q0 -114 -8 -169q-15 -104 -62 -149q-57 -55 -174 -55h-177v372h-70v56h70v295h177q107 0 163 -42q50 -37 67 -109q14 -60 14 -199zM412 365q0 100 -5 141q-12 94 -54 124q-34 26 -100 26h-88v-228h150v-56h-150v-304h99q54 0 87 25q42 31 55 126q6 45 6 146z" />
    <glyph glyph-name="Ntilde" unicode="&#xd1;" horiz-adv-x="613" 
d="M533 0h-132l-243 650v-650h-78v723h132l243 -650v650h78v-723zM462 898q-4 -41 -24 -69q-24 -33 -63 -33q-27 0 -72.5 21t-66.5 21q-36 0 -45 -48h-41q4 43 28.5 72.5t64.5 29.5q24 0 67.5 -21t65.5 -21q36 0 44 48h42z" />
    <glyph glyph-name="Ograve" unicode="&#xd2;" horiz-adv-x="554" 
d="M496 359q0 -189 -31 -261q-48 -111 -190 -111q-139 0 -187 105q-22 49 -28 130q-2 32 -2 136q0 135 8 191q11 74 47 120q52 68 164 68q110 0 162 -63q36 -44 48 -122q9 -59 9 -193zM407 364q0 141 -11 196q-22 109 -119 109q-103 0 -123 -125q-8 -51 -8 -181
q0 -141 8 -188q10 -61 36 -89q29 -32 87 -32q94 0 119 114q11 51 11 196zM345 780h-58l-133 141h90z" />
    <glyph glyph-name="Oacute" unicode="&#xd3;" horiz-adv-x="554" 
d="M496 359q0 -189 -31 -261q-48 -111 -190 -111q-139 0 -187 105q-22 49 -28 130q-2 32 -2 136q0 135 8 191q11 74 47 120q52 68 164 68q110 0 162 -63q36 -44 48 -122q9 -59 9 -193zM407 364q0 141 -11 196q-22 109 -119 109q-103 0 -123 -125q-8 -51 -8 -181
q0 -141 8 -188q10 -61 36 -89q29 -32 87 -32q94 0 119 114q11 51 11 196zM404 921l-134 -141h-58l102 141h90z" />
    <glyph glyph-name="Ocircumflex" unicode="&#xd4;" horiz-adv-x="554" 
d="M496 359q0 -189 -31 -261q-48 -111 -190 -111q-139 0 -187 105q-22 49 -28 130q-2 32 -2 136q0 135 8 191q11 74 47 120q52 68 164 68q110 0 162 -63q36 -44 48 -122q9 -59 9 -193zM407 364q0 141 -11 196q-22 109 -119 109q-103 0 -123 -125q-8 -51 -8 -181
q0 -141 8 -188q10 -61 36 -89q29 -32 87 -32q94 0 119 114q11 51 11 196zM424 780h-69l-76 99l-76 -99h-69l107 141h76z" />
    <glyph glyph-name="Otilde" unicode="&#xd5;" horiz-adv-x="554" 
d="M496 359q0 -189 -31 -261q-48 -111 -190 -111q-139 0 -187 105q-22 49 -28 130q-2 32 -2 136q0 135 8 191q11 74 47 120q52 68 164 68q110 0 162 -63q36 -44 48 -122q9 -59 9 -193zM407 364q0 141 -11 196q-22 109 -119 109q-103 0 -123 -125q-8 -51 -8 -181
q0 -141 8 -188q10 -61 36 -89q29 -32 87 -32q94 0 119 114q11 51 11 196zM435 898q-4 -41 -24 -69q-24 -33 -63 -33q-27 0 -72.5 21t-66.5 21q-36 0 -45 -48h-41q4 43 28.5 72.5t64.5 29.5q24 0 67.5 -21t65.5 -21q36 0 44 48h42z" />
    <glyph glyph-name="Odieresis" unicode="&#xd6;" horiz-adv-x="554" 
d="M496 359q0 -189 -31 -261q-48 -111 -190 -111q-139 0 -187 105q-22 49 -28 130q-2 32 -2 136q0 135 8 191q11 74 47 120q52 68 164 68q110 0 162 -63q36 -44 48 -122q9 -59 9 -193zM407 364q0 141 -11 196q-22 109 -119 109q-103 0 -123 -125q-8 -51 -8 -181
q0 -141 8 -188q10 -61 36 -89q29 -32 87 -32q94 0 119 114q11 51 11 196zM395 800h-76v96h76v-96zM238 800h-74v96h74v-96z" />
    <glyph glyph-name="multiply" unicode="&#xd7;" horiz-adv-x="594" 
d="M537 438l-190 -190l189 -191l-49 -50l-190 191l-190 -190l-50 49l190 190l-190 191l50 49l190 -189l190 189z" />
    <glyph glyph-name="Oslash" unicode="&#xd8;" horiz-adv-x="554" 
d="M531 746l-66 -113q31 -69 31 -274q0 -189 -31 -261q-48 -111 -190 -111q-105 0 -156 55l-57 -97l-43 23l71 120l-2 4q-23 49 -28 130q-2 28 -2 136q0 135 8 191q11 74 47 120q52 68 164 68q107 0 159 -59l54 93zM387 595q-28 74 -110 74q-103 0 -123 -125q-8 -51 -8 -181
q0 -128 5 -170zM407 364q0 113 -6 161l-234 -401q28 -70 110 -70q94 0 119 114q11 51 11 196z" />
    <glyph glyph-name="Ugrave" unicode="&#xd9;" horiz-adv-x="574" 
d="M499 239q0 -127 -45 -187q-50 -65 -167 -65q-122 0 -171 71q-41 59 -41 187v478h85v-474q0 -92 20 -134q28 -61 108 -61q79 0 107 60q20 41 20 131v478h84v-484zM357 780h-58l-133 141h90z" />
    <glyph glyph-name="Uacute" unicode="&#xda;" horiz-adv-x="574" 
d="M499 239q0 -127 -45 -187q-50 -65 -167 -65q-122 0 -171 71q-41 59 -41 187v478h85v-474q0 -92 20 -134q28 -61 108 -61q79 0 107 60q20 41 20 131v478h84v-484zM416 921l-134 -141h-58l102 141h90z" />
    <glyph glyph-name="Ucircumflex" unicode="&#xdb;" horiz-adv-x="574" 
d="M499 239q0 -127 -45 -187q-50 -65 -167 -65q-122 0 -171 71q-41 59 -41 187v478h85v-474q0 -92 20 -134q28 -61 108 -61q79 0 107 60q20 41 20 131v478h84v-484zM436 780h-69l-76 99l-76 -99h-69l107 141h76z" />
    <glyph glyph-name="Udieresis" unicode="&#xdc;" horiz-adv-x="574" 
d="M499 239q0 -127 -45 -187q-50 -65 -167 -65q-122 0 -171 71q-41 59 -41 187v478h85v-474q0 -92 20 -134q28 -61 108 -61q79 0 107 60q20 41 20 131v478h84v-484zM407 800h-76v96h76v-96zM250 800h-74v96h74v-96z" />
    <glyph glyph-name="Yacute" unicode="&#xdd;" horiz-adv-x="483" 
d="M479 723l-198 -439v-284h-85v284l-192 439h94l146 -358l146 358h89zM366 921l-134 -141h-58l102 141h90z" />
    <glyph glyph-name="Thorn" unicode="&#xde;" horiz-adv-x="485" 
d="M453 381q0 -126 -58 -171q-46 -35 -157 -35h-73v-175h-85v723h85v-151h66q116 0 161 -29q61 -41 61 -162zM365 376q0 73 -29.5 100.5t-102.5 27.5h-68v-260h62q77 0 107.5 28t30.5 104z" />
    <glyph glyph-name="germandbls" unicode="&#xdf;" horiz-adv-x="489" 
d="M466 137q0 -71 -39.5 -108t-109.5 -37q-132 0 -134 138h73q0 -82 67 -82q65 0 65 80q0 44 -42 89l-78 76q-42 46 -42 94q0 41 50.5 103.5t50.5 105.5q0 37 -23.5 56.5t-61.5 19.5q-98 0 -98 -137v-535h-78v540q0 189 178 189q161 0 161 -128q0 -45 -26 -86
q-24 -31 -49 -62q-26 -34 -26 -62q0 -32 42 -72q75 -72 78 -75q42 -50 42 -107z" />
    <glyph glyph-name="agrave" unicode="&#xe0;" horiz-adv-x="439" 
d="M302 0l-1 66q-51 -74 -135 -74q-64 0 -99 42q-31 40 -31 106q0 107 82 144q54 25 178 26v22q0 62 -10 86q-16 40 -68 40q-36 0 -60 -20t-24 -56v-5h-79v5q0 69 50 103q43 30 116 30q87 0 121 -42q32 -38 32 -126v-186q0 -91 5 -161h-77zM296 255h-20q-158 0 -158 -108
q0 -97 74 -97q56 0 83 48q21 38 21 97v60zM286 590h-58l-133 141h90z" />
    <glyph glyph-name="aacute" unicode="&#xe1;" horiz-adv-x="439" 
d="M302 0l-1 66q-51 -74 -135 -74q-64 0 -99 42q-31 40 -31 106q0 107 82 144q54 25 178 26v22q0 62 -10 86q-16 40 -68 40q-36 0 -60 -20t-24 -56v-5h-79v5q0 69 50 103q43 30 116 30q87 0 121 -42q32 -38 32 -126v-186q0 -91 5 -161h-77zM296 255h-20q-158 0 -158 -108
q0 -97 74 -97q56 0 83 48q21 38 21 97v60zM345 731l-134 -141h-58l102 141h90z" />
    <glyph glyph-name="acircumflex" unicode="&#xe2;" horiz-adv-x="439" 
d="M302 0l-1 66q-51 -74 -135 -74q-64 0 -99 42q-31 40 -31 106q0 107 82 144q54 25 178 26v22q0 62 -10 86q-16 40 -68 40q-36 0 -60 -20t-24 -56v-5h-79v5q0 69 50 103q43 30 116 30q87 0 121 -42q32 -38 32 -126v-186q0 -91 5 -161h-77zM296 255h-20q-158 0 -158 -108
q0 -97 74 -97q56 0 83 48q21 38 21 97v60zM365 590h-69l-76 99l-76 -99h-69l107 141h76z" />
    <glyph glyph-name="atilde" unicode="&#xe3;" horiz-adv-x="439" 
d="M302 0l-1 66q-51 -74 -135 -74q-64 0 -99 42q-31 40 -31 106q0 107 82 144q54 25 178 26v22q0 62 -10 86q-16 40 -68 40q-36 0 -60 -20t-24 -56v-5h-79v5q0 69 50 103q43 30 116 30q87 0 121 -42q32 -38 32 -126v-186q0 -91 5 -161h-77zM296 255h-20q-158 0 -158 -108
q0 -97 74 -97q56 0 83 48q21 38 21 97v60zM376 708q-4 -41 -24 -69q-24 -33 -63 -33q-27 0 -72.5 21t-66.5 21q-36 0 -45 -48h-41q4 43 28.5 72.5t64.5 29.5q24 0 67.5 -21t65.5 -21q36 0 44 48h42z" />
    <glyph glyph-name="adieresis" unicode="&#xe4;" horiz-adv-x="439" 
d="M302 0l-1 66q-51 -74 -135 -74q-64 0 -99 42q-31 40 -31 106q0 107 82 144q54 25 178 26v22q0 62 -10 86q-16 40 -68 40q-36 0 -60 -20t-24 -56v-5h-79v5q0 69 50 103q43 30 116 30q87 0 121 -42q32 -38 32 -126v-186q0 -91 5 -161h-77zM296 255h-20q-158 0 -158 -108
q0 -97 74 -97q56 0 83 48q21 38 21 97v60zM336 620h-76v96h76v-96zM179 620h-74v96h74v-96z" />
    <glyph glyph-name="aring" unicode="&#xe5;" horiz-adv-x="439" 
d="M302 0l-1 66q-51 -74 -135 -74q-64 0 -99 42q-31 40 -31 106q0 107 82 144q54 25 178 26v22q0 62 -10 86q-16 40 -68 40q-36 0 -60 -20t-24 -56v-5h-79v5q0 69 50 103q43 30 116 30q87 0 121 -42q32 -38 32 -126v-186q0 -91 5 -161h-77zM296 255h-20q-158 0 -158 -108
q0 -97 74 -97q56 0 83 48q21 38 21 97v60zM312 669q0 -38 -27 -65t-65 -27t-65 27t-27 65t27 65t65 27t65 -27t27 -65zM278 669q0 24 -17 41.5t-41 17.5t-41 -17.5t-17 -41.5t17 -41t41 -17t41 17t17 41z" />
    <glyph glyph-name="ae" unicode="&#xe6;" horiz-adv-x="692" 
d="M668 247h-267v-40q0 -77 14 -111q20 -49 78 -49q87 0 91 111h80q-7 -168 -171 -168q-103 0 -134 86q-40 -86 -152 -86q-71 0 -113 42.5t-42 107.5q0 106 88 140q51 20 183 21v31q0 128 -83 128q-36 0 -63 -21t-27 -57v-5h-81v5q0 68 54 103q46 30 117 30q103 0 128 -77
q31 77 136 77t141 -80q23 -51 23 -171v-17zM593 301v20q0 62 -15 93q-21 46 -77 46q-53 0 -79 -47q-21 -37 -21 -91v-21h192zM323 247h-16q-82 0 -117 -14q-57 -23 -57 -92q0 -94 85 -94q105 0 105 166v34z" />
    <glyph glyph-name="ccedilla" unicode="&#xe7;" horiz-adv-x="406" 
d="M377 157q0 -156 -134 -166l-36 -50q16 6 32 6q33 0 56 -20.5t23 -52.5q0 -41 -32.5 -63.5t-75.5 -22.5q-51 0 -94 21l15 33q35 -15 66 -15q23 0 41 11t18 33q0 39 -50 39q-17 0 -39 -8l-16 15l52 73q-97 5 -131 75q-25 52 -25 179q0 131 25 186q38 85 150 85
q86 0 122 -40q33 -38 33 -123h-78q0 106 -78 106q-62 0 -81 -67q-11 -39 -11 -139q0 -114 17 -157q19 -48 72 -48q47 0 66 33q14 25 15 77h78z" />
    <glyph glyph-name="egrave" unicode="&#xe8;" horiz-adv-x="436" 
d="M392 241h-264v-34q0 -77 14 -111q20 -49 78 -49q87 0 91 111h78q-7 -168 -169 -168q-105 0 -144 71q-29 53 -29 171q0 134 25 192q39 91 154 91q108 0 144 -80q22 -50 22 -171v-23zM312 295q0 73 -10 103q-18 60 -77 60q-82 0 -93 -98q-4 -34 -4 -65h184zM290 590h-58
l-133 141h90z" />
    <glyph glyph-name="eacute" unicode="&#xe9;" horiz-adv-x="436" 
d="M392 241h-264v-34q0 -77 14 -111q20 -49 78 -49q87 0 91 111h78q-7 -168 -169 -168q-105 0 -144 71q-29 53 -29 171q0 134 25 192q39 91 154 91q108 0 144 -80q22 -50 22 -171v-23zM312 295q0 73 -10 103q-18 60 -77 60q-82 0 -93 -98q-4 -34 -4 -65h184zM349 731
l-134 -141h-58l102 141h90z" />
    <glyph glyph-name="ecircumflex" unicode="&#xea;" horiz-adv-x="436" 
d="M392 241h-264v-34q0 -77 14 -111q20 -49 78 -49q87 0 91 111h78q-7 -168 -169 -168q-105 0 -144 71q-29 53 -29 171q0 134 25 192q39 91 154 91q108 0 144 -80q22 -50 22 -171v-23zM312 295q0 73 -10 103q-18 60 -77 60q-82 0 -93 -98q-4 -34 -4 -65h184zM369 590h-69
l-76 99l-76 -99h-69l107 141h76z" />
    <glyph glyph-name="edieresis" unicode="&#xeb;" horiz-adv-x="436" 
d="M392 241h-264v-34q0 -77 14 -111q20 -49 78 -49q87 0 91 111h78q-7 -168 -169 -168q-105 0 -144 71q-29 53 -29 171q0 134 25 192q39 91 154 91q108 0 144 -80q22 -50 22 -171v-23zM312 295q0 73 -10 103q-18 60 -77 60q-82 0 -93 -98q-4 -34 -4 -65h184zM340 620h-76v96
h76v-96zM183 620h-74v96h74v-96z" />
    <glyph glyph-name="igrave" unicode="&#xec;" horiz-adv-x="213" 
d="M146 0h-79v504h79v-504zM173 590h-58l-133 141h90z" />
    <glyph glyph-name="iacute" unicode="&#xed;" horiz-adv-x="213" 
d="M146 0h-79v504h79v-504zM232 731l-134 -141h-58l102 141h90z" />
    <glyph glyph-name="icircumflex" unicode="&#xee;" horiz-adv-x="213" 
d="M146 0h-79v504h79v-504zM252 590h-69l-76 99l-76 -99h-69l107 141h76z" />
    <glyph glyph-name="idieresis" unicode="&#xef;" horiz-adv-x="213" 
d="M146 0h-79v504h79v-504zM223 620h-76v96h76v-96zM66 620h-74v96h74v-96z" />
    <glyph glyph-name="eth" unicode="&#xf0;" horiz-adv-x="445" 
d="M398 278q0 -147 -24 -203q-37 -85 -153 -85q-110 0 -148 74q-26 52 -26 183q0 125 23 179q38 86 146 86q68 0 101 -49q-16 96 -92 166l-90 -54l-35 33l85 50q-48 25 -83 38l51 51q56 -20 97 -49l85 50l34 -32l-81 -49q73 -67 96 -180q14 -68 14 -209zM316 224q0 69 -1 89
q-3 68 -19 99q-21 41 -71 41q-65 0 -86 -70q-11 -37 -11 -134q0 -64 3 -95q10 -107 90 -107q62 0 82 53q13 34 13 124z" />
    <glyph glyph-name="ntilde" unicode="&#xf1;" horiz-adv-x="472" 
d="M405 0h-79v322q0 65 -9 89q-17 44 -69 44q-51 0 -79 -50q-23 -43 -23 -102v-303h-79v394q0 67 -4 110h78v-69q42 80 131 80q133 0 133 -157v-358zM393 708q-4 -41 -24 -69q-24 -33 -63 -33q-27 0 -72.5 21t-66.5 21q-36 0 -45 -48h-41q4 43 28.5 72.5t64.5 29.5
q24 0 67.5 -21t65.5 -21q36 0 44 48h42z" />
    <glyph glyph-name="ograve" unicode="&#xf2;" horiz-adv-x="445" 
d="M398 255q0 -138 -31 -195q-39 -70 -146 -70q-109 0 -146 70q-28 53 -28 188q0 130 30 188q40 79 150 79q109 0 145 -73q26 -51 26 -187zM316 278q0 86 -10 119q-19 61 -81 61q-65 0 -86 -65q-11 -34 -11 -117v-72q0 -73 12 -104q21 -53 82 -53q59 0 80 51q14 34 14 103
v77zM291 590h-58l-133 141h90z" />
    <glyph glyph-name="oacute" unicode="&#xf3;" horiz-adv-x="445" 
d="M398 255q0 -138 -31 -195q-39 -70 -146 -70q-109 0 -146 70q-28 53 -28 188q0 130 30 188q40 79 150 79q109 0 145 -73q26 -51 26 -187zM316 278q0 86 -10 119q-19 61 -81 61q-65 0 -86 -65q-11 -34 -11 -117v-72q0 -73 12 -104q21 -53 82 -53q59 0 80 51q14 34 14 103
v77zM350 731l-134 -141h-58l102 141h90z" />
    <glyph glyph-name="ocircumflex" unicode="&#xf4;" horiz-adv-x="445" 
d="M398 255q0 -138 -31 -195q-39 -70 -146 -70q-109 0 -146 70q-28 53 -28 188q0 130 30 188q40 79 150 79q109 0 145 -73q26 -51 26 -187zM316 278q0 86 -10 119q-19 61 -81 61q-65 0 -86 -65q-11 -34 -11 -117v-72q0 -73 12 -104q21 -53 82 -53q59 0 80 51q14 34 14 103
v77zM370 590h-69l-76 99l-76 -99h-69l107 141h76z" />
    <glyph glyph-name="otilde" unicode="&#xf5;" horiz-adv-x="445" 
d="M398 255q0 -138 -31 -195q-39 -70 -146 -70q-109 0 -146 70q-28 53 -28 188q0 130 30 188q40 79 150 79q109 0 145 -73q26 -51 26 -187zM316 278q0 86 -10 119q-19 61 -81 61q-65 0 -86 -65q-11 -34 -11 -117v-72q0 -73 12 -104q21 -53 82 -53q59 0 80 51q14 34 14 103
v77zM381 708q-4 -41 -24 -69q-24 -33 -63 -33q-27 0 -72.5 21t-66.5 21q-36 0 -45 -48h-41q4 43 28.5 72.5t64.5 29.5q24 0 67.5 -21t65.5 -21q36 0 44 48h42z" />
    <glyph glyph-name="odieresis" unicode="&#xf6;" horiz-adv-x="445" 
d="M398 255q0 -138 -31 -195q-39 -70 -146 -70q-109 0 -146 70q-28 53 -28 188q0 130 30 188q40 79 150 79q109 0 145 -73q26 -51 26 -187zM316 278q0 86 -10 119q-19 61 -81 61q-65 0 -86 -65q-11 -34 -11 -117v-72q0 -73 12 -104q21 -53 82 -53q59 0 80 51q14 34 14 103
v77zM341 620h-76v96h76v-96zM184 620h-74v96h74v-96z" />
    <glyph glyph-name="divide" unicode="&#xf7;" horiz-adv-x="594" 
d="M341 387h-89v96h89v-96zM550 214h-506v67h506v-67zM341 11h-89v96h89v-96z" />
    <glyph glyph-name="oslash" unicode="&#xf8;" horiz-adv-x="445" 
d="M429 526l-56 -85q25 -52 25 -186q0 -138 -31 -195q-39 -70 -146 -70q-81 0 -121 36l-50 -75l-40 22l62 93q-25 53 -25 182q0 130 30 188q40 79 150 79q79 0 118 -36l47 70zM301 411q-21 47 -76 47q-65 0 -86 -65q-11 -34 -11 -117v-72q0 -33 1 -52zM316 278q0 52 -2 73
l-170 -259q21 -45 78 -45q59 0 80 51q14 34 14 103v77z" />
    <glyph glyph-name="ugrave" unicode="&#xf9;" horiz-adv-x="472" 
d="M330 0l-1 64q-46 -72 -127 -72q-135 0 -135 155v357h79v-322q0 -62 10 -88q17 -43 70 -43q99 0 99 147v306h80v-393q0 -59 4 -111h-79zM303 590h-58l-133 141h90z" />
    <glyph glyph-name="uacute" unicode="&#xfa;" horiz-adv-x="472" 
d="M330 0l-1 64q-46 -72 -127 -72q-135 0 -135 155v357h79v-322q0 -62 10 -88q17 -43 70 -43q99 0 99 147v306h80v-393q0 -59 4 -111h-79zM362 731l-134 -141h-58l102 141h90z" />
    <glyph glyph-name="ucircumflex" unicode="&#xfb;" horiz-adv-x="472" 
d="M330 0l-1 64q-46 -72 -127 -72q-135 0 -135 155v357h79v-322q0 -62 10 -88q17 -43 70 -43q99 0 99 147v306h80v-393q0 -59 4 -111h-79zM382 590h-69l-76 99l-76 -99h-69l107 141h76z" />
    <glyph glyph-name="udieresis" unicode="&#xfc;" horiz-adv-x="472" 
d="M330 0l-1 64q-46 -72 -127 -72q-135 0 -135 155v357h79v-322q0 -62 10 -88q17 -43 70 -43q99 0 99 147v306h80v-393q0 -59 4 -111h-79zM353 620h-76v96h76v-96zM196 620h-74v96h74v-96z" />
    <glyph glyph-name="yacute" unicode="&#xfd;" horiz-adv-x="402" 
d="M387 504l-202 -695h-77l58 191l-151 504h85l106 -404l103 404h78zM332 731l-134 -141h-58l102 141h90z" />
    <glyph glyph-name="thorn" unicode="&#xfe;" horiz-adv-x="462" 
d="M415 261q0 -126 -22 -181q-34 -87 -132 -87q-75 0 -115 56v-240h-79v914h79v-272q38 64 120 64q93 0 127 -81q22 -55 22 -173zM334 262q0 89 -12 128q-20 65 -79 65q-65 0 -86 -72q-13 -42 -13 -136q0 -93 12 -131q22 -65 87 -65q61 0 81 77q10 40 10 134z" />
    <glyph glyph-name="ydieresis" unicode="&#xff;" horiz-adv-x="402" 
d="M387 504l-202 -695h-77l58 191l-151 504h85l106 -404l103 404h78zM323 620h-76v96h76v-96zM166 620h-74v96h74v-96z" />
    <glyph glyph-name="Amacron" unicode="&#x100;" horiz-adv-x="548" 
d="M537 0h-88l-51 183h-251l-51 -183h-85l212 723h105zM378 250l-105 393l-105 -393h210zM402 809h-257v51h257v-51z" />
    <glyph glyph-name="amacron" unicode="&#x101;" horiz-adv-x="439" 
d="M302 0l-1 66q-51 -74 -135 -74q-64 0 -99 42q-31 40 -31 106q0 107 82 144q54 25 178 26v22q0 62 -10 86q-16 40 -68 40q-36 0 -60 -20t-24 -56v-5h-79v5q0 69 50 103q43 30 116 30q87 0 121 -42q32 -38 32 -126v-186q0 -91 5 -161h-77zM296 255h-20q-158 0 -158 -108
q0 -97 74 -97q56 0 83 48q21 38 21 97v60zM349 629h-257v51h257v-51z" />
    <glyph glyph-name="Abreve" unicode="&#x102;" horiz-adv-x="548" 
d="M537 0h-88l-51 183h-251l-51 -183h-85l212 723h105zM378 250l-105 393l-105 -393h210zM417 910q-14 -131 -149 -131q-61 0 -96.5 35t-41.5 96h43q14 -79 102 -79q80 0 100 79h42z" />
    <glyph glyph-name="abreve" unicode="&#x103;" horiz-adv-x="439" 
d="M302 0l-1 66q-51 -74 -135 -74q-64 0 -99 42q-31 40 -31 106q0 107 82 144q54 25 178 26v22q0 62 -10 86q-16 40 -68 40q-36 0 -60 -20t-24 -56v-5h-79v5q0 69 50 103q43 30 116 30q87 0 121 -42q32 -38 32 -126v-186q0 -91 5 -161h-77zM296 255h-20q-158 0 -158 -108
q0 -97 74 -97q56 0 83 48q21 38 21 97v60zM364 720q-14 -131 -149 -131q-61 0 -96.5 35t-41.5 96h43q14 -79 102 -79q80 0 100 79h42z" />
    <glyph glyph-name="Aogonek" unicode="&#x104;" horiz-adv-x="548" 
d="M550 -170q-42 -24 -78 -24q-33 0 -55.5 20t-22.5 53q0 62 96 121h-41l-51 183h-251l-51 -183h-85l212 723h105l209 -723q-21 -10 -35.5 -20t-25.5 -21q-26 -28 -26 -57q0 -22 15.5 -38t37.5 -16q19 0 42 10zM378 250l-105 393l-105 -393h210z" />
    <glyph glyph-name="aogonek" unicode="&#x105;" horiz-adv-x="439" 
d="M393 -170q-42 -24 -78 -24q-33 0 -55.5 20t-22.5 53q0 62 96 121h-31l-1 66q-51 -74 -135 -74q-64 0 -99 42q-31 40 -31 106q0 107 82 144q52 24 178 26v22q0 63 -10 86q-16 40 -68 40q-36 0 -60 -20t-24 -56v-5h-79v5q0 68 50 103q44 30 116 30q87 0 121 -42
q32 -38 32 -126v-186q0 -46 1.5 -86t3.5 -75q-17 -8 -30 -17t-23 -18q-33 -30 -33 -63q0 -22 15.5 -38t37.5 -16q19 0 42 10zM296 255h-20q-158 0 -158 -108q0 -97 74 -97q56 0 83 48q21 38 21 97v60z" />
    <glyph glyph-name="Cacute" unicode="&#x106;" horiz-adv-x="511" 
d="M475 200q0 -213 -206 -213q-139 0 -182 101q-29 70 -29 270q0 193 28 264q46 115 191 115q192 0 192 -201v-16h-86v13q0 135 -108 135q-85 0 -111 -85q-18 -58 -18 -222q0 -176 18 -231q24 -76 105 -76q119 0 119 148v14h87v-16zM400 921l-134 -141h-58l102 141h90z" />
    <glyph glyph-name="cacute" unicode="&#x107;" horiz-adv-x="406" 
d="M377 157q0 -167 -157 -167q-108 0 -145 70q-28 53 -28 184t25 186q38 85 150 85q86 0 122 -40q33 -38 33 -123h-78q0 106 -78 106q-62 0 -81 -67q-11 -39 -11 -139q0 -114 17 -157q19 -48 72 -48q47 0 66 33q14 25 15 77h78zM342 731l-134 -141h-58l102 141h90z" />
    <glyph glyph-name="Ccircumflex" unicode="&#x108;" horiz-adv-x="511" 
d="M475 200q0 -213 -206 -213q-139 0 -182 101q-29 70 -29 270q0 193 28 264q46 115 191 115q192 0 192 -201v-16h-86v13q0 135 -108 135q-85 0 -111 -85q-18 -58 -18 -222q0 -176 18 -231q24 -76 105 -76q119 0 119 148v14h87v-16zM420 780h-69l-76 99l-76 -99h-69l107 141
h76z" />
    <glyph glyph-name="ccircumflex" unicode="&#x109;" horiz-adv-x="406" 
d="M377 157q0 -167 -157 -167q-108 0 -145 70q-28 53 -28 184t25 186q38 85 150 85q86 0 122 -40q33 -38 33 -123h-78q0 106 -78 106q-62 0 -81 -67q-11 -39 -11 -139q0 -114 17 -157q19 -48 72 -48q47 0 66 33q14 25 15 77h78zM362 590h-69l-76 99l-76 -99h-69l107 141h76z
" />
    <glyph glyph-name="Cdotaccent" unicode="&#x10a;" horiz-adv-x="511" 
d="M475 200q0 -213 -206 -213q-139 0 -182 101q-29 70 -29 270q0 193 28 264q46 115 191 115q192 0 192 -201v-16h-86v13q0 135 -108 135q-85 0 -111 -85q-18 -58 -18 -222q0 -176 18 -231q24 -76 105 -76q119 0 119 148v14h87v-16zM313 800h-76v96h76v-96z" />
    <glyph glyph-name="cdotaccent" unicode="&#x10b;" horiz-adv-x="406" 
d="M377 157q0 -167 -157 -167q-108 0 -145 70q-28 53 -28 184t25 186q38 85 150 85q86 0 122 -40q33 -38 33 -123h-78q0 106 -78 106q-62 0 -81 -67q-11 -39 -11 -139q0 -114 17 -157q19 -48 72 -48q47 0 66 33q14 25 15 77h78zM255 620h-76v96h76v-96z" />
    <glyph glyph-name="Ccaron" unicode="&#x10c;" horiz-adv-x="511" 
d="M475 200q0 -213 -206 -213q-139 0 -182 101q-29 70 -29 270q0 193 28 264q46 115 191 115q192 0 192 -201v-16h-86v13q0 135 -108 135q-85 0 -111 -85q-18 -58 -18 -222q0 -176 18 -231q24 -76 105 -76q119 0 119 148v14h87v-16zM420 921l-107 -141h-76l-107 141h69
l76 -99l76 99h69z" />
    <glyph glyph-name="ccaron" unicode="&#x10d;" horiz-adv-x="406" 
d="M377 157q0 -167 -157 -167q-108 0 -145 70q-28 53 -28 184t25 186q38 85 150 85q86 0 122 -40q33 -38 33 -123h-78q0 106 -78 106q-62 0 -81 -67q-11 -39 -11 -139q0 -114 17 -157q19 -48 72 -48q47 0 66 33q14 25 15 77h78zM362 731l-107 -141h-76l-107 141h69l76 -99
l76 99h69z" />
    <glyph glyph-name="Dcaron" unicode="&#x10e;" horiz-adv-x="559" 
d="M501 373q0 -114 -8 -169q-15 -104 -62 -149q-57 -55 -174 -55h-177v723h177q107 0 163 -42q50 -37 67 -109q14 -60 14 -199zM412 365q0 100 -5 141q-12 94 -54 124q-34 26 -100 26h-88v-588h99q54 0 87 25q42 31 55 126q6 45 6 146zM427 921l-107 -141h-76l-107 141h69
l76 -99l76 99h69z" />
    <glyph glyph-name="dcaron" unicode="&#x10f;" horiz-adv-x="462" 
d="M322 0l-1 58q-43 -66 -118 -66q-97 0 -133 87q-23 58 -23 180q0 115 27 174q36 82 127 82q76 0 114 -59v267h80v-628q0 -27 4 -95h-77zM318 247q0 103 -15 147q-21 63 -81 63q-59 0 -80 -66q-14 -43 -14 -134q0 -99 16 -145q21 -62 75 -62q64 0 85 63q14 41 14 134z
M538 724l-45 -154h-60l25 154h80z" />
    <glyph glyph-name="Dcroat" unicode="&#x110;" horiz-adv-x="559" 
d="M501 373q0 -114 -8 -169q-15 -104 -62 -149q-57 -55 -174 -55h-177v372h-70v56h70v295h177q107 0 163 -42q50 -37 67 -109q14 -60 14 -199zM412 365q0 100 -5 141q-12 94 -54 124q-34 26 -100 26h-88v-228h150v-56h-150v-304h99q54 0 87 25q42 31 55 126q6 45 6 146z" />
    <glyph glyph-name="dcroat" unicode="&#x111;" horiz-adv-x="462" 
d="M462 634v-58h-67v-481q0 -27 4 -95h-77l-1 58q-43 -66 -118 -66q-97 0 -133 87q-23 58 -23 180q0 115 27 174q36 82 127 82q76 0 114 -59v120h-187v58h187v89h80v-89h67zM318 247q0 103 -15 147q-21 63 -81 63q-59 0 -80 -66q-14 -43 -14 -134q0 -99 16 -145
q21 -62 75 -62q64 0 85 63q14 41 14 134z" />
    <glyph glyph-name="Emacron" unicode="&#x112;" horiz-adv-x="456" 
d="M420 0h-340v723h333v-69h-248v-248h235v-67h-235v-270h255v-69zM377 809h-257v51h257v-51z" />
    <glyph glyph-name="emacron" unicode="&#x113;" horiz-adv-x="436" 
d="M392 241h-264v-34q0 -77 14 -111q20 -49 78 -49q87 0 91 111h78q-7 -168 -169 -168q-105 0 -144 71q-29 53 -29 171q0 134 25 192q39 91 154 91q108 0 144 -80q22 -50 22 -171v-23zM312 295q0 73 -10 103q-18 60 -77 60q-82 0 -93 -98q-4 -34 -4 -65h184zM353 629h-257
v51h257v-51z" />
    <glyph glyph-name="Ebreve" unicode="&#x114;" horiz-adv-x="456" 
d="M420 0h-340v723h333v-69h-248v-248h235v-67h-235v-270h255v-69zM397 910q-14 -131 -149 -131q-61 0 -96.5 35t-41.5 96h43q14 -79 102 -79q80 0 100 79h42z" />
    <glyph glyph-name="ebreve" unicode="&#x115;" horiz-adv-x="436" 
d="M392 241h-264v-34q0 -77 14 -111q20 -49 78 -49q87 0 91 111h78q-7 -168 -169 -168q-105 0 -144 71q-29 53 -29 171q0 134 25 192q39 91 154 91q108 0 144 -80q22 -50 22 -171v-23zM312 295q0 73 -10 103q-18 60 -77 60q-82 0 -93 -98q-4 -34 -4 -65h184zM368 720
q-14 -131 -149 -131q-61 0 -96.5 35t-41.5 96h43q14 -79 102 -79q80 0 100 79h42z" />
    <glyph glyph-name="Edotaccent" unicode="&#x116;" horiz-adv-x="456" 
d="M420 0h-340v723h333v-69h-248v-248h235v-67h-235v-270h255v-69zM296 800h-76v96h76v-96z" />
    <glyph glyph-name="edotaccent" unicode="&#x117;" horiz-adv-x="436" 
d="M392 241h-264v-34q0 -77 14 -111q20 -49 78 -49q87 0 91 111h78q-7 -168 -169 -168q-105 0 -144 71q-29 53 -29 171q0 134 25 192q39 91 154 91q108 0 144 -80q22 -50 22 -171v-23zM312 295q0 73 -10 103q-18 60 -77 60q-82 0 -93 -98q-4 -34 -4 -65h184zM262 620h-76v96
h76v-96z" />
    <glyph glyph-name="Eogonek" unicode="&#x118;" horiz-adv-x="456" 
d="M434 -170q-42 -24 -78 -24q-33 0 -55.5 20t-22.5 53q0 62 96 121h-294v723h333v-69h-248v-248h235v-67h-235v-270h255v-69q-33 -17 -52 -34q-34 -30 -34 -64q0 -22 15.5 -38t37.5 -16q19 0 42 10z" />
    <glyph glyph-name="eogonek" unicode="&#x119;" horiz-adv-x="436" 
d="M301 -170q-42 -24 -78 -24q-33 0 -55.5 20t-22.5 53q0 57 80 111h-5q-105 0 -144 71q-29 53 -29 171q0 134 25 192q39 91 154 91q108 0 144 -80q22 -50 22 -171v-23h-264v-34q0 -77 14 -111q20 -49 78 -49q87 0 91 111h78q-6 -135 -111 -161q-77 -44 -77 -95
q0 -22 15.5 -38t37.5 -16q18 0 42 10zM312 295q0 73 -10 103q-18 60 -77 60q-82 0 -93 -98q-4 -34 -4 -65h184z" />
    <glyph glyph-name="Ecaron" unicode="&#x11a;" horiz-adv-x="456" 
d="M420 0h-340v723h333v-69h-248v-248h235v-67h-235v-270h255v-69zM403 921l-107 -141h-76l-107 141h69l76 -99l76 99h69z" />
    <glyph glyph-name="ecaron" unicode="&#x11b;" horiz-adv-x="436" 
d="M392 241h-264v-34q0 -77 14 -111q20 -49 78 -49q87 0 91 111h78q-7 -168 -169 -168q-105 0 -144 71q-29 53 -29 171q0 134 25 192q39 91 154 91q108 0 144 -80q22 -50 22 -171v-23zM312 295q0 73 -10 103q-18 60 -77 60q-82 0 -93 -98q-4 -34 -4 -65h184zM369 731
l-107 -141h-76l-107 141h69l76 -99l76 99h69z" />
    <glyph glyph-name="Gcircumflex" unicode="&#x11c;" horiz-adv-x="542" 
d="M487 529h-87v13q0 127 -114 127q-93 0 -122 -95q-17 -57 -17 -212q0 -163 17 -217q28 -91 126 -91q61 0 108 21v237h-125v67h208v-360q-95 -32 -189 -32q-152 0 -200 104q-33 72 -33 266t34 270q48 110 192 110q202 0 202 -198v-10zM432 780h-69l-76 99l-76 -99h-69
l107 141h76z" />
    <glyph glyph-name="gcircumflex" unicode="&#x11d;" horiz-adv-x="463" 
d="M400 504q0 -11 -1.5 -39.5t-1.5 -44.5v-441q0 -92 -43 -134t-137 -42q-156 0 -158 146h84q0 -92 78 -92q61 0 81 44q14 29 14 96v68q-42 -59 -117 -59q-94 0 -129 79q-23 52 -23 162q0 122 25 182q36 86 128 86q84 0 121 -70v59h79zM318 268q0 85 -14 126q-22 62 -82 62
q-62 0 -82 -70q-12 -42 -12 -139q0 -87 12 -124q19 -62 77 -62q68 0 90 75q11 39 11 132zM377 590h-69l-76 99l-76 -99h-69l107 141h76z" />
    <glyph glyph-name="Gbreve" unicode="&#x11e;" horiz-adv-x="542" 
d="M487 529h-87v13q0 127 -114 127q-93 0 -122 -95q-17 -57 -17 -212q0 -163 17 -217q28 -91 126 -91q61 0 108 21v237h-125v67h208v-360q-95 -32 -189 -32q-152 0 -200 104q-33 72 -33 266t34 270q48 110 192 110q202 0 202 -198v-10zM431 910q-14 -131 -149 -131
q-61 0 -96.5 35t-41.5 96h43q14 -79 102 -79q80 0 100 79h42z" />
    <glyph glyph-name="gbreve" unicode="&#x11f;" horiz-adv-x="463" 
d="M400 504q0 -11 -1.5 -39.5t-1.5 -44.5v-441q0 -92 -43 -134t-137 -42q-156 0 -158 146h84q0 -92 78 -92q61 0 81 44q14 29 14 96v68q-42 -59 -117 -59q-94 0 -129 79q-23 52 -23 162q0 122 25 182q36 86 128 86q84 0 121 -70v59h79zM318 268q0 85 -14 126q-22 62 -82 62
q-62 0 -82 -70q-12 -42 -12 -139q0 -87 12 -124q19 -62 77 -62q68 0 90 75q11 39 11 132zM376 720q-14 -131 -149 -131q-61 0 -96.5 35t-41.5 96h43q14 -79 102 -79q80 0 100 79h42z" />
    <glyph glyph-name="Gdotaccent" unicode="&#x120;" horiz-adv-x="542" 
d="M487 529h-87v13q0 127 -114 127q-93 0 -122 -95q-17 -57 -17 -212q0 -163 17 -217q28 -91 126 -91q61 0 108 21v237h-125v67h208v-360q-95 -32 -189 -32q-152 0 -200 104q-33 72 -33 266t34 270q48 110 192 110q202 0 202 -198v-10zM325 800h-76v96h76v-96z" />
    <glyph glyph-name="gdotaccent" unicode="&#x121;" horiz-adv-x="463" 
d="M400 504q0 -11 -1.5 -39.5t-1.5 -44.5v-441q0 -92 -43 -134t-137 -42q-156 0 -158 146h84q0 -92 78 -92q61 0 81 44q14 29 14 96v68q-42 -59 -117 -59q-94 0 -129 79q-23 52 -23 162q0 122 25 182q36 86 128 86q84 0 121 -70v59h79zM318 268q0 85 -14 126q-22 62 -82 62
q-62 0 -82 -70q-12 -42 -12 -139q0 -87 12 -124q19 -62 77 -62q68 0 90 75q11 39 11 132zM270 620h-76v96h76v-96z" />
    <glyph glyph-name="Gcommaaccent" unicode="&#x122;" horiz-adv-x="542" 
d="M487 529h-87v13q0 127 -114 127q-93 0 -122 -95q-17 -57 -17 -212q0 -163 17 -217q28 -91 126 -91q61 0 108 21v237h-125v67h208v-360q-95 -32 -189 -32q-152 0 -200 104q-33 72 -33 266t34 270q48 110 192 110q202 0 202 -198v-10zM326 -56l-50 -144h-59l35 144h74z" />
    <glyph glyph-name="gcommaaccent" unicode="&#x123;" horiz-adv-x="463" 
d="M400 504q0 -11 -1.5 -39.5t-1.5 -44.5v-441q0 -92 -43 -134t-137 -42q-156 0 -158 146h84q0 -92 78 -92q61 0 81 44q14 29 14 96v68q-42 -59 -117 -59q-94 0 -129 79q-23 52 -23 162q0 122 25 182q36 86 128 86q84 0 121 -70v59h79zM318 268q0 85 -14 126q-22 62 -82 62
q-62 0 -82 -70q-12 -42 -12 -139q0 -87 12 -124q19 -62 77 -62q68 0 90 75q11 39 11 132zM195 590l49 141h59l-36 -141h-72z" />
    <glyph glyph-name="Hcircumflex" unicode="&#x124;" horiz-adv-x="574" 
d="M494 0h-85v339h-244v-339h-85v723h85v-316h244v316h85v-723zM436 780h-69l-76 99l-76 -99h-69l107 141h76z" />
    <glyph glyph-name="hcircumflex" unicode="&#x125;" horiz-adv-x="472" 
d="M405 0h-79v322q0 64 -9 89q-17 44 -69 44q-102 0 -102 -149v-306h-79v723h79v-277q49 69 127 69q132 0 132 -158v-357zM253 780h-69l-76 99l-76 -99h-69l107 141h76z" />
    <glyph glyph-name="Hbar" unicode="&#x126;" horiz-adv-x="574" 
d="M165 540h244v183h85v-723h-85v339h-244v-339h-85v723h85v-183zM165 472v-65h244v65h-244z" />
    <glyph glyph-name="hbar" unicode="&#x127;" horiz-adv-x="472" 
d="M334 634v-58h-188v-130q49 69 127 69q132 0 132 -158v-357h-79v322q0 64 -9 89q-17 44 -69 44q-102 0 -102 -149v-306h-79v576h-67v58h67v89h79v-89h188z" />
    <glyph glyph-name="Itilde" unicode="&#x128;" horiz-adv-x="245" 
d="M165 0h-85v723h85v-723zM279 898q-4 -41 -24 -69q-24 -33 -63 -33q-27 0 -72.5 21t-66.5 21q-36 0 -45 -48h-41q4 43 28.5 72.5t64.5 29.5q24 0 67.5 -21t65.5 -21q36 0 44 48h42z" />
    <glyph glyph-name="itilde" unicode="&#x129;" horiz-adv-x="213" 
d="M146 0h-79v504h79v-504zM263 708q-4 -41 -24 -69q-24 -33 -63 -33q-27 0 -72.5 21t-66.5 21q-36 0 -45 -48h-41q4 43 28.5 72.5t64.5 29.5q24 0 67.5 -21t65.5 -21q36 0 44 48h42z" />
    <glyph glyph-name="Imacron" unicode="&#x12a;" horiz-adv-x="245" 
d="M165 0h-85v723h85v-723zM252 809h-257v51h257v-51z" />
    <glyph glyph-name="imacron" unicode="&#x12b;" horiz-adv-x="213" 
d="M146 0h-79v504h79v-504zM236 629h-257v51h257v-51z" />
    <glyph glyph-name="Iogonek" unicode="&#x12e;" horiz-adv-x="245" 
d="M179 -170q-42 -24 -78 -24q-33 0 -55.5 20t-22.5 53q0 62 96 121h-39v723h85v-723q-33 -16 -54 -35q-32 -29 -32 -63q0 -22 15.5 -38t37.5 -16q19 0 42 10z" />
    <glyph glyph-name="iogonek" unicode="&#x12f;" horiz-adv-x="213" 
d="M160 -170q-42 -24 -78 -24q-33 0 -55.5 20t-22.5 53q0 62 96 121h-33v504h79v-504q-86 -44 -86 -98q0 -22 15.5 -38t37.5 -16q19 0 42 10zM150 627h-87v86h87v-86z" />
    <glyph glyph-name="Idotaccent" unicode="&#x130;" horiz-adv-x="245" 
d="M165 0h-85v723h85v-723zM161 800h-76v96h76v-96z" />
    <glyph glyph-name="dotlessi" unicode="&#x131;" horiz-adv-x="213" 
d="M146 0h-79v504h79v-504z" />
    <glyph glyph-name="IJ" unicode="&#x132;" horiz-adv-x="701" 
d="M165 0h-85v723h85v-723zM626 215q0 -113 -35 -166q-42 -62 -146 -62q-100 0 -141 57q-34 48 -34 149v20h85v-13q0 -70 13 -99q20 -46 79 -46q65 0 84 57q10 30 10 111v500h85v-508z" />
    <glyph glyph-name="ij" unicode="&#x133;" horiz-adv-x="426" 
d="M150 627h-87v86h87v-86zM146 0h-79v504h79v-504zM363 627h-88v86h88v-86zM359 -66q0 -71 -20 -100q-25 -34 -93 -34q-26 0 -40 2v63q11 -2 17 -2q37 0 48 19q8 14 8 58v564h80v-570z" />
    <glyph glyph-name="Jcircumflex" unicode="&#x134;" horiz-adv-x="456" 
d="M381 215q0 -113 -35 -166q-42 -62 -146 -62q-100 0 -141 57q-34 48 -34 149v20h85v-13q0 -70 13 -99q20 -46 79 -46q65 0 84 57q10 30 10 111v500h85v-508zM484 780h-69l-76 99l-76 -99h-69l107 141h76z" />
    <glyph glyph-name="jcircumflex" unicode="&#x135;" horiz-adv-x="213" 
d="M146 -66q0 -71 -20 -100q-25 -34 -93 -34q-26 0 -40 2v63q11 -2 17 -2q37 0 48 19q8 14 8 58v564h80v-570zM252 590h-69l-76 99l-76 -99h-69l107 141h76z" />
    <glyph glyph-name="Kcommaaccent" unicode="&#x136;" horiz-adv-x="499" 
d="M495 0h-100l-226 388l220 335h98l-229 -333zM165 0h-85v723h85v-723zM311 -56l-50 -144h-59l35 144h74z" />
    <glyph glyph-name="kcommaaccent" unicode="&#x137;" horiz-adv-x="410" 
d="M408 0h-93l-166 282l151 222h92l-157 -220zM146 0h-79v723h79v-723zM266 -56l-50 -144h-59l35 144h74z" />
    <glyph glyph-name="Lacute" unicode="&#x139;" horiz-adv-x="412" 
d="M392 0h-312v723h85v-654h227v-69zM271 921l-134 -141h-58l102 141h90z" />
    <glyph glyph-name="lacute" unicode="&#x13a;" horiz-adv-x="213" 
d="M146 0h-79v723h79v-723zM232 911l-134 -141h-58l102 141h90z" />
    <glyph glyph-name="Lcommaaccent" unicode="&#x13b;" horiz-adv-x="412" 
d="M392 0h-312v723h85v-654h227v-69zM271 -56l-50 -144h-59l35 144h74z" />
    <glyph glyph-name="lcommaaccent" unicode="&#x13c;" horiz-adv-x="213" 
d="M146 0h-79v723h79v-723zM146 -56l-50 -144h-59l35 144h74z" />
    <glyph glyph-name="Lcaron" unicode="&#x13d;" horiz-adv-x="412" 
d="M392 0h-312v723h85v-654h227v-69zM351 724l-45 -154h-60l25 154h80z" />
    <glyph glyph-name="lcaron" unicode="&#x13e;" horiz-adv-x="213" 
d="M146 0h-79v723h79v-723zM291 724l-45 -154h-60l25 154h80z" />
    <glyph glyph-name="Ldot" unicode="&#x13f;" horiz-adv-x="412" 
d="M392 0h-312v723h85v-654h227v-69zM329 335h-76v96h76v-96z" />
    <glyph glyph-name="ldot" unicode="&#x140;" horiz-adv-x="276" 
d="M146 0h-79v723h79v-723zM276 326h-76v96h76v-96z" />
    <glyph glyph-name="Lslash" unicode="&#x141;" horiz-adv-x="409" 
d="M392 0h-312v313l-69 -43v62l69 43v348h85v-301l127 78v-62l-127 -79v-290h227v-69z" />
    <glyph glyph-name="lslash" unicode="&#x142;" horiz-adv-x="218" 
d="M218 450l-69 -48v-402h-80v348l-69 -50v59l69 49v317h80v-262l69 47v-58z" />
    <glyph glyph-name="Nacute" unicode="&#x143;" horiz-adv-x="613" 
d="M533 0h-132l-243 650v-650h-78v723h132l243 -650v650h78v-723zM431 921l-134 -141h-58l102 141h90z" />
    <glyph glyph-name="nacute" unicode="&#x144;" horiz-adv-x="472" 
d="M405 0h-79v322q0 65 -9 89q-17 44 -69 44q-51 0 -79 -50q-23 -43 -23 -102v-303h-79v394q0 67 -4 110h78v-69q42 80 131 80q133 0 133 -157v-358zM362 731l-134 -141h-58l102 141h90z" />
    <glyph glyph-name="Ncommaaccent" unicode="&#x145;" horiz-adv-x="613" 
d="M533 0h-132l-243 650v-650h-78v723h132l243 -650v650h78v-723zM345 -56l-50 -144h-59l35 144h74z" />
    <glyph glyph-name="ncommaaccent" unicode="&#x146;" horiz-adv-x="472" 
d="M405 0h-79v322q0 65 -9 89q-17 44 -69 44q-51 0 -79 -50q-23 -43 -23 -102v-303h-79v394q0 67 -4 110h78v-69q42 80 131 80q133 0 133 -157v-358zM276 -56l-50 -144h-59l35 144h74z" />
    <glyph glyph-name="Ncaron" unicode="&#x147;" horiz-adv-x="613" 
d="M533 0h-132l-243 650v-650h-78v723h132l243 -650v650h78v-723zM451 921l-107 -141h-76l-107 141h69l76 -99l76 99h69z" />
    <glyph glyph-name="ncaron" unicode="&#x148;" horiz-adv-x="472" 
d="M405 0h-79v322q0 65 -9 89q-17 44 -69 44q-51 0 -79 -50q-23 -43 -23 -102v-303h-79v394q0 67 -4 110h78v-69q42 80 131 80q133 0 133 -157v-358zM382 731l-107 -141h-76l-107 141h69l76 -99l76 99h69z" />
    <glyph glyph-name="napostrophe" unicode="&#x149;" horiz-adv-x="472" 
d="M405 0h-79v322q0 65 -9 89q-17 44 -69 44q-51 0 -79 -50q-23 -43 -23 -102v-303h-79v394q0 67 -4 110h78v-69q42 80 131 80q133 0 133 -157v-358zM69 724l-45 -154h-60l25 154h80z" />
    <glyph glyph-name="Omacron" unicode="&#x14c;" horiz-adv-x="554" 
d="M496 359q0 -189 -31 -261q-48 -111 -190 -111q-139 0 -187 105q-22 49 -28 130q-2 32 -2 136q0 135 8 191q11 74 47 120q52 68 164 68q110 0 162 -63q36 -44 48 -122q9 -59 9 -193zM407 364q0 141 -11 196q-22 109 -119 109q-103 0 -123 -125q-8 -51 -8 -181
q0 -141 8 -188q10 -61 36 -89q29 -32 87 -32q94 0 119 114q11 51 11 196zM408 809h-257v51h257v-51z" />
    <glyph glyph-name="omacron" unicode="&#x14d;" horiz-adv-x="445" 
d="M398 255q0 -138 -31 -195q-39 -70 -146 -70q-109 0 -146 70q-28 53 -28 188q0 130 30 188q40 79 150 79q109 0 145 -73q26 -51 26 -187zM316 278q0 86 -10 119q-19 61 -81 61q-65 0 -86 -65q-11 -34 -11 -117v-72q0 -73 12 -104q21 -53 82 -53q59 0 80 51q14 34 14 103
v77zM354 629h-257v51h257v-51z" />
    <glyph glyph-name="Obreve" unicode="&#x14e;" horiz-adv-x="554" 
d="M496 359q0 -189 -31 -261q-48 -111 -190 -111q-139 0 -187 105q-22 49 -28 130q-2 32 -2 136q0 135 8 191q11 74 47 120q52 68 164 68q110 0 162 -63q36 -44 48 -122q9 -59 9 -193zM407 364q0 141 -11 196q-22 109 -119 109q-103 0 -123 -125q-8 -51 -8 -181
q0 -141 8 -188q10 -61 36 -89q29 -32 87 -32q94 0 119 114q11 51 11 196zM423 910q-14 -131 -149 -131q-61 0 -96.5 35t-41.5 96h43q14 -79 102 -79q80 0 100 79h42z" />
    <glyph glyph-name="obreve" unicode="&#x14f;" horiz-adv-x="445" 
d="M398 255q0 -138 -31 -195q-39 -70 -146 -70q-109 0 -146 70q-28 53 -28 188q0 130 30 188q40 79 150 79q109 0 145 -73q26 -51 26 -187zM316 278q0 86 -10 119q-19 61 -81 61q-65 0 -86 -65q-11 -34 -11 -117v-72q0 -73 12 -104q21 -53 82 -53q59 0 80 51q14 34 14 103
v77zM369 720q-14 -131 -149 -131q-61 0 -96.5 35t-41.5 96h43q14 -79 102 -79q80 0 100 79h42z" />
    <glyph glyph-name="Ohungarumlaut" unicode="&#x150;" horiz-adv-x="554" 
d="M496 359q0 -189 -31 -261q-48 -111 -190 -111q-139 0 -187 105q-22 49 -28 130q-2 32 -2 136q0 135 8 191q11 74 47 120q52 68 164 68q110 0 162 -63q36 -44 48 -122q9 -59 9 -193zM407 364q0 141 -11 196q-22 109 -119 109q-103 0 -123 -125q-8 -51 -8 -181
q0 -141 8 -188q10 -61 36 -89q29 -32 87 -32q94 0 119 114q11 51 11 196zM493 921l-135 -141h-57l101 141h91zM344 921l-135 -141h-56l101 141h90z" />
    <glyph glyph-name="ohungarumlaut" unicode="&#x151;" horiz-adv-x="445" 
d="M398 255q0 -138 -31 -195q-39 -70 -146 -70q-109 0 -146 70q-28 53 -28 188q0 130 30 188q40 79 150 79q109 0 145 -73q26 -51 26 -187zM316 278q0 86 -10 119q-19 61 -81 61q-65 0 -86 -65q-11 -34 -11 -117v-72q0 -73 12 -104q21 -53 82 -53q59 0 80 51q14 34 14 103
v77zM439 731l-135 -141h-57l101 141h91zM290 731l-135 -141h-56l101 141h90z" />
    <glyph glyph-name="OE" unicode="&#x152;" horiz-adv-x="762" 
d="M726 0h-253q-18 0 -80.5 -1.5t-80.5 -1.5q-88 0 -139 24q-71 35 -96 127q-18 65 -18 194q0 188 34 264q53 118 214 118q21 0 87 -2t87 -2h238v-69h-244v-243h231v-68h-231v-270h251v-70zM390 654q-35 3 -65 3q-89 0 -131 -45q-37 -39 -46 -121q-4 -38 -4 -148
q0 -26 1 -73q2 -100 32 -146q39 -60 140 -60q-11 0 73 4v586z" />
    <glyph glyph-name="oe" unicode="&#x153;" horiz-adv-x="711" 
d="M667 241h-266v-37q0 -70 14 -104q22 -54 82 -54q90 0 90 111h77q0 -78 -44.5 -122.5t-121.5 -44.5q-102 0 -140 83q-39 -82 -141 -82q-108 0 -145 76q-25 52 -25 171v35q0 112 30 167q42 76 148 76q103 0 140 -85q38 85 139 85q163 0 163 -214v-61zM586 295v29
q0 135 -90 135q-96 0 -96 -144v-20h186zM323 287q0 76 -15 113q-22 58 -81 58q-64 0 -86 -59q-14 -38 -14 -128v-59q0 -75 13 -109q22 -56 85 -56q64 0 85 63q13 38 13 121v56z" />
    <glyph glyph-name="Racute" unicode="&#x154;" horiz-adv-x="524" 
d="M379 0q-7 40 -7 75q0 18 -4 95q-5 108 -17 130q-20 38 -101 38h-85v-338h-85v723h193q98 0 143 -38q49 -41 49 -140q0 -72 -23 -111q-27 -46 -91 -63q55 -5 77 -36q18 -24 23 -79q0 -4 5 -121q2 -33 5 -89q2 -15 6 -46h-88zM378 541q0 63 -28 88.5t-89 25.5h-96v-250h71
q81 0 111.5 28t30.5 108zM390 921l-134 -141h-58l102 141h90z" />
    <glyph glyph-name="racute" unicode="&#x155;" horiz-adv-x="290" 
d="M277 438q-12 2 -17 2q-57 0 -85.5 -35t-28.5 -93v-312h-80v412q0 51 -3 92h78v-66q41 76 128 76q8 0 8 -76zM291 731l-134 -141h-58l102 141h90z" />
    <glyph glyph-name="Rcommaaccent" unicode="&#x156;" horiz-adv-x="524" 
d="M379 0q-7 40 -7 75q0 18 -4 95q-5 108 -17 130q-20 38 -101 38h-85v-338h-85v723h193q98 0 143 -38q49 -41 49 -140q0 -72 -23 -111q-27 -46 -91 -63q55 -5 77 -36q18 -24 23 -79q0 -4 5 -121q2 -33 5 -89q2 -15 6 -46h-88zM378 541q0 63 -28 88.5t-89 25.5h-96v-250h71
q81 0 111.5 28t30.5 108zM306 -56l-50 -144h-59l35 144h74z" />
    <glyph glyph-name="rcommaaccent" unicode="&#x157;" horiz-adv-x="290" 
d="M277 438q-12 2 -17 2q-57 0 -85.5 -35t-28.5 -93v-312h-80v412q0 51 -3 92h78v-66q41 76 128 76q8 0 8 -76zM148 -56l-50 -144h-59l35 144h74z" />
    <glyph glyph-name="Rcaron" unicode="&#x158;" horiz-adv-x="524" 
d="M379 0q-7 40 -7 75q0 18 -4 95q-5 108 -17 130q-20 38 -101 38h-85v-338h-85v723h193q98 0 143 -38q49 -41 49 -140q0 -72 -23 -111q-27 -46 -91 -63q55 -5 77 -36q18 -24 23 -79q0 -4 5 -121q2 -33 5 -89q2 -15 6 -46h-88zM378 541q0 63 -28 88.5t-89 25.5h-96v-250h71
q81 0 111.5 28t30.5 108zM410 921l-107 -141h-76l-107 141h69l76 -99l76 99h69z" />
    <glyph glyph-name="rcaron" unicode="&#x159;" horiz-adv-x="290" 
d="M277 438q-12 2 -17 2q-57 0 -85.5 -35t-28.5 -93v-312h-80v412q0 51 -3 92h78v-66q41 76 128 76q8 0 8 -76zM311 731l-107 -141h-76l-107 141h69l76 -99l76 99h69z" />
    <glyph glyph-name="Sacute" unicode="&#x15a;" horiz-adv-x="486" 
d="M443 177q0 -94 -53 -142t-145 -48q-107 0 -155 51q-47 49 -47 157v8h88v-8q0 -68 22 -100q27 -41 92 -41q110 0 110 117q0 59 -38 97q-17 17 -87 60q-97 60 -126 90q-51 54 -51 138q0 88 56 136q52 45 141 45q187 0 187 -175v-24h-86v17q0 56 -20 82q-25 32 -84 32
q-50 0 -78 -29t-28 -79q0 -62 47 -103q4 -3 102 -66q87 -55 108 -80q45 -50 45 -135zM376 921l-134 -141h-58l102 141h90z" />
    <glyph glyph-name="sacute" unicode="&#x15b;" horiz-adv-x="383" 
d="M346 138q0 -147 -158 -147q-155 0 -152 163h79q0 -15 1 -28q7 -79 74 -79q76 0 76 78q0 42 -24 66q-15 16 -67 44q-71 38 -90 56q-38 35 -38 93q0 65 43 99q40 32 107 32q78 0 111 -36.5t35 -112.5h-79q0 94 -71 94q-31 0 -49 -19t-18 -50q0 -34 29 -58q15 -14 71 -44
q61 -33 84 -56q36 -38 36 -95zM321 731l-134 -141h-58l102 141h90z" />
    <glyph glyph-name="Scircumflex" unicode="&#x15c;" horiz-adv-x="486" 
d="M443 177q0 -94 -53 -142t-145 -48q-107 0 -155 51q-47 49 -47 157v8h88v-8q0 -68 22 -100q27 -41 92 -41q110 0 110 117q0 59 -38 97q-17 17 -87 60q-97 60 -126 90q-51 54 -51 138q0 88 56 136q52 45 141 45q187 0 187 -175v-24h-86v17q0 56 -20 82q-25 32 -84 32
q-50 0 -78 -29t-28 -79q0 -62 47 -103q4 -3 102 -66q87 -55 108 -80q45 -50 45 -135zM396 780h-69l-76 99l-76 -99h-69l107 141h76z" />
    <glyph glyph-name="scircumflex" unicode="&#x15d;" horiz-adv-x="383" 
d="M346 138q0 -147 -158 -147q-155 0 -152 163h79q0 -15 1 -28q7 -79 74 -79q76 0 76 78q0 42 -24 66q-15 16 -67 44q-71 38 -90 56q-38 35 -38 93q0 65 43 99q40 32 107 32q78 0 111 -36.5t35 -112.5h-79q0 94 -71 94q-31 0 -49 -19t-18 -50q0 -34 29 -58q15 -14 71 -44
q61 -33 84 -56q36 -38 36 -95zM341 590h-69l-76 99l-76 -99h-69l107 141h76z" />
    <glyph glyph-name="Scedilla" unicode="&#x15e;" horiz-adv-x="486" 
d="M350 -126q0 -41 -32.5 -63.5t-75.5 -22.5q-51 0 -94 21l15 33q35 -15 66 -15q23 0 41 11t18 33q0 39 -50 39q-17 0 -39 -8l-16 15l50 70q-98 3 -143 51q-47 49 -47 157v8h88v-8q0 -68 22 -100q27 -41 92 -41q110 0 110 117q0 59 -38 97q-17 17 -87 60q-97 60 -126 90
q-51 54 -51 138q0 88 56 136q52 45 141 45q187 0 187 -175v-24h-86v17q0 56 -20 82q-25 32 -84 32q-50 0 -78 -29t-28 -79q0 -62 47 -103q4 -3 102 -66q87 -55 108 -80q45 -50 45 -135q0 -94 -53 -142q-45 -40 -117 -47l-34 -47q16 6 32 6q33 0 56 -20.5t23 -52.5z" />
    <glyph glyph-name="scedilla" unicode="&#x15f;" horiz-adv-x="383" 
d="M295 -126q0 -41 -32.5 -63.5t-75.5 -22.5q-51 0 -94 21l15 33q35 -15 66 -15q23 0 41 11t18 33q0 39 -50 39q-17 0 -39 -8l-16 15l53 74q-148 4 -145 163h79q0 -15 1 -28q7 -79 74 -79q76 0 76 78q0 42 -24 66q-15 16 -67 44q-71 38 -90 56q-38 35 -38 93q0 65 43 99
q40 32 107 32q78 0 111 -36.5t35 -112.5h-79q0 94 -71 94q-31 0 -49 -19t-18 -50q0 -34 29 -58q15 -14 71 -44q61 -33 84 -56q36 -38 36 -95q0 -130 -124 -145l-38 -52q16 6 32 6q33 0 56 -20.5t23 -52.5z" />
    <glyph glyph-name="Scaron" unicode="&#x160;" horiz-adv-x="486" 
d="M443 177q0 -94 -53 -142t-145 -48q-107 0 -155 51q-47 49 -47 157v8h88v-8q0 -68 22 -100q27 -41 92 -41q110 0 110 117q0 59 -38 97q-17 17 -87 60q-97 60 -126 90q-51 54 -51 138q0 88 56 136q52 45 141 45q187 0 187 -175v-24h-86v17q0 56 -20 82q-25 32 -84 32
q-50 0 -78 -29t-28 -79q0 -62 47 -103q4 -3 102 -66q87 -55 108 -80q45 -50 45 -135zM396 921l-107 -141h-76l-107 141h69l76 -99l76 99h69z" />
    <glyph glyph-name="scaron" unicode="&#x161;" horiz-adv-x="383" 
d="M346 138q0 -147 -158 -147q-155 0 -152 163h79q0 -15 1 -28q7 -79 74 -79q76 0 76 78q0 42 -24 66q-15 16 -67 44q-71 38 -90 56q-38 35 -38 93q0 65 43 99q40 32 107 32q78 0 111 -36.5t35 -112.5h-79q0 94 -71 94q-31 0 -49 -19t-18 -50q0 -34 29 -58q15 -14 71 -44
q61 -33 84 -56q36 -38 36 -95zM341 731l-107 -141h-76l-107 141h69l76 -99l76 99h69z" />
    <glyph glyph-name="Tcommaaccent" unicode="&#x162;" horiz-adv-x="433" 
d="M426 654h-167v-654h-85v654h-167v69h419v-69zM258 -56l-50 -144h-59l35 144h74z" />
    <glyph glyph-name="tcommaaccent" unicode="&#x163;" horiz-adv-x="279" 
d="M262 0q-37 -4 -58 -4q-68 0 -93 29q-21 26 -21 95v326h-75v58h75v93l79 35v-128h90v-58h-90v-317q0 -42 12 -56.5t45 -14.5q6 0 36 4v-62zM190 -56l-50 -144h-59l35 144h74z" />
    <glyph glyph-name="Tcaron" unicode="&#x164;" horiz-adv-x="433" 
d="M426 654h-167v-654h-85v654h-167v69h419v-69zM364 921l-107 -141h-76l-107 141h69l76 -99l76 99h69z" />
    <glyph glyph-name="tcaron" unicode="&#x165;" horiz-adv-x="279" 
d="M262 0q-37 -4 -58 -4q-68 0 -93 29q-21 26 -21 95v326h-75v58h75v93l79 35v-128h90v-58h-90v-317q0 -42 12 -56.5t45 -14.5q6 0 36 4v-62zM325 724l-45 -154h-60l25 154h80z" />
    <glyph glyph-name="Tbar" unicode="&#x166;" horiz-adv-x="433" 
d="M397 339h-138v-339h-85v339h-138v68h138v247h-167v69h419v-69h-167v-247h138v-68z" />
    <glyph glyph-name="tbar" unicode="&#x167;" horiz-adv-x="279" 
d="M259 364v-58h-90v-177q0 -42 12 -56.5t45 -14.5q6 0 36 4v-62q-37 -4 -58 -4q-68 0 -93 29q-21 26 -21 95v186h-75v58h75v82h-75v58h75v93l79 35v-128h90v-58h-90v-82h90z" />
    <glyph glyph-name="Utilde" unicode="&#x168;" horiz-adv-x="574" 
d="M499 239q0 -127 -45 -187q-50 -65 -167 -65q-122 0 -171 71q-41 59 -41 187v478h85v-474q0 -92 20 -134q28 -61 108 -61q79 0 107 60q20 41 20 131v478h84v-484zM447 898q-4 -41 -24 -69q-24 -33 -63 -33q-27 0 -72.5 21t-66.5 21q-36 0 -45 -48h-41q4 43 28.5 72.5
t64.5 29.5q24 0 67.5 -21t65.5 -21q36 0 44 48h42z" />
    <glyph glyph-name="utilde" unicode="&#x169;" horiz-adv-x="472" 
d="M330 0l-1 64q-46 -72 -127 -72q-135 0 -135 155v357h79v-322q0 -62 10 -88q17 -43 70 -43q99 0 99 147v306h80v-393q0 -59 4 -111h-79zM393 708q-4 -41 -24 -69q-24 -33 -63 -33q-27 0 -72.5 21t-66.5 21q-36 0 -45 -48h-41q4 43 28.5 72.5t64.5 29.5q24 0 67.5 -21
t65.5 -21q36 0 44 48h42z" />
    <glyph glyph-name="Umacron" unicode="&#x16a;" horiz-adv-x="574" 
d="M499 239q0 -127 -45 -187q-50 -65 -167 -65q-122 0 -171 71q-41 59 -41 187v478h85v-474q0 -92 20 -134q28 -61 108 -61q79 0 107 60q20 41 20 131v478h84v-484zM420 809h-257v51h257v-51z" />
    <glyph glyph-name="umacron" unicode="&#x16b;" horiz-adv-x="472" 
d="M330 0l-1 64q-46 -72 -127 -72q-135 0 -135 155v357h79v-322q0 -62 10 -88q17 -43 70 -43q99 0 99 147v306h80v-393q0 -59 4 -111h-79zM366 629h-257v51h257v-51z" />
    <glyph glyph-name="Ubreve" unicode="&#x16c;" horiz-adv-x="574" 
d="M499 239q0 -127 -45 -187q-50 -65 -167 -65q-122 0 -171 71q-41 59 -41 187v478h85v-474q0 -92 20 -134q28 -61 108 -61q79 0 107 60q20 41 20 131v478h84v-484zM435 910q-14 -131 -149 -131q-61 0 -96.5 35t-41.5 96h43q14 -79 102 -79q80 0 100 79h42z" />
    <glyph glyph-name="ubreve" unicode="&#x16d;" horiz-adv-x="472" 
d="M330 0l-1 64q-46 -72 -127 -72q-135 0 -135 155v357h79v-322q0 -62 10 -88q17 -43 70 -43q99 0 99 147v306h80v-393q0 -59 4 -111h-79zM381 720q-14 -131 -149 -131q-61 0 -96.5 35t-41.5 96h43q14 -79 102 -79q80 0 100 79h42z" />
    <glyph glyph-name="Uring" unicode="&#x16e;" horiz-adv-x="574" 
d="M499 239q0 -127 -45 -187q-50 -65 -167 -65q-122 0 -171 71q-41 59 -41 187v478h85v-474q0 -92 20 -134q28 -61 108 -61q79 0 107 60q20 41 20 131v478h84v-484zM383 845q0 -38 -27 -65t-65 -27t-65 27t-27 65t27 65t65 27t65 -27t27 -65zM349 845q0 24 -17 41.5
t-41 17.5t-41 -17.5t-17 -41.5t17 -41t41 -17t41 17t17 41z" />
    <glyph glyph-name="uring" unicode="&#x16f;" horiz-adv-x="472" 
d="M330 0l-1 64q-46 -72 -127 -72q-135 0 -135 155v357h79v-322q0 -62 10 -88q17 -43 70 -43q99 0 99 147v306h80v-393q0 -59 4 -111h-79zM329 669q0 -38 -27 -65t-65 -27t-65 27t-27 65t27 65t65 27t65 -27t27 -65zM295 669q0 24 -17 41.5t-41 17.5t-41 -17.5t-17 -41.5
t17 -41t41 -17t41 17t17 41z" />
    <glyph glyph-name="Uhungarumlaut" unicode="&#x170;" horiz-adv-x="574" 
d="M499 239q0 -127 -45 -187q-50 -65 -167 -65q-122 0 -171 71q-41 59 -41 187v478h85v-474q0 -92 20 -134q28 -61 108 -61q79 0 107 60q20 41 20 131v478h84v-484zM505 921l-135 -141h-57l101 141h91zM356 921l-135 -141h-56l101 141h90z" />
    <glyph glyph-name="uhungarumlaut" unicode="&#x171;" horiz-adv-x="472" 
d="M330 0l-1 64q-46 -72 -127 -72q-135 0 -135 155v357h79v-322q0 -62 10 -88q17 -43 70 -43q99 0 99 147v306h80v-393q0 -59 4 -111h-79zM451 731l-135 -141h-57l101 141h91zM302 731l-135 -141h-56l101 141h90z" />
    <glyph glyph-name="Uogonek" unicode="&#x172;" horiz-adv-x="574" 
d="M366 -170q-42 -24 -78 -24q-33 0 -55.5 20t-22.5 53q0 56 76 108q-121 1 -170 71q-41 59 -41 187v478h85v-474q0 -91 20 -134q28 -61 108 -61q79 0 107 60q20 42 20 131v478h84v-484q0 -127 -45 -187q-40 -51 -123 -62q-65 -41 -65 -88q0 -22 15.5 -38t37.5 -16
q19 0 42 10z" />
    <glyph glyph-name="uogonek" unicode="&#x173;" horiz-adv-x="472" 
d="M423 -170q-42 -24 -78 -24q-33 0 -55.5 20t-22.5 53q0 62 96 121h-33l-1 64q-46 -72 -127 -72q-135 0 -135 155v357h79v-322q0 -64 10 -88q16 -43 70 -43q99 0 99 147v306h80v-393q0 -29 1 -57t3 -54q-86 -44 -86 -98q0 -22 15.5 -38t37.5 -16q19 0 42 10z" />
    <glyph glyph-name="Wcircumflex" unicode="&#x174;" horiz-adv-x="829" 
d="M810 723l-166 -723h-102l-127 634l-134 -634h-102l-160 723h90l124 -632l136 632h102l126 -632l132 632h81zM561 780h-69l-76 99l-76 -99h-69l107 141h76z" />
    <glyph glyph-name="wcircumflex" unicode="&#x175;" horiz-adv-x="671" 
d="M654 504l-126 -504h-95l-98 417l-96 -417h-95l-127 504h85l93 -429l98 429h92l100 -429l92 429h77zM482 590h-69l-76 99l-76 -99h-69l107 141h76z" />
    <glyph glyph-name="Ycircumflex" unicode="&#x176;" horiz-adv-x="483" 
d="M479 723l-198 -439v-284h-85v284l-192 439h94l146 -358l146 358h89zM386 780h-69l-76 99l-76 -99h-69l107 141h76z" />
    <glyph glyph-name="ycircumflex" unicode="&#x177;" horiz-adv-x="402" 
d="M387 504l-202 -695h-77l58 191l-151 504h85l106 -404l103 404h78zM352 590h-69l-76 99l-76 -99h-69l107 141h76z" />
    <glyph glyph-name="Ydieresis" unicode="&#x178;" horiz-adv-x="483" 
d="M479 723l-198 -439v-284h-85v284l-192 439h94l146 -358l146 358h89zM357 800h-76v96h76v-96zM200 800h-74v96h74v-96z" />
    <glyph glyph-name="Zacute" unicode="&#x179;" horiz-adv-x="451" 
d="M424 0h-397v75l307 579h-289v69h377v-79l-305 -575h307v-69zM354 921l-134 -141h-58l102 141h90z" />
    <glyph glyph-name="zacute" unicode="&#x17a;" horiz-adv-x="337" 
d="M310 0h-284v64l197 381h-185v59h270v-62l-197 -382h199v-60zM296 731l-134 -141h-58l102 141h90z" />
    <glyph glyph-name="Zdotaccent" unicode="&#x17b;" horiz-adv-x="451" 
d="M424 0h-397v75l307 579h-289v69h377v-79l-305 -575h307v-69zM267 800h-76v96h76v-96z" />
    <glyph glyph-name="zdotaccent" unicode="&#x17c;" horiz-adv-x="337" 
d="M310 0h-284v64l197 381h-185v59h270v-62l-197 -382h199v-60zM209 620h-76v96h76v-96z" />
    <glyph glyph-name="Zcaron" unicode="&#x17d;" horiz-adv-x="451" 
d="M424 0h-397v75l307 579h-289v69h377v-79l-305 -575h307v-69zM374 921l-107 -141h-76l-107 141h69l76 -99l76 99h69z" />
    <glyph glyph-name="zcaron" unicode="&#x17e;" horiz-adv-x="337" 
d="M310 0h-284v64l197 381h-185v59h270v-62l-197 -382h199v-60zM316 731l-107 -141h-76l-107 141h69l76 -99l76 99h69z" />
    <glyph glyph-name="florin" unicode="&#x192;" horiz-adv-x="452" 
d="M363 649q-15 5 -29 5q-35 0 -51 -33q-10 -20 -16 -65l-12 -88h86l-8 -58h-85l-48 -378q-13 -100 -34 -139q-35 -65 -119 -65q-12 0 -23 2l9 66q3 -1 11 -1q39 0 55 38q14 34 24 114l45 363h-75l9 58h74l11 77q12 86 34 122q33 56 110 56q20 0 42 -5z" />
    <glyph glyph-name="Scommaaccent" unicode="&#x218;" horiz-adv-x="486" 
d="M443 177q0 -94 -53 -142t-145 -48q-107 0 -155 51q-47 49 -47 157v8h88v-8q0 -68 22 -100q27 -41 92 -41q110 0 110 117q0 59 -38 97q-17 17 -87 60q-97 60 -126 90q-51 54 -51 138q0 88 56 136q52 45 141 45q187 0 187 -175v-24h-86v17q0 56 -20 82q-25 32 -84 32
q-50 0 -78 -29t-28 -79q0 -62 47 -103q4 -3 102 -66q87 -55 108 -80q45 -50 45 -135zM290 -56l-50 -144h-59l35 144h74z" />
    <glyph glyph-name="scommaaccent" unicode="&#x219;" horiz-adv-x="383" 
d="M346 138q0 -147 -158 -147q-155 0 -152 163h79q0 -15 1 -28q7 -79 74 -79q76 0 76 78q0 42 -24 66q-15 16 -67 44q-71 38 -90 56q-38 35 -38 93q0 65 43 99q40 32 107 32q78 0 111 -36.5t35 -112.5h-79q0 94 -71 94q-31 0 -49 -19t-18 -50q0 -34 29 -58q15 -14 71 -44
q61 -33 84 -56q36 -38 36 -95zM235 -56l-50 -144h-59l35 144h74z" />
    <glyph glyph-name="uni021A" unicode="&#x21a;" horiz-adv-x="433" 
d="M426 654h-167v-654h-85v654h-167v69h419v-69zM258 -56l-50 -144h-59l35 144h74z" />
    <glyph glyph-name="uni021B" unicode="&#x21b;" horiz-adv-x="279" 
d="M262 0q-37 -4 -58 -4q-68 0 -93 29q-21 26 -21 95v326h-75v58h75v93l79 35v-128h90v-58h-90v-317q0 -42 12 -56.5t45 -14.5q6 0 36 4v-62zM190 -56l-50 -144h-59l35 144h74z" />
    <glyph glyph-name="circumflex" unicode="&#x2c6;" 
d="M242 590h-69l-76 99l-76 -99h-69l107 141h76z" />
    <glyph glyph-name="caron" unicode="&#x2c7;" 
d="M242 731l-107 -141h-76l-107 141h69l76 -99l76 99h69z" />
    <glyph glyph-name="uni02C9" unicode="&#x2c9;" 
d="M226 629h-257v51h257v-51z" />
    <glyph glyph-name="breve" unicode="&#x2d8;" 
d="M241 720q-14 -131 -149 -131q-61 0 -96.5 35t-41.5 96h43q14 -79 102 -79q80 0 100 79h42z" />
    <glyph glyph-name="dotaccent" unicode="&#x2d9;" 
d="M135 620h-76v96h76v-96z" />
    <glyph glyph-name="ring" unicode="&#x2da;" 
d="M189 669q0 -38 -27 -65t-65 -27t-65 27t-27 65t27 65t65 27t65 -27t27 -65zM155 669q0 24 -17 41.5t-41 17.5t-41 -17.5t-17 -41.5t17 -41t41 -17t41 17t17 41z" />
    <glyph glyph-name="ogonek" unicode="&#x2db;" 
d="M164 -170q-42 -24 -78 -24q-33 0 -55.5 20t-22.5 53q0 63 98 122h44q-86 -46 -86 -99q0 -22 15.5 -38t37.5 -16q18 0 42 10z" />
    <glyph glyph-name="tilde" unicode="&#x2dc;" 
d="M253 708q-4 -41 -24 -69q-24 -33 -63 -33q-27 0 -72.5 21t-66.5 21q-36 0 -45 -48h-41q4 43 28.5 72.5t64.5 29.5q24 0 67.5 -21t65.5 -21q36 0 44 48h42z" />
    <glyph glyph-name="hungarumlaut" unicode="&#x2dd;" 
d="M301 731l-135 -141h-57l101 141h91zM152 731l-135 -141h-56l101 141h90z" />
    <glyph glyph-name="uni0394" unicode="&#x394;" horiz-adv-x="671" 
d="M657 0h-643l278 717h81zM552 68l-221 567l-217 -567h438z" />
    <glyph glyph-name="uni03A9" unicode="&#x3a9;" horiz-adv-x="743" 
d="M684 0h-252v204q87 15 134 79q44 60 44 151q0 102 -70 170.5t-173 68.5q-104 0 -174.5 -68.5t-70.5 -172.5q0 -88 45 -150q49 -66 134 -78v-204h-254v64h195v98q-91 25 -144 102q-51 74 -51 170q0 133 95 220q92 86 226 86q131 0 223.5 -86.5t92.5 -217.5q0 -98 -50 -171
q-52 -77 -144 -103v-98h194v-64z" />
    <glyph glyph-name="uni03BC" unicode="&#x3bc;" horiz-adv-x="581" 
d="M490 0h-67v72q-59 -82 -149 -82q-79 0 -126 67v-264h-71v712h72v-252q0 -91 20 -136q29 -67 109 -67q74 0 114 67q27 46 27 138v249h71v-504z" />
    <glyph glyph-name="pi" unicode="&#x3c0;" horiz-adv-x="532" 
d="M516 11q-38 -17 -68 -17q-54 0 -72 35q-12 24 -12 84v326h-221v-439h-71v439h-70v65h510v-65h-77v-324q0 -30 5 -41q7 -18 33 -18q21 0 43 10v-55z" />
    <glyph glyph-name="afii10023" unicode="&#x401;" horiz-adv-x="456" 
d="M420 0h-340v723h333v-69h-248v-248h235v-67h-235v-270h255v-69zM369 800h-76v96h76v-96zM212 800h-74v96h74v-96z" />
    <glyph glyph-name="afii10051" unicode="&#x402;" horiz-adv-x="640" 
d="M273 414q76 43 145 43q177 0 177 -229q0 -127 -40.5 -185t-121.5 -58q-38 0 -79 11v69q34 -12 71 -12q85 0 85 172q0 76 -27.5 118.5t-81.5 42.5q-60 0 -128 -46v-340h-84v645h-172v78h425v-78h-169v-231z" />
    <glyph glyph-name="afii10052" unicode="&#x403;" horiz-adv-x="418" 
d="M165 0h-85v723h312v-69h-227v-654zM394 920l-134 -141h-58l102 141h90z" />
    <glyph glyph-name="afii10053" unicode="&#x404;" horiz-adv-x="499" 
d="M475 200q0 -213 -206 -213q-138 0 -182 101q-29 72 -29 270q0 195 28 264q46 115 191 115q192 0 192 -201v-16h-86v13q0 135 -108 135q-86 0 -111 -85q-16 -49 -18 -176h192v-68h-192q2 -158 18 -209q24 -76 105 -76q119 0 119 148v14h87v-16z" />
    <glyph glyph-name="afii10054" unicode="&#x405;" horiz-adv-x="486" 
d="M443 177q0 -94 -53 -142t-145 -48q-107 0 -155 51q-47 49 -47 157v8h88v-8q0 -68 22 -100q27 -41 92 -41q110 0 110 117q0 59 -38 97q-17 17 -87 60q-97 60 -126 90q-51 54 -51 138q0 88 56 136q52 45 141 45q187 0 187 -175v-24h-86v17q0 56 -20 82q-25 32 -84 32
q-50 0 -78 -29t-28 -79q0 -62 47 -103q4 -3 102 -66q87 -55 108 -80q45 -50 45 -135z" />
    <glyph glyph-name="afii10055" unicode="&#x406;" horiz-adv-x="245" 
d="M165 0h-85v723h85v-723z" />
    <glyph glyph-name="afii10056" unicode="&#x407;" horiz-adv-x="245" 
d="M165 0h-85v723h85v-723zM239 800h-76v96h76v-96zM82 800h-74v96h74v-96z" />
    <glyph glyph-name="afii10057" unicode="&#x408;" horiz-adv-x="456" 
d="M381 215q0 -113 -35 -166q-42 -62 -146 -62q-100 0 -141 57q-34 48 -34 149v20h85v-13q0 -70 13 -99q20 -46 79 -46q65 0 84 57q10 30 10 111v500h85v-508z" />
    <glyph glyph-name="afii10058" unicode="&#x409;" horiz-adv-x="823" 
d="M492 436h91q106 0 153.5 -54t47.5 -165q0 -112 -46.5 -164.5t-154.5 -52.5h-176v645h-209v-426q0 -63 -8 -107.5t-24 -72t-40 -40t-56 -12.5q-41 0 -57 6v72q10 -2 36 -2q36 0 49.5 38.5t13.5 119.5v502h380v-287zM492 78h91q60 0 88.5 32t28.5 107q0 140 -117 140h-91
v-279z" />
    <glyph glyph-name="afii10059" unicode="&#x40a;" horiz-adv-x="785" 
d="M455 436h86q110 0 158 -54.5t48 -164.5q0 -112 -47.5 -164.5t-153.5 -52.5h-177v357h-208v-357h-85v723h85v-289h208v289h86v-287zM455 78h91q60 0 88 32t28 107q0 140 -116 140h-91v-279z" />
    <glyph glyph-name="afii10060" unicode="&#x40b;" horiz-adv-x="619" 
d="M568 0h-87v216q0 63 -23 88.5t-80 25.5h-105v-330h-84v645h-172v78h425v-78h-169v-237h88q69 0 111 -11q42 -10 69 -51t27 -126v-220z" />
    <glyph glyph-name="afii10061" unicode="&#x40c;" horiz-adv-x="499" 
d="M495 0h-100l-226 388l220 335h98l-229 -333zM165 0h-85v723h85v-723zM429 920l-134 -141h-58l102 141h90z" />
    <glyph glyph-name="afii10062" unicode="&#x40e;" horiz-adv-x="458" 
d="M393 921q-3 -70 -42.5 -107t-103.5 -37q-66 0 -106 37t-43 107h58q0 -38 26.5 -58.5t61.5 -20.5q18 0 34 5t29 15t21 25t8 34h57zM106 0l106 292l-203 431h96l147 -324l116 324h88l-269 -723h-81z" />
    <glyph glyph-name="afii10145" unicode="&#x40f;" horiz-adv-x="562" 
d="M494 0h-164v-133h-86v133h-164v723h85v-645h244v645h85v-723z" />
    <glyph glyph-name="afii10017" unicode="&#x410;" horiz-adv-x="548" 
d="M537 0h-88l-51 183h-251l-51 -183h-85l212 723h105zM378 250l-105 393l-105 -393h210z" />
    <glyph glyph-name="afii10018" unicode="&#x411;" horiz-adv-x="523" 
d="M473 217q0 -59 -15.5 -105.5t-43.5 -69.5q-25 -21 -63 -31.5t-94 -10.5h-177v723h323v-68h-239v-222h93q56 0 94 -10.5t63 -31.5q28 -23 43.5 -69t15.5 -105zM386 217q0 40 -9 74.5t-28 48.5q-31 25 -108 25h-77v-297h77q77 0 108 25q19 14 28 49t9 75z" />
    <glyph glyph-name="afii10019" unicode="&#x412;" horiz-adv-x="523" 
d="M473 198q0 -110 -55 -156q-50 -42 -161 -42h-177v723h192q97 0 142.5 -42t45.5 -139q0 -68 -23 -104q-24 -41 -85 -60q70 -17 97 -63q24 -40 24 -117zM375 537q0 67 -33 94q-29 24 -94 24h-84v-247h89q122 0 122 129zM386 202q0 71 -30.5 105.5t-100.5 34.5h-91v-274h77
q76 0 108 25q37 29 37 109z" />
    <glyph glyph-name="afii10020" unicode="&#x413;" horiz-adv-x="418" 
d="M165 0h-85v723h312v-69h-227v-654z" />
    <glyph glyph-name="afii10021" unicode="&#x414;" horiz-adv-x="549" 
d="M504 78v-212h-87v134h-314v-134h-86v211h36q17 38 34 98t30.5 135.5t21.5 164t8 184.5v64h320v-645h37zM382 78v568h-163q-1 -92 -6 -167.5t-15 -142.5t-25.5 -129.5t-37.5 -128.5h247z" />
    <glyph glyph-name="afii10022" unicode="&#x415;" horiz-adv-x="456" 
d="M420 0h-340v723h333v-69h-248v-248h235v-67h-235v-270h255v-69z" />
    <glyph glyph-name="afii10024" unicode="&#x416;" horiz-adv-x="699" 
d="M695 0h-98l-201 388l195 335h96l-202 -333zM392 0h-85v723h85v-723zM214 390l-202 333h96l195 -335l-201 -388h-98z" />
    <glyph glyph-name="afii10025" unicode="&#x417;" horiz-adv-x="452" 
d="M400 198q0 -208 -181 -208q-95 0 -137 45t-42 140h82q0 -123 94 -123q100 0 100 137q0 86 -31 117.5t-112 30.5v63q76 0 107 29.5t31 110.5q0 120 -89 120q-92 0 -92 -117h-80q-4 180 174 180q170 0 170 -177q0 -153 -106 -176q112 -19 112 -172z" />
    <glyph glyph-name="afii10026" unicode="&#x418;" horiz-adv-x="613" 
d="M80 723h78v-650l243 650h132v-723h-78v650l-243 -650h-132v723z" />
    <glyph glyph-name="afii10027" unicode="&#x419;" horiz-adv-x="613" 
d="M80 723h78v-650l243 650h132v-723h-78v650l-243 -650h-132v723zM465 911q-14 -131 -149 -131q-61 0 -96.5 35t-41.5 96h43q14 -79 102 -79q80 0 100 79h42z" />
    <glyph glyph-name="afii10028" unicode="&#x41a;" horiz-adv-x="499" 
d="M495 0h-100l-226 388l220 335h98l-229 -333zM165 0h-85v723h85v-723z" />
    <glyph glyph-name="afii10029" unicode="&#x41b;" horiz-adv-x="599" 
d="M523 0h-85v645h-240v-426q0 -63 -8 -107.5t-24 -72t-40 -40t-56 -12.5q-41 0 -57 6v72q10 -2 36 -2q36 0 50 38.5t14 119.5v502h410v-723z" />
    <glyph glyph-name="afii10030" unicode="&#x41c;" horiz-adv-x="787" 
d="M707 0h-83v660l-186 -660h-95l-186 660v-660h-77v723h140l174 -637l173 637h140v-723z" />
    <glyph glyph-name="afii10031" unicode="&#x41d;" horiz-adv-x="574" 
d="M494 0h-85v339h-244v-339h-85v723h85v-316h244v316h85v-723z" />
    <glyph glyph-name="afii10032" unicode="&#x41e;" horiz-adv-x="554" 
d="M496 359q0 -189 -31 -261q-48 -111 -190 -111q-139 0 -187 105q-22 49 -28 130q-2 32 -2 136q0 135 8 191q11 74 47 120q52 68 164 68q110 0 162 -63q36 -44 48 -122q9 -59 9 -193zM407 364q0 141 -11 196q-22 109 -119 109q-103 0 -123 -125q-8 -51 -8 -181
q0 -141 8 -188q10 -61 36 -89q29 -32 87 -32q94 0 119 114q11 51 11 196z" />
    <glyph glyph-name="afii10033" unicode="&#x41f;" horiz-adv-x="574" 
d="M494 0h-85v655h-244v-655h-85v723h414v-723z" />
    <glyph glyph-name="afii10034" unicode="&#x420;" horiz-adv-x="485" 
d="M453 530q0 -127 -63 -171q-47 -33 -166 -33h-59v-326h-85v723h167q109 0 156 -40q50 -44 50 -153zM366 529q0 72 -29.5 99t-102.5 27h-69v-261h62q77 0 108 29t31 106z" />
    <glyph glyph-name="afii10035" unicode="&#x421;" horiz-adv-x="511" 
d="M475 200q0 -213 -206 -213q-139 0 -182 101q-29 70 -29 270q0 193 28 264q46 115 191 115q192 0 192 -201v-16h-86v13q0 135 -108 135q-85 0 -111 -85q-18 -58 -18 -222q0 -176 18 -231q24 -76 105 -76q119 0 119 148v14h87v-16z" />
    <glyph glyph-name="afii10036" unicode="&#x422;" horiz-adv-x="433" 
d="M426 654h-167v-654h-85v654h-167v69h419v-69z" />
    <glyph glyph-name="afii10037" unicode="&#x423;" horiz-adv-x="458" 
d="M106 0l106 292l-203 431h96l147 -324l116 324h88l-269 -723h-81z" />
    <glyph glyph-name="afii10038" unicode="&#x424;" horiz-adv-x="590" 
d="M337 668q51 -4 88.5 -23t62.5 -56t37.5 -94t12.5 -136t-12.5 -135.5t-37.5 -93.5t-62.5 -56t-88.5 -22v-65h-84v65q-51 4 -89 23t-62.5 56t-37 93t-12.5 135q0 80 12.5 136.5t37 93.5t62.5 55.5t89 23.5v55h84v-55zM337 130q63 2 88 56.5t25 173.5q0 118 -25 172t-88 57
v-459zM253 589q-63 -3 -88 -57t-25 -172q0 -119 25 -173.5t88 -56.5v459z" />
    <glyph glyph-name="afii10039" unicode="&#x425;" horiz-adv-x="500" 
d="M491 0h-96l-149 314l-148 -314h-89l188 374l-174 349h96l134 -289l137 289h89l-178 -351z" />
    <glyph glyph-name="afii10040" unicode="&#x426;" horiz-adv-x="571" 
d="M526 77v-211h-86v134h-360v723h85v-645h240v645h86v-646h35z" />
    <glyph glyph-name="afii10041" unicode="&#x427;" horiz-adv-x="527" 
d="M447 0h-86v308h-115q-53 0 -89 9.5t-57.5 31.5t-30.5 58t-9 89v227h85v-213q0 -36 5 -60.5t15.5 -38.5t27.5 -20t41 -6h127v338h86v-723z" />
    <glyph glyph-name="afii10042" unicode="&#x428;" horiz-adv-x="790" 
d="M710 0h-630v723h85v-645h187v645h85v-645h187v645h86v-723z" />
    <glyph glyph-name="afii10043" unicode="&#x429;" horiz-adv-x="790" 
d="M745 77v-211h-86v134h-579v723h85v-645h187v645h85v-645h187v645h86v-646h35z" />
    <glyph glyph-name="afii10044" unicode="&#x42a;" horiz-adv-x="617" 
d="M20 723h238v-290h93q56 0 94 -10.5t63 -31.5q28 -23 43.5 -69t15.5 -105t-15.5 -105.5t-43.5 -69.5q-25 -21 -63 -31.5t-94 -10.5h-177v645h-154v78zM480 217q0 40 -9 74.5t-28 48.5q-31 25 -108 25h-77v-297h77q77 0 108 25q19 14 28 49t9 75z" />
    <glyph glyph-name="afii10045" unicode="&#x42b;" horiz-adv-x="708" 
d="M257 433q56 0 94 -10.5t63 -31.5q28 -23 43.5 -69t15.5 -105t-15.5 -105.5t-43.5 -69.5q-25 -21 -63 -31.5t-94 -10.5h-177v723h84v-290h93zM386 217q0 40 -9 74.5t-28 48.5q-31 25 -108 25h-77v-297h77q77 0 108 25q19 14 28 49t9 75zM628 0h-85v723h85v-723z" />
    <glyph glyph-name="afii10046" unicode="&#x42c;" horiz-adv-x="523" 
d="M257 433q56 0 94 -10.5t63 -31.5q28 -23 43.5 -69t15.5 -105t-15.5 -105.5t-43.5 -69.5q-25 -21 -63 -31.5t-94 -10.5h-177v723h84v-290h93zM386 217q0 40 -9 74.5t-28 48.5q-31 25 -108 25h-77v-297h77q77 0 108 25q19 14 28 49t9 75z" />
    <glyph glyph-name="afii10047" unicode="&#x42d;" horiz-adv-x="499" 
d="M24 216h87v-14q0 -148 119 -148q81 0 105 76q16 51 18 209h-192v68h192q-2 127 -18 176q-25 85 -111 85q-108 0 -108 -135v-13h-86v16q0 201 192 201q145 0 191 -115q28 -69 28 -264q0 -198 -29 -270q-44 -101 -182 -101q-206 0 -206 213v16z" />
    <glyph glyph-name="afii10048" unicode="&#x42e;" horiz-adv-x="764" 
d="M165 0h-85v723h85v-316h103q1 49 2.5 84t5.5 58q10 73 47 120q53 68 164 68q109 0 162 -63q36 -43 48 -122q9 -59 9 -193q0 -190 -31 -261q-48 -111 -190 -111q-139 0 -187 105q-22 48 -28 130q-1 14 -1.5 43t-0.5 74h-103v-339zM617 364q0 71 -3 119.5t-8 76.5
q-22 109 -119 109q-103 0 -123 -125q-4 -26 -6 -70.5t-2 -110.5q0 -71 2 -118t6 -70q10 -60 36 -89q29 -32 87 -32q93 0 119 114q11 53 11 196z" />
    <glyph glyph-name="afii10049" unicode="&#x42f;" horiz-adv-x="524" 
d="M57 0q4 31 6 46q3 56 5 89q5 117 5 121q5 55 23 79q22 31 77 36q-64 17 -91 63q-23 39 -23 111q0 99 49 140q45 38 143 38h193v-723h-85v338h-85q-81 0 -101 -38q-12 -22 -17 -130q-4 -77 -4 -95q0 -35 -7 -75h-88zM146 541q0 -80 30.5 -108t111.5 -28h71v250h-96
q-61 0 -89 -25.5t-28 -88.5z" />
    <glyph glyph-name="afii10065" unicode="&#x430;" horiz-adv-x="439" 
d="M302 0l-1 66q-51 -74 -135 -74q-64 0 -99 42q-31 40 -31 106q0 107 82 144q54 25 178 26v22q0 62 -10 86q-16 40 -68 40q-36 0 -60 -20t-24 -56v-5h-79v5q0 69 50 103q43 30 116 30q87 0 121 -42q32 -38 32 -126v-186q0 -91 5 -161h-77zM296 255h-20q-158 0 -158 -108
q0 -97 74 -97q56 0 83 48q21 38 21 97v60z" />
    <glyph glyph-name="afii10066" unicode="&#x431;" horiz-adv-x="458" 
d="M149 475q41 37 97 37q165 0 165 -260q0 -71 -11.5 -120t-34 -80t-57 -45t-80.5 -14q-96 0 -138.5 62.5t-42.5 196.5q0 100 12.5 178.5t36.5 132.5t60 82t84 28t68 13t21 44h65q-11 -122 -116 -122q-64 0 -92 -33.5t-37 -99.5zM228 59q28 0 47 10t30.5 33t16.5 59.5
t5 90.5t-5 91t-16.5 60t-30.5 33t-47 10q-53 0 -75.5 -43.5t-22.5 -150.5q0 -54 5.5 -91t17 -59.5t30 -32.5t45.5 -10z" />
    <glyph glyph-name="afii10067" unicode="&#x432;" horiz-adv-x="416" 
d="M292 264q77 -14 77 -120q0 -66 -35 -105t-101 -39h-168v504h162q64 0 97.5 -34.5t33.5 -95.5q0 -38 -17 -68t-49 -42zM146 289h58q34 0 53 19.5t19 55.5q0 76 -63 76h-67v-151zM146 65h76q64 0 64 83q0 81 -67 81h-73v-164z" />
    <glyph glyph-name="afii10068" unicode="&#x433;" horiz-adv-x="301" 
d="M285 435h-139v-435h-81v504h220v-69z" />
    <glyph glyph-name="afii10069" unicode="&#x434;" horiz-adv-x="459" 
d="M442 60v-181h-68v121h-299v-121h-70v181h51q82 175 101 444h235v-444h50zM311 60v385h-84q-19 -214 -98 -385h182z" />
    <glyph glyph-name="afii10070" unicode="&#x435;" horiz-adv-x="436" 
d="M392 241h-264v-34q0 -77 14 -111q20 -49 78 -49q87 0 91 111h78q-7 -168 -169 -168q-105 0 -144 71q-29 53 -29 171q0 134 25 192q39 91 154 91q108 0 144 -80q22 -50 22 -171v-23zM312 295q0 73 -10 103q-18 60 -77 60q-82 0 -93 -98q-4 -34 -4 -65h184z" />
    <glyph glyph-name="afii10072" unicode="&#x436;" horiz-adv-x="607" 
d="M605 0h-93l-166 282l151 222h92l-157 -220zM343 0h-79v504h79v-504zM175 284l-157 220h92l151 -222l-166 -282h-93z" />
    <glyph glyph-name="afii10073" unicode="&#x437;" horiz-adv-x="398" 
d="M273 261q77 -20 77 -113q0 -75 -39.5 -115t-111.5 -40q-158 0 -158 182h80q0 -118 79 -118q31 0 49 25.5t18 68.5q0 45 -22.5 60t-71.5 15v60q48 0 69.5 21t21.5 67q0 74 -64 74q-35 0 -54.5 -27t-19.5 -72h-78q0 163 155 163q67 0 104 -33.5t37 -96.5q0 -91 -71 -121z
" />
    <glyph glyph-name="afii10074" unicode="&#x438;" horiz-adv-x="469" 
d="M403 0h-82v357l-179 -357h-77v504h81v-359l180 359h77v-504z" />
    <glyph glyph-name="afii10075" unicode="&#x439;" horiz-adv-x="469" 
d="M403 0h-82v357l-179 -357h-77v504h81v-359l180 359h77v-504zM376 720q-14 -131 -149 -131q-61 0 -96.5 35t-41.5 96h43q14 -79 102 -79q80 0 100 79h42z" />
    <glyph glyph-name="afii10076" unicode="&#x43a;" horiz-adv-x="410" 
d="M408 0h-93l-166 282l151 222h92l-157 -220zM146 0h-79v504h79v-504z" />
    <glyph glyph-name="afii10077" unicode="&#x43b;" horiz-adv-x="466" 
d="M401 0h-82v445h-164v-273q0 -66 -4.5 -101.5t-23.5 -54.5q-18 -18 -40.5 -23.5t-63.5 -5.5v65q17 0 27 2.5t15 8.5t6.5 17t1.5 28v396h328v-504z" />
    <glyph glyph-name="afii10078" unicode="&#x43c;" horiz-adv-x="614" 
d="M549 0h-81v423l-134 -423h-67l-133 428v-428h-69v504h114l126 -407l124 407h120v-504z" />
    <glyph glyph-name="afii10079" unicode="&#x43d;" horiz-adv-x="468" 
d="M403 0h-81v233h-176v-233h-81v504h81v-211h176v211h81v-504z" />
    <glyph glyph-name="afii10080" unicode="&#x43e;" horiz-adv-x="445" 
d="M398 255q0 -138 -31 -195q-39 -70 -146 -70q-109 0 -146 70q-28 53 -28 188q0 130 30 188q40 79 150 79q109 0 145 -73q26 -51 26 -187zM316 278q0 86 -10 119q-19 61 -81 61q-65 0 -86 -65q-11 -34 -11 -117v-72q0 -73 12 -104q21 -53 82 -53q59 0 80 51q14 34 14 103
v77z" />
    <glyph glyph-name="afii10081" unicode="&#x43f;" horiz-adv-x="469" 
d="M403 0h-82v444h-175v-444h-81v504h338v-504z" />
    <glyph glyph-name="afii10082" unicode="&#x440;" horiz-adv-x="462" 
d="M415 261q0 -126 -22 -181q-34 -87 -132 -87q-75 0 -115 56v-240h-79v578q0 85 -4 117h78v-60q43 71 125 71q93 0 127 -81q22 -55 22 -173zM334 262q0 89 -12 128q-20 65 -79 65q-58 0 -82 -65q-17 -48 -17 -143q0 -93 12 -131q22 -65 87 -65q61 0 81 77q10 40 10 134z
" />
    <glyph glyph-name="afii10083" unicode="&#x441;" horiz-adv-x="406" 
d="M377 157q0 -167 -157 -167q-108 0 -145 70q-28 53 -28 184t25 186q38 85 150 85q86 0 122 -40q33 -38 33 -123h-78q0 106 -78 106q-62 0 -81 -67q-11 -39 -11 -139q0 -114 17 -157q19 -48 72 -48q47 0 66 33q14 25 15 77h78z" />
    <glyph glyph-name="afii10084" unicode="&#x442;" horiz-adv-x="311" 
d="M293 436h-97v-436h-82v436h-97v68h276v-68z" />
    <glyph glyph-name="afii10085" unicode="&#x443;" horiz-adv-x="402" 
d="M387 504l-202 -695h-77l58 191l-151 504h85l106 -404l103 404h78z" />
    <glyph glyph-name="afii10086" unicode="&#x444;" horiz-adv-x="661" 
d="M371 443q36 69 101 69q74 0 108 -60.5t33 -192.5q1 -137 -33.5 -200.5t-110.5 -63.5q-62 0 -98 66v-247h-79v247q-38 -66 -98 -66q-78 0 -112.5 63.5t-33.5 200.5q-1 132 33.5 192.5t108.5 60.5q64 0 102 -69v287h79v-287zM455 57q40 0 58 48.5t19 150.5
q-1 99 -18.5 144.5t-63.5 45.5t-62.5 -47t-16.5 -147q0 -94 17.5 -144.5t66.5 -50.5zM207 57q49 0 67 50.5t18 144.5q0 100 -16.5 147t-64.5 47q-45 0 -63 -45.5t-19 -144.5q1 -102 19.5 -150.5t58.5 -48.5z" />
    <glyph glyph-name="afii10087" unicode="&#x445;" horiz-adv-x="388" 
d="M380 0h-92l-97 211l-99 -211h-84l141 267l-122 237h93l80 -183l83 183h83l-126 -236z" />
    <glyph glyph-name="afii10088" unicode="&#x446;" horiz-adv-x="470" 
d="M452 60v-181h-67v121h-320v504h81v-444h175v444h82v-444h49z" />
    <glyph glyph-name="afii10089" unicode="&#x447;" horiz-adv-x="454" 
d="M390 0h-82v182h-80q-46 0 -77.5 7t-51 28.5t-28.5 60.5t-9 103v123h81v-130q0 -35 2.5 -58.5t10.5 -37.5t24 -20.5t43 -6.5h85v253h82v-504z" />
    <glyph glyph-name="afii10090" unicode="&#x448;" horiz-adv-x="685" 
d="M620 0h-555v504h81v-444h156v444h81v-444h156v444h81v-504z" />
    <glyph glyph-name="afii10091" unicode="&#x449;" horiz-adv-x="690" 
d="M672 60v-181h-68v121h-539v504h81v-444h156v444h81v-444h156v444h81v-444h52z" />
    <glyph glyph-name="afii10092" unicode="&#x44a;" horiz-adv-x="461" 
d="M17 504h179v-197h59q86 0 124 -40.5t38 -112.5t-38 -113t-124 -41h-140v438h-98v66zM336 154q0 42 -18 64.5t-63 22.5h-59v-175h59q45 0 63 23t18 65z" />
    <glyph glyph-name="afii10093" unicode="&#x44b;" horiz-adv-x="602" 
d="M367 154q0 -72 -38 -113t-124 -41h-140v504h81v-197h59q86 0 124 -40.5t38 -112.5zM286 154q0 42 -18 64.5t-63 22.5h-59v-175h59q45 0 63 23t18 65zM536 0h-82v504h82v-504z" />
    <glyph glyph-name="afii10094" unicode="&#x44c;" horiz-adv-x="412" 
d="M367 154q0 -72 -38 -113t-124 -41h-140v504h81v-197h59q86 0 124 -40.5t38 -112.5zM286 154q0 42 -18 64.5t-63 22.5h-59v-175h59q45 0 63 23t18 65z" />
    <glyph glyph-name="afii10095" unicode="&#x44d;" horiz-adv-x="406" 
d="M107 157q1 -51 15 -77q19 -33 66 -33q52 0 72 48q16 39 17 128h-139v60h139q-1 73 -11 108q-19 67 -81 67q-78 0 -78 -106h-78q0 85 33 123q36 40 122 40q113 0 150 -85q25 -54 25 -186t-28 -184q-37 -70 -145 -70q-157 0 -157 167h78z" />
    <glyph glyph-name="afii10096" unicode="&#x44e;" horiz-adv-x="620" 
d="M573 255q0 -139 -31 -195q-39 -70 -146 -70q-109 0 -146 70q-27 50 -28 165h-78v-225h-79v504h79v-221h78q4 103 30 153q40 79 150 79q109 0 145 -73q26 -52 26 -187zM491 278q0 88 -10 119q-19 61 -81 61q-65 0 -86 -65q-11 -36 -11 -117v-72q0 -73 12 -104
q21 -53 82 -53q59 0 80 51q14 36 14 103v77z" />
    <glyph glyph-name="afii10097" unicode="&#x44f;" horiz-adv-x="415" 
d="M351 0h-80v229h-63q-33 0 -48 -19t-15 -73q0 -68 -15 -137h-79q8 43 13 86.5t5 85.5q0 34 19.5 60t54.5 31q-88 22 -88 115q0 63 35.5 94.5t86.5 31.5h174v-504zM271 290v148h-69q-33 0 -49 -17.5t-16 -46.5q0 -42 18 -63t64 -21h52z" />
    <glyph glyph-name="afii10071" unicode="&#x451;" horiz-adv-x="436" 
d="M392 241h-264v-34q0 -77 14 -111q20 -49 78 -49q87 0 91 111h78q-7 -168 -169 -168q-105 0 -144 71q-29 53 -29 171q0 134 25 192q39 91 154 91q108 0 144 -80q22 -50 22 -171v-23zM312 295q0 73 -10 103q-18 60 -77 60q-82 0 -93 -98q-4 -34 -4 -65h184zM339 620h-76v96
h76v-96zM182 620h-74v96h74v-96z" />
    <glyph glyph-name="afii10099" unicode="&#x452;" horiz-adv-x="453" 
d="M150 315q48 69 115 69q75 0 110 -60.5t35 -192.5q0 -326 -190 -326v65q56 0 82 59q26 60 26 203q0 100 -17.5 142t-65.5 42q-20 0 -37.5 -10.5t-30 -29t-20 -43.5t-7.5 -53v-180h-79v519h-66v59h66v145h79v-145h126v-59h-126v-204z" />
    <glyph glyph-name="afii10100" unicode="&#x453;" horiz-adv-x="301" 
d="M285 435h-139v-435h-81v504h220v-69zM324 731l-134 -141h-58l102 141h90z" />
    <glyph glyph-name="afii10101" unicode="&#x454;" horiz-adv-x="406" 
d="M377 157q0 -167 -157 -167q-108 0 -145 70q-28 52 -28 184t25 186q37 85 150 85q86 0 122 -40q33 -38 33 -123h-78q0 106 -78 106q-62 0 -81 -67q-10 -35 -11 -108h139v-60h-139q1 -89 17 -128q19 -48 72 -48q46 0 66 33q14 26 15 77h78z" />
    <glyph glyph-name="afii10102" unicode="&#x455;" horiz-adv-x="383" 
d="M346 138q0 -147 -158 -147q-155 0 -152 163h79q0 -15 1 -28q7 -79 74 -79q76 0 76 78q0 42 -24 66q-15 16 -67 44q-71 38 -90 56q-38 35 -38 93q0 65 43 99q40 32 107 32q78 0 111 -36.5t35 -112.5h-79q0 94 -71 94q-31 0 -49 -19t-18 -50q0 -34 29 -58q15 -14 71 -44
q61 -33 84 -56q36 -38 36 -95z" />
    <glyph glyph-name="afii10103" unicode="&#x456;" horiz-adv-x="213" 
d="M150 627h-87v86h87v-86zM146 0h-79v504h79v-504z" />
    <glyph glyph-name="afii10104" unicode="&#x457;" horiz-adv-x="213" 
d="M146 0h-79v504h79v-504zM223 620h-76v96h76v-96zM66 620h-74v96h74v-96z" />
    <glyph glyph-name="afii10105" unicode="&#x458;" horiz-adv-x="213" 
d="M150 627h-88v86h88v-86zM146 -66q0 -71 -20 -100q-25 -34 -93 -34q-26 0 -40 2v63q11 -2 17 -2q37 0 48 19q8 14 8 58v564h80v-570z" />
    <glyph glyph-name="afii10106" unicode="&#x459;" horiz-adv-x="666" 
d="M319 0v445h-164v-273q0 -66 -4.5 -101.5t-23.5 -54.5q-18 -18 -40.5 -23.5t-63.5 -5.5v65q17 0 27 2.5t15 8.5t6.5 17t1.5 28v396h328v-197h59q86 0 124 -40.5t38 -112.5t-38 -113t-124 -41h-141zM541 154q0 42 -18 64.5t-63 22.5h-59v-175h59q45 0 63 23t18 65z" />
    <glyph glyph-name="afii10107" unicode="&#x45a;" horiz-adv-x="657" 
d="M391 307h59q86 0 124 -40.5t38 -112.5t-38 -113t-124 -41h-140v232h-164v-232h-81v504h81v-206h164v206h81v-197zM531 154q0 42 -18 64.5t-63 22.5h-59v-175h59q45 0 63 23t18 65z" />
    <glyph glyph-name="afii10108" unicode="&#x45b;" horiz-adv-x="450" 
d="M384 0h-81v218q0 97 -70 97q-35 0 -59 -34.5t-24 -94.5v-186h-79v519h-66v59h66v145h79v-145h126v-59h-126v-202q40 67 109 67q125 0 125 -169v-215z" />
    <glyph glyph-name="afii10109" unicode="&#x45c;" horiz-adv-x="410" 
d="M408 0h-93l-166 282l151 222h92l-157 -220zM146 0h-79v504h79v-504zM381 731l-134 -141h-58l102 141h90z" />
    <glyph glyph-name="afii10110" unicode="&#x45e;" horiz-adv-x="402" 
d="M387 504l-202 -695h-77l58 191l-151 504h85l106 -404l103 404h78zM358 720q-14 -131 -149 -131q-61 0 -96.5 35t-41.5 96h43q14 -79 102 -79q80 0 100 79h42z" />
    <glyph glyph-name="afii10193" unicode="&#x45f;" horiz-adv-x="468" 
d="M403 0h-132v-122h-72v122h-134v504h81v-444h175v444h82v-504z" />
    <glyph glyph-name="afii10050" unicode="&#x490;" horiz-adv-x="418" 
d="M165 0h-85v723h230v134h82v-203h-227v-654z" />
    <glyph glyph-name="afii10098" unicode="&#x491;" horiz-adv-x="301" 
d="M285 435h-139v-435h-81v504h146v122h74v-191z" />
    <glyph glyph-name="endash" unicode="&#x2013;" horiz-adv-x="500" 
d="M500 251h-500v58h500v-58z" />
    <glyph glyph-name="emdash" unicode="&#x2014;" horiz-adv-x="1001" 
d="M871 251h-741v58h741v-58z" />
    <glyph glyph-name="quoteleft" unicode="&#x2018;" horiz-adv-x="233" 
d="M178 723l-37 -186h-86l61 186h62z" />
    <glyph glyph-name="quoteright" unicode="&#x2019;" horiz-adv-x="234" 
d="M179 723l-62 -186h-62l38 186h86z" />
    <glyph glyph-name="quotesinglbase" unicode="&#x201a;" horiz-adv-x="234" 
d="M179 82l-62 -185h-62l38 185h86z" />
    <glyph glyph-name="quotedblleft" unicode="&#x201c;" horiz-adv-x="383" 
d="M328 723l-37 -186h-86l61 186h62zM178 723l-37 -186h-86l61 186h62z" />
    <glyph glyph-name="quotedblright" unicode="&#x201d;" horiz-adv-x="384" 
d="M329 723l-62 -186h-62l38 186h86zM179 723l-62 -186h-62l38 186h86z" />
    <glyph glyph-name="quotedblbase" unicode="&#x201e;" horiz-adv-x="384" 
d="M329 82l-62 -185h-62l38 185h86zM179 82l-62 -185h-62l38 185h86z" />
    <glyph glyph-name="dagger" unicode="&#x2020;" horiz-adv-x="425" 
d="M388 494h-140v-494h-72v494h-140v62h140v167h72v-167h140v-62z" />
    <glyph glyph-name="daggerdbl" unicode="&#x2021;" horiz-adv-x="425" 
d="M388 160h-140v-160h-72v160h-140v60h140v284h-140v61h140v158h72v-158h140v-61h-140v-284h140v-60z" />
    <glyph glyph-name="bullet" unicode="&#x2022;" horiz-adv-x="500" 
d="M429 358q0 -74 -52.5 -126.5t-126.5 -52.5t-126.5 52.5t-52.5 126.5t52.5 126t126.5 52t126.5 -52.5t52.5 -125.5z" />
    <glyph glyph-name="ellipsis" unicode="&#x2026;" horiz-adv-x="1000" 
d="M878 0h-89v96h89v-96zM544 0h-89v96h89v-96zM211 0h-89v96h89v-96z" />
    <glyph glyph-name="perthousand" unicode="&#x2030;" horiz-adv-x="890" 
d="M860 166q0 -177 -116 -177q-115 0 -115 169q0 171 117 171q114 0 114 -163zM260 560q0 -177 -115 -177t-115 169q0 171 117 171q67 0 94 -52q19 -37 19 -111zM513 740l-375 -769h-55l373 769h57zM568 166q0 -177 -116 -177q-115 0 -115 169q0 171 118 171q67 0 94 -52
q19 -37 19 -111zM800 166q0 50 -6 73q-12 42 -48 42q-38 0 -51 -47q-7 -25 -7 -79q0 -118 57 -118q39 0 50 48q5 21 5 81zM201 560q0 50 -6 73q-12 42 -48 42q-38 0 -51 -47q-7 -25 -7 -79q0 -118 56 -118q40 0 51 48q5 20 5 81zM509 166q0 50 -6 73q-12 42 -48 42
q-38 0 -51 -47q-7 -25 -7 -79q0 -51 7 -75q12 -43 48 -43q40 0 52 48q5 22 5 81z" />
    <glyph glyph-name="guilsinglleft" unicode="&#x2039;" horiz-adv-x="231" 
d="M192 59h-69l-85 194l88 194h66l-78 -194z" />
    <glyph glyph-name="guilsinglright" unicode="&#x203a;" horiz-adv-x="231" 
d="M192 251l-87 -192h-67l78 192l-77 196h69z" />
    <glyph glyph-name="fraction" unicode="&#x2044;" horiz-adv-x="161" 
d="M295 740l-373 -769h-56l373 769h56z" />
    <glyph glyph-name="Euro" unicode="&#x20ac;" horiz-adv-x="452" 
d="M426 601q-14 23 -43 40t-72 17q-41 0 -66.5 -15.5t-39.5 -41.5t-20 -61t-7 -74h212l-12 -60h-200v-76h182l-12 -60h-170q1 -51 5 -91t17.5 -68t39.5 -43t71 -15q42 0 68.5 14t46.5 36v-82q-20 -15 -48 -24t-70 -9q-66 0 -106 19.5t-62.5 56t-31.5 89t-11 117.5h-83l12 60
h70v76h-81l12 60h70q4 53 16 100t36 82t63.5 55t99.5 20q30 0 52 -5t37.5 -11.5t25.5 -14t15 -12.5z" />
    <glyph glyph-name="afii61289" unicode="&#x2113;" horiz-adv-x="500" 
d="M415 41q-59 -55 -130 -55q-55 0 -91 31.5t-36 96.5v114l-58 -62h-2l-26 37l86 84v259q0 42 10 74.5t27.5 55t41 34t50.5 11.5q48 0 79 -34t31 -94q0 -74 -43.5 -153t-127.5 -165v-150q0 -26 7 -43t18 -26.5t24 -13.5t26 -4q20 0 42.5 9t45.5 29h2zM340 588q0 38 -15 61.5
t-38 23.5t-42 -28t-19 -88v-222q56 65 85 130.5t29 122.5z" />
    <glyph glyph-name="afii61352" unicode="&#x2116;" horiz-adv-x="946" 
d="M800 388q0 68 -11.5 98t-49.5 30t-49.5 -30t-11.5 -98t11.5 -98.5t49.5 -30.5t49.5 30.5t11.5 98.5zM604 388q0 43 5.5 77.5t20.5 59.5t41.5 38.5t67.5 13.5t67.5 -13.5t41.5 -38.5t20.5 -59.5t5.5 -77.5t-5.5 -78t-20.5 -60t-41.5 -38.5t-67.5 -13.5t-67.5 13.5
t-41.5 38.5t-20.5 60t-5.5 78zM842 0h-208v81h208v-81zM537 4h-132l-243 650v-650h-78v723h132l243 -650v650h78v-723z" />
    <glyph glyph-name="trademark" unicode="&#x2122;" horiz-adv-x="764" 
d="M705 367h-48v306l-102 -306h-44l-102 306v-306h-48v356h80l93 -276l93 276h78v-356zM289 678h-104v-312h-52v312h-105v45h261v-45z" />
    <glyph glyph-name="Omega" unicode="&#x2126;" horiz-adv-x="743" 
d="M684 0h-252v204q87 15 134 79q44 60 44 151q0 102 -70 170.5t-173 68.5q-104 0 -174.5 -68.5t-70.5 -172.5q0 -88 45 -150q49 -66 134 -78v-204h-254v64h195v98q-91 25 -144 102q-51 74 -51 170q0 133 95 220q92 86 226 86q131 0 223.5 -86.5t92.5 -217.5q0 -98 -50 -171
q-52 -77 -144 -103v-98h194v-64z" />
    <glyph glyph-name="estimated" unicode="&#x212e;" horiz-adv-x="600" 
d="M157 259v-181q59 -59 145 -59q63 0 109 28.5t84 91.5l35 -21q-23 -36 -46.5 -61.5t-51 -42t-59.5 -24t-71 -7.5q-59 0 -106.5 21.5t-81.5 59t-52 87.5t-18 108t18 108.5t52 87.5t81.5 58.5t106.5 21.5q58 0 105.5 -20.5t81.5 -57t53 -87t19 -111.5h-404zM448 295v145
q-63 60 -147 60t-144 -60v-145h291z" />
    <glyph glyph-name="partialdiff" unicode="&#x2202;" horiz-adv-x="500" 
d="M458 361q0 -108 -20 -185q-21 -82 -69 -131q-56 -56 -137 -56q-91 0 -148 67q-53 64 -53 157q0 90 54 151t143 61q94 0 161 -80v36q0 107 -34 180q-45 97 -139 97q-55 0 -112 -46l-39 47q68 60 148 60q89 0 151 -62q56 -56 78 -146q16 -64 16 -150zM384 279
q-67 87 -149 87q-63 0 -100 -47q-35 -43 -35 -108t33 -112q38 -54 100 -54q76 0 116 84q29 60 35 150z" />
    <glyph glyph-name="Delta" unicode="&#x2206;" horiz-adv-x="671" 
d="M657 0h-643l278 717h81zM552 68l-221 567l-217 -567h438z" />
    <glyph glyph-name="product" unicode="&#x220f;" horiz-adv-x="715" 
d="M646 -213h-73v932h-431v-932h-73v1000h577v-1000z" />
    <glyph glyph-name="summation" unicode="&#x2211;" horiz-adv-x="611" 
d="M586 -213h-560v62l325 441l-311 436v61h534v-68h-440l304 -429l-323 -435h471v-68z" />
    <glyph glyph-name="minus" unicode="&#x2212;" horiz-adv-x="594" 
d="M550 214h-506v68h506v-68z" />
    <glyph glyph-name="uni2215" unicode="&#x2215;" horiz-adv-x="161" 
d="M295 740l-373 -769h-56l373 769h56z" />
    <glyph glyph-name="uni2219" unicode="&#x2219;" horiz-adv-x="226" 
d="M155 274h-84v93h84v-93z" />
    <glyph glyph-name="radical" unicode="&#x221a;" horiz-adv-x="501" 
d="M510 787l-210 -1000h-72l-163 336l-47 -23l-25 56l107 51l154 -324l186 904h70z" />
    <glyph glyph-name="infinity" unicode="&#x221e;" horiz-adv-x="752" 
d="M710 253q0 -65 -39 -108.5t-103 -43.5q-53 0 -105 34q-35 23 -86 74q-68 -61 -86 -73q-51 -35 -104 -35q-66 0 -106 42.5t-40 108.5q0 65 39.5 109t103.5 44q72 0 161 -83q11 -10 32 -31q51 54 83 77q53 38 104 38q66 0 106 -43.5t40 -109.5zM649 252q0 39 -22.5 64.5
t-60.5 25.5t-81 -32q-15 -11 -67 -60q93 -86 149 -86q38 0 60 25t22 63zM335 250q-97 91 -151 91q-36 0 -58.5 -26t-22.5 -63q0 -39 23 -63.5t62 -24.5q67 0 147 86z" />
    <glyph glyph-name="integral" unicode="&#x222b;" horiz-adv-x="513" 
d="M401 734q0 -40 -38 -40q-25 0 -36.5 26t-19.5 26q-23 0 -30 -50q-3 -22 -3 -146v-481q0 -125 -12 -175q-27 -108 -115 -108q-28 0 -49 13q-24 16 -24 42q0 39 40 39q25 0 36 -26t17 -26q17 0 25 37.5t8 141.5v528q0 116 13 161q27 91 113 91q29 0 50 -12q25 -14 25 -41z
" />
    <glyph glyph-name="approxequal" unicode="&#x2248;" horiz-adv-x="594" 
d="M562 411q-6 -61 -37 -99q-35 -44 -94 -44q-45 0 -140 35.5t-132 35.5q-32 0 -53 -22.5t-25 -55.5h-48q18 144 128 144q44 0 139.5 -35t134.5 -35q64 0 79 76h48zM561 234q-6 -61 -36 -99q-35 -44 -93 -44q-46 0 -140.5 36t-132.5 36q-32 0 -52.5 -22.5t-25.5 -56.5h-49
q18 145 128 145q44 0 140 -35.5t135 -35.5q63 0 78 76h48z" />
    <glyph glyph-name="notequal" unicode="&#x2260;" horiz-adv-x="594" 
d="M550 117h-288l-76 -145l-59 30l61 115h-144v66h179l67 129h-246v67h282l77 148l59 -31l-62 -117h150v-67h-186l-67 -129h253v-66z" />
    <glyph glyph-name="lessequal" unicode="&#x2264;" horiz-adv-x="594" 
d="M550 78l-506 187v72l506 187v-73l-413 -150l413 -150v-73zM550 -28h-506v66h506v-66z" />
    <glyph glyph-name="greaterequal" unicode="&#x2265;" horiz-adv-x="594" 
d="M550 265l-506 -187v73l413 150l-413 150v73l506 -187v-72zM550 -28h-506v66h506v-66z" />
    <glyph glyph-name="lozenge" unicode="&#x25ca;" horiz-adv-x="593" 
d="M502 354l-172 -390h-69l-170 390l171 392h68zM430 354l-134 319l-133 -319l133 -318z" />
    <glyph glyph-name="dotlessj" unicode="&#xe0d6;" horiz-adv-x="213" 
d="M146 -66q0 -71 -20 -100q-25 -34 -93 -34q-26 0 -40 2v63q11 -2 17 -2q37 0 48 19q8 14 8 58v564h80v-570z" />
    <glyph glyph-name="grave.cap" unicode="&#xe300;" 
d="M163 780h-58l-133 141h90z" />
    <glyph glyph-name="acute.cap" unicode="&#xe301;" 
d="M222 921l-134 -141h-58l102 141h90z" />
    <glyph glyph-name="circumflex.cap" unicode="&#xe302;" 
d="M242 780h-69l-76 99l-76 -99h-69l107 141h76z" />
    <glyph glyph-name="caron.cap" unicode="&#xe303;" 
d="M242 921l-107 -141h-76l-107 141h69l76 -99l76 99h69z" />
    <glyph glyph-name="tilde.cap" unicode="&#xe304;" 
d="M253 898q-4 -41 -24 -69q-24 -33 -63 -33q-27 0 -72.5 21t-66.5 21q-36 0 -45 -48h-41q4 43 28.5 72.5t64.5 29.5q24 0 67.5 -21t65.5 -21q36 0 44 48h42z" />
    <glyph glyph-name="dieresis.cap" unicode="&#xe305;" 
d="M213 800h-76v96h76v-96zM56 800h-74v96h74v-96z" />
    <glyph glyph-name="macron.cap" unicode="&#xe306;" 
d="M226 809h-257v51h257v-51z" />
    <glyph glyph-name="breve.cap" unicode="&#xe307;" 
d="M241 910q-14 -131 -149 -131q-61 0 -96.5 35t-41.5 96h43q14 -79 102 -79q80 0 100 79h42z" />
    <glyph glyph-name="ring.cap" unicode="&#xe308;" 
d="M189 845q0 -38 -27 -65t-65 -27t-65 27t-27 65t27 65t65 27t65 -27t27 -65zM155 845q0 24 -17 41.5t-41 17.5t-41 -17.5t-17 -41.5t17 -41t41 -17t41 17t17 41z" />
    <glyph glyph-name="hungarumlaut.cap" unicode="&#xe309;" 
d="M301 921l-135 -141h-57l101 141h91zM152 921l-135 -141h-56l101 141h90z" />
    <glyph glyph-name="dotaccent.cap" unicode="&#xe30a;" 
d="M135 800h-76v96h76v-96z" />
    <glyph glyph-name="caron.alt" unicode="&#xe30b;" horiz-adv-x="213" 
d="M175 731l-45 -154h-60l25 154h80z" />
    <glyph glyph-name="commaaccent" unicode="&#xe30c;" horiz-adv-x="213" 
d="M143 -56l-50 -144h-59l35 144h74z" />
    <glyph glyph-name="commaaccent.alt" unicode="&#xe30d;" horiz-adv-x="463" 
d="M199 590l49 141h59l-36 -141h-72z" />
    <glyph glyph-name="uniF8FF" unicode="&#xf8ff;" horiz-adv-x="512" 
d="M222 117v67h56v-67h-56zM225 234l-2 17q0 55 13 81t46 59q32 31 41 47.5t9 35.5q0 36 -22.5 60.5t-53.5 24.5t-53.5 -22t-28.5 -73l-50 8q7 71 44 104t91 33q53 0 88.5 -36t35.5 -95q0 -32 -12.5 -58.5t-50.5 -61.5q-37 -33 -43 -52t-6 -72h-46zM462 50v617h-412v-617
h412zM512 718v-718h-512v718h512z" />
    <glyph glyph-name="i.dot" horiz-adv-x="213" 
d="M150 627h-87v86h87v-86zM146 0h-79v504h79v-504z" />
    </font>
</defs>
</svg>
