<?xml version="1.0" standalone="no"?>
<!DOCTYPE svg PUBLIC "-//W3C//DTD SVG 1.1//EN" "http://www.w3.org/Graphics/SVG/1.1/DTD/svg11.dtd" >
<svg xmlns="http://www.w3.org/2000/svg" xmlns:xlink="http://www.w3.org/1999/xlink" version="1.1">
<metadata>
Created by FontForge 20170731 at Thu Mar 26 15:45:57 2009
 By Aleksey,,,
Part of the digitally encoded machine readable outline data for producing the Typefaces provided is copyrighted (c) 2006 - 2007 Linotype GmbH, www.linotype.com. All rights reserved. This software is the property of Linotype GmbH, and may not be reproduced, used, displayed, modified, disclosed or transferred without the express written approval of Linotype GmbH.  Copyright (c) 1987, 1991, 1993, 1994 Adobe Systems Incorporated. All Rights Reserved. Univers is a trademark of Linotype GmbH and may be registered in certain jurisdictions. This typeface is original artwork of Adrian Frutiger. The design may be protected in certain jurisdictions.
</metadata>
<defs>
<font id="UniversforKPMG-Bold" horiz-adv-x="556" >
  <font-face 
    font-family="Univers for KPMG"
    font-weight="700"
    font-stretch="normal"
    units-per-em="1000"
    panose-1="2 11 7 3 3 5 2 2 2 4"
    ascent="724"
    descent="-276"
    x-height="505"
    cap-height="722"
    bbox="-167 -250 1081 948"
    underline-thickness="50"
    underline-position="-150"
    unicode-range="U+0020-FB02"
  />
<missing-glyph horiz-adv-x="512" 
d="M222 117v67h56v-67h-56zM225 234l-2 17q0 56 13 81q7 13 18 27.5t28 31.5q32 30 41 47.5t9 35.5q0 36 -22.5 60.5t-53.5 24.5t-53.5 -22t-28.5 -73l-50 8q7 72 44 104.5t91 32.5t89 -35.5t35 -95.5q0 -32 -12.5 -58.5t-50.5 -61.5q-37 -33 -43 -52q-6 -20 -6 -72h-46z
M462 50v617h-412v-617h412zM512 718v-718h-512v718h512z" />
    <glyph glyph-name="fi" unicode="fi" horiz-adv-x="611" 
d="M78 400h-76v105h76v69q0 33 7 62.5t25.5 51.5t52.5 34.5t88 12.5q8 0 28.5 -0.5t51.5 -4.5v-103q-11 2 -16.5 2.5t-14.5 0.5q-29 0 -44 -6.5t-22 -16.5t-8 -21.5t-1 -21.5v-59h93v-105h-93v-400h-147v400zM393 722h158v-129h-158v129zM398 506h148v-506h-148v506z" />
    <glyph glyph-name="fl" unicode="fl" horiz-adv-x="611" 
d="M80 400h-75v105h75v69q0 33 7 62.5t26 51.5t53 34.5t88 12.5q8 0 28 -0.5t51 -4.5v-103q-11 2 -16 2.5t-14 0.5q-29 0 -44 -6.5t-22.5 -16.5t-8.5 -21.5t-1 -21.5v-59h94v-105h-94v-400h-147v400zM398 723h148v-723h-148v723z" />
    <glyph glyph-name=".notdef" horiz-adv-x="512" 
d="M222 117v67h56v-67h-56zM225 234l-2 17q0 56 13 81q7 13 18 27.5t28 31.5q32 30 41 47.5t9 35.5q0 36 -22.5 60.5t-53.5 24.5t-53.5 -22t-28.5 -73l-50 8q7 72 44 104.5t91 32.5t89 -35.5t35 -95.5q0 -32 -12.5 -58.5t-50.5 -61.5q-37 -33 -43 -52q-6 -20 -6 -72h-46z
M462 50v617h-412v-617h412zM512 718v-718h-512v718h512z" />
    <glyph glyph-name=".null" horiz-adv-x="0" 
 />
    <glyph glyph-name="nonmarkingreturn" horiz-adv-x="333" 
 />
    <glyph glyph-name="space" unicode=" " horiz-adv-x="278" 
 />
    <glyph glyph-name="exclam" unicode="!" horiz-adv-x="389" 
d="M141 197l-18 526h134l-13 -526h-103zM129 133h127v-133h-127v133z" />
    <glyph glyph-name="quotedbl" unicode="&#x22;" horiz-adv-x="474" 
d="M206 697l-27 -248h-79l-27 248h133zM397 697l-26 -248h-79l-27 248h132z" />
    <glyph glyph-name="numbersign" unicode="#" 
d="M-9 285h103l22 121h-82v110h103l33 181h128l-33 -181h95l33 181h129l-34 -181h83v-110h-103l-22 -121h82v-110h-103l-32 -175h-128l33 175h-96l-32 -175h-129l32 175h-82v110zM317 285l23 121h-95l-23 -121h95z" />
    <glyph glyph-name="dollar" unicode="$" 
d="M160 215q-1 -38 9 -60t24.5 -33t29 -14.5t22.5 -3.5v177q-40 11 -77.5 25t-66 37t-46 57t-17.5 85q0 27 9.5 62t41.5 70q21 23 44 36.5t44.5 20.5t40.5 9.5t33 4.5v84h55v-82q40 -3 82.5 -14t77.5 -46q18 -18 28 -37t15 -37t6 -34.5t1 -28.5h-134q-1 28 -7 45t-16.5 27
t-24.5 14t-30 6v-178q42 -11 81.5 -24t70 -35.5t49 -57t18.5 -88.5q0 -30 -8 -55t-20 -45.5t-27 -35.5t-30 -25q-20 -14 -39 -22t-37.5 -12.5t-35 -6t-29.5 -2.5v-100h-53v100q-36 -1 -64 6t-48.5 17t-33.5 20.5t-19 15.5q-32 29 -42.5 67.5t-12.5 90.5h136zM250 583
q-39 -2 -57.5 -24t-18.5 -54q0 -41 23.5 -58.5t52.5 -24.5v161zM299 102q31 3 56 24t25 61q0 32 -18 51.5t-63 31.5v-168z" />
    <glyph glyph-name="percent" unicode="%" horiz-adv-x="889" 
d="M50 569q0 13 1 32.5t5.5 41t14.5 42.5t28.5 38.5t47 28t70.5 10.5q52 0 84 -15.5t49.5 -41t23.5 -58.5t6 -68q0 -19 -2.5 -52.5t-18.5 -66.5t-50.5 -57t-98.5 -24q-44 0 -74.5 14.5t-49.5 40t-27.5 60t-8.5 75.5zM158 573q0 -58 11.5 -85t43.5 -27q13 0 23.5 5t18 18
t12 35.5t4.5 58.5q0 15 -1.5 33.5t-6.5 34.5t-16 27t-30 11q-22 0 -34 -13t-17.5 -31t-6.5 -37t-1 -30zM510 182q0 13 1 32t5.5 40.5t14.5 42.5t28.5 38.5t47 28t70.5 10.5q52 0 84 -15.5t49.5 -41t23.5 -58.5t6 -67q0 -19 -3 -52.5t-19 -66.5t-50.5 -57.5t-98.5 -24.5
q-44 0 -74.5 14.5t-49.5 40.5t-27 60.5t-8 75.5zM617 185q0 -57 12 -84.5t44 -27.5q13 0 23.5 5t18 18t12 35.5t4.5 58.5q0 15 -1.5 33.5t-7 34.5t-16.5 27t-30 11q-22 0 -34 -13t-17.5 -31t-6.5 -36.5t-1 -30.5zM668 769l-380 -781h-75l380 781h75z" />
    <glyph glyph-name="ampersand" unicode="&#x26;" horiz-adv-x="778" 
d="M707 449q0 -45 -4.5 -84t-14 -75t-25 -70t-37.5 -70l147 -152h-187l-56 67q-17 -13 -38.5 -28t-50 -27.5t-64 -20.5t-81.5 -8q-59 0 -109 14.5t-86.5 42.5t-57 68.5t-20.5 92.5q0 26 9.5 63t42.5 79q28 35 54 53.5t45 30.5q-9 7 -23.5 20.5t-29 32.5t-24.5 44t-10 56
q0 16 7 43.5t30 54.5t66.5 46.5t117.5 19.5q70 0 112.5 -17.5t65.5 -42t30.5 -52t7.5 -46.5q0 -42 -16.5 -73.5t-39 -54t-46.5 -37t-38 -22.5l146 -147q10 29 16 53t9 46.5t3.5 46.5t0.5 53h148zM307 475q8 6 20.5 16.5t24 24t20 30t8.5 34.5q0 29 -19.5 47.5t-52.5 18.5
t-53 -17.5t-20 -46.5q0 -17 10 -34.5t22.5 -32.5t24 -26t15.5 -14zM257 330q-33 -22 -55.5 -49.5t-22.5 -69.5q0 -29 10.5 -51t28 -37.5t40.5 -23.5t48 -8q35 0 71.5 17t61.5 37z" />
    <glyph glyph-name="quotesingle" unicode="'" horiz-adv-x="238" 
d="M51 697h133l-27 -248h-79z" />
    <glyph glyph-name="parenleft" unicode="(" horiz-adv-x="333" 
d="M273 757q-12 -38 -27.5 -86.5t-29 -104.5t-22.5 -119.5t-9 -130.5q0 -50 5.5 -96t16 -96.5t27 -110t38.5 -136.5h-109q-43 106 -72 213t-29 221q0 117 30 227t72 219h109z" />
    <glyph glyph-name="parenright" unicode=")" horiz-adv-x="333" 
d="M60 -123q12 37 27 85.5t28.5 105t23 120t9.5 130.5q0 51 -5.5 97t-16 96.5t-27 109.5t-38.5 136h109q43 -105 72 -213t29 -220q0 -117 -30 -227.5t-72 -219.5h-109z" />
    <glyph glyph-name="asterisk" unicode="*" 
d="M67 571l152 -22l-94 119l93 51l56 -138l59 141l93 -55l-98 -118l153 18l-2 -106l-149 23l94 -123l-93 -51l-58 141l-58 -142l-90 54l93 122l-151 -20v106z" />
    <glyph glyph-name="plus" unicode="+" horiz-adv-x="584" 
d="M225 202h-199v129h199v202h134v-202h199v-129h-199v-202h-134v202z" />
    <glyph glyph-name="comma" unicode="," horiz-adv-x="278" 
d="M250 133l-119 -246h-103l74 246h148z" />
    <glyph glyph-name="hyphen" unicode="-" horiz-adv-x="333" 
d="M44 321h248v-113h-248v113z" />
    <glyph glyph-name="period" unicode="." horiz-adv-x="278" 
d="M74 133h127v-133h-127v133z" />
    <glyph glyph-name="slash" unicode="/" horiz-adv-x="444" 
d="M415 718l-269 -718h-117l271 718h115z" />
    <glyph glyph-name="zero" unicode="0" 
d="M38 347q0 23 2.5 59t11 76t24 80.5t42.5 72.5t67 52.5t96 20.5q36 0 65.5 -9t52 -22.5t38.5 -29.5t26 -31q13 -20 24.5 -43.5t20 -53.5t13.5 -68t5 -87q0 -40 -3.5 -84t-13.5 -85.5t-27.5 -79t-45 -65.5t-66 -44.5t-91.5 -16.5q-67 0 -113 30t-74.5 79.5t-41 114
t-12.5 134.5zM376 339q0 16 -1 38.5t-3 46.5t-5.5 47t-8.5 40q-2 7 -6 20.5t-12.5 27t-22.5 23.5t-35 10q-17 0 -28.5 -6.5t-19.5 -15.5t-13 -19.5t-8 -18.5q-9 -26 -13.5 -57.5t-6.5 -60t-2.5 -50t-0.5 -27.5q0 -45 4 -86.5t14.5 -73.5t28.5 -51t46 -19q30 0 48.5 22.5
t28 57t13 75.5t3.5 77z" />
    <glyph glyph-name="one" unicode="1" 
d="M95 593q100 44 185 105h129v-698h-151v543q-22 -17 -64 -41.5t-99 -47.5v139z" />
    <glyph glyph-name="two" unicode="2" 
d="M25 141l181 163q42 38 71.5 67t47.5 53t26 45t8 44q0 48 -22 68.5t-61 20.5q-28 0 -45 -10t-26.5 -25.5t-13 -33.5t-3.5 -33h-153q0 10 0.5 25t4.5 32t12.5 36t23.5 38q30 38 82.5 57t116.5 19q115 0 175.5 -51t60.5 -139q0 -38 -8.5 -68.5t-29.5 -62t-58 -68.5t-94 -87
l-140 -122l334 7v-116h-490v141z" />
    <glyph glyph-name="three" unicode="3" 
d="M174 190q0 -8 2.5 -23.5t11.5 -31t27 -27t49 -11.5q42 0 66 26.5t24 68.5q0 39 -16.5 59.5t-42 30.5t-56 11.5t-57.5 1.5v117q26 1 56.5 3t56.5 12t43 30.5t17 58.5q0 42 -26 62.5t-60 20.5q-33 0 -59 -21.5t-26 -65.5h-153q2 23 8.5 54.5t32.5 63.5q35 42 86 59.5
t108 17.5q67 0 112 -19t72.5 -47.5t39 -62t11.5 -61.5q0 -44 -16.5 -73t-39 -47t-44.5 -26.5t-34 -11.5q17 -5 38 -14t45 -29q18 -15 29.5 -32t17.5 -33.5t8 -32t2 -27.5q0 -44 -19 -82t-53 -65.5t-80.5 -43t-100.5 -15.5q-18 0 -40.5 2t-45 7.5t-44 14.5t-38.5 23
q-23 19 -36 42t-19 45.5t-7.5 41t-1.5 29.5h152z" />
    <glyph glyph-name="four" unicode="4" 
d="M16 152v135l280 411h149l-1 -431h95v-115h-95v-152h-148v152h-280zM128 264h176v184q0 3 0.5 13t0.5 22t0.5 23.5t0.5 18.5z" />
    <glyph glyph-name="five" unicode="5" 
d="M179 172q0 -6 3 -19t11.5 -26t24.5 -23t43 -10q20 0 38.5 7.5t33 23.5t23 40.5t8.5 59.5q0 25 -5 47.5t-16.5 40t-29 27.5t-42.5 10q-26 0 -42 -8.5t-26 -20.5t-14.5 -23.5t-6.5 -17.5l-145 4l16 413h423v-114h-291l-9 -173q8 7 19 16t26.5 16.5t36.5 12.5t50 5
q42 0 79.5 -15t65.5 -43.5t44.5 -70t16.5 -93.5q0 -45 -13.5 -90t-43.5 -81t-77.5 -59t-114.5 -23q-55 0 -107 16.5t-88 59.5q-26 32 -32 61.5t-7 49.5h148z" />
    <glyph glyph-name="six" unicode="6" 
d="M371 525q-2 38 -23.5 53.5t-49.5 15.5q-38 0 -58.5 -20.5t-30.5 -50.5t-12.5 -64t-3.5 -61q9 9 21 18.5t29 18t38.5 14t48.5 5.5q36 0 72 -13t64.5 -40.5t46 -69t17.5 -98.5q0 -58 -17 -101.5t-57 -80.5q-35 -32 -76.5 -48.5t-101.5 -16.5t-101.5 17.5t-68 46t-41 64
t-21.5 70.5t-8 66.5t-1 52.5q0 52 4.5 104.5t16.5 99.5t34 86t58 65q23 17 47 27t46 15t39.5 6t28.5 1q39 0 76 -10.5t66 -32.5t47 -56.5t19 -82.5h-148zM287 98q16 0 33 6t31 20.5t23 38.5t9 60q0 58 -26 89t-64 31q-9 0 -26 -4t-33.5 -17t-29 -37.5t-12.5 -64.5
q0 -32 8 -55t21 -38t30.5 -22t35.5 -7z" />
    <glyph glyph-name="seven" unicode="7" 
d="M37 697h473v-124l-240 -573h-167l255 581h-321v116z" />
    <glyph glyph-name="eight" unicode="8" 
d="M174 366q-14 4 -36 12.5t-43.5 25.5t-37 43.5t-15.5 67.5q0 32 13.5 66.5t43 63t75 47t109.5 18.5q52 0 96 -14t75 -39.5t48.5 -60t17.5 -75.5q0 -32 -11.5 -58t-30.5 -46t-43.5 -32.5t-51.5 -16.5q11 -3 24.5 -7.5t28 -12.5t30 -20.5t29.5 -31.5q18 -26 25 -52t7 -52
q0 -48 -20.5 -85.5t-56 -64t-82 -40t-97.5 -13.5q-53 0 -97.5 16t-76 43.5t-49 64.5t-17.5 79t14 71t37 51q26 25 49 35t43 17zM281 423q38 0 66 24t28 66q0 21 -8 37.5t-21 27.5t-29.5 16.5t-34.5 5.5q-38 0 -64.5 -23.5t-26.5 -63.5q0 -37 24 -63.5t66 -26.5zM281 96
q16 0 33.5 5.5t32 18t24 33t9.5 49.5q0 48 -30 74.5t-70 26.5q-45 0 -72.5 -29t-27.5 -74q0 -27 9 -46.5t23.5 -32t32.5 -19t36 -6.5z" />
    <glyph glyph-name="nine" unicode="9" 
d="M184 170q3 -32 22 -50t51 -18q39 0 61.5 18.5t33.5 47.5t13 65.5t1 72.5q-19 -17 -36.5 -26.5t-33.5 -14.5t-30 -6t-26 -1q-64 0 -105.5 22.5t-66 56t-34 71.5t-9.5 69q0 49 17 90.5t49 72.5t77.5 48.5t103.5 17.5q60 0 101.5 -17.5t69 -46t42.5 -64.5t22.5 -74t9 -74
t1.5 -64q0 -111 -18.5 -184t-53 -116.5t-84.5 -61t-113 -17.5q-9 0 -29 1t-44 6t-49.5 16t-46 31.5t-34 51.5t-13.5 77h151zM267 373q28 0 46.5 11t29.5 27.5t15.5 37t4.5 38.5q0 46 -23.5 76t-69.5 30q-27 0 -45.5 -9.5t-30 -25.5t-16.5 -35.5t-5 -39.5q0 -9 2.5 -27.5
t12 -36.5t28 -32t51.5 -14z" />
    <glyph glyph-name="colon" unicode=":" horiz-adv-x="278" 
d="M76 134h126v-134h-126v134zM76 505h126v-135h-126v135z" />
    <glyph glyph-name="semicolon" unicode=";" horiz-adv-x="278" 
d="M80 505h126v-135h-126v135zM235 133l-119 -246h-103l74 246h148z" />
    <glyph glyph-name="less" unicode="&#x3c;" horiz-adv-x="584" 
d="M26 334l532 206v-140l-372 -133l372 -133v-141l-532 207v134z" />
    <glyph glyph-name="equal" unicode="=" horiz-adv-x="584" 
d="M26 447h532v-129h-532v129zM26 215h532v-129h-532v129z" />
    <glyph glyph-name="greater" unicode="&#x3e;" horiz-adv-x="584" 
d="M26 -7v141l372 133l-372 133v140l533 -206v-134z" />
    <glyph glyph-name="question" unicode="?" horiz-adv-x="500" 
d="M142 162v93q0 8 0.5 17t4 19.5t11 23t21.5 28.5l44 49q30 34 53 70.5t23 74.5q0 9 -3 25.5t-15 33t-36 28.5t-66 12q-17 0 -32.5 -1.5t-31 -4.5t-32 -7.5t-37.5 -10.5v104q29 8 69 14t100 6q44 0 87 -10.5t76.5 -33t54 -58t20.5 -85.5q0 -14 -4 -40.5t-24 -55.5
q-23 -32 -34 -44t-18 -19l-57 -51q-20 -18 -32 -30.5t-18 -23t-8 -20.5t-2 -22v-81h-114zM139 120h120v-120h-120v120z" />
    <glyph glyph-name="at" unicode="@" horiz-adv-x="975" 
d="M807 90q-42 -31 -81 -51.5t-76 -33t-74 -18t-74 -5.5q-85 0 -155.5 27t-121.5 76t-79 117t-28 150q0 90 32.5 161.5t87.5 121.5t127.5 76.5t153.5 26.5q67 0 128 -19t107.5 -57t74.5 -94t28 -131q0 -53 -15.5 -100t-43 -82t-65 -55.5t-80.5 -20.5q-17 0 -38.5 6t-37.5 26
q-11 14 -13.5 26t-3.5 21q-14 -27 -31 -43.5t-35 -25.5t-35 -12.5t-32 -3.5q-57 0 -95.5 40t-38.5 113q0 44 15 86.5t41.5 76t63 54t79.5 20.5q20 0 42.5 -6t39.5 -21q11 -10 15.5 -18t7.5 -16l13 45h99l-60 -206q-5 -14 -9 -30.5t-4 -30.5q0 -18 10.5 -26.5t23.5 -8.5
q19 0 40 14t38 39.5t28.5 62t11.5 81.5q0 66 -25 111.5t-64 73.5t-87.5 40.5t-94.5 12.5q-67 0 -127.5 -21.5t-106.5 -63.5t-73 -104t-27 -143q0 -72 24 -129t67 -97t102 -61t130 -21q16 0 43 2t61.5 11t76 28t86.5 54zM411 311q0 -4 1 -14.5t6 -22t15 -20.5t28 -9
q14 0 24.5 6.5t18.5 15.5t14 19.5t10 18.5q10 22 17 45.5t11.5 44t6.5 34t2 15.5q0 17 -12 32t-37 15q-20 0 -39 -15.5t-33.5 -41t-23.5 -58t-9 -65.5z" />
    <glyph glyph-name="A" unicode="A" horiz-adv-x="706" 
d="M450 722l251 -722h-156l-52 156h-286l-54 -156h-148l261 722h184zM454 273l-100 308l-107 -308h207z" />
    <glyph glyph-name="B" unicode="B" horiz-adv-x="667" 
d="M68 722h270q16 0 38 -0.5t46 -3.5t48.5 -10t45.5 -20q25 -16 40.5 -36t24.5 -41t12.5 -41t3.5 -36q0 -50 -29 -93.5t-95 -63.5v-2q41 -8 70 -25.5t47.5 -41.5t27 -52t8.5 -57q0 -64 -32 -106.5t-74 -63.5q-21 -11 -48.5 -17t-53.5 -8.5t-48 -3t-32 -0.5h-270v722z
M216 428h108q16 0 37.5 1.5t41 10t32.5 27.5t13 54q0 34 -12.5 52t-31.5 26.5t-41.5 10t-41.5 1.5h-105v-183zM216 116h105q27 0 53.5 1.5t48.5 10.5t35.5 29t13.5 56q0 39 -15.5 59.5t-40 30.5t-54 11.5t-57.5 1.5h-89v-200z" />
    <glyph glyph-name="C" unicode="C" horiz-adv-x="667" 
d="M476 497q-1 9 -4.5 30t-15.5 42.5t-35 38t-62 16.5q-43 0 -74 -21t-50.5 -57.5t-29 -85.5t-9.5 -105q0 -50 7 -96.5t24.5 -82.5t46.5 -57.5t73 -21.5q24 0 47 8t41 24.5t29.5 42.5t12.5 62h163q-1 -16 -3 -36t-8.5 -42.5t-19 -46t-34.5 -45.5q-24 -25 -52.5 -40.5
t-57.5 -24.5t-58 -12.5t-53 -3.5q-93 0 -155 33t-98.5 86.5t-51.5 120t-15 133.5q0 85 23 155.5t66 120.5t104 77.5t138 27.5q59 0 108.5 -17.5t85 -49t55.5 -75.5t20 -98h-158z" />
    <glyph glyph-name="D" unicode="D" horiz-adv-x="722" 
d="M65 722h239q15 0 43.5 -1.5t63 -8t72 -20t70.5 -37.5q34 -25 57.5 -58t38 -70.5t21 -77t6.5 -78.5q0 -83 -20.5 -146.5t-56 -108.5t-82 -72t-97.5 -36q-20 -4 -48 -6t-82 -2h-225v722zM222 119q13 -1 30 -1.5t31 -0.5q51 0 92.5 8t75.5 42q23 23 36 52.5t19.5 59t8 54.5
t1.5 38q0 38 -7 74t-22.5 65.5t-41 51.5t-61.5 32q-12 3 -26.5 5.5t-33.5 4t-44 1.5t-58 -1v-485z" />
    <glyph glyph-name="E" unicode="E" horiz-adv-x="603" 
d="M66 722h484v-117h-329v-172h308v-118h-308v-195h340v-120h-495v722z" />
    <glyph glyph-name="F" unicode="F" 
d="M69 722h466v-116h-311v-178h290v-120h-290v-308h-155v722z" />
    <glyph glyph-name="G" unicode="G" horiz-adv-x="778" 
d="M554 495q-1 14 -3.5 33t-16.5 40q-11 18 -26.5 29t-32 17t-33 8t-29.5 2q-66 0 -107 -26.5t-64.5 -66.5t-31.5 -87t-8 -89q0 -18 2 -43t8 -51.5t18 -52.5t32 -47q27 -30 66 -46t104 -16q28 0 47.5 1.5t33 3.5t22.5 4.5t15 4.5v152h-140v120h295v-361q-17 -6 -40 -13
t-54.5 -13t-73.5 -10t-96 -4q-62 0 -109.5 7t-84.5 20t-64.5 30.5t-48.5 38.5q-30 30 -49 65t-29.5 71t-14 70.5t-3.5 63.5q0 96 28.5 168.5t79 121t120 73t151.5 24.5q70 0 136.5 -21t109.5 -70q18 -21 28 -41.5t15.5 -40t7 -37t1.5 -32.5h-161z" />
    <glyph glyph-name="H" unicode="H" horiz-adv-x="719" 
d="M67 722h155v-288h273v288h157v-722h-155v317h-275v-317h-155v722z" />
    <glyph glyph-name="I" unicode="I" horiz-adv-x="289" 
d="M67 722h155v-722h-155v722z" />
    <glyph glyph-name="J" unicode="J" horiz-adv-x="548" 
d="M161 234q2 -60 19.5 -94t65.5 -34q22 0 36.5 7t23.5 16.5t13 20t6 17.5q5 23 5.5 53.5t0.5 59.5v442h157v-443q0 -42 -4.5 -79t-17 -69t-34.5 -59t-56 -48q-21 -13 -53.5 -22t-86.5 -9q-60 0 -107 17t-82 71q-13 20 -20.5 41t-11.5 41.5t-5 38.5t-1 32h152z" />
    <glyph glyph-name="K" unicode="K" horiz-adv-x="667" 
d="M67 722h155v-312l242 312h181l-265 -323l288 -399h-193l-253 368v-368h-155v722z" />
    <glyph glyph-name="L" unicode="L" 
d="M69 722h158v-599h310v-123h-468v722z" />
    <glyph glyph-name="M" unicode="M" horiz-adv-x="951" 
d="M67 722h253l153 -525l165 525h246v-722h-154v620l-197 -620h-128l-193 620v-620h-145v722z" />
    <glyph glyph-name="N" unicode="N" horiz-adv-x="773" 
d="M67 722h224l271 -568v568h144v-722h-213l-280 600v-600h-146v722z" />
    <glyph glyph-name="O" unicode="O" horiz-adv-x="778" 
d="M42 351q0 72 17.5 141.5t58.5 124t107 88t164 33.5q29 0 62 -4t67 -15t66 -30t59 -49q29 -33 47 -69.5t28 -72.5t13.5 -69.5t3.5 -60.5q0 -39 -6 -79t-17.5 -77t-28.5 -69.5t-39 -57.5q-30 -34 -65.5 -54t-70.5 -31t-67 -14.5t-54 -3.5q-72 0 -138.5 23.5t-117.5 75.5
q-30 31 -47.5 68t-27 73.5t-12 70.5t-2.5 58zM204 356q0 -52 11 -106t43 -96q17 -23 47 -40.5t84 -17.5q92 0 135 67q9 13 18 31t15.5 43t11 57.5t4.5 75.5q0 26 -3.5 61t-14.5 68q-23 67 -65.5 97.5t-99.5 30.5q-45 0 -78 -16.5t-55 -44.5q-31 -38 -42 -92.5t-11 -117.5z
" />
    <glyph glyph-name="P" unicode="P" horiz-adv-x="611" 
d="M65 722h223q39 0 74.5 -2.5t67 -10.5t59 -24t50.5 -43q29 -35 36.5 -71t7.5 -64q0 -63 -24.5 -113.5t-67.5 -78.5q-20 -13 -42.5 -20t-45 -10t-42.5 -3.5t-34 -0.5h-105v-281h-157v722zM218 396h62q19 0 43.5 1.5t46.5 12t37.5 33t15.5 63.5q0 37 -13.5 57t-33.5 29
t-42 10.5t-38 1.5h-78v-208z" />
    <glyph glyph-name="Q" unicode="Q" horiz-adv-x="778" 
d="M761 -2q-17 0 -40.5 0.5t-48 0.5t-48 0.5t-41.5 0.5q-14 0 -47 -1.5t-70 -3.5t-69 -4t-45 -2q-67 0 -117 19t-85.5 50t-58 71t-35 80.5t-17.5 79t-5 67.5q0 73 20 142t62 122t108 85t158 32q70 0 130 -23.5t103.5 -69.5t68 -114t24.5 -157q0 -62 -12.5 -107t-29.5 -77
t-35.5 -52.5t-31.5 -32.5q25 5 69.5 7t92.5 0v-113zM194 365q0 -38 7 -84t26.5 -86t54 -67t89.5 -27q57 0 92 26.5t54.5 67t26.5 88.5t7 92q0 77 -14.5 119t-30.5 66q-7 10 -18.5 22t-27.5 22t-37 16.5t-47 6.5q-51 0 -86 -22.5t-56 -59t-30.5 -84t-9.5 -96.5z" />
    <glyph glyph-name="R" unicode="R" horiz-adv-x="667" 
d="M66 722h277q30 0 60 -1t58.5 -5.5t54 -14t46.5 -27.5q34 -29 48.5 -66.5t14.5 -72.5q0 -51 -18.5 -83.5t-43.5 -52t-50.5 -28.5t-38.5 -13q41 -4 64.5 -17.5t36.5 -34.5t18.5 -50t10.5 -64q8 -64 13 -94.5t9 -45.5q6 -24 11 -33.5t11 -18.5h-171q-3 15 -8 52t-10.5 78
t-11 75.5t-9.5 45.5q-5 15 -14.5 23.5t-20 12.5t-22 4.5t-21.5 0.5h-136v-292h-158v722zM219 407h125q14 0 37 2.5t42 17.5q4 3 11 9.5t13.5 16.5t11 24.5t4.5 33.5q0 37 -13.5 55.5t-24.5 25.5q-18 13 -41.5 15t-60.5 2h-104v-202z" />
    <glyph glyph-name="S" unicode="S" horiz-adv-x="667" 
d="M193 231q0 -13 2 -36t14 -45.5t38.5 -39t76.5 -16.5q63 0 100 27.5t37 73.5q0 24 -8.5 39t-25.5 25t-43 17.5t-60 15.5q-65 16 -114.5 34.5t-83 44t-51 59.5t-17.5 81q0 45 16.5 85.5t51 71t89 49t129.5 18.5q28 0 58 -4t59 -13.5t55 -26t46 -41.5q15 -20 23.5 -40
t12 -38t4.5 -32.5t1 -23.5h-149q-1 9 -4.5 27.5t-15 37t-34.5 32t-63 13.5q-54 0 -86.5 -26.5t-32.5 -71.5q0 -26 10 -41.5t29.5 -26.5t49 -19t68.5 -18q47 -11 91.5 -24.5t79.5 -36t56 -57t21 -87.5q0 -49 -20 -91.5t-59 -74.5t-96.5 -50.5t-132.5 -18.5q-69 0 -116.5 13.5
t-78.5 35t-48.5 49t-25.5 55t-9.5 52.5t-1.5 43h158z" />
    <glyph glyph-name="T" unicode="T" horiz-adv-x="611" 
d="M229 603h-215v119h586v-119h-215v-603h-156v603z" />
    <glyph glyph-name="U" unicode="U" horiz-adv-x="746" 
d="M215 722v-441q0 -30 3.5 -61.5t18.5 -57.5t46.5 -42.5t88.5 -16.5q9 0 26.5 1t38 7t40.5 19t35 36q11 15 17 42t6 81v433h151v-452q0 -81 -29 -135.5t-75 -87.5t-102 -47t-111 -14q-27 0 -63 4t-74.5 17t-74 38t-60.5 66q-26 42 -31.5 84.5t-5.5 93.5v433h155z" />
    <glyph glyph-name="V" unicode="V" horiz-adv-x="722" 
d="M181 722l189 -569l190 569h153l-266 -722h-169l-266 722h169z" />
    <glyph glyph-name="W" unicode="W" horiz-adv-x="1000" 
d="M175 722l112 -541l141 541h175l127 -541l117 541h148l-184 -722h-172l-131 552l-141 -552h-176l-176 722h160z" />
    <glyph glyph-name="X" unicode="X" horiz-adv-x="722" 
d="M221 722l146 -245l156 245h166l-238 -347l252 -375h-190l-161 272l-173 -272h-166l254 374l-237 348h191z" />
    <glyph glyph-name="Y" unicode="Y" horiz-adv-x="667" 
d="M197 722l149 -331l152 331h159l-244 -459v-263h-153v265l-244 457h181z" />
    <glyph glyph-name="Z" unicode="Z" horiz-adv-x="611" 
d="M27 132l378 475l-355 -3v118h523v-137l-377 -472l385 6v-119h-554v132z" />
    <glyph glyph-name="bracketleft" unicode="[" horiz-adv-x="333" 
d="M287 660h-109v-690h109v-93h-229v875h229v-92z" />
    <glyph glyph-name="backslash" unicode="\" horiz-adv-x="278" 
d="M144 718l271 -718h-117l-269 718h115z" />
    <glyph glyph-name="bracketright" unicode="]" horiz-adv-x="333" 
d="M46 752h229v-875h-229v93h109v690h-109v92z" />
    <glyph glyph-name="asciicircum" unicode="^" horiz-adv-x="584" 
d="M232 697h117l181 -433h-138l-103 272l-100 -272h-138z" />
    <glyph glyph-name="underscore" unicode="_" horiz-adv-x="500" 
d="M0 -75h500v-50h-500v50z" />
    <glyph glyph-name="grave" unicode="`" horiz-adv-x="278" 
d="M212 585h-85l-139 145h140z" />
    <glyph glyph-name="a" unicode="a" 
d="M368 0q-4 23 -4.5 40.5t-0.5 28.5q-21 -30 -43.5 -46.5t-42.5 -24t-37.5 -9t-27.5 -1.5q-55 0 -83 13t-43 27q-23 23 -33.5 52t-10.5 59q0 15 3.5 35.5t15 42t32.5 42.5t56 37q23 10 50.5 15.5t54.5 8.5t52 3.5t43 0.5q0 25 -1 39t-6 28q-5 13 -14 21.5t-18.5 13t-19 6
t-14.5 1.5q-16 0 -31 -7t-25 -21q-8 -13 -9.5 -24.5t-1.5 -20.5h-145q0 10 1.5 24.5t7.5 31t17 33t31 30.5q35 25 76 33t77 8q16 0 39 -2t48 -9t49.5 -19.5t43.5 -34.5q13 -15 20 -33t10.5 -35.5t4 -32t0.5 -23.5l1 -203q0 -32 2.5 -64t9.5 -64h-134zM349 238
q-36 3 -65.5 -1t-51.5 -14.5t-34 -27.5t-12 -39q0 -13 4.5 -25.5t13.5 -23t22.5 -17t31.5 -6.5q20 0 36 8.5t27 20.5q20 24 24 53.5t4 71.5z" />
    <glyph glyph-name="b" unicode="b" horiz-adv-x="611" 
d="M60 722h148v-278q19 25 40 38.5t40.5 20t36 8t26.5 1.5q46 0 86 -18t70 -52t47 -83.5t17 -113.5q0 -71 -19 -119.5t-49 -78.5t-68 -43.5t-75 -13.5q-9 0 -28 1.5t-40.5 9.5t-44 24t-39.5 46q-1 -12 -2 -30t-3 -41h-143v722zM420 240q0 15 -2 44t-12.5 57.5t-32.5 50
t-62 21.5q-41 0 -63 -20t-32.5 -46t-12 -52t-1.5 -38q0 -88 32.5 -129t83.5 -41q38 0 59 20t30.5 46.5t11 51.5t1.5 35z" />
    <glyph glyph-name="c" unicode="c" horiz-adv-x="500" 
d="M332 326q-1 7 -3.5 22t-9 31t-19 28t-33.5 12q-26 0 -41.5 -17.5t-23.5 -42.5t-10.5 -52.5t-2.5 -48.5q0 -11 1 -31t4.5 -43t11 -45t20.5 -36q11 -11 21.5 -14t18.5 -3q6 0 16.5 2.5t21.5 12t19.5 29t10.5 53.5h146q-1 -14 -3 -32.5t-8.5 -38.5t-19 -40t-34.5 -38
q-27 -23 -61.5 -35t-82.5 -12q-51 0 -94 14t-78 53q-33 38 -48.5 88t-15.5 111q0 86 27.5 138t65.5 79.5t78 36t65 8.5q35 0 71.5 -10.5t66.5 -33t49 -58.5t19 -87h-145z" />
    <glyph glyph-name="d" unicode="d" horiz-adv-x="611" 
d="M399 722h149v-640q0 -23 1 -45.5t3 -36.5h-150l-4 73q-8 -14 -18 -28t-33 -29q-28 -18 -54.5 -22t-43.5 -4q-103 0 -159 65.5t-56 185.5q0 63 16.5 113t45.5 85t70 54t91 19q34 0 58.5 -8.5t41.5 -19.5t27 -22.5t15 -18.5v279zM184 245q0 -32 5.5 -60.5t17.5 -50.5
t31.5 -35t47.5 -13q32 0 57 17t37 40q17 32 20.5 66t3.5 53q0 75 -29.5 114t-80.5 39q-37 0 -59 -19.5t-33 -46.5t-14.5 -56t-3.5 -48z" />
    <glyph glyph-name="e" unicode="e" 
d="M184 215q0 -12 1.5 -35t11.5 -45t30.5 -38.5t59.5 -16.5q28 0 52.5 14t35.5 56h135q-2 -19 -9.5 -48t-38.5 -62q-28 -29 -74 -44t-103 -15q-16 0 -38.5 2t-47 9t-49 19t-43.5 33q-35 36 -50 86t-15 111q0 31 4.5 64t16 64.5t32 60t52.5 50.5q29 20 64.5 31t77.5 11
q27 0 56 -6t56 -20t51 -37.5t41 -58.5q13 -26 19.5 -52t9.5 -50.5t2.5 -45.5t-1.5 -37h-339zM372 308q0 9 -1.5 27.5t-10 37.5t-26.5 33.5t-50 14.5q-24 0 -41.5 -9.5t-29 -25t-17.5 -36t-7 -42.5h183z" />
    <glyph glyph-name="f" unicode="f" horiz-adv-x="333" 
d="M75 400h-75v105h75v69q0 33 7 62.5t26 51.5t53 34.5t88 12.5q8 0 28 -0.5t52 -4.5v-103q-11 2 -16.5 2.5t-14.5 0.5q-29 0 -44 -6.5t-22.5 -16.5t-8.5 -21.5t-1 -21.5v-59h94v-105h-94v-400h-147v400z" />
    <glyph glyph-name="g" unicode="g" horiz-adv-x="611" 
d="M544 503q-3 -30 -5 -58.5t-2 -66.5v-373q0 -70 -25.5 -110.5t-64 -61.5t-82.5 -26.5t-80 -5.5q-27 0 -64 4t-71 20t-59 48.5t-28 89.5h142q1 -6 3.5 -17.5t11.5 -23t26 -20.5t47 -9q33 0 58.5 16t33.5 50q2 9 3.5 18t2 22t1 32t0.5 48q-18 -23 -36.5 -37t-36 -21
t-33.5 -9t-30 -2q-54 0 -94.5 21.5t-66.5 56.5t-39 79.5t-13 90.5q0 48 13.5 93t40.5 80t67.5 56t94.5 21q35 0 59 -8t40.5 -19.5t26 -24t15.5 -20.5l5 67h139zM191 258q0 -9 1.5 -33.5t11 -49.5t29.5 -44.5t57 -19.5q39 0 60 19.5t31 44.5t11.5 48.5t1.5 31.5q0 21 -3 48
t-13.5 50.5t-30.5 39.5t-54 16q-42 0 -72 -35t-30 -116z" />
    <glyph glyph-name="h" unicode="h" horiz-adv-x="611" 
d="M69 722h147v-286q6 9 16.5 22t28 25t42 20.5t59.5 8.5q28 0 51 -6.5t41.5 -16t32 -21.5t22.5 -24q14 -19 23.5 -52.5t9.5 -84.5v-307h-147v302q0 11 -1.5 29.5t-9 36.5t-24.5 31t-48 13q-16 0 -32.5 -5t-30.5 -17t-23 -31.5t-9 -49.5l1 -309h-149v722z" />
    <glyph glyph-name="i" unicode="i" horiz-adv-x="278" 
d="M60 722h158v-129h-158v129zM65 506h148v-506h-148v506z" />
    <glyph glyph-name="j" unicode="j" horiz-adv-x="278" 
d="M-2 -94q25 -1 38.5 8.5t20 23.5t7.5 29t1 25v515h148v-552q0 -36 -8 -64t-27 -48t-51 -30.5t-79 -10.5q-6 0 -19.5 0.5t-30.5 3.5v100zM60 722h158v-129h-158v129z" />
    <glyph glyph-name="k" unicode="k" 
d="M67 722h147v-425l153 211h167l-173 -220l184 -288h-175l-156 275v-275h-147v722z" />
    <glyph glyph-name="l" unicode="l" horiz-adv-x="278" 
d="M65 722h148v-722h-148v722z" />
    <glyph glyph-name="m" unicode="m" horiz-adv-x="944" 
d="M68 410q0 24 -1.5 47.5t-3.5 47.5h143l5 -65q6 8 17 21t29 25t45 21t65 9q43 0 72 -11.5t47 -27t27 -31.5t13 -25q16 30 36 48.5t41.5 28.5t43 13.5t41.5 3.5q38 0 65.5 -10t45.5 -23t28.5 -27t14.5 -21q10 -17 15 -36t7 -38.5t2.5 -39t0.5 -35.5v-285h-149v297
q0 20 -2.5 40.5t-11 37t-25.5 26.5t-46 10q-33 0 -51.5 -14t-27.5 -36.5t-10.5 -51t-1.5 -56.5v-253h-149v300q0 15 -1.5 34t-9.5 36t-24.5 29t-47.5 12q-35 0 -54 -13t-27.5 -31t-10 -37.5t-1.5 -32.5v-297h-149v410z" />
    <glyph glyph-name="n" unicode="n" horiz-adv-x="611" 
d="M67 415v10.5t-0.5 23t-1 29t-1.5 29.5h142l4 -76q5 9 16 23.5t30 29t48 25t70 10.5q37 0 64 -10t45.5 -24.5t29 -31t15.5 -29.5q4 -12 7 -23.5t4.5 -28t2 -40t0.5 -59.5v-273h-151v314q0 16 -1 29.5t-7 25.5q-8 17 -25.5 30t-46.5 13q-24 0 -44.5 -10.5t-32.5 -28.5
q-7 -10 -12.5 -29t-5.5 -48v-296h-149v415z" />
    <glyph glyph-name="o" unicode="o" horiz-adv-x="611" 
d="M42 248q0 46 13 93.5t43 86.5t80 64t125 25q69 0 118.5 -21.5t81.5 -58t47 -84.5t15 -101t-15.5 -102t-48 -86.5t-82.5 -59.5t-119 -22q-54 0 -101 16.5t-82 50t-55 83.5t-20 116zM194 247q0 -85 28 -123.5t83 -38.5q24 0 44.5 8t34.5 28t22 53.5t8 83.5q0 25 -3.5 53
t-15 52t-33.5 39.5t-59 15.5q-41 0 -63 -20.5t-32 -48t-12 -56.5t-2 -46z" />
    <glyph glyph-name="p" unicode="p" horiz-adv-x="611" 
d="M204 505l4 -72q17 30 40 47t45.5 24.5t41 9t27.5 1.5q49 0 88 -17.5t66 -50.5t41.5 -79.5t14.5 -104.5q0 -54 -14 -102.5t-41.5 -86t-68.5 -59.5t-96 -22q-34 0 -58.5 8t-41 18.5t-26.5 21.5t-15 17v-252h-151v699h144zM314 90q54 0 81 46t27 121q0 22 -3.5 50.5
t-14.5 53.5t-31 42t-53 17q-18 0 -38.5 -8t-37.5 -27.5t-28.5 -52.5t-11.5 -84q0 -11 2 -37t12.5 -53t32.5 -47.5t63 -20.5z" />
    <glyph glyph-name="q" unicode="q" horiz-adv-x="611" 
d="M553 506q0 -3 -0.5 -16t-1 -28.5t-1 -30.5t-0.5 -22v-601h-152v251q-6 -7 -16.5 -18t-27.5 -21.5t-40.5 -18.5t-55.5 -8q-38 0 -77.5 14.5t-71.5 46t-52.5 82.5t-20.5 123q0 73 19 122t50 79t68.5 43t75.5 13q39 0 66 -10.5t44.5 -24t27.5 -27.5l15 -21l5 73h146z
M187 255q0 -13 1 -29t4.5 -33t10 -34t17.5 -32q17 -24 39.5 -30t38.5 -6q36 0 57.5 17.5t32.5 42.5t14.5 52.5t3.5 48.5t-4 49.5t-16 54.5t-35 44.5t-61 18.5q-32 0 -52 -15t-31.5 -38.5t-15.5 -53t-4 -57.5z" />
    <glyph glyph-name="r" unicode="r" horiz-adv-x="389" 
d="M65 381q0 9 -0.5 25.5t-1.5 35.5t-2.5 36.5t-2.5 28.5h139l3 -97q7 16 18 34t30 33t49 24t75 7v-133q-56 5 -88 -5t-48 -29t-19.5 -43.5t-3.5 -48.5v-249h-148v381z" />
    <glyph glyph-name="s" unicode="s" horiz-adv-x="500" 
d="M168 146q1 -12 5.5 -24.5t14.5 -22t25.5 -16t38.5 -6.5q40 0 59 18.5t19 41.5q0 17 -13.5 31t-56.5 26l-92 25q-15 4 -37 12t-42.5 23.5t-34.5 40.5t-14 64q0 37 16 66t45.5 49.5t70 31.5t89.5 11q39 0 73.5 -9t60 -27.5t41 -46.5t17.5 -66h-135q-2 21 -10 33t-19 18
t-22.5 7.5t-20.5 1.5q-30 0 -50 -13.5t-20 -36.5q0 -26 18 -35t51 -18l91 -25q69 -19 102 -54t33 -87q0 -33 -14 -64t-43 -55.5t-72.5 -39.5t-102.5 -15q-49 0 -93.5 13t-79.5 49q-25 26 -30.5 53.5t-6.5 45.5h139z" />
    <glyph glyph-name="t" unicode="t" horiz-adv-x="389" 
d="M362 7q-36 -10 -66.5 -13t-48.5 -3q-56 0 -86 15.5t-44 37t-16.5 44.5t-2.5 39v277h-97v98h97v99l147 54v-153h120v-98h-120v-228q0 -17 1 -31t7.5 -24t20 -15t38.5 -5q17 0 26.5 0.5t23.5 2.5v-97z" />
    <glyph glyph-name="u" unicode="u" horiz-adv-x="611" 
d="M210 505v-301q0 -17 1 -36t8.5 -36t23.5 -28t46 -11q36 0 55 12.5t28 34t10.5 50t1.5 60.5v255h152v-333q1 -41 1.5 -65.5t1 -38t0.5 -20v-11.5q1 -11 1.5 -18.5t2.5 -18.5h-144l-5 67q-6 -8 -16.5 -21.5t-28 -26.5t-43 -22.5t-61.5 -9.5q-51 0 -91 20t-61 48
q-12 15 -19 35t-10 39t-3.5 36t-0.5 26v314h150z" />
    <glyph glyph-name="v" unicode="v" 
d="M165 505l114 -343l116 343h143l-182 -505h-164l-185 505h158z" />
    <glyph glyph-name="w" unicode="w" horiz-adv-x="889" 
d="M162 505l93 -381l107 381h163l106 -381l99 381h147l-173 -505h-161l-104 374l-106 -374h-163l-165 505h157z" />
    <glyph glyph-name="x" unicode="x" 
d="M191 505l95 -165l99 165h154l-164 -246l169 -259h-175l-102 185l-103 -185h-155l169 271l-162 234h175z" />
    <glyph glyph-name="y" unicode="y" 
d="M174 505l111 -350l113 350h147l-191 -496l-61 -201h-149l64 190l-194 507h160z" />
    <glyph glyph-name="z" unicode="z" horiz-adv-x="500" 
d="M32 130l256 276h-249v99h414v-127l-256 -276h266v-102h-431v130z" />
    <glyph glyph-name="braceleft" unicode="{" horiz-adv-x="333" 
d="M103 484q0 42 4.5 82.5t28 73.5t73 55.5t139.5 27.5v-82q-42 -3 -64.5 -18.5t-33 -37t-12 -47t-1.5 -48.5v-36q0 -33 -6 -64t-23 -56t-48 -42t-81 -21q12 -2 26.5 -4t30 -7t31 -13.5t29.5 -23.5q28 -28 34.5 -63.5t6.5 -71.5v-37q0 -23 1.5 -48.5t12 -47.5t33 -37
t64.5 -17v-82q-70 3 -116.5 17.5t-78.5 45.5q-12 11 -21.5 23.5t-15.5 32t-9.5 48t-3.5 72.5v35q0 19 -2 40t-13 40t-35 33.5t-68 21.5v86q14 1 38.5 9t44.5 25q20 18 27.5 40.5t7.5 60.5v35z" />
    <glyph glyph-name="bar" unicode="|" horiz-adv-x="278" 
d="M205 750v-1000h-132v1000h132z" />
    <glyph glyph-name="braceright" unicode="}" horiz-adv-x="333" 
d="M230 58q0 -41 -4.5 -82t-27.5 -74.5t-73 -56t-140 -26.5v82q42 2 64.5 17t33 37t12 47.5t1.5 48.5v37q0 15 1 32.5t5 35.5t12 35t23 32q14 15 29.5 23.5t31 13.5t30 7t26.5 4q-13 1 -27.5 3t-30 7.5t-31 15.5t-30.5 27q-18 20 -28.5 47t-10.5 83v36q0 23 -1.5 48.5
t-12 47t-33 37t-64.5 18.5v82q89 -5 138.5 -27t73 -55t28.5 -74t5 -83v-35q0 -35 7 -58.5t25 -41.5q9 -9 21.5 -15.5t25 -10.5t23 -6t16.5 -3v-86q-43 -7 -67 -22t-35 -33.5t-13.5 -39.5t-2.5 -40v-35z" />
    <glyph glyph-name="asciitilde" unicode="~" horiz-adv-x="584" 
d="M18 173q6 89 49 139.5t106 50.5q17 0 39 -5.5t67 -19.5q37 -12 60.5 -19.5t39 -11t25.5 -5t20 -1.5q18 0 29 7.5t17 17.5t8.5 20t3.5 15h85q-2 -29 -10.5 -62.5t-26.5 -62t-47 -47.5t-72 -19q-26 0 -72.5 14t-106.5 33q-5 1 -14 4t-19 6t-20.5 5t-17.5 2
q-26 0 -40.5 -17.5t-18.5 -43.5h-84z" />
    <glyph glyph-name="uni00A0" unicode="&#xa0;" horiz-adv-x="278" 
 />
    <glyph glyph-name="exclamdown" unicode="&#xa1;" horiz-adv-x="389" 
d="M252 337l19 -527h-134l12 527h103zM264 400h-127v134h127v-134z" />
    <glyph glyph-name="cent" unicode="&#xa2;" 
d="M402 494q38 -15 59 -38.5t30.5 -48t11.5 -47t2 -34.5h-144q0 7 -2 22t-8.5 31t-19 28t-34.5 12q-28 0 -44 -19.5t-24 -46t-10 -54t-2 -43.5q0 -29 4 -59.5t13 -55t23.5 -40t36.5 -15.5q8 0 19 3t21.5 13.5t18.5 29.5t10 51h146q-1 -14 -4 -35.5t-12.5 -45.5t-28 -47.5
t-51.5 -41.5q-21 -11 -42 -16.5t-40 -8t-33.5 -2t-23.5 1.5l-34 -136h-68l37 149q-24 7 -50 25.5t-47 49t-35 74t-14 100.5t15.5 105.5t45.5 84t75 55t105 19.5q14 0 21 -0.5t12 -1.5l32 125h69z" />
    <glyph glyph-name="sterling" unicode="&#xa3;" 
d="M30 116h73v207h-84v112h85v88q0 14 1.5 34t8 41.5t21.5 43.5t42 40q22 15 58.5 29t99.5 14q70 0 110 -19.5t60.5 -48t26.5 -61t8 -57.5h-150q0 9 -2 23.5t-8.5 28t-20 23.5t-35.5 10q-25 0 -38.5 -11.5t-20 -26t-7.5 -29t-1 -20.5v-102h169v-112h-169v-207h264v-116h-491
v116z" />
    <glyph glyph-name="currency" unicode="&#xa4;" 
d="M87 236q-10 17 -21 43.5t-11 68.5t11.5 69t20.5 44l-68 67l78 78l67 -67q23 11 49 21t62 10q40 0 68 -11t47 -21l66 67l77 -77l-66 -67q9 -17 20 -44t11 -69q0 -45 -11.5 -72t-19.5 -41l67 -66l-78 -78l-67 67q-17 -10 -43.5 -20.5t-68.5 -10.5t-69 11t-44 20l-67 -67
l-77 78zM277 454q-23 0 -42 -8t-33.5 -22.5t-22.5 -34t-8 -41.5t8.5 -41t22.5 -33.5t33.5 -23t41.5 -8.5t41 8.5t33.5 23t23 33.5t8.5 41t-8.5 41.5t-23 33.5t-33.5 22.5t-41 8.5z" />
    <glyph glyph-name="yen" unicode="&#xa5;" 
d="M204 137h-163v74h163v71h-163v74h125l-166 364h181l108 -329l111 329h160l-164 -364h119v-74h-159v-70h159v-74h-158l-1 -138h-152v137z" />
    <glyph glyph-name="brokenbar" unicode="&#xa6;" horiz-adv-x="278" 
d="M205 675v-350h-132v350h132zM205 175v-350h-132v350h132z" />
    <glyph glyph-name="section" unicode="&#xa7;" 
d="M93 122q10 -6 25 -13.5t34 -14t40.5 -11t43.5 -4.5q16 0 31 3t27 9t19 16t7 25q0 23 -19 35t-39 18l-88 31q-27 9 -46.5 24t-32 33t-18 38t-5.5 39q0 35 20.5 70.5t70.5 55.5q-8 3 -21 10.5t-25 20.5t-21 33t-9 48q0 66 52.5 103t139.5 37q60 0 98 -11.5t56 -18.5
l-3 -103q-12 6 -28.5 12.5t-35.5 12.5t-40 10t-42 4q-8 0 -21 -2t-23 -10q-14 -12 -14 -31q0 -12 5.5 -21t12.5 -15t14.5 -9.5t12.5 -5.5l88 -29q30 -10 49.5 -23.5t31 -30.5t16.5 -36t5 -39q0 -49 -25.5 -79.5t-57.5 -45.5q15 -8 30 -18.5t27 -25t19.5 -33.5t7.5 -43
q0 -35 -14.5 -64t-41 -49.5t-63.5 -32t-82 -11.5q-12 0 -58.5 4t-112.5 26zM267 292q39 14 54 38.5t15 42.5q0 19 -8.5 31.5t-20.5 19.5t-24.5 10.5t-20.5 5.5q-29 -8 -50 -26t-21 -48q0 -18 8 -30.5t19.5 -21t24.5 -14t24 -8.5z" />
    <glyph glyph-name="dieresis" unicode="&#xa8;" horiz-adv-x="278" 
d="M172 717h102v-118h-102v118zM0 717h102v-118h-102v118z" />
    <glyph glyph-name="copyright" unicode="&#xa9;" horiz-adv-x="800" 
d="M398 738q77 0 146 -29.5t120.5 -80.5t81.5 -120t30 -148q0 -78 -29.5 -147t-81 -120.5t-120.5 -81t-147 -29.5t-146.5 29.5t-120 81t-81 120.5t-29.5 147q0 79 30 148t81.5 120t120 80.5t145.5 29.5zM398 676q-65 0 -122.5 -24.5t-100.5 -67.5t-68 -100.5t-25 -123.5
q0 -65 25 -122.5t67.5 -100.5t100 -68t123.5 -25t124 25t100.5 68t67.5 100.5t25 122.5q0 66 -25 123.5t-68 100t-101 67.5t-123 25zM479 439q0 6 -2.5 18.5t-10 25.5t-22.5 23t-40 10q-39 0 -60.5 -21t-31.5 -48t-11.5 -53t-1.5 -36t1.5 -35t11 -51.5t30 -47t58.5 -20.5
q14 0 27.5 4.5t25 14.5t19 25.5t8.5 37.5h105q-1 -9 -2.5 -21t-6 -26t-13 -29t-23.5 -29q-29 -26 -63 -36t-69 -10q-59 0 -99.5 18.5t-65.5 49.5t-36 70.5t-11 80.5q0 52 15 94.5t42.5 72.5t66.5 46.5t88 16.5q76 0 124 -39.5t49 -105.5h-102z" />
    <glyph glyph-name="ordfeminine" unicode="&#xaa;" horiz-adv-x="334" 
d="M231 392q-2 15 -2.5 24.5t-0.5 17.5q-6 -8 -13.5 -16.5t-18.5 -16t-27 -12t-39 -4.5q-33 0 -54.5 8.5t-34 22t-17.5 29.5t-5 30q0 33 21 60.5t59 38.5q33 9 65.5 10.5t54.5 1.5q0 10 -0.5 21.5t-5 21.5t-14 16.5t-27.5 6.5q-13 0 -28.5 -8.5t-15.5 -35.5h-94
q0 30 13.5 48.5t33.5 29t44 14.5t45 4q41 0 68 -9t43 -24t22.5 -35.5t6.5 -44.5v-122q0 -17 2 -38.5t6 -38.5h-87zM219 535q-45 3 -75.5 -9t-30.5 -41q0 -18 13 -30t35 -12q21 0 33 10.5t17.5 25t6.5 30t1 26.5z" />
    <glyph glyph-name="guillemotleft" unicode="&#xab;" 
d="M28 252l109 190h132l-95 -190l95 -196h-132zM271 252l109 190h132l-95 -190l95 -196h-132z" />
    <glyph glyph-name="logicalnot" unicode="&#xac;" horiz-adv-x="584" 
d="M24 448h533v-363h-134v233h-399v130z" />
    <glyph glyph-name="uni00AD" unicode="&#xad;" horiz-adv-x="333" 
d="M44 321h248v-113h-248v113z" />
    <glyph glyph-name="registered" unicode="&#xae;" horiz-adv-x="800" 
d="M400 738q76 0 145 -29t120.5 -80t82 -120t30.5 -149q0 -78 -30 -147t-81 -120t-120 -81t-147 -30q-77 0 -146 29.5t-120.5 80.5t-81.5 120t-30 148q0 80 30.5 149t82.5 120t120.5 80t144.5 29zM399 677q-65 0 -122 -24.5t-100.5 -67t-68.5 -100t-25 -124.5q0 -66 25 -124
t68 -101t100.5 -68t122.5 -25q66 0 124 25.5t101 69t68 101t25 122.5q0 66 -25 123.5t-68.5 100.5t-101.5 67.5t-123 24.5zM258 572h146q19 0 44.5 -2t48.5 -12.5t39 -33t16 -64.5q0 -29 -8.5 -47.5t-20.5 -29.5t-26 -17t-25 -10q22 -2 34.5 -9.5t19.5 -20t10 -29.5t6 -37
q1 -12 2.5 -28.5t4.5 -33t6.5 -30.5t8.5 -20h-90q-1 7 -3.5 28.5t-5.5 44t-5 41t-2 20.5q-5 18 -13 27t-31 9h-74v-170h-82v424zM338 386h66q20 0 32.5 6.5t19.5 15.5t9.5 19.5t2.5 18.5q0 22 -6.5 33.5t-16 17t-20.5 6.5t-19 1h-68v-118z" />
    <glyph glyph-name="macron" unicode="&#xaf;" horiz-adv-x="278" 
d="M-36 624v68h342v-68h-342z" />
    <glyph glyph-name="degree" unicode="&#xb0;" horiz-adv-x="400" 
d="M198 708q34 0 65 -13t54 -36t36.5 -54t13.5 -66t-13 -66t-36 -54t-54 -36t-66 -13t-65.5 13t-53.5 36t-36.5 54t-13.5 66t13.5 66t36.5 54t53.5 36t65.5 13zM198 605q-26 0 -46 -19t-20 -47t19.5 -47t46.5 -19q29 0 48 19.5t19 46.5t-19.5 46.5t-47.5 19.5z" />
    <glyph glyph-name="plusminus" unicode="&#xb1;" horiz-adv-x="584" 
d="M225 280h-199v130h199v156h134v-156h199v-130h-199v-149h-134v149zM26 97h532v-130h-532v130z" />
    <glyph glyph-name="twosuperior" unicode="&#xb2;" horiz-adv-x="333" 
d="M13 585q0 13 3 34t23 44q23 25 59 35.5t72 10.5q72 0 112 -31.5t40 -82.5q0 -18 -4 -33.5t-14 -31.5t-28 -35t-45 -44q-32 -30 -60 -52.5t-63 -48.5q19 0 45.5 0.5t55.5 1.5t59 1.5t57 0.5v-69h-318v84l117 99q25 20 45 39t37 42q11 15 14.5 26.5t3.5 19.5q0 21 -14.5 36
t-38.5 15q-30 0 -43.5 -18.5t-15.5 -42.5h-99z" />
    <glyph glyph-name="threesuperior" unicode="&#xb3;" horiz-adv-x="333" 
d="M105 395q0 -5 2 -14.5t8 -18.5t17.5 -16t31.5 -7t39 12.5t19 44.5q0 23 -10 35.5t-26 18.5t-36 7t-39 1v70q18 0 38 2t36.5 8.5t27 18.5t10.5 33q0 25 -17 37.5t-40 12.5q-25 0 -40.5 -14.5t-14.5 -37.5h-99q2 14 5.5 33.5t20.5 37.5q14 16 45.5 31t82.5 15
q39 0 67.5 -10.5t47 -27t27.5 -37t9 -39.5q0 -26 -10.5 -43.5t-25 -28t-29 -16t-22.5 -7.5q51 -14 71 -41t20 -59q0 -27 -12.5 -50t-34.5 -39.5t-52 -25.5t-65 -9q-7 0 -22.5 1t-34 5t-36.5 12.5t-31 23.5q-20 23 -23.5 45t-3.5 36h99z" />
    <glyph glyph-name="acute" unicode="&#xb4;" horiz-adv-x="278" 
d="M152 585h-80l83 145h134z" />
    <glyph glyph-name="mu" unicode="&#xb5;" horiz-adv-x="611" 
d="M71 505h128v-244q0 -35 2.5 -65t12.5 -51.5t28.5 -34t51.5 -12.5q36 0 55.5 15.5t29 39t11.5 51.5t2 54v247h129v-505h-110v60q-6 -9 -15 -21t-22.5 -22.5t-32.5 -18t-44 -7.5q-23 0 -40 5.5t-29 13t-19.5 16t-12.5 15.5v-253h-126z" />
    <glyph glyph-name="paragraph" unicode="&#xb6;" 
d="M520 609v-796h-125v796h-95v-796h-125v425q-26 2 -59.5 10t-67.5 39q-22 20 -36 43t-21.5 46.5t-10 45.5t-2.5 40q0 45 14.5 90t46.5 80.5t82 57.5t121 22h329v-103h-51z" />
    <glyph glyph-name="periodcentered" unicode="&#xb7;" horiz-adv-x="278" 
d="M74 346h127v-133h-127v133z" />
    <glyph glyph-name="cedilla" unicode="&#xb8;" horiz-adv-x="278" 
d="M36 -153q17 -8 35.5 -13t34.5 -5q26 0 40.5 10.5t14.5 27.5q0 11 -9 24t-35 13q-14 0 -23.5 -3t-17.5 -6l-20 21l64 90h47l-48 -64q8 2 15.5 3t19.5 1q25 0 41 -7.5t25.5 -18.5t13.5 -23.5t4 -22.5q0 -27 -13 -45t-32.5 -28t-41.5 -14t-39 -4q-35 0 -61 8.5t-36 13.5z
" />
    <glyph glyph-name="onesuperior" unicode="&#xb9;" horiz-adv-x="333" 
d="M48 637q43 17 75.5 36t44.5 27h84v-419h-98v326q-26 -17 -54.5 -31.5t-51.5 -22.5v84z" />
    <glyph glyph-name="ordmasculine" unicode="&#xba;" horiz-adv-x="367" 
d="M14 541q0 73 44.5 117t125.5 44q43 0 75 -12t53 -33.5t31.5 -50.5t10.5 -63q0 -33 -10.5 -62t-32 -51.5t-54 -35.5t-75.5 -13q-47 0 -79.5 14.5t-52 37.5t-28 51.5t-8.5 56.5zM113 540q0 -97 71 -97q36 0 54 24t18 78q0 45 -16 71.5t-55 26.5q-25 0 -39 -10.5t-21.5 -26
t-9.5 -33.5t-2 -33z" />
    <glyph glyph-name="guillemotright" unicode="&#xbb;" 
d="M32 56l95 189l-95 197h132l109 -197l-109 -189h-132zM275 56l95 189l-95 197h132l109 -197l-109 -189h-132z" />
    <glyph glyph-name="onequarter" unicode="&#xbc;" horiz-adv-x="834" 
d="M486 91v81l182 247h98l-2 -259h62v-69h-63v-91h-98v91h-179zM559 158h111l4 157zM558 725h83l-417 -753h-82zM9 637q43 17 75.5 36t44.5 27h84v-419h-98v326q-26 -17 -54.5 -31.5t-51.5 -22.5v84z" />
    <glyph glyph-name="onehalf" unicode="&#xbd;" horiz-adv-x="834" 
d="M557 725h82l-417 -753h-82zM22 637q43 17 75.5 36t44.5 27h84v-419h-98v326q-26 -17 -54.5 -31.5t-51.5 -22.5v84zM499 300q0 13 3.5 34t23.5 44q22 26 58.5 36t71.5 10q72 0 112 -31.5t40 -82.5q0 -18 -4 -33t-14 -31t-28 -35t-45 -45q-32 -30 -60 -52t-63 -49
q19 1 45 2t55.5 1.5t59.5 0.5h57v-69h-318v85l118 98q24 20 44 39.5t37 41.5q11 15 14.5 26.5t3.5 19.5q0 21 -14.5 36t-37.5 15q-31 0 -44.5 -18.5t-15.5 -42.5h-99z" />
    <glyph glyph-name="threequarters" unicode="&#xbe;" horiz-adv-x="834" 
d="M474 91v81l182 247h99l-3 -259h62v-69h-62v-91h-99v91h-179zM540 158h111l3 111v8.5t0.5 14t0.5 14v9.5zM602 725h82l-416 -753h-82zM122 395q1 -5 3 -14.5t7.5 -18.5t17 -16t32.5 -7q20 0 38.5 12.5t18.5 44.5q0 23 -10 35.5t-26 18.5t-36 7t-39 1v70q19 0 39 2
t36.5 8.5t27 18.5t10.5 33q0 25 -17 37.5t-40 12.5q-25 0 -40.5 -14.5t-15.5 -37.5h-98q2 14 5.5 33.5t20.5 37.5q14 16 45.5 31t82.5 15q39 0 67.5 -10.5t47 -27t27.5 -37t9 -39.5q0 -26 -10.5 -43.5t-25 -28t-29 -16t-22.5 -7.5q51 -14 71 -41t20 -59q0 -27 -12.5 -50
t-34.5 -39.5t-52 -25.5t-65 -9q-7 0 -22.5 1t-34 5t-36.5 12.5t-31 23.5q-20 23 -23.5 45t-3.5 36h98z" />
    <glyph glyph-name="questiondown" unicode="&#xbf;" horiz-adv-x="500" 
d="M352 366v-93q0 -8 -0.5 -17t-4 -19.5t-11 -23t-21.5 -28.5l-44 -49q-30 -35 -53 -71t-23 -74q0 -9 3 -25.5t15 -33t36 -28.5t66 -12q34 0 63 6.5t70 17.5v-105q-28 -7 -68 -13t-100 -6q-45 0 -87.5 10.5t-76 33t-54 58t-20.5 85.5q0 14 3.5 40.5t23.5 54.5
q12 16 20.5 26.5t14.5 17.5t10 11.5t8 8.5l56 51q20 18 32 30.5t18.5 23t8.5 20.5t2 22v81h113zM355 408h-120v120h120v-120z" />
    <glyph glyph-name="Agrave" unicode="&#xc0;" horiz-adv-x="706" 
d="M450 722l251 -722h-156l-52 156h-286l-54 -156h-148l261 722h184zM454 273l-100 308l-107 -308h207zM434 773h-85l-139 145h140z" />
    <glyph glyph-name="Aacute" unicode="&#xc1;" horiz-adv-x="706" 
d="M450 722l251 -722h-156l-52 156h-286l-54 -156h-148l261 722h184zM454 273l-100 308l-107 -308h207zM374 773h-80l83 145h134z" />
    <glyph glyph-name="Acircumflex" unicode="&#xc2;" horiz-adv-x="706" 
d="M450 722l251 -722h-156l-52 156h-286l-54 -156h-148l261 722h184zM454 273l-100 308l-107 -308h207zM310 918h103l104 -145h-89l-68 85l-70 -85h-90z" />
    <glyph glyph-name="Atilde" unicode="&#xc3;" horiz-adv-x="706" 
d="M450 722l251 -722h-156l-52 156h-286l-54 -156h-148l261 722h184zM454 273l-100 308l-107 -308h207zM180 781q8 57 40.5 90t77.5 33q16 0 32 -5t18 -6l57 -22q5 -2 13 -4t21 -2q22 0 32.5 13.5t14.5 32.5h51q-3 -27 -11 -50t-29 -43q-11 -11 -28.5 -20t-43.5 -9
q-17 0 -30.5 4t-21.5 7l-43 16q-9 3 -22 6.5t-23 3.5q-13 0 -28 -8t-25 -37h-52z" />
    <glyph glyph-name="Adieresis" unicode="&#xc4;" horiz-adv-x="706" 
d="M450 722l251 -722h-156l-52 156h-286l-54 -156h-148l261 722h184zM454 273l-100 308l-107 -308h207zM394 895h102v-118h-102v118zM222 895h102v-118h-102v118z" />
    <glyph glyph-name="Aring" unicode="&#xc5;" horiz-adv-x="706" 
d="M450 722l251 -722h-156l-52 156h-286l-54 -156h-148l261 722h184zM454 273l-100 308l-107 -308h207zM361 938q22 0 40.5 -8t32 -22t21 -32.5t7.5 -39.5t-8 -39.5t-21.5 -32.5t-32 -22t-39.5 -8t-39 8t-32 21.5t-22 32.5t-8 40t8 39.5t21.5 32.5t32 22t39.5 8zM361 890
q-22 0 -37.5 -15.5t-15.5 -38.5q0 -22 15.5 -37.5t37.5 -15.5q23 0 38.5 15.5t15.5 37.5t-15.5 38t-38.5 16z" />
    <glyph glyph-name="AE" unicode="&#xc6;" horiz-adv-x="1000" 
d="M392 721h547v-117h-335l26 -178h291v-116h-275l28 -190h274v-120h-416l-22 157h-272l-79 -157h-167zM495 271l-42 314l-154 -314h196z" />
    <glyph glyph-name="Ccedilla" unicode="&#xc7;" horiz-adv-x="667" 
d="M476 497q-1 9 -4.5 30t-15.5 42.5t-35 38t-62 16.5q-43 0 -74 -21t-50.5 -57.5t-29 -85.5t-9.5 -105q0 -50 7 -96.5t24.5 -82.5t46.5 -57.5t73 -21.5q24 0 47 8t41 24.5t29.5 42.5t12.5 62h163q-1 -16 -3 -36t-8.5 -42.5t-19 -46t-34.5 -45.5q-23 -24 -49.5 -39
t-54.5 -24t-55 -13t-51 -5l-34 -45q8 2 15.5 3t20.5 1q25 0 41 -7.5t25.5 -18.5t13 -23.5t3.5 -22.5q0 -27 -13 -45t-32.5 -28t-41.5 -14t-39 -4q-35 0 -61 8.5t-36 13.5l21 42q18 -8 36 -13t34 -5q26 0 41 10.5t15 27.5q0 11 -9.5 24t-35.5 13q-14 0 -23.5 -3t-17.5 -6
l-20 21l51 73q-83 6 -138 41t-87.5 87t-46 115.5t-13.5 127.5q0 85 23 155.5t66 120.5t104 77.5t138 27.5q59 0 108.5 -17.5t85 -49t55.5 -75.5t20 -98h-158z" />
    <glyph glyph-name="Egrave" unicode="&#xc8;" horiz-adv-x="603" 
d="M66 722h484v-117h-329v-172h308v-118h-308v-195h340v-120h-495v722zM371 773h-85l-139 145h140z" />
    <glyph glyph-name="Eacute" unicode="&#xc9;" horiz-adv-x="603" 
d="M66 722h484v-117h-329v-172h308v-118h-308v-195h340v-120h-495v722zM311 773h-80l83 145h134z" />
    <glyph glyph-name="Ecircumflex" unicode="&#xca;" horiz-adv-x="603" 
d="M66 722h484v-117h-329v-172h308v-118h-308v-195h340v-120h-495v722zM247 918h103l104 -145h-89l-68 85l-70 -85h-90z" />
    <glyph glyph-name="Edieresis" unicode="&#xcb;" horiz-adv-x="603" 
d="M66 722h484v-117h-329v-172h308v-118h-308v-195h340v-120h-495v722zM331 895h102v-118h-102v118zM159 895h102v-118h-102v118z" />
    <glyph glyph-name="Igrave" unicode="&#xcc;" horiz-adv-x="289" 
d="M67 722h155v-722h-155v722zM212 773h-85l-139 145h140z" />
    <glyph glyph-name="Iacute" unicode="&#xcd;" horiz-adv-x="289" 
d="M67 722h155v-722h-155v722zM152 773h-80l83 145h134z" />
    <glyph glyph-name="Icircumflex" unicode="&#xce;" horiz-adv-x="289" 
d="M67 722h155v-722h-155v722zM97 918h103l104 -145h-89l-68 85l-70 -85h-90z" />
    <glyph glyph-name="Idieresis" unicode="&#xcf;" horiz-adv-x="289" 
d="M67 722h155v-722h-155v722zM179 895h102v-118h-102v118zM7 895h102v-118h-102v118z" />
    <glyph glyph-name="Eth" unicode="&#xd0;" horiz-adv-x="722" 
d="M65 353h-65v87h65v282h239q15 0 43.5 -1.5t63 -8t72 -20t70.5 -37.5q34 -25 57.5 -58t38 -70.5t21 -77t6.5 -78.5q0 -83 -20.5 -146.5t-56 -108.5t-82 -72t-97.5 -36q-20 -4 -48 -6t-82 -2h-225v353zM222 119q13 -1 30 -1.5t31 -0.5q51 0 92.5 8t75.5 42q23 23 36 52.5
t19.5 59t8 54.5t1.5 38q0 38 -7 74t-22.5 65.5t-41 51.5t-61.5 32q-12 3 -26.5 5.5t-33.5 4t-44 1.5t-58 -1v-164h145v-87h-145v-234z" />
    <glyph glyph-name="Ntilde" unicode="&#xd1;" horiz-adv-x="773" 
d="M67 722h224l271 -568v568h144v-722h-213l-280 600v-600h-146v722zM203 781q8 57 40.5 90t77.5 33q16 0 32 -5t18 -6l57 -22q5 -2 13 -4t21 -2q22 0 32.5 13.5t14.5 32.5h51q-3 -27 -11 -50t-29 -43q-11 -11 -28.5 -20t-43.5 -9q-17 0 -30.5 4t-21.5 7l-43 16
q-9 3 -22 6.5t-23 3.5q-13 0 -28 -8t-25 -37h-52z" />
    <glyph glyph-name="Ograve" unicode="&#xd2;" horiz-adv-x="778" 
d="M42 351q0 72 17.5 141.5t58.5 124t107 88t164 33.5q29 0 62 -4t67 -15t66 -30t59 -49q29 -33 47 -69.5t28 -72.5t13.5 -69.5t3.5 -60.5q0 -39 -6 -79t-17.5 -77t-28.5 -69.5t-39 -57.5q-30 -34 -65.5 -54t-70.5 -31t-67 -14.5t-54 -3.5q-72 0 -138.5 23.5t-117.5 75.5
q-30 31 -47.5 68t-27 73.5t-12 70.5t-2.5 58zM204 356q0 -52 11 -106t43 -96q17 -23 47 -40.5t84 -17.5q92 0 135 67q9 13 18 31t15.5 43t11 57.5t4.5 75.5q0 26 -3.5 61t-14.5 68q-23 67 -65.5 97.5t-99.5 30.5q-45 0 -78 -16.5t-55 -44.5q-31 -38 -42 -92.5t-11 -117.5z
M462 773h-85l-139 145h140z" />
    <glyph glyph-name="Oacute" unicode="&#xd3;" horiz-adv-x="778" 
d="M42 351q0 72 17.5 141.5t58.5 124t107 88t164 33.5q29 0 62 -4t67 -15t66 -30t59 -49q29 -33 47 -69.5t28 -72.5t13.5 -69.5t3.5 -60.5q0 -39 -6 -79t-17.5 -77t-28.5 -69.5t-39 -57.5q-30 -34 -65.5 -54t-70.5 -31t-67 -14.5t-54 -3.5q-72 0 -138.5 23.5t-117.5 75.5
q-30 31 -47.5 68t-27 73.5t-12 70.5t-2.5 58zM204 356q0 -52 11 -106t43 -96q17 -23 47 -40.5t84 -17.5q92 0 135 67q9 13 18 31t15.5 43t11 57.5t4.5 75.5q0 26 -3.5 61t-14.5 68q-23 67 -65.5 97.5t-99.5 30.5q-45 0 -78 -16.5t-55 -44.5q-31 -38 -42 -92.5t-11 -117.5z
M402 773h-80l83 145h134z" />
    <glyph glyph-name="Ocircumflex" unicode="&#xd4;" horiz-adv-x="778" 
d="M42 351q0 72 17.5 141.5t58.5 124t107 88t164 33.5q29 0 62 -4t67 -15t66 -30t59 -49q29 -33 47 -69.5t28 -72.5t13.5 -69.5t3.5 -60.5q0 -39 -6 -79t-17.5 -77t-28.5 -69.5t-39 -57.5q-30 -34 -65.5 -54t-70.5 -31t-67 -14.5t-54 -3.5q-72 0 -138.5 23.5t-117.5 75.5
q-30 31 -47.5 68t-27 73.5t-12 70.5t-2.5 58zM204 356q0 -52 11 -106t43 -96q17 -23 47 -40.5t84 -17.5q92 0 135 67q9 13 18 31t15.5 43t11 57.5t4.5 75.5q0 26 -3.5 61t-14.5 68q-23 67 -65.5 97.5t-99.5 30.5q-45 0 -78 -16.5t-55 -44.5q-31 -38 -42 -92.5t-11 -117.5z
M338 918h103l104 -145h-89l-68 85l-70 -85h-90z" />
    <glyph glyph-name="Otilde" unicode="&#xd5;" horiz-adv-x="778" 
d="M42 351q0 72 17.5 141.5t58.5 124t107 88t164 33.5q29 0 62 -4t67 -15t66 -30t59 -49q29 -33 47 -69.5t28 -72.5t13.5 -69.5t3.5 -60.5q0 -39 -6 -79t-17.5 -77t-28.5 -69.5t-39 -57.5q-30 -34 -65.5 -54t-70.5 -31t-67 -14.5t-54 -3.5q-72 0 -138.5 23.5t-117.5 75.5
q-30 31 -47.5 68t-27 73.5t-12 70.5t-2.5 58zM204 356q0 -52 11 -106t43 -96q17 -23 47 -40.5t84 -17.5q92 0 135 67q9 13 18 31t15.5 43t11 57.5t4.5 75.5q0 26 -3.5 61t-14.5 68q-23 67 -65.5 97.5t-99.5 30.5q-45 0 -78 -16.5t-55 -44.5q-31 -38 -42 -92.5t-11 -117.5z
M208 781q8 57 40.5 90t77.5 33q16 0 32 -5t18 -6l57 -22q5 -2 13 -4t21 -2q22 0 32.5 13.5t14.5 32.5h51q-3 -27 -11 -50t-29 -43q-11 -11 -28.5 -20t-43.5 -9q-17 0 -30.5 4t-21.5 7l-43 16q-9 3 -22 6.5t-23 3.5q-13 0 -28 -8t-25 -37h-52z" />
    <glyph glyph-name="Odieresis" unicode="&#xd6;" horiz-adv-x="778" 
d="M42 351q0 72 17.5 141.5t58.5 124t107 88t164 33.5q29 0 62 -4t67 -15t66 -30t59 -49q29 -33 47 -69.5t28 -72.5t13.5 -69.5t3.5 -60.5q0 -39 -6 -79t-17.5 -77t-28.5 -69.5t-39 -57.5q-30 -34 -65.5 -54t-70.5 -31t-67 -14.5t-54 -3.5q-72 0 -138.5 23.5t-117.5 75.5
q-30 31 -47.5 68t-27 73.5t-12 70.5t-2.5 58zM204 356q0 -52 11 -106t43 -96q17 -23 47 -40.5t84 -17.5q92 0 135 67q9 13 18 31t15.5 43t11 57.5t4.5 75.5q0 26 -3.5 61t-14.5 68q-23 67 -65.5 97.5t-99.5 30.5q-45 0 -78 -16.5t-55 -44.5q-31 -38 -42 -92.5t-11 -117.5z
M422 895h102v-118h-102v118zM250 895h102v-118h-102v118z" />
    <glyph glyph-name="multiply" unicode="&#xd7;" horiz-adv-x="584" 
d="M200 266l-167 168l92 92l167 -168l167 168l92 -92l-167 -168l167 -167l-92 -92l-167 168l-167 -168l-92 92z" />
    <glyph glyph-name="Oslash" unicode="&#xd8;" horiz-adv-x="778" 
d="M710 765l47 -47l-95 -104q40 -54 55.5 -118t15.5 -131q0 -98 -26.5 -170t-73 -119t-109.5 -70.5t-136 -23.5q-66 0 -127.5 18.5t-110.5 60.5l-100 -108l-48 47l103 111q-37 52 -51 114t-14 126q0 39 6 83t20.5 87t40 82.5t64 69t92 47.5t124.5 18q63 0 122 -16t107 -58z
M523 564q-17 23 -37.5 36.5t-39.5 20t-34.5 8t-24.5 1.5q-48 0 -89 -23.5t-65 -72.5q-9 -20 -15 -44.5t-9 -49t-4.5 -47t-1.5 -37.5q0 -54 5.5 -81.5t9.5 -39.5zM248 166q5 -8 14.5 -20t25.5 -23.5t40.5 -19.5t59.5 -8q52 0 87.5 22t56.5 60t30 88.5t9 107.5q0 32 -3.5 64
t-12.5 62z" />
    <glyph glyph-name="Ugrave" unicode="&#xd9;" horiz-adv-x="746" 
d="M215 722v-441q0 -30 3.5 -61.5t18.5 -57.5t46.5 -42.5t88.5 -16.5q9 0 26.5 1t38 7t40.5 19t35 36q11 15 17 42t6 81v433h151v-452q0 -81 -29 -135.5t-75 -87.5t-102 -47t-111 -14q-27 0 -63 4t-74.5 17t-74 38t-60.5 66q-26 42 -31.5 84.5t-5.5 93.5v433h155zM450 773
h-85l-139 145h140z" />
    <glyph glyph-name="Uacute" unicode="&#xda;" horiz-adv-x="746" 
d="M215 722v-441q0 -30 3.5 -61.5t18.5 -57.5t46.5 -42.5t88.5 -16.5q9 0 26.5 1t38 7t40.5 19t35 36q11 15 17 42t6 81v433h151v-452q0 -81 -29 -135.5t-75 -87.5t-102 -47t-111 -14q-27 0 -63 4t-74.5 17t-74 38t-60.5 66q-26 42 -31.5 84.5t-5.5 93.5v433h155zM390 773
h-80l83 145h134z" />
    <glyph glyph-name="Ucircumflex" unicode="&#xdb;" horiz-adv-x="746" 
d="M215 722v-441q0 -30 3.5 -61.5t18.5 -57.5t46.5 -42.5t88.5 -16.5q9 0 26.5 1t38 7t40.5 19t35 36q11 15 17 42t6 81v433h151v-452q0 -81 -29 -135.5t-75 -87.5t-102 -47t-111 -14q-27 0 -63 4t-74.5 17t-74 38t-60.5 66q-26 42 -31.5 84.5t-5.5 93.5v433h155zM326 918
h103l104 -145h-89l-68 85l-70 -85h-90z" />
    <glyph glyph-name="Udieresis" unicode="&#xdc;" horiz-adv-x="746" 
d="M215 722v-441q0 -30 3.5 -61.5t18.5 -57.5t46.5 -42.5t88.5 -16.5q9 0 26.5 1t38 7t40.5 19t35 36q11 15 17 42t6 81v433h151v-452q0 -81 -29 -135.5t-75 -87.5t-102 -47t-111 -14q-27 0 -63 4t-74.5 17t-74 38t-60.5 66q-26 42 -31.5 84.5t-5.5 93.5v433h155zM410 895
h102v-118h-102v118zM238 895h102v-118h-102v118z" />
    <glyph glyph-name="Yacute" unicode="&#xdd;" horiz-adv-x="667" 
d="M197 722l149 -331l152 331h159l-244 -459v-263h-153v265l-244 457h181zM379 773h-80l83 145h134z" />
    <glyph glyph-name="Thorn" unicode="&#xde;" horiz-adv-x="611" 
d="M65 721h153v-110h70q36 0 69.5 -2t64 -9t57 -20t48.5 -35q27 -27 41.5 -63.5t14.5 -87.5q0 -57 -22 -107.5t-70 -82.5q-18 -13 -41 -20t-46.5 -10t-45.5 -3.5t-38 -0.5h-98v-170h-157v721zM218 285h62h21t25 1.5t26 4.5t22 9q28 16 38.5 44t10.5 52q0 36 -14 56t-34 29
t-41.5 10.5t-37.5 1.5h-78v-208z" />
    <glyph glyph-name="germandbls" unicode="&#xdf;" horiz-adv-x="667" 
d="M59 539q0 43 11 74t26 51t29 30.5t20 13.5q36 21 77 27.5t83 6.5q41 0 82.5 -8.5t74.5 -26.5t54 -46.5t21 -68.5q0 -17 -4 -32.5t-14 -30.5t-28 -31t-46 -34q-11 -8 -21 -17.5t-10 -29.5q0 -11 7.5 -22.5t39.5 -29.5l78 -47q16 -9 32 -20.5t29 -29t21.5 -42.5t8.5 -60
q0 -65 -23 -101.5t-55 -54.5t-66.5 -22t-56.5 -4q-23 0 -52 3.5t-55.5 19.5t-46 48t-23.5 89h131q0 -30 16 -46q7 -8 16.5 -11.5t19.5 -3.5q19 0 37.5 16.5t18.5 54.5q0 24 -11 46t-46 43l-78 47q-20 12 -35.5 22.5t-26 22.5t-15.5 27t-5 36q0 29 14 58t61 68
q17 14 28.5 28.5t11.5 35.5q0 25 -19.5 43.5t-57.5 18.5q-21 0 -36 -5t-25.5 -12t-17.5 -14.5t-10 -11.5q-14 -20 -16.5 -44t-2.5 -38v-525h-145v539z" />
    <glyph glyph-name="agrave" unicode="&#xe0;" 
d="M368 0q-4 23 -4.5 40.5t-0.5 28.5q-21 -30 -43.5 -46.5t-42.5 -24t-37.5 -9t-27.5 -1.5q-55 0 -83 13t-43 27q-23 23 -33.5 52t-10.5 59q0 15 3.5 35.5t15 42t32.5 42.5t56 37q23 10 50.5 15.5t54.5 8.5t52 3.5t43 0.5q0 25 -1 39t-6 28q-5 13 -14 21.5t-18.5 13t-19 6
t-14.5 1.5q-16 0 -31 -7t-25 -21q-8 -13 -9.5 -24.5t-1.5 -20.5h-145q0 10 1.5 24.5t7.5 31t17 33t31 30.5q35 25 76 33t77 8q16 0 39 -2t48 -9t49.5 -19.5t43.5 -34.5q13 -15 20 -33t10.5 -35.5t4 -32t0.5 -23.5l1 -203q0 -32 2.5 -64t9.5 -64h-134zM349 238
q-36 3 -65.5 -1t-51.5 -14.5t-34 -27.5t-12 -39q0 -13 4.5 -25.5t13.5 -23t22.5 -17t31.5 -6.5q20 0 36 8.5t27 20.5q20 24 24 53.5t4 71.5zM351 585h-85l-139 145h140z" />
    <glyph glyph-name="aacute" unicode="&#xe1;" 
d="M368 0q-4 23 -4.5 40.5t-0.5 28.5q-21 -30 -43.5 -46.5t-42.5 -24t-37.5 -9t-27.5 -1.5q-55 0 -83 13t-43 27q-23 23 -33.5 52t-10.5 59q0 15 3.5 35.5t15 42t32.5 42.5t56 37q23 10 50.5 15.5t54.5 8.5t52 3.5t43 0.5q0 25 -1 39t-6 28q-5 13 -14 21.5t-18.5 13t-19 6
t-14.5 1.5q-16 0 -31 -7t-25 -21q-8 -13 -9.5 -24.5t-1.5 -20.5h-145q0 10 1.5 24.5t7.5 31t17 33t31 30.5q35 25 76 33t77 8q16 0 39 -2t48 -9t49.5 -19.5t43.5 -34.5q13 -15 20 -33t10.5 -35.5t4 -32t0.5 -23.5l1 -203q0 -32 2.5 -64t9.5 -64h-134zM349 238
q-36 3 -65.5 -1t-51.5 -14.5t-34 -27.5t-12 -39q0 -13 4.5 -25.5t13.5 -23t22.5 -17t31.5 -6.5q20 0 36 8.5t27 20.5q20 24 24 53.5t4 71.5zM291 585h-80l83 145h134z" />
    <glyph glyph-name="acircumflex" unicode="&#xe2;" 
d="M368 0q-4 23 -4.5 40.5t-0.5 28.5q-21 -30 -43.5 -46.5t-42.5 -24t-37.5 -9t-27.5 -1.5q-55 0 -83 13t-43 27q-23 23 -33.5 52t-10.5 59q0 15 3.5 35.5t15 42t32.5 42.5t56 37q23 10 50.5 15.5t54.5 8.5t52 3.5t43 0.5q0 25 -1 39t-6 28q-5 13 -14 21.5t-18.5 13t-19 6
t-14.5 1.5q-16 0 -31 -7t-25 -21q-8 -13 -9.5 -24.5t-1.5 -20.5h-145q0 10 1.5 24.5t7.5 31t17 33t31 30.5q35 25 76 33t77 8q16 0 39 -2t48 -9t49.5 -19.5t43.5 -34.5q13 -15 20 -33t10.5 -35.5t4 -32t0.5 -23.5l1 -203q0 -32 2.5 -64t9.5 -64h-134zM349 238
q-36 3 -65.5 -1t-51.5 -14.5t-34 -27.5t-12 -39q0 -13 4.5 -25.5t13.5 -23t22.5 -17t31.5 -6.5q20 0 36 8.5t27 20.5q20 24 24 53.5t4 71.5zM227 730h103l104 -145h-89l-68 85l-70 -85h-90z" />
    <glyph glyph-name="atilde" unicode="&#xe3;" 
d="M368 0q-4 23 -4.5 40.5t-0.5 28.5q-21 -30 -43.5 -46.5t-42.5 -24t-37.5 -9t-27.5 -1.5q-55 0 -83 13t-43 27q-23 23 -33.5 52t-10.5 59q0 15 3.5 35.5t15 42t32.5 42.5t56 37q23 10 50.5 15.5t54.5 8.5t52 3.5t43 0.5q0 25 -1 39t-6 28q-5 13 -14 21.5t-18.5 13t-19 6
t-14.5 1.5q-16 0 -31 -7t-25 -21q-8 -13 -9.5 -24.5t-1.5 -20.5h-145q0 10 1.5 24.5t7.5 31t17 33t31 30.5q35 25 76 33t77 8q16 0 39 -2t48 -9t49.5 -19.5t43.5 -34.5q13 -15 20 -33t10.5 -35.5t4 -32t0.5 -23.5l1 -203q0 -32 2.5 -64t9.5 -64h-134zM349 238
q-36 3 -65.5 -1t-51.5 -14.5t-34 -27.5t-12 -39q0 -13 4.5 -25.5t13.5 -23t22.5 -17t31.5 -6.5q20 0 36 8.5t27 20.5q20 24 24 53.5t4 71.5zM97 593q8 57 40.5 90t77.5 33q16 0 32 -5t18 -6l57 -22q5 -2 13 -4t21 -2q22 0 32.5 13.5t14.5 32.5h51q-3 -27 -11 -50t-29 -43
q-11 -11 -28.5 -20t-43.5 -9q-17 0 -30.5 4t-21.5 7l-43 16q-9 3 -22 6.5t-23 3.5q-13 0 -28 -8t-25 -37h-52z" />
    <glyph glyph-name="adieresis" unicode="&#xe4;" 
d="M368 0q-4 23 -4.5 40.5t-0.5 28.5q-21 -30 -43.5 -46.5t-42.5 -24t-37.5 -9t-27.5 -1.5q-55 0 -83 13t-43 27q-23 23 -33.5 52t-10.5 59q0 15 3.5 35.5t15 42t32.5 42.5t56 37q23 10 50.5 15.5t54.5 8.5t52 3.5t43 0.5q0 25 -1 39t-6 28q-5 13 -14 21.5t-18.5 13t-19 6
t-14.5 1.5q-16 0 -31 -7t-25 -21q-8 -13 -9.5 -24.5t-1.5 -20.5h-145q0 10 1.5 24.5t7.5 31t17 33t31 30.5q35 25 76 33t77 8q16 0 39 -2t48 -9t49.5 -19.5t43.5 -34.5q13 -15 20 -33t10.5 -35.5t4 -32t0.5 -23.5l1 -203q0 -32 2.5 -64t9.5 -64h-134zM349 238
q-36 3 -65.5 -1t-51.5 -14.5t-34 -27.5t-12 -39q0 -13 4.5 -25.5t13.5 -23t22.5 -17t31.5 -6.5q20 0 36 8.5t27 20.5q20 24 24 53.5t4 71.5zM311 717h102v-118h-102v118zM139 717h102v-118h-102v118z" />
    <glyph glyph-name="aring" unicode="&#xe5;" 
d="M368 0q-4 23 -4.5 40.5t-0.5 28.5q-21 -30 -43.5 -46.5t-42.5 -24t-37.5 -9t-27.5 -1.5q-55 0 -83 13t-43 27q-23 23 -33.5 52t-10.5 59q0 15 3.5 35.5t15 42t32.5 42.5t56 37q23 10 50.5 15.5t54.5 8.5t52 3.5t43 0.5q0 25 -1 39t-6 28q-5 13 -14 21.5t-18.5 13t-19 6
t-14.5 1.5q-16 0 -31 -7t-25 -21q-8 -13 -9.5 -24.5t-1.5 -20.5h-145q0 10 1.5 24.5t7.5 31t17 33t31 30.5q35 25 76 33t77 8q16 0 39 -2t48 -9t49.5 -19.5t43.5 -34.5q13 -15 20 -33t10.5 -35.5t4 -32t0.5 -23.5l1 -203q0 -32 2.5 -64t9.5 -64h-134zM349 238
q-36 3 -65.5 -1t-51.5 -14.5t-34 -27.5t-12 -39q0 -13 4.5 -25.5t13.5 -23t22.5 -17t31.5 -6.5q20 0 36 8.5t27 20.5q20 24 24 53.5t4 71.5zM278 760q22 0 40.5 -8t32 -22t21 -32.5t7.5 -39.5t-8 -39.5t-21.5 -32.5t-32 -22t-39.5 -8t-39 8t-32 21.5t-22 32.5t-8 40t8 39.5
t21.5 32.5t32 22t39.5 8zM278 712q-22 0 -37.5 -15.5t-15.5 -38.5q0 -22 15.5 -37.5t37.5 -15.5q23 0 38.5 15.5t15.5 37.5t-15.5 38t-38.5 16z" />
    <glyph glyph-name="ae" unicode="&#xe6;" horiz-adv-x="889" 
d="M838 156q-2 -18 -9.5 -46t-33.5 -59q-30 -36 -75 -51t-93 -15q-50 0 -84 11.5t-56.5 26.5t-34.5 30.5t-18 24.5q-14 -16 -31 -33t-40.5 -31.5t-55.5 -23.5t-75 -9q-50 0 -86.5 12t-60.5 33t-35.5 50t-11.5 63q0 11 2.5 29.5t11.5 39t26.5 41t47.5 35.5q24 12 54 18.5
t62 10t65 4t63 0.5q1 24 -2.5 45.5t-13 37.5t-26.5 25t-42 9q-13 0 -26.5 -3.5t-24.5 -11.5t-18.5 -21.5t-8.5 -34.5h-143q4 44 21.5 74t44.5 48.5t62 26.5t75 8q43 0 74 -9t52 -22t34 -26t20 -22q8 9 21 22.5t34 26t51 21.5t72 9q63 0 110.5 -25t76.5 -73q15 -24 23 -51
t11 -53.5t3.5 -49t0.5 -37.5h-338q0 -14 2.5 -43.5t14.5 -55.5q14 -29 38.5 -40.5t47.5 -11.5q24 0 39.5 8.5t24.5 20.5t13 25t6 22h139zM698 317q0 10 -1.5 29t-10 38t-26 33.5t-49.5 14.5q-33 0 -52.5 -14.5t-29.5 -33.5t-13 -38.5t-4 -28.5h186zM369 231q-11 2 -21.5 2
h-22.5q-11 0 -34.5 -1.5t-48 -9.5t-43 -25.5t-18.5 -50.5q0 -34 24 -52t54 -18q21 0 48 11.5t42 41.5q11 23 14.5 51t5.5 51z" />
    <glyph glyph-name="ccedilla" unicode="&#xe7;" horiz-adv-x="500" 
d="M480 183q-1 -15 -3 -33.5t-8.5 -38t-19 -39.5t-34.5 -38q-35 -29 -68.5 -37.5t-62.5 -9.5l-36 -49q8 2 15.5 3t20.5 1q25 0 41 -7.5t25.5 -18.5t13 -23.5t3.5 -22.5q0 -27 -13 -45t-32.5 -28t-41.5 -14t-39 -4q-35 0 -61 8.5t-36 13.5l21 42q18 -8 36 -13t34 -5
q26 0 41 10.5t15 27.5q0 11 -9.5 24t-35.5 13q-14 0 -23.5 -3t-16.5 -6l-21 21l53 76q-11 1 -26.5 3.5t-34 9t-39 19.5t-39.5 34q-64 73 -64 199q0 86 27.5 138t65.5 79.5t78 36t65 8.5q35 0 71.5 -10.5t66.5 -33t49 -58.5t19 -87h-145q-1 7 -3.5 22t-9 31t-19 28t-33.5 12
q-26 0 -41.5 -17.5t-23.5 -42.5t-10.5 -52.5t-2.5 -48.5q0 -11 1 -31t4.5 -43t11 -45t20.5 -36q11 -11 21.5 -14t18.5 -3q6 0 16.5 2.5t21.5 12t19.5 29t10.5 53.5h146z" />
    <glyph glyph-name="egrave" unicode="&#xe8;" 
d="M184 215q0 -12 1.5 -35t11.5 -45t30.5 -38.5t59.5 -16.5q28 0 52.5 14t35.5 56h135q-2 -19 -9.5 -48t-38.5 -62q-28 -29 -74 -44t-103 -15q-16 0 -38.5 2t-47 9t-49 19t-43.5 33q-35 36 -50 86t-15 111q0 31 4.5 64t16 64.5t32 60t52.5 50.5q29 20 64.5 31t77.5 11
q27 0 56 -6t56 -20t51 -37.5t41 -58.5q13 -26 19.5 -52t9.5 -50.5t2.5 -45.5t-1.5 -37h-339zM372 308q0 9 -1.5 27.5t-10 37.5t-26.5 33.5t-50 14.5q-24 0 -41.5 -9.5t-29 -25t-17.5 -36t-7 -42.5h183zM351 585h-85l-139 145h140z" />
    <glyph glyph-name="eacute" unicode="&#xe9;" 
d="M184 215q0 -12 1.5 -35t11.5 -45t30.5 -38.5t59.5 -16.5q28 0 52.5 14t35.5 56h135q-2 -19 -9.5 -48t-38.5 -62q-28 -29 -74 -44t-103 -15q-16 0 -38.5 2t-47 9t-49 19t-43.5 33q-35 36 -50 86t-15 111q0 31 4.5 64t16 64.5t32 60t52.5 50.5q29 20 64.5 31t77.5 11
q27 0 56 -6t56 -20t51 -37.5t41 -58.5q13 -26 19.5 -52t9.5 -50.5t2.5 -45.5t-1.5 -37h-339zM372 308q0 9 -1.5 27.5t-10 37.5t-26.5 33.5t-50 14.5q-24 0 -41.5 -9.5t-29 -25t-17.5 -36t-7 -42.5h183zM291 585h-80l83 145h134z" />
    <glyph glyph-name="ecircumflex" unicode="&#xea;" 
d="M184 215q0 -12 1.5 -35t11.5 -45t30.5 -38.5t59.5 -16.5q28 0 52.5 14t35.5 56h135q-2 -19 -9.5 -48t-38.5 -62q-28 -29 -74 -44t-103 -15q-16 0 -38.5 2t-47 9t-49 19t-43.5 33q-35 36 -50 86t-15 111q0 31 4.5 64t16 64.5t32 60t52.5 50.5q29 20 64.5 31t77.5 11
q27 0 56 -6t56 -20t51 -37.5t41 -58.5q13 -26 19.5 -52t9.5 -50.5t2.5 -45.5t-1.5 -37h-339zM372 308q0 9 -1.5 27.5t-10 37.5t-26.5 33.5t-50 14.5q-24 0 -41.5 -9.5t-29 -25t-17.5 -36t-7 -42.5h183zM227 730h103l104 -145h-89l-68 85l-70 -85h-90z" />
    <glyph glyph-name="edieresis" unicode="&#xeb;" 
d="M184 215q0 -12 1.5 -35t11.5 -45t30.5 -38.5t59.5 -16.5q28 0 52.5 14t35.5 56h135q-2 -19 -9.5 -48t-38.5 -62q-28 -29 -74 -44t-103 -15q-16 0 -38.5 2t-47 9t-49 19t-43.5 33q-35 36 -50 86t-15 111q0 31 4.5 64t16 64.5t32 60t52.5 50.5q29 20 64.5 31t77.5 11
q27 0 56 -6t56 -20t51 -37.5t41 -58.5q13 -26 19.5 -52t9.5 -50.5t2.5 -45.5t-1.5 -37h-339zM372 308q0 9 -1.5 27.5t-10 37.5t-26.5 33.5t-50 14.5q-24 0 -41.5 -9.5t-29 -25t-17.5 -36t-7 -42.5h183zM311 717h102v-118h-102v118zM139 717h102v-118h-102v118z" />
    <glyph glyph-name="igrave" unicode="&#xec;" horiz-adv-x="278" 
d="M65 506h148v-506h-148v506zM212 585h-85l-139 145h140z" />
    <glyph glyph-name="iacute" unicode="&#xed;" horiz-adv-x="278" 
d="M65 506h148v-506h-148v506zM152 585h-80l83 145h134z" />
    <glyph glyph-name="icircumflex" unicode="&#xee;" horiz-adv-x="278" 
d="M65 506h148v-506h-148v506zM88 730h103l104 -145h-89l-68 85l-70 -85h-90z" />
    <glyph glyph-name="idieresis" unicode="&#xef;" horiz-adv-x="278" 
d="M65 506h148v-506h-148v506zM172 717h102v-118h-102v118zM0 717h102v-118h-102v118z" />
    <glyph glyph-name="eth" unicode="&#xf0;" horiz-adv-x="611" 
d="M210 623q-20 10 -41 20t-57 24l79 90q29 -13 49.5 -23t35 -17.5t24 -13t16.5 -9.5l79 54l44 -34l-76 -51q27 -20 62 -51t65.5 -77t52 -109t21.5 -148q0 -62 -14.5 -115.5t-46 -92.5t-80.5 -61.5t-119 -22.5q-40 0 -85 8.5t-83 37.5q-48 35 -68 89.5t-20 114.5
q0 70 22.5 117.5t57 77t75.5 42t77 12.5q27 0 48.5 -5t38 -12.5t27.5 -15t18 -13.5q-11 18 -23.5 36t-30 37t-41.5 39t-57 42l-92 -63l-44 34zM309 81q35 0 56.5 16t33 40.5t15 53.5t3.5 55q0 19 -3 45.5t-14 50.5t-32.5 41t-58.5 17q-42 0 -64.5 -21.5t-33 -49.5t-12 -55
t-1.5 -38q0 -29 5 -57t17.5 -50t34 -35t54.5 -13z" />
    <glyph glyph-name="ntilde" unicode="&#xf1;" horiz-adv-x="611" 
d="M67 415v10.5t-0.5 23t-1 29t-1.5 29.5h142l4 -76q5 9 16 23.5t30 29t48 25t70 10.5q37 0 64 -10t45.5 -24.5t29 -31t15.5 -29.5q4 -12 7 -23.5t4.5 -28t2 -40t0.5 -59.5v-273h-151v314q0 16 -1 29.5t-7 25.5q-8 17 -25.5 30t-46.5 13q-24 0 -44.5 -10.5t-32.5 -28.5
q-7 -10 -12.5 -29t-5.5 -48v-296h-149v415zM125 593q8 57 40.5 90t77.5 33q16 0 32 -5t18 -6l57 -22q5 -2 13 -4t21 -2q22 0 32.5 13.5t14.5 32.5h51q-3 -27 -11 -50t-29 -43q-11 -11 -28.5 -20t-43.5 -9q-17 0 -30.5 4t-21.5 7l-43 16q-9 3 -22 6.5t-23 3.5q-13 0 -28 -8
t-25 -37h-52z" />
    <glyph glyph-name="ograve" unicode="&#xf2;" horiz-adv-x="611" 
d="M42 248q0 46 13 93.5t43 86.5t80 64t125 25q69 0 118.5 -21.5t81.5 -58t47 -84.5t15 -101t-15.5 -102t-48 -86.5t-82.5 -59.5t-119 -22q-54 0 -101 16.5t-82 50t-55 83.5t-20 116zM194 247q0 -85 28 -123.5t83 -38.5q24 0 44.5 8t34.5 28t22 53.5t8 83.5q0 25 -3.5 53
t-15 52t-33.5 39.5t-59 15.5q-41 0 -63 -20.5t-32 -48t-12 -56.5t-2 -46zM379 585h-85l-139 145h140z" />
    <glyph glyph-name="oacute" unicode="&#xf3;" horiz-adv-x="611" 
d="M42 248q0 46 13 93.5t43 86.5t80 64t125 25q69 0 118.5 -21.5t81.5 -58t47 -84.5t15 -101t-15.5 -102t-48 -86.5t-82.5 -59.5t-119 -22q-54 0 -101 16.5t-82 50t-55 83.5t-20 116zM194 247q0 -85 28 -123.5t83 -38.5q24 0 44.5 8t34.5 28t22 53.5t8 83.5q0 25 -3.5 53
t-15 52t-33.5 39.5t-59 15.5q-41 0 -63 -20.5t-32 -48t-12 -56.5t-2 -46zM319 585h-80l83 145h134z" />
    <glyph glyph-name="ocircumflex" unicode="&#xf4;" horiz-adv-x="611" 
d="M42 248q0 46 13 93.5t43 86.5t80 64t125 25q69 0 118.5 -21.5t81.5 -58t47 -84.5t15 -101t-15.5 -102t-48 -86.5t-82.5 -59.5t-119 -22q-54 0 -101 16.5t-82 50t-55 83.5t-20 116zM194 247q0 -85 28 -123.5t83 -38.5q24 0 44.5 8t34.5 28t22 53.5t8 83.5q0 25 -3.5 53
t-15 52t-33.5 39.5t-59 15.5q-41 0 -63 -20.5t-32 -48t-12 -56.5t-2 -46zM255 730h103l104 -145h-89l-68 85l-70 -85h-90z" />
    <glyph glyph-name="otilde" unicode="&#xf5;" horiz-adv-x="611" 
d="M42 248q0 46 13 93.5t43 86.5t80 64t125 25q69 0 118.5 -21.5t81.5 -58t47 -84.5t15 -101t-15.5 -102t-48 -86.5t-82.5 -59.5t-119 -22q-54 0 -101 16.5t-82 50t-55 83.5t-20 116zM194 247q0 -85 28 -123.5t83 -38.5q24 0 44.5 8t34.5 28t22 53.5t8 83.5q0 25 -3.5 53
t-15 52t-33.5 39.5t-59 15.5q-41 0 -63 -20.5t-32 -48t-12 -56.5t-2 -46zM125 593q8 57 40.5 90t77.5 33q16 0 32 -5t18 -6l57 -22q5 -2 13 -4t21 -2q22 0 32.5 13.5t14.5 32.5h51q-3 -27 -11 -50t-29 -43q-11 -11 -28.5 -20t-43.5 -9q-17 0 -30.5 4t-21.5 7l-43 16
q-9 3 -22 6.5t-23 3.5q-13 0 -28 -8t-25 -37h-52z" />
    <glyph glyph-name="odieresis" unicode="&#xf6;" horiz-adv-x="611" 
d="M42 248q0 46 13 93.5t43 86.5t80 64t125 25q69 0 118.5 -21.5t81.5 -58t47 -84.5t15 -101t-15.5 -102t-48 -86.5t-82.5 -59.5t-119 -22q-54 0 -101 16.5t-82 50t-55 83.5t-20 116zM194 247q0 -85 28 -123.5t83 -38.5q24 0 44.5 8t34.5 28t22 53.5t8 83.5q0 25 -3.5 53
t-15 52t-33.5 39.5t-59 15.5q-41 0 -63 -20.5t-32 -48t-12 -56.5t-2 -46zM339 717h102v-118h-102v118zM167 717h102v-118h-102v118z" />
    <glyph glyph-name="divide" unicode="&#xf7;" horiz-adv-x="584" 
d="M21 331h533v-129h-533v129zM213 151h149v-147h-149v147zM213 529h149v-147h-149v147z" />
    <glyph glyph-name="oslash" unicode="&#xf8;" horiz-adv-x="611" 
d="M581 512l-75 -78q7 -9 17 -23.5t19 -36t15 -51.5t6 -72q0 -55 -15.5 -103.5t-47 -85t-81 -57.5t-116.5 -21q-42 0 -71.5 6t-50.5 15t-34 19t-22 18l-75 -78l-41 34l80 86q-6 9 -14.5 23t-16 33.5t-12.5 45.5t-5 61q0 61 18 111t51.5 85t82 54t108.5 19q45 0 87 -10
t78 -35l74 76zM382 385q-11 12 -23.5 19t-23.5 10t-19.5 3.5t-12.5 0.5q-41 0 -63 -20.5t-32 -48t-12 -55t-2 -40.5q0 -42 4 -59zM216 135q4 -7 10 -15.5t15.5 -16t24.5 -13t36 -5.5q38 0 60 15.5t33 39.5t14 52.5t3 54.5q0 30 -2 50.5t-4 32.5z" />
    <glyph glyph-name="ugrave" unicode="&#xf9;" horiz-adv-x="611" 
d="M210 505v-301q0 -17 1 -36t8.5 -36t23.5 -28t46 -11q36 0 55 12.5t28 34t10.5 50t1.5 60.5v255h152v-333q1 -41 1.5 -65.5t1 -38t0.5 -20v-11.5q1 -11 1.5 -18.5t2.5 -18.5h-144l-5 67q-6 -8 -16.5 -21.5t-28 -26.5t-43 -22.5t-61.5 -9.5q-51 0 -91 20t-61 48
q-12 15 -19 35t-10 39t-3.5 36t-0.5 26v314h150zM379 585h-85l-139 145h140z" />
    <glyph glyph-name="uacute" unicode="&#xfa;" horiz-adv-x="611" 
d="M210 505v-301q0 -17 1 -36t8.5 -36t23.5 -28t46 -11q36 0 55 12.5t28 34t10.5 50t1.5 60.5v255h152v-333q1 -41 1.5 -65.5t1 -38t0.5 -20v-11.5q1 -11 1.5 -18.5t2.5 -18.5h-144l-5 67q-6 -8 -16.5 -21.5t-28 -26.5t-43 -22.5t-61.5 -9.5q-51 0 -91 20t-61 48
q-12 15 -19 35t-10 39t-3.5 36t-0.5 26v314h150zM319 585h-80l83 145h134z" />
    <glyph glyph-name="ucircumflex" unicode="&#xfb;" horiz-adv-x="611" 
d="M210 505v-301q0 -17 1 -36t8.5 -36t23.5 -28t46 -11q36 0 55 12.5t28 34t10.5 50t1.5 60.5v255h152v-333q1 -41 1.5 -65.5t1 -38t0.5 -20v-11.5q1 -11 1.5 -18.5t2.5 -18.5h-144l-5 67q-6 -8 -16.5 -21.5t-28 -26.5t-43 -22.5t-61.5 -9.5q-51 0 -91 20t-61 48
q-12 15 -19 35t-10 39t-3.5 36t-0.5 26v314h150zM255 730h103l104 -145h-89l-68 85l-70 -85h-90z" />
    <glyph glyph-name="udieresis" unicode="&#xfc;" horiz-adv-x="611" 
d="M210 505v-301q0 -17 1 -36t8.5 -36t23.5 -28t46 -11q36 0 55 12.5t28 34t10.5 50t1.5 60.5v255h152v-333q1 -41 1.5 -65.5t1 -38t0.5 -20v-11.5q1 -11 1.5 -18.5t2.5 -18.5h-144l-5 67q-6 -8 -16.5 -21.5t-28 -26.5t-43 -22.5t-61.5 -9.5q-51 0 -91 20t-61 48
q-12 15 -19 35t-10 39t-3.5 36t-0.5 26v314h150zM339 717h102v-118h-102v118zM167 717h102v-118h-102v118z" />
    <glyph glyph-name="yacute" unicode="&#xfd;" 
d="M174 505l111 -350l113 350h147l-191 -496l-61 -201h-149l64 190l-194 507h160zM306 585h-80l83 145h134z" />
    <glyph glyph-name="thorn" unicode="&#xfe;" horiz-adv-x="611" 
d="M192 723v-290q17 30 39.5 47t44.5 24.5t40.5 9t27.5 1.5q51 0 90 -18.5t65.5 -52t40.5 -80t14 -102.5q0 -54 -14.5 -103t-42 -86t-68.5 -58.5t-94 -21.5q-35 0 -59.5 7.5t-41.5 18t-27 21.5t-15 18v-252h-150v917h150zM296 90q35 0 56 18.5t32.5 45t15 55t3.5 48.5
q0 16 -2.5 43.5t-13 54t-31 46t-56.5 19.5q-25 0 -46.5 -11.5t-34.5 -29.5q-16 -22 -24.5 -53.5t-8.5 -77.5q0 -20 3 -47t14 -51.5t33 -42t60 -17.5z" />
    <glyph glyph-name="ydieresis" unicode="&#xff;" 
d="M174 505l111 -350l113 350h147l-191 -496l-61 -201h-149l64 190l-194 507h160zM311 717h102v-118h-102v118zM139 717h102v-118h-102v118z" />
    <glyph glyph-name="Amacron" unicode="&#x100;" horiz-adv-x="706" 
d="M450 722l251 -722h-156l-52 156h-286l-54 -156h-148l261 722h184zM454 273l-100 308l-107 -308h207zM183 812v68h342v-68h-342z" />
    <glyph glyph-name="amacron" unicode="&#x101;" 
d="M368 0q-4 23 -4.5 40.5t-0.5 28.5q-21 -30 -43.5 -46.5t-42.5 -24t-37.5 -9t-27.5 -1.5q-55 0 -83 13t-43 27q-23 23 -33.5 52t-10.5 59q0 15 3.5 35.5t15 42t32.5 42.5t56 37q23 10 50.5 15.5t54.5 8.5t52 3.5t43 0.5q0 25 -1 39t-6 28q-5 13 -14 21.5t-18.5 13t-19 6
t-14.5 1.5q-16 0 -31 -7t-25 -21q-8 -13 -9.5 -24.5t-1.5 -20.5h-145q0 10 1.5 24.5t7.5 31t17 33t31 30.5q35 25 76 33t77 8q16 0 39 -2t48 -9t49.5 -19.5t43.5 -34.5q13 -15 20 -33t10.5 -35.5t4 -32t0.5 -23.5l1 -203q0 -32 2.5 -64t9.5 -64h-134zM349 238
q-36 3 -65.5 -1t-51.5 -14.5t-34 -27.5t-12 -39q0 -13 4.5 -25.5t13.5 -23t22.5 -17t31.5 -6.5q20 0 36 8.5t27 20.5q20 24 24 53.5t4 71.5zM117 624v68h342v-68h-342z" />
    <glyph glyph-name="Abreve" unicode="&#x102;" horiz-adv-x="706" 
d="M450 722l251 -722h-156l-52 156h-286l-54 -156h-148l261 722h184zM454 273l-100 308l-107 -308h207zM262 918q4 -25 14 -40.5t22.5 -24.5t26.5 -12t26 -3q27 0 44 8.5t26.5 21t14.5 26.5t8 24h61q-2 -30 -12.5 -56t-30 -46t-47.5 -31.5t-65 -11.5q-38 0 -70 14t-52 41
q-19 24 -22.5 48.5t-4.5 41.5h61z" />
    <glyph glyph-name="abreve" unicode="&#x103;" 
d="M368 0q-4 23 -4.5 40.5t-0.5 28.5q-21 -30 -43.5 -46.5t-42.5 -24t-37.5 -9t-27.5 -1.5q-55 0 -83 13t-43 27q-23 23 -33.5 52t-10.5 59q0 15 3.5 35.5t15 42t32.5 42.5t56 37q23 10 50.5 15.5t54.5 8.5t52 3.5t43 0.5q0 25 -1 39t-6 28q-5 13 -14 21.5t-18.5 13t-19 6
t-14.5 1.5q-16 0 -31 -7t-25 -21q-8 -13 -9.5 -24.5t-1.5 -20.5h-145q0 10 1.5 24.5t7.5 31t17 33t31 30.5q35 25 76 33t77 8q16 0 39 -2t48 -9t49.5 -19.5t43.5 -34.5q13 -15 20 -33t10.5 -35.5t4 -32t0.5 -23.5l1 -203q0 -32 2.5 -64t9.5 -64h-134zM349 238
q-36 3 -65.5 -1t-51.5 -14.5t-34 -27.5t-12 -39q0 -13 4.5 -25.5t13.5 -23t22.5 -17t31.5 -6.5q20 0 36 8.5t27 20.5q20 24 24 53.5t4 71.5zM196 730q4 -25 14 -40.5t22.5 -24.5t26.5 -12t26 -3q27 0 44 8.5t26.5 21t14.5 26.5t8 24h61q-2 -30 -12.5 -56t-30 -46
t-47.5 -31.5t-65 -11.5q-38 0 -70 14t-52 41q-19 24 -22.5 48.5t-4.5 41.5h61z" />
    <glyph glyph-name="Aogonek" unicode="&#x104;" horiz-adv-x="706" 
d="M628 -191q-14 -8 -36 -17t-57 -9q-48 0 -72 21.5t-24 53.5q0 45 33 82t84 60h-11l-52 156h-286l-54 -156h-148l261 722h184l251 -722h-102q-31 -21 -52 -42.5t-21 -54.5q0 -23 8.5 -35.5t19 -18.5t20.5 -7t13 -1q15 0 24 3.5t17 8.5v-44zM454 273l-100 308l-107 -308h207
z" />
    <glyph glyph-name="aogonek" unicode="&#x105;" 
d="M477 -191q-14 -8 -36 -17t-57 -9q-48 0 -72 21.5t-24 53.5q0 45 33 82t84 60h-37q-4 23 -4.5 40.5t-0.5 28.5q-21 -30 -43.5 -46.5t-42.5 -24t-37.5 -9t-27.5 -1.5q-55 0 -83 13t-43 27q-23 23 -33.5 52t-10.5 59q0 15 3.5 35.5t15 42t32.5 42.5t56 37q23 10 50.5 15.5
t54.5 8.5t52 3.5t43 0.5q0 25 -1 39t-6 28q-5 13 -14 21.5t-18.5 13t-19 6t-14.5 1.5q-16 0 -31 -7t-25 -21q-8 -13 -9.5 -24.5t-1.5 -20.5h-145q0 10 1.5 24.5t7.5 31t17 33t31 30.5q35 25 76 33t77 8q16 0 39 -2t48 -9t49.5 -19.5t43.5 -34.5q13 -15 20 -33t10.5 -35.5
t4 -32t0.5 -23.5l1 -203q0 -32 2.5 -64t9.5 -64h-54q-31 -21 -52 -42.5t-21 -54.5q0 -23 8.5 -35.5t19 -18.5t20.5 -7t13 -1q15 0 24 3.5t17 8.5v-44zM349 238q-36 3 -65.5 -1t-51.5 -14.5t-34 -27.5t-12 -39q0 -13 4.5 -25.5t13.5 -23t22.5 -17t31.5 -6.5q20 0 36 8.5
t27 20.5q20 24 24 53.5t4 71.5z" />
    <glyph glyph-name="Cacute" unicode="&#x106;" horiz-adv-x="667" 
d="M476 497q-1 9 -4.5 30t-15.5 42.5t-35 38t-62 16.5q-43 0 -74 -21t-50.5 -57.5t-29 -85.5t-9.5 -105q0 -50 7 -96.5t24.5 -82.5t46.5 -57.5t73 -21.5q24 0 47 8t41 24.5t29.5 42.5t12.5 62h163q-1 -16 -3 -36t-8.5 -42.5t-19 -46t-34.5 -45.5q-24 -25 -52.5 -40.5
t-57.5 -24.5t-58 -12.5t-53 -3.5q-93 0 -155 33t-98.5 86.5t-51.5 120t-15 133.5q0 85 23 155.5t66 120.5t104 77.5t138 27.5q59 0 108.5 -17.5t85 -49t55.5 -75.5t20 -98h-158zM371 773h-80l83 145h134z" />
    <glyph glyph-name="cacute" unicode="&#x107;" horiz-adv-x="500" 
d="M332 326q-1 7 -3.5 22t-9 31t-19 28t-33.5 12q-26 0 -41.5 -17.5t-23.5 -42.5t-10.5 -52.5t-2.5 -48.5q0 -11 1 -31t4.5 -43t11 -45t20.5 -36q11 -11 21.5 -14t18.5 -3q6 0 16.5 2.5t21.5 12t19.5 29t10.5 53.5h146q-1 -14 -3 -32.5t-8.5 -38.5t-19 -40t-34.5 -38
q-27 -23 -61.5 -35t-82.5 -12q-51 0 -94 14t-78 53q-33 38 -48.5 88t-15.5 111q0 86 27.5 138t65.5 79.5t78 36t65 8.5q35 0 71.5 -10.5t66.5 -33t49 -58.5t19 -87h-145zM300 585h-80l83 145h134z" />
    <glyph glyph-name="Ccircumflex" unicode="&#x108;" horiz-adv-x="667" 
d="M476 497q-1 9 -4.5 30t-15.5 42.5t-35 38t-62 16.5q-43 0 -74 -21t-50.5 -57.5t-29 -85.5t-9.5 -105q0 -50 7 -96.5t24.5 -82.5t46.5 -57.5t73 -21.5q24 0 47 8t41 24.5t29.5 42.5t12.5 62h163q-1 -16 -3 -36t-8.5 -42.5t-19 -46t-34.5 -45.5q-24 -25 -52.5 -40.5
t-57.5 -24.5t-58 -12.5t-53 -3.5q-93 0 -155 33t-98.5 86.5t-51.5 120t-15 133.5q0 85 23 155.5t66 120.5t104 77.5t138 27.5q59 0 108.5 -17.5t85 -49t55.5 -75.5t20 -98h-158zM311 918h103l104 -145h-89l-68 85l-70 -85h-90z" />
    <glyph glyph-name="ccircumflex" unicode="&#x109;" horiz-adv-x="500" 
d="M332 326q-1 7 -3.5 22t-9 31t-19 28t-33.5 12q-26 0 -41.5 -17.5t-23.5 -42.5t-10.5 -52.5t-2.5 -48.5q0 -11 1 -31t4.5 -43t11 -45t20.5 -36q11 -11 21.5 -14t18.5 -3q6 0 16.5 2.5t21.5 12t19.5 29t10.5 53.5h146q-1 -14 -3 -32.5t-8.5 -38.5t-19 -40t-34.5 -38
q-27 -23 -61.5 -35t-82.5 -12q-51 0 -94 14t-78 53q-33 38 -48.5 88t-15.5 111q0 86 27.5 138t65.5 79.5t78 36t65 8.5q35 0 71.5 -10.5t66.5 -33t49 -58.5t19 -87h-145zM220 730h103l104 -145h-89l-68 85l-70 -85h-90z" />
    <glyph glyph-name="Cdotaccent" unicode="&#x10a;" horiz-adv-x="667" 
d="M476 497q-1 9 -4.5 30t-15.5 42.5t-35 38t-62 16.5q-43 0 -74 -21t-50.5 -57.5t-29 -85.5t-9.5 -105q0 -50 7 -96.5t24.5 -82.5t46.5 -57.5t73 -21.5q24 0 47 8t41 24.5t29.5 42.5t12.5 62h163q-1 -16 -3 -36t-8.5 -42.5t-19 -46t-34.5 -45.5q-24 -25 -52.5 -40.5
t-57.5 -24.5t-58 -12.5t-53 -3.5q-93 0 -155 33t-98.5 86.5t-51.5 120t-15 133.5q0 85 23 155.5t66 120.5t104 77.5t138 27.5q59 0 108.5 -17.5t85 -49t55.5 -75.5t20 -98h-158zM304 905h102v-118h-102v118z" />
    <glyph glyph-name="cdotaccent" unicode="&#x10b;" horiz-adv-x="500" 
d="M332 326q-1 7 -3.5 22t-9 31t-19 28t-33.5 12q-26 0 -41.5 -17.5t-23.5 -42.5t-10.5 -52.5t-2.5 -48.5q0 -11 1 -31t4.5 -43t11 -45t20.5 -36q11 -11 21.5 -14t18.5 -3q6 0 16.5 2.5t21.5 12t19.5 29t10.5 53.5h146q-1 -14 -3 -32.5t-8.5 -38.5t-19 -40t-34.5 -38
q-27 -23 -61.5 -35t-82.5 -12q-51 0 -94 14t-78 53q-33 38 -48.5 88t-15.5 111q0 86 27.5 138t65.5 79.5t78 36t65 8.5q35 0 71.5 -10.5t66.5 -33t49 -58.5t19 -87h-145zM218 717h102v-118h-102v118z" />
    <glyph glyph-name="Ccaron" unicode="&#x10c;" horiz-adv-x="667" 
d="M476 497q-1 9 -4.5 30t-15.5 42.5t-35 38t-62 16.5q-43 0 -74 -21t-50.5 -57.5t-29 -85.5t-9.5 -105q0 -50 7 -96.5t24.5 -82.5t46.5 -57.5t73 -21.5q24 0 47 8t41 24.5t29.5 42.5t12.5 62h163q-1 -16 -3 -36t-8.5 -42.5t-19 -46t-34.5 -45.5q-24 -25 -52.5 -40.5
t-57.5 -24.5t-58 -12.5t-53 -3.5q-93 0 -155 33t-98.5 86.5t-51.5 120t-15 133.5q0 85 23 155.5t66 120.5t104 77.5t138 27.5q59 0 108.5 -17.5t85 -49t55.5 -75.5t20 -98h-158zM520 918l-106 -145h-117l-104 145h94l70 -91l70 91h93z" />
    <glyph glyph-name="ccaron" unicode="&#x10d;" horiz-adv-x="500" 
d="M332 326q-1 7 -3.5 22t-9 31t-19 28t-33.5 12q-26 0 -41.5 -17.5t-23.5 -42.5t-10.5 -52.5t-2.5 -48.5q0 -11 1 -31t4.5 -43t11 -45t20.5 -36q11 -11 21.5 -14t18.5 -3q6 0 16.5 2.5t21.5 12t19.5 29t10.5 53.5h146q-1 -14 -3 -32.5t-8.5 -38.5t-19 -40t-34.5 -38
q-27 -23 -61.5 -35t-82.5 -12q-51 0 -94 14t-78 53q-33 38 -48.5 88t-15.5 111q0 86 27.5 138t65.5 79.5t78 36t65 8.5q35 0 71.5 -10.5t66.5 -33t49 -58.5t19 -87h-145zM436 730l-106 -145h-117l-104 145h94l70 -91l70 91h93z" />
    <glyph glyph-name="Dcaron" unicode="&#x10e;" horiz-adv-x="722" 
d="M65 722h239q15 0 43.5 -1.5t63 -8t72 -20t70.5 -37.5q34 -25 57.5 -58t38 -70.5t21 -77t6.5 -78.5q0 -83 -20.5 -146.5t-56 -108.5t-82 -72t-97.5 -36q-20 -4 -48 -6t-82 -2h-225v722zM222 119q13 -1 30 -1.5t31 -0.5q51 0 92.5 8t75.5 42q23 23 36 52.5t19.5 59t8 54.5
t1.5 38q0 38 -7 74t-22.5 65.5t-41 51.5t-61.5 32q-12 3 -26.5 5.5t-33.5 4t-44 1.5t-58 -1v-485zM501 918l-106 -145h-117l-104 145h94l70 -91l70 91h93z" />
    <glyph glyph-name="dcaron" unicode="&#x10f;" horiz-adv-x="611" 
d="M399 722h149v-640q0 -23 1 -45.5t3 -36.5h-150l-4 73q-8 -14 -18 -28t-33 -29q-28 -18 -54.5 -22t-43.5 -4q-103 0 -159 65.5t-56 185.5q0 63 16.5 113t45.5 85t70 54t91 19q34 0 58.5 -8.5t41.5 -19.5t27 -22.5t15 -18.5v279zM184 245q0 -32 5.5 -60.5t17.5 -50.5
t31.5 -35t47.5 -13q32 0 57 17t37 40q17 32 20.5 66t3.5 53q0 75 -29.5 114t-80.5 39q-37 0 -59 -19.5t-33 -46.5t-14.5 -56t-3.5 -48zM725 722l-79 -159h-67l40 159h106z" />
    <glyph glyph-name="Dcroat" unicode="&#x110;" horiz-adv-x="722" 
d="M65 353h-65v87h65v282h239q15 0 43.5 -1.5t63 -8t72 -20t70.5 -37.5q34 -25 57.5 -58t38 -70.5t21 -77t6.5 -78.5q0 -83 -20.5 -146.5t-56 -108.5t-82 -72t-97.5 -36q-20 -4 -48 -6t-82 -2h-225v353zM222 119q13 -1 30 -1.5t31 -0.5q51 0 92.5 8t75.5 42q23 23 36 52.5
t19.5 59t8 54.5t1.5 38q0 38 -7 74t-22.5 65.5t-41 51.5t-61.5 32q-12 3 -26.5 5.5t-33.5 4t-44 1.5t-58 -1v-164h145v-87h-145v-234z" />
    <glyph glyph-name="dcroat" unicode="&#x111;" horiz-adv-x="611" 
d="M548 568v-486q0 -23 1 -45.5t3 -36.5h-150l-4 73q-8 -14 -18 -28t-33 -29q-28 -18 -54.5 -22t-43.5 -4q-103 0 -159 65.5t-56 185.5q0 63 16.5 113t45.5 85t70 54t91 19q34 0 58.5 -8.5t41.5 -19.5t27 -22.5t15 -18.5v125h-141v53h141v101h149v-101h55v-53h-55zM184 245
q0 -32 5.5 -60.5t17.5 -50.5t31.5 -35t47.5 -13q32 0 57 17t37 40q17 32 20.5 66t3.5 53q0 75 -29.5 114t-80.5 39q-37 0 -59 -19.5t-33 -46.5t-14.5 -56t-3.5 -48z" />
    <glyph glyph-name="Emacron" unicode="&#x112;" horiz-adv-x="603" 
d="M66 722h484v-117h-329v-172h308v-118h-308v-195h340v-120h-495v722zM140 812v68h342v-68h-342z" />
    <glyph glyph-name="emacron" unicode="&#x113;" 
d="M184 215q0 -12 1.5 -35t11.5 -45t30.5 -38.5t59.5 -16.5q28 0 52.5 14t35.5 56h135q-2 -19 -9.5 -48t-38.5 -62q-28 -29 -74 -44t-103 -15q-16 0 -38.5 2t-47 9t-49 19t-43.5 33q-35 36 -50 86t-15 111q0 31 4.5 64t16 64.5t32 60t52.5 50.5q29 20 64.5 31t77.5 11
q27 0 56 -6t56 -20t51 -37.5t41 -58.5q13 -26 19.5 -52t9.5 -50.5t2.5 -45.5t-1.5 -37h-339zM372 308q0 9 -1.5 27.5t-10 37.5t-26.5 33.5t-50 14.5q-24 0 -41.5 -9.5t-29 -25t-17.5 -36t-7 -42.5h183zM117 624v68h342v-68h-342z" />
    <glyph glyph-name="Ebreve" unicode="&#x114;" horiz-adv-x="603" 
d="M66 722h484v-117h-329v-172h308v-118h-308v-195h340v-120h-495v722zM223 918q4 -25 14 -40.5t22.5 -24.5t26.5 -12t26 -3q27 0 44 8.5t26.5 21t14.5 26.5t8 24h61q-2 -30 -12.5 -56t-30 -46t-47.5 -31.5t-65 -11.5q-38 0 -70 14t-52 41q-19 24 -22.5 48.5t-4.5 41.5h61z
" />
    <glyph glyph-name="ebreve" unicode="&#x115;" 
d="M184 215q0 -12 1.5 -35t11.5 -45t30.5 -38.5t59.5 -16.5q28 0 52.5 14t35.5 56h135q-2 -19 -9.5 -48t-38.5 -62q-28 -29 -74 -44t-103 -15q-16 0 -38.5 2t-47 9t-49 19t-43.5 33q-35 36 -50 86t-15 111q0 31 4.5 64t16 64.5t32 60t52.5 50.5q29 20 64.5 31t77.5 11
q27 0 56 -6t56 -20t51 -37.5t41 -58.5q13 -26 19.5 -52t9.5 -50.5t2.5 -45.5t-1.5 -37h-339zM372 308q0 9 -1.5 27.5t-10 37.5t-26.5 33.5t-50 14.5q-24 0 -41.5 -9.5t-29 -25t-17.5 -36t-7 -42.5h183zM194 730q4 -25 14 -40.5t22.5 -24.5t26.5 -12t26 -3q27 0 44 8.5
t26.5 21t14.5 26.5t8 24h61q-2 -30 -12.5 -56t-30 -46t-47.5 -31.5t-65 -11.5q-38 0 -70 14t-52 41q-19 24 -22.5 48.5t-4.5 41.5h61z" />
    <glyph glyph-name="Edotaccent" unicode="&#x116;" horiz-adv-x="603" 
d="M66 722h484v-117h-329v-172h308v-118h-308v-195h340v-120h-495v722zM271 905h102v-118h-102v118z" />
    <glyph glyph-name="edotaccent" unicode="&#x117;" 
d="M184 215q0 -12 1.5 -35t11.5 -45t30.5 -38.5t59.5 -16.5q28 0 52.5 14t35.5 56h135q-2 -19 -9.5 -48t-38.5 -62q-28 -29 -74 -44t-103 -15q-16 0 -38.5 2t-47 9t-49 19t-43.5 33q-35 36 -50 86t-15 111q0 31 4.5 64t16 64.5t32 60t52.5 50.5q29 20 64.5 31t77.5 11
q27 0 56 -6t56 -20t51 -37.5t41 -58.5q13 -26 19.5 -52t9.5 -50.5t2.5 -45.5t-1.5 -37h-339zM372 308q0 9 -1.5 27.5t-10 37.5t-26.5 33.5t-50 14.5q-24 0 -41.5 -9.5t-29 -25t-17.5 -36t-7 -42.5h183zM241 717h102v-118h-102v118z" />
    <glyph glyph-name="Eogonek" unicode="&#x118;" horiz-adv-x="603" 
d="M66 722h484v-117h-329v-172h308v-118h-308v-195h340v-120h-38q-31 -21 -52 -42.5t-21 -54.5q0 -23 8.5 -35.5t19 -18.5t20.5 -7t13 -1q15 0 24 3.5t17 8.5v-44q-14 -8 -36 -17t-57 -9q-48 0 -72 21.5t-24 53.5q0 45 33 82t84 60h-414v722z" />
    <glyph glyph-name="eogonek" unicode="&#x119;" 
d="M401 -191q-14 -8 -36 -17t-57 -9q-48 0 -72 21.5t-24 53.5q0 36 22.5 68t59.5 55h-9q-16 0 -38.5 2t-47 9t-49 19t-43.5 33q-35 36 -50 86t-15 111q0 31 4.5 64t16 64.5t32 60t52.5 50.5q29 20 64.5 31t77.5 11q27 0 56 -6t56 -20t51 -37.5t41 -58.5q13 -26 19.5 -52
t9.5 -50.5t2.5 -45.5t-1.5 -37h-339q0 -12 1.5 -35t11.5 -45t30.5 -38.5t59.5 -16.5q28 0 52.5 14t35.5 56h135q-2 -19 -9.5 -48t-38.5 -62q-19 -20 -46.5 -32.5t-60.5 -19.5q-25 -18 -40.5 -37.5t-15.5 -47.5q0 -23 8.5 -35.5t19 -18.5t20.5 -7t13 -1q15 0 24 3.5t17 8.5
v-44zM372 308q0 9 -1.5 27.5t-10 37.5t-26.5 33.5t-50 14.5q-24 0 -41.5 -9.5t-29 -25t-17.5 -36t-7 -42.5h183z" />
    <glyph glyph-name="Ecaron" unicode="&#x11a;" horiz-adv-x="603" 
d="M66 722h484v-117h-329v-172h308v-118h-308v-195h340v-120h-495v722zM479 918l-106 -145h-117l-104 145h94l70 -91l70 91h93z" />
    <glyph glyph-name="ecaron" unicode="&#x11b;" 
d="M184 215q0 -12 1.5 -35t11.5 -45t30.5 -38.5t59.5 -16.5q28 0 52.5 14t35.5 56h135q-2 -19 -9.5 -48t-38.5 -62q-28 -29 -74 -44t-103 -15q-16 0 -38.5 2t-47 9t-49 19t-43.5 33q-35 36 -50 86t-15 111q0 31 4.5 64t16 64.5t32 60t52.5 50.5q29 20 64.5 31t77.5 11
q27 0 56 -6t56 -20t51 -37.5t41 -58.5q13 -26 19.5 -52t9.5 -50.5t2.5 -45.5t-1.5 -37h-339zM372 308q0 9 -1.5 27.5t-10 37.5t-26.5 33.5t-50 14.5q-24 0 -41.5 -9.5t-29 -25t-17.5 -36t-7 -42.5h183zM454 730l-106 -145h-117l-104 145h94l70 -91l70 91h93z" />
    <glyph glyph-name="Gcircumflex" unicode="&#x11c;" horiz-adv-x="778" 
d="M554 495q-1 14 -3.5 33t-16.5 40q-11 18 -26.5 29t-32 17t-33 8t-29.5 2q-66 0 -107 -26.5t-64.5 -66.5t-31.5 -87t-8 -89q0 -18 2 -43t8 -51.5t18 -52.5t32 -47q27 -30 66 -46t104 -16q28 0 47.5 1.5t33 3.5t22.5 4.5t15 4.5v152h-140v120h295v-361q-17 -6 -40 -13
t-54.5 -13t-73.5 -10t-96 -4q-62 0 -109.5 7t-84.5 20t-64.5 30.5t-48.5 38.5q-30 30 -49 65t-29.5 71t-14 70.5t-3.5 63.5q0 96 28.5 168.5t79 121t120 73t151.5 24.5q70 0 136.5 -21t109.5 -70q18 -21 28 -41.5t15.5 -40t7 -37t1.5 -32.5h-161zM351 918h103l104 -145h-89
l-68 85l-70 -85h-90z" />
    <glyph glyph-name="gcircumflex" unicode="&#x11d;" horiz-adv-x="611" 
d="M544 503q-3 -30 -5 -58.5t-2 -66.5v-373q0 -70 -25.5 -110.5t-64 -61.5t-82.5 -26.5t-80 -5.5q-27 0 -64 4t-71 20t-59 48.5t-28 89.5h142q1 -6 3.5 -17.5t11.5 -23t26 -20.5t47 -9q33 0 58.5 16t33.5 50q2 9 3.5 18t2 22t1 32t0.5 48q-18 -23 -36.5 -37t-36 -21
t-33.5 -9t-30 -2q-54 0 -94.5 21.5t-66.5 56.5t-39 79.5t-13 90.5q0 48 13.5 93t40.5 80t67.5 56t94.5 21q35 0 59 -8t40.5 -19.5t26 -24t15.5 -20.5l5 67h139zM191 258q0 -9 1.5 -33.5t11 -49.5t29.5 -44.5t57 -19.5q39 0 60 19.5t31 44.5t11.5 48.5t1.5 31.5q0 21 -3 48
t-13.5 50.5t-30.5 39.5t-54 16q-42 0 -72 -35t-30 -116zM254 730h103l104 -145h-89l-68 85l-70 -85h-90z" />
    <glyph glyph-name="Gbreve" unicode="&#x11e;" horiz-adv-x="778" 
d="M554 495q-1 14 -3.5 33t-16.5 40q-11 18 -26.5 29t-32 17t-33 8t-29.5 2q-66 0 -107 -26.5t-64.5 -66.5t-31.5 -87t-8 -89q0 -18 2 -43t8 -51.5t18 -52.5t32 -47q27 -30 66 -46t104 -16q28 0 47.5 1.5t33 3.5t22.5 4.5t15 4.5v152h-140v120h295v-361q-17 -6 -40 -13
t-54.5 -13t-73.5 -10t-96 -4q-62 0 -109.5 7t-84.5 20t-64.5 30.5t-48.5 38.5q-30 30 -49 65t-29.5 71t-14 70.5t-3.5 63.5q0 96 28.5 168.5t79 121t120 73t151.5 24.5q70 0 136.5 -21t109.5 -70q18 -21 28 -41.5t15.5 -40t7 -37t1.5 -32.5h-161zM310 918q4 -25 14 -40.5
t22.5 -24.5t26.5 -12t26 -3q27 0 44 8.5t26.5 21t14.5 26.5t8 24h61q-2 -30 -12.5 -56t-30 -46t-47.5 -31.5t-65 -11.5q-38 0 -70 14t-52 41q-19 24 -22.5 48.5t-4.5 41.5h61z" />
    <glyph glyph-name="gbreve" unicode="&#x11f;" horiz-adv-x="611" 
d="M544 503q-3 -30 -5 -58.5t-2 -66.5v-373q0 -70 -25.5 -110.5t-64 -61.5t-82.5 -26.5t-80 -5.5q-27 0 -64 4t-71 20t-59 48.5t-28 89.5h142q1 -6 3.5 -17.5t11.5 -23t26 -20.5t47 -9q33 0 58.5 16t33.5 50q2 9 3.5 18t2 22t1 32t0.5 48q-18 -23 -36.5 -37t-36 -21
t-33.5 -9t-30 -2q-54 0 -94.5 21.5t-66.5 56.5t-39 79.5t-13 90.5q0 48 13.5 93t40.5 80t67.5 56t94.5 21q35 0 59 -8t40.5 -19.5t26 -24t15.5 -20.5l5 67h139zM191 258q0 -9 1.5 -33.5t11 -49.5t29.5 -44.5t57 -19.5q39 0 60 19.5t31 44.5t11.5 48.5t1.5 31.5q0 21 -3 48
t-13.5 50.5t-30.5 39.5t-54 16q-42 0 -72 -35t-30 -116zM221 730q4 -25 14 -40.5t22.5 -24.5t26.5 -12t26 -3q27 0 44 8.5t26.5 21t14.5 26.5t8 24h61q-2 -30 -12.5 -56t-30 -46t-47.5 -31.5t-65 -11.5q-38 0 -70 14t-52 41q-19 24 -22.5 48.5t-4.5 41.5h61z" />
    <glyph glyph-name="Gdotaccent" unicode="&#x120;" horiz-adv-x="778" 
d="M554 495q-1 14 -3.5 33t-16.5 40q-11 18 -26.5 29t-32 17t-33 8t-29.5 2q-66 0 -107 -26.5t-64.5 -66.5t-31.5 -87t-8 -89q0 -18 2 -43t8 -51.5t18 -52.5t32 -47q27 -30 66 -46t104 -16q28 0 47.5 1.5t33 3.5t22.5 4.5t15 4.5v152h-140v120h295v-361q-17 -6 -40 -13
t-54.5 -13t-73.5 -10t-96 -4q-62 0 -109.5 7t-84.5 20t-64.5 30.5t-48.5 38.5q-30 30 -49 65t-29.5 71t-14 70.5t-3.5 63.5q0 96 28.5 168.5t79 121t120 73t151.5 24.5q70 0 136.5 -21t109.5 -70q18 -21 28 -41.5t15.5 -40t7 -37t1.5 -32.5h-161zM362 905h102v-118h-102v118
z" />
    <glyph glyph-name="gdotaccent" unicode="&#x121;" horiz-adv-x="611" 
d="M544 503q-3 -30 -5 -58.5t-2 -66.5v-373q0 -70 -25.5 -110.5t-64 -61.5t-82.5 -26.5t-80 -5.5q-27 0 -64 4t-71 20t-59 48.5t-28 89.5h142q1 -6 3.5 -17.5t11.5 -23t26 -20.5t47 -9q33 0 58.5 16t33.5 50q2 9 3.5 18t2 22t1 32t0.5 48q-18 -23 -36.5 -37t-36 -21
t-33.5 -9t-30 -2q-54 0 -94.5 21.5t-66.5 56.5t-39 79.5t-13 90.5q0 48 13.5 93t40.5 80t67.5 56t94.5 21q35 0 59 -8t40.5 -19.5t26 -24t15.5 -20.5l5 67h139zM191 258q0 -9 1.5 -33.5t11 -49.5t29.5 -44.5t57 -19.5q39 0 60 19.5t31 44.5t11.5 48.5t1.5 31.5q0 21 -3 48
t-13.5 50.5t-30.5 39.5t-54 16q-42 0 -72 -35t-30 -116zM252 717h102v-118h-102v118z" />
    <glyph glyph-name="Gcommaaccent" unicode="&#x122;" horiz-adv-x="778" 
d="M554 495q-1 14 -3.5 33t-16.5 40q-11 18 -26.5 29t-32 17t-33 8t-29.5 2q-66 0 -107 -26.5t-64.5 -66.5t-31.5 -87t-8 -89q0 -18 2 -43t8 -51.5t18 -52.5t32 -47q27 -30 66 -46t104 -16q28 0 47.5 1.5t33 3.5t22.5 4.5t15 4.5v152h-140v120h295v-361q-17 -6 -40 -13
t-54.5 -13t-73.5 -10t-96 -4q-62 0 -109.5 7t-84.5 20t-64.5 30.5t-48.5 38.5q-30 30 -49 65t-29.5 71t-14 70.5t-3.5 63.5q0 96 28.5 168.5t79 121t120 73t151.5 24.5q70 0 136.5 -21t109.5 -70q18 -21 28 -41.5t15.5 -40t7 -37t1.5 -32.5h-161zM483 -66l-79 -159h-67
l40 159h106z" />
    <glyph glyph-name="gcommaaccent" unicode="&#x123;" horiz-adv-x="611" 
d="M544 503q-3 -30 -5 -58.5t-2 -66.5v-373q0 -70 -25.5 -110.5t-64 -61.5t-82.5 -26.5t-80 -5.5q-27 0 -64 4t-71 20t-59 48.5t-28 89.5h142q1 -6 3.5 -17.5t11.5 -23t26 -20.5t47 -9q33 0 58.5 16t33.5 50q2 9 3.5 18t2 22t1 32t0.5 48q-18 -23 -36.5 -37t-36 -21
t-33.5 -9t-30 -2q-54 0 -94.5 21.5t-66.5 56.5t-39 79.5t-13 90.5q0 48 13.5 93t40.5 80t67.5 56t94.5 21q35 0 59 -8t40.5 -19.5t26 -24t15.5 -20.5l5 67h139zM191 258q0 -9 1.5 -33.5t11 -49.5t29.5 -44.5t57 -19.5q39 0 60 19.5t31 44.5t11.5 48.5t1.5 31.5q0 21 -3 48
t-13.5 50.5t-30.5 39.5t-54 16q-42 0 -72 -35t-30 -116zM243 585l79 159h67l-40 -159h-106z" />
    <glyph glyph-name="Hcircumflex" unicode="&#x124;" horiz-adv-x="719" 
d="M67 722h155v-288h273v288h157v-722h-155v317h-275v-317h-155v722zM314 918h103l104 -145h-89l-68 85l-70 -85h-90z" />
    <glyph glyph-name="hcircumflex" unicode="&#x125;" horiz-adv-x="611" 
d="M69 722h147v-286q6 9 16.5 22t28 25t42 20.5t59.5 8.5q28 0 51 -6.5t41.5 -16t32 -21.5t22.5 -24q14 -19 23.5 -52.5t9.5 -84.5v-307h-147v302q0 11 -1.5 29.5t-9 36.5t-24.5 31t-48 13q-16 0 -32.5 -5t-30.5 -17t-23 -31.5t-9 -49.5l1 -309h-149v722zM127 906h103
l104 -145h-89l-68 85l-70 -85h-90z" />
    <glyph glyph-name="Hbar" unicode="&#x126;" horiz-adv-x="722" 
d="M67 722h155v-115h273v115h157v-722h-155v317h-275v-317h-155v722zM495 434v105h-273v-105h273z" />
    <glyph glyph-name="hbar" unicode="&#x127;" horiz-adv-x="611" 
d="M69 568h-55v53h55v101h147v-101h143v-53h-143v-132q6 9 16.5 22t28 25t42 20.5t59.5 8.5q28 0 51 -6.5t41.5 -16t32 -21.5t22.5 -24q14 -19 23.5 -52.5t9.5 -84.5v-307h-147v302q0 11 -1.5 29.5t-9 36.5t-24.5 31t-48 13q-16 0 -32.5 -5t-30.5 -17t-23 -31.5t-9 -49.5
l1 -309h-149v568z" />
    <glyph glyph-name="Itilde" unicode="&#x128;" horiz-adv-x="289" 
d="M67 722h155v-722h-155v722zM-41 781q8 57 40.5 90t77.5 33q16 0 32 -5t18 -6l57 -22q5 -2 13 -4t21 -2q22 0 32.5 13.5t14.5 32.5h51q-3 -27 -11 -50t-29 -43q-11 -11 -28.5 -20t-43.5 -9q-17 0 -30.5 4t-21.5 7l-43 16q-9 3 -22 6.5t-23 3.5q-13 0 -28 -8t-25 -37h-52z
" />
    <glyph glyph-name="itilde" unicode="&#x129;" horiz-adv-x="278" 
d="M65 506h148v-506h-148v506zM-38 593q8 57 40.5 90t77.5 33q16 0 32 -5t18 -6l57 -22q5 -2 13 -4t21 -2q22 0 32.5 13.5t14.5 32.5h51q-3 -27 -11 -50t-29 -43q-11 -11 -28.5 -20t-43.5 -9q-17 0 -30.5 4t-21.5 7l-43 16q-9 3 -22 6.5t-23 3.5q-13 0 -28 -8t-25 -37h-52z
" />
    <glyph glyph-name="Imacron" unicode="&#x12a;" horiz-adv-x="289" 
d="M67 722h155v-722h-155v722zM-28 812v68h342v-68h-342z" />
    <glyph glyph-name="imacron" unicode="&#x12b;" horiz-adv-x="278" 
d="M65 506h148v-506h-148v506zM-30 624v68h342v-68h-342z" />
    <glyph glyph-name="Iogonek" unicode="&#x12e;" horiz-adv-x="289" 
d="M67 722h155v-722h-37q-31 -21 -52 -42.5t-21 -54.5q0 -23 8.5 -35.5t19 -18.5t20.5 -7t13 -1q15 0 24 3.5t17 8.5v-44q-14 -8 -36 -17t-57 -9q-48 0 -72 21.5t-24 53.5q0 45 33 82t84 60h-75v722z" />
    <glyph glyph-name="iogonek" unicode="&#x12f;" horiz-adv-x="278" 
d="M65 506h148v-506h-46q-31 -21 -52 -42.5t-21 -54.5q0 -23 8.5 -35.5t19 -18.5t20.5 -7t13 -1q15 0 24 3.5t17 8.5v-44q-14 -8 -36 -17t-57 -9q-48 0 -72 21.5t-24 53.5q0 45 33 82t84 60h-59v506zM60 722h158v-129h-158v129z" />
    <glyph glyph-name="Idotaccent" unicode="&#x130;" horiz-adv-x="289" 
d="M67 722h155v-722h-155v722zM95 905h102v-118h-102v118z" />
    <glyph glyph-name="dotlessi" unicode="&#x131;" horiz-adv-x="278" 
d="M65 506h148v-506h-148v506z" />
    <glyph glyph-name="IJ" unicode="&#x132;" horiz-adv-x="822" 
d="M61 722h155v-722h-155v722zM427 234q2 -60 19.5 -94t65.5 -34q22 0 36.5 7t23.5 16.5t13 20t6 17.5q5 23 5.5 53.5t0.5 59.5v442h157v-443q0 -42 -4.5 -79t-17 -69t-34.5 -59t-56 -48q-21 -13 -53.5 -22t-86.5 -9q-60 0 -107 17t-82 71q-13 20 -20.5 41t-11.5 41.5
t-5 38.5t-1 32h152z" />
    <glyph glyph-name="ij" unicode="&#x133;" horiz-adv-x="549" 
d="M60 722h158v-129h-158v129zM65 506h148v-506h-148v506zM269 -94q25 -1 38.5 8.5t20 23.5t7.5 29t1 25v515h148v-552q0 -36 -8 -64t-27 -48t-51 -30.5t-79 -10.5q-6 0 -19.5 0.5t-30.5 3.5v100zM331 722h158v-129h-158v129z" />
    <glyph glyph-name="Jcircumflex" unicode="&#x134;" horiz-adv-x="548" 
d="M161 234q2 -60 19.5 -94t65.5 -34q22 0 36.5 7t23.5 16.5t13 20t6 17.5q5 23 5.5 53.5t0.5 59.5v442h157v-443q0 -42 -4.5 -79t-17 -69t-34.5 -59t-56 -48q-21 -13 -53.5 -22t-86.5 -9q-60 0 -107 17t-82 71q-13 20 -20.5 41t-11.5 41.5t-5 38.5t-1 32h152zM353 918h103
l104 -145h-89l-68 85l-70 -85h-90z" />
    <glyph glyph-name="jcircumflex" unicode="&#x135;" horiz-adv-x="278" 
d="M-2 -94q25 -1 38.5 8.5t20 23.5t7.5 29t1 25v515h148v-552q0 -36 -8 -64t-27 -48t-51 -30.5t-79 -10.5q-6 0 -19.5 0.5t-30.5 3.5v100zM89 730h103l104 -145h-89l-68 85l-70 -85h-90z" />
    <glyph glyph-name="Kcommaaccent" unicode="&#x136;" horiz-adv-x="667" 
d="M67 722h155v-312l242 312h181l-265 -323l288 -399h-193l-253 368v-368h-155v722zM388 -66l-79 -159h-67l40 159h106z" />
    <glyph glyph-name="kcommaaccent" unicode="&#x137;" 
d="M67 722h147v-425l153 211h167l-173 -220l184 -288h-175l-156 275v-275h-147v722zM336 -66l-79 -159h-67l40 159h106z" />
    <glyph glyph-name="Lacute" unicode="&#x139;" 
d="M69 722h158v-599h310v-123h-468v722zM180 773h-80l83 145h134z" />
    <glyph glyph-name="lacute" unicode="&#x13a;" horiz-adv-x="278" 
d="M65 722h148v-722h-148v722zM146 758h-80l83 145h134z" />
    <glyph glyph-name="Lcommaaccent" unicode="&#x13b;" 
d="M69 722h158v-599h310v-123h-468v722zM354 -66l-79 -159h-67l40 159h106z" />
    <glyph glyph-name="lcommaaccent" unicode="&#x13c;" horiz-adv-x="278" 
d="M65 722h148v-722h-148v722zM196 -66l-79 -159h-67l40 159h106z" />
    <glyph glyph-name="Lcaron" unicode="&#x13d;" 
d="M69 722h158v-599h310v-123h-468v722zM514 722l-79 -159h-67l40 159h106z" />
    <glyph glyph-name="lcaron" unicode="&#x13e;" horiz-adv-x="278" 
d="M65 722h148v-722h-148v722zM392 722l-79 -159h-67l40 159h106z" />
    <glyph glyph-name="Ldot" unicode="&#x13f;" 
d="M69 722h158v-599h310v-123h-468v722zM378 492h102v-118h-102v118z" />
    <glyph glyph-name="ldot" unicode="&#x140;" horiz-adv-x="389" 
d="M65 722h148v-722h-148v722zM271 450h102v-118h-102v118z" />
    <glyph glyph-name="Lslash" unicode="&#x141;" 
d="M69 289l-66 -38v101l67 40l-1 330h158v-241l175 102v-104l-175 -101v-255h310v-123h-468v289z" />
    <glyph glyph-name="lslash" unicode="&#x142;" horiz-adv-x="278" 
d="M65 293l-53 -32v103l53 33v325h148v-235l53 33v-105l-53 -32v-383h-148v293z" />
    <glyph glyph-name="Nacute" unicode="&#x143;" horiz-adv-x="773" 
d="M67 722h224l271 -568v568h144v-722h-213l-280 600v-600h-146v722zM410 773h-80l83 145h134z" />
    <glyph glyph-name="nacute" unicode="&#x144;" horiz-adv-x="611" 
d="M67 415v10.5t-0.5 23t-1 29t-1.5 29.5h142l4 -76q5 9 16 23.5t30 29t48 25t70 10.5q37 0 64 -10t45.5 -24.5t29 -31t15.5 -29.5q4 -12 7 -23.5t4.5 -28t2 -40t0.5 -59.5v-273h-151v314q0 16 -1 29.5t-7 25.5q-8 17 -25.5 30t-46.5 13q-24 0 -44.5 -10.5t-32.5 -28.5
q-7 -10 -12.5 -29t-5.5 -48v-296h-149v415zM340 585h-80l83 145h134z" />
    <glyph glyph-name="Ncommaaccent" unicode="&#x145;" horiz-adv-x="773" 
d="M67 722h224l271 -568v568h144v-722h-213l-280 600v-600h-146v722zM436 -66l-79 -159h-67l40 159h106z" />
    <glyph glyph-name="ncommaaccent" unicode="&#x146;" horiz-adv-x="611" 
d="M67 415v10.5t-0.5 23t-1 29t-1.5 29.5h142l4 -76q5 9 16 23.5t30 29t48 25t70 10.5q37 0 64 -10t45.5 -24.5t29 -31t15.5 -29.5q4 -12 7 -23.5t4.5 -28t2 -40t0.5 -59.5v-273h-151v314q0 16 -1 29.5t-7 25.5q-8 17 -25.5 30t-46.5 13q-24 0 -44.5 -10.5t-32.5 -28.5
q-7 -10 -12.5 -29t-5.5 -48v-296h-149v415zM360 -66l-79 -159h-67l40 159h106z" />
    <glyph glyph-name="Ncaron" unicode="&#x147;" horiz-adv-x="773" 
d="M67 722h224l271 -568v568h144v-722h-213l-280 600v-600h-146v722zM552 918l-106 -145h-117l-104 145h94l70 -91l70 91h93z" />
    <glyph glyph-name="ncaron" unicode="&#x148;" horiz-adv-x="611" 
d="M67 415v10.5t-0.5 23t-1 29t-1.5 29.5h142l4 -76q5 9 16 23.5t30 29t48 25t70 10.5q37 0 64 -10t45.5 -24.5t29 -31t15.5 -29.5q4 -12 7 -23.5t4.5 -28t2 -40t0.5 -59.5v-273h-151v314q0 16 -1 29.5t-7 25.5q-8 17 -25.5 30t-46.5 13q-24 0 -44.5 -10.5t-32.5 -28.5
q-7 -10 -12.5 -29t-5.5 -48v-296h-149v415zM471 730l-106 -145h-117l-104 145h94l70 -91l70 91h93z" />
    <glyph glyph-name="napostrophe" unicode="&#x149;" horiz-adv-x="611" 
d="M67 415v10.5t-0.5 23t-1 29t-1.5 29.5h142l4 -76q5 9 16 23.5t30 29t48 25t70 10.5q37 0 64 -10t45.5 -24.5t29 -31t15.5 -29.5q4 -12 7 -23.5t4.5 -28t2 -40t0.5 -59.5v-273h-151v314q0 16 -1 29.5t-7 25.5q-8 17 -25.5 30t-46.5 13q-24 0 -44.5 -10.5t-32.5 -28.5
q-7 -10 -12.5 -29t-5.5 -48v-296h-149v415zM155 722l-79 -159h-67l40 159h106z" />
    <glyph glyph-name="Omacron" unicode="&#x14c;" horiz-adv-x="778" 
d="M42 351q0 72 17.5 141.5t58.5 124t107 88t164 33.5q29 0 62 -4t67 -15t66 -30t59 -49q29 -33 47 -69.5t28 -72.5t13.5 -69.5t3.5 -60.5q0 -39 -6 -79t-17.5 -77t-28.5 -69.5t-39 -57.5q-30 -34 -65.5 -54t-70.5 -31t-67 -14.5t-54 -3.5q-72 0 -138.5 23.5t-117.5 75.5
q-30 31 -47.5 68t-27 73.5t-12 70.5t-2.5 58zM204 356q0 -52 11 -106t43 -96q17 -23 47 -40.5t84 -17.5q92 0 135 67q9 13 18 31t15.5 43t11 57.5t4.5 75.5q0 26 -3.5 61t-14.5 68q-23 67 -65.5 97.5t-99.5 30.5q-45 0 -78 -16.5t-55 -44.5q-31 -38 -42 -92.5t-11 -117.5z
M218 812v68h342v-68h-342z" />
    <glyph glyph-name="omacron" unicode="&#x14d;" horiz-adv-x="611" 
d="M42 248q0 46 13 93.5t43 86.5t80 64t125 25q69 0 118.5 -21.5t81.5 -58t47 -84.5t15 -101t-15.5 -102t-48 -86.5t-82.5 -59.5t-119 -22q-54 0 -101 16.5t-82 50t-55 83.5t-20 116zM194 247q0 -85 28 -123.5t83 -38.5q24 0 44.5 8t34.5 28t22 53.5t8 83.5q0 25 -3.5 53
t-15 52t-33.5 39.5t-59 15.5q-41 0 -63 -20.5t-32 -48t-12 -56.5t-2 -46zM134 624v68h342v-68h-342z" />
    <glyph glyph-name="Obreve" unicode="&#x14e;" horiz-adv-x="778" 
d="M42 351q0 72 17.5 141.5t58.5 124t107 88t164 33.5q29 0 62 -4t67 -15t66 -30t59 -49q29 -33 47 -69.5t28 -72.5t13.5 -69.5t3.5 -60.5q0 -39 -6 -79t-17.5 -77t-28.5 -69.5t-39 -57.5q-30 -34 -65.5 -54t-70.5 -31t-67 -14.5t-54 -3.5q-72 0 -138.5 23.5t-117.5 75.5
q-30 31 -47.5 68t-27 73.5t-12 70.5t-2.5 58zM204 356q0 -52 11 -106t43 -96q17 -23 47 -40.5t84 -17.5q92 0 135 67q9 13 18 31t15.5 43t11 57.5t4.5 75.5q0 26 -3.5 61t-14.5 68q-23 67 -65.5 97.5t-99.5 30.5q-45 0 -78 -16.5t-55 -44.5q-31 -38 -42 -92.5t-11 -117.5z
M296 918q4 -25 14 -40.5t22.5 -24.5t26.5 -12t26 -3q27 0 44 8.5t26.5 21t14.5 26.5t8 24h61q-2 -30 -12.5 -56t-30 -46t-47.5 -31.5t-65 -11.5q-38 0 -70 14t-52 41q-19 24 -22.5 48.5t-4.5 41.5h61z" />
    <glyph glyph-name="obreve" unicode="&#x14f;" horiz-adv-x="611" 
d="M42 248q0 46 13 93.5t43 86.5t80 64t125 25q69 0 118.5 -21.5t81.5 -58t47 -84.5t15 -101t-15.5 -102t-48 -86.5t-82.5 -59.5t-119 -22q-54 0 -101 16.5t-82 50t-55 83.5t-20 116zM194 247q0 -85 28 -123.5t83 -38.5q24 0 44.5 8t34.5 28t22 53.5t8 83.5q0 25 -3.5 53
t-15 52t-33.5 39.5t-59 15.5q-41 0 -63 -20.5t-32 -48t-12 -56.5t-2 -46zM214 730q4 -25 14 -40.5t22.5 -24.5t26.5 -12t26 -3q27 0 44 8.5t26.5 21t14.5 26.5t8 24h61q-2 -30 -12.5 -56t-30 -46t-47.5 -31.5t-65 -11.5q-38 0 -70 14t-52 41q-19 24 -22.5 48.5t-4.5 41.5h61
z" />
    <glyph glyph-name="Ohungarumlaut" unicode="&#x150;" horiz-adv-x="778" 
d="M42 351q0 72 17.5 141.5t58.5 124t107 88t164 33.5q29 0 62 -4t67 -15t66 -30t59 -49q29 -33 47 -69.5t28 -72.5t13.5 -69.5t3.5 -60.5q0 -39 -6 -79t-17.5 -77t-28.5 -69.5t-39 -57.5q-30 -34 -65.5 -54t-70.5 -31t-67 -14.5t-54 -3.5q-72 0 -138.5 23.5t-117.5 75.5
q-30 31 -47.5 68t-27 73.5t-12 70.5t-2.5 58zM204 356q0 -52 11 -106t43 -96q17 -23 47 -40.5t84 -17.5q92 0 135 67q9 13 18 31t15.5 43t11 57.5t4.5 75.5q0 26 -3.5 61t-14.5 68q-23 67 -65.5 97.5t-99.5 30.5q-45 0 -78 -16.5t-55 -44.5q-31 -38 -42 -92.5t-11 -117.5z
M302 773h-80l84 145h134zM487 773h-80l84 145h134z" />
    <glyph glyph-name="ohungarumlaut" unicode="&#x151;" horiz-adv-x="611" 
d="M42 248q0 46 13 93.5t43 86.5t80 64t125 25q69 0 118.5 -21.5t81.5 -58t47 -84.5t15 -101t-15.5 -102t-48 -86.5t-82.5 -59.5t-119 -22q-54 0 -101 16.5t-82 50t-55 83.5t-20 116zM194 247q0 -85 28 -123.5t83 -38.5q24 0 44.5 8t34.5 28t22 53.5t8 83.5q0 25 -3.5 53
t-15 52t-33.5 39.5t-59 15.5q-41 0 -63 -20.5t-32 -48t-12 -56.5t-2 -46zM231 585h-80l84 145h134zM416 585h-80l84 145h134z" />
    <glyph glyph-name="OE" unicode="&#x152;" horiz-adv-x="1000" 
d="M951 606h-295v-180h286v-116h-287v-190h308v-120h-491q-50 0 -97.5 1.5t-92 10t-84.5 27t-74 53.5q-31 30 -49 67t-27.5 73t-12.5 68t-3 53q0 61 13.5 117.5t40.5 103t67.5 79.5t93.5 48q28 8 51.5 12t48.5 6t54.5 2.5t70.5 0.5h479v-116zM500 614q-42 0 -72 -0.5
t-53 -3.5t-41 -8t-36 -14q-29 -14 -49 -38t-33 -55.5t-18.5 -68.5t-5.5 -77q0 -61 13 -102.5t35 -68.5t52 -41t64 -20t71 -6.5t73 0.5v503z" />
    <glyph glyph-name="oe" unicode="&#x153;" horiz-adv-x="944" 
d="M899 156q-6 -42 -22 -73t-48 -56q-36 -28 -77 -36t-71 -8q-43 0 -73 8.5t-51.5 21.5t-36.5 29.5t-28 32.5q-45 -55 -92.5 -74t-105.5 -19q-72 0 -120.5 24t-78 62.5t-41.5 86t-12 95.5q0 81 26 132.5t65 81.5t83.5 41.5t81.5 11.5q46 0 79.5 -11t56.5 -26t36.5 -30.5
t21.5 -25.5q6 10 18.5 26t34 31.5t53.5 26.5t78 11q19 0 44.5 -3.5t52.5 -14.5t53 -31t46 -53q13 -23 20 -50t10.5 -54t4 -51.5t0.5 -42.5h-335q0 -23 4 -48t15 -46t31 -35t52 -14q33 0 55.5 19t30.5 61h139zM760 311q0 13 -1.5 33t-10 38t-26 31t-49.5 13
q-42 0 -68.5 -27.5t-32.5 -87.5h188zM305 80q41 0 64.5 18t35 45t14.5 58.5t3 58.5q0 16 -2 43t-12.5 53t-34.5 45.5t-67 19.5q-34 0 -56 -14.5t-35 -38t-18 -54.5t-5 -64q0 -88 28 -129t85 -41z" />
    <glyph glyph-name="Racute" unicode="&#x154;" horiz-adv-x="667" 
d="M66 722h277q30 0 60 -1t58.5 -5.5t54 -14t46.5 -27.5q34 -29 48.5 -66.5t14.5 -72.5q0 -51 -18.5 -83.5t-43.5 -52t-50.5 -28.5t-38.5 -13q41 -4 64.5 -17.5t36.5 -34.5t18.5 -50t10.5 -64q8 -64 13 -94.5t9 -45.5q6 -24 11 -33.5t11 -18.5h-171q-3 15 -8 52t-10.5 78
t-11 75.5t-9.5 45.5q-5 15 -14.5 23.5t-20 12.5t-22 4.5t-21.5 0.5h-136v-292h-158v722zM219 407h125q14 0 37 2.5t42 17.5q4 3 11 9.5t13.5 16.5t11 24.5t4.5 33.5q0 37 -13.5 55.5t-24.5 25.5q-18 13 -41.5 15t-60.5 2h-104v-202zM330 773h-80l83 145h134z" />
    <glyph glyph-name="racute" unicode="&#x155;" horiz-adv-x="389" 
d="M65 381q0 9 -0.5 25.5t-1.5 35.5t-2.5 36.5t-2.5 28.5h139l3 -97q7 16 18 34t30 33t49 24t75 7v-133q-56 5 -88 -5t-48 -29t-19.5 -43.5t-3.5 -48.5v-249h-148v381zM169 585h-80l83 145h134z" />
    <glyph glyph-name="Rcommaaccent" unicode="&#x156;" horiz-adv-x="667" 
d="M66 722h277q30 0 60 -1t58.5 -5.5t54 -14t46.5 -27.5q34 -29 48.5 -66.5t14.5 -72.5q0 -51 -18.5 -83.5t-43.5 -52t-50.5 -28.5t-38.5 -13q41 -4 64.5 -17.5t36.5 -34.5t18.5 -50t10.5 -64q8 -64 13 -94.5t9 -45.5q6 -24 11 -33.5t11 -18.5h-171q-3 15 -8 52t-10.5 78
t-11 75.5t-9.5 45.5q-5 15 -14.5 23.5t-20 12.5t-22 4.5t-21.5 0.5h-136v-292h-158v722zM219 407h125q14 0 37 2.5t42 17.5q4 3 11 9.5t13.5 16.5t11 24.5t4.5 33.5q0 37 -13.5 55.5t-24.5 25.5q-18 13 -41.5 15t-60.5 2h-104v-202zM399 -66l-79 -159h-67l40 159h106z" />
    <glyph glyph-name="rcommaaccent" unicode="&#x157;" horiz-adv-x="389" 
d="M65 381q0 9 -0.5 25.5t-1.5 35.5t-2.5 36.5t-2.5 28.5h139l3 -97q7 16 18 34t30 33t49 24t75 7v-133q-56 5 -88 -5t-48 -29t-19.5 -43.5t-3.5 -48.5v-249h-148v381zM197 -66l-79 -159h-67l40 159h106z" />
    <glyph glyph-name="Rcaron" unicode="&#x158;" horiz-adv-x="667" 
d="M66 722h277q30 0 60 -1t58.5 -5.5t54 -14t46.5 -27.5q34 -29 48.5 -66.5t14.5 -72.5q0 -51 -18.5 -83.5t-43.5 -52t-50.5 -28.5t-38.5 -13q41 -4 64.5 -17.5t36.5 -34.5t18.5 -50t10.5 -64q8 -64 13 -94.5t9 -45.5q6 -24 11 -33.5t11 -18.5h-171q-3 15 -8 52t-10.5 78
t-11 75.5t-9.5 45.5q-5 15 -14.5 23.5t-20 12.5t-22 4.5t-21.5 0.5h-136v-292h-158v722zM219 407h125q14 0 37 2.5t42 17.5q4 3 11 9.5t13.5 16.5t11 24.5t4.5 33.5q0 37 -13.5 55.5t-24.5 25.5q-18 13 -41.5 15t-60.5 2h-104v-202zM496 918l-106 -145h-117l-104 145h94
l70 -91l70 91h93z" />
    <glyph glyph-name="rcaron" unicode="&#x159;" horiz-adv-x="389" 
d="M65 381q0 9 -0.5 25.5t-1.5 35.5t-2.5 36.5t-2.5 28.5h139l3 -97q7 16 18 34t30 33t49 24t75 7v-133q-56 5 -88 -5t-48 -29t-19.5 -43.5t-3.5 -48.5v-249h-148v381zM354 730l-106 -145h-117l-104 145h94l70 -91l70 91h93z" />
    <glyph glyph-name="Sacute" unicode="&#x15a;" horiz-adv-x="667" 
d="M193 231q0 -13 2 -36t14 -45.5t38.5 -39t76.5 -16.5q63 0 100 27.5t37 73.5q0 24 -8.5 39t-25.5 25t-43 17.5t-60 15.5q-65 16 -114.5 34.5t-83 44t-51 59.5t-17.5 81q0 45 16.5 85.5t51 71t89 49t129.5 18.5q28 0 58 -4t59 -13.5t55 -26t46 -41.5q15 -20 23.5 -40
t12 -38t4.5 -32.5t1 -23.5h-149q-1 9 -4.5 27.5t-15 37t-34.5 32t-63 13.5q-54 0 -86.5 -26.5t-32.5 -71.5q0 -26 10 -41.5t29.5 -26.5t49 -19t68.5 -18q47 -11 91.5 -24.5t79.5 -36t56 -57t21 -87.5q0 -49 -20 -91.5t-59 -74.5t-96.5 -50.5t-132.5 -18.5q-69 0 -116.5 13.5
t-78.5 35t-48.5 49t-25.5 55t-9.5 52.5t-1.5 43h158zM360 773h-80l83 145h134z" />
    <glyph glyph-name="sacute" unicode="&#x15b;" horiz-adv-x="500" 
d="M168 146q1 -12 5.5 -24.5t14.5 -22t25.5 -16t38.5 -6.5q40 0 59 18.5t19 41.5q0 17 -13.5 31t-56.5 26l-92 25q-15 4 -37 12t-42.5 23.5t-34.5 40.5t-14 64q0 37 16 66t45.5 49.5t70 31.5t89.5 11q39 0 73.5 -9t60 -27.5t41 -46.5t17.5 -66h-135q-2 21 -10 33t-19 18
t-22.5 7.5t-20.5 1.5q-30 0 -50 -13.5t-20 -36.5q0 -26 18 -35t51 -18l91 -25q69 -19 102 -54t33 -87q0 -33 -14 -64t-43 -55.5t-72.5 -39.5t-102.5 -15q-49 0 -93.5 13t-79.5 49q-25 26 -30.5 53.5t-6.5 45.5h139zM282 585h-80l83 145h134z" />
    <glyph glyph-name="Scircumflex" unicode="&#x15c;" horiz-adv-x="667" 
d="M193 231q0 -13 2 -36t14 -45.5t38.5 -39t76.5 -16.5q63 0 100 27.5t37 73.5q0 24 -8.5 39t-25.5 25t-43 17.5t-60 15.5q-65 16 -114.5 34.5t-83 44t-51 59.5t-17.5 81q0 45 16.5 85.5t51 71t89 49t129.5 18.5q28 0 58 -4t59 -13.5t55 -26t46 -41.5q15 -20 23.5 -40
t12 -38t4.5 -32.5t1 -23.5h-149q-1 9 -4.5 27.5t-15 37t-34.5 32t-63 13.5q-54 0 -86.5 -26.5t-32.5 -71.5q0 -26 10 -41.5t29.5 -26.5t49 -19t68.5 -18q47 -11 91.5 -24.5t79.5 -36t56 -57t21 -87.5q0 -49 -20 -91.5t-59 -74.5t-96.5 -50.5t-132.5 -18.5q-69 0 -116.5 13.5
t-78.5 35t-48.5 49t-25.5 55t-9.5 52.5t-1.5 43h158zM278 918h103l104 -145h-89l-68 85l-70 -85h-90z" />
    <glyph glyph-name="scircumflex" unicode="&#x15d;" horiz-adv-x="500" 
d="M168 146q1 -12 5.5 -24.5t14.5 -22t25.5 -16t38.5 -6.5q40 0 59 18.5t19 41.5q0 17 -13.5 31t-56.5 26l-92 25q-15 4 -37 12t-42.5 23.5t-34.5 40.5t-14 64q0 37 16 66t45.5 49.5t70 31.5t89.5 11q39 0 73.5 -9t60 -27.5t41 -46.5t17.5 -66h-135q-2 21 -10 33t-19 18
t-22.5 7.5t-20.5 1.5q-30 0 -50 -13.5t-20 -36.5q0 -26 18 -35t51 -18l91 -25q69 -19 102 -54t33 -87q0 -33 -14 -64t-43 -55.5t-72.5 -39.5t-102.5 -15q-49 0 -93.5 13t-79.5 49q-25 26 -30.5 53.5t-6.5 45.5h139zM209 730h103l104 -145h-89l-68 85l-70 -85h-90z" />
    <glyph glyph-name="Scedilla" unicode="&#x15e;" horiz-adv-x="667" 
d="M236 -153q17 -8 35.5 -13t34.5 -5q26 0 40.5 10.5t14.5 27.5q0 11 -9 24t-35 13q-14 0 -23.5 -3t-17.5 -6l-20 21l48 68q-66 1 -112 15t-75.5 35.5t-46 48.5t-24.5 54t-9.5 52t-1.5 42h158q0 -13 2 -36t14 -45.5t38.5 -39t76.5 -16.5q63 0 100 27.5t37 73.5q0 24 -8.5 39
t-25.5 25t-43 17.5t-60 15.5q-65 16 -114.5 34.5t-83 44t-51 59.5t-17.5 81q0 45 16.5 85.5t51 71t89 49t129.5 18.5q28 0 58 -4t59 -13.5t55 -26t46 -41.5q15 -20 23.5 -40t12 -38t4.5 -32.5t1 -23.5h-149q-1 9 -4.5 27.5t-15 37t-34.5 32t-63 13.5q-54 0 -86.5 -26.5
t-32.5 -71.5q0 -26 10 -41.5t29.5 -26.5t49 -19t68.5 -18q47 -11 91.5 -24.5t79.5 -36t56 -57t21 -87.5q0 -46 -18 -86.5t-52.5 -72t-85.5 -51.5t-117 -24l-31 -42q8 2 15.5 3t19.5 1q25 0 41 -7.5t25.5 -18.5t13.5 -23.5t4 -22.5q0 -27 -13 -45t-32.5 -28t-41.5 -14t-39 -4
q-35 0 -61 8.5t-36 13.5z" />
    <glyph glyph-name="scedilla" unicode="&#x15f;" horiz-adv-x="500" 
d="M161 -153q17 -8 35.5 -13t34.5 -5q26 0 40.5 10.5t14.5 27.5q0 11 -9 24t-35 13q-14 0 -23.5 -3t-17.5 -6l-20 21l49 69q-48 2 -89.5 14.5t-74.5 47.5q-25 26 -30.5 53.5t-6.5 45.5h139q1 -12 5.5 -24.5t14.5 -22t25.5 -16t38.5 -6.5q40 0 59 18.5t19 41.5q0 17 -13.5 31
t-56.5 26l-92 25q-15 4 -37 12t-42.5 23.5t-34.5 40.5t-14 64q0 37 16 66t45.5 49.5t70 31.5t89.5 11q39 0 73.5 -9t60 -27.5t41 -46.5t17.5 -66h-135q-2 21 -10 33t-19 18t-22.5 7.5t-20.5 1.5q-30 0 -50 -13.5t-20 -36.5q0 -26 18 -35t51 -18l91 -25q69 -19 102 -54
t33 -87q0 -30 -12 -59t-36 -52.5t-60.5 -39.5t-85.5 -21l-33 -45q8 2 15.5 3t19.5 1q25 0 41 -7.5t25.5 -18.5t13.5 -23.5t4 -22.5q0 -27 -13 -45t-32.5 -28t-41.5 -14t-39 -4q-35 0 -61 8.5t-36 13.5z" />
    <glyph glyph-name="Scaron" unicode="&#x160;" horiz-adv-x="667" 
d="M193 231q0 -13 2 -36t14 -45.5t38.5 -39t76.5 -16.5q63 0 100 27.5t37 73.5q0 24 -8.5 39t-25.5 25t-43 17.5t-60 15.5q-65 16 -114.5 34.5t-83 44t-51 59.5t-17.5 81q0 45 16.5 85.5t51 71t89 49t129.5 18.5q28 0 58 -4t59 -13.5t55 -26t46 -41.5q15 -20 23.5 -40
t12 -38t4.5 -32.5t1 -23.5h-149q-1 9 -4.5 27.5t-15 37t-34.5 32t-63 13.5q-54 0 -86.5 -26.5t-32.5 -71.5q0 -26 10 -41.5t29.5 -26.5t49 -19t68.5 -18q47 -11 91.5 -24.5t79.5 -36t56 -57t21 -87.5q0 -49 -20 -91.5t-59 -74.5t-96.5 -50.5t-132.5 -18.5q-69 0 -116.5 13.5
t-78.5 35t-48.5 49t-25.5 55t-9.5 52.5t-1.5 43h158zM499 918l-106 -145h-117l-104 145h94l70 -91l70 91h93z" />
    <glyph glyph-name="scaron" unicode="&#x161;" horiz-adv-x="500" 
d="M168 146q1 -12 5.5 -24.5t14.5 -22t25.5 -16t38.5 -6.5q40 0 59 18.5t19 41.5q0 17 -13.5 31t-56.5 26l-92 25q-15 4 -37 12t-42.5 23.5t-34.5 40.5t-14 64q0 37 16 66t45.5 49.5t70 31.5t89.5 11q39 0 73.5 -9t60 -27.5t41 -46.5t17.5 -66h-135q-2 21 -10 33t-19 18
t-22.5 7.5t-20.5 1.5q-30 0 -50 -13.5t-20 -36.5q0 -26 18 -35t51 -18l91 -25q69 -19 102 -54t33 -87q0 -33 -14 -64t-43 -55.5t-72.5 -39.5t-102.5 -15q-49 0 -93.5 13t-79.5 49q-25 26 -30.5 53.5t-6.5 45.5h139zM415 730l-106 -145h-117l-104 145h94l70 -91l70 91h93z
" />
    <glyph glyph-name="Tcommaaccent" unicode="&#x162;" horiz-adv-x="611" 
d="M229 603h-215v119h586v-119h-215v-603h-156v603zM379 -66l-79 -159h-67l40 159h106z" />
    <glyph glyph-name="tcommaaccent" unicode="&#x163;" horiz-adv-x="389" 
d="M362 7q-36 -10 -66.5 -13t-48.5 -3q-56 0 -86 15.5t-44 37t-16.5 44.5t-2.5 39v277h-97v98h97v99l147 54v-153h120v-98h-120v-228q0 -17 1 -31t7.5 -24t20 -15t38.5 -5q17 0 26.5 0.5t23.5 2.5v-97zM261 -66l-79 -159h-67l40 159h106z" />
    <glyph glyph-name="Tcaron" unicode="&#x164;" horiz-adv-x="611" 
d="M229 603h-215v119h586v-119h-215v-603h-156v603zM471 918l-106 -145h-117l-104 145h94l70 -91l70 91h93z" />
    <glyph glyph-name="tcaron" unicode="&#x165;" horiz-adv-x="389" 
d="M362 7q-36 -10 -66.5 -13t-48.5 -3q-56 0 -86 15.5t-44 37t-16.5 44.5t-2.5 39v277h-97v98h97v99l147 54v-153h120v-98h-120v-228q0 -17 1 -31t7.5 -24t20 -15t38.5 -5q17 0 26.5 0.5t23.5 2.5v-97zM466 722l-79 -159h-67l40 159h106z" />
    <glyph glyph-name="Tbar" unicode="&#x166;" horiz-adv-x="611" 
d="M385 389v-389h-156v389h-116v64h116v150h-215v120h586v-120h-215v-150h112v-64h-112z" />
    <glyph glyph-name="tbar" unicode="&#x167;" horiz-adv-x="389" 
d="M362 7q-36 -10 -66.5 -13t-48.5 -3q-56 0 -86 15.5t-44 37t-16.5 44.5t-2.5 39v124h-86v53h86v100h-97v98h97v99l147 54v-153h120v-98h-120v-100h112v-53h-112v-75q0 -17 1 -31t7.5 -24t20 -15t38.5 -5q17 0 26.5 0.5t23.5 2.5v-97z" />
    <glyph glyph-name="Utilde" unicode="&#x168;" horiz-adv-x="746" 
d="M215 722v-441q0 -30 3.5 -61.5t18.5 -57.5t46.5 -42.5t88.5 -16.5q9 0 26.5 1t38 7t40.5 19t35 36q11 15 17 42t6 81v433h151v-452q0 -81 -29 -135.5t-75 -87.5t-102 -47t-111 -14q-27 0 -63 4t-74.5 17t-74 38t-60.5 66q-26 42 -31.5 84.5t-5.5 93.5v433h155zM219 781
q8 57 40.5 90t77.5 33q16 0 32 -5t18 -6l57 -22q5 -2 13 -4t21 -2q22 0 32.5 13.5t14.5 32.5h51q-3 -27 -11 -50t-29 -43q-11 -11 -28.5 -20t-43.5 -9q-17 0 -30.5 4t-21.5 7l-43 16q-9 3 -22 6.5t-23 3.5q-13 0 -28 -8t-25 -37h-52z" />
    <glyph glyph-name="utilde" unicode="&#x169;" horiz-adv-x="611" 
d="M210 505v-301q0 -17 1 -36t8.5 -36t23.5 -28t46 -11q36 0 55 12.5t28 34t10.5 50t1.5 60.5v255h152v-333q1 -41 1.5 -65.5t1 -38t0.5 -20v-11.5q1 -11 1.5 -18.5t2.5 -18.5h-144l-5 67q-6 -8 -16.5 -21.5t-28 -26.5t-43 -22.5t-61.5 -9.5q-51 0 -91 20t-61 48
q-12 15 -19 35t-10 39t-3.5 36t-0.5 26v314h150zM135 593q8 57 40.5 90t77.5 33q16 0 32 -5t18 -6l57 -22q5 -2 13 -4t21 -2q22 0 32.5 13.5t14.5 32.5h51q-3 -27 -11 -50t-29 -43q-11 -11 -28.5 -20t-43.5 -9q-17 0 -30.5 4t-21.5 7l-43 16q-9 3 -22 6.5t-23 3.5
q-13 0 -28 -8t-25 -37h-52z" />
    <glyph glyph-name="Umacron" unicode="&#x16a;" horiz-adv-x="746" 
d="M215 722v-441q0 -30 3.5 -61.5t18.5 -57.5t46.5 -42.5t88.5 -16.5q9 0 26.5 1t38 7t40.5 19t35 36q11 15 17 42t6 81v433h151v-452q0 -81 -29 -135.5t-75 -87.5t-102 -47t-111 -14q-27 0 -63 4t-74.5 17t-74 38t-60.5 66q-26 42 -31.5 84.5t-5.5 93.5v433h155zM211 812
v68h342v-68h-342z" />
    <glyph glyph-name="umacron" unicode="&#x16b;" horiz-adv-x="611" 
d="M210 505v-301q0 -17 1 -36t8.5 -36t23.5 -28t46 -11q36 0 55 12.5t28 34t10.5 50t1.5 60.5v255h152v-333q1 -41 1.5 -65.5t1 -38t0.5 -20v-11.5q1 -11 1.5 -18.5t2.5 -18.5h-144l-5 67q-6 -8 -16.5 -21.5t-28 -26.5t-43 -22.5t-61.5 -9.5q-51 0 -91 20t-61 48
q-12 15 -19 35t-10 39t-3.5 36t-0.5 26v314h150zM129 624v68h342v-68h-342z" />
    <glyph glyph-name="Ubreve" unicode="&#x16c;" horiz-adv-x="746" 
d="M215 722v-441q0 -30 3.5 -61.5t18.5 -57.5t46.5 -42.5t88.5 -16.5q9 0 26.5 1t38 7t40.5 19t35 36q11 15 17 42t6 81v433h151v-452q0 -81 -29 -135.5t-75 -87.5t-102 -47t-111 -14q-27 0 -63 4t-74.5 17t-74 38t-60.5 66q-26 42 -31.5 84.5t-5.5 93.5v433h155zM293 918
q4 -25 14 -40.5t22.5 -24.5t26.5 -12t26 -3q27 0 44 8.5t26.5 21t14.5 26.5t8 24h61q-2 -30 -12.5 -56t-30 -46t-47.5 -31.5t-65 -11.5q-38 0 -70 14t-52 41q-19 24 -22.5 48.5t-4.5 41.5h61z" />
    <glyph glyph-name="ubreve" unicode="&#x16d;" horiz-adv-x="611" 
d="M210 505v-301q0 -17 1 -36t8.5 -36t23.5 -28t46 -11q36 0 55 12.5t28 34t10.5 50t1.5 60.5v255h152v-333q1 -41 1.5 -65.5t1 -38t0.5 -20v-11.5q1 -11 1.5 -18.5t2.5 -18.5h-144l-5 67q-6 -8 -16.5 -21.5t-28 -26.5t-43 -22.5t-61.5 -9.5q-51 0 -91 20t-61 48
q-12 15 -19 35t-10 39t-3.5 36t-0.5 26v314h150zM212 730q4 -25 14 -40.5t22.5 -24.5t26.5 -12t26 -3q27 0 44 8.5t26.5 21t14.5 26.5t8 24h61q-2 -30 -12.5 -56t-30 -46t-47.5 -31.5t-65 -11.5q-38 0 -70 14t-52 41q-19 24 -22.5 48.5t-4.5 41.5h61z" />
    <glyph glyph-name="Uring" unicode="&#x16e;" horiz-adv-x="746" 
d="M215 722v-441q0 -30 3.5 -61.5t18.5 -57.5t46.5 -42.5t88.5 -16.5q9 0 26.5 1t38 7t40.5 19t35 36q11 15 17 42t6 81v433h151v-452q0 -81 -29 -135.5t-75 -87.5t-102 -47t-111 -14q-27 0 -63 4t-74.5 17t-74 38t-60.5 66q-26 42 -31.5 84.5t-5.5 93.5v433h155zM381 948
q22 0 40.5 -8t32 -22t21 -32.5t7.5 -39.5t-8 -39.5t-21.5 -32.5t-32 -22t-39.5 -8t-39 8t-32 21.5t-22 32.5t-8 40t8 39.5t21.5 32.5t32 22t39.5 8zM381 900q-22 0 -37.5 -15.5t-15.5 -38.5q0 -22 15.5 -37.5t37.5 -15.5q23 0 38.5 15.5t15.5 37.5t-15.5 38t-38.5 16z" />
    <glyph glyph-name="uring" unicode="&#x16f;" horiz-adv-x="611" 
d="M210 505v-301q0 -17 1 -36t8.5 -36t23.5 -28t46 -11q36 0 55 12.5t28 34t10.5 50t1.5 60.5v255h152v-333q1 -41 1.5 -65.5t1 -38t0.5 -20v-11.5q1 -11 1.5 -18.5t2.5 -18.5h-144l-5 67q-6 -8 -16.5 -21.5t-28 -26.5t-43 -22.5t-61.5 -9.5q-51 0 -91 20t-61 48
q-12 15 -19 35t-10 39t-3.5 36t-0.5 26v314h150zM298 760q22 0 40.5 -8t32 -22t21 -32.5t7.5 -39.5t-8 -39.5t-21.5 -32.5t-32 -22t-39.5 -8t-39 8t-32 21.5t-22 32.5t-8 40t8 39.5t21.5 32.5t32 22t39.5 8zM298 712q-22 0 -37.5 -15.5t-15.5 -38.5q0 -22 15.5 -37.5
t37.5 -15.5q23 0 38.5 15.5t15.5 37.5t-15.5 38t-38.5 16z" />
    <glyph glyph-name="Uhungarumlaut" unicode="&#x170;" horiz-adv-x="746" 
d="M215 722v-441q0 -30 3.5 -61.5t18.5 -57.5t46.5 -42.5t88.5 -16.5q9 0 26.5 1t38 7t40.5 19t35 36q11 15 17 42t6 81v433h151v-452q0 -81 -29 -135.5t-75 -87.5t-102 -47t-111 -14q-27 0 -63 4t-74.5 17t-74 38t-60.5 66q-26 42 -31.5 84.5t-5.5 93.5v433h155zM319 773
h-80l84 145h134zM504 773h-80l84 145h134z" />
    <glyph glyph-name="uhungarumlaut" unicode="&#x171;" horiz-adv-x="611" 
d="M210 505v-301q0 -17 1 -36t8.5 -36t23.5 -28t46 -11q36 0 55 12.5t28 34t10.5 50t1.5 60.5v255h152v-333q1 -41 1.5 -65.5t1 -38t0.5 -20v-11.5q1 -11 1.5 -18.5t2.5 -18.5h-144l-5 67q-6 -8 -16.5 -21.5t-28 -26.5t-43 -22.5t-61.5 -9.5q-51 0 -91 20t-61 48
q-12 15 -19 35t-10 39t-3.5 36t-0.5 26v314h150zM232 585h-80l84 145h134zM417 585h-80l84 145h134z" />
    <glyph glyph-name="Uogonek" unicode="&#x172;" horiz-adv-x="746" 
d="M480 -191q-14 -8 -36 -17t-57 -9q-48 0 -72 21.5t-24 53.5q0 38 25 71.5t65 56.5h-12q-27 0 -63 4t-74.5 17t-74 38t-60.5 66q-26 42 -31.5 84.5t-5.5 93.5v432h155v-440q0 -30 3.5 -61.5t18.5 -57.5t46.5 -42.5t88.5 -16.5q9 0 26.5 1t38 7t40.5 19t35 36q11 15 17 42
t6 81v432h151v-451q0 -68 -21 -117t-55.5 -82.5t-79 -52.5t-91.5 -26q-26 -19 -43.5 -39.5t-17.5 -49.5q0 -23 8.5 -35.5t19 -18.5t20.5 -7t13 -1q15 0 24 3.5t17 8.5v-44z" />
    <glyph glyph-name="uogonek" unicode="&#x173;" horiz-adv-x="611" 
d="M505 -191q-14 -8 -36 -17t-57 -9q-48 0 -72 21.5t-24 53.5q0 45 33 82t84 60h-34l-5 67q-6 -8 -16.5 -21.5t-28 -26.5t-43 -22.5t-61.5 -9.5q-51 0 -91 20t-61 48q-12 15 -19 35t-10 39t-3.5 36t-0.5 26v314h150v-301q0 -17 1 -36t8.5 -36t23.5 -28t46 -11q36 0 55 12.5
t28 34t10.5 50t1.5 60.5v255h152v-333q1 -41 1.5 -65.5t1 -38t0.5 -20v-11.5q1 -11 1.5 -18.5t2.5 -18.5h-67q-31 -21 -52 -42.5t-21 -54.5q0 -23 8.5 -35.5t19 -18.5t20.5 -7t13 -1q15 0 24 3.5t17 8.5v-44z" />
    <glyph glyph-name="Wcircumflex" unicode="&#x174;" horiz-adv-x="1000" 
d="M175 722l112 -541l141 541h175l127 -541l117 541h148l-184 -722h-172l-131 552l-141 -552h-176l-176 722h160zM467 918h103l104 -145h-89l-68 85l-70 -85h-90z" />
    <glyph glyph-name="wcircumflex" unicode="&#x175;" horiz-adv-x="889" 
d="M162 505l93 -381l107 381h163l106 -381l99 381h147l-173 -505h-161l-104 374l-106 -374h-163l-165 505h157zM395 730h103l104 -145h-89l-68 85l-70 -85h-90z" />
    <glyph glyph-name="Ycircumflex" unicode="&#x176;" horiz-adv-x="667" 
d="M197 722l149 -331l152 331h159l-244 -459v-263h-153v265l-244 457h181zM303 918h103l104 -145h-89l-68 85l-70 -85h-90z" />
    <glyph glyph-name="ycircumflex" unicode="&#x177;" 
d="M174 505l111 -350l113 350h147l-191 -496l-61 -201h-149l64 190l-194 507h160zM235 730h103l104 -145h-89l-68 85l-70 -85h-90z" />
    <glyph glyph-name="Ydieresis" unicode="&#x178;" horiz-adv-x="667" 
d="M197 722l149 -331l152 331h159l-244 -459v-263h-153v265l-244 457h181zM367 895h102v-118h-102v118zM195 895h102v-118h-102v118z" />
    <glyph glyph-name="Zacute" unicode="&#x179;" horiz-adv-x="611" 
d="M27 132l378 475l-355 -3v118h523v-137l-377 -472l385 6v-119h-554v132zM345 773h-80l83 145h134z" />
    <glyph glyph-name="zacute" unicode="&#x17a;" horiz-adv-x="500" 
d="M32 130l256 276h-249v99h414v-127l-256 -276h266v-102h-431v130zM263 585h-80l83 145h134z" />
    <glyph glyph-name="Zdotaccent" unicode="&#x17b;" horiz-adv-x="611" 
d="M27 132l378 475l-355 -3v118h523v-137l-377 -472l385 6v-119h-554v132zM260 905h102v-118h-102v118z" />
    <glyph glyph-name="zdotaccent" unicode="&#x17c;" horiz-adv-x="500" 
d="M32 130l256 276h-249v99h414v-127l-256 -276h266v-102h-431v130zM206 717h102v-118h-102v118z" />
    <glyph glyph-name="Zcaron" unicode="&#x17d;" horiz-adv-x="611" 
d="M27 132l378 475l-355 -3v118h523v-137l-377 -472l385 6v-119h-554v132zM471 918l-106 -145h-117l-104 145h94l70 -91l70 91h93z" />
    <glyph glyph-name="zcaron" unicode="&#x17e;" horiz-adv-x="500" 
d="M32 130l256 276h-249v99h414v-127l-256 -276h266v-102h-431v130zM415 730l-106 -145h-117l-104 145h94l70 -91l70 91h93z" />
    <glyph glyph-name="florin" unicode="&#x192;" 
d="M51 -42q5 -1 9.5 -1.5t9.5 -0.5q30 0 39 14t12 30l69 350h-65l19 101h66l11 57q9 45 20 80.5t29.5 60.5t47.5 38t75 13q23 0 42.5 -2t39.5 -5l-22 -110q-28 4 -44 -0.5t-25 -15.5t-13 -27t-8 -35l-11 -54h72l-15 -101h-76l-75 -375q-6 -29 -15.5 -57t-36.5 -46
q-16 -11 -43.5 -21.5t-72.5 -10.5q-5 0 -21 0.5t-39 4.5z" />
    <glyph glyph-name="Scommaaccent" unicode="&#x218;" horiz-adv-x="667" 
d="M193 231q0 -13 2 -36t14 -45.5t38.5 -39t76.5 -16.5q63 0 100 27.5t37 73.5q0 24 -8.5 39t-25.5 25t-43 17.5t-60 15.5q-65 16 -114.5 34.5t-83 44t-51 59.5t-17.5 81q0 45 16.5 85.5t51 71t89 49t129.5 18.5q28 0 58 -4t59 -13.5t55 -26t46 -41.5q15 -20 23.5 -40
t12 -38t4.5 -32.5t1 -23.5h-149q-1 9 -4.5 27.5t-15 37t-34.5 32t-63 13.5q-54 0 -86.5 -26.5t-32.5 -71.5q0 -26 10 -41.5t29.5 -26.5t49 -19t68.5 -18q47 -11 91.5 -24.5t79.5 -36t56 -57t21 -87.5q0 -49 -20 -91.5t-59 -74.5t-96.5 -50.5t-132.5 -18.5q-69 0 -116.5 13.5
t-78.5 35t-48.5 49t-25.5 55t-9.5 52.5t-1.5 43h158zM387 -66l-79 -159h-67l40 159h106z" />
    <glyph glyph-name="scommaaccent" unicode="&#x219;" horiz-adv-x="500" 
d="M168 146q1 -12 5.5 -24.5t14.5 -22t25.5 -16t38.5 -6.5q40 0 59 18.5t19 41.5q0 17 -13.5 31t-56.5 26l-92 25q-15 4 -37 12t-42.5 23.5t-34.5 40.5t-14 64q0 37 16 66t45.5 49.5t70 31.5t89.5 11q39 0 73.5 -9t60 -27.5t41 -46.5t17.5 -66h-135q-2 21 -10 33t-19 18
t-22.5 7.5t-20.5 1.5q-30 0 -50 -13.5t-20 -36.5q0 -26 18 -35t51 -18l91 -25q69 -19 102 -54t33 -87q0 -33 -14 -64t-43 -55.5t-72.5 -39.5t-102.5 -15q-49 0 -93.5 13t-79.5 49q-25 26 -30.5 53.5t-6.5 45.5h139zM317 -66l-79 -159h-67l40 159h106z" />
    <glyph glyph-name="uni021A" unicode="&#x21a;" horiz-adv-x="611" 
d="M229 603h-215v119h586v-119h-215v-603h-156v603zM379 -66l-79 -159h-67l40 159h106z" />
    <glyph glyph-name="uni021B" unicode="&#x21b;" horiz-adv-x="389" 
d="M362 7q-36 -10 -66.5 -13t-48.5 -3q-56 0 -86 15.5t-44 37t-16.5 44.5t-2.5 39v277h-97v98h97v99l147 54v-153h120v-98h-120v-228q0 -17 1 -31t7.5 -24t20 -15t38.5 -5q17 0 26.5 0.5t23.5 2.5v-97zM261 -66l-79 -159h-67l40 159h106z" />
    <glyph glyph-name="dotlessj" unicode="&#x237;" horiz-adv-x="278" 
d="M-2 -94q25 -1 38.5 8.5t20 23.5t7.5 29t1 25v515h148v-552q0 -36 -8 -64t-27 -48t-51 -30.5t-79 -10.5q-6 0 -19.5 0.5t-30.5 3.5v100z" />
    <glyph glyph-name="circumflex" unicode="&#x2c6;" horiz-adv-x="278" 
d="M88 730h103l104 -145h-89l-68 85l-70 -85h-90z" />
    <glyph glyph-name="caron" unicode="&#x2c7;" horiz-adv-x="278" 
d="M304 730l-106 -145h-117l-104 145h94l70 -91l70 91h93z" />
    <glyph glyph-name="uni02C9" unicode="&#x2c9;" horiz-adv-x="278" 
d="M-36 624v68h342v-68h-342z" />
    <glyph glyph-name="breve" unicode="&#x2d8;" horiz-adv-x="278" 
d="M47 730q4 -25 14 -40.5t22.5 -24.5t26.5 -12t26 -3q27 0 44 8.5t26.5 21t14.5 26.5t8 24h61q-2 -30 -12.5 -56t-30 -46t-47.5 -31.5t-65 -11.5q-38 0 -70 14t-52 41q-19 24 -22.5 48.5t-4.5 41.5h61z" />
    <glyph glyph-name="dotaccent" unicode="&#x2d9;" horiz-adv-x="278" 
d="M88 717h102v-118h-102v118z" />
    <glyph glyph-name="ring" unicode="&#x2da;" horiz-adv-x="278" 
d="M139 760q22 0 40.5 -8t32 -22t21 -32.5t7.5 -39.5t-8 -39.5t-21.5 -32.5t-32 -22t-39.5 -8t-39 8t-32 21.5t-22 32.5t-8 40t8 39.5t21.5 32.5t32 22t39.5 8zM139 712q-22 0 -37.5 -15.5t-15.5 -38.5q0 -22 15.5 -37.5t37.5 -15.5q23 0 38.5 15.5t15.5 37.5t-15.5 38
t-38.5 16z" />
    <glyph glyph-name="ogonek" unicode="&#x2db;" horiz-adv-x="278" 
d="M232 -191q-14 -8 -36 -17t-57 -9q-48 0 -72 21.5t-24 53.5q0 45 34 82.5t85 60.5h43q-32 -22 -53.5 -43.5t-21.5 -54.5q0 -23 8.5 -35.5t19 -18.5t20.5 -7t13 -1q15 0 24 3.5t17 8.5v-44z" />
    <glyph glyph-name="tilde" unicode="&#x2dc;" horiz-adv-x="278" 
d="M-42 593q8 57 40.5 90t77.5 33q16 0 32 -5t18 -6l57 -22q5 -2 13 -4t21 -2q22 0 32.5 13.5t14.5 32.5h51q-3 -27 -11 -50t-29 -43q-11 -11 -28.5 -20t-43.5 -9q-17 0 -30.5 4t-21.5 7l-43 16q-9 3 -22 6.5t-23 3.5q-13 0 -28 -8t-25 -37h-52z" />
    <glyph glyph-name="hungarumlaut" unicode="&#x2dd;" 
d="M198 585h-80l84 145h134zM383 585h-80l84 145h134z" />
    <glyph glyph-name="uni0394" unicode="&#x394;" horiz-adv-x="698" 
d="M9 0l268 710h128l284 -710h-680zM339 542l-151 -417h312z" />
    <glyph glyph-name="uni03A9" unicode="&#x3a9;" horiz-adv-x="765" 
d="M427 0v204q70 16 107 70q19 26 28 58.5t9 68.5q0 42 -15 78.5t-40.5 62.5t-60 41t-74.5 15q-41 0 -76 -15t-61 -41t-40.5 -62.5t-14.5 -79.5q0 -75 37.5 -126.5t104.5 -69.5v-204h-283v125h170v21q-84 29 -127 97t-43 161q0 70 26 128.5t71 100.5t105.5 65t128.5 23
q69 0 129 -22.5t105 -64t71 -99.5t26 -128q0 -46 -10 -87.5t-31 -76t-53 -59.5t-76 -38v-21h170v-125h-283z" />
    <glyph glyph-name="uni03BC" unicode="&#x3bc;" horiz-adv-x="611" 
d="M71 505h128v-244q0 -35 2.5 -65t12.5 -51.5t28.5 -34t51.5 -12.5q36 0 55.5 15.5t29 39t11.5 51.5t2 54v247h129v-505h-110v60q-6 -9 -15 -21t-22.5 -22.5t-32.5 -18t-44 -7.5q-23 0 -40 5.5t-29 13t-19.5 16t-12.5 15.5v-253h-126z" />
    <glyph glyph-name="pi" unicode="&#x3c0;" horiz-adv-x="593" 
d="M580 13q-21 -10 -46.5 -15t-48.5 -5q-33 0 -55 10t-35 27.5t-18.5 41.5t-5.5 52v279h-173v-403h-127v403h-60v102h566v-102h-79v-262q0 -11 0.5 -21t4.5 -18.5t11.5 -13.5t21.5 -5q23 0 44 10v-80z" />
    <glyph glyph-name="afii10023" unicode="&#x401;" horiz-adv-x="603" 
d="M66 722h484v-117h-329v-172h308v-118h-308v-195h340v-120h-495v722zM333 941h102v-118h-102v118zM161 941h102v-118h-102v118z" />
    <glyph glyph-name="afii10051" unicode="&#x402;" horiz-adv-x="809" 
d="M383 430q18 6 58 18.5t103 12.5q34 0 73 -12.5t71.5 -40.5t54 -73.5t21.5 -110.5q0 -72 -19 -125t-52.5 -88t-79 -52t-98.5 -17q-14 0 -27.5 1.5t-27.5 3.5v122q17 -4 35 -4q54 0 82 35t28 111q0 56 -23.5 92t-84.5 36q-20 0 -38 -4t-33 -9.5t-26.5 -11t-16.5 -8.5v-306
h-155v604h-215v118h585v-118h-215v-174z" />
    <glyph glyph-name="afii10052" unicode="&#x403;" horiz-adv-x="540" 
d="M69 0v722h458v-120h-303v-602h-155zM321 798h-80l83 145h134z" />
    <glyph glyph-name="afii10053" unicode="&#x404;" horiz-adv-x="667" 
d="M641 237q-2 -23 -4 -40t-5.5 -31t-9 -27t-13.5 -27q-35 -61 -97.5 -95t-147.5 -34q-80 0 -141 25t-103 72.5t-63.5 115t-21.5 153.5q0 87 23 158.5t66 122.5t104 79t138 28q60 0 109.5 -17.5t85 -49.5t55 -76t19.5 -98h-158q-12 127 -117 127q-66 0 -107 -54t-52 -148
h226v-115h-229q7 -102 44.5 -155.5t106.5 -53.5q57 0 92 38.5t37 101.5h163z" />
    <glyph glyph-name="afii10054" unicode="&#x405;" horiz-adv-x="667" 
d="M193 231q0 -13 2 -36t14 -45.5t38.5 -39t76.5 -16.5q63 0 100 27.5t37 73.5q0 24 -8.5 39t-25.5 25t-43 17.5t-60 15.5q-65 16 -114.5 34.5t-83 44t-51 59.5t-17.5 81q0 45 16.5 85.5t51 71t89 49t129.5 18.5q28 0 58 -4t59 -13.5t55 -26t46 -41.5q15 -20 23.5 -40
t12 -38t4.5 -32.5t1 -23.5h-149q-1 9 -4.5 27.5t-15 37t-34.5 32t-63 13.5q-54 0 -86.5 -26.5t-32.5 -71.5q0 -26 10 -41.5t29.5 -26.5t49 -19t68.5 -18q47 -11 91.5 -24.5t79.5 -36t56 -57t21 -87.5q0 -49 -20 -91.5t-59 -74.5t-96.5 -50.5t-132.5 -18.5q-69 0 -116.5 13.5
t-78.5 35t-48.5 49t-25.5 55t-9.5 52.5t-1.5 43h158z" />
    <glyph glyph-name="afii10055" unicode="&#x406;" horiz-adv-x="289" 
d="M67 722h155v-722h-155v722z" />
    <glyph glyph-name="afii10056" unicode="&#x407;" horiz-adv-x="289" 
d="M67 722h155v-722h-155v722zM179 941h102v-118h-102v118zM7 941h102v-118h-102v118z" />
    <glyph glyph-name="afii10057" unicode="&#x408;" horiz-adv-x="548" 
d="M161 234q2 -60 19.5 -94t65.5 -34q22 0 36.5 7t23.5 16.5t13 20t6 17.5q5 23 5.5 53.5t0.5 59.5v442h157v-443q0 -42 -4.5 -79t-17 -69t-34.5 -59t-56 -48q-21 -13 -53.5 -22t-86.5 -9q-60 0 -107 17t-82 71q-13 20 -20.5 41t-11.5 41.5t-5 38.5t-1 32h152z" />
    <glyph glyph-name="afii10058" unicode="&#x409;" horiz-adv-x="1069" 
d="M315 604v-147q0 -96 -5 -164.5t-16 -118t-27.5 -83t-39.5 -58.5q-12 -13 -26.5 -21t-31 -13t-32.5 -7t-31 -2q-20 0 -40.5 2.5t-36.5 8.5v119q11 -7 21 -8.5t23 -1.5q14 0 24.5 5.5t16.5 11.5q13 15 22 38.5t14 66t7.5 110.5t2.5 173v207h474v-278h143q48 0 88 -7.5
t71 -27.5q45 -29 68 -78t23 -112q0 -81 -39 -133.5t-111 -72.5q-30 -8 -66 -10.5t-79 -2.5h-253v604h-164zM766 120q48 0 74 24t26 75t-26.5 78t-77.5 27h-128v-204h132z" />
    <glyph glyph-name="afii10059" unicode="&#x40a;" horiz-adv-x="1069" 
d="M1027 219q0 -81 -39 -133.5t-111 -72.5q-30 -8 -66 -10.5t-79 -2.5h-253v324h-255v-324h-155v722h155v-278h255v278h155v-278h143q48 0 88 -7.5t71 -27.5q45 -29 68 -78t23 -112zM866 219q0 51 -26.5 78t-77.5 27h-128v-204h132q48 0 74 24t26 75z" />
    <glyph glyph-name="afii10060" unicode="&#x40b;" horiz-adv-x="809" 
d="M228 0v604h-215v118h585v-118h-215v-161q10 3 26.5 6.5t37 6.5t43 5t43.5 2q117 0 173.5 -61.5t56.5 -198.5v-203h-155v200q0 40 -5 67.5t-17 44.5t-32 24t-49 7q-14 0 -30.5 -2t-33.5 -5t-32.5 -6.5t-25.5 -6.5v-323h-155z" />
    <glyph glyph-name="afii10061" unicode="&#x40c;" horiz-adv-x="667" 
d="M67 722h155v-312l242 312h181l-265 -323l288 -399h-193l-253 368v-368h-155v722zM381 798h-80l83 145h134z" />
    <glyph glyph-name="afii10062" unicode="&#x40e;" horiz-adv-x="722" 
d="M511 930q-4 -69 -41 -108.5t-106 -39.5q-70 0 -107.5 39t-41.5 109h69q5 -34 24 -53t56 -19q36 0 54.5 18.5t23.5 53.5h69zM360 356l180 366h176l-285 -520l-104 -202h-176l128 202l-268 520h173l174 -366h2z" />
    <glyph glyph-name="afii10145" unicode="&#x40f;" horiz-adv-x="722" 
d="M69 0v722h155v-602h275v602h155v-722h-210v-151h-155v151h-220z" />
    <glyph glyph-name="afii10017" unicode="&#x410;" horiz-adv-x="706" 
d="M450 722l251 -722h-156l-52 156h-286l-54 -156h-148l261 722h184zM454 273l-100 308l-107 -308h207z" />
    <glyph glyph-name="afii10018" unicode="&#x411;" horiz-adv-x="667" 
d="M394 432q111 0 174.5 -58.5t63.5 -161.5q0 -212 -281 -212h-283v722h484v-117h-329v-173h171zM344 120q69 0 96 21.5t27 76.5q0 52 -27.5 73t-95.5 21h-121v-192h121z" />
    <glyph glyph-name="afii10019" unicode="&#x412;" horiz-adv-x="667" 
d="M68 722h270q16 0 38 -0.5t46 -3.5t48.5 -10t45.5 -20q25 -16 40.5 -36t24.5 -41t12.5 -41t3.5 -36q0 -50 -29 -93.5t-95 -63.5v-2q41 -8 70 -25.5t47.5 -41.5t27 -52t8.5 -57q0 -64 -32 -106.5t-74 -63.5q-21 -11 -48.5 -17t-53.5 -8.5t-48 -3t-32 -0.5h-270v722z
M216 428h108q16 0 37.5 1.5t41 10t32.5 27.5t13 54q0 34 -12.5 52t-31.5 26.5t-41.5 10t-41.5 1.5h-105v-183zM216 116h105q27 0 53.5 1.5t48.5 10.5t35.5 29t13.5 56q0 39 -15.5 59.5t-40 30.5t-54 11.5t-57.5 1.5h-89v-200z" />
    <glyph glyph-name="afii10020" unicode="&#x413;" horiz-adv-x="540" 
d="M69 0v722h458v-120h-303v-602h-155z" />
    <glyph glyph-name="afii10021" unicode="&#x414;" horiz-adv-x="722" 
d="M551 -151v151h-385v-151h-155v271h51q36 61 56.5 124.5t30.5 128.5t12.5 130t2.5 130v89h471v-602h71v-271h-155zM480 605h-161v-70q0 -46 -4.5 -101t-14 -111t-25.5 -108.5t-40 -94.5h245v485z" />
    <glyph glyph-name="afii10022" unicode="&#x415;" horiz-adv-x="603" 
d="M66 722h484v-117h-329v-172h308v-118h-308v-195h340v-120h-495v722z" />
    <glyph glyph-name="afii10024" unicode="&#x416;" horiz-adv-x="1050" 
d="M848 0l-251 368h-2v-368h-150v368h-2l-251 -368h-191l288 399l-265 323h179l240 -312h2v312h150v-312h2l240 312h179l-265 -323l288 -399h-191z" />
    <glyph glyph-name="afii10025" unicode="&#x417;" horiz-adv-x="667" 
d="M314 429q17 0 31.5 1t27.5 6q31 11 49 36.5t18 60.5q0 43 -28.5 67.5t-77.5 24.5q-57 0 -84.5 -24t-35.5 -79h-149q3 27 7 46t10 34t15 28t23 27q40 38 97 59t123 21q57 0 104.5 -14t82 -39t53.5 -60t19 -76q0 -69 -35 -115t-95 -57v-2q60 -14 99 -55t39 -119
q0 -48 -20.5 -88t-58 -68.5t-89.5 -44t-115 -15.5q-72 0 -130 20.5t-94 57.5q-35 35 -45 72t-10 85h158v-13q0 -51 31.5 -80t88.5 -29q54 0 86.5 29t32.5 77q0 34 -18 62.5t-47 40.5q-14 6 -37 9t-33 3h-42v111h49z" />
    <glyph glyph-name="afii10026" unicode="&#x418;" horiz-adv-x="722" 
d="M69 0v722h148v-511h3l267 511h167v-722h-148v513h-3l-269 -513h-165z" />
    <glyph glyph-name="afii10027" unicode="&#x419;" horiz-adv-x="722" 
d="M511 940q-4 -69 -41 -108.5t-106 -39.5q-70 0 -107.5 39t-41.5 109h69q5 -34 24 -53t56 -19q36 0 54.5 18.5t23.5 53.5h69zM69 0v722h148v-511h3l267 511h167v-722h-148v513h-3l-269 -513h-165z" />
    <glyph glyph-name="afii10028" unicode="&#x41a;" horiz-adv-x="667" 
d="M67 722h155v-312l242 312h181l-265 -323l288 -399h-193l-253 368v-368h-155v722z" />
    <glyph glyph-name="afii10029" unicode="&#x41b;" horiz-adv-x="722" 
d="M499 0v604h-184v-147q0 -96 -5 -164.5t-16 -118t-27.5 -83t-39.5 -58.5q-12 -13 -26.5 -21t-31 -13t-32.5 -7t-31 -2q-20 0 -40.5 2.5t-36.5 8.5v119q11 -7 21 -8.5t23 -1.5q14 0 24.5 5.5t16.5 11.5q13 15 22 38.5t14 66t7.5 110.5t2.5 173v207h494v-722h-155z" />
    <glyph glyph-name="afii10030" unicode="&#x41c;" horiz-adv-x="951" 
d="M67 722h253l153 -525l165 525h246v-722h-154v620l-197 -620h-128l-193 620v-620h-145v722z" />
    <glyph glyph-name="afii10031" unicode="&#x41d;" horiz-adv-x="719" 
d="M67 722h155v-288h273v288h157v-722h-155v317h-275v-317h-155v722z" />
    <glyph glyph-name="afii10032" unicode="&#x41e;" horiz-adv-x="778" 
d="M42 351q0 72 17.5 141.5t58.5 124t107 88t164 33.5q29 0 62 -4t67 -15t66 -30t59 -49q29 -33 47 -69.5t28 -72.5t13.5 -69.5t3.5 -60.5q0 -39 -6 -79t-17.5 -77t-28.5 -69.5t-39 -57.5q-30 -34 -65.5 -54t-70.5 -31t-67 -14.5t-54 -3.5q-72 0 -138.5 23.5t-117.5 75.5
q-30 31 -47.5 68t-27 73.5t-12 70.5t-2.5 58zM204 356q0 -52 11 -106t43 -96q17 -23 47 -40.5t84 -17.5q92 0 135 67q9 13 18 31t15.5 43t11 57.5t4.5 75.5q0 26 -3.5 61t-14.5 68q-23 67 -65.5 97.5t-99.5 30.5q-45 0 -78 -16.5t-55 -44.5q-31 -38 -42 -92.5t-11 -117.5z
" />
    <glyph glyph-name="afii10033" unicode="&#x41f;" horiz-adv-x="722" 
d="M69 0v722h585v-722h-155v604h-275v-604h-155z" />
    <glyph glyph-name="afii10034" unicode="&#x420;" horiz-adv-x="611" 
d="M65 722h223q39 0 74.5 -2.5t67 -10.5t59 -24t50.5 -43q29 -35 36.5 -71t7.5 -64q0 -63 -24.5 -113.5t-67.5 -78.5q-20 -13 -42.5 -20t-45 -10t-42.5 -3.5t-34 -0.5h-105v-281h-157v722zM218 396h62q19 0 43.5 1.5t46.5 12t37.5 33t15.5 63.5q0 37 -13.5 57t-33.5 29
t-42 10.5t-38 1.5h-78v-208z" />
    <glyph glyph-name="afii10035" unicode="&#x421;" horiz-adv-x="667" 
d="M476 497q-1 9 -4.5 30t-15.5 42.5t-35 38t-62 16.5q-43 0 -74 -21t-50.5 -57.5t-29 -85.5t-9.5 -105q0 -50 7 -96.5t24.5 -82.5t46.5 -57.5t73 -21.5q24 0 47 8t41 24.5t29.5 42.5t12.5 62h163q-1 -16 -3 -36t-8.5 -42.5t-19 -46t-34.5 -45.5q-24 -25 -52.5 -40.5
t-57.5 -24.5t-58 -12.5t-53 -3.5q-93 0 -155 33t-98.5 86.5t-51.5 120t-15 133.5q0 85 23 155.5t66 120.5t104 77.5t138 27.5q59 0 108.5 -17.5t85 -49t55.5 -75.5t20 -98h-158z" />
    <glyph glyph-name="afii10036" unicode="&#x422;" horiz-adv-x="611" 
d="M229 603h-215v119h586v-119h-215v-603h-156v603z" />
    <glyph glyph-name="afii10037" unicode="&#x423;" horiz-adv-x="722" 
d="M360 356l180 366h176l-285 -520l-104 -202h-176l128 202l-268 520h173l174 -366h2z" />
    <glyph glyph-name="afii10038" unicode="&#x424;" horiz-adv-x="833" 
d="M795 375q0 -72 -23 -126t-63.5 -89t-96 -52.5t-120.5 -17.5v-90h-149v90q-65 0 -120.5 17.5t-96 52.5t-63.5 89t-23 126q0 73 22 127t62 89t95.5 52t123.5 17v62h149v-62q67 0 123 -17t96 -52t62 -89t22 -127zM635 376q0 40 -7 73t-24 56t-44.5 35.5t-67.5 12.5v-356
q39 0 66.5 12.5t44.5 36t24.5 56.5t7.5 74zM343 553q-41 0 -68 -12.5t-44 -35.5t-24 -56t-7 -73q0 -41 7.5 -74t24.5 -56.5t44.5 -36t66.5 -12.5v356z" />
    <glyph glyph-name="afii10039" unicode="&#x425;" horiz-adv-x="722" 
d="M221 722l146 -245l156 245h166l-238 -347l252 -375h-190l-161 272l-173 -272h-166l254 374l-237 348h191z" />
    <glyph glyph-name="afii10040" unicode="&#x426;" horiz-adv-x="744" 
d="M69 0v722h155v-602h275v602h155v-602h66v-271h-155v151h-496z" />
    <glyph glyph-name="afii10041" unicode="&#x427;" horiz-adv-x="667" 
d="M444 307q-35 -8 -76 -13t-76 -5q-118 0 -173 65.5t-55 204.5v163h155v-170q0 -41 5 -68.5t17.5 -44t32.5 -23.5t50 -7q31 0 62.5 4t57.5 11v298h155v-722h-155v307z" />
    <glyph glyph-name="afii10042" unicode="&#x428;" horiz-adv-x="1075" 
d="M69 0v722h155v-602h236v602h155v-602h236v602h155v-722h-937z" />
    <glyph glyph-name="afii10043" unicode="&#x429;" horiz-adv-x="1096" 
d="M917 -151v151h-848v722h155v-602h236v602h155v-602h236v602h155v-602h66v-271h-155z" />
    <glyph glyph-name="afii10044" unicode="&#x42a;" horiz-adv-x="767" 
d="M730 219q0 -81 -39 -133.5t-111 -72.5q-30 -8 -66 -10.5t-79 -2.5h-253v604h-169v118h324v-278h143q48 0 88 -7.5t71 -27.5q45 -29 68 -78t23 -112zM569 219q0 51 -26.5 78t-77.5 27h-128v-204h132q48 0 74 24t26 75z" />
    <glyph glyph-name="afii10045" unicode="&#x42b;" horiz-adv-x="900" 
d="M834 722v-722h-155v722h155zM363 444q48 0 88 -7.5t71 -27.5q45 -29 68 -78t23 -112q0 -81 -39 -133.5t-111 -72.5q-30 -8 -66 -10.5t-79 -2.5h-253v722h155v-278h143zM352 120q48 0 74 24t26 75t-26.5 78t-77.5 27h-128v-204h132z" />
    <glyph glyph-name="afii10046" unicode="&#x42c;" horiz-adv-x="650" 
d="M363 444q48 0 88 -7.5t71 -27.5q45 -29 68 -78t23 -112q0 -81 -39 -133.5t-111 -72.5q-30 -8 -66 -10.5t-79 -2.5h-253v722h155v-278h143zM352 120q48 0 74 24t26 75t-26.5 78t-77.5 27h-128v-204h132z" />
    <glyph glyph-name="afii10047" unicode="&#x42d;" horiz-adv-x="667" 
d="M643 349q0 -86 -22.5 -153.5t-64.5 -115t-103 -72.5t-139 -25q-85 0 -147.5 32.5t-97.5 93.5q-16 27 -23 53.5t-9 71.5h163q2 -63 37 -100t92 -37q69 0 106.5 53.5t44.5 155.5h-229v115h226q-11 94 -52 148t-107 54q-105 0 -117 -127h-158q0 54 19.5 98t55 75.5t85 49
t109.5 17.5q82 0 144 -28t103.5 -79t62.5 -122t21 -158z" />
    <glyph glyph-name="afii10048" unicode="&#x42e;" horiz-adv-x="1028" 
d="M224 314v-314h-155v722h155v-289h71q20 147 108 225.5t234 78.5q85 0 149.5 -27t108 -75.5t66 -116.5t22.5 -150q0 -83 -21.5 -153.5t-65 -122t-108.5 -80.5t-153 -29q-77 0 -138.5 22.5t-105.5 65t-69.5 104t-30.5 139.5h-67zM821 370q0 45 -8 90.5t-29 82t-56.5 60
t-89.5 23.5q-56 0 -92 -24t-57 -61.5t-29 -85t-8 -93.5q0 -265 185 -265q48 0 80.5 15.5t54.5 50.5q25 38 37 88t12 119z" />
    <glyph glyph-name="afii10049" unicode="&#x42f;" horiz-adv-x="667" 
d="M443 0v293h-164q-29 0 -44.5 -24t-20.5 -75l-4 -39q-2 -26 -5 -50.5t-7 -44.5q-2 -15 -4.5 -27t-6.5 -33h-171q5 8 8.5 15t5.5 12q7 16 12.5 41.5t9.5 53.5t7.5 55.5t6.5 48.5q6 49 24 80q7 12 18.5 21t25.5 14.5t28.5 9t27.5 5.5v2q-68 18 -109 59.5t-41 117.5
q0 91 65 139t186 48h307v-722h-155zM443 604h-130q-108 0 -108 -96q0 -48 28 -73t80 -25h130v194z" />
    <glyph glyph-name="afii10065" unicode="&#x430;" 
d="M368 0q-4 23 -4.5 40.5t-0.5 28.5q-21 -30 -43.5 -46.5t-42.5 -24t-37.5 -9t-27.5 -1.5q-55 0 -83 13t-43 27q-23 23 -33.5 52t-10.5 59q0 15 3.5 35.5t15 42t32.5 42.5t56 37q23 10 50.5 15.5t54.5 8.5t52 3.5t43 0.5q0 25 -1 39t-6 28q-5 13 -14 21.5t-18.5 13t-19 6
t-14.5 1.5q-16 0 -31 -7t-25 -21q-8 -13 -9.5 -24.5t-1.5 -20.5h-145q0 10 1.5 24.5t7.5 31t17 33t31 30.5q35 25 76 33t77 8q16 0 39 -2t48 -9t49.5 -19.5t43.5 -34.5q13 -15 20 -33t10.5 -35.5t4 -32t0.5 -23.5l1 -203q0 -32 2.5 -64t9.5 -64h-134zM349 238
q-36 3 -65.5 -1t-51.5 -14.5t-34 -27.5t-12 -39q0 -13 4.5 -25.5t13.5 -23t22.5 -17t31.5 -6.5q20 0 36 8.5t27 20.5q20 24 24 53.5t4 71.5z" />
    <glyph glyph-name="afii10066" unicode="&#x431;" horiz-adv-x="611" 
d="M568 251q0 -59 -18 -108t-51.5 -84t-82.5 -54.5t-110 -19.5q-69 0 -122 24.5t-87 69.5q-28 37 -40.5 91.5t-12.5 123.5q0 40 4 85.5t14 90t27.5 84t44.5 66.5q37 37 82 52.5t91 23.5q33 5 53.5 10t29.5 16h155q-3 -23 -10.5 -46t-24 -42.5t-44 -34t-70.5 -20.5
t-81.5 -10.5t-70 -18.5t-55 -43.5t-35.5 -85.5l3 -1q26 40 68 62t94 22q125 0 187 -66.5t62 -186.5zM417 256q0 81 -27 119t-84 38q-54 0 -81.5 -39t-27.5 -124q0 -88 27 -126.5t84 -38.5t83 40t26 131z" />
    <glyph glyph-name="afii10067" unicode="&#x432;" 
d="M413 263q22 -2 42 -12t34.5 -26t23 -36.5t8.5 -42.5q0 -70 -45 -108t-130 -38h-286v504h294q36 0 63.5 -10.5t46 -27.5t28 -40t9.5 -47q0 -18 -5 -35.5t-16 -33.5t-27.5 -27.5t-39.5 -17.5v-2zM305 306q26 0 39 14t13 39q0 23 -12.5 37.5t-34.5 14.5h-106v-105h101z
M321 96q24 0 40 16t16 42q0 27 -16 43.5t-44 16.5h-113v-118h117z" />
    <glyph glyph-name="afii10068" unicode="&#x433;" horiz-adv-x="444" 
d="M216 400v-400h-150v504h365v-104h-215z" />
    <glyph glyph-name="afii10069" unicode="&#x434;" horiz-adv-x="611" 
d="M456 -141v141h-305v-141h-140v243h53q11 15 18.5 26t13 21t9.5 20t9 23q8 23 13.5 47.5t9 53t5 62.5t1.5 76v73h388v-402h65v-243h-140zM387 407h-109q-2 -64 -6 -110t-16 -91q-7 -28 -16.5 -54.5t-26.5 -49.5h174v305z" />
    <glyph glyph-name="afii10070" unicode="&#x435;" 
d="M184 215q0 -12 1.5 -35t11.5 -45t30.5 -38.5t59.5 -16.5q28 0 52.5 14t35.5 56h135q-2 -19 -9.5 -48t-38.5 -62q-28 -29 -74 -44t-103 -15q-16 0 -38.5 2t-47 9t-49 19t-43.5 33q-35 36 -50 86t-15 111q0 31 4.5 64t16 64.5t32 60t52.5 50.5q29 20 64.5 31t77.5 11
q27 0 56 -6t56 -20t51 -37.5t41 -58.5q13 -26 19.5 -52t9.5 -50.5t2.5 -45.5t-1.5 -37h-339zM372 308q0 9 -1.5 27.5t-10 37.5t-26.5 33.5t-50 14.5q-24 0 -41.5 -9.5t-29 -25t-17.5 -36t-7 -42.5h183z" />
    <glyph glyph-name="afii10072" unicode="&#x436;" horiz-adv-x="797" 
d="M624 0l-151 251h-2v-251h-144v251h-2l-151 -251h-173l184 266l-173 238h165l148 -227h2v227h144v-227h2l148 227h165l-173 -238l184 -266h-173z" />
    <glyph glyph-name="afii10073" unicode="&#x437;" horiz-adv-x="500" 
d="M385 268q18 -4 34 -15t28.5 -27t19.5 -36t7 -42q0 -38 -15.5 -68t-44.5 -51.5t-69.5 -33t-89.5 -11.5q-42 0 -82 8t-75 29q-41 26 -55 57.5t-14 75.5h137q7 -37 26 -53t57 -16q35 0 54.5 15t19.5 42q0 33 -21.5 51t-60.5 18h-42v100h46q35 0 55 14.5t20 39.5
q0 24 -18 37.5t-50 13.5q-65 0 -75 -60h-135q6 43 14 66t28 41q27 26 74 40t108 14q90 0 143.5 -37.5t53.5 -100.5q0 -35 -21 -65.5t-57 -43.5v-2z" />
    <glyph glyph-name="afii10074" unicode="&#x438;" horiz-adv-x="611" 
d="M405 0v343h-3l-166 -343h-170v504h141v-345h2l167 345h170v-504h-141z" />
    <glyph glyph-name="afii10075" unicode="&#x439;" horiz-adv-x="611" 
d="M457 722q-4 -69 -41 -108t-106 -39q-70 0 -107.5 38.5t-41.5 108.5h69q5 -34 24 -52.5t56 -18.5q36 0 54.5 18t23.5 53h69zM405 0v343h-3l-166 -343h-170v504h141v-345h2l167 345h170v-504h-141z" />
    <glyph glyph-name="afii10076" unicode="&#x43a;" 
d="M217 277h2l148 227h167l-173 -238l184 -266h-175l-151 251h-2v-251h-150v504h150v-227z" />
    <glyph glyph-name="afii10077" unicode="&#x43b;" horiz-adv-x="600" 
d="M535 0h-150v403h-118v-76q0 -177 -44 -257t-143 -80q-23 0 -62 9l-4 1v104q7 -3 19 -3q25 0 42 12t27 44.5t14 89.5t4 147v110h415v-504z" />
    <glyph glyph-name="afii10078" unicode="&#x43c;" horiz-adv-x="737" 
d="M420 0h-104l-106 348h-3v-348h-142v504h217l89 -349h2l89 349h209v-504h-142v347h-3z" />
    <glyph glyph-name="afii10079" unicode="&#x43d;" horiz-adv-x="611" 
d="M396 0v211h-180v-211h-150v504h150v-183h180v183h150v-504h-150z" />
    <glyph glyph-name="afii10080" unicode="&#x43e;" horiz-adv-x="611" 
d="M42 248q0 46 13 93.5t43 86.5t80 64t125 25q69 0 118.5 -21.5t81.5 -58t47 -84.5t15 -101t-15.5 -102t-48 -86.5t-82.5 -59.5t-119 -22q-54 0 -101 16.5t-82 50t-55 83.5t-20 116zM194 247q0 -85 28 -123.5t83 -38.5q24 0 44.5 8t34.5 28t22 53.5t8 83.5q0 25 -3.5 53
t-15 52t-33.5 39.5t-59 15.5q-41 0 -63 -20.5t-32 -48t-12 -56.5t-2 -46z" />
    <glyph glyph-name="afii10081" unicode="&#x43f;" horiz-adv-x="611" 
d="M396 0v400h-180v-400h-150v504h480v-504h-150z" />
    <glyph glyph-name="afii10082" unicode="&#x440;" horiz-adv-x="611" 
d="M204 505l4 -72q17 30 40 47t45.5 24.5t41 9t27.5 1.5q49 0 88 -17.5t66 -50.5t41.5 -79.5t14.5 -104.5q0 -54 -14 -102.5t-41.5 -86t-68.5 -59.5t-96 -22q-34 0 -58.5 8t-41 18.5t-26.5 21.5t-15 17v-252h-151v699h144zM314 90q54 0 81 46t27 121q0 22 -3.5 50.5
t-14.5 53.5t-31 42t-53 17q-18 0 -38.5 -8t-37.5 -27.5t-28.5 -52.5t-11.5 -84q0 -11 2 -37t12.5 -53t32.5 -47.5t63 -20.5z" />
    <glyph glyph-name="afii10083" unicode="&#x441;" horiz-adv-x="500" 
d="M332 326q-1 7 -3.5 22t-9 31t-19 28t-33.5 12q-26 0 -41.5 -17.5t-23.5 -42.5t-10.5 -52.5t-2.5 -48.5q0 -11 1 -31t4.5 -43t11 -45t20.5 -36q11 -11 21.5 -14t18.5 -3q6 0 16.5 2.5t21.5 12t19.5 29t10.5 53.5h146q-1 -14 -3 -32.5t-8.5 -38.5t-19 -40t-34.5 -38
q-27 -23 -61.5 -35t-82.5 -12q-51 0 -94 14t-78 53q-33 38 -48.5 88t-15.5 111q0 86 27.5 138t65.5 79.5t78 36t65 8.5q35 0 71.5 -10.5t66.5 -33t49 -58.5t19 -87h-145z" />
    <glyph glyph-name="afii10084" unicode="&#x442;" horiz-adv-x="500" 
d="M327 400v-400h-150v400h-155v104h460v-104h-155z" />
    <glyph glyph-name="afii10085" unicode="&#x443;" 
d="M174 505l111 -350l113 350h147l-191 -496l-61 -201h-149l64 190l-194 507h160z" />
    <glyph glyph-name="afii10086" unicode="&#x444;" horiz-adv-x="804" 
d="M765 250q0 -48 -15 -94t-42 -82.5t-64 -58.5t-80 -22q-23 0 -45 6t-41 25v-217h-145v217q-19 -19 -41 -25t-45 -6q-44 0 -80.5 22t-63.5 58.5t-42 82.5t-15 94q0 43 8 89t31 84q25 42 64.5 67t87.5 25q12 0 25.5 -2.5t27 -7.5t25 -12t17.5 -15v245h147v-245q6 8 17.5 15
t25 12t27 7.5t25.5 2.5q48 0 87.5 -25t64.5 -67q23 -38 31 -84t8 -89zM614 261q0 82 -21 120.5t-56 38.5q-40 0 -61 -23v-283q21 -25 59 -25q36 0 57.5 40.5t21.5 131.5zM335 397q-21 23 -61 23q-35 0 -56 -38.5t-21 -120.5q0 -91 21.5 -131.5t57.5 -40.5q38 0 59 25v283z
" />
    <glyph glyph-name="afii10087" unicode="&#x445;" 
d="M191 505l95 -165l99 165h154l-164 -246l169 -259h-175l-102 185l-103 -185h-155l169 271l-162 234h175z" />
    <glyph glyph-name="afii10088" unicode="&#x446;" horiz-adv-x="625" 
d="M66 0v504h150v-402h180v402h150v-402h65v-243h-140v141h-405z" />
    <glyph glyph-name="afii10089" unicode="&#x447;" 
d="M346 204q-29 -8 -62.5 -12t-56.5 -4q-85 0 -131 44t-46 125v147h150v-132q0 -42 19.5 -65.5t54.5 -23.5q12 0 31.5 2t40.5 7v212h150v-504h-150v204z" />
    <glyph glyph-name="afii10090" unicode="&#x448;" horiz-adv-x="867" 
d="M66 504h150v-402h143v402h150v-402h143v402h150v-504h-736v504z" />
    <glyph glyph-name="afii10091" unicode="&#x449;" horiz-adv-x="881" 
d="M66 504h150v-402h143v402h150v-402h143v402h150v-402h65v-243h-140v141h-661v504z" />
    <glyph glyph-name="afii10092" unicode="&#x44a;" horiz-adv-x="656" 
d="M623 162q0 -78 -47.5 -120t-132.5 -42h-277v400h-144v104h294v-173h119q87 0 137.5 -45.5t50.5 -123.5zM468 165q0 62 -63 62h-89v-125h94q27 0 42.5 17t15.5 46z" />
    <glyph glyph-name="afii10093" unicode="&#x44b;" horiz-adv-x="778" 
d="M564 0v504h150v-504h-150zM503 162q0 -78 -47.5 -120t-132.5 -42h-267v504h150v-173h109q87 0 137.5 -45.5t50.5 -123.5zM348 165q0 62 -63 62h-79v-125h84q27 0 42.5 17t15.5 46z" />
    <glyph glyph-name="afii10094" unicode="&#x44c;" 
d="M523 162q0 -78 -47.5 -120t-132.5 -42h-277v504h150v-173h119q87 0 137.5 -45.5t50.5 -123.5zM368 165q0 62 -63 62h-89v-125h94q27 0 42.5 17t15.5 46z" />
    <glyph glyph-name="afii10095" unicode="&#x44d;" horiz-adv-x="500" 
d="M474 253q0 -57 -14 -105.5t-42.5 -84.5t-72.5 -56t-105 -20q-48 0 -82.5 11t-63.5 36q-34 29 -48 61.5t-17 77.5h146q2 -42 21.5 -64.5t46.5 -22.5q22 0 36 13.5t22 33t11.5 41t5.5 38.5h-121v96h121q-6 54 -25 82.5t-51 28.5q-26 0 -44 -20.5t-21 -62.5h-145
q0 40 16.5 73t44.5 56.5t65.5 36.5t79.5 13q58 0 102 -20.5t74 -56t45 -83t15 -102.5z" />
    <glyph glyph-name="afii10096" unicode="&#x44e;" horiz-adv-x="811" 
d="M206 216v-216h-150v504h150v-188h46q20 100 85.5 150.5t168.5 50.5q61 0 109.5 -19t82.5 -53.5t52 -83.5t18 -109q0 -61 -18.5 -111t-52.5 -85t-83.5 -54.5t-110.5 -19.5q-55 0 -100.5 16.5t-79 46.5t-53.5 73.5t-24 97.5h-40zM617 258q0 160 -111 160q-109 0 -109 -166
q0 -88 27 -127.5t84 -39.5t83 41t26 132z" />
    <glyph glyph-name="afii10097" unicode="&#x44f;" 
d="M351 0v184h-94q-10 0 -20 -2.5t-16 -9.5q-10 -11 -12.5 -29.5t-4.5 -38.5q-1 -9 -3.5 -22.5t-5.5 -28.5t-5.5 -29t-4.5 -24h-166l12 34q14 43 18 72.5t7 52.5q4 25 21 46.5t35 26.5q-9 5 -21 15.5t-22 25.5t-17 34.5t-7 42.5q0 36 12 64.5t34 48.5t51.5 30.5t64.5 10.5
h291v-504h-147zM351 407h-94q-10 0 -21.5 -2.5t-21.5 -9.5t-16.5 -18.5t-6.5 -29.5q0 -22 7 -35t18 -19.5t23 -8.5t23 -2h89v125z" />
    <glyph glyph-name="afii10071" unicode="&#x451;" 
d="M184 215q0 -12 1.5 -35t11.5 -45t30.5 -38.5t59.5 -16.5q28 0 52.5 14t35.5 56h135q-2 -19 -9.5 -48t-38.5 -62q-28 -29 -74 -44t-103 -15q-16 0 -38.5 2t-47 9t-49 19t-43.5 33q-35 36 -50 86t-15 111q0 31 4.5 64t16 64.5t32 60t52.5 50.5q29 20 64.5 31t77.5 11
q27 0 56 -6t56 -20t51 -37.5t41 -58.5q13 -26 19.5 -52t9.5 -50.5t2.5 -45.5t-1.5 -37h-339zM372 308q0 9 -1.5 27.5t-10 37.5t-26.5 33.5t-50 14.5q-24 0 -41.5 -9.5t-29 -25t-17.5 -36t-7 -42.5h183zM313 721h102v-118h-102v118zM141 721h102v-118h-102v118z" />
    <glyph glyph-name="afii10099" unicode="&#x452;" horiz-adv-x="611" 
d="M554 54q0 -58 -15 -104.5t-42.5 -79.5t-66.5 -51t-87 -18q-24 0 -41 4v94q51 0 76.5 39t25.5 114v70q0 57 -22.5 86t-64.5 29t-67.5 -32t-25.5 -83v-122h-150v400h-59v104h59v218h149v-218h198v-104h-198v-137l2 -2q29 38 64 57t84 19q90 0 135.5 -53t45.5 -137v-93z" />
    <glyph glyph-name="afii10100" unicode="&#x453;" horiz-adv-x="444" 
d="M216 400v-400h-150v504h365v-104h-215zM249 578h-80l83 145h134z" />
    <glyph glyph-name="afii10101" unicode="&#x454;" horiz-adv-x="500" 
d="M479 173q-6 -91 -62 -138.5t-149 -47.5q-61 0 -105 20t-72.5 56t-42.5 84.5t-14 105.5q0 55 15 102.5t45 83t74 56t102 20.5q42 0 79.5 -13t65.5 -36.5t44.5 -56.5t16.5 -73h-145q-3 42 -21 62.5t-44 20.5q-32 0 -51 -28.5t-25 -82.5h121v-96h-121q1 -17 5 -38.5t12 -41
t22 -33t36 -13.5q27 0 46.5 22.5t21.5 64.5h146z" />
    <glyph glyph-name="afii10102" unicode="&#x455;" horiz-adv-x="500" 
d="M168 146q1 -12 5.5 -24.5t14.5 -22t25.5 -16t38.5 -6.5q40 0 59 18.5t19 41.5q0 17 -13.5 31t-56.5 26l-92 25q-15 4 -37 12t-42.5 23.5t-34.5 40.5t-14 64q0 37 16 66t45.5 49.5t70 31.5t89.5 11q39 0 73.5 -9t60 -27.5t41 -46.5t17.5 -66h-135q-2 21 -10 33t-19 18
t-22.5 7.5t-20.5 1.5q-30 0 -50 -13.5t-20 -36.5q0 -26 18 -35t51 -18l91 -25q69 -19 102 -54t33 -87q0 -33 -14 -64t-43 -55.5t-72.5 -39.5t-102.5 -15q-49 0 -93.5 13t-79.5 49q-25 26 -30.5 53.5t-6.5 45.5h139z" />
    <glyph glyph-name="afii10103" unicode="&#x456;" horiz-adv-x="278" 
d="M60 722h158v-129h-158v129zM65 506h148v-506h-148v506z" />
    <glyph glyph-name="afii10104" unicode="&#x457;" horiz-adv-x="278" 
d="M65 506h148v-506h-148v506zM174 721h102v-118h-102v118zM2 721h102v-118h-102v118z" />
    <glyph glyph-name="afii10105" unicode="&#x458;" horiz-adv-x="278" 
d="M-2 -94q25 -1 38.5 8.5t20 23.5t7.5 29t1 25v515h148v-552q0 -36 -8 -64t-27 -48t-51 -30.5t-79 -10.5q-6 0 -19.5 0.5t-30.5 3.5v100zM60 722h158v-129h-158v129z" />
    <glyph glyph-name="afii10106" unicode="&#x459;" horiz-adv-x="853" 
d="M813 162q0 -78 -47.5 -120t-132.5 -42h-257v403h-107v-76q0 -177 -45 -257t-144 -80q-23 0 -62 9l-4 1v104q7 -3 19 -3q25 0 42 13.5t26.5 48t13.5 93t4 148.5v100h407v-173h99q87 0 137.5 -45.5t50.5 -123.5zM658 165q0 62 -63 62h-69v-125h74q27 0 42.5 17t15.5 46z
" />
    <glyph glyph-name="afii10107" unicode="&#x45a;" horiz-adv-x="853" 
d="M813 162q0 -78 -47.5 -120t-132.5 -42h-257v227h-160v-227h-150v504h150v-173h160v173h150v-173h99q87 0 137.5 -45.5t50.5 -123.5zM658 165q0 62 -63 62h-69v-125h74q27 0 42.5 17t15.5 46z" />
    <glyph glyph-name="afii10108" unicode="&#x45b;" horiz-adv-x="611" 
d="M7 504h59v218h149v-218h208v-104h-208v-137l2 -2q29 38 64 57t84 19t86 -18.5t63 -48.5q15 -18 23.5 -50.5t8.5 -72.5v-147h-150v122q0 57 -22.5 86t-64.5 29t-67.5 -32t-25.5 -83v-122h-150v400h-59v104z" />
    <glyph glyph-name="afii10109" unicode="&#x45c;" 
d="M217 277h2l148 227h167l-173 -238l184 -266h-175l-151 251h-2v-251h-150v504h150v-227zM289 578h-80l83 145h134z" />
    <glyph glyph-name="afii10110" unicode="&#x45e;" 
d="M174 504l111 -349l113 349h147l-191 -495l-61 -201h-149l64 190l-194 506h160zM437 722q-4 -69 -41 -108t-106 -39q-70 0 -107.5 38.5t-41.5 108.5h69q5 -34 24 -52.5t56 -18.5q36 0 54.5 18t23.5 53h69z" />
    <glyph glyph-name="afii10193" unicode="&#x45f;" horiz-adv-x="611" 
d="M381 0v-141h-150v141h-165v504h150v-402h180v402h150v-504h-165z" />
    <glyph glyph-name="afii10050" unicode="&#x490;" horiz-adv-x="540" 
d="M527 604h-303v-604h-155v722h303v113h155v-231z" />
    <glyph glyph-name="afii10098" unicode="&#x491;" horiz-adv-x="444" 
d="M431 392h-215v-392h-150v504h215v103h150v-215z" />
    <glyph glyph-name="endash" unicode="&#x2013;" horiz-adv-x="500" 
d="M0 310h500v-97h-500v97z" />
    <glyph glyph-name="emdash" unicode="&#x2014;" horiz-adv-x="1000" 
d="M130 310h740v-97h-740v97z" />
    <glyph glyph-name="quoteleft" unicode="&#x2018;" horiz-adv-x="278" 
d="M169 475h-146l112 247h105z" />
    <glyph glyph-name="quoteright" unicode="&#x2019;" horiz-adv-x="278" 
d="M110 722h146l-112 -247h-105z" />
    <glyph glyph-name="quotesinglbase" unicode="&#x201a;" horiz-adv-x="278" 
d="M250 133l-119 -246h-103l74 246h148z" />
    <glyph glyph-name="quotedblleft" unicode="&#x201c;" 
d="M209 475h-145l112 247h104zM405 475h-146l112 247h105z" />
    <glyph glyph-name="quotedblright" unicode="&#x201d;" 
d="M138 722h146l-113 -247h-104zM333 722h146l-112 -247h-104z" />
    <glyph glyph-name="quotedblbase" unicode="&#x201e;" 
d="M68 -113l71 246h143l-111 -246h-103zM267 -113l71 246h143l-111 -246h-103z" />
    <glyph glyph-name="dagger" unicode="&#x2020;" 
d="M53 465v100h161v157h122v-157h157v-100h-157v-465h-122v465h-161z" />
    <glyph glyph-name="daggerdbl" unicode="&#x2021;" 
d="M495 572v-97h-159v-225h159v-97h-159v-153h-122v153h-158v97h158v225h-161v97h161v150h122v-150h159z" />
    <glyph glyph-name="bullet" unicode="&#x2022;" horiz-adv-x="350" 
d="M175 542q37 0 70 -14t57.5 -38t39 -57t14.5 -71t-14 -70.5t-39 -57.5t-58 -39t-70 -14q-38 0 -70.5 14t-57.5 39t-39 57.5t-14 70.5t14.5 71t39 57t57.5 38t70 14z" />
    <glyph glyph-name="ellipsis" unicode="&#x2026;" horiz-adv-x="1000" 
d="M117 133h127v-133h-127v133zM437 133h127v-133h-127v133zM757 133h127v-133h-127v133z" />
    <glyph glyph-name="perthousand" unicode="&#x2030;" horiz-adv-x="1000" 
d="M509 335q76 0 109 -43.5t33 -116.5q0 -23 -3 -54.5t-16.5 -60t-41.5 -49t-79 -20.5q-41 0 -68 13.5t-43 36.5t-23 54t-7 66q0 36 6.5 68t22.5 55.5t42.5 37t67.5 13.5zM511 68q25 0 34 22.5t9 74.5q0 40 -7 67t-34 27q-15 0 -23.5 -8t-13 -21.5t-5.5 -32t-1 -40.5
q0 -42 7 -65.5t34 -23.5zM845 335q77 0 110 -43.5t33 -116.5q0 -23 -3 -54.5t-16.5 -60t-41.5 -49t-79 -20.5q-41 0 -68 13.5t-43.5 36.5t-23.5 54t-7 66q0 36 6.5 68t22.5 55.5t42.5 37t67.5 13.5zM848 68q25 0 33.5 22.5t8.5 74.5q0 20 -1 37t-5.5 30t-12.5 20t-22 7
q-29 0 -36 -28.5t-7 -73.5q0 -42 7.5 -65.5t34.5 -23.5zM147 719q77 0 109.5 -43t32.5 -116q0 -23 -2.5 -54.5t-16 -60.5t-41.5 -49.5t-79 -20.5q-41 0 -68 13.5t-43.5 36.5t-23.5 54.5t-7 66.5q0 36 6.5 68t22.5 55t42.5 36.5t67.5 13.5zM150 452q25 0 33.5 22.5t8.5 74.5
q0 20 -1 37.5t-5.5 30t-12.5 20t-22 7.5q-29 0 -36 -29t-7 -74q0 -40 7.5 -64.5t34.5 -24.5zM76 -16l427 743h73l-425 -743h-75z" />
    <glyph glyph-name="guilsinglleft" unicode="&#x2039;" horiz-adv-x="278" 
d="M17 252l109 190h132l-95 -190l95 -196h-132z" />
    <glyph glyph-name="guilsinglright" unicode="&#x203a;" horiz-adv-x="278" 
d="M142 442l109 -197l-109 -189h-132l95 189l-95 197h132z" />
    <glyph glyph-name="fraction" unicode="&#x2044;" horiz-adv-x="167" 
d="M250 725h82l-417 -753h-82z" />
    <glyph glyph-name="Euro" unicode="&#x20ac;" 
d="M73 321v25q0 9 0.5 22.5t1.5 22.5h-60l19 66h47q7 54 29.5 99t58.5 78t84 51.5t107 18.5q70 0 115 -14t71 -34l-39 -124q-24 28 -57 42t-81 14q-27 0 -51 -7t-42.5 -22.5t-31.5 -40.5t-19 -61h265l-19 -66h-252q-1 -9 -2 -22.5t-1 -22.5v-25h239l-18 -66h-217
q8 -69 44 -111t96 -42q48 0 79.5 11t62.5 37v-123q-27 -22 -70.5 -32t-85.5 -10q-62 0 -109 19t-80.5 54t-53 85t-25.5 112h-69l18 66h46z" />
    <glyph glyph-name="afii61289" unicode="&#x2113;" horiz-adv-x="500" 
d="M454 53q-40 -34 -81 -50.5t-89 -16.5q-78 0 -120.5 41.5t-42.5 104.5v44l-55 -48h-2l-48 73l104 86v238q0 42 13.5 78t37 62t56.5 41t72 15q69 0 109 -41t40 -108q0 -78 -47 -151.5t-144 -155.5v-111q0 -39 19.5 -53.5t41.5 -14.5q39 0 88 37h2zM337 563q0 28 -10.5 48
t-28.5 20q-17 0 -29 -21.5t-12 -58.5v-170q43 45 61.5 91t18.5 91z" />
    <glyph glyph-name="afii61352" unicode="&#x2116;" horiz-adv-x="1120" 
d="M1081 311q0 -76 -45.5 -119.5t-124.5 -43.5q-78 0 -124 42.5t-46 117.5q0 73 46 116t124 43t124 -42t46 -114zM1081 0h-340v80h340v-80zM848 309q0 -91 63 -91t63 90q0 89 -63 89t-63 -88zM72 696h224l231 -542v542h144v-696h-213l-240 573v-573h-146v696z" />
    <glyph glyph-name="trademark" unicode="&#x2122;" horiz-adv-x="1000" 
d="M445 723h122l73 -264l79 264h118v-361h-74v310l-94 -310h-62l-93 310v-310h-69v361zM211 663h-127v60h329v-60h-126v-301h-76v301z" />
    <glyph glyph-name="Omega" unicode="&#x2126;" horiz-adv-x="765" 
d="M427 0v204q70 16 107 70q19 26 28 58.5t9 68.5q0 42 -15 78.5t-40.5 62.5t-60 41t-74.5 15q-41 0 -76 -15t-61 -41t-40.5 -62.5t-14.5 -79.5q0 -75 37.5 -126.5t104.5 -69.5v-204h-283v125h170v21q-84 29 -127 97t-43 161q0 70 26 128.5t71 100.5t105.5 65t128.5 23
q69 0 129 -22.5t105 -64t71 -99.5t26 -128q0 -46 -10 -87.5t-31 -76t-53 -59.5t-76 -38v-21h170v-125h-283z" />
    <glyph glyph-name="estimated" unicode="&#x212e;" horiz-adv-x="600" 
d="M448 295v145q-63 60 -147 60t-144 -60v-145h291zM157 259v-181q59 -59 145 -59q63 0 109 28.5t84 91.5l35 -21q-23 -36 -46.5 -61.5t-51 -42t-59.5 -24t-71 -7.5q-59 0 -106.5 21.5t-81.5 59t-52 87.5t-18 108t18 108.5t52 87.5t81.5 58.5t106.5 21.5q58 0 105.5 -20.5
t81.5 -57t53 -87t19 -111.5h-404z" />
    <glyph glyph-name="partialdiff" unicode="&#x2202;" horiz-adv-x="611" 
d="M551 358q0 -62 -10.5 -127.5t-39 -119.5t-80.5 -89t-134 -35q-52 0 -95 17.5t-73.5 49t-47.5 74.5t-17 94q0 49 16 90t45.5 71t71.5 46.5t95 16.5q38 0 70 -11t61 -31q-3 31 -9.5 66.5t-21.5 66t-41 51t-68 20.5q-35 0 -66.5 -13t-63.5 -45l-68 91q45 39 91.5 59.5
t103.5 20.5q81 0 135 -32.5t86.5 -84.5t46 -117t13.5 -129zM409 271v9.5t-1 9.5q-24 23 -50.5 36.5t-58.5 13.5q-54 0 -80.5 -36.5t-26.5 -88.5q0 -25 6.5 -46.5t19 -38t31 -26t42.5 -9.5q32 0 54.5 16.5t36.5 42t20.5 56.5t6.5 61z" />
    <glyph glyph-name="Delta" unicode="&#x2206;" horiz-adv-x="698" 
d="M9 0l268 710h128l284 -710h-680zM339 542l-151 -417h312z" />
    <glyph glyph-name="product" unicode="&#x220f;" horiz-adv-x="747" 
d="M554 -214v882h-361v-882h-133v1000h627v-1000h-133z" />
    <glyph glyph-name="summation" unicode="&#x2211;" horiz-adv-x="657" 
d="M26 -214v100l297 406l-285 394v100h584v-118h-412l265 -375l-283 -389h442v-118h-608z" />
    <glyph glyph-name="minus" unicode="&#x2212;" horiz-adv-x="584" 
d="M26 331h532v-129h-532v129z" />
    <glyph glyph-name="uni2215" unicode="&#x2215;" horiz-adv-x="167" 
d="M250 725h82l-417 -753h-82z" />
    <glyph glyph-name="uni2219" unicode="&#x2219;" horiz-adv-x="278" 
d="M74 346h127v-133h-127v133z" />
    <glyph glyph-name="radical" unicode="&#x221a;" horiz-adv-x="553" 
d="M352 -214h-116l-149 308l-51 -24l-47 102l161 74l121 -256l163 796h130z" />
    <glyph glyph-name="infinity" unicode="&#x221e;" horiz-adv-x="826" 
d="M781 265q0 -39 -12 -73t-34.5 -59.5t-55 -40t-74.5 -14.5q-31 0 -57.5 9t-50 23.5t-44 34t-39.5 40.5q-20 -21 -40 -40t-43 -34t-49 -23.5t-58 -8.5q-41 0 -74.5 14t-56.5 39t-35.5 59t-12.5 73q0 38 12 71.5t34.5 58t55 39t73.5 14.5q33 0 60 -9.5t50.5 -25.5t44 -36.5
t39.5 -42.5q18 22 38.5 43t43.5 37t50.5 25.5t59.5 9.5q41 0 73.5 -14.5t55 -39t34.5 -58t12 -71.5zM677 262q0 33 -19 55.5t-54 22.5q-18 0 -35.5 -8t-33.5 -19.5t-30 -25.5l-26 -26q25 -28 57.5 -51.5t70.5 -23.5q33 0 51.5 22t18.5 54zM347 261q-12 12 -27 25.5
t-31.5 25.5t-34 19.5t-34.5 7.5q-32 0 -51.5 -23t-19.5 -54q0 -34 20 -54.5t54 -20.5q18 0 35 7t33 17.5t30 23.5t26 26z" />
    <glyph glyph-name="integral" unicode="&#x222b;" horiz-adv-x="622" 
d="M502 702q0 -25 -16.5 -42t-42.5 -17q-21 0 -32 9.5t-17 21.5t-11 22.5t-14 12.5q-10 -4 -12 -16.5t-2 -22.5q0 -26 1.5 -51.5t1.5 -51.5v-455q0 -66 -5 -125.5t-22 -104t-50 -70.5t-88 -26q-18 0 -37 4.5t-35 14t-26 25.5t-10 40t18 41t42 17q21 0 31.5 -9.5t16.5 -21.5
t10.5 -22.5t13.5 -11.5q10 2 12 12t2 21q0 26 -1.5 52t-1.5 52v501q0 43 3 92.5t18.5 92t49.5 71t96 28.5q17 0 36 -4.5t34.5 -14t26 -25.5t10.5 -39z" />
    <glyph glyph-name="approxequal" unicode="&#x2248;" horiz-adv-x="584" 
d="M570 468q-8 -93 -50 -142.5t-111 -49.5q-30 0 -63.5 10t-66.5 22t-63 22t-53 10q-21 0 -33.5 -17t-17.5 -38h-96q3 34 13 67t29.5 58.5t49 41.5t70.5 16q31 0 62 -9t61.5 -20.5t61 -20.5t60.5 -9q22 0 34 15.5t16 43.5h97zM569 247q-4 -32 -13.5 -65t-28 -59.5t-47 -43
t-70.5 -16.5q-30 0 -64.5 10t-67.5 22.5t-63.5 22.5t-52.5 10q-21 0 -34 -17.5t-18 -44.5h-96q3 34 13 68.5t29 61.5t47.5 44t68.5 17q31 0 62.5 -9.5t63 -21t63 -21t62.5 -9.5q20 0 32 14.5t17 36.5h97z" />
    <glyph glyph-name="notequal" unicode="&#x2260;" horiz-adv-x="584" 
d="M277 110l-74 -146l-115 56l47 90h-102v127h167l43 84h-210v127h275l75 145l115 -55l-47 -90h99v-127h-164l-43 -84h207v-127h-273z" />
    <glyph glyph-name="lessequal" unicode="&#x2264;" horiz-adv-x="584" 
d="M38 18v123h508v-123h-508zM38 368v103l508 214v-136l-306 -131l306 -127v-137z" />
    <glyph glyph-name="greaterequal" unicode="&#x2265;" horiz-adv-x="584" 
d="M38 141h508v-123h-508v123zM38 291l306 127l-306 131v136l508 -214v-103l-508 -214v137z" />
    <glyph glyph-name="lozenge" unicode="&#x25ca;" horiz-adv-x="600" 
d="M354 -35h-110l-179 391l179 391h110l181 -391zM299 619l-109 -263l109 -263l111 263z" />
    <glyph glyph-name="grave.cap" unicode="&#xe300;" horiz-adv-x="278" 
d="M212 773h-85l-139 145h140z" />
    <glyph glyph-name="acute.cap" unicode="&#xe301;" horiz-adv-x="278" 
d="M152 773h-80l83 145h134z" />
    <glyph glyph-name="circumflex.cap" unicode="&#xe302;" horiz-adv-x="278" 
d="M88 918h103l104 -145h-89l-68 85l-70 -85h-90z" />
    <glyph glyph-name="caron.cap" unicode="&#xe303;" horiz-adv-x="278" 
d="M304 918l-106 -145h-117l-104 145h94l70 -91l70 91h93z" />
    <glyph glyph-name="tilde.cap" unicode="&#xe304;" horiz-adv-x="278" 
d="M-42 781q8 57 40.5 90t77.5 33q16 0 32 -5t18 -6l57 -22q5 -2 13 -4t21 -2q22 0 32.5 13.5t14.5 32.5h51q-3 -27 -11 -50t-29 -43q-11 -11 -28.5 -20t-43.5 -9q-17 0 -30.5 4t-21.5 7l-43 16q-9 3 -22 6.5t-23 3.5q-13 0 -28 -8t-25 -37h-52z" />
    <glyph glyph-name="dieresis.cap" unicode="&#xe305;" horiz-adv-x="278" 
d="M172 905h102v-118h-102v118zM0 905h102v-118h-102v118z" />
    <glyph glyph-name="macron.cap" unicode="&#xe306;" horiz-adv-x="278" 
d="M-36 812v68h342v-68h-342z" />
    <glyph glyph-name="breve.cap" unicode="&#xe307;" horiz-adv-x="278" 
d="M47 918q4 -25 14 -40.5t22.5 -24.5t26.5 -12t26 -3q27 0 44 8.5t26.5 21t14.5 26.5t8 24h61q-2 -30 -12.5 -56t-30 -46t-47.5 -31.5t-65 -11.5q-38 0 -70 14t-52 41q-19 24 -22.5 48.5t-4.5 41.5h61z" />
    <glyph glyph-name="ring.cap" unicode="&#xe308;" horiz-adv-x="278" 
d="M139 948q22 0 40.5 -8t32 -22t21 -32.5t7.5 -39.5t-8 -39.5t-21.5 -32.5t-32 -22t-39.5 -8t-39 8t-32 21.5t-22 32.5t-8 40t8 39.5t21.5 32.5t32 22t39.5 8zM139 900q-22 0 -37.5 -15.5t-15.5 -38.5q0 -22 15.5 -37.5t37.5 -15.5q23 0 38.5 15.5t15.5 37.5t-15.5 38
t-38.5 16z" />
    <glyph glyph-name="hungarumlaut.cap" unicode="&#xe309;" 
d="M198 773h-80l84 145h134zM383 773h-80l84 145h134z" />
    <glyph glyph-name="dotaccent.cap" unicode="&#xe30a;" horiz-adv-x="278" 
d="M88 905h102v-118h-102v118z" />
    <glyph glyph-name="caron.alt" unicode="&#xe30b;" horiz-adv-x="278" 
d="M224 722l-79 -159h-67l40 159h106z" />
    <glyph glyph-name="commaaccent" unicode="&#xe30c;" horiz-adv-x="278" 
d="M207 -66l-79 -159h-67l40 159h106z" />
    <glyph glyph-name="commaaccent.alt" unicode="&#xe30d;" horiz-adv-x="278" 
d="M70 585l79 159h67l-40 -159h-106z" />
    <glyph glyph-name="uniF8FF" unicode="&#xf8ff;" horiz-adv-x="512" 
d="M222 117v67h56v-67h-56zM225 234l-2 17q0 56 13 81q7 13 18 27.5t28 31.5q32 30 41 47.5t9 35.5q0 36 -22.5 60.5t-53.5 24.5t-53.5 -22t-28.5 -73l-50 8q7 72 44 104.5t91 32.5t89 -35.5t35 -95.5q0 -32 -12.5 -58.5t-50.5 -61.5q-37 -33 -43 -52q-6 -20 -6 -72h-46z
M462 50v617h-412v-617h412zM512 718v-718h-512v718h512z" />
    <glyph glyph-name="i.dot" horiz-adv-x="278" 
d="M60 722h158v-129h-158v129zM65 506h148v-506h-148v506z" />
    </font>
</defs>
</svg>
