<?xml version="1.0" standalone="no"?>
<!DOCTYPE svg PUBLIC "-//W3C//DTD SVG 1.1//EN" "http://www.w3.org/Graphics/SVG/1.1/DTD/svg11.dtd" >
<svg xmlns="http://www.w3.org/2000/svg" xmlns:xlink="http://www.w3.org/1999/xlink" version="1.1">
<metadata>
Created by FontForge 20170731 at Thu Mar 26 15:46:23 2009
 By Aleksey,,,
Part of the digitally encoded machine readable outline data for producing the Typefaces provided is copyrighted (c) 2006 - 2007 Linotype GmbH, www.linotype.com. All rights reserved. This software is the property of Linotype GmbH, and may not be reproduced, used, displayed, modified, disclosed or transferred without the express written approval of Linotype GmbH.  Copyright (c) 1987, 1991, 1993, 1994 Adobe Systems Incorporated. All Rights Reserved. Univers is a trademark of Linotype GmbH and may be registered in certain jurisdictions. This typeface is original artwork of Adrian Frutiger. The design may be protected in certain jurisdictions.
</metadata>
<defs>
<font id="UniversforKPMG-BoldOblique" horiz-adv-x="556" >
  <font-face 
    font-family="Univers for KPMG"
    font-weight="700"
    font-style="oblique"
    font-stretch="normal"
    units-per-em="1000"
    panose-1="2 11 7 3 3 5 2 9 2 4"
    ascent="724"
    descent="-276"
    x-height="505"
    cap-height="722"
    bbox="-172 -250 1169 948"
    underline-thickness="50"
    underline-position="-150"
    slope="-12"
    unicode-range="U+0020-FB02"
  />
<missing-glyph horiz-adv-x="512" 
d="M222 117v67h56v-67h-56zM225 234l-2 17q0 56 13 81q7 13 18 27.5t28 31.5q32 30 41 47.5t9 35.5q0 36 -22.5 60.5t-53.5 24.5t-53.5 -22t-28.5 -73l-50 8q7 72 44 104.5t91 32.5t89 -35.5t35 -95.5q0 -32 -12.5 -58.5t-50.5 -61.5q-37 -33 -43 -52q-6 -20 -6 -72h-46z
M462 50v617h-412v-617h412zM512 718v-718h-512v718h512z" />
    <glyph glyph-name="fi" unicode="fi" horiz-adv-x="611" 
d="M163 400h-76l22 105h76l15 69q7 33 20 62.5t36.5 51.5t60 34.5t90.5 12.5q8 0 28.5 -0.5t50.5 -4.5l-22 -103q-11 2 -16.5 2.5t-14.5 0.5q-28 0 -44.5 -6.5t-26 -16.5t-13 -21.5t-5.5 -21.5l-12 -59h93l-22 -105h-93l-85 -400h-147zM546 722h158l-27 -129h-158zM505 506
h148l-107 -506h-148z" />
    <glyph glyph-name="fl" unicode="fl" horiz-adv-x="611" 
d="M165 400h-75l22 105h75l15 69q7 33 20 62.5t37 51.5t60.5 34.5t90.5 12.5q8 0 28 -0.5t50 -4.5l-22 -103q-11 2 -16 2.5t-14 0.5q-28 0 -45 -6.5t-26.5 -16.5t-13 -21.5t-5.5 -21.5l-12 -59h94l-22 -105h-94l-85 -400h-147zM551 723h148l-153 -723h-148z" />
    <glyph glyph-name=".notdef" horiz-adv-x="512" 
d="M222 117v67h56v-67h-56zM225 234l-2 17q0 56 13 81q7 13 18 27.5t28 31.5q32 30 41 47.5t9 35.5q0 36 -22.5 60.5t-53.5 24.5t-53.5 -22t-28.5 -73l-50 8q7 72 44 104.5t91 32.5t89 -35.5t35 -95.5q0 -32 -12.5 -58.5t-50.5 -61.5q-37 -33 -43 -52q-6 -20 -6 -72h-46z
M462 50v617h-412v-617h412zM512 718v-718h-512v718h512z" />
    <glyph glyph-name=".null" horiz-adv-x="0" 
 />
    <glyph glyph-name="nonmarkingreturn" horiz-adv-x="333" 
 />
    <glyph glyph-name="space" unicode=" " horiz-adv-x="278" 
 />
    <glyph glyph-name="exclam" unicode="!" horiz-adv-x="389" 
d="M182 197l94 526h134l-125 -526h-103zM157 133h127l-28 -133h-127z" />
    <glyph glyph-name="quotedbl" unicode="&#x22;" horiz-adv-x="474" 
d="M354 697l-80 -248h-79l26 248h133zM545 697l-79 -248h-79l26 248h132z" />
    <glyph glyph-name="numbersign" unicode="#" 
d="M51 285h103l48 121h-82l23 110h103l72 181h128l-72 -181h95l72 181h129l-73 -181h83l-23 -110h-103l-48 -121h82l-23 -110h-103l-69 -175h-128l70 175h-96l-69 -175h-129l69 175h-82zM377 285l49 121h-95l-49 -121h95z" />
    <glyph glyph-name="dollar" unicode="$" 
d="M205 215q-3 -11 -4 -21.5t-1 -18.5q0 -24 8 -38t19 -21.5t22 -9.5t18 -2l37 177q-33 9 -63.5 21t-53.5 30t-37 43.5t-14 62.5q0 11 1 22.5t4 24.5q5 27 22 62t57 70q26 23 52 36.5t49 20.5t42.5 9.5t33.5 4.5l18 84h55l-18 -82q19 -2 39.5 -4.5t39.5 -9t36.5 -17.5
t31.5 -29q16 -21 21.5 -42t5.5 -41q0 -15 -2 -29t-4 -25h-134q3 19 3 33q0 34 -17 45t-44 14l-38 -178q34 -9 67 -20t58 -28.5t40.5 -43t15.5 -63.5q0 -23 -6 -50q-6 -30 -19 -55t-30 -45.5t-35.5 -35.5t-34.5 -25q-45 -28 -83.5 -34.5t-66.5 -8.5l-21 -100h-53l21 100
q-36 -1 -62.5 6t-45 17t-29.5 20.5t-15 15.5q-17 18 -23.5 39.5t-6.5 47.5q0 16 2 33.5t6 37.5h136zM373 583q-39 -2 -62 -24t-30 -54q-5 -21 -1.5 -35t12 -23.5t21 -15t26.5 -9.5zM320 102q32 2 61.5 24t37.5 61q7 32 -7 51.5t-56 31.5z" />
    <glyph glyph-name="percent" unicode="%" horiz-adv-x="889" 
d="M170 569q4 19 13.5 52t32 64t61.5 54t101 23q39 0 64.5 -9t41 -24t21.5 -36t6 -45q0 -31 -8 -69q-4 -19 -14 -52.5t-33 -66.5t-62.5 -57t-103.5 -24q-69 0 -98.5 34t-29.5 90q0 29 8 66zM279 573q-9 -39 -9 -65q0 -47 40 -47q13 0 24.5 5t22 18t19.5 35.5t17 58.5
q2 13 5 28t3 29q0 20 -8 34.5t-31 14.5t-37.5 -13t-23.5 -31t-14 -37t-8 -30zM548 182q4 19 13.5 51.5t32 63.5t61 54t101.5 23q39 0 64.5 -9t40.5 -24t21 -36t6 -45q0 -31 -8 -68q-4 -20 -14 -53.5t-32.5 -66.5t-62.5 -57t-104 -24q-69 0 -98 34t-29 89q0 30 8 68zM656 185
q-8 -40 -8 -63q0 -25 9 -37t31 -12q13 0 24.5 5t22 18t19.5 35.5t17 58.5q2 12 4.5 26t2.5 28q0 21 -8.5 36.5t-31.5 15.5q-22 0 -37 -13t-24.5 -31t-14 -36.5t-6.5 -30.5zM831 769l-546 -781h-75l546 781h75z" />
    <glyph glyph-name="ampersand" unicode="&#x26;" horiz-adv-x="778" 
d="M802 449q-10 -45 -22.5 -84t-30 -74.5t-40 -70t-52.5 -70.5l115 -152h-187l-42 67q-20 -13 -44.5 -28t-55.5 -27.5t-68.5 -20.5t-83.5 -8q-52 0 -94.5 11t-73 33t-47 54t-16.5 73q0 11 1.5 22.5t3.5 24.5q5 26 22.5 63t59.5 79q35 35 65 53.5t52 30.5q-7 6 -17 17t-19 26
t-15.5 35t-6.5 44q0 14 3 31q3 16 16 43.5t41.5 54.5t76.5 46.5t122 19.5q58 0 94.5 -12t56.5 -31t27.5 -41t7.5 -43q0 -18 -3 -31q-9 -42 -32.5 -73.5t-51 -54t-54 -37t-42.5 -22.5l115 -147q16 29 27 53t18.5 46.5t13.5 46.5t12 53h148zM407 475q9 6 24 16.5t29.5 24
t26.5 30t16 34.5q6 29 -9.5 47.5t-48.5 18.5t-57 -17.5t-30 -46.5q-3 -17 3 -34.5t15 -32.5t18.5 -26t12.5 -14zM327 330q-38 -22 -66.5 -49.5t-37.5 -69.5q-3 -15 -3 -28q1 -45 31.5 -68.5t73.5 -23.5q35 0 75 16.5t69 37.5z" />
    <glyph glyph-name="quotesingle" unicode="'" horiz-adv-x="238" 
d="M199 697h133l-80 -248h-79z" />
    <glyph glyph-name="parenleft" unicode="(" horiz-adv-x="333" 
d="M433 757q-20 -38 -45.5 -86.5t-51 -104.5t-48 -119.5t-36.5 -130.5q-11 -51 -15.5 -97.5t-4.5 -97.5t3.5 -109.5t9.5 -134.5h-109q-12 62 -19.5 124t-7.5 126q0 92 19 184q24 117 77 227t119 219h109z" />
    <glyph glyph-name="parenright" unicode=")" horiz-adv-x="333" 
d="M33 -123q21 37 47 85t51.5 105t47.5 120.5t36 130.5q11 51 15.5 96t4.5 95q0 51 -4 110.5t-10 137.5h109q12 -62 20 -124.5t8 -126.5q0 -45 -4.5 -90.5t-14.5 -91.5q-24 -117 -77.5 -227.5t-119.5 -219.5h-109z" />
    <glyph glyph-name="asterisk" unicode="*" 
d="M188 571l147 -22l-69 119l104 51l27 -138l89 141l81 -55l-123 -118l157 18l-25 -106l-144 23l68 -123l-104 -51l-28 141l-88 -142l-78 54l119 122l-156 -20z" />
    <glyph glyph-name="plus" unicode="+" horiz-adv-x="584" 
d="M267 202h-199l28 129h199l43 202h134l-43 -202h199l-28 -129h-199l-42 -202h-134z" />
    <glyph glyph-name="comma" unicode="," horiz-adv-x="278" 
d="M278 133l-172 -246h-103l127 246h148z" />
    <glyph glyph-name="hyphen" unicode="-" horiz-adv-x="333" 
d="M112 321h248l-24 -113h-248z" />
    <glyph glyph-name="period" unicode="." horiz-adv-x="278" 
d="M102 133h127l-28 -133h-127z" />
    <glyph glyph-name="slash" unicode="/" horiz-adv-x="444" 
d="M567 718l-421 -718h-117l423 718h115z" />
    <glyph glyph-name="zero" unicode="0" 
d="M111 347q5 23 15 59t27 76t41.5 80.5t58.5 72.5t78 52.5t100 20.5q37 0 64.5 -9t47 -22.5t32 -29.5t18.5 -31q11 -25 18 -53.5t7 -68.5q0 -26 -3.5 -58t-11.5 -72q-13 -61 -36 -127t-61.5 -121t-94.5 -91t-135 -36q-50 0 -84 17t-56 46.5t-31.5 69.5t-9.5 87q0 32 4 67
t12 71zM448 339q3 16 6.5 38.5t6.5 46.5t4.5 47t0.5 40q0 7 -1.5 20.5t-7.5 27t-17.5 23.5t-32.5 10q-16 0 -29 -6.5t-23.5 -15.5t-17.5 -19.5t-11 -18.5q-15 -26 -26.5 -57.5t-19.5 -60t-13 -50t-6 -27.5q-8 -36 -12.5 -70.5t-4.5 -63.5q0 -43 13.5 -69.5t47.5 -26.5
q30 0 53 22.5t40 57t29.5 75.5t20.5 77z" />
    <glyph glyph-name="one" unicode="1" 
d="M221 593q54 21 105 47t102 58h129l-148 -698h-151l115 543q-26 -17 -72.5 -41.5t-109.5 -47.5z" />
    <glyph glyph-name="two" unicode="2" 
d="M54 141l216 163q51 38 86 67t58.5 53t36 45t17.5 44q3 16 3 30q0 32 -18 45.5t-50 13.5q-28 0 -47.5 -10t-32 -25.5t-19.5 -33.5t-10 -33h-153q2 10 5.5 25t11 32.5t20 36.5t32.5 37q38 38 94.5 57t120.5 19q100 0 150 -38.5t50 -106.5q0 -11 -1.5 -22t-3.5 -23
q-8 -38 -22.5 -68.5t-42.5 -62t-73 -68t-112 -87.5l-166 -122l335 7l-24 -116h-490z" />
    <glyph glyph-name="three" unicode="3" 
d="M214 190q-2 -8 -3 -23.5t5 -31t21.5 -27t46.5 -11.5q42 0 72 26.5t38 68.5q8 39 -4.5 59.5t-35.5 30.5t-53 11.5t-57 1.5l25 117q26 1 57 3t59 12t49.5 30.5t29.5 58.5q9 42 -12.5 62.5t-55.5 20.5q-16 0 -32.5 -5.5t-31 -16.5t-25 -27t-15.5 -38h-153q7 23 20 54.5
t46 63.5q45 42 99.5 59.5t111.5 17.5t95.5 -14t61 -36.5t32 -50t9.5 -54.5q0 -20 -4 -35q-9 -44 -31.5 -73t-48.5 -47t-50.5 -26.5t-36.5 -11.5q15 -5 34.5 -14t39.5 -29t27 -43t7 -45t-4 -37q-9 -44 -36.5 -82t-67 -65.5t-89.5 -43t-104 -15.5q-18 0 -40 2t-43.5 7.5
t-41 14.5t-33.5 23q-22 22 -29 48t-7 51q0 19 2 34.5t4 24.5h152z" />
    <glyph glyph-name="four" unicode="4" 
d="M48 152l29 135l367 411h149l-93 -431h95l-24 -115h-95l-32 -152h-148l32 152h-280zM184 264h176l39 184q1 3 3.5 13t5 22t5 23.5t4.5 18.5z" />
    <glyph glyph-name="five" unicode="5" 
d="M215 172q-2 -6 -1.5 -19t6.5 -26t20 -23t40 -10q20 0 40.5 7.5t38.5 23.5t31.5 40.5t20.5 59.5q6 22 6 45q0 35 -17 57.5t-55 22.5q-26 0 -44 -8.5t-30.5 -20.5t-19.5 -23.5t-10 -17.5l-144 4l104 413h423l-25 -114h-291l-45 -173q10 7 22.5 16t29.5 16.5t39 12.5t51 5
q36 0 66.5 -11t52.5 -31.5t34.5 -51t12.5 -69.5q0 -14 -2 -28.5t-5 -30.5q-9 -45 -32.5 -90t-61 -81t-90 -59t-119.5 -23q-55 0 -103.5 16.5t-75.5 59.5q-11 18 -15 35.5t-4 34.5q0 12 1 22.5t3 18.5h148z" />
    <glyph glyph-name="six" unicode="6" 
d="M482 525q6 38 -12 53.5t-46 15.5q-37 0 -62.5 -20.5t-42 -50.5t-26.5 -64t-16 -61q10 9 25 18.5t33.5 18t41 14t49.5 5.5q31 0 59.5 -9.5t51 -29.5t36 -50t13.5 -72q0 -29 -7 -60q-12 -58 -38.5 -101.5t-74.5 -80.5q-42 -32 -86.5 -48.5t-104.5 -16.5q-59 0 -96 17
t-58 44.5t-29 61.5t-8 69q0 37 6 70t11 55q11 52 26.5 104.5t38 99.5t52.5 86t71 65q27 17 53.5 26.5t49.5 14.5t41 6.5t28 1.5q35 0 66.5 -8.5t55 -25.5t37.5 -44t14 -64q0 -21 -4 -40h-148zM307 98q16 0 34.5 6t35.5 20.5t31 38.5t22 60q4 19 4 39q0 39 -18.5 60t-50.5 21
q-10 0 -27.5 -4t-36.5 -17t-36.5 -37.5t-26.5 -64.5q-5 -25 -5 -41q0 -42 22 -61.5t52 -19.5z" />
    <glyph glyph-name="seven" unicode="7" 
d="M185 697h473l-27 -124l-361 -573h-167l378 581h-321z" />
    <glyph glyph-name="eight" unicode="8" 
d="M251 366q-11 4 -28.5 11t-34 20t-29 33.5t-12.5 50.5q0 8 1 16.5t3 17.5q7 32 28 66.5t56 63t84.5 47t113.5 18.5q94 0 147.5 -42t53.5 -110q0 -20 -4 -37q-7 -32 -24 -58t-40 -46t-50.5 -32.5t-54.5 -16.5q10 -3 22.5 -7.5t25.5 -12t25.5 -20.5t22.5 -32q15 -32 15 -64
q0 -17 -5 -40q-10 -48 -39 -85.5t-69.5 -64t-90 -40t-100.5 -13.5q-47 0 -84 12.5t-63 34.5t-40 52t-14 65q0 22 4 39q9 42 29.5 71t47.5 51q31 25 56.5 35t46.5 17zM370 423q39 0 71.5 24t42.5 66q8 43 -15.5 65t-59.5 22q-19 0 -36.5 -6t-32.5 -17.5t-25.5 -27.5
t-14.5 -36q-8 -37 10 -63.5t60 -26.5zM301 96q16 0 34.5 5.5t35.5 18t31 33t20 49.5q10 48 -14 74.5t-64 26.5q-45 0 -78.5 -29t-43.5 -74q-6 -27 -1 -46.5t17 -32t28.5 -19t34.5 -6.5z" />
    <glyph glyph-name="nine" unicode="9" 
d="M220 170q-4 -32 11 -50t47 -18q39 0 65 18.5t43.5 47.5t27.5 65.5t17 72.5q-45 -34 -79.5 -41t-57.5 -7q-51 0 -85 15t-53.5 38.5t-27.5 52.5t-8 58t6 55q10 49 35.5 90.5t64.5 72.5t88.5 48.5t107.5 17.5t95.5 -16.5t59 -43.5t29.5 -62t8 -72q0 -40 -6.5 -78.5
t-12.5 -67.5q-23 -111 -56.5 -184t-77.5 -116.5t-98 -61t-117 -17.5q-9 0 -26 0.5t-37 4.5t-41.5 12t-39 22.5t-28.5 37.5t-11 56q0 23 6 50h151zM346 373q28 0 49 11t35 27.5t23 37t13 38.5q2 8 3 16t1 16q0 33 -18 53.5t-56 20.5q-27 0 -47.5 -9.5t-35.5 -25.5
t-24.5 -35.5t-13.5 -39.5q-1 -5 -2 -13.5t-1 -18.5q0 -13 3 -26.5t11 -25t22.5 -19t37.5 -7.5z" />
    <glyph glyph-name="colon" unicode=":" horiz-adv-x="278" 
d="M104 134h126l-28 -134h-126zM183 505h126l-29 -135h-126z" />
    <glyph glyph-name="semicolon" unicode=";" horiz-adv-x="278" 
d="M187 505h126l-29 -135h-126zM263 133l-172 -246h-102l126 246h148z" />
    <glyph glyph-name="less" unicode="&#x3c;" horiz-adv-x="584" 
d="M96 334l576 206l-29 -140l-401 -133l344 -133l-30 -141l-488 207z" />
    <glyph glyph-name="equal" unicode="=" horiz-adv-x="584" 
d="M121 447h532l-28 -129h-532zM71 215h532l-27 -129h-532z" />
    <glyph glyph-name="greater" unicode="&#x3e;" horiz-adv-x="584" 
d="M24 -7l30 141l400 133l-343 133l29 140l489 -206l-28 -134z" />
    <glyph glyph-name="question" unicode="?" horiz-adv-x="500" 
d="M176 162l20 93q2 17 11.5 36.5t43.5 51.5l55 49q37 34 68 70.5t39 74.5q2 9 2.5 25.5t-8 33t-30 28.5t-63.5 12q-35 0 -64.5 -6.5t-73.5 -17.5l22 104q30 8 71.5 14t101.5 6q39 0 75.5 -8.5t65 -26t45.5 -45t17 -66.5q0 -10 -1.5 -20t-3.5 -21q-3 -14 -12.5 -40.5
t-35.5 -55.5q-15 -16 -25 -26.5t-17.5 -17.5t-13 -11.5t-10.5 -7.5l-67 -51q-24 -18 -38.5 -30.5t-23 -23t-12.5 -20.5t-7 -22l-17 -81h-114zM164 120h120l-25 -120h-120z" />
    <glyph glyph-name="at" unicode="@" horiz-adv-x="975" 
d="M826 90q-49 -31 -92 -52t-83 -33.5t-78 -17.5t-75 -5q-74 0 -132.5 20.5t-99 57.5t-62 89.5t-21.5 116.5q0 41 9 86q19 90 66.5 161.5t113.5 121.5t144 76.5t159 26.5q59 0 110.5 -14.5t89.5 -44t60 -73t22 -100.5q0 -17 -2 -33.5t-6 -35.5q-11 -53 -36.5 -100t-60 -82
t-76.5 -55.5t-85 -20.5q-17 0 -37.5 6t-32.5 26q-8 14 -8 26t1 21q-20 -27 -40.5 -43.5t-40 -25.5t-37.5 -12.5t-33 -3.5q-48 0 -77 28.5t-29 80.5q0 11 1.5 21.5t3.5 22.5q9 44 33 86.5t57.5 76t74.5 54t84 20.5q20 0 41.5 -6t34.5 -21q9 -10 11.5 -18t4.5 -16l23 45h99
l-104 -206q-8 -14 -15.5 -30.5t-10.5 -30.5q-4 -18 5 -26.5t22 -8.5q19 0 43 14t46.5 39.5t41.5 62t28 81.5q6 31 6 57q0 50 -20 84.5t-52 56t-72.5 31t-81.5 9.5q-67 0 -132 -21.5t-120 -63.5t-95.5 -104t-57.5 -143q-5 -20 -6.5 -39t-1.5 -36q0 -55 19 -98.5t53.5 -73.5
t83.5 -45.5t110 -15.5q17 0 44 2t63.5 11t81.5 28t98 54zM477 311q-1 -4 -2 -14.5t1 -22t10.5 -20.5t26.5 -9q14 0 26 6.5t22.5 15.5t18 19.5t12.5 18.5q15 21 27 45t21 44.5t14 34t5 15.5q4 17 -5 32t-34 15q-20 0 -42 -15.5t-42 -41t-36 -58t-23 -65.5z" />
    <glyph glyph-name="A" unicode="A" horiz-adv-x="706" 
d="M603 722l98 -722h-156l-19 156h-286l-87 -156h-148l414 722h184zM512 273l-35 308l-172 -308h207z" />
    <glyph glyph-name="B" unicode="B" horiz-adv-x="667" 
d="M221 722h270q16 0 38 -0.5t45.5 -3.5t46.5 -10t41 -20q31 -23 41.5 -53.5t10.5 -59.5q0 -11 -1 -21.5t-3 -19.5q-11 -50 -49 -93.5t-108 -63.5l-1 -2q33 -6 55.5 -19.5t37 -31.5t21 -40t6.5 -45q0 -10 -1 -20t-3 -20q-14 -64 -54.5 -106.5t-87.5 -63.5q-23 -11 -51.5 -17
t-55.5 -8.5t-49 -3t-32 -0.5h-270zM306 428h108q17 0 38.5 1.5t42.5 10t38 27.5t25 54q7 34 -2 52t-26 26.5t-39 10t-41 1.5h-105zM240 116h105q27 0 54 1.5t50.5 10.5t41.5 29t26 56q8 39 -3 59.5t-33.5 30.5t-51.5 11.5t-57 1.5h-89z" />
    <glyph glyph-name="C" unicode="C" horiz-adv-x="667" 
d="M581 497q1 9 2 30t-6.5 42.5t-27 38t-58.5 16.5q-44 0 -79 -21t-62.5 -57.5t-47 -85.5t-31.5 -105q-14 -62 -14 -114q0 -31 6 -57t19 -45.5t34 -30.5t51 -11q25 0 49.5 8t46 24.5t38 42.5t25.5 62h163q-5 -15 -11 -35.5t-17 -43t-28.5 -46t-44.5 -45.5
q-29 -25 -60.5 -40.5t-63 -24.5t-61 -12.5t-53.5 -3.5q-73 0 -121.5 20.5t-78 55t-42 80.5t-12.5 97q0 29 3.5 59.5t9.5 60.5q18 85 56 155.5t92 120.5t121 77.5t143 27.5q51 0 92.5 -13t71 -37t45 -58.5t15.5 -76.5q0 -27 -6 -55h-158z" />
    <glyph glyph-name="D" unicode="D" horiz-adv-x="722" 
d="M218 722h239q15 0 43 -1.5t61.5 -8t68 -20t62.5 -37.5q40 -35 56 -84t16 -103q0 -24 -2.5 -48.5t-7.5 -48.5q-18 -83 -52 -146.5t-78.5 -108.5t-96.5 -72t-106 -36q-11 -2 -22.5 -3.5t-26.5 -2.5t-35 -1.5t-47 -0.5h-225zM247 119q13 -1 29.5 -1.5t30.5 -0.5q51 0 94 8
t85 42q28 23 47 52.5t31.5 59t19.5 54.5t10 38q9 40 9 78q0 52 -21 91t-72 54q-19 5 -43.5 8t-67.5 3h-23t-26 -1z" />
    <glyph glyph-name="E" unicode="E" horiz-adv-x="603" 
d="M219 722h484l-25 -117h-329l-36 -172h308l-26 -118h-308l-41 -195h340l-25 -120h-495z" />
    <glyph glyph-name="F" unicode="F" 
d="M222 722h466l-25 -116h-311l-38 -178h290l-25 -120h-290l-65 -308h-155z" />
    <glyph glyph-name="G" unicode="G" horiz-adv-x="778" 
d="M659 495q1 7 2 15t1 17q0 22 -8 41q-8 18 -21 29t-28 17t-31 8t-29 2q-66 0 -113 -26.5t-78.5 -66.5t-49.5 -87t-27 -89q-4 -17 -7 -38.5t-3 -45.5q0 -29 6 -58t23 -52q20 -30 56 -46t101 -16q56 0 81.5 5t39.5 9l32 152h-140l25 120h295l-76 -361q-18 -6 -43 -13
t-58 -13t-75.5 -10t-96.5 -4q-62 0 -108 7t-80 20t-57.5 30.5t-40.5 38.5q-29 37 -40 79.5t-11 85.5q0 28 3.5 55t8.5 50q20 96 63.5 168.5t104.5 121t136 73t157 24.5q35 0 68.5 -5t63.5 -16t54.5 -28.5t40.5 -41.5q15 -25 21 -48.5t6 -45.5q0 -16 -2.5 -30t-4.5 -27h-161z
" />
    <glyph glyph-name="H" unicode="H" horiz-adv-x="719" 
d="M220 722h155l-61 -288h273l61 288h157l-153 -722h-155l67 317h-275l-67 -317h-155z" />
    <glyph glyph-name="I" unicode="I" horiz-adv-x="289" 
d="M220 722h155l-153 -722h-155z" />
    <glyph glyph-name="J" unicode="J" horiz-adv-x="548" 
d="M210 234q-6 -32 -6 -56q0 -34 14.5 -53t49.5 -19q22 0 38 7t27 16.5t17.5 20t9.5 17.5q9 23 16.5 53.5t13.5 59.5l94 442h157l-94 -443q-9 -42 -21.5 -79t-32 -69.5t-46.5 -59t-66 -47.5q-24 -13 -58.5 -22t-88.5 -9q-59 0 -103 17t-67 71q-8 18 -11.5 38t-3.5 40
q0 22 3 41.5t6 33.5h152z" />
    <glyph glyph-name="K" unicode="K" horiz-adv-x="667" 
d="M220 722h155l-66 -312l308 312h181l-334 -323l204 -399h-193l-175 368l-78 -368h-155z" />
    <glyph glyph-name="L" unicode="L" 
d="M222 722h158l-127 -599h310l-26 -123h-468z" />
    <glyph glyph-name="M" unicode="M" horiz-adv-x="951" 
d="M220 722h253l41 -525l277 525h246l-153 -722h-154l131 620l-328 -620h-128l-62 620l-131 -620h-145z" />
    <glyph glyph-name="N" unicode="N" horiz-adv-x="773" 
d="M220 722h224l150 -568l121 568h144l-153 -722h-213l-153 600l-127 -600h-146z" />
    <glyph glyph-name="O" unicode="O" horiz-adv-x="778" 
d="M116 351q15 72 47.5 141.5t85 124t126 88t170.5 33.5q28 0 61 -4t64.5 -15t60 -30t48.5 -49q26 -39 36 -83t10 -86q0 -29 -3.5 -55t-8.5 -48q-9 -40 -23.5 -79.5t-33.5 -76.5t-43 -69.5t-51 -57.5q-38 -34 -77.5 -54t-77 -31t-70 -14.5t-54.5 -3.5q-71 0 -134 23.5
t-101 75.5q-26 35 -35 76t-9 81q0 32 3.5 61t8.5 52zM279 356q-5 -24 -8.5 -49t-3.5 -50q0 -28 5 -54t18 -49q12 -23 38.5 -40.5t80.5 -17.5q92 0 149 67q24 27 49.5 74t43.5 133q5 20 8.5 45.5t3.5 51.5q0 8 -0.5 16t-1.5 16q-9 67 -45 97.5t-93 30.5q-45 0 -81.5 -16.5
t-64.5 -44.5q-39 -38 -61.5 -92.5t-36.5 -117.5z" />
    <glyph glyph-name="P" unicode="P" horiz-adv-x="611" 
d="M218 722h223q39 0 74 -2.5t65 -10.5t54 -24t41 -43q12 -20 16.5 -40.5t4.5 -40.5q0 -14 -2 -28t-4 -26q-14 -63 -49 -113.5t-84 -78.5q-23 -13 -47 -20t-47 -10t-43 -3.5t-34 -0.5h-105l-59 -281h-157zM302 396h62q19 0 44 1.5t49 12t44 33t29 63.5q3 16 3 29
q0 26 -11.5 40t-28.5 20.5t-35.5 7.5t-33.5 1h-78z" />
    <glyph glyph-name="Q" unicode="Q" horiz-adv-x="778" 
d="M760 -2q-17 0 -40 0.5t-47.5 0.5t-48 0.5t-41.5 0.5q-14 0 -47.5 -1.5t-71.5 -3.5q-37 -2 -69.5 -4t-45.5 -2q-77 0 -125.5 24.5t-76.5 62.5t-38.5 85t-10.5 92q0 29 3 55.5t8 47.5q16 73 50.5 142t88 122t126 85t164.5 32q59 0 107 -16.5t82.5 -49t53 -80.5t18.5 -111
q0 -49 -12 -107q-13 -62 -35 -107t-46 -77t-47 -52.5t-38 -32.5q20 4 50.5 6t64.5 2h24t24 -1zM271 365q-5 -23 -8 -48.5t-3 -51.5q0 -31 6 -60.5t21 -52.5t40.5 -37t64.5 -14q57 0 98 26.5t69 67t45 88.5t26 92q7 32 9.5 56.5t2.5 44.5q0 29 -4.5 49.5t-12.5 34.5
q-5 10 -14 22t-23 22t-33.5 16.5t-45.5 6.5q-51 0 -90.5 -22.5t-69 -59t-49 -84t-29.5 -96.5z" />
    <glyph glyph-name="R" unicode="R" horiz-adv-x="667" 
d="M219 722h277q30 0 60 -1t57 -5.5t50.5 -14t41.5 -27.5q20 -21 29 -47t9 -52q0 -11 -1.5 -20.5t-3.5 -19.5q-11 -51 -36.5 -83.5t-54.5 -52t-56 -28.5t-41 -13q30 -3 49.5 -11.5t30 -21.5t14.5 -31t4 -40q0 -14 -1 -29.5t-3 -32.5q-5 -64 -6.5 -94.5t-0.5 -45.5
q1 -24 3.5 -33.5t7.5 -18.5h-171q0 15 2.5 52t5.5 78t5 75.5t1 45.5q-2 15 -9.5 23.5t-17.5 12.5t-21 4.5t-21 0.5h-136l-62 -292h-158zM305 407h125q14 0 37.5 2.5t45.5 17.5q5 3 13 9.5t16.5 16.5t16.5 24.5t12 33.5q8 37 -2 55.5t-19 25.5q-15 13 -38 15t-60 2h-104z" />
    <glyph glyph-name="S" unicode="S" horiz-adv-x="667" 
d="M242 231q-2 -8 -4.5 -21.5t-2.5 -28.5t4 -30.5t16 -28t33 -20.5t55 -8q63 0 106 27.5t53 73.5q5 24 0 39t-20 25.5t-39 17.5t-57 15q-53 14 -95 30t-71 36.5t-44 47t-15 62.5q0 18 5 43q9 45 34 85.5t67 71t100 49t133 18.5q28 0 57 -4t56 -13.5t49.5 -26t37.5 -41.5
q11 -20 15 -40t4 -38t-2.5 -32.5t-4.5 -23.5h-149q1 9 1.5 27.5t-7 37t-27.5 32t-60 13.5q-54 0 -92.5 -26.5t-47.5 -71.5q-6 -25 0.5 -41t24 -27t45.5 -19t64 -18q40 -10 77.5 -21.5t67 -30t47.5 -45.5t18 -67q0 -10 -1.5 -20t-3.5 -21q-11 -49 -40 -91.5t-74.5 -74.5
t-107 -50.5t-136.5 -18.5t-121 15.5t-72 40t-35 55t-9 59.5q0 23 3.5 43t6.5 35h158z" />
    <glyph glyph-name="T" unicode="T" horiz-adv-x="611" 
d="M357 603h-215l25 120h586l-25 -120h-215l-128 -603h-156z" />
    <glyph glyph-name="U" unicode="U" horiz-adv-x="746" 
d="M368 722l-94 -441q-4 -19 -7 -38.5t-3 -38.5q0 -21 5.5 -39t20 -32t39.5 -22t64 -8q9 0 27 1t39.5 7t44.5 19t43 36q14 16 25.5 42.5t23.5 80.5l92 433h151l-96 -452q-17 -81 -57.5 -135.5t-93 -87.5t-112 -47t-114.5 -14q-27 0 -62.5 4t-70.5 17.5t-65.5 38t-47.5 65.5
q-14 34 -14 74q0 24 4.5 49.5t10.5 54.5l92 433h155z" />
    <glyph glyph-name="V" unicode="V" horiz-adv-x="722" 
d="M334 722l68 -569l311 569h153l-419 -722h-169l-113 722h169z" />
    <glyph glyph-name="W" unicode="W" horiz-adv-x="1000" 
d="M328 722l-3 -541l256 541h175l12 -541l232 541h148l-337 -722h-172l-14 552l-258 -552h-176l-23 722h160z" />
    <glyph glyph-name="X" unicode="X" horiz-adv-x="722" 
d="M374 722l94 -245l208 245h166l-312 -347l173 -375h-190l-104 272l-230 -272h-166l333 374l-163 348h191z" />
    <glyph glyph-name="Y" unicode="Y" horiz-adv-x="667" 
d="M350 722l79 -331l222 331h159l-342 -459l-55 -263h-153l56 265l-147 457h181z" />
    <glyph glyph-name="Z" unicode="Z" horiz-adv-x="611" 
d="M55 132l479 475l-356 -3l25 118h523l-29 -137l-477 -472l386 6l-25 -119h-554z" />
    <glyph glyph-name="bracketleft" unicode="[" horiz-adv-x="333" 
d="M427 660h-109l-147 -690h109l-20 -93h-229l186 875h229z" />
    <glyph glyph-name="backslash" unicode="\" horiz-adv-x="278" 
d="M296 718l119 -718h-117l-117 718h115z" />
    <glyph glyph-name="bracketright" unicode="]" horiz-adv-x="333" 
d="M205 752h229l-186 -875h-229l20 93h109l147 690h-109z" />
    <glyph glyph-name="asciicircum" unicode="^" horiz-adv-x="584" 
d="M380 697h117l89 -433h-138l-46 272l-157 -272h-138z" />
    <glyph glyph-name="underscore" unicode="_" horiz-adv-x="500" 
d="M-15 -75h499l-11 -50h-499z" />
    <glyph glyph-name="grave" unicode="`" horiz-adv-x="278" 
d="M336 585h-85l-108 145h140z" />
    <glyph glyph-name="a" unicode="a" 
d="M368 0q1 23 4 40.5t5 28.5q-27 -30 -53 -46.5t-48 -24t-39.5 -9t-27.5 -1.5q-55 0 -80.5 13t-37.5 27q-24 33 -24 76q0 8 1 17t3 18q3 15 11 35.5t24 42t41.5 42.5t63.5 37q25 10 53.5 15.5t56.5 8.5t53 3.5t43 0.5q5 25 7.5 39t0.5 28q-2 13 -9.5 21.5t-16.5 13t-17.5 6
t-13.5 1.5q-16 0 -32.5 -7t-29.5 -21q-11 -13 -15 -24.5t-6 -20.5h-145q3 10 7.5 24.5t13.5 31t23.5 33t37.5 30.5q40 25 83 33t79 8q16 0 38.5 -2t46.5 -9t45.5 -19.5t35.5 -34.5q9 -15 12.5 -32.5t3.5 -34.5q0 -18 -2.5 -33t-4.5 -24l-42 -203q-7 -32 -11.5 -64t-3.5 -64
h-134zM399 238q-8 1 -15 1h-14q-60 0 -101.5 -21t-49.5 -62q-3 -13 -1.5 -25.5t8 -23t19 -17t30.5 -6.5q20 0 38 8.5t32 20.5q24 24 35 53.5t19 71.5z" />
    <glyph glyph-name="b" unicode="b" horiz-adv-x="611" 
d="M213 722h148l-59 -278q24 25 48 38.5t45 20t38 8t26 1.5q78 0 125 -49t47 -140q0 -18 -1.5 -37.5t-6.5 -40.5q-15 -71 -44.5 -119.5t-66 -78.5t-77.5 -43.5t-78 -13.5q-10 0 -28 1.5t-38 9.5t-38.5 24t-29.5 46l-20 -71h-143zM471 240q2 11 5.5 30.5t3.5 42.5
q0 18 -3.5 36t-12.5 32t-25 23t-41 9q-41 0 -67.5 -20t-42 -46t-22.5 -52t-10 -38q-7 -34 -7 -65q0 -54 23 -79.5t64 -25.5q38 0 63 20t40.5 46.5t22.5 51.5t9 35z" />
    <glyph glyph-name="c" unicode="c" horiz-adv-x="500" 
d="M401 326q1 7 2 22t-2.5 31t-13.5 28t-31 12q-26 0 -45.5 -17.5t-33 -42.5t-22 -52.5t-12.5 -48.5q-2 -13 -6.5 -38.5t-4.5 -52.5q0 -19 3.5 -36t11.5 -28t18.5 -14t18.5 -3q6 0 17 2.5t23.5 12t25.5 29t22 53.5h146q-4 -15 -10 -33t-16.5 -37.5t-27.5 -40t-42 -38.5
q-32 -23 -69 -35t-85 -12q-51 0 -91.5 14t-66.5 53q-31 49 -31 117q0 38 9 82q18 86 56.5 138t82.5 79.5t86 36t67 8.5q31 0 62 -8t55 -25.5t39 -45t15 -66.5q0 -10 -1.5 -21t-3.5 -23h-145z" />
    <glyph glyph-name="d" unicode="d" horiz-adv-x="611" 
d="M552 722h149l-136 -640q-5 -23 -8 -45.5t-5 -36.5h-150l11 73q-11 -14 -24 -28t-39 -29q-32 -18 -59.5 -22t-44.5 -4q-83 0 -127 44t-44 125q0 39 10 82q13 63 39.5 113t63.5 85t82 54t95 19q34 0 57 -8.5t37.5 -19.5t22 -22.5t11.5 -18.5zM236 245q-7 -31 -7 -63
q0 -41 17 -68.5t58 -27.5q32 0 60.5 17t45.5 40q23 32 34 66t15 53q3 16 5 30t2 27q0 48 -21.5 72t-62.5 24q-37 0 -63 -19.5t-43 -46.5t-26.5 -56t-13.5 -48z" />
    <glyph glyph-name="e" unicode="e" 
d="M229 215q-2 -8 -4.5 -22t-2.5 -30q0 -15 3.5 -29.5t12.5 -26.5t25 -19.5t41 -7.5q28 0 55 14t47 56h135q-5 -18 -19.5 -48t-51.5 -62q-34 -29 -83.5 -44t-106.5 -15q-16 0 -38 2t-45 9t-44.5 19t-36.5 33q-17 23 -25 51.5t-8 61.5q0 20 2.5 40.5t7.5 43.5q6 31 17.5 64
t30 64.5t45 60t63.5 50.5q68 42 150 42q27 0 54.5 -6t52 -20t43.5 -37.5t29 -58.5q5 -17 6.5 -33t1.5 -33q0 -35 -6 -66t-12 -53h-339zM437 308q2 6 3.5 16.5t1.5 23.5q0 12 -3 25t-10.5 23.5t-21 17.5t-34.5 7q-24 0 -43.5 -9.5t-34.5 -25t-25 -36t-16 -42.5h183z" />
    <glyph glyph-name="f" unicode="f" horiz-adv-x="333" 
d="M160 400h-75l22 105h75l15 69q7 33 20 62.5t37 51.5t60.5 34.5t90.5 12.5q8 0 28 -0.5t51 -4.5l-22 -103q-11 2 -16.5 2.5t-14.5 0.5q-28 0 -45 -6.5t-26.5 -16.5t-13 -21.5t-5.5 -21.5l-12 -59h94l-22 -105h-94l-85 -400h-147z" />
    <glyph glyph-name="g" unicode="g" horiz-adv-x="611" 
d="M650 503q-9 -30 -17 -58.5t-16 -66.5l-79 -373q-15 -70 -49.5 -110.5t-77 -61.5t-88 -26.5t-81.5 -5.5q-25 0 -57.5 3.5t-62 16t-50 38.5t-20.5 71q0 15 3 33h142q-1 -6 -1 -17.5t7 -23t22.5 -20.5t44.5 -9q33 0 62 16t44 50q4 9 7.5 18.5t7 22t7.5 31.5t10 48
q-23 -23 -44.5 -37t-40 -21t-35 -9t-30.5 -2q-44 0 -76 14.5t-52.5 39t-30.5 57.5t-10 69q0 31 8 68q10 48 33 93t57.5 80t79.5 56t99 21q35 0 57.5 -8t36.5 -19.5t21 -24t11 -20.5l19 67h139zM245 258q-2 -7 -4.5 -22.5t-2.5 -34.5q0 -16 3 -32t11 -29t23 -21t38 -8
q39 0 64.5 19.5t40.5 44.5t21.5 48.5t8.5 31.5q3 14 5 30t2 33t-3.5 33.5t-12 29t-23 20.5t-37.5 8q-42 0 -79.5 -35t-54.5 -116z" />
    <glyph glyph-name="h" unicode="h" horiz-adv-x="611" 
d="M222 722h147l-61 -286q8 9 21.5 22t33 25t46 20.5t61.5 8.5q28 0 50 -6.5t38 -16t27 -21.5t18 -24q13 -24 13 -65q0 -30 -9 -72l-65 -307h-147l64 302q2 8 3.5 19.5t1.5 24.5q0 12 -2.5 24t-9.5 21t-20 15t-33 6q-15 0 -33 -5t-34.5 -17t-30 -31.5t-19.5 -49.5l-64 -309
h-149z" />
    <glyph glyph-name="i" unicode="i" horiz-adv-x="278" 
d="M213 722h158l-27 -129h-158zM172 506h148l-107 -506h-148z" />
    <glyph glyph-name="j" unicode="j" horiz-adv-x="278" 
d="M-21 -94q24 -1 39.5 8.5t24.5 23.5t13.5 29t6.5 25l109 515h148l-117 -552q-8 -36 -22 -64t-37.5 -48t-57.5 -30.5t-81 -10.5q-5 0 -18.5 0.5t-29.5 3.5zM213 722h158l-27 -129h-158z" />
    <glyph glyph-name="k" unicode="k" 
d="M220 722h147l-90 -425l197 211h167l-219 -220l123 -288h-175l-98 275l-58 -275h-147z" />
    <glyph glyph-name="l" unicode="l" horiz-adv-x="278" 
d="M218 722h148l-153 -722h-148z" />
    <glyph glyph-name="m" unicode="m" horiz-adv-x="944" 
d="M155 410q5 24 8.5 47.5t6.5 47.5h143l-9 -65q8 8 21.5 21t34.5 25t49.5 21t66.5 9q43 0 69.5 -11.5t41.5 -27t20.5 -31.5t7.5 -25q22 30 46 48.5t47.5 28.5t46 13.5t42.5 3.5q39 0 64 -10t40.5 -23t22.5 -27t10 -21q4 -11 5.5 -23t1.5 -24q0 -26 -5 -52.5t-9 -49.5
l-60 -285h-149l63 297q2 13 4 25.5t2 24.5q0 26 -13.5 45t-53.5 19q-33 0 -54.5 -14t-35 -36.5t-21.5 -51t-14 -56.5l-53 -253h-149l63 300q2 11 4.5 23.5t2.5 26.5q0 24 -13 42.5t-53 18.5q-35 0 -56.5 -13t-34 -31t-18 -37.5t-8.5 -32.5l-63 -297h-149z" />
    <glyph glyph-name="n" unicode="n" horiz-adv-x="611" 
d="M155 415q0 1 2 10.5t4.5 23t5 29.5t4.5 29h142l-12 -76q7 9 21 23.5t36.5 29t53.5 25t72 10.5q37 0 62 -10t40.5 -24.5t22.5 -31t9 -29.5q1 -12 1 -23.5t-2 -28t-6 -40t-11 -59.5l-58 -273h-151l66 314q4 16 6 29.5t-2 25.5q-5 17 -19.5 30t-43.5 13q-24 0 -46.5 -10.5
t-38.5 -28.5q-9 -10 -18.5 -29t-16.5 -48l-62 -296h-149z" />
    <glyph glyph-name="o" unicode="o" horiz-adv-x="611" 
d="M94 248q10 46 33 93.5t61.5 86.5t93.5 64t130 25q57 0 97.5 -15t66.5 -41t38 -61.5t12 -76.5q0 -33 -8 -71q-11 -53 -37 -102t-66.5 -86.5t-95 -59.5t-123.5 -22q-46 0 -84.5 12t-66.5 36.5t-43.5 60.5t-15.5 84q0 17 1.5 35t6.5 38zM246 247q-5 -20 -6.5 -37t-1.5 -32
q0 -48 21.5 -70.5t63.5 -22.5q25 0 46.5 8t39.5 28t33 53.5t26 83.5q4 16 6.5 33t2.5 34q0 18 -4 35t-14 30t-26.5 20.5t-41.5 7.5q-41 0 -67 -20.5t-42 -48t-24 -56.5t-12 -46z" />
    <glyph glyph-name="p" unicode="p" horiz-adv-x="611" 
d="M311 505l-11 -72q24 30 50.5 47t50 24.5t42.5 9t28 1.5q81 0 123 -46t42 -127q0 -37 -9 -79q-11 -54 -35 -102.5t-59.5 -86t-81.5 -59.5t-101 -22q-34 0 -57 8t-37.5 18.5t-22 21.5t-10.5 17l-54 -252h-151l149 699h144zM333 90q54 0 90.5 46t52.5 121q8 30 8 67
q0 18 -3.5 35.5t-12 31t-23 21.5t-36.5 8q-18 0 -40 -8t-43.5 -27.5t-40 -52.5t-29.5 -84q-2 -8 -5 -24t-3 -36q0 -17 3.5 -34.5t13 -31.5t26 -23t42.5 -9z" />
    <glyph glyph-name="q" unicode="q" horiz-adv-x="611" 
d="M660 506q-1 -3 -4.5 -16t-7 -28.5t-7 -30.5t-5.5 -22l-127 -601h-152l53 251q-7 -7 -20 -18t-32 -21.5t-44.5 -18.5t-57.5 -8q-33 0 -64 10t-55.5 32.5t-39.5 58t-15 85.5q0 36 9 80q15 73 44.5 122t66.5 79t78 43t78 13q39 0 64 -10.5t40 -24t22 -27.5t10 -21l20 73h146
zM241 255q-3 -13 -5.5 -29.5t-2.5 -34.5q0 -17 2.5 -33.5t10.5 -30.5q13 -24 34 -30t37 -6q36 0 61 17.5t41.5 42.5t25.5 52.5t14 48.5q2 13 4 29.5t2 33.5q0 19 -3.5 37.5t-13 33.5t-26.5 24t-43 9q-32 0 -55 -15t-39.5 -38.5t-27 -53t-16.5 -57.5z" />
    <glyph glyph-name="r" unicode="r" horiz-adv-x="389" 
d="M145 381q2 9 5 25.5t6 35t5.5 36.5t3.5 29h139l-17 -97q10 16 25 34t37.5 33t54 24t75.5 7l-28 -133q-8 1 -16 1h-16q-45 0 -73 -11.5t-44.5 -30t-24.5 -41t-12 -44.5l-52 -249h-148z" />
    <glyph glyph-name="s" unicode="s" horiz-adv-x="500" 
d="M199 146q-2 -12 0 -24.5t9.5 -22t22 -16t37.5 -6.5q40 0 63 18.5t28 41.5q4 17 -7 31t-51 26l-87 25q-13 4 -30.5 10.5t-33 18.5t-26.5 31t-11 48q0 14 3 32q8 37 30 66t55.5 49.5t76.5 31.5t92 11q39 0 71.5 -9t54.5 -27.5t31.5 -46.5t3.5 -66h-135q3 21 -3 33t-15.5 18
t-21 7.5t-20.5 1.5q-30 0 -52.5 -13.5t-27.5 -36.5q-5 -26 10.5 -35t47.5 -18l85 -25q108 -32 108 -111q0 -15 -3 -30q-7 -33 -27.5 -64t-54.5 -55.5t-81 -39.5t-106 -15q-49 0 -91 13t-69 49q-11 16 -15 32t-4 31q0 11 1 19.5t3 16.5h139z" />
    <glyph glyph-name="t" unicode="t" horiz-adv-x="389" 
d="M363 7q-38 -10 -69 -13t-49 -3q-40 0 -64.5 8t-38.5 21t-19 29t-5 32q0 13 2 25t4 21l59 277h-97l21 98h97l21 99l159 54l-33 -153h120l-21 -98h-120l-48 -228q-5 -25 -5 -39q0 -17 11 -26.5t45 -9.5q17 0 27 0.5t24 2.5z" />
    <glyph glyph-name="u" unicode="u" horiz-adv-x="611" 
d="M317 505l-64 -301q-2 -12 -4.5 -26t-2.5 -28q0 -23 12 -40t50 -17q35 0 57 12.5t35.5 34t21.5 50t15 60.5l54 255h152l-71 -333l-26 -135q-2 -11 -2.5 -18.5t-0.5 -18.5h-144l9 67q-8 -8 -21 -21.5t-33.5 -26.5t-48 -22.5t-63.5 -9.5q-51 0 -87 20t-51 48
q-8 13 -10.5 28.5t-2.5 32.5q0 23 3.5 43.5t5.5 31.5l67 314h150z" />
    <glyph glyph-name="v" unicode="v" 
d="M272 505l41 -343l189 343h143l-289 -505h-164l-78 505h158z" />
    <glyph glyph-name="w" unicode="w" horiz-adv-x="889" 
d="M269 505l12 -381l188 381h163l25 -381l180 381h147l-280 -505h-161l-25 374l-185 -374h-163l-58 505h157z" />
    <glyph glyph-name="x" unicode="x" 
d="M298 505l60 -165l134 165h154l-216 -246l114 -259h-175l-63 185l-142 -185h-155l226 271l-112 234h175z" />
    <glyph glyph-name="y" unicode="y" 
d="M281 505l36 -350l188 350h147l-297 -496l-103 -201h-149l104 190l-86 507h160z" />
    <glyph glyph-name="z" unicode="z" horiz-adv-x="500" 
d="M59 130l315 276h-249l21 99h414l-27 -127l-315 -276h266l-21 -102h-431z" />
    <glyph glyph-name="braceleft" unicode="{" horiz-adv-x="333" 
d="M205 484q9 42 22.5 82.5t44 73.5t84.5 55.5t145 27.5l-17 -82q-42 -3 -68 -18.5t-41 -37t-22 -47t-12 -48.5l-8 -36q-7 -33 -19.5 -64t-35.5 -56t-57.5 -42t-84.5 -21q12 -2 26 -4t28.5 -7t28 -13.5t24.5 -23.5q12 -15 16.5 -32.5t4.5 -36.5q0 -17 -2.5 -33t-6.5 -33
l-8 -37q-3 -16 -6 -33t-3 -34q0 -16 4 -30.5t13.5 -25.5t26.5 -18.5t44 -8.5l-17 -82q-69 3 -112.5 17.5t-69.5 45.5q-11 14 -18 30t-7 45q0 36 13 101l7 35q2 12 4.5 24.5t2.5 25.5q0 14 -4 27.5t-14.5 24.5t-29.5 19.5t-48 13.5l18 86q15 2 41 9.5t49 24.5q25 18 37 40.5
t20 60.5z" />
    <glyph glyph-name="bar" unicode="|" horiz-adv-x="278" 
d="M364 750l-213 -1000h-132l213 1000h132z" />
    <glyph glyph-name="braceright" unicode="}" horiz-adv-x="333" 
d="M242 58q-9 -41 -22 -82t-43.5 -74.5t-84.5 -56t-145 -26.5l17 82q42 2 67.5 17t40.5 37t22 47.5t12 48.5l8 37q6 30 20 67.5t50 67.5q34 29 68 37t59 11q-13 1 -27 3t-28 7.5t-27.5 15.5t-25.5 27q-8 13 -13.5 27.5t-5.5 37.5q0 13 1.5 29t6.5 36l8 36q3 16 6 33t3 34
q0 16 -4 30.5t-13.5 25.5t-26.5 18.5t-44 9.5l17 82q63 -3 103 -15.5t63.5 -31.5t32 -44t8.5 -53q0 -23 -4 -46.5t-9 -48.5l-7 -35q-6 -27 -6 -47q0 -32 17 -53q7 -9 18.5 -15.5t23 -10.5t21.5 -6l15 -3l-18 -86q-45 -7 -72 -22t-42 -33.5t-22 -39.5t-11 -40z" />
    <glyph glyph-name="asciitilde" unicode="~" horiz-adv-x="584" 
d="M54 173q12 44 32.5 79.5t46.5 60t56 37.5t61 13q17 0 37.5 -5.5t62.5 -19.5q35 -12 57 -19.5t36.5 -11t24 -5t19.5 -1.5q18 0 30.5 7.5t21 17.5t13 20t6.5 15h85q-8 -29 -23.5 -62.5t-39.5 -62t-57 -47.5t-76 -19q-26 0 -70.5 14t-98.5 33q-10 3 -31.5 10t-36.5 7
q-26 0 -44.5 -17.5t-27.5 -43.5h-84z" />
    <glyph glyph-name="uni00A0" unicode="&#xa0;" horiz-adv-x="278" 
 />
    <glyph glyph-name="exclamdown" unicode="&#xa1;" horiz-adv-x="389" 
d="M323 337l-93 -527h-134l124 527h103zM349 400h-127l28 134h127z" />
    <glyph glyph-name="cent" unicode="&#xa2;" 
d="M507 494q22 -10 36.5 -23.5t22.5 -29.5t11 -32.5t3 -31.5q0 -16 -2 -29.5t-4 -21.5h-144q1 5 2 13t1 19q0 10 -2 21t-7 20t-14 14.5t-24 5.5q-28 0 -48.5 -19.5t-34 -46t-21.5 -54t-11 -43.5q-5 -21 -7.5 -42.5t-2.5 -41.5q0 -36 11 -61t40 -25q8 0 19.5 3t24 13.5
t24.5 29.5t21 51h146q-4 -14 -11.5 -35.5t-22 -45.5t-38 -47.5t-60.5 -41.5q-23 -11 -45.5 -17t-41.5 -8t-33.5 -1.5t-23.5 1.5l-63 -136h-68l69 149q-18 6 -36.5 19t-32.5 34.5t-23 51t-9 68.5q0 17 1.5 36t6.5 40q12 57 37.5 105.5t63.5 84t87 55t109 19.5q14 0 20.5 -0.5
t11.5 -1.5l59 125h69z" />
    <glyph glyph-name="sterling" unicode="&#xa3;" 
d="M54 116h73l44 207h-84l24 112h85l19 88q3 14 8.5 34t17 41.5t30.5 43.5t50 40q26 15 65.5 29t102.5 14q54 0 87.5 -12t51.5 -31t24 -42.5t6 -47.5q0 -14 -1 -27.5t-3 -25.5h-150q1 6 2 14t1 17q0 10 -2 19.5t-7.5 17t-15.5 12.5t-26 5q-25 0 -41 -11.5t-25.5 -26
t-13.5 -29t-5 -20.5l-22 -102h169l-24 -112h-169l-44 -207h264l-24 -116h-491z" />
    <glyph glyph-name="currency" unicode="&#xa4;" 
d="M137 236q-5 12 -9.5 28.5t-4.5 39.5q0 10 1.5 20.5t3.5 23.5q9 42 26.5 69t29.5 44l-53 67l94 78l53 -67q25 11 53.5 21t64.5 10q40 0 65.5 -11t42.5 -21l80 67l61 -77l-81 -67q4 -12 8 -28t4 -38q0 -11 -1 -22t-4 -25q-9 -45 -26.5 -72t-28.5 -41l53 -66l-94 -78l-53 67
q-20 -10 -48.5 -20.5t-70.5 -10.5t-66.5 11t-39.5 20l-81 -67l-61 78zM373 454q-22 0 -43 -8.5t-38.5 -22.5t-30 -33.5t-17.5 -41.5t-0.5 -41.5t15.5 -33.5t28.5 -22.5t40.5 -8.5q22 0 43 8.5t38 23t29.5 33.5t17.5 41t1 41.5t-15.5 34t-29 22.5t-39.5 8z" />
    <glyph glyph-name="yen" unicode="&#xa5;" 
d="M233 137h-163l15 74h163l15 71h-163l16 74h125l-88 364h181l38 -329l181 329h160l-242 -364h119l-16 -74h-159l-14 -70h159l-16 -74h-158l-30 -138h-152z" />
    <glyph glyph-name="brokenbar" unicode="&#xa6;" horiz-adv-x="278" 
d="M348 675l-74 -350h-132l74 350h132zM242 175l-75 -350h-132l75 350h132z" />
    <glyph glyph-name="section" unicode="&#xa7;" 
d="M118 122q9 -6 23 -13.5t31 -14t37.5 -11t42.5 -4.5q16 0 32 3t29 9t22.5 16t12.5 25q3 12 -0.5 20.5t-11 14.5t-17 10.5t-18.5 7.5l-82 31q-42 15 -59 44t-17 61q0 15 3 29q8 35 36 70.5t82 55.5q-7 3 -18.5 10t-21 20.5t-14.5 33t1 48.5q7 33 26.5 59t48.5 44t66.5 27.5
t80.5 9.5q59 0 95 -11.5t53 -18.5l-25 -103q-22 11 -58.5 25t-79.5 14q-8 0 -21.5 -2t-24.5 -10q-16 -10 -21 -31q-3 -12 0.5 -21t9.5 -15t13 -9.5l11 -5.5l82 -29q45 -16 62 -41t17 -56q0 -8 -1 -16t-3 -16q-10 -48 -42.5 -79.5t-67.5 -45.5q13 -8 25.5 -19t21.5 -25.5
t13 -33t-1 -42.5q-8 -35 -28.5 -64t-51.5 -49.5t-70.5 -32t-84.5 -11.5q-6 0 -21 0.5t-36.5 3.5t-49 9t-57.5 17zM329 292q43 14 62.5 38.5t23.5 42.5q4 19 -2 31.5t-16 19.5t-22 10.5t-20 5.5q-30 -8 -55 -26t-32 -48q-4 -18 1.5 -30.5t15 -21t22 -14t22.5 -8.5z" />
    <glyph glyph-name="dieresis" unicode="&#xa8;" horiz-adv-x="278" 
d="M324 717h102l-25 -118h-102zM152 717h102l-25 -118h-102z" />
    <glyph glyph-name="copyright" unicode="&#xa9;" horiz-adv-x="800" 
d="M554 738q67 0 123.5 -22.5t97 -62.5t63.5 -95t23 -119q0 -39 -9 -79q-17 -78 -61.5 -147t-106 -120.5t-136.5 -81t-154 -29.5q-68 0 -124 22.5t-96.5 62.5t-63 94.5t-22.5 118.5q0 38 9 80q17 79 61.5 148t107 120t137 80.5t151.5 29.5zM541 676q-65 0 -127.5 -24.5
t-115 -67.5t-89.5 -100.5t-51 -123.5q-4 -17 -5.5 -33.5t-1.5 -32.5q0 -53 18.5 -99t52.5 -79.5t81 -52.5t104 -19q66 0 129 25t115 68t89 100.5t51 122.5q7 31 7 65q0 54 -19 99.5t-52.5 79.5t-81 53t-104.5 19zM572 439q1 6 1 18.5t-5 25.5t-17.5 23t-37.5 10
q-39 0 -65 -21t-41.5 -48t-22.5 -53t-9 -36q-2 -8 -4.5 -25.5t-2.5 -37.5q0 -16 3 -32.5t11 -29.5t23 -21t38 -8q14 0 28.5 4.5t28 14t24 25t16.5 38.5h105q-5 -18 -18 -47t-49 -58q-34 -26 -70.5 -36t-71.5 -10q-48 0 -80.5 12.5t-53 34t-29.5 50t-9 60.5q0 15 1.5 30.5
t5.5 31.5q11 52 35 94.5t58 72.5t76.5 46.5t91.5 16.5q67 0 106 -31t39 -85q0 -14 -3 -29h-102z" />
    <glyph glyph-name="ordfeminine" unicode="&#xaa;" horiz-adv-x="334" 
d="M314 392q1 15 2.5 24.5t3.5 17.5q-15 -16 -39.5 -32.5t-69.5 -16.5q-33 0 -52.5 8.5t-29.5 22t-11.5 29.5t1.5 30q8 33 34 60.5t68 38.5q35 9 67.5 10.5t54.5 1.5q2 8 3 16t1 16q0 14 -7 24t-30 10q-14 0 -30.5 -8.5t-22.5 -35.5h-94q6 30 23.5 48.5t40 29t47 14.5
t45.5 4q67 0 93 -23t26 -59q0 -15 -3 -31l-26 -122q-4 -17 -6.5 -38.5t-1.5 -38.5h-87zM332 535q-45 3 -77.5 -9t-38.5 -41q-5 -18 6 -30t33 -12q21 0 35 10.5t22.5 25t13 30t6.5 26.5z" />
    <glyph glyph-name="guillemotleft" unicode="&#xab;" 
d="M81 252l149 190h132l-135 -190l53 -196h-132zM324 252l149 190h132l-135 -190l53 -196h-132z" />
    <glyph glyph-name="logicalnot" unicode="&#xac;" horiz-adv-x="584" 
d="M119 448h533l-77 -363h-134l49 233h-399z" />
    <glyph glyph-name="uni00AD" unicode="&#xad;" horiz-adv-x="333" 
d="M112 321h248l-24 -113h-248z" />
    <glyph glyph-name="registered" unicode="&#xae;" horiz-adv-x="800" 
d="M556 738q67 0 123.5 -22.5t97 -62t63.5 -94.5t23 -120q0 -39 -9 -79q-17 -78 -61 -147t-106.5 -120t-137.5 -81t-153 -30q-67 0 -123.5 22.5t-97 62.5t-63.5 94.5t-23 119.5q0 38 9 79q17 80 62 149t108 120t137.5 80t150.5 29zM542 677q-65 0 -127.5 -24.5t-114.5 -67
t-89.5 -100t-51.5 -124.5q-7 -32 -7 -66q0 -54 18.5 -100t52.5 -80t81 -53t104 -19q66 0 129 25.5t115.5 69t89.5 101t51 122.5q7 31 7 65q0 54 -19 100t-53 79.5t-81.5 52.5t-104.5 19zM379 572h146q17 0 39.5 -1.5t42 -9t33 -23.5t13.5 -46q0 -16 -4 -32q-6 -29 -18 -47.5
t-27 -29.5t-30 -17t-27 -10q33 -3 42 -19t9 -42v-16.5t-1 -18.5q-2 -17 -4 -39t-2 -42q0 -10 1 -18t3 -13h-90q1 7 3 28t4 44t3.5 41.5t1.5 20.5q0 18 -6.5 27t-29.5 9h-74l-36 -170h-82zM420 386h66q21 0 34.5 6.5t22 15.5t13 19.5t6.5 18.5q5 22 1 33.5t-12.5 17t-19 6.5
t-18.5 1h-68z" />
    <glyph glyph-name="macron" unicode="&#xaf;" horiz-adv-x="278" 
d="M96 624l15 68h342l-15 -68h-342z" />
    <glyph glyph-name="degree" unicode="&#xb0;" horiz-adv-x="400" 
d="M348 708q62 0 99.5 -38t37.5 -96q0 -8 -1 -17t-3 -18q-8 -35 -28 -66t-47.5 -54t-61 -36t-68.5 -13q-30 0 -55 10t-43.5 27.5t-28.5 41.5t-10 53q0 20 4 37q7 35 27 66t48 54t61.5 36t68.5 13zM326 605q-26 0 -50 -19t-30 -47t9.5 -47t42.5 -19q29 0 52 19.5t29 46.5
t-9.5 46.5t-43.5 19.5z" />
    <glyph glyph-name="plusminus" unicode="&#xb1;" horiz-adv-x="584" 
d="M284 280h-199l28 130h199l33 156h134l-33 -156h199l-28 -130h-199l-32 -149h-134zM46 97h532l-28 -130h-532z" />
    <glyph glyph-name="twosuperior" unicode="&#xb2;" horiz-adv-x="333" 
d="M137 585q2 13 10 34t32 44q28 25 66.5 35.5t74.5 10.5q72 0 105.5 -31.5t22.5 -82.5q-4 -18 -11 -33t-20.5 -31.5t-35.5 -35.5t-55 -44q-38 -30 -70.5 -52.5t-73.5 -48.5q19 0 45.5 0.5t56 1.5t59.5 1.5t57 0.5l-15 -69h-318l18 84l138 99q29 20 53 39t46 42
q14 15 20 26.5t8 19.5q5 21 -6.5 36t-35.5 15q-30 0 -47.5 -18.5t-24.5 -42.5h-99z" />
    <glyph glyph-name="threesuperior" unicode="&#xb3;" horiz-adv-x="333" 
d="M188 395v-14.5t3.5 -18.5t13.5 -16t31 -7q20 0 41.5 12.5t28.5 44.5q5 23 -2.5 35.5t-22.5 18.5t-34.5 7t-38.5 1l15 70q19 0 39 2t37.5 8.5t30.5 18.5t18 33q5 25 -9 37.5t-37 12.5q-25 0 -43.5 -14.5t-23.5 -37.5h-99q5 14 13 33.5t29 37.5q17 16 51.5 31t85.5 15
q39 0 65.5 -10.5t41.5 -27t19.5 -37t0.5 -39.5q-6 -26 -20 -43.5t-30.5 -28t-32 -16t-24.5 -7.5q48 -14 62.5 -41t7.5 -59q-6 -27 -23.5 -50t-43 -39.5t-57.5 -25.5t-67 -9q-8 0 -23 1t-32 5t-33.5 12.5t-26.5 23.5q-14 23 -13.5 45t3.5 36h99z" />
    <glyph glyph-name="acute" unicode="&#xb4;" horiz-adv-x="278" 
d="M276 585h-80l114 145h134z" />
    <glyph glyph-name="mu" unicode="&#xb5;" horiz-adv-x="611" 
d="M178 505h128l-52 -244q-6 -25 -9.5 -47.5t-3.5 -41.5q0 -34 15.5 -54t57.5 -20q36 0 59 15.5t37.5 39t22.5 51.5t13 54l53 247h129l-107 -505h-110l12 60q-8 -9 -19 -21t-27 -22.5t-36 -18t-46 -7.5q-24 0 -39.5 5.5t-26 13t-16 16t-9.5 15.5l-54 -253h-126z" />
    <glyph glyph-name="paragraph" unicode="&#xb6;" 
d="M649 609l-169 -796h-125l169 796h-95l-169 -796h-125l90 425q-12 1 -27 3t-30 7t-30.5 14.5t-28.5 24.5q-23 26 -31.5 56t-8.5 59q0 17 2 32t5 28q9 45 33 90t63.5 80.5t94.5 57.5t126 22h329l-22 -103h-51z" />
    <glyph glyph-name="periodcentered" unicode="&#xb7;" horiz-adv-x="278" 
d="M147 346h127l-28 -133h-127z" />
    <glyph glyph-name="cedilla" unicode="&#xb8;" horiz-adv-x="278" 
d="M3 -153q16 -8 33 -13t33 -5q26 0 43 10.5t20 27.5q2 10 -4 23.5t-32 13.5q-14 0 -24.5 -3t-18.5 -6l-15 21l83 90h47l-62 -64q9 2 16.5 3t19.5 1q25 0 39.5 -7.5t21.5 -18.5t8.5 -23.5t-0.5 -22.5q-6 -27 -23 -45t-38.5 -28t-44 -14t-40.5 -4q-35 0 -58.5 8.5t-32.5 13.5
z" />
    <glyph glyph-name="onesuperior" unicode="&#xb9;" horiz-adv-x="333" 
d="M183 637q48 17 83.5 36t49.5 27h84l-89 -419h-98l70 326q-30 -17 -61.5 -31.5t-56.5 -22.5z" />
    <glyph glyph-name="ordmasculine" unicode="&#xba;" horiz-adv-x="367" 
d="M128 541q16 73 70 117t135 44q72 0 106 -32.5t34 -85.5q0 -22 -4 -41q-7 -33 -24 -62t-43 -51.5t-61.5 -35.5t-78.5 -13q-39 0 -65 10t-42.5 27t-23.5 39t-7 45q0 22 4 39zM227 540q-5 -25 -5 -39q0 -58 56 -58q36 0 59 24t34 78q2 11 3.5 21t1.5 19q0 27 -13 42.5
t-42 15.5q-25 0 -41.5 -10.5t-27 -26t-16.5 -33.5t-9 -33z" />
    <glyph glyph-name="guillemotright" unicode="&#xbb;" 
d="M43 56l136 189l-54 197h132l68 -197l-150 -189h-132zM286 56l136 189l-54 197h132l68 -197l-150 -189h-132z" />
    <glyph glyph-name="onequarter" unicode="&#xbc;" horiz-adv-x="834" 
d="M505 91l17 81l235 247h98l-57 -259h62l-15 -69h-63l-19 -91h-98l19 91h-179zM592 158h111l37 157zM712 725h83l-577 -753h-82zM144 637q48 17 83.5 36t49.5 27h84l-89 -419h-98l70 326q-30 -17 -61.5 -31.5t-56.5 -22.5z" />
    <glyph glyph-name="onehalf" unicode="&#xbd;" horiz-adv-x="834" 
d="M711 725h82l-577 -753h-82zM157 637q48 17 83.5 36t49.5 27h84l-89 -419h-98l70 326q-30 -17 -61.5 -31.5t-56.5 -22.5zM562 300q3 13 10.5 34t33.5 44q27 26 66 36t74 10q72 0 105 -31.5t22 -82.5q-4 -18 -11 -33t-20.5 -31t-35 -35t-54.5 -45q-38 -30 -71 -52t-74 -49
q20 1 46.5 2t55.5 1.5t59 0.5h57l-14 -69h-318l18 85l138 98q29 20 52.5 39.5t46.5 41.5q14 15 19.5 26.5t7.5 19.5q5 21 -6.5 36t-34.5 15q-31 0 -48.5 -18.5t-24.5 -42.5h-99z" />
    <glyph glyph-name="threequarters" unicode="&#xbe;" horiz-adv-x="834" 
d="M493 91l17 81l235 247h99l-58 -259h62l-15 -69h-62l-19 -91h-99l19 91h-179zM573 158h111l27 111q0 2 1.5 8.5t3 14t3 14t2.5 9.5zM756 725h82l-576 -753h-82zM205 395v-14.5t4 -18.5t14.5 -16t30.5 -7t41 12.5t28 44.5q5 23 -2.5 35.5t-22 18.5t-34.5 7t-39 1l15 70
q19 0 39 2t38 8.5t31 18.5t18 33q5 25 -9 37.5t-37 12.5q-25 0 -44 -14.5t-24 -37.5h-98q5 14 13 33.5t29 37.5q17 16 51.5 31t85.5 15q39 0 65.5 -10.5t41.5 -27t19.5 -37t0.5 -39.5q-6 -26 -20 -43.5t-30.5 -28t-32 -16t-24.5 -7.5q48 -14 62.5 -41t7.5 -59
q-6 -27 -23.5 -50t-43 -39.5t-57.5 -25.5t-67 -9q-8 0 -23 1t-32 5t-33.5 12.5t-26.5 23.5q-8 13 -11 26t-3 24q0 9 1 17t3 14h98z" />
    <glyph glyph-name="questiondown" unicode="&#xbf;" horiz-adv-x="500" 
d="M429 366l-19 -93q-2 -9 -4.5 -17.5t-8.5 -19t-16 -23t-27 -28.5l-55 -49q-37 -35 -67.5 -71t-38.5 -74q-2 -9 -2.5 -25.5t8 -33t30 -28.5t63.5 -12q34 0 64 6.5t74 17.5l-23 -105q-29 -7 -70.5 -13t-101.5 -6q-40 0 -76.5 8t-64.5 25.5t-45 45t-17 66.5q0 17 5 42
q3 14 12 40.5t35 54.5q15 16 25.5 27t18 17.5t13 11t10.5 8.5l67 51q24 18 38.5 30.5t23 23t12.5 20.5t7 22l17 81h113zM441 408h-120l26 120h120z" />
    <glyph glyph-name="Agrave" unicode="&#xc0;" horiz-adv-x="706" 
d="M603 722l98 -722h-156l-19 156h-286l-87 -156h-148l414 722h184zM512 273l-35 308l-172 -308h207zM598 773h-85l-108 145h140z" />
    <glyph glyph-name="Aacute" unicode="&#xc1;" horiz-adv-x="706" 
d="M603 722l98 -722h-156l-19 156h-286l-87 -156h-148l414 722h184zM512 273l-35 308l-172 -308h207zM538 773h-80l114 145h134z" />
    <glyph glyph-name="Acircumflex" unicode="&#xc2;" horiz-adv-x="706" 
d="M603 722l98 -722h-156l-19 156h-286l-87 -156h-148l414 722h184zM512 273l-35 308l-172 -308h207zM505 918h103l73 -145h-89l-50 85l-88 -85h-90z" />
    <glyph glyph-name="Atilde" unicode="&#xc3;" horiz-adv-x="706" 
d="M603 722l98 -722h-156l-19 156h-286l-87 -156h-148l414 722h184zM512 273l-35 308l-172 -308h207zM346 781q20 57 59.5 90t84.5 33q16 0 31 -5t16 -6l53 -22q4 -2 11.5 -4t20.5 -2q22 0 35.5 13.5t21.5 32.5h51q-8 -27 -21 -50t-39 -43q-14 -11 -33 -20t-45 -9
q-17 0 -29 4t-20 7l-40 16q-8 3 -20.5 6.5t-22.5 3.5q-13 0 -29.5 -8t-32.5 -37h-52z" />
    <glyph glyph-name="Adieresis" unicode="&#xc4;" horiz-adv-x="706" 
d="M603 722l98 -722h-156l-19 156h-286l-87 -156h-148l414 722h184zM512 273l-35 308l-172 -308h207zM584 895h102l-25 -118h-102zM412 895h102l-25 -118h-102z" />
    <glyph glyph-name="Aring" unicode="&#xc5;" horiz-adv-x="706" 
d="M603 722l98 -722h-156l-19 156h-286l-87 -156h-148l414 722h184zM512 273l-35 308l-172 -308h207zM560 938q45 0 66 -30t13 -72q-4 -21 -15.5 -39.5t-28 -32.5t-37 -22t-41.5 -8q-20 0 -37 8t-28.5 21.5t-15.5 32.5t1 40q4 21 16 39.5t29 32.5t37 22t41 8zM550 890
q-22 0 -41 -15.5t-24 -38.5q-5 -22 7.5 -37.5t34.5 -15.5q23 0 41.5 15.5t23.5 37.5t-7 38t-35 16z" />
    <glyph glyph-name="AE" unicode="&#xc6;" horiz-adv-x="1000" 
d="M545 721h547l-25 -117h-335l-12 -178h291l-25 -116h-275l-12 -190h274l-25 -120h-416l11 157h-272l-112 -157h-167zM552 271l25 314l-221 -314h196z" />
    <glyph glyph-name="Ccedilla" unicode="&#xc7;" horiz-adv-x="667" 
d="M581 497q1 9 2 30t-6.5 42.5t-27 38t-58.5 16.5q-44 0 -79 -21t-62.5 -57.5t-47 -85.5t-31.5 -105q-14 -62 -14 -114q0 -31 6 -57t19 -45.5t34 -30.5t51 -11q25 0 49.5 8t46 24.5t38 42.5t25.5 62h163q-5 -15 -11 -35.5t-17 -43t-28.5 -46t-44.5 -45.5q-28 -24 -58 -39
t-59.5 -24t-57.5 -13t-52 -5l-44 -45q9 2 16.5 3t20.5 1q25 0 39.5 -7.5t21.5 -18.5t8 -23.5t-1 -22.5q-6 -27 -23 -45t-38.5 -28t-44 -14t-39.5 -4q-35 0 -59.5 8.5t-33.5 13.5l30 42q17 -8 33.5 -13t32.5 -5q26 0 43.5 10.5t20.5 27.5q2 10 -5 23.5t-32 13.5
q-14 0 -24.5 -3t-18.5 -6l-15 21l66 73q-62 4 -104 26t-68 56t-37 77.5t-11 91.5q0 58 14 120q18 85 56 155.5t92 120.5t121 77.5t143 27.5q51 0 92.5 -13t71 -37t45 -58.5t15.5 -76.5q0 -27 -6 -55h-158z" />
    <glyph glyph-name="Egrave" unicode="&#xc8;" horiz-adv-x="603" 
d="M219 722h484l-25 -117h-329l-36 -172h308l-26 -118h-308l-41 -195h340l-25 -120h-495zM535 773h-85l-108 145h140z" />
    <glyph glyph-name="Eacute" unicode="&#xc9;" horiz-adv-x="603" 
d="M219 722h484l-25 -117h-329l-36 -172h308l-26 -118h-308l-41 -195h340l-25 -120h-495zM475 773h-80l114 145h134z" />
    <glyph glyph-name="Ecircumflex" unicode="&#xca;" horiz-adv-x="603" 
d="M219 722h484l-25 -117h-329l-36 -172h308l-26 -118h-308l-41 -195h340l-25 -120h-495zM442 918h103l73 -145h-89l-50 85l-88 -85h-90z" />
    <glyph glyph-name="Edieresis" unicode="&#xcb;" horiz-adv-x="603" 
d="M219 722h484l-25 -117h-329l-36 -172h308l-26 -118h-308l-41 -195h340l-25 -120h-495zM521 895h102l-25 -118h-102zM349 895h102l-25 -118h-102z" />
    <glyph glyph-name="Igrave" unicode="&#xcc;" horiz-adv-x="289" 
d="M220 722h155l-153 -722h-155zM376 773h-85l-108 145h140z" />
    <glyph glyph-name="Iacute" unicode="&#xcd;" horiz-adv-x="289" 
d="M220 722h155l-153 -722h-155zM316 773h-80l114 145h134z" />
    <glyph glyph-name="Icircumflex" unicode="&#xce;" horiz-adv-x="289" 
d="M220 722h155l-153 -722h-155zM292 918h103l73 -145h-89l-50 85l-88 -85h-90z" />
    <glyph glyph-name="Idieresis" unicode="&#xcf;" horiz-adv-x="289" 
d="M220 722h155l-153 -722h-155zM369 895h102l-25 -118h-102zM197 895h102l-25 -118h-102z" />
    <glyph glyph-name="Eth" unicode="&#xd0;" horiz-adv-x="722" 
d="M140 353h-65l18 87h65l60 282h239q15 0 43 -1.5t61.5 -8t68 -20t62.5 -37.5q40 -35 56 -84t16 -103q0 -24 -2.5 -48.5t-7.5 -48.5q-18 -83 -52 -146.5t-78.5 -108.5t-96.5 -72t-106 -36q-11 -2 -22.5 -3.5t-26.5 -2.5t-35 -1.5t-47 -0.5h-225zM247 119q13 -1 29.5 -1.5
t30.5 -0.5q51 0 94 8t85 42q28 23 47 52.5t31.5 59t19.5 54.5t10 38q9 40 9 78q0 52 -21 91t-72 54q-19 5 -43.5 8t-67.5 3h-23t-26 -1l-35 -164h145l-18 -87h-145z" />
    <glyph glyph-name="Ntilde" unicode="&#xd1;" horiz-adv-x="773" 
d="M220 722h224l150 -568l121 568h144l-153 -722h-213l-153 600l-127 -600h-146zM369 781q20 57 59.5 90t84.5 33q16 0 31 -5t16 -6l53 -22q4 -2 11.5 -4t20.5 -2q22 0 35.5 13.5t21.5 32.5h51q-8 -27 -21 -50t-39 -43q-14 -11 -33 -20t-45 -9q-17 0 -29 4t-20 7l-40 16
q-8 3 -20.5 6.5t-22.5 3.5q-13 0 -29.5 -8t-32.5 -37h-52z" />
    <glyph glyph-name="Ograve" unicode="&#xd2;" horiz-adv-x="778" 
d="M116 351q15 72 47.5 141.5t85 124t126 88t170.5 33.5q28 0 61 -4t64.5 -15t60 -30t48.5 -49q26 -39 36 -83t10 -86q0 -29 -3.5 -55t-8.5 -48q-9 -40 -23.5 -79.5t-33.5 -76.5t-43 -69.5t-51 -57.5q-38 -34 -77.5 -54t-77 -31t-70 -14.5t-54.5 -3.5q-71 0 -134 23.5
t-101 75.5q-26 35 -35 76t-9 81q0 32 3.5 61t8.5 52zM279 356q-5 -24 -8.5 -49t-3.5 -50q0 -28 5 -54t18 -49q12 -23 38.5 -40.5t80.5 -17.5q92 0 149 67q24 27 49.5 74t43.5 133q5 20 8.5 45.5t3.5 51.5q0 8 -0.5 16t-1.5 16q-9 67 -45 97.5t-93 30.5q-45 0 -81.5 -16.5
t-64.5 -44.5q-39 -38 -61.5 -92.5t-36.5 -117.5zM626 773h-85l-108 145h140z" />
    <glyph glyph-name="Oacute" unicode="&#xd3;" horiz-adv-x="778" 
d="M116 351q15 72 47.5 141.5t85 124t126 88t170.5 33.5q28 0 61 -4t64.5 -15t60 -30t48.5 -49q26 -39 36 -83t10 -86q0 -29 -3.5 -55t-8.5 -48q-9 -40 -23.5 -79.5t-33.5 -76.5t-43 -69.5t-51 -57.5q-38 -34 -77.5 -54t-77 -31t-70 -14.5t-54.5 -3.5q-71 0 -134 23.5
t-101 75.5q-26 35 -35 76t-9 81q0 32 3.5 61t8.5 52zM279 356q-5 -24 -8.5 -49t-3.5 -50q0 -28 5 -54t18 -49q12 -23 38.5 -40.5t80.5 -17.5q92 0 149 67q24 27 49.5 74t43.5 133q5 20 8.5 45.5t3.5 51.5q0 8 -0.5 16t-1.5 16q-9 67 -45 97.5t-93 30.5q-45 0 -81.5 -16.5
t-64.5 -44.5q-39 -38 -61.5 -92.5t-36.5 -117.5zM566 773h-80l114 145h134z" />
    <glyph glyph-name="Ocircumflex" unicode="&#xd4;" horiz-adv-x="778" 
d="M116 351q15 72 47.5 141.5t85 124t126 88t170.5 33.5q28 0 61 -4t64.5 -15t60 -30t48.5 -49q26 -39 36 -83t10 -86q0 -29 -3.5 -55t-8.5 -48q-9 -40 -23.5 -79.5t-33.5 -76.5t-43 -69.5t-51 -57.5q-38 -34 -77.5 -54t-77 -31t-70 -14.5t-54.5 -3.5q-71 0 -134 23.5
t-101 75.5q-26 35 -35 76t-9 81q0 32 3.5 61t8.5 52zM279 356q-5 -24 -8.5 -49t-3.5 -50q0 -28 5 -54t18 -49q12 -23 38.5 -40.5t80.5 -17.5q92 0 149 67q24 27 49.5 74t43.5 133q5 20 8.5 45.5t3.5 51.5q0 8 -0.5 16t-1.5 16q-9 67 -45 97.5t-93 30.5q-45 0 -81.5 -16.5
t-64.5 -44.5q-39 -38 -61.5 -92.5t-36.5 -117.5zM533 918h103l73 -145h-89l-50 85l-88 -85h-90z" />
    <glyph glyph-name="Otilde" unicode="&#xd5;" horiz-adv-x="778" 
d="M116 351q15 72 47.5 141.5t85 124t126 88t170.5 33.5q28 0 61 -4t64.5 -15t60 -30t48.5 -49q26 -39 36 -83t10 -86q0 -29 -3.5 -55t-8.5 -48q-9 -40 -23.5 -79.5t-33.5 -76.5t-43 -69.5t-51 -57.5q-38 -34 -77.5 -54t-77 -31t-70 -14.5t-54.5 -3.5q-71 0 -134 23.5
t-101 75.5q-26 35 -35 76t-9 81q0 32 3.5 61t8.5 52zM279 356q-5 -24 -8.5 -49t-3.5 -50q0 -28 5 -54t18 -49q12 -23 38.5 -40.5t80.5 -17.5q92 0 149 67q24 27 49.5 74t43.5 133q5 20 8.5 45.5t3.5 51.5q0 8 -0.5 16t-1.5 16q-9 67 -45 97.5t-93 30.5q-45 0 -81.5 -16.5
t-64.5 -44.5q-39 -38 -61.5 -92.5t-36.5 -117.5zM374 781q20 57 59.5 90t84.5 33q16 0 31 -5t16 -6l53 -22q4 -2 11.5 -4t20.5 -2q22 0 35.5 13.5t21.5 32.5h51q-8 -27 -21 -50t-39 -43q-14 -11 -33 -20t-45 -9q-17 0 -29 4t-20 7l-40 16q-8 3 -20.5 6.5t-22.5 3.5
q-13 0 -29.5 -8t-32.5 -37h-52z" />
    <glyph glyph-name="Odieresis" unicode="&#xd6;" horiz-adv-x="778" 
d="M116 351q15 72 47.5 141.5t85 124t126 88t170.5 33.5q28 0 61 -4t64.5 -15t60 -30t48.5 -49q26 -39 36 -83t10 -86q0 -29 -3.5 -55t-8.5 -48q-9 -40 -23.5 -79.5t-33.5 -76.5t-43 -69.5t-51 -57.5q-38 -34 -77.5 -54t-77 -31t-70 -14.5t-54.5 -3.5q-71 0 -134 23.5
t-101 75.5q-26 35 -35 76t-9 81q0 32 3.5 61t8.5 52zM279 356q-5 -24 -8.5 -49t-3.5 -50q0 -28 5 -54t18 -49q12 -23 38.5 -40.5t80.5 -17.5q92 0 149 67q24 27 49.5 74t43.5 133q5 20 8.5 45.5t3.5 51.5q0 8 -0.5 16t-1.5 16q-9 67 -45 97.5t-93 30.5q-45 0 -81.5 -16.5
t-64.5 -44.5q-39 -38 -61.5 -92.5t-36.5 -117.5zM612 895h102l-25 -118h-102zM440 895h102l-25 -118h-102z" />
    <glyph glyph-name="multiply" unicode="&#xd7;" horiz-adv-x="584" 
d="M256 266l-131 168l111 92l132 -168l202 168l73 -92l-203 -168l132 -167l-112 -92l-131 168l-203 -168l-72 92z" />
    <glyph glyph-name="Oslash" unicode="&#xd8;" horiz-adv-x="778" 
d="M872 765l37 -47l-117 -104q17 -31 24 -65t7 -71q0 -28 -3.5 -56t-9.5 -57q-21 -98 -63 -170t-98 -119t-124 -70.5t-141 -23.5q-66 0 -123 18.5t-99 60.5l-122 -108l-38 47l126 111q-14 29 -21 61t-7 67q0 28 4 55.5t10 56.5q8 39 23 83t39 87t58 82.5t79 69t102 47.5
t128 18q63 0 119 -16t95 -58zM642 564q-12 23 -29.5 36.5t-35 20t-33 8t-24.5 1.5q-48 0 -93.5 -23.5t-80.5 -72.5q-14 -20 -25 -44.5t-19.5 -49t-14.5 -47t-9 -37.5q-11 -54 -11.5 -81.5t0.5 -39.5zM283 166q3 -8 10 -20t21 -23.5t36.5 -19.5t57.5 -8q52 0 92 22t69.5 60
t49 88.5t31.5 107.5q7 32 10 64t1 62z" />
    <glyph glyph-name="Ugrave" unicode="&#xd9;" horiz-adv-x="746" 
d="M368 722l-94 -441q-4 -19 -7 -38.5t-3 -38.5q0 -21 5.5 -39t20 -32t39.5 -22t64 -8q9 0 27 1t39.5 7t44.5 19t43 36q14 16 25.5 42.5t23.5 80.5l92 433h151l-96 -452q-17 -81 -57.5 -135.5t-93 -87.5t-112 -47t-114.5 -14q-27 0 -62.5 4t-70.5 17.5t-65.5 38t-47.5 65.5
q-14 34 -14 74q0 24 4.5 49.5t10.5 54.5l92 433h155zM614 773h-85l-108 145h140z" />
    <glyph glyph-name="Uacute" unicode="&#xda;" horiz-adv-x="746" 
d="M368 722l-94 -441q-4 -19 -7 -38.5t-3 -38.5q0 -21 5.5 -39t20 -32t39.5 -22t64 -8q9 0 27 1t39.5 7t44.5 19t43 36q14 16 25.5 42.5t23.5 80.5l92 433h151l-96 -452q-17 -81 -57.5 -135.5t-93 -87.5t-112 -47t-114.5 -14q-27 0 -62.5 4t-70.5 17.5t-65.5 38t-47.5 65.5
q-14 34 -14 74q0 24 4.5 49.5t10.5 54.5l92 433h155zM554 773h-80l114 145h134z" />
    <glyph glyph-name="Ucircumflex" unicode="&#xdb;" horiz-adv-x="746" 
d="M368 722l-94 -441q-4 -19 -7 -38.5t-3 -38.5q0 -21 5.5 -39t20 -32t39.5 -22t64 -8q9 0 27 1t39.5 7t44.5 19t43 36q14 16 25.5 42.5t23.5 80.5l92 433h151l-96 -452q-17 -81 -57.5 -135.5t-93 -87.5t-112 -47t-114.5 -14q-27 0 -62.5 4t-70.5 17.5t-65.5 38t-47.5 65.5
q-14 34 -14 74q0 24 4.5 49.5t10.5 54.5l92 433h155zM521 918h103l73 -145h-89l-50 85l-88 -85h-90z" />
    <glyph glyph-name="Udieresis" unicode="&#xdc;" horiz-adv-x="746" 
d="M368 722l-94 -441q-4 -19 -7 -38.5t-3 -38.5q0 -21 5.5 -39t20 -32t39.5 -22t64 -8q9 0 27 1t39.5 7t44.5 19t43 36q14 16 25.5 42.5t23.5 80.5l92 433h151l-96 -452q-17 -81 -57.5 -135.5t-93 -87.5t-112 -47t-114.5 -14q-27 0 -62.5 4t-70.5 17.5t-65.5 38t-47.5 65.5
q-14 34 -14 74q0 24 4.5 49.5t10.5 54.5l92 433h155zM600 895h102l-25 -118h-102zM428 895h102l-25 -118h-102z" />
    <glyph glyph-name="Yacute" unicode="&#xdd;" horiz-adv-x="667" 
d="M350 722l79 -331l222 331h159l-342 -459l-55 -263h-153l56 265l-147 457h181zM511 773h-80l114 145h134z" />
    <glyph glyph-name="Thorn" unicode="&#xde;" horiz-adv-x="611" 
d="M218 721h153l-24 -110h70q36 0 69 -2t62 -8.5t53 -20t41 -35.5q15 -19 23 -41.5t8 -51.5q0 -13 -1.5 -27.5t-5.5 -30.5q-12 -57 -45 -107.5t-87 -82.5q-21 -13 -45.5 -20t-48.5 -10t-46 -3.5t-38 -0.5h-98l-36 -170h-157zM278 285h62q18 0 46.5 1.5t50.5 13.5
q32 16 48.5 44t21.5 52q7 36 -2.5 56t-27.5 29t-39.5 10.5t-37.5 1.5h-78z" />
    <glyph glyph-name="germandbls" unicode="&#xdf;" horiz-adv-x="667" 
d="M173 539q9 43 26.5 74t36.5 51t35.5 30.5t23.5 13.5q42 21 83.5 27.5t83.5 6.5q41 0 81 -8.5t69.5 -26.5t44 -46.5t5.5 -68.5q-4 -18 -11 -33t-20 -30t-34.5 -31t-53.5 -34q-13 -8 -24.5 -17.5t-16.5 -29.5q-2 -11 3 -22.5t33 -29.5l68 -47q12 -8 23.5 -17t20.5 -21.5
t14.5 -29.5t5.5 -40q0 -10 -1.5 -21t-3.5 -23q-14 -65 -44.5 -101.5t-66.5 -54.5t-71 -22t-58 -4q-21 0 -46.5 3t-47.5 15t-37 36.5t-15 67.5q0 17 3 38h131q-6 -31 6 -46q5 -8 14 -11.5t19 -3.5q19 0 41 16.5t30 54.5q5 24 -1 46t-37 43l-68 47q-35 23 -52 45t-7 63
q3 15 9 29t17.5 29t29.5 31.5t46 36.5q20 14 34.5 28.5t18.5 35.5q5 25 -10 43.5t-53 18.5q-21 0 -37.5 -5t-28.5 -12t-20 -14.5t-12 -11.5q-19 -20 -26.5 -44t-10.5 -38l-111 -525h-145z" />
    <glyph glyph-name="agrave" unicode="&#xe0;" 
d="M368 0q1 23 4 40.5t5 28.5q-27 -30 -53 -46.5t-48 -24t-39.5 -9t-27.5 -1.5q-55 0 -80.5 13t-37.5 27q-24 33 -24 76q0 8 1 17t3 18q3 15 11 35.5t24 42t41.5 42.5t63.5 37q25 10 53.5 15.5t56.5 8.5t53 3.5t43 0.5q5 25 7.5 39t0.5 28q-2 13 -9.5 21.5t-16.5 13t-17.5 6
t-13.5 1.5q-16 0 -32.5 -7t-29.5 -21q-11 -13 -15 -24.5t-6 -20.5h-145q3 10 7.5 24.5t13.5 31t23.5 33t37.5 30.5q40 25 83 33t79 8q16 0 38.5 -2t46.5 -9t45.5 -19.5t35.5 -34.5q9 -15 12.5 -32.5t3.5 -34.5q0 -18 -2.5 -33t-4.5 -24l-42 -203q-7 -32 -11.5 -64t-3.5 -64
h-134zM399 238q-8 1 -15 1h-14q-60 0 -101.5 -21t-49.5 -62q-3 -13 -1.5 -25.5t8 -23t19 -17t30.5 -6.5q20 0 38 8.5t32 20.5q24 24 35 53.5t19 71.5zM475 585h-85l-108 145h140z" />
    <glyph glyph-name="aacute" unicode="&#xe1;" 
d="M368 0q1 23 4 40.5t5 28.5q-27 -30 -53 -46.5t-48 -24t-39.5 -9t-27.5 -1.5q-55 0 -80.5 13t-37.5 27q-24 33 -24 76q0 8 1 17t3 18q3 15 11 35.5t24 42t41.5 42.5t63.5 37q25 10 53.5 15.5t56.5 8.5t53 3.5t43 0.5q5 25 7.5 39t0.5 28q-2 13 -9.5 21.5t-16.5 13t-17.5 6
t-13.5 1.5q-16 0 -32.5 -7t-29.5 -21q-11 -13 -15 -24.5t-6 -20.5h-145q3 10 7.5 24.5t13.5 31t23.5 33t37.5 30.5q40 25 83 33t79 8q16 0 38.5 -2t46.5 -9t45.5 -19.5t35.5 -34.5q9 -15 12.5 -32.5t3.5 -34.5q0 -18 -2.5 -33t-4.5 -24l-42 -203q-7 -32 -11.5 -64t-3.5 -64
h-134zM399 238q-8 1 -15 1h-14q-60 0 -101.5 -21t-49.5 -62q-3 -13 -1.5 -25.5t8 -23t19 -17t30.5 -6.5q20 0 38 8.5t32 20.5q24 24 35 53.5t19 71.5zM415 585h-80l114 145h134z" />
    <glyph glyph-name="acircumflex" unicode="&#xe2;" 
d="M368 0q1 23 4 40.5t5 28.5q-27 -30 -53 -46.5t-48 -24t-39.5 -9t-27.5 -1.5q-55 0 -80.5 13t-37.5 27q-24 33 -24 76q0 8 1 17t3 18q3 15 11 35.5t24 42t41.5 42.5t63.5 37q25 10 53.5 15.5t56.5 8.5t53 3.5t43 0.5q5 25 7.5 39t0.5 28q-2 13 -9.5 21.5t-16.5 13t-17.5 6
t-13.5 1.5q-16 0 -32.5 -7t-29.5 -21q-11 -13 -15 -24.5t-6 -20.5h-145q3 10 7.5 24.5t13.5 31t23.5 33t37.5 30.5q40 25 83 33t79 8q16 0 38.5 -2t46.5 -9t45.5 -19.5t35.5 -34.5q9 -15 12.5 -32.5t3.5 -34.5q0 -18 -2.5 -33t-4.5 -24l-42 -203q-7 -32 -11.5 -64t-3.5 -64
h-134zM399 238q-8 1 -15 1h-14q-60 0 -101.5 -21t-49.5 -62q-3 -13 -1.5 -25.5t8 -23t19 -17t30.5 -6.5q20 0 38 8.5t32 20.5q24 24 35 53.5t19 71.5zM382 730h103l73 -145h-89l-50 85l-88 -85h-90z" />
    <glyph glyph-name="atilde" unicode="&#xe3;" 
d="M368 0q1 23 4 40.5t5 28.5q-27 -30 -53 -46.5t-48 -24t-39.5 -9t-27.5 -1.5q-55 0 -80.5 13t-37.5 27q-24 33 -24 76q0 8 1 17t3 18q3 15 11 35.5t24 42t41.5 42.5t63.5 37q25 10 53.5 15.5t56.5 8.5t53 3.5t43 0.5q5 25 7.5 39t0.5 28q-2 13 -9.5 21.5t-16.5 13t-17.5 6
t-13.5 1.5q-16 0 -32.5 -7t-29.5 -21q-11 -13 -15 -24.5t-6 -20.5h-145q3 10 7.5 24.5t13.5 31t23.5 33t37.5 30.5q40 25 83 33t79 8q16 0 38.5 -2t46.5 -9t45.5 -19.5t35.5 -34.5q9 -15 12.5 -32.5t3.5 -34.5q0 -18 -2.5 -33t-4.5 -24l-42 -203q-7 -32 -11.5 -64t-3.5 -64
h-134zM399 238q-8 1 -15 1h-14q-60 0 -101.5 -21t-49.5 -62q-3 -13 -1.5 -25.5t8 -23t19 -17t30.5 -6.5q20 0 38 8.5t32 20.5q24 24 35 53.5t19 71.5zM223 593q20 57 59.5 90t84.5 33q16 0 31 -5t16 -6l53 -22q4 -2 11.5 -4t20.5 -2q22 0 35.5 13.5t21.5 32.5h51
q-8 -27 -21 -50t-39 -43q-14 -11 -33 -20t-45 -9q-17 0 -29 4t-20 7l-40 16q-8 3 -20.5 6.5t-22.5 3.5q-13 0 -29.5 -8t-32.5 -37h-52z" />
    <glyph glyph-name="adieresis" unicode="&#xe4;" 
d="M368 0q1 23 4 40.5t5 28.5q-27 -30 -53 -46.5t-48 -24t-39.5 -9t-27.5 -1.5q-55 0 -80.5 13t-37.5 27q-24 33 -24 76q0 8 1 17t3 18q3 15 11 35.5t24 42t41.5 42.5t63.5 37q25 10 53.5 15.5t56.5 8.5t53 3.5t43 0.5q5 25 7.5 39t0.5 28q-2 13 -9.5 21.5t-16.5 13t-17.5 6
t-13.5 1.5q-16 0 -32.5 -7t-29.5 -21q-11 -13 -15 -24.5t-6 -20.5h-145q3 10 7.5 24.5t13.5 31t23.5 33t37.5 30.5q40 25 83 33t79 8q16 0 38.5 -2t46.5 -9t45.5 -19.5t35.5 -34.5q9 -15 12.5 -32.5t3.5 -34.5q0 -18 -2.5 -33t-4.5 -24l-42 -203q-7 -32 -11.5 -64t-3.5 -64
h-134zM399 238q-8 1 -15 1h-14q-60 0 -101.5 -21t-49.5 -62q-3 -13 -1.5 -25.5t8 -23t19 -17t30.5 -6.5q20 0 38 8.5t32 20.5q24 24 35 53.5t19 71.5zM463 717h102l-25 -118h-102zM291 717h102l-25 -118h-102z" />
    <glyph glyph-name="aring" unicode="&#xe5;" 
d="M368 0q1 23 4 40.5t5 28.5q-27 -30 -53 -46.5t-48 -24t-39.5 -9t-27.5 -1.5q-55 0 -80.5 13t-37.5 27q-24 33 -24 76q0 8 1 17t3 18q3 15 11 35.5t24 42t41.5 42.5t63.5 37q25 10 53.5 15.5t56.5 8.5t53 3.5t43 0.5q5 25 7.5 39t0.5 28q-2 13 -9.5 21.5t-16.5 13t-17.5 6
t-13.5 1.5q-16 0 -32.5 -7t-29.5 -21q-11 -13 -15 -24.5t-6 -20.5h-145q3 10 7.5 24.5t13.5 31t23.5 33t37.5 30.5q40 25 83 33t79 8q16 0 38.5 -2t46.5 -9t45.5 -19.5t35.5 -34.5q9 -15 12.5 -32.5t3.5 -34.5q0 -18 -2.5 -33t-4.5 -24l-42 -203q-7 -32 -11.5 -64t-3.5 -64
h-134zM399 238q-8 1 -15 1h-14q-60 0 -101.5 -21t-49.5 -62q-3 -13 -1.5 -25.5t8 -23t19 -17t30.5 -6.5q20 0 38 8.5t32 20.5q24 24 35 53.5t19 71.5zM439 760q45 0 66 -30t13 -72q-4 -21 -15.5 -39.5t-28 -32.5t-37 -22t-41.5 -8q-20 0 -37 8t-28.5 21.5t-15.5 32.5t1 40
q4 21 16 39.5t29 32.5t37 22t41 8zM429 712q-22 0 -41 -15.5t-24 -38.5q-5 -22 7.5 -37.5t34.5 -15.5q23 0 41.5 15.5t23.5 37.5t-7 38t-35 16z" />
    <glyph glyph-name="ae" unicode="&#xe6;" horiz-adv-x="889" 
d="M871 156q-6 -18 -20 -46t-46 -59q-38 -36 -86 -51t-96 -15q-50 0 -81.5 11.5t-50.5 26.5t-28 30.5t-13 24.5q-17 -16 -37.5 -33t-47.5 -31.5t-61 -23.5t-77 -9q-85 0 -124.5 33.5t-39.5 87.5q0 20 4 37q2 11 8.5 29.5t20 39t35.5 41t55 35.5q27 12 58 18.5t64 9.5t66 4
t63 1q4 14 5.5 27t1.5 24q0 29 -14.5 47.5t-51.5 18.5q-13 0 -27.5 -3.5t-27.5 -11.5t-23 -21.5t-15 -34.5h-143q13 44 36.5 74t54.5 48.5t68 26.5t77 8q43 0 72 -9t47.5 -22t28.5 -26t15 -22q10 9 26 22.5t39.5 26t55.5 21.5t74 9q63 0 104.5 -25t61.5 -73
q8 -18 10.5 -37.5t2.5 -39.5q0 -34 -5.5 -64.5t-9.5 -49.5h-338q-2 -9 -5.5 -26t-3.5 -37q0 -18 5 -36q7 -29 29.5 -40.5t45.5 -11.5q25 0 41.5 8.5t28 20.5t18 25t11.5 22h139zM765 317q2 7 3.5 18t1.5 24t-3 26t-10.5 23.5t-20.5 17t-34 6.5q-33 0 -55.5 -14.5
t-36.5 -33.5t-21 -38.5t-10 -28.5h186zM418 231q-11 2 -21.5 2h-22.5q-11 0 -35 -1.5t-50 -9.5t-48 -25.5t-29 -50.5q-4 -17 0 -30t13 -22t22 -13.5t28 -4.5q21 0 50 11.5t51 41.5q16 23 25.5 51t16.5 51z" />
    <glyph glyph-name="ccedilla" unicode="&#xe7;" horiz-adv-x="500" 
d="M518 183q-4 -15 -10 -33.5t-16.5 -38t-27.5 -39.5t-42 -38q-42 -29 -77 -37t-64 -10l-47 -49q9 2 16.5 3t20.5 1q25 0 39.5 -7.5t21.5 -18.5t8 -23.5t-1 -22.5q-6 -27 -23 -45t-38.5 -28t-44 -14t-39.5 -4q-35 0 -59.5 8.5t-33.5 13.5l30 42q17 -8 33.5 -13t32.5 -5
q26 0 43.5 10.5t20.5 27.5q2 10 -5 23.5t-32 13.5q-14 0 -24 -3t-18 -6l-16 21l69 76q-9 1 -24.5 3.5t-33 9t-35.5 19.5t-32 34q-32 47 -32 116q0 19 2.5 39.5t7.5 43.5q18 86 56.5 138t82.5 79.5t86 36t67 8.5q31 0 62 -8t55 -25.5t39 -45t15 -66.5q0 -10 -1.5 -21
t-3.5 -23h-145q1 7 2 22t-2.5 31t-13.5 28t-31 12q-26 0 -45.5 -17.5t-33 -42.5t-22 -52.5t-12.5 -48.5q-2 -13 -6.5 -38.5t-4.5 -52.5q0 -19 3.5 -36t11.5 -28t18.5 -14t18.5 -3q6 0 17 2.5t23.5 12t25.5 29t22 53.5h146z" />
    <glyph glyph-name="egrave" unicode="&#xe8;" 
d="M229 215q-2 -8 -4.5 -22t-2.5 -30q0 -15 3.5 -29.5t12.5 -26.5t25 -19.5t41 -7.5q28 0 55 14t47 56h135q-5 -18 -19.5 -48t-51.5 -62q-34 -29 -83.5 -44t-106.5 -15q-16 0 -38 2t-45 9t-44.5 19t-36.5 33q-17 23 -25 51.5t-8 61.5q0 20 2.5 40.5t7.5 43.5q6 31 17.5 64
t30 64.5t45 60t63.5 50.5q68 42 150 42q27 0 54.5 -6t52 -20t43.5 -37.5t29 -58.5q5 -17 6.5 -33t1.5 -33q0 -35 -6 -66t-12 -53h-339zM437 308q2 6 3.5 16.5t1.5 23.5q0 12 -3 25t-10.5 23.5t-21 17.5t-34.5 7q-24 0 -43.5 -9.5t-34.5 -25t-25 -36t-16 -42.5h183zM475 585
h-85l-108 145h140z" />
    <glyph glyph-name="eacute" unicode="&#xe9;" 
d="M229 215q-2 -8 -4.5 -22t-2.5 -30q0 -15 3.5 -29.5t12.5 -26.5t25 -19.5t41 -7.5q28 0 55 14t47 56h135q-5 -18 -19.5 -48t-51.5 -62q-34 -29 -83.5 -44t-106.5 -15q-16 0 -38 2t-45 9t-44.5 19t-36.5 33q-17 23 -25 51.5t-8 61.5q0 20 2.5 40.5t7.5 43.5q6 31 17.5 64
t30 64.5t45 60t63.5 50.5q68 42 150 42q27 0 54.5 -6t52 -20t43.5 -37.5t29 -58.5q5 -17 6.5 -33t1.5 -33q0 -35 -6 -66t-12 -53h-339zM437 308q2 6 3.5 16.5t1.5 23.5q0 12 -3 25t-10.5 23.5t-21 17.5t-34.5 7q-24 0 -43.5 -9.5t-34.5 -25t-25 -36t-16 -42.5h183zM415 585
h-80l114 145h134z" />
    <glyph glyph-name="ecircumflex" unicode="&#xea;" 
d="M229 215q-2 -8 -4.5 -22t-2.5 -30q0 -15 3.5 -29.5t12.5 -26.5t25 -19.5t41 -7.5q28 0 55 14t47 56h135q-5 -18 -19.5 -48t-51.5 -62q-34 -29 -83.5 -44t-106.5 -15q-16 0 -38 2t-45 9t-44.5 19t-36.5 33q-17 23 -25 51.5t-8 61.5q0 20 2.5 40.5t7.5 43.5q6 31 17.5 64
t30 64.5t45 60t63.5 50.5q68 42 150 42q27 0 54.5 -6t52 -20t43.5 -37.5t29 -58.5q5 -17 6.5 -33t1.5 -33q0 -35 -6 -66t-12 -53h-339zM437 308q2 6 3.5 16.5t1.5 23.5q0 12 -3 25t-10.5 23.5t-21 17.5t-34.5 7q-24 0 -43.5 -9.5t-34.5 -25t-25 -36t-16 -42.5h183zM382 730
h103l73 -145h-89l-50 85l-88 -85h-90z" />
    <glyph glyph-name="edieresis" unicode="&#xeb;" 
d="M229 215q-2 -8 -4.5 -22t-2.5 -30q0 -15 3.5 -29.5t12.5 -26.5t25 -19.5t41 -7.5q28 0 55 14t47 56h135q-5 -18 -19.5 -48t-51.5 -62q-34 -29 -83.5 -44t-106.5 -15q-16 0 -38 2t-45 9t-44.5 19t-36.5 33q-17 23 -25 51.5t-8 61.5q0 20 2.5 40.5t7.5 43.5q6 31 17.5 64
t30 64.5t45 60t63.5 50.5q68 42 150 42q27 0 54.5 -6t52 -20t43.5 -37.5t29 -58.5q5 -17 6.5 -33t1.5 -33q0 -35 -6 -66t-12 -53h-339zM437 308q2 6 3.5 16.5t1.5 23.5q0 12 -3 25t-10.5 23.5t-21 17.5t-34.5 7q-24 0 -43.5 -9.5t-34.5 -25t-25 -36t-16 -42.5h183zM463 717
h102l-25 -118h-102zM291 717h102l-25 -118h-102z" />
    <glyph glyph-name="igrave" unicode="&#xec;" horiz-adv-x="278" 
d="M172 506h148l-107 -506h-148zM336 585h-85l-108 145h140z" />
    <glyph glyph-name="iacute" unicode="&#xed;" horiz-adv-x="278" 
d="M172 506h148l-107 -506h-148zM276 585h-80l114 145h134z" />
    <glyph glyph-name="icircumflex" unicode="&#xee;" horiz-adv-x="278" 
d="M172 506h148l-107 -506h-148zM243 730h103l73 -145h-89l-50 85l-88 -85h-90z" />
    <glyph glyph-name="idieresis" unicode="&#xef;" horiz-adv-x="278" 
d="M172 506h148l-107 -506h-148zM324 717h102l-25 -118h-102zM152 717h102l-25 -118h-102z" />
    <glyph glyph-name="eth" unicode="&#xf0;" horiz-adv-x="611" 
d="M342 623q-17 10 -36.5 20t-52.5 24l98 90q53 -26 76.5 -40.5t35.5 -22.5l90 54l37 -34l-87 -51q19 -17 42 -41t43 -57t33.5 -77.5t13.5 -101.5q0 -48 -12 -108q-14 -62 -39.5 -115.5t-65 -92.5t-93.5 -61.5t-124 -22.5q-40 0 -83.5 8.5t-75.5 37.5q-28 25 -40 59t-12 74
q0 33 8 71q15 70 48 117.5t73.5 76.5t84 42t79.5 13q27 0 47 -5t35 -12.5t24.5 -15t15.5 -13.5q-14 36 -38.5 73t-80.5 81l-106 -63l-37 34zM326 81q36 0 60.5 16t41 40.5t26 53.5t15.5 55q3 13 5.5 29.5t2.5 33.5t-3.5 33.5t-13 29t-25.5 20.5t-41 8q-42 0 -69 -21.5
t-43.5 -49.5t-24 -55t-9.5 -38q-3 -16 -5 -32t-2 -31q0 -39 18 -65.5t67 -26.5z" />
    <glyph glyph-name="ntilde" unicode="&#xf1;" horiz-adv-x="611" 
d="M155 415q0 1 2 10.5t4.5 23t5 29.5t4.5 29h142l-12 -76q7 9 21 23.5t36.5 29t53.5 25t72 10.5q37 0 62 -10t40.5 -24.5t22.5 -31t9 -29.5q1 -12 1 -23.5t-2 -28t-6 -40t-11 -59.5l-58 -273h-151l66 314q4 16 6 29.5t-2 25.5q-5 17 -19.5 30t-43.5 13q-24 0 -46.5 -10.5
t-38.5 -28.5q-9 -10 -18.5 -29t-16.5 -48l-62 -296h-149zM251 593q20 57 59.5 90t84.5 33q16 0 31 -5t16 -6l53 -22q4 -2 11.5 -4t20.5 -2q22 0 35.5 13.5t21.5 32.5h51q-8 -27 -21 -50t-39 -43q-14 -11 -33 -20t-45 -9q-17 0 -29 4t-20 7l-40 16q-8 3 -20.5 6.5t-22.5 3.5
q-13 0 -29.5 -8t-32.5 -37h-52z" />
    <glyph glyph-name="ograve" unicode="&#xf2;" horiz-adv-x="611" 
d="M94 248q10 46 33 93.5t61.5 86.5t93.5 64t130 25q57 0 97.5 -15t66.5 -41t38 -61.5t12 -76.5q0 -33 -8 -71q-11 -53 -37 -102t-66.5 -86.5t-95 -59.5t-123.5 -22q-46 0 -84.5 12t-66.5 36.5t-43.5 60.5t-15.5 84q0 17 1.5 35t6.5 38zM246 247q-5 -20 -6.5 -37t-1.5 -32
q0 -48 21.5 -70.5t63.5 -22.5q25 0 46.5 8t39.5 28t33 53.5t26 83.5q4 16 6.5 33t2.5 34q0 18 -4 35t-14 30t-26.5 20.5t-41.5 7.5q-41 0 -67 -20.5t-42 -48t-24 -56.5t-12 -46zM503 585h-85l-108 145h140z" />
    <glyph glyph-name="oacute" unicode="&#xf3;" horiz-adv-x="611" 
d="M94 248q10 46 33 93.5t61.5 86.5t93.5 64t130 25q57 0 97.5 -15t66.5 -41t38 -61.5t12 -76.5q0 -33 -8 -71q-11 -53 -37 -102t-66.5 -86.5t-95 -59.5t-123.5 -22q-46 0 -84.5 12t-66.5 36.5t-43.5 60.5t-15.5 84q0 17 1.5 35t6.5 38zM246 247q-5 -20 -6.5 -37t-1.5 -32
q0 -48 21.5 -70.5t63.5 -22.5q25 0 46.5 8t39.5 28t33 53.5t26 83.5q4 16 6.5 33t2.5 34q0 18 -4 35t-14 30t-26.5 20.5t-41.5 7.5q-41 0 -67 -20.5t-42 -48t-24 -56.5t-12 -46zM443 585h-80l114 145h134z" />
    <glyph glyph-name="ocircumflex" unicode="&#xf4;" horiz-adv-x="611" 
d="M94 248q10 46 33 93.5t61.5 86.5t93.5 64t130 25q57 0 97.5 -15t66.5 -41t38 -61.5t12 -76.5q0 -33 -8 -71q-11 -53 -37 -102t-66.5 -86.5t-95 -59.5t-123.5 -22q-46 0 -84.5 12t-66.5 36.5t-43.5 60.5t-15.5 84q0 17 1.5 35t6.5 38zM246 247q-5 -20 -6.5 -37t-1.5 -32
q0 -48 21.5 -70.5t63.5 -22.5q25 0 46.5 8t39.5 28t33 53.5t26 83.5q4 16 6.5 33t2.5 34q0 18 -4 35t-14 30t-26.5 20.5t-41.5 7.5q-41 0 -67 -20.5t-42 -48t-24 -56.5t-12 -46zM410 730h103l73 -145h-89l-50 85l-88 -85h-90z" />
    <glyph glyph-name="otilde" unicode="&#xf5;" horiz-adv-x="611" 
d="M94 248q10 46 33 93.5t61.5 86.5t93.5 64t130 25q57 0 97.5 -15t66.5 -41t38 -61.5t12 -76.5q0 -33 -8 -71q-11 -53 -37 -102t-66.5 -86.5t-95 -59.5t-123.5 -22q-46 0 -84.5 12t-66.5 36.5t-43.5 60.5t-15.5 84q0 17 1.5 35t6.5 38zM246 247q-5 -20 -6.5 -37t-1.5 -32
q0 -48 21.5 -70.5t63.5 -22.5q25 0 46.5 8t39.5 28t33 53.5t26 83.5q4 16 6.5 33t2.5 34q0 18 -4 35t-14 30t-26.5 20.5t-41.5 7.5q-41 0 -67 -20.5t-42 -48t-24 -56.5t-12 -46zM251 593q20 57 59.5 90t84.5 33q16 0 31 -5t16 -6l53 -22q4 -2 11.5 -4t20.5 -2
q22 0 35.5 13.5t21.5 32.5h51q-8 -27 -21 -50t-39 -43q-14 -11 -33 -20t-45 -9q-17 0 -29 4t-20 7l-40 16q-8 3 -20.5 6.5t-22.5 3.5q-13 0 -29.5 -8t-32.5 -37h-52z" />
    <glyph glyph-name="odieresis" unicode="&#xf6;" horiz-adv-x="611" 
d="M94 248q10 46 33 93.5t61.5 86.5t93.5 64t130 25q57 0 97.5 -15t66.5 -41t38 -61.5t12 -76.5q0 -33 -8 -71q-11 -53 -37 -102t-66.5 -86.5t-95 -59.5t-123.5 -22q-46 0 -84.5 12t-66.5 36.5t-43.5 60.5t-15.5 84q0 17 1.5 35t6.5 38zM246 247q-5 -20 -6.5 -37t-1.5 -32
q0 -48 21.5 -70.5t63.5 -22.5q25 0 46.5 8t39.5 28t33 53.5t26 83.5q4 16 6.5 33t2.5 34q0 18 -4 35t-14 30t-26.5 20.5t-41.5 7.5q-41 0 -67 -20.5t-42 -48t-24 -56.5t-12 -46zM491 717h102l-25 -118h-102zM319 717h102l-25 -118h-102z" />
    <glyph glyph-name="divide" unicode="&#xf7;" horiz-adv-x="584" 
d="M91 331h533l-28 -129h-533zM245 151h149l-32 -147h-149zM325 529h149l-31 -147h-149z" />
    <glyph glyph-name="oslash" unicode="&#xf8;" horiz-adv-x="611" 
d="M689 512l-91 -78q7 -13 17 -37.5t10 -67.5q0 -17 -2 -36t-7 -42q-12 -55 -37.5 -103.5t-65 -85t-93 -57.5t-121.5 -21q-42 0 -70.5 6t-47 15t-30 19t-18.5 18l-91 -78l-34 34l98 86q-6 14 -13.5 36t-7.5 58q0 15 1.5 32t6.5 37q13 61 41.5 111t69.5 85t93.5 54t112.5 19
q45 0 85 -10t71 -35l90 76zM463 385q-9 12 -19.5 19t-21 10t-19 3.5t-12.5 0.5q-41 0 -67 -20.5t-42.5 -48t-24 -55t-10.5 -40.5q-4 -20 -5.5 -34.5t-2.5 -24.5zM244 135q2 -7 6 -15.5t12.5 -16t22.5 -13t35 -5.5q38 0 63 15.5t41 39.5t25 52.5t15 54.5q7 30 9 50.5t3 32.5z
" />
    <glyph glyph-name="ugrave" unicode="&#xf9;" horiz-adv-x="611" 
d="M317 505l-64 -301q-2 -12 -4.5 -26t-2.5 -28q0 -23 12 -40t50 -17q35 0 57 12.5t35.5 34t21.5 50t15 60.5l54 255h152l-71 -333l-26 -135q-2 -11 -2.5 -18.5t-0.5 -18.5h-144l9 67q-8 -8 -21 -21.5t-33.5 -26.5t-48 -22.5t-63.5 -9.5q-51 0 -87 20t-51 48
q-8 13 -10.5 28.5t-2.5 32.5q0 23 3.5 43.5t5.5 31.5l67 314h150zM503 585h-85l-108 145h140z" />
    <glyph glyph-name="uacute" unicode="&#xfa;" horiz-adv-x="611" 
d="M317 505l-64 -301q-2 -12 -4.5 -26t-2.5 -28q0 -23 12 -40t50 -17q35 0 57 12.5t35.5 34t21.5 50t15 60.5l54 255h152l-71 -333l-26 -135q-2 -11 -2.5 -18.5t-0.5 -18.5h-144l9 67q-8 -8 -21 -21.5t-33.5 -26.5t-48 -22.5t-63.5 -9.5q-51 0 -87 20t-51 48
q-8 13 -10.5 28.5t-2.5 32.5q0 23 3.5 43.5t5.5 31.5l67 314h150zM443 585h-80l114 145h134z" />
    <glyph glyph-name="ucircumflex" unicode="&#xfb;" horiz-adv-x="611" 
d="M317 505l-64 -301q-2 -12 -4.5 -26t-2.5 -28q0 -23 12 -40t50 -17q35 0 57 12.5t35.5 34t21.5 50t15 60.5l54 255h152l-71 -333l-26 -135q-2 -11 -2.5 -18.5t-0.5 -18.5h-144l9 67q-8 -8 -21 -21.5t-33.5 -26.5t-48 -22.5t-63.5 -9.5q-51 0 -87 20t-51 48
q-8 13 -10.5 28.5t-2.5 32.5q0 23 3.5 43.5t5.5 31.5l67 314h150zM410 730h103l73 -145h-89l-50 85l-88 -85h-90z" />
    <glyph glyph-name="udieresis" unicode="&#xfc;" horiz-adv-x="611" 
d="M317 505l-64 -301q-2 -12 -4.5 -26t-2.5 -28q0 -23 12 -40t50 -17q35 0 57 12.5t35.5 34t21.5 50t15 60.5l54 255h152l-71 -333l-26 -135q-2 -11 -2.5 -18.5t-0.5 -18.5h-144l9 67q-8 -8 -21 -21.5t-33.5 -26.5t-48 -22.5t-63.5 -9.5q-51 0 -87 20t-51 48
q-8 13 -10.5 28.5t-2.5 32.5q0 23 3.5 43.5t5.5 31.5l67 314h150zM491 717h102l-25 -118h-102zM319 717h102l-25 -118h-102z" />
    <glyph glyph-name="yacute" unicode="&#xfd;" 
d="M281 505l36 -350l188 350h147l-297 -496l-103 -201h-149l104 190l-86 507h160zM415 585h-80l114 145h134z" />
    <glyph glyph-name="thorn" unicode="&#xfe;" horiz-adv-x="611" 
d="M345 723l-61 -290q23 30 49 47t49.5 24.5t42.5 9t28 1.5q83 0 124 -47.5t41 -126.5q0 -37 -9 -79q-12 -54 -36.5 -103t-60 -86t-81 -58.5t-98.5 -21.5q-35 0 -58 7.5t-37.5 18t-22 21.5t-11.5 18l-54 -252h-150l195 917h150zM315 90q35 0 60 18.5t42 45t26.5 55
t13.5 48.5q2 12 4.5 29.5t2.5 37.5q0 18 -3 35t-11.5 30.5t-23 22t-37.5 8.5q-25 0 -49 -11.5t-41 -29.5q-20 -22 -35.5 -53.5t-25.5 -77.5q-2 -13 -4.5 -29.5t-2.5 -33.5q0 -18 3.5 -35t13 -30.5t25.5 -21.5t42 -8z" />
    <glyph glyph-name="ydieresis" unicode="&#xff;" 
d="M281 505l36 -350l188 350h147l-297 -496l-103 -201h-149l104 190l-86 507h160zM463 717h102l-25 -118h-102zM291 717h102l-25 -118h-102z" />
    <glyph glyph-name="Amacron" unicode="&#x100;" horiz-adv-x="706" 
d="M603 722l98 -722h-156l-19 156h-286l-87 -156h-148l414 722h184zM512 273l-35 308l-172 -308h207zM355 812l15 68h342l-15 -68h-342z" />
    <glyph glyph-name="amacron" unicode="&#x101;" 
d="M368 0q1 23 4 40.5t5 28.5q-27 -30 -53 -46.5t-48 -24t-39.5 -9t-27.5 -1.5q-55 0 -80.5 13t-37.5 27q-24 33 -24 76q0 8 1 17t3 18q3 15 11 35.5t24 42t41.5 42.5t63.5 37q25 10 53.5 15.5t56.5 8.5t53 3.5t43 0.5q5 25 7.5 39t0.5 28q-2 13 -9.5 21.5t-16.5 13t-17.5 6
t-13.5 1.5q-16 0 -32.5 -7t-29.5 -21q-11 -13 -15 -24.5t-6 -20.5h-145q3 10 7.5 24.5t13.5 31t23.5 33t37.5 30.5q40 25 83 33t79 8q16 0 38.5 -2t46.5 -9t45.5 -19.5t35.5 -34.5q9 -15 12.5 -32.5t3.5 -34.5q0 -18 -2.5 -33t-4.5 -24l-42 -203q-7 -32 -11.5 -64t-3.5 -64
h-134zM399 238q-8 1 -15 1h-14q-60 0 -101.5 -21t-49.5 -62q-3 -13 -1.5 -25.5t8 -23t19 -17t30.5 -6.5q20 0 38 8.5t32 20.5q24 24 35 53.5t19 71.5zM249 624l15 68h342l-15 -68h-342z" />
    <glyph glyph-name="Abreve" unicode="&#x102;" horiz-adv-x="706" 
d="M603 722l98 -722h-156l-19 156h-286l-87 -156h-148l414 722h184zM512 273l-35 308l-172 -308h207zM457 918q-2 -25 4.5 -40.5t18 -24.5t24.5 -12t25 -3q27 0 45.5 8.5t31 21t20.5 26t13 24.5h61q-8 -30 -24 -56t-40 -46t-54.5 -31.5t-67.5 -11.5q-38 0 -67 14t-43 41
q-8 12 -10.5 24.5t-2.5 24.5q0 11 1.5 22t3.5 19h61z" />
    <glyph glyph-name="abreve" unicode="&#x103;" 
d="M368 0q1 23 4 40.5t5 28.5q-27 -30 -53 -46.5t-48 -24t-39.5 -9t-27.5 -1.5q-55 0 -80.5 13t-37.5 27q-24 33 -24 76q0 8 1 17t3 18q3 15 11 35.5t24 42t41.5 42.5t63.5 37q25 10 53.5 15.5t56.5 8.5t53 3.5t43 0.5q5 25 7.5 39t0.5 28q-2 13 -9.5 21.5t-16.5 13t-17.5 6
t-13.5 1.5q-16 0 -32.5 -7t-29.5 -21q-11 -13 -15 -24.5t-6 -20.5h-145q3 10 7.5 24.5t13.5 31t23.5 33t37.5 30.5q40 25 83 33t79 8q16 0 38.5 -2t46.5 -9t45.5 -19.5t35.5 -34.5q9 -15 12.5 -32.5t3.5 -34.5q0 -18 -2.5 -33t-4.5 -24l-42 -203q-7 -32 -11.5 -64t-3.5 -64
h-134zM399 238q-8 1 -15 1h-14q-60 0 -101.5 -21t-49.5 -62q-3 -13 -1.5 -25.5t8 -23t19 -17t30.5 -6.5q20 0 38 8.5t32 20.5q24 24 35 53.5t19 71.5zM351 730q-2 -25 4.5 -40.5t18 -24.5t24.5 -12t25 -3q27 0 45.5 8.5t31 21t20.5 26t13 24.5h61q-8 -30 -24 -56t-40 -46
t-54.5 -31.5t-67.5 -11.5q-38 0 -67 14t-43 41q-8 12 -10.5 24.5t-2.5 24.5q0 11 1.5 22t3.5 19h61z" />
    <glyph glyph-name="Aogonek" unicode="&#x104;" horiz-adv-x="706" 
d="M587 -191q-16 -8 -40 -17t-59 -9q-48 0 -67.5 21.5t-12.5 53.5q10 45 50.5 82t97.5 60h-11l-19 156h-286l-87 -156h-148l414 722h184l98 -722h-102q-35 -21 -61 -42.5t-33 -54.5q-5 -23 1 -35.5t15.5 -18.5t19 -7t12.5 -1q15 0 24.5 3.5t18.5 8.5zM512 273l-35 308
l-172 -308h207z" />
    <glyph glyph-name="aogonek" unicode="&#x105;" 
d="M436 -191q-16 -8 -40 -17t-59 -9q-48 0 -67.5 21.5t-12.5 53.5q10 45 50.5 82t97.5 60h-37q1 23 4 40.5t5 28.5q-27 -30 -53 -46.5t-48 -24t-39.5 -9t-27.5 -1.5q-55 0 -80.5 13t-37.5 27q-24 33 -24 76q0 8 1 17t3 18q3 15 11 35.5t24 42t41.5 42.5t63.5 37
q25 10 53.5 15.5t56.5 8.5t53 3.5t43 0.5q5 25 7.5 39t0.5 28q-2 13 -9.5 21.5t-16.5 13t-17.5 6t-13.5 1.5q-16 0 -32.5 -7t-29.5 -21q-11 -13 -15 -24.5t-6 -20.5h-145q3 10 7.5 24.5t13.5 31t23.5 33t37.5 30.5q40 25 83 33t79 8q16 0 38.5 -2t46.5 -9t45.5 -19.5
t35.5 -34.5q9 -15 12.5 -32.5t3.5 -34.5q0 -18 -2.5 -33t-4.5 -24l-42 -203q-7 -32 -11.5 -64t-3.5 -64h-54q-35 -21 -61 -42.5t-33 -54.5q-5 -23 1 -35.5t15.5 -18.5t19 -7t12.5 -1q15 0 24.5 3.5t18.5 8.5zM399 238q-8 1 -15 1h-14q-60 0 -101.5 -21t-49.5 -62
q-3 -13 -1.5 -25.5t8 -23t19 -17t30.5 -6.5q20 0 38 8.5t32 20.5q24 24 35 53.5t19 71.5z" />
    <glyph glyph-name="Cacute" unicode="&#x106;" horiz-adv-x="667" 
d="M581 497q1 9 2 30t-6.5 42.5t-27 38t-58.5 16.5q-44 0 -79 -21t-62.5 -57.5t-47 -85.5t-31.5 -105q-14 -62 -14 -114q0 -31 6 -57t19 -45.5t34 -30.5t51 -11q25 0 49.5 8t46 24.5t38 42.5t25.5 62h163q-5 -15 -11 -35.5t-17 -43t-28.5 -46t-44.5 -45.5
q-29 -25 -60.5 -40.5t-63 -24.5t-61 -12.5t-53.5 -3.5q-73 0 -121.5 20.5t-78 55t-42 80.5t-12.5 97q0 29 3.5 59.5t9.5 60.5q18 85 56 155.5t92 120.5t121 77.5t143 27.5q51 0 92.5 -13t71 -37t45 -58.5t15.5 -76.5q0 -27 -6 -55h-158zM535 773h-80l114 145h134z" />
    <glyph glyph-name="cacute" unicode="&#x107;" horiz-adv-x="500" 
d="M401 326q1 7 2 22t-2.5 31t-13.5 28t-31 12q-26 0 -45.5 -17.5t-33 -42.5t-22 -52.5t-12.5 -48.5q-2 -13 -6.5 -38.5t-4.5 -52.5q0 -19 3.5 -36t11.5 -28t18.5 -14t18.5 -3q6 0 17 2.5t23.5 12t25.5 29t22 53.5h146q-4 -15 -10 -33t-16.5 -37.5t-27.5 -40t-42 -38.5
q-32 -23 -69 -35t-85 -12q-51 0 -91.5 14t-66.5 53q-31 49 -31 117q0 38 9 82q18 86 56.5 138t82.5 79.5t86 36t67 8.5q31 0 62 -8t55 -25.5t39 -45t15 -66.5q0 -10 -1.5 -21t-3.5 -23h-145zM424 585h-80l114 145h134z" />
    <glyph glyph-name="Ccircumflex" unicode="&#x108;" horiz-adv-x="667" 
d="M581 497q1 9 2 30t-6.5 42.5t-27 38t-58.5 16.5q-44 0 -79 -21t-62.5 -57.5t-47 -85.5t-31.5 -105q-14 -62 -14 -114q0 -31 6 -57t19 -45.5t34 -30.5t51 -11q25 0 49.5 8t46 24.5t38 42.5t25.5 62h163q-5 -15 -11 -35.5t-17 -43t-28.5 -46t-44.5 -45.5
q-29 -25 -60.5 -40.5t-63 -24.5t-61 -12.5t-53.5 -3.5q-73 0 -121.5 20.5t-78 55t-42 80.5t-12.5 97q0 29 3.5 59.5t9.5 60.5q18 85 56 155.5t92 120.5t121 77.5t143 27.5q51 0 92.5 -13t71 -37t45 -58.5t15.5 -76.5q0 -27 -6 -55h-158zM506 918h103l73 -145h-89l-50 85
l-88 -85h-90z" />
    <glyph glyph-name="ccircumflex" unicode="&#x109;" horiz-adv-x="500" 
d="M401 326q1 7 2 22t-2.5 31t-13.5 28t-31 12q-26 0 -45.5 -17.5t-33 -42.5t-22 -52.5t-12.5 -48.5q-2 -13 -6.5 -38.5t-4.5 -52.5q0 -19 3.5 -36t11.5 -28t18.5 -14t18.5 -3q6 0 17 2.5t23.5 12t25.5 29t22 53.5h146q-4 -15 -10 -33t-16.5 -37.5t-27.5 -40t-42 -38.5
q-32 -23 -69 -35t-85 -12q-51 0 -91.5 14t-66.5 53q-31 49 -31 117q0 38 9 82q18 86 56.5 138t82.5 79.5t86 36t67 8.5q31 0 62 -8t55 -25.5t39 -45t15 -66.5q0 -10 -1.5 -21t-3.5 -23h-145zM375 730h103l73 -145h-89l-50 85l-88 -85h-90z" />
    <glyph glyph-name="Cdotaccent" unicode="&#x10a;" horiz-adv-x="667" 
d="M581 497q1 9 2 30t-6.5 42.5t-27 38t-58.5 16.5q-44 0 -79 -21t-62.5 -57.5t-47 -85.5t-31.5 -105q-14 -62 -14 -114q0 -31 6 -57t19 -45.5t34 -30.5t51 -11q25 0 49.5 8t46 24.5t38 42.5t25.5 62h163q-5 -15 -11 -35.5t-17 -43t-28.5 -46t-44.5 -45.5
q-29 -25 -60.5 -40.5t-63 -24.5t-61 -12.5t-53.5 -3.5q-73 0 -121.5 20.5t-78 55t-42 80.5t-12.5 97q0 29 3.5 59.5t9.5 60.5q18 85 56 155.5t92 120.5t121 77.5t143 27.5q51 0 92.5 -13t71 -37t45 -58.5t15.5 -76.5q0 -27 -6 -55h-158zM496 905h102l-25 -118h-102z" />
    <glyph glyph-name="cdotaccent" unicode="&#x10b;" horiz-adv-x="500" 
d="M401 326q1 7 2 22t-2.5 31t-13.5 28t-31 12q-26 0 -45.5 -17.5t-33 -42.5t-22 -52.5t-12.5 -48.5q-2 -13 -6.5 -38.5t-4.5 -52.5q0 -19 3.5 -36t11.5 -28t18.5 -14t18.5 -3q6 0 17 2.5t23.5 12t25.5 29t22 53.5h146q-4 -15 -10 -33t-16.5 -37.5t-27.5 -40t-42 -38.5
q-32 -23 -69 -35t-85 -12q-51 0 -91.5 14t-66.5 53q-31 49 -31 117q0 38 9 82q18 86 56.5 138t82.5 79.5t86 36t67 8.5q31 0 62 -8t55 -25.5t39 -45t15 -66.5q0 -10 -1.5 -21t-3.5 -23h-145zM370 717h102l-25 -118h-102z" />
    <glyph glyph-name="Ccaron" unicode="&#x10c;" horiz-adv-x="667" 
d="M581 497q1 9 2 30t-6.5 42.5t-27 38t-58.5 16.5q-44 0 -79 -21t-62.5 -57.5t-47 -85.5t-31.5 -105q-14 -62 -14 -114q0 -31 6 -57t19 -45.5t34 -30.5t51 -11q25 0 49.5 8t46 24.5t38 42.5t25.5 62h163q-5 -15 -11 -35.5t-17 -43t-28.5 -46t-44.5 -45.5
q-29 -25 -60.5 -40.5t-63 -24.5t-61 -12.5t-53.5 -3.5q-73 0 -121.5 20.5t-78 55t-42 80.5t-12.5 97q0 29 3.5 59.5t9.5 60.5q18 85 56 155.5t92 120.5t121 77.5t143 27.5q51 0 92.5 -13t71 -37t45 -58.5t15.5 -76.5q0 -27 -6 -55h-158zM715 918l-137 -145h-117l-73 145h94
l50 -91l90 91h93z" />
    <glyph glyph-name="ccaron" unicode="&#x10d;" horiz-adv-x="500" 
d="M401 326q1 7 2 22t-2.5 31t-13.5 28t-31 12q-26 0 -45.5 -17.5t-33 -42.5t-22 -52.5t-12.5 -48.5q-2 -13 -6.5 -38.5t-4.5 -52.5q0 -19 3.5 -36t11.5 -28t18.5 -14t18.5 -3q6 0 17 2.5t23.5 12t25.5 29t22 53.5h146q-4 -15 -10 -33t-16.5 -37.5t-27.5 -40t-42 -38.5
q-32 -23 -69 -35t-85 -12q-51 0 -91.5 14t-66.5 53q-31 49 -31 117q0 38 9 82q18 86 56.5 138t82.5 79.5t86 36t67 8.5q31 0 62 -8t55 -25.5t39 -45t15 -66.5q0 -10 -1.5 -21t-3.5 -23h-145zM591 730l-137 -145h-117l-73 145h94l50 -91l90 91h93z" />
    <glyph glyph-name="Dcaron" unicode="&#x10e;" horiz-adv-x="722" 
d="M218 722h239q15 0 43 -1.5t61.5 -8t68 -20t62.5 -37.5q40 -35 56 -84t16 -103q0 -24 -2.5 -48.5t-7.5 -48.5q-18 -83 -52 -146.5t-78.5 -108.5t-96.5 -72t-106 -36q-11 -2 -22.5 -3.5t-26.5 -2.5t-35 -1.5t-47 -0.5h-225zM247 119q13 -1 29.5 -1.5t30.5 -0.5q51 0 94 8
t85 42q28 23 47 52.5t31.5 59t19.5 54.5t10 38q9 40 9 78q0 52 -21 91t-72 54q-19 5 -43.5 8t-67.5 3h-23t-26 -1zM696 918l-137 -145h-117l-73 145h94l50 -91l90 91h93z" />
    <glyph glyph-name="dcaron" unicode="&#x10f;" horiz-adv-x="611" 
d="M552 722h149l-136 -640q-5 -23 -8 -45.5t-5 -36.5h-150l11 73q-11 -14 -24 -28t-39 -29q-32 -18 -59.5 -22t-44.5 -4q-83 0 -127 44t-44 125q0 39 10 82q13 63 39.5 113t63.5 85t82 54t95 19q34 0 57 -8.5t37.5 -19.5t22 -22.5t11.5 -18.5zM236 245q-7 -31 -7 -63
q0 -41 17 -68.5t58 -27.5q32 0 60.5 17t45.5 40q23 32 34 66t15 53q3 16 5 30t2 27q0 48 -21.5 72t-62.5 24q-37 0 -63 -19.5t-43 -46.5t-26.5 -56t-13.5 -48zM878 722l-113 -159h-67l74 159h106z" />
    <glyph glyph-name="Dcroat" unicode="&#x110;" horiz-adv-x="722" 
d="M140 353h-65l18 87h65l60 282h239q15 0 43 -1.5t61.5 -8t68 -20t62.5 -37.5q40 -35 56 -84t16 -103q0 -24 -2.5 -48.5t-7.5 -48.5q-18 -83 -52 -146.5t-78.5 -108.5t-96.5 -72t-106 -36q-11 -2 -22.5 -3.5t-26.5 -2.5t-35 -1.5t-47 -0.5h-225zM247 119q13 -1 29.5 -1.5
t30.5 -0.5q51 0 94 8t85 42q28 23 47 52.5t31.5 59t19.5 54.5t10 38q9 40 9 78q0 52 -21 91t-72 54q-19 5 -43.5 8t-67.5 3h-23t-26 -1l-35 -164h145l-18 -87h-145z" />
    <glyph glyph-name="dcroat" unicode="&#x111;" horiz-adv-x="611" 
d="M668 568l-103 -486q-5 -23 -8 -45.5t-5 -36.5h-150l11 73q-11 -14 -24 -28t-39 -29q-32 -18 -59.5 -22t-44.5 -4q-83 0 -127 44t-44 125q0 39 10 82q13 63 39.5 113t63.5 85t82 54t95 19q34 0 57 -8.5t37.5 -19.5t22 -22.5t11.5 -18.5l26 125h-141l11 53h141l22 101h149
l-22 -101h55l-11 -53h-55zM236 245q-7 -31 -7 -63q0 -41 17 -68.5t58 -27.5q32 0 60.5 17t45.5 40q23 32 34 66t15 53q3 16 5 30t2 27q0 48 -21.5 72t-62.5 24q-37 0 -63 -19.5t-43 -46.5t-26.5 -56t-13.5 -48z" />
    <glyph glyph-name="Emacron" unicode="&#x112;" horiz-adv-x="603" 
d="M219 722h484l-25 -117h-329l-36 -172h308l-26 -118h-308l-41 -195h340l-25 -120h-495zM320 812l15 68h342l-15 -68h-342z" />
    <glyph glyph-name="emacron" unicode="&#x113;" 
d="M229 215q-2 -8 -4.5 -22t-2.5 -30q0 -15 3.5 -29.5t12.5 -26.5t25 -19.5t41 -7.5q28 0 55 14t47 56h135q-5 -18 -19.5 -48t-51.5 -62q-34 -29 -83.5 -44t-106.5 -15q-16 0 -38 2t-45 9t-44.5 19t-36.5 33q-17 23 -25 51.5t-8 61.5q0 20 2.5 40.5t7.5 43.5q6 31 17.5 64
t30 64.5t45 60t63.5 50.5q68 42 150 42q27 0 54.5 -6t52 -20t43.5 -37.5t29 -58.5q5 -17 6.5 -33t1.5 -33q0 -35 -6 -66t-12 -53h-339zM437 308q2 6 3.5 16.5t1.5 23.5q0 12 -3 25t-10.5 23.5t-21 17.5t-34.5 7q-24 0 -43.5 -9.5t-34.5 -25t-25 -36t-16 -42.5h183zM249 624
l15 68h342l-15 -68h-342z" />
    <glyph glyph-name="Ebreve" unicode="&#x114;" horiz-adv-x="603" 
d="M219 722h484l-25 -117h-329l-36 -172h308l-26 -118h-308l-41 -195h340l-25 -120h-495zM426 918q-2 -25 4.5 -40.5t18 -24.5t24.5 -12t25 -3q27 0 45.5 8.5t31 21t20.5 26t13 24.5h61q-8 -30 -24 -56t-40 -46t-54.5 -31.5t-67.5 -11.5q-38 0 -67 14t-43 41
q-8 12 -10.5 24.5t-2.5 24.5q0 11 1.5 22t3.5 19h61z" />
    <glyph glyph-name="ebreve" unicode="&#x115;" 
d="M229 215q-2 -8 -4.5 -22t-2.5 -30q0 -15 3.5 -29.5t12.5 -26.5t25 -19.5t41 -7.5q28 0 55 14t47 56h135q-5 -18 -19.5 -48t-51.5 -62q-34 -29 -83.5 -44t-106.5 -15q-16 0 -38 2t-45 9t-44.5 19t-36.5 33q-17 23 -25 51.5t-8 61.5q0 20 2.5 40.5t7.5 43.5q6 31 17.5 64
t30 64.5t45 60t63.5 50.5q68 42 150 42q27 0 54.5 -6t52 -20t43.5 -37.5t29 -58.5q5 -17 6.5 -33t1.5 -33q0 -35 -6 -66t-12 -53h-339zM437 308q2 6 3.5 16.5t1.5 23.5q0 12 -3 25t-10.5 23.5t-21 17.5t-34.5 7q-24 0 -43.5 -9.5t-34.5 -25t-25 -36t-16 -42.5h183zM349 730
q-2 -25 4.5 -40.5t18 -24.5t24.5 -12t25 -3q27 0 45.5 8.5t31 21t20.5 26t13 24.5h61q-8 -30 -24 -56t-40 -46t-54.5 -31.5t-67.5 -11.5q-38 0 -67 14t-43 41q-8 12 -10.5 24.5t-2.5 24.5q0 11 1.5 22t3.5 19h61z" />
    <glyph glyph-name="Edotaccent" unicode="&#x116;" horiz-adv-x="603" 
d="M219 722h484l-25 -117h-329l-36 -172h308l-26 -118h-308l-41 -195h340l-25 -120h-495zM471 905h102l-25 -118h-102z" />
    <glyph glyph-name="edotaccent" unicode="&#x117;" 
d="M229 215q-2 -8 -4.5 -22t-2.5 -30q0 -15 3.5 -29.5t12.5 -26.5t25 -19.5t41 -7.5q28 0 55 14t47 56h135q-5 -18 -19.5 -48t-51.5 -62q-34 -29 -83.5 -44t-106.5 -15q-16 0 -38 2t-45 9t-44.5 19t-36.5 33q-17 23 -25 51.5t-8 61.5q0 20 2.5 40.5t7.5 43.5q6 31 17.5 64
t30 64.5t45 60t63.5 50.5q68 42 150 42q27 0 54.5 -6t52 -20t43.5 -37.5t29 -58.5q5 -17 6.5 -33t1.5 -33q0 -35 -6 -66t-12 -53h-339zM437 308q2 6 3.5 16.5t1.5 23.5q0 12 -3 25t-10.5 23.5t-21 17.5t-34.5 7q-24 0 -43.5 -9.5t-34.5 -25t-25 -36t-16 -42.5h183zM393 717
h102l-25 -118h-102z" />
    <glyph glyph-name="Eogonek" unicode="&#x118;" horiz-adv-x="603" 
d="M219 722h484l-25 -117h-329l-36 -172h308l-26 -118h-308l-41 -195h340l-25 -120h-38q-35 -21 -61 -42.5t-33 -54.5q-5 -23 1 -35.5t15.5 -18.5t19 -7t12.5 -1q15 0 24.5 3.5t18.5 8.5l-9 -44q-16 -8 -40 -17t-59 -9q-48 0 -67.5 21.5t-12.5 53.5q10 45 50.5 82t97.5 60
h-414z" />
    <glyph glyph-name="eogonek" unicode="&#x119;" 
d="M360 -191q-16 -8 -40 -17t-59 -9q-48 0 -67.5 21.5t-12.5 53.5q8 36 37 68t71 55h-9q-16 0 -38 2t-45 9t-44.5 19t-36.5 33q-17 23 -25 51.5t-8 61.5q0 20 2.5 40.5t7.5 43.5q6 31 17.5 64t30 64.5t45 60t63.5 50.5q68 42 150 42q27 0 54.5 -6t52 -20t43.5 -37.5
t29 -58.5q5 -17 6.5 -33t1.5 -33q0 -35 -6 -66t-12 -53h-339q-2 -8 -4.5 -22t-2.5 -30q0 -15 3.5 -29.5t12.5 -26.5t25 -19.5t41 -7.5q28 0 55 14t47 56h135q-5 -18 -19.5 -48t-51.5 -62q-23 -20 -53 -32.5t-65 -19.5q-29 -18 -48.5 -37.5t-25.5 -47.5q-5 -23 1 -35.5
t15.5 -18.5t19 -7t12.5 -1q15 0 24.5 3.5t18.5 8.5zM437 308q2 6 3.5 16.5t1.5 23.5q0 12 -3 25t-10.5 23.5t-21 17.5t-34.5 7q-24 0 -43.5 -9.5t-34.5 -25t-25 -36t-16 -42.5h183z" />
    <glyph glyph-name="Ecaron" unicode="&#x11a;" horiz-adv-x="603" 
d="M219 722h484l-25 -117h-329l-36 -172h308l-26 -118h-308l-41 -195h340l-25 -120h-495zM682 918l-137 -145h-117l-73 145h94l50 -91l90 91h93z" />
    <glyph glyph-name="ecaron" unicode="&#x11b;" 
d="M229 215q-2 -8 -4.5 -22t-2.5 -30q0 -15 3.5 -29.5t12.5 -26.5t25 -19.5t41 -7.5q28 0 55 14t47 56h135q-5 -18 -19.5 -48t-51.5 -62q-34 -29 -83.5 -44t-106.5 -15q-16 0 -38 2t-45 9t-44.5 19t-36.5 33q-17 23 -25 51.5t-8 61.5q0 20 2.5 40.5t7.5 43.5q6 31 17.5 64
t30 64.5t45 60t63.5 50.5q68 42 150 42q27 0 54.5 -6t52 -20t43.5 -37.5t29 -58.5q5 -17 6.5 -33t1.5 -33q0 -35 -6 -66t-12 -53h-339zM437 308q2 6 3.5 16.5t1.5 23.5q0 12 -3 25t-10.5 23.5t-21 17.5t-34.5 7q-24 0 -43.5 -9.5t-34.5 -25t-25 -36t-16 -42.5h183zM609 730
l-137 -145h-117l-73 145h94l50 -91l90 91h93z" />
    <glyph glyph-name="Gcircumflex" unicode="&#x11c;" horiz-adv-x="778" 
d="M659 495q1 7 2 15t1 17q0 22 -8 41q-8 18 -21 29t-28 17t-31 8t-29 2q-66 0 -113 -26.5t-78.5 -66.5t-49.5 -87t-27 -89q-4 -17 -7 -38.5t-3 -45.5q0 -29 6 -58t23 -52q20 -30 56 -46t101 -16q56 0 81.5 5t39.5 9l32 152h-140l25 120h295l-76 -361q-18 -6 -43 -13
t-58 -13t-75.5 -10t-96.5 -4q-62 0 -108 7t-80 20t-57.5 30.5t-40.5 38.5q-29 37 -40 79.5t-11 85.5q0 28 3.5 55t8.5 50q20 96 63.5 168.5t104.5 121t136 73t157 24.5q35 0 68.5 -5t63.5 -16t54.5 -28.5t40.5 -41.5q15 -25 21 -48.5t6 -45.5q0 -16 -2.5 -30t-4.5 -27h-161z
M546 918h103l73 -145h-89l-50 85l-88 -85h-90z" />
    <glyph glyph-name="gcircumflex" unicode="&#x11d;" horiz-adv-x="611" 
d="M650 503q-9 -30 -17 -58.5t-16 -66.5l-79 -373q-15 -70 -49.5 -110.5t-77 -61.5t-88 -26.5t-81.5 -5.5q-25 0 -57.5 3.5t-62 16t-50 38.5t-20.5 71q0 15 3 33h142q-1 -6 -1 -17.5t7 -23t22.5 -20.5t44.5 -9q33 0 62 16t44 50q4 9 7.5 18.5t7 22t7.5 31.5t10 48
q-23 -23 -44.5 -37t-40 -21t-35 -9t-30.5 -2q-44 0 -76 14.5t-52.5 39t-30.5 57.5t-10 69q0 31 8 68q10 48 33 93t57.5 80t79.5 56t99 21q35 0 57.5 -8t36.5 -19.5t21 -24t11 -20.5l19 67h139zM245 258q-2 -7 -4.5 -22.5t-2.5 -34.5q0 -16 3 -32t11 -29t23 -21t38 -8
q39 0 64.5 19.5t40.5 44.5t21.5 48.5t8.5 31.5q3 14 5 30t2 33t-3.5 33.5t-12 29t-23 20.5t-37.5 8q-42 0 -79.5 -35t-54.5 -116zM409 730h103l73 -145h-89l-50 85l-88 -85h-90z" />
    <glyph glyph-name="Gbreve" unicode="&#x11e;" horiz-adv-x="778" 
d="M659 495q1 7 2 15t1 17q0 22 -8 41q-8 18 -21 29t-28 17t-31 8t-29 2q-66 0 -113 -26.5t-78.5 -66.5t-49.5 -87t-27 -89q-4 -17 -7 -38.5t-3 -45.5q0 -29 6 -58t23 -52q20 -30 56 -46t101 -16q56 0 81.5 5t39.5 9l32 152h-140l25 120h295l-76 -361q-18 -6 -43 -13
t-58 -13t-75.5 -10t-96.5 -4q-62 0 -108 7t-80 20t-57.5 30.5t-40.5 38.5q-29 37 -40 79.5t-11 85.5q0 28 3.5 55t8.5 50q20 96 63.5 168.5t104.5 121t136 73t157 24.5q35 0 68.5 -5t63.5 -16t54.5 -28.5t40.5 -41.5q15 -25 21 -48.5t6 -45.5q0 -16 -2.5 -30t-4.5 -27h-161z
M505 918q-2 -25 4.5 -40.5t18 -24.5t24.5 -12t25 -3q27 0 45.5 8.5t31 21t20.5 26t13 24.5h61q-8 -30 -24 -56t-40 -46t-54.5 -31.5t-67.5 -11.5q-38 0 -67 14t-43 41q-8 12 -10.5 24.5t-2.5 24.5q0 11 1.5 22t3.5 19h61z" />
    <glyph glyph-name="gbreve" unicode="&#x11f;" horiz-adv-x="611" 
d="M650 503q-9 -30 -17 -58.5t-16 -66.5l-79 -373q-15 -70 -49.5 -110.5t-77 -61.5t-88 -26.5t-81.5 -5.5q-25 0 -57.5 3.5t-62 16t-50 38.5t-20.5 71q0 15 3 33h142q-1 -6 -1 -17.5t7 -23t22.5 -20.5t44.5 -9q33 0 62 16t44 50q4 9 7.5 18.5t7 22t7.5 31.5t10 48
q-23 -23 -44.5 -37t-40 -21t-35 -9t-30.5 -2q-44 0 -76 14.5t-52.5 39t-30.5 57.5t-10 69q0 31 8 68q10 48 33 93t57.5 80t79.5 56t99 21q35 0 57.5 -8t36.5 -19.5t21 -24t11 -20.5l19 67h139zM245 258q-2 -7 -4.5 -22.5t-2.5 -34.5q0 -16 3 -32t11 -29t23 -21t38 -8
q39 0 64.5 19.5t40.5 44.5t21.5 48.5t8.5 31.5q3 14 5 30t2 33t-3.5 33.5t-12 29t-23 20.5t-37.5 8q-42 0 -79.5 -35t-54.5 -116zM376 730q-2 -25 4.5 -40.5t18 -24.5t24.5 -12t25 -3q27 0 45.5 8.5t31 21t20.5 26t13 24.5h61q-8 -30 -24 -56t-40 -46t-54.5 -31.5
t-67.5 -11.5q-38 0 -67 14t-43 41q-8 12 -10.5 24.5t-2.5 24.5q0 11 1.5 22t3.5 19h61z" />
    <glyph glyph-name="Gdotaccent" unicode="&#x120;" horiz-adv-x="778" 
d="M659 495q1 7 2 15t1 17q0 22 -8 41q-8 18 -21 29t-28 17t-31 8t-29 2q-66 0 -113 -26.5t-78.5 -66.5t-49.5 -87t-27 -89q-4 -17 -7 -38.5t-3 -45.5q0 -29 6 -58t23 -52q20 -30 56 -46t101 -16q56 0 81.5 5t39.5 9l32 152h-140l25 120h295l-76 -361q-18 -6 -43 -13
t-58 -13t-75.5 -10t-96.5 -4q-62 0 -108 7t-80 20t-57.5 30.5t-40.5 38.5q-29 37 -40 79.5t-11 85.5q0 28 3.5 55t8.5 50q20 96 63.5 168.5t104.5 121t136 73t157 24.5q35 0 68.5 -5t63.5 -16t54.5 -28.5t40.5 -41.5q15 -25 21 -48.5t6 -45.5q0 -16 -2.5 -30t-4.5 -27h-161z
M554 905h102l-25 -118h-102z" />
    <glyph glyph-name="gdotaccent" unicode="&#x121;" horiz-adv-x="611" 
d="M650 503q-9 -30 -17 -58.5t-16 -66.5l-79 -373q-15 -70 -49.5 -110.5t-77 -61.5t-88 -26.5t-81.5 -5.5q-25 0 -57.5 3.5t-62 16t-50 38.5t-20.5 71q0 15 3 33h142q-1 -6 -1 -17.5t7 -23t22.5 -20.5t44.5 -9q33 0 62 16t44 50q4 9 7.5 18.5t7 22t7.5 31.5t10 48
q-23 -23 -44.5 -37t-40 -21t-35 -9t-30.5 -2q-44 0 -76 14.5t-52.5 39t-30.5 57.5t-10 69q0 31 8 68q10 48 33 93t57.5 80t79.5 56t99 21q35 0 57.5 -8t36.5 -19.5t21 -24t11 -20.5l19 67h139zM245 258q-2 -7 -4.5 -22.5t-2.5 -34.5q0 -16 3 -32t11 -29t23 -21t38 -8
q39 0 64.5 19.5t40.5 44.5t21.5 48.5t8.5 31.5q3 14 5 30t2 33t-3.5 33.5t-12 29t-23 20.5t-37.5 8q-42 0 -79.5 -35t-54.5 -116zM404 717h102l-25 -118h-102z" />
    <glyph glyph-name="Gcommaaccent" unicode="&#x122;" horiz-adv-x="778" 
d="M659 495q1 7 2 15t1 17q0 22 -8 41q-8 18 -21 29t-28 17t-31 8t-29 2q-66 0 -113 -26.5t-78.5 -66.5t-49.5 -87t-27 -89q-4 -17 -7 -38.5t-3 -45.5q0 -29 6 -58t23 -52q20 -30 56 -46t101 -16q56 0 81.5 5t39.5 9l32 152h-140l25 120h295l-76 -361q-18 -6 -43 -13
t-58 -13t-75.5 -10t-96.5 -4q-62 0 -108 7t-80 20t-57.5 30.5t-40.5 38.5q-29 37 -40 79.5t-11 85.5q0 28 3.5 55t8.5 50q20 96 63.5 168.5t104.5 121t136 73t157 24.5q35 0 68.5 -5t63.5 -16t54.5 -28.5t40.5 -41.5q15 -25 21 -48.5t6 -45.5q0 -16 -2.5 -30t-4.5 -27h-161z
M468 -66l-112 -159h-67l73 159h106z" />
    <glyph glyph-name="gcommaaccent" unicode="&#x123;" horiz-adv-x="611" 
d="M650 503q-9 -30 -17 -58.5t-16 -66.5l-79 -373q-15 -70 -49.5 -110.5t-77 -61.5t-88 -26.5t-81.5 -5.5q-25 0 -57.5 3.5t-62 16t-50 38.5t-20.5 71q0 15 3 33h142q-1 -6 -1 -17.5t7 -23t22.5 -20.5t44.5 -9q33 0 62 16t44 50q4 9 7.5 18.5t7 22t7.5 31.5t10 48
q-23 -23 -44.5 -37t-40 -21t-35 -9t-30.5 -2q-44 0 -76 14.5t-52.5 39t-30.5 57.5t-10 69q0 31 8 68q10 48 33 93t57.5 80t79.5 56t99 21q35 0 57.5 -8t36.5 -19.5t21 -24t11 -20.5l19 67h139zM245 258q-2 -7 -4.5 -22.5t-2.5 -34.5q0 -16 3 -32t11 -29t23 -21t38 -8
q39 0 64.5 19.5t40.5 44.5t21.5 48.5t8.5 31.5q3 14 5 30t2 33t-3.5 33.5t-12 29t-23 20.5t-37.5 8q-42 0 -79.5 -35t-54.5 -116zM367 585l113 159h67l-74 -159h-106z" />
    <glyph glyph-name="Hcircumflex" unicode="&#x124;" horiz-adv-x="719" 
d="M220 722h155l-61 -288h273l61 288h157l-153 -722h-155l67 317h-275l-67 -317h-155zM509 918h103l73 -145h-89l-50 85l-88 -85h-90z" />
    <glyph glyph-name="hcircumflex" unicode="&#x125;" horiz-adv-x="611" 
d="M222 722h147l-61 -286q8 9 21.5 22t33 25t46 20.5t61.5 8.5q28 0 50 -6.5t38 -16t27 -21.5t18 -24q13 -24 13 -65q0 -30 -9 -72l-65 -307h-147l64 302q2 8 3.5 19.5t1.5 24.5q0 12 -2.5 24t-9.5 21t-20 15t-33 6q-15 0 -33 -5t-34.5 -17t-30 -31.5t-19.5 -49.5l-64 -309
h-149zM282 906h103l73 -145h-89l-50 85l-88 -85h-90z" />
    <glyph glyph-name="Hbar" unicode="&#x126;" horiz-adv-x="722" 
d="M220 722h155l-24 -115h273l24 115h157l-153 -722h-155l67 317h-275l-67 -317h-155zM587 434l22 105h-273l-22 -105h273z" />
    <glyph glyph-name="hbar" unicode="&#x127;" horiz-adv-x="611" 
d="M189 568h-55l11 53h55l22 101h147l-22 -101h143l-11 -53h-143l-28 -132q8 9 21.5 22t33 25t46 20.5t61.5 8.5q28 0 50 -6.5t38 -16t27 -21.5t18 -24q13 -24 13 -65q0 -30 -9 -72l-65 -307h-147l64 302q2 8 3.5 19.5t1.5 24.5q0 12 -2.5 24t-9.5 21t-20 15t-33 6
q-15 0 -33 -5t-34.5 -17t-30 -31.5t-19.5 -49.5l-64 -309h-149z" />
    <glyph glyph-name="Itilde" unicode="&#x128;" horiz-adv-x="289" 
d="M220 722h155l-153 -722h-155zM125 781q20 57 59.5 90t84.5 33q16 0 31 -5t16 -6l53 -22q4 -2 11.5 -4t20.5 -2q22 0 35.5 13.5t21.5 32.5h51q-8 -27 -21 -50t-39 -43q-14 -11 -33 -20t-45 -9q-17 0 -29 4t-20 7l-40 16q-8 3 -20.5 6.5t-22.5 3.5q-13 0 -29.5 -8
t-32.5 -37h-52z" />
    <glyph glyph-name="itilde" unicode="&#x129;" horiz-adv-x="278" 
d="M172 506h148l-107 -506h-148zM88 593q20 57 59.5 90t84.5 33q16 0 31 -5t16 -6l53 -22q4 -2 11.5 -4t20.5 -2q22 0 35.5 13.5t21.5 32.5h51q-8 -27 -21 -50t-39 -43q-14 -11 -33 -20t-45 -9q-17 0 -29 4t-20 7l-40 16q-8 3 -20.5 6.5t-22.5 3.5q-13 0 -29.5 -8t-32.5 -37
h-52z" />
    <glyph glyph-name="Imacron" unicode="&#x12a;" horiz-adv-x="289" 
d="M220 722h155l-153 -722h-155zM137 812l15 68h342l-15 -68h-342z" />
    <glyph glyph-name="imacron" unicode="&#x12b;" horiz-adv-x="278" 
d="M172 506h148l-107 -506h-148zM102 624l15 68h342l-15 -68h-342z" />
    <glyph glyph-name="Iogonek" unicode="&#x12e;" horiz-adv-x="289" 
d="M220 722h155l-153 -722h-37q-35 -21 -61 -42.5t-33 -54.5q-5 -23 1 -35.5t15.5 -18.5t19 -7t12.5 -1q15 0 24.5 3.5t18.5 8.5l-9 -44q-16 -8 -40 -17t-59 -9q-48 0 -67 21.5t-12 53.5q9 45 49.5 82t97.5 60h-75z" />
    <glyph glyph-name="iogonek" unicode="&#x12f;" horiz-adv-x="278" 
d="M172 506h148l-107 -506h-46q-35 -21 -61 -42.5t-33 -54.5q-5 -23 1 -35.5t15.5 -18.5t19 -7t12.5 -1q15 0 24.5 3.5t18.5 8.5l-9 -44q-16 -8 -40 -17t-59 -9q-46 0 -66 21.5t-13 53.5q10 45 50 82t97 60h-59zM213 722h158l-27 -129h-158z" />
    <glyph glyph-name="Idotaccent" unicode="&#x130;" horiz-adv-x="289" 
d="M220 722h155l-153 -722h-155zM280 905h102l-25 -118h-102z" />
    <glyph glyph-name="dotlessi" unicode="&#x131;" horiz-adv-x="278" 
d="M172 506h148l-107 -506h-148z" />
    <glyph glyph-name="IJ" unicode="&#x132;" horiz-adv-x="822" 
d="M220 722h155l-153 -722h-155zM476 234q-6 -32 -6 -56q0 -34 14.5 -53t49.5 -19q22 0 38 7t27 16.5t17.5 20t9.5 17.5q9 23 16.5 53.5t13.5 59.5l94 442h157l-94 -443q-9 -42 -21.5 -79t-32 -69.5t-46.5 -59t-66 -47.5q-24 -13 -58.5 -22t-88.5 -9q-59 0 -103 17t-67 71
q-8 18 -11.5 38t-3.5 40q0 22 3 41.5t6 33.5h152z" />
    <glyph glyph-name="ij" unicode="&#x133;" horiz-adv-x="549" 
d="M213 722h158l-27 -129h-158zM172 506h148l-107 -506h-148zM250 -94q24 -1 39.5 8.5t24.5 23.5t13.5 29t6.5 25l109 515h148l-117 -552q-8 -36 -22 -64t-37.5 -48t-57.5 -30.5t-81 -10.5q-5 0 -18.5 0.5t-29.5 3.5zM484 722h158l-27 -129h-158z" />
    <glyph glyph-name="Jcircumflex" unicode="&#x134;" horiz-adv-x="548" 
d="M210 234q-6 -32 -6 -56q0 -34 14.5 -53t49.5 -19q22 0 38 7t27 16.5t17.5 20t9.5 17.5q9 23 16.5 53.5t13.5 59.5l94 442h157l-94 -443q-9 -42 -21.5 -79t-32 -69.5t-46.5 -59t-66 -47.5q-24 -13 -58.5 -22t-88.5 -9q-59 0 -103 17t-67 71q-8 18 -11.5 38t-3.5 40
q0 22 3 41.5t6 33.5h152zM548 918h103l73 -145h-89l-50 85l-88 -85h-90z" />
    <glyph glyph-name="jcircumflex" unicode="&#x135;" horiz-adv-x="278" 
d="M-21 -94q24 -1 39.5 8.5t24.5 23.5t13.5 29t6.5 25l109 515h148l-117 -552q-8 -36 -22 -64t-37.5 -48t-57.5 -30.5t-81 -10.5q-5 0 -18.5 0.5t-29.5 3.5zM244 730h103l73 -145h-89l-50 85l-88 -85h-90z" />
    <glyph glyph-name="Kcommaaccent" unicode="&#x136;" horiz-adv-x="667" 
d="M220 722h155l-66 -312l308 312h181l-334 -323l204 -399h-193l-175 368l-78 -368h-155zM373 -66l-112 -159h-67l73 159h106z" />
    <glyph glyph-name="kcommaaccent" unicode="&#x137;" 
d="M220 722h147l-90 -425l197 211h167l-219 -220l123 -288h-175l-98 275l-58 -275h-147zM321 -66l-112 -159h-67l73 159h106z" />
    <glyph glyph-name="Lacute" unicode="&#x139;" 
d="M222 722h158l-127 -599h310l-26 -123h-468zM344 773h-80l114 145h134z" />
    <glyph glyph-name="lacute" unicode="&#x13a;" horiz-adv-x="278" 
d="M218 722h148l-153 -722h-148zM319 758h-80l114 145h134z" />
    <glyph glyph-name="Lcommaaccent" unicode="&#x13b;" 
d="M222 722h158l-127 -599h310l-26 -123h-468zM339 -66l-112 -159h-67l73 159h106z" />
    <glyph glyph-name="lcommaaccent" unicode="&#x13c;" horiz-adv-x="278" 
d="M218 722h148l-153 -722h-148zM181 -66l-112 -159h-67l73 159h106z" />
    <glyph glyph-name="Lcaron" unicode="&#x13d;" 
d="M222 722h158l-127 -599h310l-26 -123h-468zM667 722l-113 -159h-67l74 159h106z" />
    <glyph glyph-name="lcaron" unicode="&#x13e;" horiz-adv-x="278" 
d="M218 722h148l-153 -722h-148zM545 722l-113 -159h-67l74 159h106z" />
    <glyph glyph-name="Ldot" unicode="&#x13f;" 
d="M222 722h158l-127 -599h310l-26 -123h-468zM477 492h102l-25 -118h-102z" />
    <glyph glyph-name="ldot" unicode="&#x140;" horiz-adv-x="389" 
d="M218 722h148l-153 -722h-148zM372 450h102l-25 -118h-102z" />
    <glyph glyph-name="Lslash" unicode="&#x141;" 
d="M130 289l-74 -38l21 101l76 40l69 330h158l-51 -241l196 102l-22 -104l-196 -101l-54 -255h310l-26 -123h-468z" />
    <glyph glyph-name="lslash" unicode="&#x142;" horiz-adv-x="278" 
d="M127 293l-60 -32l22 103l60 33l69 325h148l-50 -235l60 33l-22 -105l-60 -32l-81 -383h-148z" />
    <glyph glyph-name="Nacute" unicode="&#x143;" horiz-adv-x="773" 
d="M220 722h224l150 -568l121 568h144l-153 -722h-213l-153 600l-127 -600h-146zM579 773h-80l114 145h134z" />
    <glyph glyph-name="nacute" unicode="&#x144;" horiz-adv-x="611" 
d="M155 415q0 1 2 10.5t4.5 23t5 29.5t4.5 29h142l-12 -76q7 9 21 23.5t36.5 29t53.5 25t72 10.5q37 0 62 -10t40.5 -24.5t22.5 -31t9 -29.5q1 -12 1 -23.5t-2 -28t-6 -40t-11 -59.5l-58 -273h-151l66 314q4 16 6 29.5t-2 25.5q-5 17 -19.5 30t-43.5 13q-24 0 -46.5 -10.5
t-38.5 -28.5q-9 -10 -18.5 -29t-16.5 -48l-62 -296h-149zM464 585h-80l114 145h134z" />
    <glyph glyph-name="Ncommaaccent" unicode="&#x145;" horiz-adv-x="773" 
d="M220 722h224l150 -568l121 568h144l-153 -722h-213l-153 600l-127 -600h-146zM426 -66l-112 -159h-67l73 159h106z" />
    <glyph glyph-name="ncommaaccent" unicode="&#x146;" horiz-adv-x="611" 
d="M155 415q0 1 2 10.5t4.5 23t5 29.5t4.5 29h142l-12 -76q7 9 21 23.5t36.5 29t53.5 25t72 10.5q37 0 62 -10t40.5 -24.5t22.5 -31t9 -29.5q1 -12 1 -23.5t-2 -28t-6 -40t-11 -59.5l-58 -273h-151l66 314q4 16 6 29.5t-2 25.5q-5 17 -19.5 30t-43.5 13q-24 0 -46.5 -10.5
t-38.5 -28.5q-9 -10 -18.5 -29t-16.5 -48l-62 -296h-149zM345 -66l-112 -159h-67l73 159h106z" />
    <glyph glyph-name="Ncaron" unicode="&#x147;" horiz-adv-x="773" 
d="M220 722h224l150 -568l121 568h144l-153 -722h-213l-153 600l-127 -600h-146zM752 918l-137 -145h-117l-73 145h94l50 -91l90 91h93z" />
    <glyph glyph-name="ncaron" unicode="&#x148;" horiz-adv-x="611" 
d="M155 415q0 1 2 10.5t4.5 23t5 29.5t4.5 29h142l-12 -76q7 9 21 23.5t36.5 29t53.5 25t72 10.5q37 0 62 -10t40.5 -24.5t22.5 -31t9 -29.5q1 -12 1 -23.5t-2 -28t-6 -40t-11 -59.5l-58 -273h-151l66 314q4 16 6 29.5t-2 25.5q-5 17 -19.5 30t-43.5 13q-24 0 -46.5 -10.5
t-38.5 -28.5q-9 -10 -18.5 -29t-16.5 -48l-62 -296h-149zM626 730l-137 -145h-117l-73 145h94l50 -91l90 91h93z" />
    <glyph glyph-name="napostrophe" unicode="&#x149;" horiz-adv-x="611" 
d="M155 415q0 1 2 10.5t4.5 23t5 29.5t4.5 29h142l-12 -76q7 9 21 23.5t36.5 29t53.5 25t72 10.5q37 0 62 -10t40.5 -24.5t22.5 -31t9 -29.5q1 -12 1 -23.5t-2 -28t-6 -40t-11 -59.5l-58 -273h-151l66 314q4 16 6 29.5t-2 25.5q-5 17 -19.5 30t-43.5 13q-24 0 -46.5 -10.5
t-38.5 -28.5q-9 -10 -18.5 -29t-16.5 -48l-62 -296h-149zM308 722l-113 -159h-67l74 159h106z" />
    <glyph glyph-name="Omacron" unicode="&#x14c;" horiz-adv-x="778" 
d="M116 351q15 72 47.5 141.5t85 124t126 88t170.5 33.5q28 0 61 -4t64.5 -15t60 -30t48.5 -49q26 -39 36 -83t10 -86q0 -29 -3.5 -55t-8.5 -48q-9 -40 -23.5 -79.5t-33.5 -76.5t-43 -69.5t-51 -57.5q-38 -34 -77.5 -54t-77 -31t-70 -14.5t-54.5 -3.5q-71 0 -134 23.5
t-101 75.5q-26 35 -35 76t-9 81q0 32 3.5 61t8.5 52zM279 356q-5 -24 -8.5 -49t-3.5 -50q0 -28 5 -54t18 -49q12 -23 38.5 -40.5t80.5 -17.5q92 0 149 67q24 27 49.5 74t43.5 133q5 20 8.5 45.5t3.5 51.5q0 8 -0.5 16t-1.5 16q-9 67 -45 97.5t-93 30.5q-45 0 -81.5 -16.5
t-64.5 -44.5q-39 -38 -61.5 -92.5t-36.5 -117.5zM390 812l15 68h342l-15 -68h-342z" />
    <glyph glyph-name="omacron" unicode="&#x14d;" horiz-adv-x="611" 
d="M94 248q10 46 33 93.5t61.5 86.5t93.5 64t130 25q57 0 97.5 -15t66.5 -41t38 -61.5t12 -76.5q0 -33 -8 -71q-11 -53 -37 -102t-66.5 -86.5t-95 -59.5t-123.5 -22q-46 0 -84.5 12t-66.5 36.5t-43.5 60.5t-15.5 84q0 17 1.5 35t6.5 38zM246 247q-5 -20 -6.5 -37t-1.5 -32
q0 -48 21.5 -70.5t63.5 -22.5q25 0 46.5 8t39.5 28t33 53.5t26 83.5q4 16 6.5 33t2.5 34q0 18 -4 35t-14 30t-26.5 20.5t-41.5 7.5q-41 0 -67 -20.5t-42 -48t-24 -56.5t-12 -46zM266 624l15 68h342l-15 -68h-342z" />
    <glyph glyph-name="Obreve" unicode="&#x14e;" horiz-adv-x="778" 
d="M116 351q15 72 47.5 141.5t85 124t126 88t170.5 33.5q28 0 61 -4t64.5 -15t60 -30t48.5 -49q26 -39 36 -83t10 -86q0 -29 -3.5 -55t-8.5 -48q-9 -40 -23.5 -79.5t-33.5 -76.5t-43 -69.5t-51 -57.5q-38 -34 -77.5 -54t-77 -31t-70 -14.5t-54.5 -3.5q-71 0 -134 23.5
t-101 75.5q-26 35 -35 76t-9 81q0 32 3.5 61t8.5 52zM279 356q-5 -24 -8.5 -49t-3.5 -50q0 -28 5 -54t18 -49q12 -23 38.5 -40.5t80.5 -17.5q92 0 149 67q24 27 49.5 74t43.5 133q5 20 8.5 45.5t3.5 51.5q0 8 -0.5 16t-1.5 16q-9 67 -45 97.5t-93 30.5q-45 0 -81.5 -16.5
t-64.5 -44.5q-39 -38 -61.5 -92.5t-36.5 -117.5zM491 918q-2 -25 4.5 -40.5t18 -24.5t24.5 -12t25 -3q27 0 45.5 8.5t31 21t20.5 26t13 24.5h61q-8 -30 -24 -56t-40 -46t-54.5 -31.5t-67.5 -11.5q-38 0 -67 14t-43 41q-8 12 -10.5 24.5t-2.5 24.5q0 11 1.5 22t3.5 19h61z
" />
    <glyph glyph-name="obreve" unicode="&#x14f;" horiz-adv-x="611" 
d="M94 248q10 46 33 93.5t61.5 86.5t93.5 64t130 25q57 0 97.5 -15t66.5 -41t38 -61.5t12 -76.5q0 -33 -8 -71q-11 -53 -37 -102t-66.5 -86.5t-95 -59.5t-123.5 -22q-46 0 -84.5 12t-66.5 36.5t-43.5 60.5t-15.5 84q0 17 1.5 35t6.5 38zM246 247q-5 -20 -6.5 -37t-1.5 -32
q0 -48 21.5 -70.5t63.5 -22.5q25 0 46.5 8t39.5 28t33 53.5t26 83.5q4 16 6.5 33t2.5 34q0 18 -4 35t-14 30t-26.5 20.5t-41.5 7.5q-41 0 -67 -20.5t-42 -48t-24 -56.5t-12 -46zM369 730q-2 -25 4.5 -40.5t18 -24.5t24.5 -12t25 -3q27 0 45.5 8.5t31 21t20.5 26t13 24.5h61
q-8 -30 -24 -56t-40 -46t-54.5 -31.5t-67.5 -11.5q-38 0 -67 14t-43 41q-8 12 -10.5 24.5t-2.5 24.5q0 11 1.5 22t3.5 19h61z" />
    <glyph glyph-name="Ohungarumlaut" unicode="&#x150;" horiz-adv-x="778" 
d="M116 351q15 72 47.5 141.5t85 124t126 88t170.5 33.5q28 0 61 -4t64.5 -15t60 -30t48.5 -49q26 -39 36 -83t10 -86q0 -29 -3.5 -55t-8.5 -48q-9 -40 -23.5 -79.5t-33.5 -76.5t-43 -69.5t-51 -57.5q-38 -34 -77.5 -54t-77 -31t-70 -14.5t-54.5 -3.5q-71 0 -134 23.5
t-101 75.5q-26 35 -35 76t-9 81q0 32 3.5 61t8.5 52zM279 356q-5 -24 -8.5 -49t-3.5 -50q0 -28 5 -54t18 -49q12 -23 38.5 -40.5t80.5 -17.5q92 0 149 67q24 27 49.5 74t43.5 133q5 20 8.5 45.5t3.5 51.5q0 8 -0.5 16t-1.5 16q-9 67 -45 97.5t-93 30.5q-45 0 -81.5 -16.5
t-64.5 -44.5q-39 -38 -61.5 -92.5t-36.5 -117.5zM466 773h-80l115 145h134zM651 773h-80l115 145h134z" />
    <glyph glyph-name="ohungarumlaut" unicode="&#x151;" horiz-adv-x="611" 
d="M94 248q10 46 33 93.5t61.5 86.5t93.5 64t130 25q57 0 97.5 -15t66.5 -41t38 -61.5t12 -76.5q0 -33 -8 -71q-11 -53 -37 -102t-66.5 -86.5t-95 -59.5t-123.5 -22q-46 0 -84.5 12t-66.5 36.5t-43.5 60.5t-15.5 84q0 17 1.5 35t6.5 38zM246 247q-5 -20 -6.5 -37t-1.5 -32
q0 -48 21.5 -70.5t63.5 -22.5q25 0 46.5 8t39.5 28t33 53.5t26 83.5q4 16 6.5 33t2.5 34q0 18 -4 35t-14 30t-26.5 20.5t-41.5 7.5q-41 0 -67 -20.5t-42 -48t-24 -56.5t-12 -46zM355 585h-80l115 145h134zM540 585h-80l115 145h134z" />
    <glyph glyph-name="OE" unicode="&#x152;" horiz-adv-x="1000" 
d="M1079 606h-295l-38 -180h286l-25 -116h-287l-40 -190h308l-25 -120h-491q-50 0 -97 1.5t-90 10t-79 27t-63 53.5q-28 35 -37.5 77.5t-9.5 83.5q0 30 3 56.5t8 43.5q13 61 38.5 117.5t62 103t84 79.5t104.5 48q30 8 54 12t49.5 6t55 2.5t70.5 0.5h479zM630 614
q-42 0 -72 -0.5t-53.5 -3.5t-43 -8t-39.5 -14q-32 -14 -57 -38t-44.5 -55.5t-33 -68.5t-21.5 -77q-10 -46 -10 -83q0 -52 18 -82.5t48 -47t68.5 -21.5t79.5 -5q14 0 27 0.5t26 0.5z" />
    <glyph glyph-name="oe" unicode="&#x153;" horiz-adv-x="944" 
d="M932 156q-15 -42 -38 -73t-60 -56q-42 -28 -84.5 -36t-72.5 -8q-43 0 -71.5 8.5t-47.5 21.5t-30.5 29.5t-20.5 32.5q-56 -55 -107.5 -74t-109.5 -19t-97 15.5t-62.5 42t-33.5 61t-10 72.5q0 37 8 77q17 81 54 132.5t82 81.5t92 41.5t84 11.5q46 0 77.5 -11t51 -26
t30 -30.5t16.5 -25.5q8 10 23.5 26t40.5 31.5t59.5 26.5t80.5 11q19 0 44 -3.5t49.5 -14.5t46 -31t34.5 -53q6 -15 8.5 -32.5t2.5 -36.5q0 -36 -6.5 -71t-11.5 -58h-335q-6 -26 -6 -54q0 -17 3.5 -33t12.5 -28.5t24 -20t38 -7.5q33 0 59.5 19t43.5 61h139zM826 311
q2 9 4 21.5t2 26.5q0 13 -3 25t-10.5 21.5t-21 15t-34.5 5.5q-42 0 -74.5 -27.5t-50.5 -87.5h188zM322 80q41 0 68 18t44.5 45t27 58.5t15.5 58.5q2 11 5 29.5t3 38.5q0 17 -3.5 34t-13.5 30t-27.5 21t-45.5 8q-34 0 -59 -14.5t-43 -38t-29.5 -54.5t-18.5 -64q-9 -44 -9 -75
q0 -95 86 -95z" />
    <glyph glyph-name="Racute" unicode="&#x154;" horiz-adv-x="667" 
d="M219 722h277q30 0 60 -1t57 -5.5t50.5 -14t41.5 -27.5q20 -21 29 -47t9 -52q0 -11 -1.5 -20.5t-3.5 -19.5q-11 -51 -36.5 -83.5t-54.5 -52t-56 -28.5t-41 -13q30 -3 49.5 -11.5t30 -21.5t14.5 -31t4 -40q0 -14 -1 -29.5t-3 -32.5q-5 -64 -6.5 -94.5t-0.5 -45.5
q1 -24 3.5 -33.5t7.5 -18.5h-171q0 15 2.5 52t5.5 78t5 75.5t1 45.5q-2 15 -9.5 23.5t-17.5 12.5t-21 4.5t-21 0.5h-136l-62 -292h-158zM305 407h125q14 0 37.5 2.5t45.5 17.5q5 3 13 9.5t16.5 16.5t16.5 24.5t12 33.5q8 37 -2 55.5t-19 25.5q-15 13 -38 15t-60 2h-104z
M494 773h-80l114 145h134z" />
    <glyph glyph-name="racute" unicode="&#x155;" horiz-adv-x="389" 
d="M145 381q2 9 5 25.5t6 35t5.5 36.5t3.5 29h139l-17 -97q10 16 25 34t37.5 33t54 24t75.5 7l-28 -133q-8 1 -16 1h-16q-45 0 -73 -11.5t-44.5 -30t-24.5 -41t-12 -44.5l-52 -249h-148zM293 585h-80l114 145h134z" />
    <glyph glyph-name="Rcommaaccent" unicode="&#x156;" horiz-adv-x="667" 
d="M219 722h277q30 0 60 -1t57 -5.5t50.5 -14t41.5 -27.5q20 -21 29 -47t9 -52q0 -11 -1.5 -20.5t-3.5 -19.5q-11 -51 -36.5 -83.5t-54.5 -52t-56 -28.5t-41 -13q30 -3 49.5 -11.5t30 -21.5t14.5 -31t4 -40q0 -14 -1 -29.5t-3 -32.5q-5 -64 -6.5 -94.5t-0.5 -45.5
q1 -24 3.5 -33.5t7.5 -18.5h-171q0 15 2.5 52t5.5 78t5 75.5t1 45.5q-2 15 -9.5 23.5t-17.5 12.5t-21 4.5t-21 0.5h-136l-62 -292h-158zM305 407h125q14 0 37.5 2.5t45.5 17.5q5 3 13 9.5t16.5 16.5t16.5 24.5t12 33.5q8 37 -2 55.5t-19 25.5q-15 13 -38 15t-60 2h-104z
M384 -66l-112 -159h-67l73 159h106z" />
    <glyph glyph-name="rcommaaccent" unicode="&#x157;" horiz-adv-x="389" 
d="M145 381q2 9 5 25.5t6 35t5.5 36.5t3.5 29h139l-17 -97q10 16 25 34t37.5 33t54 24t75.5 7l-28 -133q-8 1 -16 1h-16q-45 0 -73 -11.5t-44.5 -30t-24.5 -41t-12 -44.5l-52 -249h-148zM182 -66l-112 -159h-67l73 159h106z" />
    <glyph glyph-name="Rcaron" unicode="&#x158;" horiz-adv-x="667" 
d="M219 722h277q30 0 60 -1t57 -5.5t50.5 -14t41.5 -27.5q20 -21 29 -47t9 -52q0 -11 -1.5 -20.5t-3.5 -19.5q-11 -51 -36.5 -83.5t-54.5 -52t-56 -28.5t-41 -13q30 -3 49.5 -11.5t30 -21.5t14.5 -31t4 -40q0 -14 -1 -29.5t-3 -32.5q-5 -64 -6.5 -94.5t-0.5 -45.5
q1 -24 3.5 -33.5t7.5 -18.5h-171q0 15 2.5 52t5.5 78t5 75.5t1 45.5q-2 15 -9.5 23.5t-17.5 12.5t-21 4.5t-21 0.5h-136l-62 -292h-158zM305 407h125q14 0 37.5 2.5t45.5 17.5q5 3 13 9.5t16.5 16.5t16.5 24.5t12 33.5q8 37 -2 55.5t-19 25.5q-15 13 -38 15t-60 2h-104z
M691 918l-137 -145h-117l-73 145h94l50 -91l90 91h93z" />
    <glyph glyph-name="rcaron" unicode="&#x159;" horiz-adv-x="389" 
d="M145 381q2 9 5 25.5t6 35t5.5 36.5t3.5 29h139l-17 -97q10 16 25 34t37.5 33t54 24t75.5 7l-28 -133q-8 1 -16 1h-16q-45 0 -73 -11.5t-44.5 -30t-24.5 -41t-12 -44.5l-52 -249h-148zM509 730l-137 -145h-117l-73 145h94l50 -91l90 91h93z" />
    <glyph glyph-name="Sacute" unicode="&#x15a;" horiz-adv-x="667" 
d="M242 231q-2 -8 -4.5 -21.5t-2.5 -28.5t4 -30.5t16 -28t33 -20.5t55 -8q63 0 106 27.5t53 73.5q5 24 0 39t-20 25.5t-39 17.5t-57 15q-53 14 -95 30t-71 36.5t-44 47t-15 62.5q0 18 5 43q9 45 34 85.5t67 71t100 49t133 18.5q28 0 57 -4t56 -13.5t49.5 -26t37.5 -41.5
q11 -20 15 -40t4 -38t-2.5 -32.5t-4.5 -23.5h-149q1 9 1.5 27.5t-7 37t-27.5 32t-60 13.5q-54 0 -92.5 -26.5t-47.5 -71.5q-6 -25 0.5 -41t24 -27t45.5 -19t64 -18q40 -10 77.5 -21.5t67 -30t47.5 -45.5t18 -67q0 -10 -1.5 -20t-3.5 -21q-11 -49 -40 -91.5t-74.5 -74.5
t-107 -50.5t-136.5 -18.5t-121 15.5t-72 40t-35 55t-9 59.5q0 23 3.5 43t6.5 35h158zM524 773h-80l114 145h134z" />
    <glyph glyph-name="sacute" unicode="&#x15b;" horiz-adv-x="500" 
d="M199 146q-2 -12 0 -24.5t9.5 -22t22 -16t37.5 -6.5q40 0 63 18.5t28 41.5q4 17 -7 31t-51 26l-87 25q-13 4 -30.5 10.5t-33 18.5t-26.5 31t-11 48q0 14 3 32q8 37 30 66t55.5 49.5t76.5 31.5t92 11q39 0 71.5 -9t54.5 -27.5t31.5 -46.5t3.5 -66h-135q3 21 -3 33t-15.5 18
t-21 7.5t-20.5 1.5q-30 0 -52.5 -13.5t-27.5 -36.5q-5 -26 10.5 -35t47.5 -18l85 -25q108 -32 108 -111q0 -15 -3 -30q-7 -33 -27.5 -64t-54.5 -55.5t-81 -39.5t-106 -15q-49 0 -91 13t-69 49q-11 16 -15 32t-4 31q0 11 1 19.5t3 16.5h139zM406 585h-80l114 145h134z" />
    <glyph glyph-name="Scircumflex" unicode="&#x15c;" horiz-adv-x="667" 
d="M242 231q-2 -8 -4.5 -21.5t-2.5 -28.5t4 -30.5t16 -28t33 -20.5t55 -8q63 0 106 27.5t53 73.5q5 24 0 39t-20 25.5t-39 17.5t-57 15q-53 14 -95 30t-71 36.5t-44 47t-15 62.5q0 18 5 43q9 45 34 85.5t67 71t100 49t133 18.5q28 0 57 -4t56 -13.5t49.5 -26t37.5 -41.5
q11 -20 15 -40t4 -38t-2.5 -32.5t-4.5 -23.5h-149q1 9 1.5 27.5t-7 37t-27.5 32t-60 13.5q-54 0 -92.5 -26.5t-47.5 -71.5q-6 -25 0.5 -41t24 -27t45.5 -19t64 -18q40 -10 77.5 -21.5t67 -30t47.5 -45.5t18 -67q0 -10 -1.5 -20t-3.5 -21q-11 -49 -40 -91.5t-74.5 -74.5
t-107 -50.5t-136.5 -18.5t-121 15.5t-72 40t-35 55t-9 59.5q0 23 3.5 43t6.5 35h158zM473 918h103l73 -145h-89l-50 85l-88 -85h-90z" />
    <glyph glyph-name="scircumflex" unicode="&#x15d;" horiz-adv-x="500" 
d="M199 146q-2 -12 0 -24.5t9.5 -22t22 -16t37.5 -6.5q40 0 63 18.5t28 41.5q4 17 -7 31t-51 26l-87 25q-13 4 -30.5 10.5t-33 18.5t-26.5 31t-11 48q0 14 3 32q8 37 30 66t55.5 49.5t76.5 31.5t92 11q39 0 71.5 -9t54.5 -27.5t31.5 -46.5t3.5 -66h-135q3 21 -3 33t-15.5 18
t-21 7.5t-20.5 1.5q-30 0 -52.5 -13.5t-27.5 -36.5q-5 -26 10.5 -35t47.5 -18l85 -25q108 -32 108 -111q0 -15 -3 -30q-7 -33 -27.5 -64t-54.5 -55.5t-81 -39.5t-106 -15q-49 0 -91 13t-69 49q-11 16 -15 32t-4 31q0 11 1 19.5t3 16.5h139zM364 730h103l73 -145h-89l-50 85
l-88 -85h-90z" />
    <glyph glyph-name="Scedilla" unicode="&#x15e;" horiz-adv-x="667" 
d="M203 -153q16 -8 33 -13t33 -5q26 0 43 10.5t20 27.5q2 10 -4 23.5t-32 13.5q-14 0 -24.5 -3t-18.5 -6l-15 21l62 68q-71 1 -115 17t-69 40.5t-33.5 54t-8.5 58.5q0 23 3.5 43t6.5 34h158q-2 -8 -4.5 -21.5t-2.5 -28.5t4 -30.5t16 -28t33 -20.5t55 -8q63 0 106 27.5
t53 73.5q5 24 0 39t-20 25.5t-39 17.5t-57 15q-53 14 -95 30t-71 36.5t-44 47t-15 62.5q0 18 5 43q9 45 34 85.5t67 71t100 49t133 18.5q28 0 57 -4t56 -13.5t49.5 -26t37.5 -41.5q11 -20 15 -40t4 -38t-2.5 -32.5t-4.5 -23.5h-149q1 9 1.5 27.5t-7 37t-27.5 32t-60 13.5
q-54 0 -92.5 -26.5t-47.5 -71.5q-6 -25 0.5 -41t24 -27t45.5 -19t64 -18q40 -10 77.5 -21.5t67 -30t47.5 -45.5t18 -67q0 -10 -1.5 -20t-3.5 -21q-10 -46 -36.5 -86.5t-67.5 -72t-96.5 -51.5t-122.5 -24l-40 -42q9 2 16.5 3t19.5 1q25 0 39.5 -7.5t21.5 -18.5t8.5 -23.5
t-0.5 -22.5q-6 -27 -23 -45t-38.5 -28t-44 -14t-40.5 -4q-35 0 -59 8.5t-33 13.5z" />
    <glyph glyph-name="scedilla" unicode="&#x15f;" horiz-adv-x="500" 
d="M128 -153q16 -8 33 -13t33 -5q26 0 43 10.5t20 27.5q2 10 -4 23.5t-32 13.5q-14 0 -24.5 -3t-18.5 -6l-15 21l63 69q-46 2 -85.5 14.5t-65.5 47.5q-11 16 -15 32t-4 31q0 11 1 19.5t3 16.5h139q-2 -12 0 -24.5t9.5 -22t22 -16t37.5 -6.5q40 0 63 18.5t28 41.5q4 17 -7 31
t-51 26l-87 25q-13 4 -30.5 10.5t-33 18.5t-26.5 31t-11 48q0 14 3 32q8 37 30 66t55.5 49.5t76.5 31.5t92 11q39 0 71.5 -9t54.5 -27.5t31.5 -46.5t3.5 -66h-135q3 21 -3 33t-15.5 18t-21 7.5t-20.5 1.5q-30 0 -52.5 -13.5t-27.5 -36.5q-5 -26 10.5 -35t47.5 -18l85 -25
q108 -32 108 -111q0 -15 -3 -30q-6 -30 -24 -59t-47 -52.5t-69 -39.5t-90 -21l-43 -45q9 2 16.5 3t19.5 1q25 0 39.5 -7.5t21.5 -18.5t8.5 -23.5t-0.5 -22.5q-6 -27 -23 -45t-38.5 -28t-44 -14t-40.5 -4q-35 0 -59 8.5t-33 13.5z" />
    <glyph glyph-name="Scaron" unicode="&#x160;" horiz-adv-x="667" 
d="M242 231q-2 -8 -4.5 -21.5t-2.5 -28.5t4 -30.5t16 -28t33 -20.5t55 -8q63 0 106 27.5t53 73.5q5 24 0 39t-20 25.5t-39 17.5t-57 15q-53 14 -95 30t-71 36.5t-44 47t-15 62.5q0 18 5 43q9 45 34 85.5t67 71t100 49t133 18.5q28 0 57 -4t56 -13.5t49.5 -26t37.5 -41.5
q11 -20 15 -40t4 -38t-2.5 -32.5t-4.5 -23.5h-149q1 9 1.5 27.5t-7 37t-27.5 32t-60 13.5q-54 0 -92.5 -26.5t-47.5 -71.5q-6 -25 0.5 -41t24 -27t45.5 -19t64 -18q40 -10 77.5 -21.5t67 -30t47.5 -45.5t18 -67q0 -10 -1.5 -20t-3.5 -21q-11 -49 -40 -91.5t-74.5 -74.5
t-107 -50.5t-136.5 -18.5t-121 15.5t-72 40t-35 55t-9 59.5q0 23 3.5 43t6.5 35h158zM694 918l-137 -145h-117l-73 145h94l50 -91l90 91h93z" />
    <glyph glyph-name="scaron" unicode="&#x161;" horiz-adv-x="500" 
d="M199 146q-2 -12 0 -24.5t9.5 -22t22 -16t37.5 -6.5q40 0 63 18.5t28 41.5q4 17 -7 31t-51 26l-87 25q-13 4 -30.5 10.5t-33 18.5t-26.5 31t-11 48q0 14 3 32q8 37 30 66t55.5 49.5t76.5 31.5t92 11q39 0 71.5 -9t54.5 -27.5t31.5 -46.5t3.5 -66h-135q3 21 -3 33t-15.5 18
t-21 7.5t-20.5 1.5q-30 0 -52.5 -13.5t-27.5 -36.5q-5 -26 10.5 -35t47.5 -18l85 -25q108 -32 108 -111q0 -15 -3 -30q-7 -33 -27.5 -64t-54.5 -55.5t-81 -39.5t-106 -15q-49 0 -91 13t-69 49q-11 16 -15 32t-4 31q0 11 1 19.5t3 16.5h139zM570 730l-137 -145h-117l-73 145
h94l50 -91l90 91h93z" />
    <glyph glyph-name="Tcommaaccent" unicode="&#x162;" horiz-adv-x="611" 
d="M357 603h-215l25 120h586l-25 -120h-215l-128 -603h-156zM364 -66l-112 -159h-67l73 159h106z" />
    <glyph glyph-name="tcommaaccent" unicode="&#x163;" horiz-adv-x="389" 
d="M363 7q-38 -10 -69 -13t-49 -3q-40 0 -64.5 8t-38.5 21t-19 29t-5 32q0 13 2 25t4 21l59 277h-97l21 98h97l21 99l159 54l-33 -153h120l-21 -98h-120l-48 -228q-5 -25 -5 -39q0 -17 11 -26.5t45 -9.5q17 0 27 0.5t24 2.5zM246 -66l-112 -159h-67l73 159h106z" />
    <glyph glyph-name="Tcaron" unicode="&#x164;" horiz-adv-x="611" 
d="M357 603h-215l25 120h586l-25 -120h-215l-128 -603h-156zM666 918l-137 -145h-117l-73 145h94l50 -91l90 91h93z" />
    <glyph glyph-name="tcaron" unicode="&#x165;" horiz-adv-x="389" 
d="M363 7q-38 -10 -69 -13t-49 -3q-40 0 -64.5 8t-38.5 21t-19 29t-5 32q0 13 2 25t4 21l59 277h-97l21 98h97l21 99l159 54l-33 -153h120l-21 -98h-120l-48 -228q-5 -25 -5 -39q0 -17 11 -26.5t45 -9.5q17 0 27 0.5t24 2.5zM619 722l-113 -159h-67l74 159h106z" />
    <glyph glyph-name="Tbar" unicode="&#x166;" horiz-adv-x="611" 
d="M467 389l-82 -389h-156l82 389h-116l14 64h116l32 150h-215l25 120h586l-25 -120h-215l-32 -150h112l-14 -64h-112z" />
    <glyph glyph-name="tbar" unicode="&#x167;" horiz-adv-x="389" 
d="M363 7q-38 -10 -69 -13t-49 -3q-40 0 -64.5 8t-38.5 21t-19 29t-5 32q0 13 2 25t4 21l27 124h-86l11 53h86l21 100h-97l21 98h97l21 99l159 54l-33 -153h120l-21 -98h-120l-21 -100h112l-11 -53h-112l-16 -75q-5 -25 -5 -39q0 -17 11 -26.5t45 -9.5q17 0 27 0.5t24 2.5z
" />
    <glyph glyph-name="Utilde" unicode="&#x168;" horiz-adv-x="746" 
d="M368 722l-94 -441q-4 -19 -7 -38.5t-3 -38.5q0 -21 5.5 -39t20 -32t39.5 -22t64 -8q9 0 27 1t39.5 7t44.5 19t43 36q14 16 25.5 42.5t23.5 80.5l92 433h151l-96 -452q-17 -81 -57.5 -135.5t-93 -87.5t-112 -47t-114.5 -14q-27 0 -62.5 4t-70.5 17.5t-65.5 38t-47.5 65.5
q-14 34 -14 74q0 24 4.5 49.5t10.5 54.5l92 433h155zM397 781q20 57 59.5 90t84.5 33q16 0 31 -5t16 -6l53 -22q4 -2 11.5 -4t20.5 -2q22 0 35.5 13.5t21.5 32.5h51q-8 -27 -21 -50t-39 -43q-14 -11 -33 -20t-45 -9q-17 0 -29 4t-20 7l-40 16q-8 3 -20.5 6.5t-22.5 3.5
q-13 0 -29.5 -8t-32.5 -37h-52z" />
    <glyph glyph-name="utilde" unicode="&#x169;" horiz-adv-x="611" 
d="M317 505l-64 -301q-2 -12 -4.5 -26t-2.5 -28q0 -23 12 -40t50 -17q35 0 57 12.5t35.5 34t21.5 50t15 60.5l54 255h152l-71 -333l-26 -135q-2 -11 -2.5 -18.5t-0.5 -18.5h-144l9 67q-8 -8 -21 -21.5t-33.5 -26.5t-48 -22.5t-63.5 -9.5q-51 0 -87 20t-51 48
q-8 13 -10.5 28.5t-2.5 32.5q0 23 3.5 43.5t5.5 31.5l67 314h150zM261 593q20 57 59.5 90t84.5 33q16 0 31 -5t16 -6l53 -22q4 -2 11.5 -4t20.5 -2q22 0 35.5 13.5t21.5 32.5h51q-8 -27 -21 -50t-39 -43q-14 -11 -33 -20t-45 -9q-17 0 -29 4t-20 7l-40 16q-8 3 -20.5 6.5
t-22.5 3.5q-13 0 -29.5 -8t-32.5 -37h-52z" />
    <glyph glyph-name="Umacron" unicode="&#x16a;" horiz-adv-x="746" 
d="M368 722l-94 -441q-4 -19 -7 -38.5t-3 -38.5q0 -21 5.5 -39t20 -32t39.5 -22t64 -8q9 0 27 1t39.5 7t44.5 19t43 36q14 16 25.5 42.5t23.5 80.5l92 433h151l-96 -452q-17 -81 -57.5 -135.5t-93 -87.5t-112 -47t-114.5 -14q-27 0 -62.5 4t-70.5 17.5t-65.5 38t-47.5 65.5
q-14 34 -14 74q0 24 4.5 49.5t10.5 54.5l92 433h155zM395 812l15 68h342l-15 -68h-342z" />
    <glyph glyph-name="umacron" unicode="&#x16b;" horiz-adv-x="611" 
d="M317 505l-64 -301q-2 -12 -4.5 -26t-2.5 -28q0 -23 12 -40t50 -17q35 0 57 12.5t35.5 34t21.5 50t15 60.5l54 255h152l-71 -333l-26 -135q-2 -11 -2.5 -18.5t-0.5 -18.5h-144l9 67q-8 -8 -21 -21.5t-33.5 -26.5t-48 -22.5t-63.5 -9.5q-51 0 -87 20t-51 48
q-8 13 -10.5 28.5t-2.5 32.5q0 23 3.5 43.5t5.5 31.5l67 314h150zM261 624l15 68h342l-15 -68h-342z" />
    <glyph glyph-name="Ubreve" unicode="&#x16c;" horiz-adv-x="746" 
d="M368 722l-94 -441q-4 -19 -7 -38.5t-3 -38.5q0 -21 5.5 -39t20 -32t39.5 -22t64 -8q9 0 27 1t39.5 7t44.5 19t43 36q14 16 25.5 42.5t23.5 80.5l92 433h151l-96 -452q-17 -81 -57.5 -135.5t-93 -87.5t-112 -47t-114.5 -14q-27 0 -62.5 4t-70.5 17.5t-65.5 38t-47.5 65.5
q-14 34 -14 74q0 24 4.5 49.5t10.5 54.5l92 433h155zM500 918q-2 -25 4.5 -40.5t18 -24.5t24.5 -12t25 -3q27 0 45.5 8.5t31 21t20.5 26t13 24.5h61q-8 -30 -24 -56t-40 -46t-54.5 -31.5t-67.5 -11.5q-38 0 -67 14t-43 41q-8 12 -10.5 24.5t-2.5 24.5q0 11 1.5 22t3.5 19h61
z" />
    <glyph glyph-name="ubreve" unicode="&#x16d;" horiz-adv-x="611" 
d="M317 505l-64 -301q-2 -12 -4.5 -26t-2.5 -28q0 -23 12 -40t50 -17q35 0 57 12.5t35.5 34t21.5 50t15 60.5l54 255h152l-71 -333l-26 -135q-2 -11 -2.5 -18.5t-0.5 -18.5h-144l9 67q-8 -8 -21 -21.5t-33.5 -26.5t-48 -22.5t-63.5 -9.5q-51 0 -87 20t-51 48
q-8 13 -10.5 28.5t-2.5 32.5q0 23 3.5 43.5t5.5 31.5l67 314h150zM367 730q-2 -25 4.5 -40.5t18 -24.5t24.5 -12t25 -3q27 0 45.5 8.5t31 21t20.5 26t13 24.5h61q-8 -30 -24 -56t-40 -46t-54.5 -31.5t-67.5 -11.5q-38 0 -67 14t-43 41q-8 12 -10.5 24.5t-2.5 24.5
q0 11 1.5 22t3.5 19h61z" />
    <glyph glyph-name="Uring" unicode="&#x16e;" horiz-adv-x="746" 
d="M368 722l-94 -441q-4 -19 -7 -38.5t-3 -38.5q0 -21 5.5 -39t20 -32t39.5 -22t64 -8q9 0 27 1t39.5 7t44.5 19t43 36q14 16 25.5 42.5t23.5 80.5l92 433h151l-96 -452q-17 -81 -57.5 -135.5t-93 -87.5t-112 -47t-114.5 -14q-27 0 -62.5 4t-70.5 17.5t-65.5 38t-47.5 65.5
q-14 34 -14 74q0 24 4.5 49.5t10.5 54.5l92 433h155zM594 948q45 0 66 -30t13 -72q-4 -21 -15.5 -39.5t-28 -32.5t-37 -22t-41.5 -8q-20 0 -37 8t-28.5 21.5t-15.5 32.5t1 40q4 21 16 39.5t29 32.5t37 22t41 8zM584 900q-22 0 -41 -15.5t-24 -38.5q-5 -22 7.5 -37.5
t34.5 -15.5q23 0 41.5 15.5t23.5 37.5t-7 38t-35 16z" />
    <glyph glyph-name="uring" unicode="&#x16f;" horiz-adv-x="611" 
d="M317 505l-64 -301q-2 -12 -4.5 -26t-2.5 -28q0 -23 12 -40t50 -17q35 0 57 12.5t35.5 34t21.5 50t15 60.5l54 255h152l-71 -333l-26 -135q-2 -11 -2.5 -18.5t-0.5 -18.5h-144l9 67q-8 -8 -21 -21.5t-33.5 -26.5t-48 -22.5t-63.5 -9.5q-51 0 -87 20t-51 48
q-8 13 -10.5 28.5t-2.5 32.5q0 23 3.5 43.5t5.5 31.5l67 314h150zM459 760q45 0 66 -30t13 -72q-4 -21 -15.5 -39.5t-28 -32.5t-37 -22t-41.5 -8q-20 0 -37 8t-28.5 21.5t-15.5 32.5t1 40q4 21 16 39.5t29 32.5t37 22t41 8zM449 712q-22 0 -41 -15.5t-24 -38.5
q-5 -22 7.5 -37.5t34.5 -15.5q23 0 41.5 15.5t23.5 37.5t-7 38t-35 16z" />
    <glyph glyph-name="Uhungarumlaut" unicode="&#x170;" horiz-adv-x="746" 
d="M368 722l-94 -441q-4 -19 -7 -38.5t-3 -38.5q0 -21 5.5 -39t20 -32t39.5 -22t64 -8q9 0 27 1t39.5 7t44.5 19t43 36q14 16 25.5 42.5t23.5 80.5l92 433h151l-96 -452q-17 -81 -57.5 -135.5t-93 -87.5t-112 -47t-114.5 -14q-27 0 -62.5 4t-70.5 17.5t-65.5 38t-47.5 65.5
q-14 34 -14 74q0 24 4.5 49.5t10.5 54.5l92 433h155zM495 773h-80l115 145h134zM680 773h-80l115 145h134z" />
    <glyph glyph-name="uhungarumlaut" unicode="&#x171;" horiz-adv-x="611" 
d="M317 505l-64 -301q-2 -12 -4.5 -26t-2.5 -28q0 -23 12 -40t50 -17q35 0 57 12.5t35.5 34t21.5 50t15 60.5l54 255h152l-71 -333l-26 -135q-2 -11 -2.5 -18.5t-0.5 -18.5h-144l9 67q-8 -8 -21 -21.5t-33.5 -26.5t-48 -22.5t-63.5 -9.5q-51 0 -87 20t-51 48
q-8 13 -10.5 28.5t-2.5 32.5q0 23 3.5 43.5t5.5 31.5l67 314h150zM356 585h-80l115 145h134zM541 585h-80l115 145h134z" />
    <glyph glyph-name="Uogonek" unicode="&#x172;" horiz-adv-x="746" 
d="M439 -191q-16 -8 -40 -17t-59 -9q-48 0 -67.5 21.5t-12.5 53.5q8 38 40.5 71.5t77.5 56.5h-12q-27 0 -62.5 4t-70.5 17.5t-65.5 38t-47.5 65.5q-14 34 -14 74q0 24 4.5 49.5t10.5 54.5l92 432h155l-94 -440q-4 -19 -7 -38.5t-3 -38.5q0 -21 5.5 -39t20 -32t39.5 -22
t64 -8q9 0 27 1t39.5 7t44.5 19t43 36q14 16 25.5 42.5t23.5 80.5l92 432h151l-96 -451q-15 -68 -46.5 -117t-73 -82.5t-90 -52.5t-96.5 -26q-31 -19 -52.5 -39.5t-27.5 -49.5q-5 -23 1 -35.5t15.5 -18.5t19 -7t12.5 -1q15 0 24.5 3.5t18.5 8.5z" />
    <glyph glyph-name="uogonek" unicode="&#x173;" horiz-adv-x="611" 
d="M464 -191q-16 -8 -40 -17t-59 -9q-48 0 -67.5 21.5t-12.5 53.5q10 45 50.5 82t97.5 60h-34l9 67q-8 -8 -21 -21.5t-33.5 -26.5t-48 -22.5t-63.5 -9.5q-51 0 -87 20t-51 48q-8 13 -10.5 28.5t-2.5 32.5q0 23 3.5 43.5t5.5 31.5l67 314h150l-64 -301q-2 -12 -4.5 -26
t-2.5 -28q0 -23 12 -40t50 -17q35 0 57 12.5t35.5 34t21.5 50t15 60.5l54 255h152l-71 -333l-26 -135q-2 -11 -2.5 -18.5t-0.5 -18.5h-67q-35 -21 -61 -42.5t-33 -54.5q-5 -23 1 -35.5t15.5 -18.5t19 -7t12.5 -1q15 0 24.5 3.5t18.5 8.5z" />
    <glyph glyph-name="Wcircumflex" unicode="&#x174;" horiz-adv-x="1000" 
d="M328 722l-3 -541l256 541h175l12 -541l232 541h148l-337 -722h-172l-14 552l-258 -552h-176l-23 722h160zM662 918h103l73 -145h-89l-50 85l-88 -85h-90z" />
    <glyph glyph-name="wcircumflex" unicode="&#x175;" horiz-adv-x="889" 
d="M269 505l12 -381l188 381h163l25 -381l180 381h147l-280 -505h-161l-25 374l-185 -374h-163l-58 505h157zM550 730h103l73 -145h-89l-50 85l-88 -85h-90z" />
    <glyph glyph-name="Ycircumflex" unicode="&#x176;" horiz-adv-x="667" 
d="M350 722l79 -331l222 331h159l-342 -459l-55 -263h-153l56 265l-147 457h181zM498 918h103l73 -145h-89l-50 85l-88 -85h-90z" />
    <glyph glyph-name="ycircumflex" unicode="&#x177;" 
d="M281 505l36 -350l188 350h147l-297 -496l-103 -201h-149l104 190l-86 507h160zM390 730h103l73 -145h-89l-50 85l-88 -85h-90z" />
    <glyph glyph-name="Ydieresis" unicode="&#x178;" horiz-adv-x="667" 
d="M350 722l79 -331l222 331h159l-342 -459l-55 -263h-153l56 265l-147 457h181zM557 895h102l-25 -118h-102zM385 895h102l-25 -118h-102z" />
    <glyph glyph-name="Zacute" unicode="&#x179;" horiz-adv-x="611" 
d="M55 132l479 475l-356 -3l25 118h523l-29 -137l-477 -472l386 6l-25 -119h-554zM509 773h-80l114 145h134z" />
    <glyph glyph-name="zacute" unicode="&#x17a;" horiz-adv-x="500" 
d="M59 130l315 276h-249l21 99h414l-27 -127l-315 -276h266l-21 -102h-431zM387 585h-80l114 145h134z" />
    <glyph glyph-name="Zdotaccent" unicode="&#x17b;" horiz-adv-x="611" 
d="M55 132l479 475l-356 -3l25 118h523l-29 -137l-477 -472l386 6l-25 -119h-554zM452 905h102l-25 -118h-102z" />
    <glyph glyph-name="zdotaccent" unicode="&#x17c;" horiz-adv-x="500" 
d="M59 130l315 276h-249l21 99h414l-27 -127l-315 -276h266l-21 -102h-431zM358 717h102l-25 -118h-102z" />
    <glyph glyph-name="Zcaron" unicode="&#x17d;" horiz-adv-x="611" 
d="M55 132l479 475l-356 -3l25 118h523l-29 -137l-477 -472l386 6l-25 -119h-554zM666 918l-137 -145h-117l-73 145h94l50 -91l90 91h93z" />
    <glyph glyph-name="zcaron" unicode="&#x17e;" horiz-adv-x="500" 
d="M59 130l315 276h-249l21 99h414l-27 -127l-315 -276h266l-21 -102h-431zM570 730l-137 -145h-117l-73 145h94l50 -91l90 91h93z" />
    <glyph glyph-name="florin" unicode="&#x192;" 
d="M42 -42q5 -1 9.5 -1.5t8.5 -0.5q30 0 42 14t19 30l143 350h-65l40 101h66l23 57q19 45 37.5 80.5t42 60.5t55.5 38t78 13q23 0 42 -2t39 -5l-46 -110q-27 4 -43.5 -0.5t-28 -15.5t-19 -27t-15.5 -35l-23 -54h72l-36 -101h-76l-155 -375q-12 -29 -27.5 -57t-46.5 -46
q-18 -11 -48 -21.5t-75 -10.5q-5 0 -21 0.5t-36 4.5z" />
    <glyph glyph-name="Scommaaccent" unicode="&#x218;" horiz-adv-x="667" 
d="M242 231q-2 -8 -4.5 -21.5t-2.5 -28.5t4 -30.5t16 -28t33 -20.5t55 -8q63 0 106 27.5t53 73.5q5 24 0 39t-20 25.5t-39 17.5t-57 15q-53 14 -95 30t-71 36.5t-44 47t-15 62.5q0 18 5 43q9 45 34 85.5t67 71t100 49t133 18.5q28 0 57 -4t56 -13.5t49.5 -26t37.5 -41.5
q11 -20 15 -40t4 -38t-2.5 -32.5t-4.5 -23.5h-149q1 9 1.5 27.5t-7 37t-27.5 32t-60 13.5q-54 0 -92.5 -26.5t-47.5 -71.5q-6 -25 0.5 -41t24 -27t45.5 -19t64 -18q40 -10 77.5 -21.5t67 -30t47.5 -45.5t18 -67q0 -10 -1.5 -20t-3.5 -21q-11 -49 -40 -91.5t-74.5 -74.5
t-107 -50.5t-136.5 -18.5t-121 15.5t-72 40t-35 55t-9 59.5q0 23 3.5 43t6.5 35h158zM372 -66l-112 -159h-67l73 159h106z" />
    <glyph glyph-name="scommaaccent" unicode="&#x219;" horiz-adv-x="500" 
d="M199 146q-2 -12 0 -24.5t9.5 -22t22 -16t37.5 -6.5q40 0 63 18.5t28 41.5q4 17 -7 31t-51 26l-87 25q-13 4 -30.5 10.5t-33 18.5t-26.5 31t-11 48q0 14 3 32q8 37 30 66t55.5 49.5t76.5 31.5t92 11q39 0 71.5 -9t54.5 -27.5t31.5 -46.5t3.5 -66h-135q3 21 -3 33t-15.5 18
t-21 7.5t-20.5 1.5q-30 0 -52.5 -13.5t-27.5 -36.5q-5 -26 10.5 -35t47.5 -18l85 -25q108 -32 108 -111q0 -15 -3 -30q-7 -33 -27.5 -64t-54.5 -55.5t-81 -39.5t-106 -15q-49 0 -91 13t-69 49q-11 16 -15 32t-4 31q0 11 1 19.5t3 16.5h139zM302 -66l-112 -159h-67l73 159
h106z" />
    <glyph glyph-name="uni021A" unicode="&#x21a;" horiz-adv-x="611" 
d="M357 603h-215l25 120h586l-25 -120h-215l-128 -603h-156zM364 -66l-112 -159h-67l73 159h106z" />
    <glyph glyph-name="uni021B" unicode="&#x21b;" horiz-adv-x="389" 
d="M363 7q-38 -10 -69 -13t-49 -3q-40 0 -64.5 8t-38.5 21t-19 29t-5 32q0 13 2 25t4 21l59 277h-97l21 98h97l21 99l159 54l-33 -153h120l-21 -98h-120l-48 -228q-5 -25 -5 -39q0 -17 11 -26.5t45 -9.5q17 0 27 0.5t24 2.5zM246 -66l-112 -159h-67l73 159h106z" />
    <glyph glyph-name="dotlessj" unicode="&#x237;" horiz-adv-x="278" 
d="M-21 -94q24 -1 39.5 8.5t24.5 23.5t13.5 29t6.5 25l109 515h148l-117 -552q-8 -36 -22 -64t-37.5 -48t-57.5 -30.5t-81 -10.5q-5 0 -18.5 0.5t-29.5 3.5z" />
    <glyph glyph-name="circumflex" unicode="&#x2c6;" horiz-adv-x="278" 
d="M243 730h103l73 -145h-89l-50 85l-88 -85h-90z" />
    <glyph glyph-name="caron" unicode="&#x2c7;" horiz-adv-x="278" 
d="M459 730l-137 -145h-117l-73 145h94l50 -91l90 91h93z" />
    <glyph glyph-name="uni02C9" unicode="&#x2c9;" horiz-adv-x="278" 
d="M96 624l15 68h342l-15 -68h-342z" />
    <glyph glyph-name="breve" unicode="&#x2d8;" horiz-adv-x="278" 
d="M202 730q-2 -25 4.5 -40.5t18 -24.5t24.5 -12t25 -3q27 0 45.5 8.5t31 21t20.5 26t13 24.5h61q-8 -30 -24 -56t-40 -46t-54.5 -31.5t-67.5 -11.5q-38 0 -67 14t-43 41q-8 12 -10.5 24.5t-2.5 24.5q0 11 1.5 22t3.5 19h61z" />
    <glyph glyph-name="dotaccent" unicode="&#x2d9;" horiz-adv-x="278" 
d="M240 717h102l-25 -118h-102z" />
    <glyph glyph-name="ring" unicode="&#x2da;" horiz-adv-x="278" 
d="M300 760q45 0 66 -30t13 -72q-4 -21 -15.5 -39.5t-28 -32.5t-37 -22t-41.5 -8q-20 0 -37 8t-28.5 21.5t-15.5 32.5t1 40q4 21 16 39.5t29 32.5t37 22t41 8zM290 712q-22 0 -41 -15.5t-24 -38.5q-5 -22 7.5 -37.5t34.5 -15.5q23 0 41.5 15.5t23.5 37.5t-7 38t-35 16z" />
    <glyph glyph-name="ogonek" unicode="&#x2db;" horiz-adv-x="278" 
d="M191 -191q-16 -8 -40 -17t-59 -9q-48 0 -67.5 21.5t-12.5 53.5q10 45 51.5 82.5t98.5 60.5h43q-36 -22 -62.5 -43.5t-33.5 -54.5q-5 -23 1 -35.5t15.5 -18.5t19 -7t12.5 -1q15 0 24.5 3.5t18.5 8.5z" />
    <glyph glyph-name="tilde" unicode="&#x2dc;" horiz-adv-x="278" 
d="M84 593q20 57 59.5 90t84.5 33q16 0 31 -5t16 -6l53 -22q4 -2 11.5 -4t20.5 -2q22 0 35.5 13.5t21.5 32.5h51q-8 -27 -21 -50t-39 -43q-14 -11 -33 -20t-45 -9q-17 0 -29 4t-20 7l-40 16q-8 3 -20.5 6.5t-22.5 3.5q-13 0 -29.5 -8t-32.5 -37h-52z" />
    <glyph glyph-name="hungarumlaut" unicode="&#x2dd;" 
d="M322 585h-80l115 145h134zM507 585h-80l115 145h134z" />
    <glyph glyph-name="uni0394" unicode="&#x394;" horiz-adv-x="698" 
d="M9 0l418 710h128l134 -710h-680zM454 542l-240 -417h312z" />
    <glyph glyph-name="uni03A9" unicode="&#x3a9;" horiz-adv-x="765" 
d="M427 0l43 204q73 16 122 70q49 52 64 127q2 12 3.5 23t1.5 22q0 33 -11 61t-31.5 48.5t-48.5 31.5t-62 11q-41 0 -79 -15t-69.5 -41t-54 -62.5t-31.5 -79.5q-6 -27 -6 -52q0 -54 27 -91.5t79 -52.5l-43 -204h-283l26 125h170l5 21q-78 28 -107 97q-17 42 -17 90
q0 17 2 34.5t6 36.5q15 70 53.5 128.5t92.5 100.5t119.5 65t133.5 23q60 0 110 -17t86 -49t56 -77t20 -101q0 -32 -8 -70q-10 -46 -29 -87.5t-47 -76t-65.5 -59.5t-83.5 -38l-5 -21h170l-26 -125h-283z" />
    <glyph glyph-name="uni03BC" unicode="&#x3bc;" horiz-adv-x="611" 
d="M178 505h128l-52 -244q-6 -25 -9.5 -47.5t-3.5 -41.5q0 -34 15.5 -54t57.5 -20q36 0 59 15.5t37.5 39t22.5 51.5t13 54l53 247h129l-107 -505h-110l12 60q-8 -9 -19 -21t-27 -22.5t-36 -18t-46 -7.5q-24 0 -39.5 5.5t-26 13t-16 16t-9.5 15.5l-54 -253h-126z" />
    <glyph glyph-name="pi" unicode="&#x3c0;" horiz-adv-x="593" 
d="M582 13q-23 -10 -49.5 -15t-49.5 -5q-51 0 -71.5 22.5t-20.5 59.5q0 23 6 49l59 279h-173l-85 -403h-127l85 403h-60l22 102h566l-22 -102h-79l-56 -262q-2 -8 -3 -15.5t-1 -14.5q0 -12 6 -20t24 -8q22 0 46 10z" />
    <glyph glyph-name="afii10023" unicode="&#x401;" horiz-adv-x="603" 
d="M219 722h484l-25 -117h-329l-36 -172h308l-26 -118h-308l-41 -195h340l-25 -120h-495zM541 941h102l-25 -118h-102zM369 941h102l-25 -118h-102z" />
    <glyph glyph-name="afii10051" unicode="&#x402;" horiz-adv-x="809" 
d="M474 430q20 6 62.5 18.5t105.5 12.5q30 0 61.5 -9.5t57 -30t42 -53.5t16.5 -81q0 -66 -23 -128.5t-65 -110.5t-100 -77t-128 -29q-13 0 -26.5 1.5t-27.5 3.5l26 122q17 -4 34 -4q37 0 64.5 18t45.5 45.5t27 62t9 67.5q0 37 -19 59t-67 22q-20 0 -39 -4t-35 -9.5
t-28.5 -11t-18.5 -8.5l-65 -306h-155l128 604h-215l25 118h585l-25 -118h-215z" />
    <glyph glyph-name="afii10052" unicode="&#x403;" horiz-adv-x="540" 
d="M69 0l153 722h458l-25 -120h-303l-128 -602h-155zM490 798h-80l114 145h134z" />
    <glyph glyph-name="afii10053" unicode="&#x404;" horiz-adv-x="667" 
d="M691 237q-6 -23 -12 -40.5t-12.5 -32.5t-15 -28t-19.5 -27q-48 -61 -117.5 -93.5t-154.5 -32.5q-130 0 -196.5 67.5t-66.5 188.5q0 60 13.5 120t39 115.5t62.5 103.5t84 83t104 55.5t122 20.5q52 0 93.5 -13t70.5 -37.5t44.5 -59t15.5 -76.5q0 -26 -6 -54h-158
q1 8 1.5 14.5t0.5 13.5q0 99 -92 99q-66 0 -118 -54.5t-83 -148.5h225l-24 -115h-229q-2 -18 -3.5 -34t-1.5 -31q0 -69 27 -106.5t84 -37.5t100.5 38.5t58.5 101.5h163z" />
    <glyph glyph-name="afii10054" unicode="&#x405;" horiz-adv-x="667" 
d="M242 231q-2 -8 -4.5 -21.5t-2.5 -28.5t4 -30.5t16 -28t33 -20.5t55 -8q63 0 106 27.5t53 73.5q5 24 0 39t-20 25.5t-39 17.5t-57 15q-53 14 -95 30t-71 36.5t-44 47t-15 62.5q0 18 5 43q9 45 34 85.5t67 71t100 49t133 18.5q28 0 57 -4t56 -13.5t49.5 -26t37.5 -41.5
q11 -20 15 -40t4 -38t-2.5 -32.5t-4.5 -23.5h-149q1 9 1.5 27.5t-7 37t-27.5 32t-60 13.5q-54 0 -92.5 -26.5t-47.5 -71.5q-6 -25 0.5 -41t24 -27t45.5 -19t64 -18q40 -10 77.5 -21.5t67 -30t47.5 -45.5t18 -67q0 -10 -1.5 -20t-3.5 -21q-11 -49 -40 -91.5t-74.5 -74.5
t-107 -50.5t-136.5 -18.5t-121 15.5t-72 40t-35 55t-9 59.5q0 23 3.5 43t6.5 35h158z" />
    <glyph glyph-name="afii10055" unicode="&#x406;" horiz-adv-x="289" 
d="M220 722h155l-153 -722h-155z" />
    <glyph glyph-name="afii10056" unicode="&#x407;" horiz-adv-x="289" 
d="M220 722h155l-153 -722h-155zM381 941h102l-25 -118h-102zM209 941h102l-25 -118h-102z" />
    <glyph glyph-name="afii10057" unicode="&#x408;" horiz-adv-x="548" 
d="M210 234q-6 -32 -6 -56q0 -34 14.5 -53t49.5 -19q22 0 38 7t27 16.5t17.5 20t9.5 17.5q9 23 16.5 53.5t13.5 59.5l94 442h157l-94 -443q-9 -42 -21.5 -79t-32 -69.5t-46.5 -59t-66 -47.5q-24 -13 -58.5 -22t-88.5 -9q-59 0 -103 17t-67 71q-8 18 -11.5 38t-3.5 40
q0 22 3 41.5t6 33.5h152z" />
    <glyph glyph-name="afii10058" unicode="&#x409;" horiz-adv-x="1069" 
d="M792 120q57 0 90.5 36t33.5 93q0 36 -21.5 55.5t-63.5 19.5h-128l-43 -204h132zM443 604l-31 -147q-20 -96 -39 -164.5t-39 -118t-43 -83t-51 -58.5q-14 -13 -31.5 -21t-36 -13t-36.5 -7t-32 -2q-20 0 -40 2.5t-35 8.5l26 119q9 -7 18.5 -8.5t22.5 -1.5q14 0 26 5.5
t19 11.5q16 15 30 38.5t28.5 66t31 110.5t38.5 173l44 207h474l-59 -278h143q43 0 81 -7t66.5 -25.5t45 -50.5t16.5 -81q0 -48 -13.5 -91t-39 -78t-63 -60.5t-84.5 -37.5q-32 -8 -68.5 -10.5t-79.5 -2.5h-253l128 604h-164z" />
    <glyph glyph-name="afii10059" unicode="&#x40a;" horiz-adv-x="1069" 
d="M916 249q0 36 -21.5 55.5t-63.5 19.5h-128l-43 -204h132q57 0 90.5 36t33.5 93zM880 13q-32 -8 -68.5 -10.5t-79.5 -2.5h-253l69 324h-255l-69 -324h-155l153 722h155l-59 -278h255l59 278h155l-59 -278h143q43 0 81 -7t66.5 -25.5t45 -50.5t16.5 -81q0 -48 -13.5 -91
t-39 -78t-63 -60.5t-84.5 -37.5z" />
    <glyph glyph-name="afii10060" unicode="&#x40b;" horiz-adv-x="809" 
d="M228 0l128 604h-215l25 118h585l-25 -118h-215l-34 -161q11 3 28.5 6.5t38.5 6.5t43.5 5t43.5 2q94 0 140.5 -38.5t46.5 -123.5q0 -43 -12 -98l-43 -203h-155l43 200q9 43 9 71q0 40 -19.5 56t-62.5 16q-14 0 -31.5 -2t-35 -5t-33.5 -6.5t-26 -6.5l-69 -323h-155z" />
    <glyph glyph-name="afii10061" unicode="&#x40c;" horiz-adv-x="667" 
d="M220 722h155l-66 -312l308 312h181l-334 -323l204 -399h-193l-175 368l-78 -368h-155zM550 798h-80l114 145h134z" />
    <glyph glyph-name="afii10062" unicode="&#x40e;" horiz-adv-x="722" 
d="M709 930q-19 -69 -64.5 -108.5t-114.5 -39.5q-60 0 -90 29t-30 83q0 16 3 36h69q0 -2 -0.5 -4t-0.5 -4q0 -30 15 -47t50 -17q36 0 58.5 18.5t35.5 53.5h69zM328 722l98 -371l261 371h182l-395 -520l-147 -202h-184l175 213l-154 509h164z" />
    <glyph glyph-name="afii10145" unicode="&#x40f;" horiz-adv-x="722" 
d="M69 0l153 722h155l-127 -602h275l127 602h155l-153 -722h-210l-32 -151h-155l32 151h-220z" />
    <glyph glyph-name="afii10017" unicode="&#x410;" horiz-adv-x="706" 
d="M603 722l98 -722h-156l-19 156h-286l-87 -156h-148l414 722h184zM512 273l-35 308l-172 -308h207z" />
    <glyph glyph-name="afii10018" unicode="&#x411;" horiz-adv-x="667" 
d="M370 120q68 0 107.5 28t39.5 101q0 35 -25 49t-82 14h-121l-40 -192h121zM486 432q96 0 146.5 -42.5t50.5 -120.5q0 -74 -27 -125t-72.5 -83t-106 -46.5t-126.5 -14.5h-283l153 722h484l-24 -117h-329l-37 -173h171z" />
    <glyph glyph-name="afii10019" unicode="&#x412;" horiz-adv-x="667" 
d="M221 722h270q16 0 38 -0.5t45.5 -3.5t46.5 -10t41 -20q31 -23 41.5 -53.5t10.5 -59.5q0 -11 -1 -21.5t-3 -19.5q-11 -50 -49 -93.5t-108 -63.5l-1 -2q33 -6 55.5 -19.5t37 -31.5t21 -40t6.5 -45q0 -10 -1 -20t-3 -20q-14 -64 -54.5 -106.5t-87.5 -63.5q-23 -11 -51.5 -17
t-55.5 -8.5t-49 -3t-32 -0.5h-270zM306 428h108q17 0 38.5 1.5t42.5 10t38 27.5t25 54q7 34 -2 52t-26 26.5t-39 10t-41 1.5h-105zM240 116h105q27 0 54 1.5t50.5 10.5t41.5 29t26 56q8 39 -3 59.5t-33.5 30.5t-51.5 11.5t-57 1.5h-89z" />
    <glyph glyph-name="afii10020" unicode="&#x413;" horiz-adv-x="540" 
d="M69 0l153 722h458l-25 -120h-303l-128 -602h-155z" />
    <glyph glyph-name="afii10021" unicode="&#x414;" horiz-adv-x="722" 
d="M609 605h-161l-15 -70q-10 -47 -26 -101.5t-38 -110.5t-49 -108.5t-59 -94.5h245zM519 -151l32 151h-385l-32 -151h-155l58 271h51q49 61 83.5 125t58.5 128.5t40 129.5t29 130l18 89h471l-127 -602h71l-58 -271h-155z" />
    <glyph glyph-name="afii10022" unicode="&#x415;" horiz-adv-x="603" 
d="M219 722h484l-25 -117h-329l-36 -172h308l-26 -118h-308l-41 -195h340l-25 -120h-495z" />
    <glyph glyph-name="afii10024" unicode="&#x416;" horiz-adv-x="1050" 
d="M858 0l-183 368h-2l-78 -368h-150l78 368h-2l-320 -368h-200l376 410l-200 312h169l184 -312h2l66 312h150l-66 -312h2l298 312h187l-337 -337l207 -385h-181z" />
    <glyph glyph-name="afii10025" unicode="&#x417;" horiz-adv-x="667" 
d="M405 429q17 0 32 1t29 6q38 12 64 45t26 74q0 33 -23.5 51.5t-65.5 18.5q-57 0 -90 -24t-52 -79h-149q34 111 116 163t197 52q51 0 93 -11t72.5 -32t47.5 -51t17 -68q0 -36 -13.5 -69t-36.5 -60t-54 -45.5t-66 -24.5l-1 -2q48 -12 77.5 -43.5t29.5 -85.5
q0 -66 -29.5 -115t-77 -81.5t-106 -48.5t-116.5 -16q-39 0 -82 8.5t-79 28t-59 51t-23 78.5q0 16 2.5 32.5t6.5 36.5h158q-2 -10 -4 -19.5t-2 -20.5q0 -38 26 -60t74 -22q28 0 54 9.5t46 26.5t32 41t12 53q0 27 -12 48t-34 31q-6 3 -15.5 5t-19 3.5t-18 2.5t-14.5 1h-42
l23 111h49z" />
    <glyph glyph-name="afii10026" unicode="&#x418;" horiz-adv-x="722" 
d="M69 0l153 722h148l-108 -511h3l375 511h167l-153 -722h-148l109 513h-3l-378 -513h-165z" />
    <glyph glyph-name="afii10027" unicode="&#x419;" horiz-adv-x="722" 
d="M69 0l153 722h148l-108 -511h3l375 511h167l-153 -722h-148l109 513h-3l-378 -513h-165zM711 940q-19 -69 -64.5 -108.5t-114.5 -39.5q-60 0 -90 29t-30 83q0 16 3 36h69v-8q0 -30 14.5 -47t49.5 -17q36 0 58.5 18.5t35.5 53.5h69z" />
    <glyph glyph-name="afii10028" unicode="&#x41a;" horiz-adv-x="667" 
d="M220 722h155l-66 -312l308 312h181l-334 -323l204 -399h-193l-175 368l-78 -368h-155z" />
    <glyph glyph-name="afii10029" unicode="&#x41b;" horiz-adv-x="722" 
d="M499 0l128 604h-184l-31 -147q-20 -96 -38.5 -164.5t-39 -118t-43 -83t-50.5 -58.5q-14 -13 -31.5 -21t-36.5 -13t-37 -7t-32 -2q-20 0 -40 2.5t-35 8.5l26 119q9 -7 18.5 -8.5t22.5 -1.5q14 0 26 5.5t19 11.5q16 15 30 38.5t28.5 66t31 110.5t38.5 173l44 207h494
l-153 -722h-155z" />
    <glyph glyph-name="afii10030" unicode="&#x41c;" horiz-adv-x="951" 
d="M220 722h253l41 -525l277 525h246l-153 -722h-154l131 620l-328 -620h-128l-62 620l-131 -620h-145z" />
    <glyph glyph-name="afii10031" unicode="&#x41d;" horiz-adv-x="719" 
d="M220 722h155l-61 -288h273l61 288h157l-153 -722h-155l67 317h-275l-67 -317h-155z" />
    <glyph glyph-name="afii10032" unicode="&#x41e;" horiz-adv-x="778" 
d="M116 351q15 72 47.5 141.5t85 124t126 88t170.5 33.5q28 0 61 -4t64.5 -15t60 -30t48.5 -49q26 -39 36 -83t10 -86q0 -29 -3.5 -55t-8.5 -48q-9 -40 -23.5 -79.5t-33.5 -76.5t-43 -69.5t-51 -57.5q-38 -34 -77.5 -54t-77 -31t-70 -14.5t-54.5 -3.5q-71 0 -134 23.5
t-101 75.5q-26 35 -35 76t-9 81q0 32 3.5 61t8.5 52zM279 356q-5 -24 -8.5 -49t-3.5 -50q0 -28 5 -54t18 -49q12 -23 38.5 -40.5t80.5 -17.5q92 0 149 67q24 27 49.5 74t43.5 133q5 20 8.5 45.5t3.5 51.5q0 8 -0.5 16t-1.5 16q-9 67 -45 97.5t-93 30.5q-45 0 -81.5 -16.5
t-64.5 -44.5q-39 -38 -61.5 -92.5t-36.5 -117.5z" />
    <glyph glyph-name="afii10033" unicode="&#x41f;" horiz-adv-x="722" 
d="M69 0l153 722h585l-153 -722h-155l128 604h-275l-128 -604h-155z" />
    <glyph glyph-name="afii10034" unicode="&#x420;" horiz-adv-x="611" 
d="M218 722h223q39 0 74 -2.5t65 -10.5t54 -24t41 -43q12 -20 16.5 -40.5t4.5 -40.5q0 -14 -2 -28t-4 -26q-14 -63 -49 -113.5t-84 -78.5q-23 -13 -47 -20t-47 -10t-43 -3.5t-34 -0.5h-105l-59 -281h-157zM302 396h62q19 0 44 1.5t49 12t44 33t29 63.5q3 16 3 29
q0 26 -11.5 40t-28.5 20.5t-35.5 7.5t-33.5 1h-78z" />
    <glyph glyph-name="afii10035" unicode="&#x421;" horiz-adv-x="667" 
d="M581 497q1 9 2 30t-6.5 42.5t-27 38t-58.5 16.5q-44 0 -79 -21t-62.5 -57.5t-47 -85.5t-31.5 -105q-14 -62 -14 -114q0 -31 6 -57t19 -45.5t34 -30.5t51 -11q25 0 49.5 8t46 24.5t38 42.5t25.5 62h163q-5 -15 -11 -35.5t-17 -43t-28.5 -46t-44.5 -45.5
q-29 -25 -60.5 -40.5t-63 -24.5t-61 -12.5t-53.5 -3.5q-73 0 -121.5 20.5t-78 55t-42 80.5t-12.5 97q0 29 3.5 59.5t9.5 60.5q18 85 56 155.5t92 120.5t121 77.5t143 27.5q51 0 92.5 -13t71 -37t45 -58.5t15.5 -76.5q0 -27 -6 -55h-158z" />
    <glyph glyph-name="afii10036" unicode="&#x422;" horiz-adv-x="611" 
d="M357 603h-215l25 120h586l-25 -120h-215l-128 -603h-156z" />
    <glyph glyph-name="afii10037" unicode="&#x423;" horiz-adv-x="722" 
d="M328 722l98 -371l261 371h182l-395 -520l-147 -202h-184l175 213l-154 509h164z" />
    <glyph glyph-name="afii10038" unicode="&#x424;" horiz-adv-x="833" 
d="M461 553q-51 0 -87 -22t-58.5 -57t-33 -79t-10.5 -88q0 -52 26 -81t87 -29zM723 446q0 51 -25 79t-88 28l-76 -356q50 0 86 22.5t59 58.5t33.5 80t10.5 88zM492 0h-149l19 90q-56 0 -102 13t-79 39t-51.5 65t-18.5 92q0 81 27.5 148t77 114t118 73t149.5 26l13 62h149
l-13 -62q57 0 103.5 -12.5t79.5 -37.5t51 -64t18 -91q0 -81 -28 -148t-77.5 -115t-118 -75t-149.5 -27z" />
    <glyph glyph-name="afii10039" unicode="&#x425;" horiz-adv-x="722" 
d="M374 722l94 -245l208 245h166l-312 -347l173 -375h-190l-104 272l-230 -272h-166l333 374l-163 348h191z" />
    <glyph glyph-name="afii10040" unicode="&#x426;" horiz-adv-x="744" 
d="M69 0l153 722h155l-127 -602h275l127 602h155l-127 -602h66l-58 -271h-155l32 151h-496z" />
    <glyph glyph-name="afii10041" unicode="&#x427;" horiz-adv-x="667" 
d="M509 307q-37 -8 -79 -13t-77 -5q-94 0 -138.5 40.5t-44.5 125.5q0 23 3.5 49t9.5 55l34 163h155l-36 -170q-9 -44 -9 -72q0 -40 19.5 -55.5t64.5 -15.5q31 0 63.5 4t59.5 11l63 298h155l-153 -722h-155z" />
    <glyph glyph-name="afii10042" unicode="&#x428;" horiz-adv-x="1075" 
d="M69 0l153 722h155l-127 -602h236l127 602h155l-127 -602h236l127 602h155l-153 -722h-937z" />
    <glyph glyph-name="afii10043" unicode="&#x429;" horiz-adv-x="1096" 
d="M885 -151l32 151h-848l153 722h155l-127 -602h236l127 602h155l-127 -602h236l127 602h155l-127 -602h66l-58 -271h-155z" />
    <glyph glyph-name="afii10044" unicode="&#x42a;" horiz-adv-x="767" 
d="M619 249q0 36 -21.5 55.5t-63.5 19.5h-128l-43 -204h132q57 0 90.5 36t33.5 93zM583 13q-32 -8 -68.5 -10.5t-79.5 -2.5h-253l128 604h-169l25 118h324l-59 -278h143q43 0 81 -7t66.5 -25.5t45 -50.5t16.5 -81q0 -48 -13.5 -91t-39 -78t-63 -60.5t-84.5 -37.5z" />
    <glyph glyph-name="afii10045" unicode="&#x42b;" horiz-adv-x="900" 
d="M378 120q57 0 90.5 36t33.5 93q0 36 -21.5 55.5t-63.5 19.5h-128l-43 -204h132zM457 444q43 0 81 -7t66.5 -25.5t45 -50.5t16.5 -81q0 -48 -13.5 -91t-39 -78t-63 -60.5t-84.5 -37.5q-32 -8 -68.5 -10.5t-79.5 -2.5h-253l153 722h155l-59 -278h143zM987 722l-153 -722
h-155l153 722h155z" />
    <glyph glyph-name="afii10046" unicode="&#x42c;" horiz-adv-x="650" 
d="M378 120q57 0 90.5 36t33.5 93q0 36 -21.5 55.5t-63.5 19.5h-128l-43 -204h132zM457 444q43 0 81 -7t66.5 -25.5t45 -50.5t16.5 -81q0 -48 -13.5 -91t-39 -78t-63 -60.5t-84.5 -37.5q-32 -8 -68.5 -10.5t-79.5 -2.5h-253l153 722h155l-59 -278h143z" />
    <glyph glyph-name="afii10047" unicode="&#x42d;" horiz-adv-x="667" 
d="M325 -17q-44 0 -88 11.5t-78.5 34.5t-56 58.5t-21.5 83.5q0 13 1.5 28t4.5 35h163q-3 -18 -3 -34q0 -48 27 -75.5t76 -27.5q69 0 118 53.5t77 155.5h-229l24 115h226q1 10 1.5 19.5t0.5 18.5q0 76 -28 120.5t-88 44.5q-104 0 -144 -127h-158q12 54 41 98t71 75.5t95 49
t113 17.5q63 0 111.5 -20t81.5 -56t50 -87t17 -114q0 -91 -26 -177t-77 -152.5t-127 -107t-175 -40.5z" />
    <glyph glyph-name="afii10048" unicode="&#x42e;" horiz-adv-x="1028" 
d="M911 466q0 32 -7 61.5t-23 51.5t-43 35t-67 13q-68 0 -116.5 -37t-79 -93.5t-45 -122t-14.5 -122.5q0 -156 141 -156q66 0 114 37t79 92.5t46 120t15 120.5zM291 314l-67 -314h-155l153 722h155l-61 -289h71q51 147 156 225.5t251 78.5q140 0 209.5 -71t69.5 -191
q0 -95 -31 -183.5t-88 -157t-139 -110t-184 -41.5q-137 0 -208 66.5t-71 192.5q0 34 6 72h-67z" />
    <glyph glyph-name="afii10049" unicode="&#x42f;" horiz-adv-x="667" 
d="M571 604h-130q-29 0 -53 -8.5t-41 -23.5t-27 -35.5t-10 -45.5q0 -81 90 -81h130zM443 0l62 293h-156q-29 0 -49.5 -24t-36.5 -75l-12 -39q-8 -26 -16 -50.5t-16 -44.5l-24 -60h-179l20 27q11 16 22 41.5t21.5 53.5t19 55.5t15.5 48.5q8 23 18 43t23 37q20 25 52 35.5
t59 14.5v2q-54 15 -85.5 51t-31.5 91q0 59 25.5 101t67 69t94.5 39.5t108 12.5h307l-153 -722h-155z" />
    <glyph glyph-name="afii10065" unicode="&#x430;" 
d="M368 0q1 23 4 40.5t5 28.5q-27 -30 -53 -46.5t-48 -24t-39.5 -9t-27.5 -1.5q-55 0 -80.5 13t-37.5 27q-24 33 -24 76q0 8 1 17t3 18q3 15 11 35.5t24 42t41.5 42.5t63.5 37q25 10 53.5 15.5t56.5 8.5t53 3.5t43 0.5q5 25 7.5 39t0.5 28q-2 13 -9.5 21.5t-16.5 13t-17.5 6
t-13.5 1.5q-16 0 -32.5 -7t-29.5 -21q-11 -13 -15 -24.5t-6 -20.5h-145q3 10 7.5 24.5t13.5 31t23.5 33t37.5 30.5q40 25 83 33t79 8q16 0 38.5 -2t46.5 -9t45.5 -19.5t35.5 -34.5q9 -15 12.5 -32.5t3.5 -34.5q0 -18 -2.5 -33t-4.5 -24l-42 -203q-7 -32 -11.5 -64t-3.5 -64
h-134zM399 238q-8 1 -15 1h-14q-60 0 -101.5 -21t-49.5 -62q-3 -13 -1.5 -25.5t8 -23t19 -17t30.5 -6.5q20 0 38 8.5t32 20.5q24 24 35 53.5t19 71.5z" />
    <glyph glyph-name="afii10066" unicode="&#x431;" horiz-adv-x="611" 
d="M479 321q0 92 -85 92q-42 0 -71.5 -24t-47.5 -59.5t-26 -77t-8 -76.5q0 -48 21 -69.5t64 -21.5q42 0 71 24t47 59.5t26.5 76.5t8.5 76zM303 -15q-99 0 -154.5 52t-55.5 143q0 51 13 114t36 125t54.5 115.5t69.5 85.5q45 37 93 52.5t96 23.5q35 5 56 10t32 16h155
q-7 -23 -19.5 -46t-33.5 -42.5t-52 -34t-74 -20.5q-44 -6 -83.5 -10.5t-74 -18.5t-64.5 -43.5t-54 -85.5l3 -1q35 40 81.5 62t98.5 22q103 0 153.5 -46.5t50.5 -131.5q0 -69 -24 -131t-67 -108.5t-103.5 -74t-132.5 -27.5z" />
    <glyph glyph-name="afii10067" unicode="&#x432;" 
d="M341 96q30 0 50 22.5t20 51.5q0 20 -12.5 32t-36.5 12h-113l-25 -118h117zM370 306q29 0 47 19t18 48q0 17 -9.5 27.5t-28.5 10.5h-106l-22 -105h101zM469 263q38 -4 62 -29.5t24 -63.5q0 -43 -18.5 -75t-48 -53t-67 -31.5t-75.5 -10.5h-286l107 504h294q63 0 93 -29
t30 -71q0 -24 -9 -47t-25 -41.5t-36.5 -32t-44.5 -18.5v-2z" />
    <glyph glyph-name="afii10068" unicode="&#x433;" horiz-adv-x="444" 
d="M301 400l-85 -400h-150l107 504h365l-22 -104h-215z" />
    <glyph glyph-name="afii10069" unicode="&#x434;" horiz-adv-x="611" 
d="M474 407h-105q-8 -32 -15.5 -59t-15 -51t-16 -46t-18.5 -45q-13 -28 -28 -54.5t-37 -49.5h170zM426 -141l30 141h-305l-30 -141h-140l52 243h53q14 15 24 26t17.5 21t14 20t13.5 23q13 23 24 47.5t20.5 53t18 62.5t17.5 76l15 73h388l-85 -402h65l-52 -243h-140z" />
    <glyph glyph-name="afii10070" unicode="&#x435;" 
d="M229 215q-2 -8 -4.5 -22t-2.5 -30q0 -15 3.5 -29.5t12.5 -26.5t25 -19.5t41 -7.5q28 0 55 14t47 56h135q-5 -18 -19.5 -48t-51.5 -62q-34 -29 -83.5 -44t-106.5 -15q-16 0 -38 2t-45 9t-44.5 19t-36.5 33q-17 23 -25 51.5t-8 61.5q0 20 2.5 40.5t7.5 43.5q6 31 17.5 64
t30 64.5t45 60t63.5 50.5q68 42 150 42q27 0 54.5 -6t52 -20t43.5 -37.5t29 -58.5q5 -17 6.5 -33t1.5 -33q0 -35 -6 -66t-12 -53h-339zM437 308q2 6 3.5 16.5t1.5 23.5q0 12 -3 25t-10.5 23.5t-21 17.5t-34.5 7q-24 0 -43.5 -9.5t-34.5 -25t-25 -36t-16 -42.5h183z" />
    <glyph glyph-name="afii10072" unicode="&#x436;" horiz-adv-x="797" 
d="M632 0l-106 251h-2l-53 -251h-144l53 251h-2l-198 -251h-179l243 277l-125 227h157l108 -227h2l48 227h144l-48 -227h2l190 227h171l-226 -250l130 -254h-165z" />
    <glyph glyph-name="afii10073" unicode="&#x437;" horiz-adv-x="500" 
d="M442 268q32 -8 49.5 -33.5t17.5 -57.5q0 -51 -23 -87.5t-60 -60t-82 -34.5t-88 -11q-30 0 -65 5t-65 19t-50 38t-20 62q0 20 6 46h137v-5q0 -34 15.5 -49t52.5 -15q36 0 62 18t26 56q0 52 -69 52h-42l21 100h46q15 0 30.5 3.5t28 11.5t21 20.5t8.5 29.5q0 19 -15.5 29.5
t-43.5 10.5q-65 0 -87 -60h-135q22 87 86 124t173 37q81 0 125 -30t44 -87q0 -22 -8 -43.5t-22.5 -39.5t-33.5 -30.5t-40 -16.5v-2z" />
    <glyph glyph-name="afii10074" unicode="&#x438;" horiz-adv-x="611" 
d="M405 0l73 343h-3l-239 -343h-170l107 504h141l-73 -345h2l240 345h170l-107 -504h-141z" />
    <glyph glyph-name="afii10075" unicode="&#x439;" horiz-adv-x="611" 
d="M405 0l73 343h-3l-239 -343h-170l107 504h141l-73 -345h2l240 345h170l-107 -504h-141zM610 722q-18 -69 -63.5 -108t-114.5 -39q-60 0 -90.5 28.5t-30.5 82.5q0 16 3 36h69v-8q0 -30 15 -46.5t50 -16.5q36 0 58 18t35 53h69z" />
    <glyph glyph-name="afii10076" unicode="&#x43a;" 
d="M276 277h2l190 227h173l-227 -248l131 -256h-167l-106 251h-2l-53 -251h-150l107 504h150z" />
    <glyph glyph-name="afii10077" unicode="&#x43b;" horiz-adv-x="600" 
d="M535 0h-150l86 403h-118l-16 -76q-20 -96 -44.5 -160.5t-55.5 -104t-70.5 -56t-88.5 -16.5q-24 0 -60 9l-4 1l22 104q7 -3 18 -3q26 0 45.5 12t36.5 44.5t33 89.5t35 147l23 110h415z" />
    <glyph glyph-name="afii10078" unicode="&#x43c;" horiz-adv-x="737" 
d="M418 0h-99l-34 347h-3l-75 -347h-142l107 504h202l25 -349h2l173 349h204l-107 -504h-142l74 346h-3z" />
    <glyph glyph-name="afii10079" unicode="&#x43d;" horiz-adv-x="611" 
d="M396 0l45 211h-180l-45 -211h-150l107 504h150l-39 -183h180l39 183h150l-107 -504h-150z" />
    <glyph glyph-name="afii10080" unicode="&#x43e;" horiz-adv-x="611" 
d="M94 248q10 46 33 93.5t61.5 86.5t93.5 64t130 25q57 0 97.5 -15t66.5 -41t38 -61.5t12 -76.5q0 -33 -8 -71q-11 -53 -37 -102t-66.5 -86.5t-95 -59.5t-123.5 -22q-46 0 -84.5 12t-66.5 36.5t-43.5 60.5t-15.5 84q0 17 1.5 35t6.5 38zM246 247q-5 -20 -6.5 -37t-1.5 -32
q0 -48 21.5 -70.5t63.5 -22.5q25 0 46.5 8t39.5 28t33 53.5t26 83.5q4 16 6.5 33t2.5 34q0 18 -4 35t-14 30t-26.5 20.5t-41.5 7.5q-41 0 -67 -20.5t-42 -48t-24 -56.5t-12 -46z" />
    <glyph glyph-name="afii10081" unicode="&#x43f;" horiz-adv-x="611" 
d="M396 0l85 400h-180l-85 -400h-150l107 504h480l-107 -504h-150z" />
    <glyph glyph-name="afii10082" unicode="&#x440;" horiz-adv-x="611" 
d="M311 505l-11 -72q24 30 50.5 47t50 24.5t42.5 9t28 1.5q81 0 123 -46t42 -127q0 -37 -9 -79q-11 -54 -35 -102.5t-59.5 -86t-81.5 -59.5t-101 -22q-34 0 -57 8t-37.5 18.5t-22 21.5t-10.5 17l-54 -252h-151l149 699h144zM333 90q54 0 90.5 46t52.5 121q8 30 8 67
q0 18 -3.5 35.5t-12 31t-23 21.5t-36.5 8q-18 0 -40 -8t-43.5 -27.5t-40 -52.5t-29.5 -84q-2 -8 -5 -24t-3 -36q0 -17 3.5 -34.5t13 -31.5t26 -23t42.5 -9z" />
    <glyph glyph-name="afii10083" unicode="&#x441;" horiz-adv-x="500" 
d="M401 326q1 7 2 22t-2.5 31t-13.5 28t-31 12q-26 0 -45.5 -17.5t-33 -42.5t-22 -52.5t-12.5 -48.5q-2 -13 -6.5 -38.5t-4.5 -52.5q0 -19 3.5 -36t11.5 -28t18.5 -14t18.5 -3q6 0 17 2.5t23.5 12t25.5 29t22 53.5h146q-4 -15 -10 -33t-16.5 -37.5t-27.5 -40t-42 -38.5
q-32 -23 -69 -35t-85 -12q-51 0 -91.5 14t-66.5 53q-31 49 -31 117q0 38 9 82q18 86 56.5 138t82.5 79.5t86 36t67 8.5q31 0 62 -8t55 -25.5t39 -45t15 -66.5q0 -10 -1.5 -21t-3.5 -23h-145z" />
    <glyph glyph-name="afii10084" unicode="&#x442;" horiz-adv-x="500" 
d="M412 400l-85 -400h-150l85 400h-155l22 104h460l-22 -104h-155z" />
    <glyph glyph-name="afii10085" unicode="&#x443;" 
d="M281 505l36 -350l188 350h147l-297 -496l-103 -201h-149l104 190l-86 507h160z" />
    <glyph glyph-name="afii10086" unicode="&#x444;" horiz-adv-x="804" 
d="M419 397q-15 23 -56 23q-33 0 -56 -28.5t-37.5 -68t-21.5 -82t-7 -69.5q0 -83 54 -83q39 0 64 25zM679 340q0 80 -53 80q-37 0 -66 -23l-60 -283q16 -25 54 -25q32 0 55.5 29t39 69t23 83t7.5 70zM563 -7q-23 0 -44 6t-36 25l-46 -217h-145l46 217q-23 -19 -46 -25
t-46 -6q-36 0 -65 15.5t-48.5 42.5t-30 62t-10.5 74q0 51 17.5 108.5t50.5 106.5t80 81t106 32q12 0 25 -2.5t25.5 -7.5t22.5 -12t15 -15l52 244h147l-52 -244q17 17 47 27t55 10q38 0 65.5 -14.5t45.5 -38.5t26.5 -55.5t8.5 -64.5q0 -36 -8.5 -76t-24.5 -78.5t-39 -74
t-53 -62t-65.5 -42.5t-75.5 -16z" />
    <glyph glyph-name="afii10087" unicode="&#x445;" 
d="M298 505l60 -165l134 165h154l-216 -246l114 -259h-175l-63 185l-142 -185h-155l226 271l-112 234h175z" />
    <glyph glyph-name="afii10088" unicode="&#x446;" horiz-adv-x="625" 
d="M66 0l107 504h150l-85 -402h180l85 402h150l-85 -402h65l-52 -243h-140l30 141h-405z" />
    <glyph glyph-name="afii10089" unicode="&#x447;" 
d="M389 204q-30 -8 -64.5 -12t-57.5 -4q-72 0 -109.5 31t-37.5 91q0 21 6 47l31 147h150l-28 -132q-3 -17 -3 -29q0 -60 58 -60q12 0 32 2t42 7l45 212h150l-107 -504h-150z" />
    <glyph glyph-name="afii10090" unicode="&#x448;" horiz-adv-x="867" 
d="M173 504h150l-85 -402h143l85 402h150l-85 -402h143l85 402h150l-107 -504h-736z" />
    <glyph glyph-name="afii10091" unicode="&#x449;" horiz-adv-x="881" 
d="M173 504h150l-85 -402h143l85 402h150l-85 -402h143l85 402h150l-85 -402h65l-52 -243h-140l30 141h-661z" />
    <glyph glyph-name="afii10092" unicode="&#x44a;" horiz-adv-x="656" 
d="M505 184q0 43 -52 43h-89l-26 -125h94q35 0 54 25t19 57zM166 0l85 400h-144l22 104h294l-37 -173h119q75 0 116 -34.5t41 -94.5q0 -47 -17 -84t-47 -63.5t-70 -40.5t-85 -14h-277z" />
    <glyph glyph-name="afii10093" unicode="&#x44b;" horiz-adv-x="778" 
d="M385 184q0 43 -52 43h-79l-26 -125h84q35 0 54 25t19 57zM56 0l107 504h150l-37 -173h109q75 0 116 -34.5t41 -94.5q0 -47 -17 -84t-47 -63.5t-70 -40.5t-85 -14h-267zM564 0l107 504h150l-107 -504h-150z" />
    <glyph glyph-name="afii10094" unicode="&#x44c;" 
d="M405 184q0 43 -52 43h-89l-26 -125h94q35 0 54 25t19 57zM66 0l107 504h150l-37 -173h119q75 0 116 -34.5t41 -94.5q0 -47 -17 -84t-47 -63.5t-70 -40.5t-85 -14h-277z" />
    <glyph glyph-name="afii10095" unicode="&#x44d;" horiz-adv-x="500" 
d="M243 -13q-35 0 -67.5 8.5t-57.5 26t-40 45t-15 66.5q0 19 3 40h146q-1 -6 -1.5 -11t-0.5 -10q0 -32 14 -49t37 -17q22 0 39 13.5t29.5 33t20.5 41t13 38.5h-121l20 96h121q1 8 1.5 15.5t0.5 15.5q0 80 -54 80q-26 0 -48.5 -20.5t-34.5 -62.5h-145q9 40 31.5 73t55 56.5
t72 36.5t81.5 13q48 0 84 -14t60.5 -39t36.5 -60t12 -76q0 -65 -19.5 -126t-56.5 -108t-92 -76t-125 -29z" />
    <glyph glyph-name="afii10096" unicode="&#x44e;" horiz-adv-x="811" 
d="M680 324q0 94 -85 94q-42 0 -71.5 -24.5t-47.5 -61t-26.5 -78.5t-8.5 -77q0 -92 85 -92q42 0 71.5 24.5t47.5 60.5t26.5 77.5t8.5 76.5zM252 216l-46 -216h-150l107 504h150l-40 -188h46q42 100 118 150.5t179 50.5t158.5 -51t55.5 -142q0 -70 -24.5 -132t-69 -108.5
t-105 -74t-132.5 -27.5q-100 0 -154.5 51.5t-54.5 142.5v19.5t2 20.5h-40z" />
    <glyph glyph-name="afii10097" unicode="&#x44f;" 
d="M438 407h-94q-36 0 -58.5 -20.5t-22.5 -55.5q0 -15 5.5 -25t14.5 -15t19.5 -7t19.5 -2h89zM351 0l39 184h-94q-10 0 -20 -2.5t-18 -9.5q-12 -11 -18.5 -29.5t-13.5 -38.5q-3 -9 -8 -22.5t-11 -28l-12 -29t-10 -24.5h-166q5 9 9.5 17.5t9.5 16.5q23 43 33.5 72.5
t18.5 52.5q4 12 13.5 24.5t21 22.5t23.5 17t21 9q-7 4 -16 12t-17.5 19.5t-14 26.5t-5.5 32q0 39 17 72.5t44.5 58t63 38t73.5 13.5h291l-107 -504h-147z" />
    <glyph glyph-name="afii10071" unicode="&#x451;" 
d="M229 215q-2 -8 -4.5 -22t-2.5 -30q0 -15 3.5 -29.5t12.5 -26.5t25 -19.5t41 -7.5q28 0 55 14t47 56h135q-5 -18 -19.5 -48t-51.5 -62q-34 -29 -83.5 -44t-106.5 -15q-16 0 -38 2t-45 9t-44.5 19t-36.5 33q-17 23 -25 51.5t-8 61.5q0 20 2.5 40.5t7.5 43.5q6 31 17.5 64
t30 64.5t45 60t63.5 50.5q68 42 150 42q27 0 54.5 -6t52 -20t43.5 -37.5t29 -58.5q5 -17 6.5 -33t1.5 -33q0 -35 -6 -66t-12 -53h-339zM437 308q2 6 3.5 16.5t1.5 23.5q0 12 -3 25t-10.5 23.5t-21 17.5t-34.5 7q-24 0 -43.5 -9.5t-34.5 -25t-25 -36t-16 -42.5h183zM466 721
h102l-25 -118h-102zM294 721h102l-25 -118h-102z" />
    <glyph glyph-name="afii10099" unicode="&#x452;" horiz-adv-x="611" 
d="M564 53q-29 -132 -98 -192t-166 -60q-22 0 -40 3l19 94q51 0 85 39t50 114l15 71q5 28 5 42q0 73 -67 73q-42 0 -74.5 -32t-43.5 -83l-25 -122h-150l87 404h-59l21 100h59l45 218h149l-45 -218h198l-21 -100h-198l-32 -141l2 -2q36 38 75.5 57t88.5 19q30 0 57 -8.5
t47 -24.5t32 -39.5t12 -54.5q0 -34 -7 -63z" />
    <glyph glyph-name="afii10100" unicode="&#x453;" horiz-adv-x="444" 
d="M301 400l-85 -400h-150l107 504h365l-22 -104h-215zM371 578h-80l114 145h134z" />
    <glyph glyph-name="afii10101" unicode="&#x454;" horiz-adv-x="500" 
d="M516 173q-26 -91 -91.5 -138.5t-159.5 -47.5q-98 0 -142.5 50.5t-44.5 131.5q0 64 20.5 126.5t59.5 111t94.5 78.5t126.5 30q37 0 69 -10.5t54.5 -29t35.5 -45t13 -58.5q0 -21 -4 -36h-145q1 5 1.5 10t0.5 10q0 31 -13.5 47t-35.5 16q-32 0 -57 -28.5t-42 -82.5h120
l-20 -96h-121q-1 -10 -2 -21t-1 -23q0 -15 2 -29.5t7.5 -26.5t15.5 -19t26 -7q27 0 51.5 22.5t35.5 64.5h146z" />
    <glyph glyph-name="afii10102" unicode="&#x455;" horiz-adv-x="500" 
d="M199 146q-2 -12 0 -24.5t9.5 -22t22 -16t37.5 -6.5q40 0 63 18.5t28 41.5q4 17 -7 31t-51 26l-87 25q-13 4 -30.5 10.5t-33 18.5t-26.5 31t-11 48q0 14 3 32q8 37 30 66t55.5 49.5t76.5 31.5t92 11q39 0 71.5 -9t54.5 -27.5t31.5 -46.5t3.5 -66h-135q3 21 -3 33t-15.5 18
t-21 7.5t-20.5 1.5q-30 0 -52.5 -13.5t-27.5 -36.5q-5 -26 10.5 -35t47.5 -18l85 -25q108 -32 108 -111q0 -15 -3 -30q-7 -33 -27.5 -64t-54.5 -55.5t-81 -39.5t-106 -15q-49 0 -91 13t-69 49q-11 16 -15 32t-4 31q0 11 1 19.5t3 16.5h139z" />
    <glyph glyph-name="afii10103" unicode="&#x456;" horiz-adv-x="278" 
d="M213 722h158l-27 -129h-158zM172 506h148l-107 -506h-148z" />
    <glyph glyph-name="afii10104" unicode="&#x457;" horiz-adv-x="278" 
d="M172 506h148l-107 -506h-148zM327 721h102l-25 -118h-102zM155 721h102l-25 -118h-102z" />
    <glyph glyph-name="afii10105" unicode="&#x458;" horiz-adv-x="278" 
d="M-21 -94q24 -1 39.5 8.5t24.5 23.5t13.5 29t6.5 25l109 515h148l-117 -552q-8 -36 -22 -64t-37.5 -48t-57.5 -30.5t-81 -10.5q-5 0 -18.5 0.5t-29.5 3.5zM213 722h158l-27 -129h-158z" />
    <glyph glyph-name="afii10106" unicode="&#x459;" horiz-adv-x="853" 
d="M695 184q0 43 -52 43h-69l-26 -125h74q35 0 54 25t19 57zM376 0l86 403h-107l-16 -76q-21 -100 -46 -165t-56 -103.5t-70.5 -53.5t-88.5 -15q-24 0 -60 9l-4 1l22 104q7 -3 18 -3q25 0 45 13.5t37 48t33.5 93t35.5 148.5l21 100h407l-37 -173h99q75 0 116 -34.5t41 -94.5
q0 -47 -17 -84t-47 -63.5t-70 -40.5t-85 -14h-257z" />
    <glyph glyph-name="afii10107" unicode="&#x45a;" horiz-adv-x="853" 
d="M695 184q0 43 -52 43h-69l-26 -125h74q35 0 54 25t19 57zM264 227l-48 -227h-150l107 504h150l-37 -173h160l37 173h150l-37 -173h99q75 0 116 -34.5t41 -94.5q0 -47 -17 -84t-47 -63.5t-70 -40.5t-85 -14h-257l48 227h-160z" />
    <glyph glyph-name="afii10108" unicode="&#x45b;" horiz-adv-x="611" 
d="M114 504h59l46 218h149l-46 -218h208l-21 -100h-208l-30 -141l2 -2q36 38 75.5 57t88.5 19q31 0 58 -8t47 -24t31.5 -40t11.5 -55q0 -34 -7 -63l-32 -147h-150l26 122q5 28 5 42q0 73 -67 73q-41 0 -74 -32t-44 -83l-26 -122h-150l86 404h-59z" />
    <glyph glyph-name="afii10109" unicode="&#x45c;" 
d="M276 277h2l190 227h173l-227 -248l131 -256h-167l-106 251h-2l-53 -251h-150l107 504h150zM411 578h-80l114 145h134z" />
    <glyph glyph-name="afii10110" unicode="&#x45e;" 
d="M590 722q-18 -69 -63.5 -108t-114.5 -39q-60 0 -90.5 28.5t-30.5 82.5q0 16 3 36h69v-8q0 -30 15 -46.5t50 -16.5q36 0 58 18t35 53h69zM121 504h151l38 -346l181 346h161l-296 -495l-104 -201h-155l111 190z" />
    <glyph glyph-name="afii10193" unicode="&#x45f;" horiz-adv-x="611" 
d="M66 0l107 504h150l-85 -402h180l85 402h150l-107 -504h-165l-30 -141h-150l30 141h-165z" />
    <glyph glyph-name="afii10050" unicode="&#x490;" horiz-adv-x="540" 
d="M655 604h-303l-128 -604h-155l153 722h303l24 113h155z" />
    <glyph glyph-name="afii10098" unicode="&#x491;" horiz-adv-x="444" 
d="M514 392h-215l-83 -392h-150l107 504h215l22 103h150z" />
    <glyph glyph-name="endash" unicode="&#x2013;" horiz-adv-x="500" 
d="M65 310h500l-20 -97h-500z" />
    <glyph glyph-name="emdash" unicode="&#x2014;" horiz-adv-x="1000" 
d="M195 310h740l-20 -97h-740z" />
    <glyph glyph-name="quoteleft" unicode="&#x2018;" horiz-adv-x="278" 
d="M269 475h-146l165 247h105z" />
    <glyph glyph-name="quoteright" unicode="&#x2019;" horiz-adv-x="278" 
d="M263 722h146l-165 -247h-105z" />
    <glyph glyph-name="quotesinglbase" unicode="&#x201a;" horiz-adv-x="278" 
d="M278 133l-172 -246h-103l127 246h148z" />
    <glyph glyph-name="quotedblleft" unicode="&#x201c;" 
d="M309 475h-145l165 247h104zM505 475h-146l165 247h105z" />
    <glyph glyph-name="quotedblright" unicode="&#x201d;" 
d="M291 722h146l-166 -247h-104zM486 722h146l-165 -247h-104z" />
    <glyph glyph-name="quotedblbase" unicode="&#x201e;" 
d="M43 -113l124 246h143l-164 -246h-103zM242 -113l124 246h143l-164 -246h-103z" />
    <glyph glyph-name="dagger" unicode="&#x2020;" 
d="M151 465l22 100h161l33 157h122l-33 -157h157l-22 -100h-157l-98 -465h-122l98 465h-161z" />
    <glyph glyph-name="daggerdbl" unicode="&#x2021;" 
d="M616 572l-21 -97h-159l-47 -225h159l-21 -97h-159l-32 -153h-122l32 153h-158l21 97h158l47 225h-161l21 97h161l32 150h122l-32 -150h159z" />
    <glyph glyph-name="bullet" unicode="&#x2022;" horiz-adv-x="350" 
d="M290 542q66 0 106 -39.5t40 -102.5q0 -9 -1 -18.5t-3 -19.5q-8 -38 -29 -70.5t-51 -57.5t-66 -39t-73 -14q-33 0 -60 11t-46.5 30.5t-30 45.5t-10.5 57q0 20 4 37q8 38 29.5 71t51.5 57t66 38t73 14z" />
    <glyph glyph-name="ellipsis" unicode="&#x2026;" horiz-adv-x="1000" 
d="M145 133h127l-28 -133h-127zM465 133h127l-28 -133h-127zM785 133h127l-28 -133h-127z" />
    <glyph glyph-name="perthousand" unicode="&#x2030;" horiz-adv-x="1000" 
d="M580 335q61 0 87.5 -28t26.5 -78q0 -24 -6 -54q-5 -23 -14.5 -54.5t-29 -60t-52 -49t-83.5 -20.5q-62 0 -87.5 31t-25.5 78q0 27 8 61q7 36 20.5 68t34.5 55.5t50.5 37t70.5 13.5zM525 68q25 0 39 22.5t25 74.5q8 35 8 57q0 17 -6 27t-23 10q-30 0 -43 -28.5t-22 -73.5
q-8 -34 -8 -54q0 -17 6.5 -26t23.5 -9zM916 335q62 0 88.5 -28t26.5 -77q0 -25 -6 -55q-5 -23 -14.5 -54.5t-29 -60t-52 -49t-83.5 -20.5q-62 0 -87.5 31t-25.5 79q0 31 7 60q7 36 20.5 68t34.5 55.5t50.5 37t70.5 13.5zM862 68q25 0 38.5 22.5t24.5 74.5q8 35 8 57
q0 17 -6 27t-23 10q-29 0 -42.5 -28.5t-22.5 -73.5q-4 -16 -5.5 -29t-1.5 -24q0 -17 6.5 -26.5t23.5 -9.5zM299 719q62 0 88.5 -27.5t26.5 -76.5q0 -25 -6 -55q-5 -23 -14.5 -54.5t-29 -60.5t-52 -49.5t-83.5 -20.5q-62 0 -87.5 30.5t-25.5 78.5q0 27 8 62q7 36 20 68t34 55
t50.5 36.5t70.5 13.5zM246 452q25 0 38 22.5t24 74.5q8 35 8 58q0 17 -6 27t-23 10q-29 0 -42 -29t-23 -74q-3 -14 -5 -27t-2 -24q0 -18 7 -28t24 -10zM72 -16l585 743h73l-583 -743h-75z" />
    <glyph glyph-name="guilsinglleft" unicode="&#x2039;" horiz-adv-x="278" 
d="M70 252l149 190h132l-135 -190l53 -196h-132z" />
    <glyph glyph-name="guilsinglright" unicode="&#x203a;" horiz-adv-x="278" 
d="M235 442l68 -197l-150 -189h-132l136 189l-54 197h132z" />
    <glyph glyph-name="fraction" unicode="&#x2044;" horiz-adv-x="167" 
d="M404 725h82l-576 -753h-82z" />
    <glyph glyph-name="Euro" unicode="&#x20ac;" 
d="M141 321l5 25q2 9 5.5 22.5t6.5 22.5h-60l33 66h47q18 54 50 99t75 78t95.5 51.5t110.5 18.5q70 0 112.5 -14t63.5 -34l-65 -124q-19 28 -49 42t-78 14q-54 0 -99.5 -29t-71.5 -102h265l-33 -66h-252q-3 -9 -7 -22.5t-6 -22.5l-5 -25h239l-32 -66h-217q-7 -69 20 -111
t87 -42q47 0 81.5 11t70.5 37l-26 -123q-32 -22 -77.5 -32t-87.5 -10q-109 0 -161.5 57t-52.5 157q0 14 1 28t3 28h-69l32 66h46z" />
    <glyph glyph-name="afii61289" unicode="&#x2113;" horiz-adv-x="500" 
d="M465 53q-48 -34 -92 -50.5t-92 -16.5q-78 0 -112 41.5t-20 104.5l9 44l-65 -48h-2l-33 73l123 86l50 238q9 42 30 78t50.5 62t65.5 41t75 15q69 0 100 -41t17 -108q-17 -78 -79 -151.5t-177 -155.5l-24 -111q-8 -39 8.5 -53.5t38.5 -14.5q38 0 96 37h2zM456 563
q6 28 0 48t-24 20q-17 0 -33.5 -21.5t-24.5 -58.5l-37 -170q54 45 82 91t37 91z" />
    <glyph glyph-name="afii61352" unicode="&#x2116;" horiz-adv-x="1120" 
d="M221 699h224l115 -545l116 545h144l-149 -699h-213l-117 576l-123 -576h-146zM909 270q0 -52 48 -52q24 0 40.5 12.5t27 31.5t15 41.5t4.5 42.5q0 51 -49 51q-24 0 -40.5 -12.5t-26.5 -31t-14.5 -41t-4.5 -42.5zM1081 0h-340l17 80h340zM942 148q-67 0 -103.5 31.5
t-36.5 88.5q0 43 16 80t44.5 63t66 41t81.5 15q66 0 103.5 -32t37.5 -87q0 -44 -16.5 -80.5t-45 -63t-66.5 -41.5t-81 -15z" />
    <glyph glyph-name="trademark" unicode="&#x2122;" horiz-adv-x="1000" 
d="M598 723h122l17 -264l135 264h118l-77 -361h-74l66 310l-160 -310h-62l-27 310l-66 -310h-69zM351 663h-127l13 60h329l-13 -60h-126l-64 -301h-76z" />
    <glyph glyph-name="Omega" unicode="&#x2126;" horiz-adv-x="765" 
d="M427 0l43 204q73 16 122 70q49 52 64 127q2 12 3.5 23t1.5 22q0 33 -11 61t-31.5 48.5t-48.5 31.5t-62 11q-41 0 -79 -15t-69.5 -41t-54 -62.5t-31.5 -79.5q-6 -27 -6 -52q0 -54 27 -91.5t79 -52.5l-43 -204h-283l26 125h170l5 21q-78 28 -107 97q-17 42 -17 90
q0 17 2 34.5t6 36.5q15 70 53.5 128.5t92.5 100.5t119.5 65t133.5 23q60 0 110 -17t86 -49t56 -77t20 -101q0 -32 -8 -70q-10 -46 -29 -87.5t-47 -76t-65.5 -59.5t-83.5 -38l-5 -21h170l-26 -125h-283z" />
    <glyph glyph-name="estimated" unicode="&#x212e;" horiz-adv-x="600" 
d="M510 295l31 145q-50 60 -134 60t-157 -60l-31 -145h291zM212 259l-39 -181q47 -59 133 -59q63 0 114.5 28.5t103.5 91.5l31 -21q-31 -36 -60 -61.5t-60 -42t-64.5 -24t-72.5 -7.5q-50 0 -88.5 15.5t-64.5 43t-39.5 65.5t-13.5 83q0 35 7 69q12 58 41 108.5t70.5 87.5
t93.5 58.5t111 21.5q49 0 88 -15t66 -42t41 -65t14 -84q0 -17 -2 -34t-6 -36h-404z" />
    <glyph glyph-name="partialdiff" unicode="&#x2202;" horiz-adv-x="611" 
d="M627 358q-13 -62 -37.5 -127.5t-65 -119.5t-99.5 -89t-141 -35q-89 0 -139 49t-50 129q0 27 6 57q10 49 34.5 90t60.5 71t81.5 46.5t98.5 16.5q38 0 67.5 -11t54.5 -31q2 16 3.5 33.5t1.5 35.5q0 25 -4.5 49.5t-15.5 43.5t-30.5 30.5t-50.5 11.5q-35 0 -69.5 -13
t-73.5 -45l-48 91q54 39 104.5 59.5t107.5 20.5q61 0 103 -19.5t67.5 -52.5t36.5 -77t11 -92q0 -58 -14 -122zM466 271q1 5 2 9.5t1 9.5q-19 23 -42.5 36.5t-55.5 13.5q-27 0 -49 -10t-39 -27t-28.5 -40t-17.5 -48q-2 -9 -3 -18t-1 -17q0 -37 18.5 -61t59.5 -24
q31 0 57 16.5t45.5 42t33 56.5t19.5 61z" />
    <glyph glyph-name="Delta" unicode="&#x2206;" horiz-adv-x="698" 
d="M9 0l418 710h128l134 -710h-680zM454 542l-240 -417h312z" />
    <glyph glyph-name="product" unicode="&#x220f;" horiz-adv-x="747" 
d="M508 -214l187 882h-361l-187 -882h-133l213 1000h627l-213 -1000h-133z" />
    <glyph glyph-name="summation" unicode="&#x2211;" horiz-adv-x="657" 
d="M-19 -214l20 100l384 406l-202 394l22 100h584l-26 -118h-412l186 -375l-366 -389h442l-25 -118h-607z" />
    <glyph glyph-name="minus" unicode="&#x2212;" horiz-adv-x="584" 
d="M96 331h532l-28 -129h-532z" />
    <glyph glyph-name="uni2215" unicode="&#x2215;" horiz-adv-x="167" 
d="M404 725h82l-576 -753h-82z" />
    <glyph glyph-name="uni2219" unicode="&#x2219;" horiz-adv-x="278" 
d="M147 346h127l-28 -133h-127z" />
    <glyph glyph-name="radical" unicode="&#x221a;" horiz-adv-x="553" 
d="M306 -214h-116l-84 308l-56 -24l-25 102l177 74l66 -256l333 796h130z" />
    <glyph glyph-name="infinity" unicode="&#x221e;" horiz-adv-x="826" 
d="M837 265q-8 -39 -27 -73t-47.5 -59.5t-64.5 -40t-77 -14.5q-31 0 -56 9t-45 23.5t-36.5 34t-30.5 40.5q-24 -21 -48.5 -40t-50.5 -34t-54.5 -23.5t-59.5 -8.5q-69 0 -107 38.5t-38 99.5q0 23 6 47q8 38 27 71.5t47 58t63.5 39t76.5 14.5q33 0 58 -9.5t45 -25.5t36 -36.5
t30 -42.5q23 22 48 43t51.5 37t56 25.5t61.5 9.5q34 0 60.5 -10.5t44.5 -29t27 -43.5t9 -55q0 -11 -1.5 -22t-3.5 -23zM732 262q8 33 -6.5 55.5t-49.5 22.5q-18 0 -37 -7.5t-37.5 -19.5t-36 -26t-31.5 -26q19 -28 46.5 -51.5t65.5 -23.5q33 0 56 22t30 54zM402 261
q-9 12 -21 25.5t-26 25.5t-30 19.5t-33 7.5q-32 0 -56.5 -23t-31.5 -54q-7 -34 8.5 -54.5t49.5 -20.5q17 0 35.5 7t37.5 17.5t36 23.5t31 26z" />
    <glyph glyph-name="integral" unicode="&#x222b;" horiz-adv-x="622" 
d="M651 702q-5 -25 -25.5 -42t-46.5 -17q-21 0 -30 9.5t-12.5 21.5t-6 22.5t-11.5 12.5q-11 -4 -15.5 -16.5t-6.5 -22.5q-5 -26 -9.5 -51.5t-9.5 -51.5l-97 -455q-14 -66 -31.5 -125.5t-44 -104t-65 -70.5t-93.5 -26q-18 0 -36.5 4.5t-32 14t-20 25.5t-1.5 40t26.5 41
t45.5 17q21 0 29.5 -9.5t12 -21.5t5.5 -22.5t11 -11.5q11 2 15 12t6 21q6 26 10 52t10 52l106 501q9 43 22.5 92.5t38 92t64.5 71t102 28.5q17 0 35 -4.5t32 -14t21 -25.5t2 -39z" />
    <glyph glyph-name="approxequal" unicode="&#x2248;" horiz-adv-x="584" 
d="M669 468q-28 -93 -80.5 -142.5t-121.5 -49.5q-30 0 -61.5 10t-61.5 22t-58 22t-51 10q-21 0 -37.5 -17t-25.5 -38h-96q10 34 27.5 67t42 58.5t57.5 41.5t74 16q31 0 60 -9t57.5 -20.5t56.5 -20.5t58 -9q22 0 37.5 15.5t25.5 43.5h97zM621 247q-11 -32 -27.5 -65
t-40.5 -59.5t-56 -43t-74 -16.5q-30 0 -62 10t-63 22.5t-59 22.5t-50 10q-21 0 -38 -17.5t-27 -44.5h-96q10 34 27.5 68.5t42 61.5t56.5 44t72 17q31 0 60.5 -9.5t59 -21t59 -21t59.5 -9.5q20 0 35 14.5t25 36.5h97z" />
    <glyph glyph-name="notequal" unicode="&#x2260;" horiz-adv-x="584" 
d="M300 110l-105 -146l-103 56l66 90h-102l27 127h167l61 84h-210l27 127h275l106 145l103 -55l-66 -90h99l-27 -127h-164l-61 -84h207l-27 -127h-273z" />
    <glyph glyph-name="lessequal" unicode="&#x2264;" horiz-adv-x="584" 
d="M41 18l26 123h508l-26 -123h-508zM116 368l22 103l553 214l-29 -136l-334 -131l279 -127l-29 -137z" />
    <glyph glyph-name="greaterequal" unicode="&#x2265;" horiz-adv-x="584" 
d="M67 141h508l-26 -123h-508zM99 291l333 127l-278 131l29 136l463 -214l-22 -103l-554 -214z" />
    <glyph glyph-name="lozenge" unicode="&#x25ca;" horiz-adv-x="600" 
d="M346 -35h-110l-96 391l262 391h110l98 -391zM430 619l-165 -263l53 -263l167 263z" />
    <glyph glyph-name="grave.cap" unicode="&#xe300;" horiz-adv-x="278" 
d="M376 773h-85l-108 145h140z" />
    <glyph glyph-name="acute.cap" unicode="&#xe301;" horiz-adv-x="278" 
d="M316 773h-80l114 145h134z" />
    <glyph glyph-name="circumflex.cap" unicode="&#xe302;" horiz-adv-x="278" 
d="M283 918h103l73 -145h-89l-50 85l-88 -85h-90z" />
    <glyph glyph-name="caron.cap" unicode="&#xe303;" horiz-adv-x="278" 
d="M499 918l-137 -145h-117l-73 145h94l50 -91l90 91h93z" />
    <glyph glyph-name="tilde.cap" unicode="&#xe304;" horiz-adv-x="278" 
d="M124 781q20 57 59.5 90t84.5 33q16 0 31 -5t16 -6l53 -22q4 -2 11.5 -4t20.5 -2q22 0 35.5 13.5t21.5 32.5h51q-9 -27 -21.5 -50t-38.5 -43q-14 -11 -33 -20t-45 -9q-17 0 -29 4t-20 7l-40 16q-8 3 -20.5 6.5t-22.5 3.5q-13 0 -29.5 -8t-32.5 -37h-52z" />
    <glyph glyph-name="dieresis.cap" unicode="&#xe305;" horiz-adv-x="278" 
d="M364 905h102l-25 -118h-102zM192 905h102l-25 -118h-102z" />
    <glyph glyph-name="macron.cap" unicode="&#xe306;" horiz-adv-x="278" 
d="M136 812l15 68h342l-15 -68h-342z" />
    <glyph glyph-name="breve.cap" unicode="&#xe307;" horiz-adv-x="278" 
d="M242 918q-2 -25 4.5 -40.5t18 -24.5t24.5 -12t25 -3q27 0 45.5 8.5t31 21t20.5 26t13 24.5h61q-8 -30 -24 -56t-40 -46t-54.5 -31.5t-67.5 -11.5q-38 0 -67 14t-44 41q-14 24 -12 48.5t5 41.5h61z" />
    <glyph glyph-name="ring.cap" unicode="&#xe308;" horiz-adv-x="278" 
d="M340 948q45 0 66 -30t13 -72q-4 -21 -15.5 -39.5t-28 -32.5t-37 -22t-41.5 -8q-20 0 -37 8t-28.5 21.5t-15.5 32.5t1 40q4 21 16 39.5t29 32.5t37 22t41 8zM330 900q-22 0 -41 -15.5t-24 -38.5q-5 -22 7.5 -37.5t34.5 -15.5q23 0 41.5 15.5t23.5 37.5t-7 38t-35 16z" />
    <glyph glyph-name="hungarumlaut.cap" unicode="&#xe309;" 
d="M362 773h-80l115 145h134zM547 773h-80l115 145h134z" />
    <glyph glyph-name="dotaccent.cap" unicode="&#xe30a;" horiz-adv-x="278" 
d="M280 905h102l-25 -118h-102z" />
    <glyph glyph-name="caron.alt" unicode="&#xe30b;" horiz-adv-x="278" 
d="M377 722l-113 -159h-67l74 159h106z" />
    <glyph glyph-name="commaaccent" unicode="&#xe30c;" horiz-adv-x="278" 
d="M192 -66l-112 -159h-67l73 159h106z" />
    <glyph glyph-name="commaaccent.alt" unicode="&#xe30d;" horiz-adv-x="278" 
d="M194 585l113 159h67l-74 -159h-106z" />
    <glyph glyph-name="uniF8FF" unicode="&#xf8ff;" horiz-adv-x="512" 
d="M222 117v67h56v-67h-56zM225 234l-2 17q0 56 13 81q7 13 18 27.5t28 31.5q32 30 41 47.5t9 35.5q0 36 -22.5 60.5t-53.5 24.5t-53.5 -22t-28.5 -73l-50 8q7 72 44 104.5t91 32.5t89 -35.5t35 -95.5q0 -32 -12.5 -58.5t-50.5 -61.5q-37 -33 -43 -52q-6 -20 -6 -72h-46z
M462 50v617h-412v-617h412zM512 718v-718h-512v718h512z" />
    <glyph glyph-name="i.dot" horiz-adv-x="278" 
d="M213 722h158l-27 -129h-158zM172 506h148l-107 -506h-148z" />
    </font>
</defs>
</svg>
