<?xml version="1.0" standalone="no"?>
<!DOCTYPE svg PUBLIC "-//W3C//DTD SVG 1.1//EN" "http://www.w3.org/Graphics/SVG/1.1/DTD/svg11.dtd" >
<svg xmlns="http://www.w3.org/2000/svg" xmlns:xlink="http://www.w3.org/1999/xlink" version="1.1">
<metadata>
Created by FontForge 20170731 at Thu Mar 26 15:48:12 2009
 By Aleksey,,,
Part of the digitally encoded machine readable outline data for producing the Typefaces provided is copyrighted (c) 2006 - 2007 Linotype GmbH, www.linotype.com. All rights reserved. This software is the property of Linotype GmbH, and may not be reproduced, used, displayed, modified, disclosed or transferred without the express written approval of Linotype GmbH.  Copyright (c) 1987, 1991, 1993, 1994 Adobe Systems Incorporated. All Rights Reserved. Univers is a trademark of Linotype GmbH and may be registered in certain jurisdictions. This typeface is original artwork of Adrian Frutiger. The design may be protected in certain jurisdictions.
</metadata>
<defs>
<font id="UniversforKPMG-LightOblique" horiz-adv-x="556" >
  <font-face 
    font-family="Univers for KPMG Light"
    font-weight="300"
    font-style="oblique"
    font-stretch="normal"
    units-per-em="1000"
    panose-1="2 11 4 3 2 2 2 9 2 4"
    ascent="724"
    descent="-276"
    x-height="502"
    cap-height="722"
    bbox="-151 -250 1144 962"
    underline-thickness="50"
    underline-position="-150"
    slope="-12"
    unicode-range="U+0020-FB02"
  />
<missing-glyph horiz-adv-x="512" 
d="M222 117v67h56v-67h-56zM225 234l-2 17q0 56 13 81q7 13 18 27.5t28 31.5q32 30 41 47.5t9 35.5q0 36 -22.5 60.5t-53.5 24.5t-53.5 -22t-28.5 -73l-50 8q7 72 44 104.5t91 32.5t89 -35.5t35 -95.5q0 -32 -12.5 -58.5t-50.5 -61.5q-37 -33 -43 -52q-6 -20 -6 -72h-46z
M462 50v617h-412v-617h412zM512 718v-718h-512v718h512z" />
    <glyph glyph-name="fi" unicode="fi" 
d="M572 502l-106 -502h-60l106 502h60zM608 647h-70l16 75h70zM123 0l95 447h-101l11 55h101l23 107q14 66 48 95.5t100 29.5q14 0 27.5 -4t26.5 -7l-10 -48q-16 4 -36 4q-31 0 -49.5 -7.5t-29.5 -22t-16.5 -35.5t-9.5 -48l-14 -64h114l-11 -55h-114l-95 -447h-60z" />
    <glyph glyph-name="fl" unicode="fl" 
d="M125 0l95 447h-101l11 55h101l23 107q14 66 48 95.5t100 29.5q14 0 27.5 -4t26.5 -7l-10 -48q-16 4 -36 4q-31 0 -49.5 -7.5t-29.5 -22t-16.5 -35.5t-9.5 -48l-14 -64h114l-11 -55h-114l-95 -447h-60zM470 0h-60l153 722h60z" />
    <glyph glyph-name=".notdef" horiz-adv-x="512" 
d="M222 117v67h56v-67h-56zM225 234l-2 17q0 56 13 81q7 13 18 27.5t28 31.5q32 30 41 47.5t9 35.5q0 36 -22.5 60.5t-53.5 24.5t-53.5 -22t-28.5 -73l-50 8q7 72 44 104.5t91 32.5t89 -35.5t35 -95.5q0 -32 -12.5 -58.5t-50.5 -61.5q-37 -33 -43 -52q-6 -20 -6 -72h-46z
M462 50v617h-412v-617h412zM512 718v-718h-512v718h512z" />
    <glyph glyph-name=".null" horiz-adv-x="0" 
 />
    <glyph glyph-name="nonmarkingreturn" horiz-adv-x="333" 
 />
    <glyph glyph-name="space" unicode=" " horiz-adv-x="278" 
 />
    <glyph glyph-name="exclam" unicode="!" horiz-adv-x="389" 
d="M203 171l104 551h82l-130 -551h-56zM253 86l-18 -86h-80l18 86h80z" />
    <glyph glyph-name="quotedbl" unicode="&#x22;" horiz-adv-x="278" 
d="M211 722h52l-48 -226h-52zM321 722h52l-48 -226h-52z" />
    <glyph glyph-name="numbersign" unicode="#" 
d="M315 423l-51 -137h137l49 137h-135zM616 423h-107l-49 -137h101l-12 -60h-110l-79 -226h-59l79 226h-136l-82 -226h-58l82 226h-109l12 60h118l49 137h-111l13 60h119l77 209h59l-76 -209h135l75 209h59l-76 -209h99z" />
    <glyph glyph-name="dollar" unicode="$" 
d="M310 45q26 2 53.5 11t51.5 25.5t42 40t25 54.5q7 33 -2 54.5t-27 36t-41.5 24t-45.5 18.5zM286 -68h-50l11 53q-33 1 -64.5 9.5t-56 26t-39.5 43t-15 61.5q0 11 1.5 24t5.5 27h70q-3 -11 -4 -20t-1 -17q0 -23 9 -40t25 -28.5t37 -18t45 -7.5l59 275q-16 7 -43 16t-53 26
t-45 43.5t-19 68.5q0 10 1.5 20t3.5 21q8 40 33 75t58.5 61t72 41t73.5 15l10 48h50l-10 -48q37 0 69.5 -11.5t55.5 -33.5t34.5 -55t5.5 -75h-70q6 32 -1.5 54t-23.5 35.5t-38 20t-45 7.5l-58 -275q32 -11 63.5 -22.5t56.5 -29t40.5 -43t15.5 -62.5q0 -10 -1.5 -20.5
t-3.5 -22.5q-10 -49 -36.5 -84.5t-61.5 -59t-76 -34.5t-80 -11zM388 647q-24 0 -49 -9.5t-46 -26.5t-37 -41t-22 -54q-6 -29 0.5 -49.5t21 -35.5t35 -25t42.5 -17z" />
    <glyph glyph-name="percent" unicode="%" horiz-adv-x="1000" 
d="M417 662q-29 0 -52 -13.5t-39.5 -34.5t-27 -46.5t-15.5 -49.5q-5 -25 -5 -48q0 -19 4 -36t13 -30.5t24 -21.5t37 -8q29 0 52 13.5t39.5 34.5t27.5 46.5t16 49.5q5 25 5 46q0 19 -4 37t-13.5 31.5t-24.5 21.5t-37 8zM861 707l-540 -707h-58l540 707h58zM427 707
q31 0 54.5 -11t39 -29.5t23 -44t7.5 -54.5q0 -12 -1 -24.5t-4 -25.5q-8 -37 -26 -71t-44 -60.5t-59 -42t-71 -15.5q-31 0 -54.5 11t-39 29.5t-23 44t-7.5 54.5q0 24 6 50q8 37 26 71t43.5 60.5t58.5 42t71 15.5zM800 363q31 0 54.5 -10.5t39 -29.5t23 -44t7.5 -54
q0 -24 -6 -51q-8 -37 -26 -71t-43.5 -60.5t-58.5 -42t-71 -15.5q-31 0 -54.5 11t-39 29.5t-23 44t-7.5 54.5q0 12 1 24.5t4 25.5q8 37 26 71t44 60.5t59 42t71 15.5zM790 318q-29 0 -52 -13.5t-39.5 -34.5t-27.5 -46.5t-16 -49.5q-5 -25 -5 -46q0 -19 4 -37t13.5 -31.5
t24.5 -21.5t37 -8q29 0 52 13.5t39.5 34.5t27 46.5t15.5 49.5q5 25 5 48q0 19 -4 36t-13 30.5t-24 21.5t-37 8z" />
    <glyph glyph-name="ampersand" unicode="&#x26;" horiz-adv-x="722" 
d="M352 385q-72 -36 -122.5 -80.5t-64.5 -107.5q-2 -10 -3 -19.5t-1 -17.5q0 -33 13 -55t34.5 -35.5t48.5 -19t54 -5.5q61 0 116 24t103 69zM388 458q54 31 90 63.5t46 80.5q5 21 0.5 36.5t-15.5 25.5t-27 14.5t-34 4.5t-36.5 -5t-34.5 -15.5t-28 -27t-17 -38.5
q-7 -34 10.5 -68t45.5 -71zM325 425q-27 38 -45 70.5t-18 70.5q0 15 3 30q8 39 28.5 66t48 43.5t58.5 24t61 7.5q26 0 50 -5.5t42.5 -17t29.5 -30.5t11 -46q0 -17 -4 -32q-7 -33 -24 -59.5t-40.5 -49t-52 -41.5t-58.5 -37l163 -225q39 57 63.5 124t40.5 143h68
q-8 -35 -20 -74.5t-29 -81t-39 -81.5t-50 -75l106 -149h-93l-66 96q-57 -54 -125.5 -82.5t-144.5 -28.5q-96 0 -149.5 39t-53.5 115q0 24 6 51q9 41 31 75.5t53 63t69.5 52.5t79.5 44z" />
    <glyph glyph-name="quotesingle" unicode="'" horiz-adv-x="278" 
d="M266 722h52l-48 -226h-52z" />
    <glyph glyph-name="parenleft" unicode="(" horiz-adv-x="278" 
d="M162 -96q-11 68 -22.5 137t-11.5 141q0 32 3 65t11 66q11 53 31.5 105t47 103.5t56.5 101.5t60 99h50q-63 -103 -109 -207.5t-66 -201.5q-10 -46 -14 -94.5t-4 -96.5q0 -59 5 -114.5t14 -103.5h-51z" />
    <glyph glyph-name="parenright" unicode=")" horiz-adv-x="278" 
d="M23 -96q27 44 53.5 94.5t50 103.5t42 106.5t29.5 104.5q10 46 14.5 94t4.5 98q0 108 -20 217h50q12 -67 23 -136t11 -141q0 -68 -13 -132q-12 -54 -33 -106t-47 -103t-55.5 -101t-58.5 -99h-51z" />
    <glyph glyph-name="asterisk" unicode="*" 
d="M403 586l96 136l45 -28l-115 -127l146 12l-13 -58l-139 11l58 -129l-58 -27l-35 138l-98 -140l-44 29l114 128l-146 -10l13 58l142 -12l-64 126l59 29z" />
    <glyph glyph-name="plus" unicode="+" horiz-adv-x="660" 
d="M406 502h60l-47 -221h220l-13 -60h-220l-46 -221h-60l46 221h-220l13 60h220z" />
    <glyph glyph-name="comma" unicode="," horiz-adv-x="278" 
d="M200 81l-116 -205h-52l87 205h81z" />
    <glyph glyph-name="hyphen" unicode="-" horiz-adv-x="278" 
d="M76 297h252l-13 -60h-252z" />
    <glyph glyph-name="period" unicode="." horiz-adv-x="278" 
d="M99 0l18 86h80l-18 -86h-80z" />
    <glyph glyph-name="slash" unicode="/" horiz-adv-x="278" 
d="M389 722h65l-435 -818h-62z" />
    <glyph glyph-name="zero" unicode="0" 
d="M415 647q-55 0 -94 -32.5t-65.5 -79.5t-41.5 -98.5t-23 -90.5q-6 -30 -12 -69t-6 -78q0 -30 5 -58t18 -49.5t35 -34t56 -12.5q55 0 94 32.5t65 79.5t41.5 98.5t23.5 90.5q6 30 12 69t6 78q0 30 -5 58t-18 49.5t-35 34t-56 12.5zM428 707q49 0 82.5 -15.5t53 -43t28 -64.5
t8.5 -80q0 -38 -5.5 -77.5t-13.5 -80.5q-14 -66 -37 -130.5t-59.5 -116t-88 -83t-122.5 -31.5q-50 0 -83 15.5t-52.5 43t-28 64.5t-8.5 80q0 38 5.5 77.5t13.5 80.5q14 66 37 130.5t59.5 116t88 83t122.5 31.5z" />
    <glyph glyph-name="one" unicode="1" 
d="M239 583q49 18 95 46.5t88 62.5h62l-147 -692h-65l132 622q-42 -33 -87 -58.5t-91 -45.5z" />
    <glyph glyph-name="two" unicode="2" 
d="M50 0l14 68q117 88 215.5 166.5t161.5 150.5q61 71 76 139q4 16 4 33q0 25 -9 42t-25 27.5t-37 15.5t-46 5q-31 0 -59 -10t-50.5 -28.5t-38 -44t-21.5 -55.5h-70q10 46 34 82.5t58 62t75.5 39.5t86.5 14q36 0 68 -7.5t55.5 -24t37 -42t13.5 -61.5q0 -10 -1.5 -21
t-3.5 -23q-9 -43 -35 -85t-65 -87q-34 -38 -75 -75.5t-86.5 -75t-93 -74t-93.5 -71.5h357l-12 -60h-435z" />
    <glyph glyph-name="three" unicode="3" 
d="M308 392q8 -1 14.5 -1.5t14.5 -0.5q30 0 61 7.5t57 24t45 41t26 59.5q6 30 -1.5 53.5t-25 39t-43.5 24t-56 8.5q-66 0 -112 -33t-66 -93h-70q9 44 34.5 78.5t60.5 58.5t76 36.5t81 12.5q39 0 74.5 -8.5t62.5 -26t43 -45.5t16 -67q0 -22 -4 -42q-7 -32 -24 -58t-40 -46
t-51.5 -33t-59.5 -19v-2q54 -12 86.5 -47t32.5 -89q0 -20 -4 -39q-11 -49 -39.5 -86t-67.5 -62.5t-84.5 -38.5t-88.5 -13q-41 0 -75.5 9.5t-60 29t-40 49t-14.5 68.5q0 22 4 42h70q-6 -32 2 -57.5t26 -43.5t44 -27.5t56 -9.5q34 0 66.5 9t59.5 27.5t46.5 46t27.5 65.5
q2 8 3 16t1 16q0 28 -11.5 48t-31 33t-45.5 19t-54 6h-18t-18 -2z" />
    <glyph glyph-name="four" unicode="4" 
d="M381 161h-325l13 63l404 468h86l-102 -477h111l-11 -54h-111l-34 -161h-65zM480 627h-2l-356 -412h270z" />
    <glyph glyph-name="five" unicode="5" 
d="M239 692h381l-13 -60h-319l-64 -247l2 -2q36 34 77.5 53.5t89.5 19.5q41 0 72.5 -13.5t52.5 -36.5t32 -54.5t11 -68.5q0 -28 -6 -58q-11 -50 -35.5 -93.5t-60 -76t-80.5 -51.5t-97 -19q-39 0 -73.5 8.5t-60 26t-40 45t-14.5 65.5q0 9 1 19t3 21h70q-5 -31 2 -54.5
t23.5 -39t40.5 -23.5t54 -8q40 0 73.5 14.5t58.5 39.5t41.5 58t24.5 71q6 27 6 51q0 54 -30.5 85.5t-94.5 31.5q-25 0 -49.5 -7.5t-46.5 -21t-39.5 -33t-27.5 -43.5h-67z" />
    <glyph glyph-name="six" unicode="6" 
d="M379 394q-41 0 -75.5 -14t-61.5 -39t-45 -58t-26 -72q-2 -9 -3 -18.5t-1 -18.5q0 -27 8.5 -50.5t25 -41t39.5 -27.5t52 -10q39 0 71 13t56.5 36t41.5 54t25 68q6 28 6 56q0 25 -6 47.5t-19.5 39t-35 26t-52.5 9.5zM447 707q37 0 68.5 -8.5t54 -25t35.5 -42.5t13 -60
q0 -21 -4 -41h-70q8 54 -22.5 85.5t-84.5 31.5q-62 0 -105 -30.5t-72.5 -76.5t-46.5 -100.5t-27 -103.5h2q35 57 90 85t116 28q43 0 75 -12t53 -34t31.5 -52t10.5 -67q0 -15 -1.5 -31t-5.5 -33q-11 -50 -35 -92.5t-58.5 -74.5t-79 -50t-95.5 -18q-54 0 -91 15.5t-59.5 43
t-32.5 65t-10 80.5q0 59 15 122q14 66 37 136.5t61 128t96 94.5t142 37z" />
    <glyph glyph-name="seven" unicode="7" 
d="M626 634l-403 -634h-76l411 632h-373l13 60h441z" />
    <glyph glyph-name="eight" unicode="8" 
d="M270 361q-52 5 -81 40.5t-29 86.5q0 16 3 33q10 48 37 83t64 58t79.5 34t84.5 11q37 0 71 -9t60.5 -27t42 -45.5t15.5 -64.5q0 -21 -4 -40q-14 -63 -62 -104.5t-111 -55.5v-1q56 -15 86.5 -47.5t30.5 -83.5q0 -10 -1.5 -20t-3.5 -21q-11 -53 -39.5 -91t-67 -63t-83.5 -37
t-88 -12q-39 0 -74.5 9.5t-63 29t-43.5 49t-16 70.5q0 11 1.5 22t3.5 23q7 33 24 61.5t41.5 50.5t55.5 37t67 22v2zM228 521q-2 -8 -3 -15.5t-1 -14.5q0 -50 38 -75t99 -25q34 0 65 8t56 24.5t42 41t24 56.5q3 15 3 29q0 27 -11.5 46.5t-30 32t-43 18t-50.5 5.5
q-29 0 -59 -7.5t-56.5 -23t-46 -40.5t-26.5 -60zM152 188q-4 -16 -4 -33q0 -29 11 -49.5t30 -34t44.5 -20t53.5 -6.5q32 0 63.5 8.5t58 26t46 44.5t27.5 64q4 16 4 34q0 28 -11 48.5t-30 34t-44 20t-53 6.5q-32 0 -63.5 -8.5t-58.5 -26t-46.5 -44.5t-27.5 -64z" />
    <glyph glyph-name="nine" unicode="9" 
d="M404 647q-38 0 -69.5 -13t-55.5 -36.5t-40 -54.5t-23 -67q-5 -25 -5 -42q0 -52 31 -82.5t89 -30.5q36 0 69 12t60 34t46 52t27 66q2 10 3 18.5t1 17.5q0 57 -35 91.5t-98 34.5zM153 170q-3 -17 -3 -30q0 -52 34.5 -73.5t91.5 -21.5q39 0 71 17t57.5 44.5t44.5 62.5
t33 71.5t23.5 71t15.5 60.5h-2q-37 -51 -91.5 -78.5t-114.5 -27.5q-81 0 -126.5 45.5t-45.5 118.5q0 24 6 51q10 49 34.5 90.5t60 71.5t80 47t94.5 17q54 0 90.5 -15.5t58.5 -43t31.5 -64.5t9.5 -80q0 -33 -4.5 -68t-12.5 -71q-15 -70 -39.5 -138t-64.5 -122t-98.5 -87
t-141.5 -33t-123.5 40.5t-40.5 109.5v17t2 18h70z" />
    <glyph glyph-name="colon" unicode=":" horiz-adv-x="278" 
d="M285 502l-18 -86h-80l18 86h80zM197 86l-18 -86h-80l18 86h80z" />
    <glyph glyph-name="semicolon" unicode=";" horiz-adv-x="278" 
d="M219 81l-116 -205h-52l87 205h81zM293 502l-18 -86h-80l18 86h80z" />
    <glyph glyph-name="less" unicode="&#x3c;" horiz-adv-x="660" 
d="M591 54l-14 -64l-450 235l12 53l547 223l-14 -64l-460 -186z" />
    <glyph glyph-name="equal" unicode="=" horiz-adv-x="660" 
d="M647 318h-500l13 60h500zM606 124h-500l13 60h500z" />
    <glyph glyph-name="greater" unicode="&#x3e;" horiz-adv-x="660" 
d="M175 448l13 64l450 -235l-11 -53l-547 -223l13 64l461 186z" />
    <glyph glyph-name="question" unicode="?" horiz-adv-x="500" 
d="M209 169l23 108q6 24 24.5 45t43.5 41.5t53.5 41.5t53.5 44t44.5 49t26.5 58q7 35 -2 58.5t-28.5 37.5t-47.5 19.5t-59 5.5q-24 0 -48.5 -4t-48.5 -11l13 61q29 8 57 11t56 3q37 0 69.5 -8.5t56.5 -25.5t38 -43t14 -61q0 -10 -1.5 -20t-3.5 -21q-7 -32 -20.5 -56.5
t-32 -46t-41.5 -41t-48 -39.5q-33 -28 -54 -44.5t-34 -29.5t-19.5 -26.5t-9.5 -35.5l-15 -70h-60zM262 86l-18 -86h-80l18 86h80z" />
    <glyph glyph-name="at" unicode="@" horiz-adv-x="800" 
d="M318 290q-4 -18 -2.5 -35t8.5 -30t19.5 -21t31.5 -8q34 0 70 28t66.5 68t53 84.5t29.5 77.5q6 29 -8.5 50t-44.5 21q-40 0 -77 -24t-67 -59.5t-51 -76.5t-28 -75zM674 566h66l-164 -300q-10 -18 -17 -33t-7 -26q0 -18 25 -18q31 0 64 22.5t62.5 57t51 76.5t29.5 82
q3 15 5 29.5t2 28.5q0 47 -18 84.5t-49 63.5t-73 40t-91 14q-69 0 -132.5 -26.5t-114.5 -71.5t-87 -105t-51 -127q-8 -38 -8 -71q0 -54 18 -100t51.5 -79.5t81 -52.5t105.5 -19q78 0 155 34.5t137 100.5h58q-33 -43 -75 -77.5t-89.5 -58.5t-97.5 -36.5t-99 -12.5
q-69 0 -125 22.5t-96 62.5t-61.5 94.5t-21.5 117.5q0 40 9 82q16 77 60.5 145t106 118.5t135.5 80t149 29.5q63 0 115 -18.5t89.5 -51.5t58 -79t20.5 -101q0 -15 -2 -30.5t-5 -32.5q-13 -59 -45.5 -111.5t-74 -92.5t-87.5 -63t-86 -23q-26 0 -49 12.5t-25 39.5
q-28 -23 -63 -36.5t-67 -13.5q-54 0 -81.5 31.5t-27.5 80.5q0 9 1 18t3 19q10 50 39 103t71 97t93.5 72t106.5 28q35 0 62 -16.5t35 -48.5z" />
    <glyph glyph-name="A" unicode="A" horiz-adv-x="667" 
d="M542 255l-70 407l-245 -407h315zM9 0l439 722h76l135 -722h-71l-36 195h-359l-117 -195h-67z" />
    <glyph glyph-name="B" unicode="B" horiz-adv-x="667" 
d="M177 60h159q46 -1 84 5.5t66.5 23t47.5 44t28 69.5q2 11 3.5 20t1.5 18q0 33 -16 53.5t-43.5 32t-66 15t-83.5 3.5h-120zM407 404q32 0 63.5 6.5t58.5 22t46.5 40.5t27.5 62q2 9 3 17.5t1 16.5q0 28 -12.5 46.5t-33.5 28.5t-47.5 14t-54.5 4h-154l-55 -258h157zM100 0
l153 722l259 -1q36 0 66 -9t52.5 -27t35 -44t12.5 -60q0 -21 -4 -40q-6 -30 -22 -56.5t-38.5 -48t-50 -36.5t-57.5 -22l-1 -2q62 -11 96.5 -45.5t34.5 -93.5q0 -11 -1.5 -21.5t-3.5 -22.5q-8 -36 -27 -70.5t-50 -61.5t-75.5 -44t-103.5 -17h-275z" />
    <glyph glyph-name="C" unicode="C" horiz-adv-x="667" 
d="M659 553q3 33 -7.5 56.5t-31 38.5t-48 22t-57.5 7q-69 0 -121.5 -28.5t-90 -74t-61 -102t-35.5 -111.5q-12 -53 -12 -107q0 -42 9.5 -80t31 -66.5t57 -45.5t88.5 -17q30 0 60.5 7.5t58.5 23.5t50.5 40.5t36.5 58.5h70q-18 -45 -49 -80.5t-70 -60t-83 -37t-87 -12.5
q-65 0 -111.5 19.5t-76 54t-43.5 81.5t-14 102t14 119q16 74 48.5 142t81 120t114 83t147.5 31q40 0 77 -9t65 -27.5t44.5 -48t16.5 -69.5v-15t-2 -15h-70z" />
    <glyph glyph-name="D" unicode="D" horiz-adv-x="722" 
d="M314 60q76 0 135 21.5t102 61t71 95t42 123.5q11 52 11 91q0 112 -73 162.5t-204 47.5h-102l-128 -602h146zM439 722q151 0 229 -63t78 -190q0 -50 -12 -108q-38 -179 -154 -270t-294 -91h-195l153 722h195z" />
    <glyph glyph-name="E" unicode="E" horiz-adv-x="611" 
d="M102 0l153 722h429l-13 -60h-364l-55 -259h350l-13 -60h-350l-60 -283h379l-12 -60h-444z" />
    <glyph glyph-name="F" unicode="F" 
d="M95 0l153 722h408l-13 -60h-343l-54 -255h331l-13 -60h-331l-73 -347h-65z" />
    <glyph glyph-name="G" unicode="G" horiz-adv-x="722" 
d="M709 368l-72 -338q-71 -26 -131 -35.5t-126 -9.5q-64 0 -111.5 18t-79 52t-47.5 81.5t-16 106.5q0 53 14 118q15 70 48 137.5t82.5 120.5t114.5 85.5t143 32.5q49 0 91 -12t71 -36.5t43 -60.5t8 -84h-74q4 34 -6 59t-30.5 41.5t-50 24.5t-65.5 8q-65 0 -116 -28.5
t-89 -73.5t-63 -101.5t-37 -112.5q-6 -29 -9.5 -55.5t-3.5 -51.5q0 -47 12.5 -85.5t39 -66t67.5 -42.5t99 -15q42 0 86.5 6.5t79.5 20.5l50 236h-181l13 60h246z" />
    <glyph glyph-name="H" unicode="H" horiz-adv-x="722" 
d="M99 0l153 722h65l-67 -317h394l67 317h65l-153 -722h-65l73 345h-394l-73 -345h-65z" />
    <glyph glyph-name="I" unicode="I" horiz-adv-x="278" 
d="M107 0l153 722h65l-153 -722h-65z" />
    <glyph glyph-name="J" unicode="J" horiz-adv-x="500" 
d="M120 178q-3 -21 -3 -38q0 -45 24 -70t81 -25q40 0 69.5 15t50 40t33 57.5t19.5 67.5l106 497h65l-106 -500q-10 -45 -28.5 -87.5t-49.5 -76t-75.5 -53.5t-105.5 -20q-42 0 -71.5 11t-47.5 30.5t-26.5 46.5t-8.5 59q0 11 1 22.5t3 23.5h70z" />
    <glyph glyph-name="K" unicode="K" horiz-adv-x="611" 
d="M106 0l153 722h64l-67 -318l391 318h82l-402 -326l279 -396h-89l-266 377l-81 -377h-64z" />
    <glyph glyph-name="L" unicode="L" 
d="M100 0l153 722h65l-141 -662h363l-12 -60h-428z" />
    <glyph glyph-name="M" unicode="M" horiz-adv-x="944" 
d="M97 0l153 722h104l137 -629l411 629h99l-153 -722h-65l141 667h-2l-417 -667h-65l-135 664h-2l-141 -664h-65z" />
    <glyph glyph-name="N" unicode="N" horiz-adv-x="722" 
d="M245 722h74l263 -635h2l135 635h65l-153 -722h-82l-258 624h-2l-132 -624h-65z" />
    <glyph glyph-name="O" unicode="O" horiz-adv-x="778" 
d="M213 361q-10 -47 -10 -97q0 -45 10.5 -85t33.5 -69.5t60.5 -47t90.5 -17.5q67 0 121 27t94 71.5t66 101.5t38 116q5 26 8.5 51t3.5 49q0 45 -11 84t-34.5 68.5t-61 46.5t-90.5 17q-68 0 -121.5 -27t-93 -71.5t-65.5 -101.5t-39 -116zM787 361q-18 -84 -54 -153.5
t-87.5 -119t-117 -76.5t-143.5 -27q-63 0 -111 18.5t-80 52t-48 81.5t-16 108q0 27 3 56t10 60q18 84 54 153.5t87.5 119t117 76.5t143.5 27q63 0 111 -18.5t80 -52t48 -81.5t16 -108q0 -27 -3 -56t-10 -60z" />
    <glyph glyph-name="P" unicode="P" horiz-adv-x="611" 
d="M244 374h158q36 0 71 6.5t63.5 23t49.5 44.5t30 70q4 19 4 38q0 31 -12.5 51.5t-34 32.5t-50 17t-60.5 5h-158zM100 0l153 722h181q47 1 93.5 -4.5t83 -23t59 -48.5t22.5 -79q0 -22 -6 -49q-14 -65 -49 -105t-82 -62.5t-101.5 -30t-106.5 -6.5h-116l-66 -314h-65z" />
    <glyph glyph-name="Q" unicode="Q" horiz-adv-x="778" 
d="M591 0h-45h-39.5t-34.5 -2q-16 -5 -39.5 -9t-47.5 -4q-63 0 -111 18.5t-80 52t-48 81.5t-16 108q0 27 3 56t10 60q18 84 54 153.5t87.5 119t117 76.5t143.5 27q63 0 111 -18.5t80 -52t48 -81.5t16 -108q0 -27 -3 -56t-10 -60q-9 -44 -28 -89t-46 -86t-62 -75t-77 -56
l2 -2q38 4 86 5.5t88 1.5l-12 -60h-147zM213 361q-10 -47 -10 -97q0 -45 10.5 -85t33.5 -69.5t60.5 -47t90.5 -17.5q67 0 121 27t94 71.5t66 101.5t38 116q5 26 8.5 51t3.5 49q0 45 -11 84t-34.5 68.5t-61 46.5t-90.5 17q-68 0 -121.5 -27t-93 -71.5t-65.5 -101.5t-39 -116z
" />
    <glyph glyph-name="R" unicode="R" horiz-adv-x="667" 
d="M392 404q35 0 72 3t69.5 15.5t57.5 38.5t35 72q4 17 4 36q0 33 -14 51.5t-35 27.5t-46.5 11.5t-49.5 2.5h-31h-146l-55 -258h139zM168 0h-65l153 722h236q48 0 87 -6t75 -32q48 -35 48 -100q0 -24 -6 -51q-13 -60 -59.5 -99.5t-112.5 -55.5l-1 -2q54 -10 72 -40t18 -75
q0 -22 -3 -46q-6 -56 -11.5 -95t-5.5 -67q0 -16 2 -29t8 -24h-75q-3 22 -3 46q0 26 2.5 52t6.5 52q4 34 6.5 60.5t2.5 46.5q0 27 -5.5 43.5t-19.5 26.5t-38 13.5t-60 3.5h-179z" />
    <glyph glyph-name="S" unicode="S" horiz-adv-x="611" 
d="M594 193q-12 -54 -41.5 -93t-70 -64.5t-90 -38t-101.5 -12.5q-42 0 -78.5 9t-63.5 28t-42 48.5t-15 70.5q0 19 5 47h70q-2 -10 -3 -18.5t-1 -16.5q0 -31 12 -52t33 -33.5t49.5 -17.5t60.5 -5q30 0 63 8t61.5 25t50 44t29.5 65q3 15 3 29q0 24 -11 41.5t-30.5 31t-48 24
t-62.5 22.5q-42 14 -76.5 29t-59.5 33.5t-38.5 43.5t-13.5 58q0 18 5 43q10 47 37.5 83.5t65 61t81.5 37.5t87 13q39 0 75.5 -6t64 -22t44.5 -43.5t17 -69.5v-15.5t-2 -15.5h-70q6 33 -4 55t-29.5 34.5t-46 17.5t-54.5 5q-29 0 -60 -7.5t-58.5 -22.5t-48 -39t-27.5 -57
q-3 -17 -3 -30q0 -27 12.5 -46t33 -33t47 -24t55.5 -20q34 -13 68.5 -26t61.5 -31t44 -44t17 -65q0 -20 -4 -39z" />
    <glyph glyph-name="T" unicode="T" 
d="M387 662h-233l13 60h528l-13 -60h-229l-141 -662h-64z" />
    <glyph glyph-name="U" unicode="U" horiz-adv-x="722" 
d="M315 722l-99 -467q-2 -14 -3.5 -27.5t-1.5 -26.5q0 -75 41 -115.5t118 -40.5q91 0 155 55t89 155l99 467h65l-100 -468q-13 -59 -40 -108t-67.5 -85t-94 -56t-119.5 -20q-56 0 -96 14t-66.5 40t-39 62.5t-12.5 80.5q0 37 7 72l100 468h65z" />
    <glyph glyph-name="V" unicode="V" horiz-adv-x="611" 
d="M322 65h2l369 657h65l-414 -722h-74l-111 722h71z" />
    <glyph glyph-name="W" unicode="W" horiz-adv-x="1000" 
d="M290 0h-92l-35 722h69l28 -657h2l351 657h79l80 -657h2l307 657h63l-343 -722h-89l-74 655h-2z" />
    <glyph glyph-name="X" unicode="X" horiz-adv-x="611" 
d="M82 0h-74l336 372l-170 350h85l139 -304l277 304h73l-324 -350l179 -372h-83l-151 323z" />
    <glyph glyph-name="Y" unicode="Y" horiz-adv-x="611" 
d="M340 312l-179 410h83l147 -349l295 349h70l-351 -408l-66 -314h-65z" />
    <glyph glyph-name="Z" unicode="Z" 
d="M39 0l12 60l529 602h-401l13 60h478l-13 -60l-530 -602h402l-12 -60h-478z" />
    <glyph glyph-name="bracketleft" unicode="[" horiz-adv-x="278" 
d="M64 -96l174 818h137l-11 -50h-72l-152 -718h72l-11 -50h-137z" />
    <glyph glyph-name="backslash" unicode="\" horiz-adv-x="278" 
d="M109 722h65l149 -722h-65z" />
    <glyph glyph-name="bracketright" unicode="]" horiz-adv-x="278" 
d="M346 722l-174 -818h-137l11 50h72l152 718h-72l11 50h137z" />
    <glyph glyph-name="asciicircum" unicode="^" horiz-adv-x="660" 
d="M124 239l327 453h52l134 -453h-57l-117 392l-281 -392h-58z" />
    <glyph glyph-name="underscore" unicode="_" horiz-adv-x="500" 
d="M-26 -124l12 56h499l-12 -56h-499z" />
    <glyph glyph-name="grave" unicode="`" horiz-adv-x="278" 
d="M250 707l60 -143h-44l-96 143h80z" />
    <glyph glyph-name="a" unicode="a" horiz-adv-x="500" 
d="M130 140q-5 -26 0 -44.5t18 -31t32 -18.5t42 -6q44 0 76 15t54.5 40t36.5 58t22 68q2 8 3.5 17t3.5 17q-9 2 -18.5 2h-20.5h-31q-33 0 -68 -5t-66 -17.5t-53.5 -35.5t-30.5 -59zM439 354q2 9 3 17t1 16q0 42 -27 58.5t-73 16.5q-47 0 -86 -18t-56 -69h-64q28 78 86.5 110
t131.5 32q71 0 110.5 -26t39.5 -86q0 -22 -6 -49l-51 -243q-8 -29 -12 -58t-7 -55h-62l13 74h-2l-4 -7q-23 -32 -67.5 -57t-107.5 -25q-60 0 -99 31t-39 88q0 19 4 36q11 51 46.5 87.5t84.5 54.5q55 20 116.5 23t116.5 3z" />
    <glyph glyph-name="b" unicode="b" 
d="M390 462q-44 0 -78.5 -17t-60 -45t-42 -64.5t-24.5 -74.5q-9 -42 -9 -80q0 -30 7 -56t22.5 -44.5t41 -29.5t62.5 -11q43 0 75.5 21t55.5 53t37.5 70.5t21.5 73.5q8 37 8 69q0 27 -6 51.5t-20 43t-36 29.5t-55 11zM127 0h-62q7 26 14.5 55t14.5 58l129 609h60l-63 -294
l2 -2q36 45 88 68t103 23q44 0 74.5 -14t49 -38.5t27 -57t8.5 -69.5q0 -42 -9 -85q-10 -47 -31.5 -95t-54 -86.5t-76 -62.5t-98.5 -24t-94.5 24t-60.5 69l-3 -4z" />
    <glyph glyph-name="c" unicode="c" horiz-adv-x="500" 
d="M470 348q9 58 -20 86t-92 28q-35 0 -66 -17t-56.5 -45.5t-44 -66.5t-27.5 -81q-4 -17 -5.5 -34t-1.5 -33q0 -31 7 -57.5t21 -46t35 -30.5t48 -11q60 0 103.5 32.5t58.5 84.5h65q-61 -172 -233 -172q-45 0 -77.5 15t-53.5 40.5t-31 60t-10 73.5q0 38 9 77q11 51 35 99
t60 85t82.5 59.5t102.5 22.5q34 0 63.5 -9t50.5 -26.5t33 -42.5t12 -58q0 -15 -3 -33h-65z" />
    <glyph glyph-name="d" unicode="d" 
d="M479 263q3 17 5 32.5t2 30.5q0 28 -7 53t-22 43.5t-39 29t-58 10.5q-42 0 -75 -18t-57 -47t-39.5 -65t-22.5 -72q-5 -20 -7.5 -42t-2.5 -44q0 -26 5 -50.5t17 -43t32.5 -29.5t50.5 -11q49 0 86 19t63 50t43 71t26 83zM441 74l-1 4q-42 -45 -90 -69t-102 -24q-44 0 -74 15
t-48.5 40.5t-27 58.5t-8.5 70q0 42 9 84q10 49 31 96t54 84.5t77 60.5t100 23q51 0 93.5 -23t59.5 -68l2 2l63 294h60l-129 -609q-7 -29 -11 -58t-8 -55h-62z" />
    <glyph glyph-name="e" unicode="e" 
d="M165 237q-3 -16 -5 -31t-2 -29q0 -30 8 -55t24.5 -43t43 -28.5t63.5 -10.5q27 0 52.5 9t48 25t40.5 38t30 48h63q-43 -91 -108.5 -133t-156.5 -42q-45 0 -77.5 15t-53.5 40.5t-31 60t-10 73.5q0 38 9 77q11 51 35 99t60 85t82.5 59.5t102.5 22.5q49 0 83.5 -13.5
t56.5 -37.5t31.5 -57.5t9.5 -73.5q0 -43 -11 -98h-388zM500 292q3 19 3 36q0 29 -7.5 53.5t-23.5 42.5t-40.5 28t-58.5 10q-37 0 -68 -14t-55.5 -38t-42.5 -54.5t-28 -63.5h321z" />
    <glyph glyph-name="f" unicode="f" horiz-adv-x="333" 
d="M123 0l95 447h-101l11 55h101l23 107q14 66 53.5 95.5t105.5 29.5q11 0 21 -1t23 -4l-11 -53q-17 3 -36 3q-31 0 -49.5 -7.5t-29.5 -22t-16.5 -35.5t-9.5 -48l-14 -64h114l-11 -55h-114l-95 -447h-60z" />
    <glyph glyph-name="g" unicode="g" 
d="M481 262q6 27 6 55q0 29 -7 55t-22 46t-38.5 32t-56.5 12q-41 0 -74.5 -18.5t-58.5 -48t-41.5 -65.5t-23.5 -70q-3 -14 -5 -29t-2 -30q0 -28 6.5 -54t21 -46t37.5 -32t56 -12q43 0 77 18t59 47.5t41.5 66t24.5 73.5zM535 502h62q-7 -26 -15 -55t-14 -58l-64 -301
q-8 -37 -17 -75t-25.5 -72t-44 -62.5t-73.5 -47.5q-33 -14 -58.5 -18.5t-60.5 -4.5q-34 0 -68 6.5t-59.5 22t-38.5 41.5t-5 65h65q-2 -23 8.5 -38t28.5 -24.5t41 -13.5t47 -4q30 0 59 10t53.5 28t43 43.5t26.5 57.5l20 94h-2q-16 -22 -37.5 -39.5t-45.5 -29.5t-50 -18.5
t-50 -6.5q-46 0 -78.5 13t-53 36t-30 54.5t-9.5 69.5t9 80q11 51 33 98.5t55 83.5t78.5 58t102.5 22q55 0 90 -24t56 -69l2 4z" />
    <glyph glyph-name="h" unicode="h" 
d="M230 426h2q36 48 81.5 69.5t94.5 21.5q44 0 71.5 -12.5t43.5 -32t21.5 -44t5.5 -48.5q0 -19 -2.5 -36t-5.5 -30l-66 -314h-60l68 324q2 11 3.5 21t1.5 20q0 47 -27.5 72t-79.5 25q-37 0 -67.5 -14.5t-53.5 -38.5t-38 -55t-22 -65l-61 -289h-60l153 722h60z" />
    <glyph glyph-name="i" unicode="i" horiz-adv-x="222" 
d="M247 502l-106 -502h-60l106 502h60zM283 647h-70l16 75h70z" />
    <glyph glyph-name="j" unicode="j" horiz-adv-x="222" 
d="M-26 -137q33 0 50 5.5t26.5 22t16 46.5t17.5 80l103 485h60l-111 -524q-11 -48 -20.5 -81.5t-26.5 -53.5t-46.5 -28.5t-79.5 -6.5zM283 647h-70l16 75h70z" />
    <glyph glyph-name="k" unicode="k" horiz-adv-x="500" 
d="M209 297l286 205h77l-300 -217l214 -285h-76l-207 272l-57 -272h-60l153 722h60z" />
    <glyph glyph-name="l" unicode="l" horiz-adv-x="222" 
d="M141 0h-60l153 722h60z" />
    <glyph glyph-name="m" unicode="m" horiz-adv-x="889" 
d="M229 428l2 -2q36 48 81.5 69.5t94.5 21.5q60 0 97 -29.5t43 -80.5q19 22 41 42t47 35t52 24t56 9q44 0 71.5 -12.5t43.5 -32t21.5 -44t5.5 -48.5q0 -19 -2.5 -36t-5.5 -30l-66 -314h-60l68 324q2 11 3.5 21t1.5 20q0 47 -27.5 72t-79.5 25q-37 0 -67.5 -14.5t-53.5 -38.5
t-38 -55t-22 -65l-61 -289h-60l68 324q2 11 3.5 21t1.5 20q0 47 -27.5 72t-79.5 25q-37 0 -67.5 -14.5t-53.5 -38.5t-38 -55t-22 -65l-61 -289h-60l82 389q6 29 10.5 58t8.5 55h62z" />
    <glyph glyph-name="n" unicode="n" 
d="M140 0h-60l82 389q6 29 10.5 58t8.5 55h62l-13 -74l2 -2q36 48 81.5 69.5t94.5 21.5q44 0 71.5 -12.5t43.5 -32t21.5 -44t5.5 -48.5q0 -19 -2.5 -36t-5.5 -30l-66 -314h-60l68 324q2 11 3.5 21t1.5 20q0 47 -27.5 72t-79.5 25q-37 0 -67.5 -14.5t-53.5 -38.5t-38 -55
t-22 -65z" />
    <glyph glyph-name="o" unicode="o" 
d="M500 251q6 28 6 60q0 29 -6.5 56.5t-22 48.5t-40.5 33.5t-61 12.5q-45 0 -81.5 -20t-63.5 -50.5t-44.5 -68t-24.5 -72.5q-3 -14 -5 -29t-2 -30q0 -29 7 -56.5t23 -48.5t40.5 -34t60.5 -13q46 0 82 20t63 50.5t44 68t25 72.5zM387 517q49 0 84.5 -15.5t57.5 -42.5
t32.5 -62.5t10.5 -75.5q0 -36 -7 -70q-11 -50 -35 -97.5t-61 -85t-86 -60.5t-109 -23q-49 0 -84 15.5t-57.5 42t-33 62t-10.5 74.5q0 34 8 72q10 49 34.5 97t61 85.5t85.5 60.5t109 23z" />
    <glyph glyph-name="p" unicode="p" 
d="M185 263q-9 -41 -9 -80q0 -30 7 -56t22.5 -45.5t41 -30.5t62.5 -11q43 0 75.5 21.5t55.5 54t37.5 71t22.5 73.5q3 17 5 33.5t2 33.5q0 27 -6 51.5t-19.5 43t-36 29.5t-55.5 11q-44 0 -78.5 -17t-60 -44.5t-42 -63.5t-24.5 -74zM89 -192h-60l123 581q7 29 11 58t8 55h62
l-13 -74l2 -2q36 45 88 68t103 23q44 0 74.5 -14t49 -38.5t27 -57t8.5 -69.5q0 -42 -9 -85q-10 -47 -31.5 -95t-54 -86.5t-76 -62.5t-98.5 -24t-94.5 24t-60.5 69h-2z" />
    <glyph glyph-name="q" unicode="q" 
d="M481 263q3 17 5 32.5t2 30.5q0 28 -7 53t-22 43.5t-39 29t-58 10.5q-42 0 -75.5 -18t-58 -47t-40 -65t-22.5 -72q-5 -20 -7.5 -41t-2.5 -42q0 -27 5 -51.5t17.5 -43.5t33 -30.5t51.5 -11.5q49 0 86 19t63 50t43 71t26 83zM535 502h62q-7 -26 -15 -55t-14 -58l-123 -580
h-60l57 269h-2q-42 -45 -91 -69t-104 -24q-43 0 -72.5 15t-48 40t-26.5 58.5t-8 69.5q0 43 9 85q10 49 31 96t54 84.5t77 60.5t100 23q51 0 93.5 -23t59.5 -66v-3h2v3z" />
    <glyph glyph-name="r" unicode="r" horiz-adv-x="333" 
d="M140 0h-60l82 389q7 29 12 58t7 55h62l-13 -74h2q22 38 62.5 63.5t91.5 25.5q15 0 23.5 -0.5t14.5 -2.5l-12 -56q-15 4 -36 4q-67 0 -111 -44t-61 -116z" />
    <glyph glyph-name="s" unicode="s" horiz-adv-x="500" 
d="M143 377q8 39 30 65.5t51.5 43t64 24t67.5 7.5q36 0 66.5 -7t51.5 -23t31 -42.5t5 -66.5h-65q3 24 -4.5 40t-22.5 25.5t-35.5 14t-43.5 4.5q-21 0 -42.5 -4.5t-39.5 -14t-31 -25t-18 -37.5q-6 -28 8 -42.5t43 -24.5t70 -20t88 -28q36 -14 52.5 -44.5t7.5 -72.5t-33.5 -73
t-58.5 -51.5t-74 -30t-80 -9.5q-30 0 -58.5 6.5t-51 20.5t-36 37t-13.5 56q0 15 3 32h65q-4 -28 4.5 -46.5t25 -30t39.5 -16t49 -4.5q24 0 48.5 6t45.5 18t36.5 31t21.5 45q6 27 -4 44t-30.5 27.5t-47.5 17t-55 13.5q-25 6 -49 13.5t-43 19.5t-30.5 29.5t-11.5 43.5
q0 7 1 14t3 15z" />
    <glyph glyph-name="t" unicode="t" horiz-adv-x="333" 
d="M218 447h-100l11 55h100l23 107l65 26l-28 -133h114l-11 -55h-114l-72 -336q-17 -71 54 -71q14 0 27 1t26 5l-11 -52q-15 -4 -31.5 -6.5t-31.5 -2.5q-30 0 -49.5 5.5t-30.5 15t-15.5 23t-4.5 28.5q0 18 4 38t8 39z" />
    <glyph glyph-name="u" unicode="u" 
d="M522 502h60l-82 -389q-7 -29 -11 -58t-8 -55h-62l12 74l-1 2q-37 -48 -82.5 -69.5t-94.5 -21.5q-44 0 -71.5 12.5t-43 32.5t-21 44t-5.5 48q0 19 2.5 36t4.5 30l67 314h60l-69 -324q-2 -11 -3.5 -21t-1.5 -20q0 -47 28 -72t80 -25q37 0 67.5 14.5t53.5 38.5t38 55t22 65z
" />
    <glyph glyph-name="v" unicode="v" horiz-adv-x="500" 
d="M191 502l78 -423l257 423h66l-313 -502h-60l-99 502h71z" />
    <glyph glyph-name="w" unicode="w" horiz-adv-x="833" 
d="M248 79h2l242 423h71l59 -419h2l234 419h66l-293 -502h-57l-62 433h-2l-249 -433h-61l-78 502h66z" />
    <glyph glyph-name="x" unicode="x" horiz-adv-x="500" 
d="M504 502h69l-231 -243l141 -259h-79l-114 215l-201 -215h-72l2 2l246 255l-133 245h80l105 -205z" />
    <glyph glyph-name="y" unicode="y" horiz-adv-x="500" 
d="M187 502l82 -426l255 426h65l-424 -694h-66l117 192l-102 502h73z" />
    <glyph glyph-name="z" unicode="z" horiz-adv-x="444" 
d="M51 55l377 392h-293l11 55h364l-11 -55l-375 -392h291l-11 -55h-364z" />
    <glyph glyph-name="braceleft" unicode="{" horiz-adv-x="278" 
d="M227 -96h-50q-15 1 -29 9t-23.5 22t-13.5 33.5t1 44.5l31 143q4 18 6 33t2 29q0 28 -12 45t-41 21l12 55q47 5 67 39.5t32 90.5l31 144q5 25 17.5 45t28 33.5t33 21t32.5 9.5h50l-11 -50h-33q-20 -5 -34 -22.5t-22 -52.5l-30 -143q-7 -36 -21.5 -61.5t-29.5 -42t-28 -26
t-16 -12.5q2 -2 8.5 -8t13.5 -18t12.5 -29t5.5 -41q0 -10 -1 -21t-4 -24l-30 -142q-4 -17 -4 -33q0 -19 7 -28.5t21 -13.5h33z" />
    <glyph glyph-name="bar" unicode="|" horiz-adv-x="222" 
d="M240 750h60l-213 -1000h-60z" />
    <glyph glyph-name="braceright" unicode="}" horiz-adv-x="278" 
d="M183 722h50q15 -2 29 -10t23.5 -21.5t13.5 -33t-1 -44.5l-31 -143q-4 -19 -6.5 -35t-2.5 -30q0 -27 12 -43.5t42 -20.5l-12 -55q-47 -5 -67.5 -39.5t-31.5 -89.5l-31 -144q-5 -25 -17.5 -44.5t-28 -33.5t-33 -22t-32.5 -9h-50l11 50h33q20 5 34 22.5t22 52.5l30 143
q7 36 21.5 61.5t29.5 42t28 26t16 12.5q-2 2 -8.5 8t-13.5 17.5t-12.5 29t-5.5 41.5q0 10 1 21.5t4 23.5l30 142q4 17 4 33q0 19 -7 28.5t-21 13.5h-33z" />
    <glyph glyph-name="asciitilde" unicode="~" horiz-adv-x="660" 
d="M288 319q27 0 55 -11t55 -25t51 -25t44 -11q17 0 33.5 8.5t32 21.5t28.5 28t23 29l33 -34q-15 -20 -33 -39.5t-38.5 -35t-43.5 -25t-48 -9.5q-14 0 -31 4.5t-34 11.5t-33 14t-28 12q-18 8 -36.5 19.5t-40.5 11.5q-20 0 -38 -9.5t-34.5 -23.5t-30.5 -30.5t-26 -31.5
l-23 47q15 16 32 34t37.5 33.5t43.5 25.5t50 10z" />
    <glyph glyph-name="uni00A0" unicode="&#xa0;" horiz-adv-x="278" 
 />
    <glyph glyph-name="exclamdown" unicode="&#xa1;" horiz-adv-x="389" 
d="M350 542l-19 -86h-80l19 86h80zM301 371l-104 -551h-82l130 551h56z" />
    <glyph glyph-name="cent" unicode="&#xa2;" 
d="M410 460q-8 1 -14 1.5t-14 0.5q-35 0 -66 -17t-56.5 -45.5t-44 -66.5t-27.5 -81q-4 -17 -5.5 -34t-1.5 -33q0 -36 9 -65.5t29 -48.5zM498 639h44l-66 -134q39 -15 62.5 -46.5t23.5 -78.5q0 -16 -3 -32h-65q13 76 -45 102l-197 -402q21 -8 40 -8q60 0 103.5 32.5
t58.5 84.5h65q-61 -172 -233 -172q-36 0 -61 9l-63 -127h-45l72 144q-39 24 -56.5 66.5t-17.5 95.5q0 19 1.5 38.5t6.5 39.5q11 51 35 99t60 85t82.5 59.5t102.5 22.5q19 0 34 -3z" />
    <glyph glyph-name="sterling" unicode="&#xa3;" 
d="M60 0l12 60h60l67 312h-74l12 60h75q9 55 26.5 104.5t49 87.5t81 60.5t121.5 22.5q37 0 69 -9.5t53.5 -27.5t31 -45t2.5 -61h-70q7 39 -23 61t-84 22q-39 0 -69.5 -13.5t-53 -36.5t-38 -55t-23.5 -68l-9 -42h162l-12 -60h-162l-67 -312h320l-12 -60h-445z" />
    <glyph glyph-name="currency" unicode="&#xa4;" 
d="M107 152q-11 23 -17 46t-6 48t6 54q10 45 28.5 80t51.5 71l-33 43l63 53l35 -43q39 26 80.5 37.5t83.5 11.5t74.5 -13t61.5 -36l53 43l41 -53l-53 -43q22 -45 22 -93q0 -31 -7 -63q-9 -42 -28 -75t-50 -68l34 -42l-63 -53l-35 43q-80 -50 -166 -50q-42 0 -74 13.5
t-60 36.5l-53 -43l-41 53zM301 120q37 0 73.5 14t66.5 39t52 58.5t30 71.5q3 16 3 34q0 30 -10 57t-28.5 47t-44.5 31.5t-59 10.5q-39 1 -76 -13t-68 -39t-52 -58.5t-28 -72.5q-4 -17 -4 -37q0 -30 11 -56t30 -45.5t45.5 -30.5t58.5 -11z" />
    <glyph glyph-name="yen" unicode="&#xa5;" 
d="M247 0l31 146h-203l10 50h203l15 70h-203l11 50h201l-164 376h83l128 -330l273 330h70l-322 -376h199l-11 -50h-200l-15 -70h200l-10 -50h-200l-31 -146h-65z" />
    <glyph glyph-name="brokenbar" unicode="&#xa6;" horiz-adv-x="222" 
d="M118 175h60l-75 -350h-60zM224 675h60l-74 -350h-60z" />
    <glyph glyph-name="section" unicode="&#xa7;" 
d="M357 461q-17 -9 -33.5 -18t-31 -19.5t-25 -25t-14.5 -33.5q-4 -18 4 -31t22 -23t30 -16.5t27 -12.5q16 8 35 16.5t35.5 19t29 24.5t16.5 34t-5.5 32.5t-25.5 21.5t-34 16t-30 15zM545 663q-8 4 -20.5 7.5t-26 6t-26.5 4t-22 1.5q-19 0 -40 -3.5t-40 -12.5t-33.5 -24
t-19.5 -38q-6 -26 8.5 -43t39.5 -30.5t55 -25.5t54.5 -27.5t38.5 -36.5t7 -53q-5 -22 -18.5 -41t-32 -34.5t-39.5 -27t-41 -19.5q20 -9 38 -20t30 -26t17 -35t-1 -46q-9 -41 -32 -70t-53.5 -47.5t-67 -27.5t-72.5 -9q-32 0 -64 5.5t-60 16.5l12 57q28 -13 56.5 -18.5
t62.5 -5.5q23 0 47.5 5t46 16.5t37.5 30.5t22 46t-10.5 43t-43.5 27.5t-59.5 22t-59 26t-41.5 39.5t-7 63q4 22 18 41t33 34t40.5 26.5t41.5 19.5q-17 10 -31.5 21.5t-24.5 26t-14 32.5t1 41q8 38 29 64t49.5 42t61.5 23t65 7q26 0 51.5 -6t49.5 -13z" />
    <glyph glyph-name="dieresis" unicode="&#xa8;" horiz-adv-x="278" 
d="M325 645l16 78h67l-16 -78h-67zM158 645l16 78h67l-16 -78h-67z" />
    <glyph glyph-name="copyright" unicode="&#xa9;" horiz-adv-x="800" 
d="M397 -15q-68 0 -124 22.5t-96.5 62.5t-63 94.5t-22.5 118.5q0 38 9 79q16 77 60.5 145.5t106.5 119.5t137 80.5t153 29.5q68 0 124 -22.5t95.5 -62.5t61.5 -94.5t22 -117.5q0 -19 -1.5 -38.5t-6.5 -39.5q-17 -78 -61 -146.5t-105.5 -120t-136 -81t-152.5 -29.5zM160 362
q-5 -20 -6.5 -38.5t-1.5 -36.5q0 -54 18 -99t52 -76.5t81.5 -49t106.5 -17.5q69 0 131.5 23.5t113.5 65.5t86.5 100.5t50.5 127.5q5 20 6.5 38.5t1.5 36.5q0 54 -18 98t-51.5 75.5t-81 49t-105.5 17.5q-69 0 -132 -23.5t-114 -65.5t-87 -99.5t-51 -126.5zM653 294
q-10 -34 -31.5 -61t-49 -46t-59.5 -29t-64 -10q-80 0 -124 45.5t-44 117.5q0 25 6 54q10 46 32.5 85.5t55 68.5t74 45t89.5 16q34 0 61.5 -9.5t47 -27.5t29.5 -44.5t8 -60.5h-55q0 40 -28 66t-73 26q-37 0 -67.5 -13.5t-53 -36t-38 -52.5t-22.5 -62q-4 -19 -4 -41
q0 -26 6.5 -49t21 -40t36.5 -27.5t53 -10.5q45 0 83.5 27t54.5 69h55z" />
    <glyph glyph-name="ordfeminine" unicode="&#xaa;" horiz-adv-x="300" 
d="M353 572q-19 -1 -46 -1t-53 -4.5t-46.5 -17t-26.5 -38.5q-7 -31 9 -42t46 -11t51 10t35 26.5t22 37t12 42.5h-2zM367 639q5 37 -10.5 47.5t-49.5 10.5q-28 0 -50.5 -7.5t-34.5 -37.5h-46q17 47 55 66t85 19q46 0 72.5 -17t26.5 -54q0 -7 -1 -13.5t-3 -14.5l-35 -165
q-2 -12 -3 -23.5t-3 -22.5h-46l6 40h-2q-15 -19 -45 -34t-63 -15q-45 0 -71.5 24t-17.5 69q7 31 30 53.5t55 33.5q35 12 73.5 12t72.5 2z" />
    <glyph glyph-name="guillemotleft" unicode="&#xab;" 
d="M537 462l-135 -195l51 -195h-50l-65 195l148 195h51zM357 462l-135 -195l51 -195h-50l-65 195l148 195h51z" />
    <glyph glyph-name="logicalnot" unicode="&#xac;" horiz-adv-x="660" 
d="M587 318h-440l13 60h500l-57 -266h-60z" />
    <glyph glyph-name="uni00AD" unicode="&#xad;" horiz-adv-x="278" 
d="M76 297h252l-13 -60h-252z" />
    <glyph glyph-name="registered" unicode="&#xae;" horiz-adv-x="800" 
d="M397 -15q-68 0 -124 22.5t-96.5 62.5t-63 94.5t-22.5 118.5q0 38 9 79q16 77 60.5 145.5t106.5 119.5t137 80.5t153 29.5q68 0 124 -22.5t95.5 -62.5t61.5 -94.5t22 -117.5q0 -19 -1.5 -38.5t-6.5 -39.5q-17 -78 -61 -146.5t-105.5 -120t-136 -81t-152.5 -29.5zM410 45
q69 0 131.5 23.5t113.5 65.5t86.5 100.5t50.5 127.5q5 20 6.5 38.5t1.5 36.5q0 54 -18 98t-51.5 75.5t-81 49t-105.5 17.5q-69 0 -132 -23.5t-114 -65.5t-87 -99.5t-51 -126.5q-5 -20 -6.5 -38.5t-1.5 -36.5q0 -54 18 -99t52 -76.5t81.5 -49t106.5 -17.5zM346 149h-55
l92 430h185q70 0 99.5 -20.5t29.5 -61.5q0 -15 -5 -37q-6 -31 -21 -53t-36 -36.5t-47 -21.5t-54 -9l87 -191h-62l-80 191h-92zM473 390h37q19 0 39 2t36.5 9t29 21.5t17.5 38.5q5 22 -0.5 35.5t-18.5 21t-31 9.5t-37 2h-118l-30 -139h76z" />
    <glyph glyph-name="macron" unicode="&#xaf;" horiz-adv-x="278" 
d="M149 623l11 50h245l-11 -50h-245z" />
    <glyph glyph-name="degree" unicode="&#xb0;" horiz-adv-x="400" 
d="M468 557q-7 -31 -24.5 -58.5t-42.5 -47.5t-54.5 -32t-60.5 -12q-27 0 -49.5 9t-38.5 24.5t-25 37t-9 46.5q0 18 4 33q6 31 23.5 58t42.5 47.5t55 32.5t61 12q55 0 88 -34.5t33 -85.5q0 -15 -3 -30zM213 557q-10 -46 13.5 -75.5t69.5 -29.5q22 0 43 8t38 22t29 33t17 42
q10 45 -14 75t-70 30q-22 0 -43 -8t-38 -22t-29 -33.5t-16 -41.5z" />
    <glyph glyph-name="plusminus" unicode="&#xb1;" horiz-adv-x="660" 
d="M406 502h60l-36 -172h220l-13 -60h-220l-36 -170h-60l36 170h-220l13 60h220zM92 60h500l-12 -60h-500z" />
    <glyph glyph-name="twosuperior" unicode="&#xb2;" horiz-adv-x="333" 
d="M93 283l8 41q17 12 43.5 32t56 44t60 51t56 53t43 50t21.5 43q6 28 -12.5 45t-54.5 17q-42 0 -70.5 -21.5t-34.5 -49.5h-48q6 28 21.5 50t37.5 37.5t49 23.5t56 8q27 0 50 -6.5t38.5 -20t22 -33.5t0.5 -47q-8 -36 -40.5 -75.5t-73 -76.5t-79.5 -67.5t-60 -49.5h202
l-10 -48h-282z" />
    <glyph glyph-name="threesuperior" unicode="&#xb3;" horiz-adv-x="333" 
d="M257 524q21 -2 42.5 1t39.5 11.5t31 23.5t18 37q6 27 -15.5 44.5t-61.5 17.5q-43 0 -68 -17.5t-36 -44.5h-54q6 26 22 46.5t38.5 34.5t49 21.5t52.5 7.5q29 0 54.5 -6.5t43.5 -20t26.5 -34.5t2.5 -51q-8 -38 -40.5 -62t-71.5 -32v-2q42 -8 63.5 -35t12.5 -69
q-6 -29 -24 -51t-43 -37t-54.5 -22.5t-57.5 -7.5q-30 0 -55 7t-42 21.5t-24.5 36.5t-1.5 52h54q-5 -30 17.5 -49.5t61.5 -19.5q45 0 77 19.5t40 55.5q5 24 -2 40t-22.5 25t-37 11.5t-45.5 -0.5z" />
    <glyph glyph-name="acute" unicode="&#xb4;" horiz-adv-x="278" 
d="M408 707l-158 -143h-44l122 143h80z" />
    <glyph glyph-name="mu" unicode="&#xb5;" 
d="M522 502h60l-82 -389q-7 -29 -11 -58t-8 -55h-62l12 74l-1 2q-37 -48 -82.5 -69.5t-94.5 -21.5q-29 0 -57 7t-54 18l-43 -202h-60l147 694h60l-69 -324q-2 -11 -3.5 -21t-1.5 -20q0 -47 28 -72t80 -25q37 0 67.5 14.5t53.5 38.5t38 55t22 65z" />
    <glyph glyph-name="paragraph" unicode="&#xb6;" horiz-adv-x="650" 
d="M329 336q-34 0 -62.5 11.5t-49.5 32t-32.5 48.5t-11.5 61q0 9 1 18.5t3 18.5q20 96 89.5 146t175.5 50h217l-185 -868h-65l172 808h-118l-172 -808h-65z" />
    <glyph glyph-name="periodcentered" unicode="&#xb7;" horiz-adv-x="278" 
d="M223 208h-80l18 86h80z" />
    <glyph glyph-name="cedilla" unicode="&#xb8;" horiz-adv-x="278" 
d="M12 -144q37 -12 72 -12q22 0 43 7.5t26 33.5q4 22 -11 29t-33 7h-14.5t-15.5 -2l47 86h23l-27 -55q19 0 36.5 -2.5t30.5 -9.5t19 -19t2 -31q-5 -21 -20 -35t-34 -22t-39 -11t-35 -3q-46 0 -82 11z" />
    <glyph glyph-name="onesuperior" unicode="&#xb9;" horiz-adv-x="333" 
d="M236 283l76 361q-26 -20 -55 -35t-60 -27l10 45q32 11 62 28t56 37h49l-87 -409h-51z" />
    <glyph glyph-name="ordmasculine" unicode="&#xba;" horiz-adv-x="334" 
d="M187 578q-2 -8 -3 -16.5t-1 -16.5q0 -35 19 -61t62 -26q26 0 47.5 11t37.5 28t26.5 38.5t15.5 42.5q3 15 3 31q0 34 -18 61t-61 27q-26 0 -48 -11t-38.5 -28t-27 -38t-14.5 -42zM323 737q33 0 56 -9.5t37.5 -26t21.5 -38.5t7 -46q0 -22 -4 -39q-6 -30 -21.5 -59
t-39 -51.5t-55 -36t-70.5 -13.5q-33 0 -56 9.5t-37.5 26t-21.5 38.5t-7 46q0 10 1 20t3 20q6 30 21.5 58.5t39 51t55 36t70.5 13.5z" />
    <glyph glyph-name="guillemotright" unicode="&#xbb;" 
d="M132 72l134 195l-50 195h50l64 -195l-147 -195h-51zM312 72l134 195l-50 195h50l64 -195l-147 -195h-51z" />
    <glyph glyph-name="onequarter" unicode="&#xbc;" horiz-adv-x="834" 
d="M646 97h-212l7 31l262 287h62l-58 -270h63l-10 -48h-63l-20 -97h-51zM237 0h-55l567 707h53zM702 358h-2l-186 -213h142zM268 283l76 361q-26 -20 -55 -35t-60 -27l10 45q32 11 62 28t56 37h49l-87 -409h-51z" />
    <glyph glyph-name="onehalf" unicode="&#xbd;" horiz-adv-x="834" 
d="M237 0h-55l567 707h53zM268 283l76 361q-26 -20 -55 -35t-60 -27l10 45q32 11 62 28t56 37h49l-87 -409h-51zM503 0l8 41q17 12 43 32t56 44t60.5 51t56 53t43 50t21.5 43q6 28 -13 45t-55 17q-42 0 -70 -21.5t-34 -49.5h-48q6 28 21.5 50t37.5 37.5t49 23.5t56 8
q27 0 50 -6.5t38.5 -20t22 -33.5t0.5 -47q-8 -36 -40.5 -75.5t-73 -76.5t-79.5 -67.5t-60 -49.5h202l-10 -48h-282z" />
    <glyph glyph-name="threequarters" unicode="&#xbe;" horiz-adv-x="834" 
d="M646 97h-212l7 31l262 287h62l-58 -270h63l-10 -48h-63l-20 -97h-51zM237 0h-55l567 707h53zM702 358h-2l-186 -213h142zM257 524q21 -2 42.5 1t39.5 11.5t31 23.5t18 37q6 27 -15.5 44.5t-61.5 17.5q-43 0 -68 -17.5t-36 -44.5h-54q6 26 22 46.5t38.5 34.5t49 21.5
t52.5 7.5q29 0 54.5 -6.5t43.5 -20t26.5 -34.5t2.5 -51q-8 -38 -40.5 -62t-71.5 -32v-2q42 -8 63.5 -35t12.5 -69q-6 -29 -24 -51t-43 -37t-54.5 -22.5t-57.5 -7.5q-30 0 -55 7t-42 21.5t-24.5 36.5t-1.5 52h54q-5 -30 17.5 -49.5t61.5 -19.5q45 0 77 19.5t40 55.5
q5 24 -2 40t-22.5 25t-37 11.5t-45.5 -0.5z" />
    <glyph glyph-name="questiondown" unicode="&#xbf;" horiz-adv-x="500" 
d="M404 376l-23 -108q-6 -24 -24.5 -45t-43.5 -41.5t-53 -41.5t-53.5 -44t-44.5 -49.5t-26 -57.5q-4 -15 -4 -31q0 -26 11.5 -43t31 -27.5t45 -15t52.5 -4.5q24 0 49 4t49 11l-13 -61q-29 -8 -57 -11t-56 -3q-37 0 -69.5 8.5t-56.5 25.5t-38 43t-14 61q0 10 1.5 20t3.5 21
q7 31 20.5 56t32 46.5t41 41t48.5 39.5q32 28 53.5 44.5t34.5 29.5t19.5 26.5t9.5 35.5l14 70h60zM450 542l-19 -86h-80l19 86h80z" />
    <glyph glyph-name="Agrave" unicode="&#xc0;" horiz-adv-x="667" 
d="M542 255l-70 407l-245 -407h315zM9 0l439 722h76l135 -722h-71l-36 195h-359l-117 -195h-67zM492 927l60 -143h-44l-96 143h80z" />
    <glyph glyph-name="Aacute" unicode="&#xc1;" horiz-adv-x="667" 
d="M542 255l-70 407l-245 -407h315zM9 0l439 722h76l135 -722h-71l-36 195h-359l-117 -195h-67zM650 927l-158 -143h-44l122 143h80z" />
    <glyph glyph-name="Acircumflex" unicode="&#xc2;" horiz-adv-x="667" 
d="M542 255l-70 407l-245 -407h315zM9 0l439 722h76l135 -722h-71l-36 195h-359l-117 -195h-67zM495 927h73l68 -145h-47l-67 106l-112 -106h-46z" />
    <glyph glyph-name="Atilde" unicode="&#xc3;" horiz-adv-x="667" 
d="M542 255l-70 407l-245 -407h315zM9 0l439 722h76l135 -722h-71l-36 195h-359l-117 -195h-67zM666 915q-15 -34 -43 -59.5t-66 -25.5q-11 0 -21.5 3t-21.5 8q-10 4 -22.5 7t-28.5 3q-15 0 -30.5 -7t-23.5 -22h-38q18 42 50.5 64.5t74.5 15.5q7 -1 17 -4t21 -7q11 -3 21 -6
t16 -3q17 0 32.5 8.5t24.5 24.5h38z" />
    <glyph glyph-name="Adieresis" unicode="&#xc4;" horiz-adv-x="667" 
d="M542 255l-70 407l-245 -407h315zM9 0l439 722h76l135 -722h-71l-36 195h-359l-117 -195h-67zM562 839l19 88h74l-19 -88h-74zM388 839l19 88h74l-19 -88h-74z" />
    <glyph glyph-name="Aring" unicode="&#xc5;" horiz-adv-x="667" 
d="M542 255l-70 407l-245 -407h315zM9 0l439 722h76l135 -722h-71l-36 195h-359l-117 -195h-67zM427 869q4 19 15 36t26 29.5t33 20t37 7.5t34.5 -7.5t25.5 -20t14 -29.5t0 -36t-15 -35.5t-26.5 -29t-34 -20t-37.5 -7.5q-38 0 -59 27t-13 65zM575 869q5 23 -8 39.5t-36 16.5
t-43 -16.5t-25 -39.5t8 -39.5t36 -16.5t43 16.5t25 39.5z" />
    <glyph glyph-name="AE" unicode="&#xc6;" horiz-adv-x="1000" 
d="M1078 722l-13 -60h-389l-12 -259h328l-13 -60h-319l-13 -283h299l-12 -60h-356l7 196h-350l-155 -196h-72l571 722h499zM282 256h308l17 406h-2z" />
    <glyph glyph-name="Ccedilla" unicode="&#xc7;" horiz-adv-x="667" 
d="M234 -144q37 -12 72 -12q22 0 43 7.5t26 33.5q4 22 -11 29t-33 7h-14.5t-15.5 -2l37 69q-57 5 -98 26.5t-66.5 55t-37.5 78t-12 95.5q0 28 3 57.5t10 60.5q16 74 48.5 142t81 120t114 83t147.5 31q40 0 77 -9t65 -27.5t44.5 -48t16.5 -69.5v-15t-2 -15h-70
q3 33 -7.5 56.5t-31 38.5t-48 22t-57.5 7q-69 0 -121.5 -28.5t-90 -74t-61 -102t-35.5 -111.5q-12 -53 -12 -107q0 -42 9.5 -80t31 -66.5t57 -45.5t88.5 -17q30 0 60.5 7.5t58.5 23.5t50.5 40.5t36.5 58.5h70q-18 -45 -49 -80.5t-69.5 -59.5t-82 -36.5t-87.5 -12.5h-8
l-17 -36q19 0 36.5 -2.5t30.5 -9.5t19 -19t2 -31q-5 -21 -20 -35t-34 -22t-39 -11t-35 -3q-45 0 -83 11z" />
    <glyph glyph-name="Egrave" unicode="&#xc8;" horiz-adv-x="611" 
d="M102 0l153 722h429l-13 -60h-364l-55 -259h350l-13 -60h-350l-60 -283h379l-12 -60h-444zM464 927l60 -143h-44l-96 143h80z" />
    <glyph glyph-name="Eacute" unicode="&#xc9;" horiz-adv-x="611" 
d="M102 0l153 722h429l-13 -60h-364l-55 -259h350l-13 -60h-350l-60 -283h379l-12 -60h-444zM622 927l-158 -143h-44l122 143h80z" />
    <glyph glyph-name="Ecircumflex" unicode="&#xca;" horiz-adv-x="611" 
d="M102 0l153 722h429l-13 -60h-364l-55 -259h350l-13 -60h-350l-60 -283h379l-12 -60h-444zM467 927h73l68 -145h-47l-67 106l-112 -106h-46z" />
    <glyph glyph-name="Edieresis" unicode="&#xcb;" horiz-adv-x="611" 
d="M102 0l153 722h429l-13 -60h-364l-55 -259h350l-13 -60h-350l-60 -283h379l-12 -60h-444zM534 839l19 88h74l-19 -88h-74zM360 839l19 88h74l-19 -88h-74z" />
    <glyph glyph-name="Igrave" unicode="&#xcc;" horiz-adv-x="278" 
d="M107 0l153 722h65l-153 -722h-65zM297 927l60 -143h-44l-96 143h80z" />
    <glyph glyph-name="Iacute" unicode="&#xcd;" horiz-adv-x="278" 
d="M107 0l153 722h65l-153 -722h-65zM455 927l-158 -143h-44l122 143h80z" />
    <glyph glyph-name="Icircumflex" unicode="&#xce;" horiz-adv-x="278" 
d="M107 0l153 722h65l-153 -722h-65zM300 927h73l68 -145h-47l-67 106l-112 -106h-46z" />
    <glyph glyph-name="Idieresis" unicode="&#xcf;" horiz-adv-x="278" 
d="M107 0l153 722h65l-153 -722h-65zM364 824l19 88h74l-19 -88h-74zM190 824l19 88h74l-19 -88h-74z" />
    <glyph glyph-name="Eth" unicode="&#xd0;" horiz-adv-x="722" 
d="M245 420h216l-10 -45h-216l-67 -315h146q76 0 135 21.5t102 61t71 95t42 123.5q11 52 11 91q0 112 -73 162.5t-204 47.5h-102zM170 375h-68l10 45h68l64 302h195q151 0 229 -63t78 -190q0 -50 -12 -108q-38 -179 -154 -270t-294 -91h-195z" />
    <glyph glyph-name="Ntilde" unicode="&#xd1;" horiz-adv-x="722" 
d="M245 722h74l263 -635h2l135 635h65l-153 -722h-82l-258 624h-2l-132 -624h-65zM693 915q-15 -34 -43 -59.5t-66 -25.5q-11 0 -21.5 3t-21.5 8q-10 4 -22.5 7t-28.5 3q-15 0 -30.5 -7t-23.5 -22h-38q18 42 50.5 64.5t74.5 15.5q7 -1 17 -4t21 -7q11 -3 21 -6t16 -3
q17 0 32.5 8.5t24.5 24.5h38z" />
    <glyph glyph-name="Ograve" unicode="&#xd2;" horiz-adv-x="778" 
d="M213 361q-10 -47 -10 -97q0 -45 10.5 -85t33.5 -69.5t60.5 -47t90.5 -17.5q67 0 121 27t94 71.5t66 101.5t38 116q5 26 8.5 51t3.5 49q0 45 -11 84t-34.5 68.5t-61 46.5t-90.5 17q-68 0 -121.5 -27t-93 -71.5t-65.5 -101.5t-39 -116zM787 361q-18 -84 -54 -153.5
t-87.5 -119t-117 -76.5t-143.5 -27q-63 0 -111 18.5t-80 52t-48 81.5t-16 108q0 27 3 56t10 60q18 84 54 153.5t87.5 119t117 76.5t143.5 27q63 0 111 -18.5t80 -52t48 -81.5t16 -108q0 -27 -3 -56t-10 -60zM547 927l60 -143h-44l-96 143h80z" />
    <glyph glyph-name="Oacute" unicode="&#xd3;" horiz-adv-x="778" 
d="M213 361q-10 -47 -10 -97q0 -45 10.5 -85t33.5 -69.5t60.5 -47t90.5 -17.5q67 0 121 27t94 71.5t66 101.5t38 116q5 26 8.5 51t3.5 49q0 45 -11 84t-34.5 68.5t-61 46.5t-90.5 17q-68 0 -121.5 -27t-93 -71.5t-65.5 -101.5t-39 -116zM787 361q-18 -84 -54 -153.5
t-87.5 -119t-117 -76.5t-143.5 -27q-63 0 -111 18.5t-80 52t-48 81.5t-16 108q0 27 3 56t10 60q18 84 54 153.5t87.5 119t117 76.5t143.5 27q63 0 111 -18.5t80 -52t48 -81.5t16 -108q0 -27 -3 -56t-10 -60zM705 927l-158 -143h-44l122 143h80z" />
    <glyph glyph-name="Ocircumflex" unicode="&#xd4;" horiz-adv-x="778" 
d="M213 361q-10 -47 -10 -97q0 -45 10.5 -85t33.5 -69.5t60.5 -47t90.5 -17.5q67 0 121 27t94 71.5t66 101.5t38 116q5 26 8.5 51t3.5 49q0 45 -11 84t-34.5 68.5t-61 46.5t-90.5 17q-68 0 -121.5 -27t-93 -71.5t-65.5 -101.5t-39 -116zM787 361q-18 -84 -54 -153.5
t-87.5 -119t-117 -76.5t-143.5 -27q-63 0 -111 18.5t-80 52t-48 81.5t-16 108q0 27 3 56t10 60q18 84 54 153.5t87.5 119t117 76.5t143.5 27q63 0 111 -18.5t80 -52t48 -81.5t16 -108q0 -27 -3 -56t-10 -60zM550 927h73l68 -145h-47l-67 106l-112 -106h-46z" />
    <glyph glyph-name="Otilde" unicode="&#xd5;" horiz-adv-x="778" 
d="M213 361q-10 -47 -10 -97q0 -45 10.5 -85t33.5 -69.5t60.5 -47t90.5 -17.5q67 0 121 27t94 71.5t66 101.5t38 116q5 26 8.5 51t3.5 49q0 45 -11 84t-34.5 68.5t-61 46.5t-90.5 17q-68 0 -121.5 -27t-93 -71.5t-65.5 -101.5t-39 -116zM787 361q-18 -84 -54 -153.5
t-87.5 -119t-117 -76.5t-143.5 -27q-63 0 -111 18.5t-80 52t-48 81.5t-16 108q0 27 3 56t10 60q18 84 54 153.5t87.5 119t117 76.5t143.5 27q63 0 111 -18.5t80 -52t48 -81.5t16 -108q0 -27 -3 -56t-10 -60zM721 915q-15 -34 -43 -59.5t-66 -25.5q-11 0 -21.5 3t-21.5 8
q-10 4 -22.5 7t-28.5 3q-15 0 -30.5 -7t-23.5 -22h-38q18 42 50.5 64.5t74.5 15.5q7 -1 17 -4t21 -7q11 -3 21 -6t16 -3q17 0 32.5 8.5t24.5 24.5h38z" />
    <glyph glyph-name="Odieresis" unicode="&#xd6;" horiz-adv-x="778" 
d="M213 361q-10 -47 -10 -97q0 -45 10.5 -85t33.5 -69.5t60.5 -47t90.5 -17.5q67 0 121 27t94 71.5t66 101.5t38 116q5 26 8.5 51t3.5 49q0 45 -11 84t-34.5 68.5t-61 46.5t-90.5 17q-68 0 -121.5 -27t-93 -71.5t-65.5 -101.5t-39 -116zM787 361q-18 -84 -54 -153.5
t-87.5 -119t-117 -76.5t-143.5 -27q-63 0 -111 18.5t-80 52t-48 81.5t-16 108q0 27 3 56t10 60q18 84 54 153.5t87.5 119t117 76.5t143.5 27q63 0 111 -18.5t80 -52t48 -81.5t16 -108q0 -27 -3 -56t-10 -60zM617 839l19 88h74l-19 -88h-74zM443 839l19 88h74l-19 -88h-74z
" />
    <glyph glyph-name="multiply" unicode="&#xd7;" horiz-adv-x="660" 
d="M118 6l-30 36l259 211l-169 211l45 38l169 -212l257 212l29 -38l-257 -211l167 -211l-44 -36l-168 210z" />
    <glyph glyph-name="Oslash" unicode="&#xd8;" horiz-adv-x="778" 
d="M697 593q-23 39 -63.5 61.5t-101.5 22.5q-68 0 -121.5 -27t-93 -71.5t-65.5 -101.5t-39 -116q-11 -53 -11 -99q0 -57 18 -102zM79 -15l-23 27l104 94q-31 56 -31 137q0 53 14 118q18 84 54 153.5t87.5 119t117 76.5t143.5 27q73 0 125 -23.5t84 -68.5l101 92l22 -25
l-106 -97q30 -57 30 -138q0 -27 -3.5 -55.5t-10.5 -60.5q-18 -84 -54 -153.5t-87.5 -119t-117 -76.5t-143.5 -27q-72 0 -123 23t-83 68zM235 127q23 -38 62.5 -60t100.5 -22q67 0 121 27t94 71.5t66 101.5t38 116q11 53 11 99q0 27 -4 52.5t-12 48.5z" />
    <glyph glyph-name="Ugrave" unicode="&#xd9;" horiz-adv-x="722" 
d="M315 722l-99 -467q-2 -14 -3.5 -27.5t-1.5 -26.5q0 -75 41 -115.5t118 -40.5q91 0 155 55t89 155l99 467h65l-100 -468q-13 -59 -40 -108t-67.5 -85t-94 -56t-119.5 -20q-56 0 -96 14t-66.5 40t-39 62.5t-12.5 80.5q0 37 7 72l100 468h65zM519 927l60 -143h-44l-96 143
h80z" />
    <glyph glyph-name="Uacute" unicode="&#xda;" horiz-adv-x="722" 
d="M315 722l-99 -467q-2 -14 -3.5 -27.5t-1.5 -26.5q0 -75 41 -115.5t118 -40.5q91 0 155 55t89 155l99 467h65l-100 -468q-13 -59 -40 -108t-67.5 -85t-94 -56t-119.5 -20q-56 0 -96 14t-66.5 40t-39 62.5t-12.5 80.5q0 37 7 72l100 468h65zM677 927l-158 -143h-44l122 143
h80z" />
    <glyph glyph-name="Ucircumflex" unicode="&#xdb;" horiz-adv-x="722" 
d="M315 722l-99 -467q-2 -14 -3.5 -27.5t-1.5 -26.5q0 -75 41 -115.5t118 -40.5q91 0 155 55t89 155l99 467h65l-100 -468q-13 -59 -40 -108t-67.5 -85t-94 -56t-119.5 -20q-56 0 -96 14t-66.5 40t-39 62.5t-12.5 80.5q0 37 7 72l100 468h65zM522 927h73l68 -145h-47
l-67 106l-112 -106h-46z" />
    <glyph glyph-name="Udieresis" unicode="&#xdc;" horiz-adv-x="722" 
d="M315 722l-99 -467q-2 -14 -3.5 -27.5t-1.5 -26.5q0 -75 41 -115.5t118 -40.5q91 0 155 55t89 155l99 467h65l-100 -468q-13 -59 -40 -108t-67.5 -85t-94 -56t-119.5 -20q-56 0 -96 14t-66.5 40t-39 62.5t-12.5 80.5q0 37 7 72l100 468h65zM589 839l19 88h74l-19 -88h-74z
M415 839l19 88h74l-19 -88h-74z" />
    <glyph glyph-name="Yacute" unicode="&#xdd;" horiz-adv-x="611" 
d="M340 312l-179 410h83l147 -349l295 349h70l-351 -408l-66 -314h-65zM622 927l-158 -143h-44l122 143h80z" />
    <glyph glyph-name="Thorn" unicode="&#xde;" horiz-adv-x="611" 
d="M211 219h158q36 0 71 6.5t63.5 23t49.5 44.5t30 70q4 19 4 38q0 31 -12.5 51.5t-34 32.5t-50 17t-60.5 5h-158zM253 722h65l-33 -155h143q45 0 86.5 -6t73.5 -22.5t51.5 -45.5t19.5 -76q0 -24 -6 -54q-14 -65 -45.5 -104.5t-74 -62t-92.5 -30t-100 -7.5h-143l-33 -159
h-65z" />
    <glyph glyph-name="germandbls" unicode="&#xdf;" horiz-adv-x="611" 
d="M147 0h-60l108 509q11 51 32 93t52.5 72t73.5 46.5t95 16.5q31 0 58.5 -8t48 -23t32.5 -38t12 -53q0 -8 -1 -16t-3 -17q-6 -30 -29.5 -55t-50.5 -46.5t-49.5 -41t-26.5 -37.5q-5 -23 5.5 -39.5t29 -30t41.5 -27t43 -30t33.5 -38.5t13.5 -53q0 -14 -3 -30
q-9 -40 -29.5 -71.5t-48 -53t-61 -33t-69.5 -11.5q-63 0 -97.5 32t-34.5 89q0 17 3 35h65q-2 -8 -3 -15t-1 -14q0 -34 21 -53t57 -19q51 0 86 27t47 84q6 28 -6 48.5t-32.5 36.5t-45.5 31t-45.5 32.5t-31.5 40t-4 55.5q7 32 30.5 56t50 45t49.5 41.5t29 46.5q5 25 -2 43.5
t-22 30.5t-35.5 18t-42.5 6q-41 0 -71.5 -18t-52 -46t-35 -62.5t-20.5 -67.5z" />
    <glyph glyph-name="agrave" unicode="&#xe0;" horiz-adv-x="500" 
d="M130 140q-5 -26 0 -44.5t18 -31t32 -18.5t42 -6q44 0 76 15t54.5 40t36.5 58t22 68q2 8 3.5 17t3.5 17q-9 2 -18.5 2h-20.5h-31q-33 0 -68 -5t-66 -17.5t-53.5 -35.5t-30.5 -59zM439 354q2 9 3 17t1 16q0 42 -27 58.5t-73 16.5q-47 0 -86 -18t-56 -69h-64q28 78 86.5 110
t131.5 32q71 0 110.5 -26t39.5 -86q0 -22 -6 -49l-51 -243q-8 -29 -12 -58t-7 -55h-62l13 74h-2l-4 -7q-23 -32 -67.5 -57t-107.5 -25q-60 0 -99 31t-39 88q0 19 4 36q11 51 46.5 87.5t84.5 54.5q55 20 116.5 23t116.5 3zM361 707l60 -143h-44l-96 143h80z" />
    <glyph glyph-name="aacute" unicode="&#xe1;" horiz-adv-x="500" 
d="M130 140q-5 -26 0 -44.5t18 -31t32 -18.5t42 -6q44 0 76 15t54.5 40t36.5 58t22 68q2 8 3.5 17t3.5 17q-9 2 -18.5 2h-20.5h-31q-33 0 -68 -5t-66 -17.5t-53.5 -35.5t-30.5 -59zM439 354q2 9 3 17t1 16q0 42 -27 58.5t-73 16.5q-47 0 -86 -18t-56 -69h-64q28 78 86.5 110
t131.5 32q71 0 110.5 -26t39.5 -86q0 -22 -6 -49l-51 -243q-8 -29 -12 -58t-7 -55h-62l13 74h-2l-4 -7q-23 -32 -67.5 -57t-107.5 -25q-60 0 -99 31t-39 88q0 19 4 36q11 51 46.5 87.5t84.5 54.5q55 20 116.5 23t116.5 3zM519 707l-158 -143h-44l122 143h80z" />
    <glyph glyph-name="acircumflex" unicode="&#xe2;" horiz-adv-x="500" 
d="M130 140q-5 -26 0 -44.5t18 -31t32 -18.5t42 -6q44 0 76 15t54.5 40t36.5 58t22 68q2 8 3.5 17t3.5 17q-9 2 -18.5 2h-20.5h-31q-33 0 -68 -5t-66 -17.5t-53.5 -35.5t-30.5 -59zM439 354q2 9 3 17t1 16q0 42 -27 58.5t-73 16.5q-47 0 -86 -18t-56 -69h-64q28 78 86.5 110
t131.5 32q71 0 110.5 -26t39.5 -86q0 -22 -6 -49l-51 -243q-8 -29 -12 -58t-7 -55h-62l13 74h-2l-4 -7q-23 -32 -67.5 -57t-107.5 -25q-60 0 -99 31t-39 88q0 19 4 36q11 51 46.5 87.5t84.5 54.5q55 20 116.5 23t116.5 3zM364 707h73l68 -145h-47l-67 106l-112 -106h-46z
" />
    <glyph glyph-name="atilde" unicode="&#xe3;" horiz-adv-x="500" 
d="M130 140q-5 -26 0 -44.5t18 -31t32 -18.5t42 -6q44 0 76 15t54.5 40t36.5 58t22 68q2 8 3.5 17t3.5 17q-9 2 -18.5 2h-20.5h-31q-33 0 -68 -5t-66 -17.5t-53.5 -35.5t-30.5 -59zM439 354q2 9 3 17t1 16q0 42 -27 58.5t-73 16.5q-47 0 -86 -18t-56 -69h-64q28 78 86.5 110
t131.5 32q71 0 110.5 -26t39.5 -86q0 -22 -6 -49l-51 -243q-8 -29 -12 -58t-7 -55h-62l13 74h-2l-4 -7q-23 -32 -67.5 -57t-107.5 -25q-60 0 -99 31t-39 88q0 19 4 36q11 51 46.5 87.5t84.5 54.5q55 20 116.5 23t116.5 3zM535 695q-15 -34 -43 -59.5t-66 -25.5
q-11 0 -21.5 3t-21.5 8q-10 4 -22.5 7t-28.5 3q-15 0 -30.5 -7t-23.5 -22h-38q18 42 50.5 64.5t74.5 15.5q7 -1 17 -4t21 -7q11 -3 21 -6t16 -3q17 0 32.5 8.5t24.5 24.5h38z" />
    <glyph glyph-name="adieresis" unicode="&#xe4;" horiz-adv-x="500" 
d="M130 140q-5 -26 0 -44.5t18 -31t32 -18.5t42 -6q44 0 76 15t54.5 40t36.5 58t22 68q2 8 3.5 17t3.5 17q-9 2 -18.5 2h-20.5h-31q-33 0 -68 -5t-66 -17.5t-53.5 -35.5t-30.5 -59zM439 354q2 9 3 17t1 16q0 42 -27 58.5t-73 16.5q-47 0 -86 -18t-56 -69h-64q28 78 86.5 110
t131.5 32q71 0 110.5 -26t39.5 -86q0 -22 -6 -49l-51 -243q-8 -29 -12 -58t-7 -55h-62l13 74h-2l-4 -7q-23 -32 -67.5 -57t-107.5 -25q-60 0 -99 31t-39 88q0 19 4 36q11 51 46.5 87.5t84.5 54.5q55 20 116.5 23t116.5 3zM438 641l16 78h67l-16 -78h-67zM271 641l16 78h67
l-16 -78h-67z" />
    <glyph glyph-name="aring" unicode="&#xe5;" horiz-adv-x="500" 
d="M130 140q-5 -26 0 -44.5t18 -31t32 -18.5t42 -6q44 0 76 15t54.5 40t36.5 58t22 68q2 8 3.5 17t3.5 17q-9 2 -18.5 2h-20.5h-31q-33 0 -68 -5t-66 -17.5t-53.5 -35.5t-30.5 -59zM439 354q2 9 3 17t1 16q0 42 -27 58.5t-73 16.5q-47 0 -86 -18t-56 -69h-64q28 78 86.5 110
t131.5 32q71 0 110.5 -26t39.5 -86q0 -22 -6 -49l-51 -243q-8 -29 -12 -58t-7 -55h-62l13 74h-2l-4 -7q-23 -32 -67.5 -57t-107.5 -25q-60 0 -99 31t-39 88q0 19 4 36q11 51 46.5 87.5t84.5 54.5q55 20 116.5 23t116.5 3zM296 650q4 19 15 36t26 29.5t33 20t37 7.5
t34.5 -7.5t25.5 -20t14 -29.5t0 -36t-15 -35.5t-26.5 -29t-34 -20t-37.5 -7.5q-38 0 -59 27t-13 65zM444 650q5 23 -8 39.5t-36 16.5t-43 -16.5t-25 -39.5t8 -39.5t36 -16.5t43 16.5t25 39.5z" />
    <glyph glyph-name="ae" unicode="&#xe6;" horiz-adv-x="833" 
d="M776 299q6 27 6 52q0 48 -26.5 79.5t-90.5 31.5q-34 0 -63.5 -15t-52.5 -38.5t-38 -52.5t-20 -57h285zM137 375q12 38 34 65t51 44t63 25t70 8q72 0 105.5 -27t29.5 -78h2q15 25 35.5 44.5t45.5 33t51.5 20.5t53.5 7q47 0 78.5 -11.5t51 -32.5t27.5 -50.5t8 -64.5
q0 -50 -14 -114h-350q-9 -36 -9 -70q0 -28 6 -52.5t19.5 -42.5t35 -28.5t51.5 -10.5q63 0 103.5 31.5t57.5 88.5h63q-35 -95 -96.5 -135t-138.5 -40q-27 0 -53.5 7.5t-47.5 23t-34.5 40.5t-13.5 60q-17 -30 -37.5 -54t-47.5 -41t-61 -26.5t-77 -9.5q-30 0 -55 6.5t-44 20
t-29.5 34.5t-10.5 51q0 18 5 43q12 55 46.5 88t82.5 50q34 13 76.5 17t88.5 4h67l12 55q8 62 -16.5 85t-78.5 23q-47 0 -86 -18t-56 -69h-64zM347 244q-34 0 -69.5 -3.5t-66 -14t-52.5 -31.5t-29 -55q-6 -31 0.5 -50.5t21 -30.5t33.5 -15t39 -4q48 0 81 17.5t55 46t34.5 65
t19.5 75.5h-67z" />
    <glyph glyph-name="ccedilla" unicode="&#xe7;" horiz-adv-x="500" 
d="M142 -144q37 -12 72 -12q22 0 43 7.5t26 33.5q4 22 -11 29t-33 7h-14.5t-15.5 -2l37 67q-41 2 -70.5 17.5t-48.5 40.5t-28 58t-9 70q0 38 9 79q11 51 35 99t60 85t82.5 59.5t102.5 22.5q34 0 63.5 -9t50.5 -26.5t33 -42.5t12 -58q0 -15 -3 -33h-65q9 58 -20 86t-92 28
q-35 0 -66 -17t-56.5 -45.5t-44 -66.5t-27.5 -81q-4 -17 -5.5 -34t-1.5 -33q0 -31 7 -57.5t21 -46t35 -30.5t48 -11q60 0 103.5 32.5t58.5 84.5h65q-60 -170 -225 -171l-18 -36q19 0 36.5 -2.5t30.5 -9.5t19 -19t2 -31q-5 -21 -20 -35t-34 -22t-39 -11t-35 -3q-45 0 -83 11z
" />
    <glyph glyph-name="egrave" unicode="&#xe8;" 
d="M165 237q-3 -16 -5 -31t-2 -29q0 -30 8 -55t24.5 -43t43 -28.5t63.5 -10.5q27 0 52.5 9t48 25t40.5 38t30 48h63q-43 -91 -108.5 -133t-156.5 -42q-45 0 -77.5 15t-53.5 40.5t-31 60t-10 73.5q0 38 9 77q11 51 35 99t60 85t82.5 59.5t102.5 22.5q49 0 83.5 -13.5
t56.5 -37.5t31.5 -57.5t9.5 -73.5q0 -43 -11 -98h-388zM500 292q3 19 3 36q0 29 -7.5 53.5t-23.5 42.5t-40.5 28t-58.5 10q-37 0 -68 -14t-55.5 -38t-42.5 -54.5t-28 -63.5h321zM389 707l60 -143h-44l-96 143h80z" />
    <glyph glyph-name="eacute" unicode="&#xe9;" 
d="M165 237q-3 -16 -5 -31t-2 -29q0 -30 8 -55t24.5 -43t43 -28.5t63.5 -10.5q27 0 52.5 9t48 25t40.5 38t30 48h63q-43 -91 -108.5 -133t-156.5 -42q-45 0 -77.5 15t-53.5 40.5t-31 60t-10 73.5q0 38 9 77q11 51 35 99t60 85t82.5 59.5t102.5 22.5q49 0 83.5 -13.5
t56.5 -37.5t31.5 -57.5t9.5 -73.5q0 -43 -11 -98h-388zM500 292q3 19 3 36q0 29 -7.5 53.5t-23.5 42.5t-40.5 28t-58.5 10q-37 0 -68 -14t-55.5 -38t-42.5 -54.5t-28 -63.5h321zM547 707l-158 -143h-44l122 143h80z" />
    <glyph glyph-name="ecircumflex" unicode="&#xea;" 
d="M165 237q-3 -16 -5 -31t-2 -29q0 -30 8 -55t24.5 -43t43 -28.5t63.5 -10.5q27 0 52.5 9t48 25t40.5 38t30 48h63q-43 -91 -108.5 -133t-156.5 -42q-45 0 -77.5 15t-53.5 40.5t-31 60t-10 73.5q0 38 9 77q11 51 35 99t60 85t82.5 59.5t102.5 22.5q49 0 83.5 -13.5
t56.5 -37.5t31.5 -57.5t9.5 -73.5q0 -43 -11 -98h-388zM500 292q3 19 3 36q0 29 -7.5 53.5t-23.5 42.5t-40.5 28t-58.5 10q-37 0 -68 -14t-55.5 -38t-42.5 -54.5t-28 -63.5h321zM392 707h73l68 -145h-47l-67 106l-112 -106h-46z" />
    <glyph glyph-name="edieresis" unicode="&#xeb;" 
d="M165 237q-3 -16 -5 -31t-2 -29q0 -30 8 -55t24.5 -43t43 -28.5t63.5 -10.5q27 0 52.5 9t48 25t40.5 38t30 48h63q-43 -91 -108.5 -133t-156.5 -42q-45 0 -77.5 15t-53.5 40.5t-31 60t-10 73.5q0 38 9 77q11 51 35 99t60 85t82.5 59.5t102.5 22.5q49 0 83.5 -13.5
t56.5 -37.5t31.5 -57.5t9.5 -73.5q0 -43 -11 -98h-388zM500 292q3 19 3 36q0 29 -7.5 53.5t-23.5 42.5t-40.5 28t-58.5 10q-37 0 -68 -14t-55.5 -38t-42.5 -54.5t-28 -63.5h321zM472 645l16 78h67l-16 -78h-67zM305 645l16 78h67l-16 -78h-67z" />
    <glyph glyph-name="igrave" unicode="&#xec;" horiz-adv-x="222" 
d="M81 0l106 502h60l-106 -502h-60zM222 707l60 -143h-44l-96 143h80z" />
    <glyph glyph-name="iacute" unicode="&#xed;" horiz-adv-x="222" 
d="M81 0l106 502h60l-106 -502h-60zM380 707l-158 -143h-44l122 143h80z" />
    <glyph glyph-name="icircumflex" unicode="&#xee;" horiz-adv-x="222" 
d="M81 0l106 502h60l-106 -502h-60zM225 707h73l68 -145h-47l-67 106l-112 -106h-46z" />
    <glyph glyph-name="idieresis" unicode="&#xef;" horiz-adv-x="222" 
d="M81 0l106 502h60l-106 -502h-60zM300 645l16 78h67l-16 -78h-67zM133 645l16 78h67l-16 -78h-67z" />
    <glyph glyph-name="eth" unicode="&#xf0;" 
d="M328 737q22 -5 37.5 -9t28.5 -9t25 -11.5t27 -15.5l105 58l24 -28l-96 -53q16 -12 34.5 -31.5t34.5 -49.5t27 -71.5t11 -98.5q0 -65 -18 -150q-28 -132 -104 -207.5t-190 -75.5q-50 0 -85 15t-58 41t-33.5 60t-10.5 72q0 16 2 32t5 32q10 47 33.5 92.5t59.5 81t83 57.5
t104 22q43 0 71 -14.5t44.5 -34.5t24 -42t10.5 -38l3 2q3 24 3 49q0 30 -5 61t-17 61t-32.5 57t-51.5 48l-105 -57l-23 29l94 51q-11 6 -19 10t-17.5 8t-21 8t-29.5 9zM159 237q-6 -26 -6 -54t7 -54t22.5 -46.5t41 -33t61.5 -12.5q45 0 81.5 19t63 48t43.5 64.5t24 68.5
q6 27 6 54q0 28 -7 54.5t-22.5 47t-41 33t-61.5 12.5q-45 0 -81.5 -19t-63 -48t-43.5 -65t-24 -69z" />
    <glyph glyph-name="ntilde" unicode="&#xf1;" 
d="M140 0h-60l82 389q6 29 10.5 58t8.5 55h62l-13 -74l2 -2q36 48 81.5 69.5t94.5 21.5q44 0 71.5 -12.5t43.5 -32t21.5 -44t5.5 -48.5q0 -19 -2.5 -36t-5.5 -30l-66 -314h-60l68 324q2 11 3.5 21t1.5 20q0 47 -27.5 72t-79.5 25q-37 0 -67.5 -14.5t-53.5 -38.5t-38 -55
t-22 -65zM563 695q-15 -34 -43 -59.5t-66 -25.5q-11 0 -21.5 3t-21.5 8q-10 4 -22.5 7t-28.5 3q-15 0 -30.5 -7t-23.5 -22h-38q18 42 50.5 64.5t74.5 15.5q7 -1 17 -4t21 -7q11 -3 21 -6t16 -3q17 0 32.5 8.5t24.5 24.5h38z" />
    <glyph glyph-name="ograve" unicode="&#xf2;" 
d="M500 251q6 28 6 60q0 29 -6.5 56.5t-22 48.5t-40.5 33.5t-61 12.5q-45 0 -81.5 -20t-63.5 -50.5t-44.5 -68t-24.5 -72.5q-3 -14 -5 -29t-2 -30q0 -29 7 -56.5t23 -48.5t40.5 -34t60.5 -13q46 0 82 20t63 50.5t44 68t25 72.5zM387 517q49 0 84.5 -15.5t57.5 -42.5
t32.5 -62.5t10.5 -75.5q0 -36 -7 -70q-11 -50 -35 -97.5t-61 -85t-86 -60.5t-109 -23q-49 0 -84 15.5t-57.5 42t-33 62t-10.5 74.5q0 34 8 72q10 49 34.5 97t61 85.5t85.5 60.5t109 23zM389 707l60 -143h-44l-96 143h80z" />
    <glyph glyph-name="oacute" unicode="&#xf3;" 
d="M500 251q6 28 6 60q0 29 -6.5 56.5t-22 48.5t-40.5 33.5t-61 12.5q-45 0 -81.5 -20t-63.5 -50.5t-44.5 -68t-24.5 -72.5q-3 -14 -5 -29t-2 -30q0 -29 7 -56.5t23 -48.5t40.5 -34t60.5 -13q46 0 82 20t63 50.5t44 68t25 72.5zM387 517q49 0 84.5 -15.5t57.5 -42.5
t32.5 -62.5t10.5 -75.5q0 -36 -7 -70q-11 -50 -35 -97.5t-61 -85t-86 -60.5t-109 -23q-49 0 -84 15.5t-57.5 42t-33 62t-10.5 74.5q0 34 8 72q10 49 34.5 97t61 85.5t85.5 60.5t109 23zM547 707l-158 -143h-44l122 143h80z" />
    <glyph glyph-name="ocircumflex" unicode="&#xf4;" 
d="M500 251q6 28 6 60q0 29 -6.5 56.5t-22 48.5t-40.5 33.5t-61 12.5q-45 0 -81.5 -20t-63.5 -50.5t-44.5 -68t-24.5 -72.5q-3 -14 -5 -29t-2 -30q0 -29 7 -56.5t23 -48.5t40.5 -34t60.5 -13q46 0 82 20t63 50.5t44 68t25 72.5zM387 517q49 0 84.5 -15.5t57.5 -42.5
t32.5 -62.5t10.5 -75.5q0 -36 -7 -70q-11 -50 -35 -97.5t-61 -85t-86 -60.5t-109 -23q-49 0 -84 15.5t-57.5 42t-33 62t-10.5 74.5q0 34 8 72q10 49 34.5 97t61 85.5t85.5 60.5t109 23zM392 707h73l68 -145h-47l-67 106l-112 -106h-46z" />
    <glyph glyph-name="otilde" unicode="&#xf5;" 
d="M500 251q6 28 6 60q0 29 -6.5 56.5t-22 48.5t-40.5 33.5t-61 12.5q-45 0 -81.5 -20t-63.5 -50.5t-44.5 -68t-24.5 -72.5q-3 -14 -5 -29t-2 -30q0 -29 7 -56.5t23 -48.5t40.5 -34t60.5 -13q46 0 82 20t63 50.5t44 68t25 72.5zM387 517q49 0 84.5 -15.5t57.5 -42.5
t32.5 -62.5t10.5 -75.5q0 -36 -7 -70q-11 -50 -35 -97.5t-61 -85t-86 -60.5t-109 -23q-49 0 -84 15.5t-57.5 42t-33 62t-10.5 74.5q0 34 8 72q10 49 34.5 97t61 85.5t85.5 60.5t109 23zM563 695q-15 -34 -43 -59.5t-66 -25.5q-11 0 -21.5 3t-21.5 8q-10 4 -22.5 7t-28.5 3
q-15 0 -30.5 -7t-23.5 -22h-38q18 42 50.5 64.5t74.5 15.5q7 -1 17 -4t21 -7q11 -3 21 -6t16 -3q17 0 32.5 8.5t24.5 24.5h38z" />
    <glyph glyph-name="odieresis" unicode="&#xf6;" 
d="M500 251q6 28 6 60q0 29 -6.5 56.5t-22 48.5t-40.5 33.5t-61 12.5q-45 0 -81.5 -20t-63.5 -50.5t-44.5 -68t-24.5 -72.5q-3 -14 -5 -29t-2 -30q0 -29 7 -56.5t23 -48.5t40.5 -34t60.5 -13q46 0 82 20t63 50.5t44 68t25 72.5zM387 517q49 0 84.5 -15.5t57.5 -42.5
t32.5 -62.5t10.5 -75.5q0 -36 -7 -70q-11 -50 -35 -97.5t-61 -85t-86 -60.5t-109 -23q-49 0 -84 15.5t-57.5 42t-33 62t-10.5 74.5q0 34 8 72q10 49 34.5 97t61 85.5t85.5 60.5t109 23zM464 645l16 78h67l-16 -78h-67zM297 645l16 78h67l-16 -78h-67z" />
    <glyph glyph-name="divide" unicode="&#xf7;" horiz-adv-x="660" 
d="M139 281h500l-13 -60h-500zM293 0l18 88h75l-18 -88h-75zM380 414l19 88h75l-19 -88h-75z" />
    <glyph glyph-name="oslash" unicode="&#xf8;" 
d="M481 407q-15 25 -40.5 40t-64.5 15q-45 0 -81.5 -20t-63.5 -50.5t-44.5 -68t-24.5 -72.5q-6 -27 -6 -57q0 -37 10 -67zM179 97q14 -25 39.5 -41t67.5 -16q46 0 82 20t63 50.5t44 68t25 72.5q3 15 5 29.5t2 29.5q0 35 -12 67zM111 78q-22 44 -22 100q0 33 8 73
q10 49 34.5 97t61 85.5t85.5 60.5t109 23q52 0 88 -17.5t58 -46.5l72 64l19 -25l-74 -66q12 -23 17.5 -49t5.5 -55q0 -33 -8 -71q-11 -50 -35 -97.5t-61 -85t-86 -60.5t-109 -23q-54 0 -89.5 18t-57.5 47l-74 -65l-18 25z" />
    <glyph glyph-name="ugrave" unicode="&#xf9;" 
d="M522 502h60l-82 -389q-7 -29 -11 -58t-8 -55h-62l12 74l-1 2q-37 -48 -82.5 -69.5t-94.5 -21.5q-44 0 -71.5 12.5t-43 32.5t-21 44t-5.5 48q0 19 2.5 36t4.5 30l67 314h60l-69 -324q-2 -11 -3.5 -21t-1.5 -20q0 -47 28 -72t80 -25q37 0 67.5 14.5t53.5 38.5t38 55t22 65z
M389 707l60 -143h-44l-96 143h80z" />
    <glyph glyph-name="uacute" unicode="&#xfa;" 
d="M522 502h60l-82 -389q-7 -29 -11 -58t-8 -55h-62l12 74l-1 2q-37 -48 -82.5 -69.5t-94.5 -21.5q-44 0 -71.5 12.5t-43 32.5t-21 44t-5.5 48q0 19 2.5 36t4.5 30l67 314h60l-69 -324q-2 -11 -3.5 -21t-1.5 -20q0 -47 28 -72t80 -25q37 0 67.5 14.5t53.5 38.5t38 55t22 65z
M547 707l-158 -143h-44l122 143h80z" />
    <glyph glyph-name="ucircumflex" unicode="&#xfb;" 
d="M522 502h60l-82 -389q-7 -29 -11 -58t-8 -55h-62l12 74l-1 2q-37 -48 -82.5 -69.5t-94.5 -21.5q-44 0 -71.5 12.5t-43 32.5t-21 44t-5.5 48q0 19 2.5 36t4.5 30l67 314h60l-69 -324q-2 -11 -3.5 -21t-1.5 -20q0 -47 28 -72t80 -25q37 0 67.5 14.5t53.5 38.5t38 55t22 65z
M392 707h73l68 -145h-47l-67 106l-112 -106h-46z" />
    <glyph glyph-name="udieresis" unicode="&#xfc;" 
d="M522 502h60l-82 -389q-7 -29 -11 -58t-8 -55h-62l12 74l-1 2q-37 -48 -82.5 -69.5t-94.5 -21.5q-44 0 -71.5 12.5t-43 32.5t-21 44t-5.5 48q0 19 2.5 36t4.5 30l67 314h60l-69 -324q-2 -11 -3.5 -21t-1.5 -20q0 -47 28 -72t80 -25q37 0 67.5 14.5t53.5 38.5t38 55t22 65z
M468 645l16 78h67l-16 -78h-67zM301 645l16 78h67l-16 -78h-67z" />
    <glyph glyph-name="yacute" unicode="&#xfd;" horiz-adv-x="500" 
d="M187 502l82 -426l255 426h65l-424 -694h-66l117 192l-102 502h73zM519 707l-158 -143h-44l122 143h80z" />
    <glyph glyph-name="thorn" unicode="&#xfe;" 
d="M185 263q-9 -41 -9 -80q0 -30 7 -56t22.5 -45.5t41 -30.5t62.5 -11q43 0 75.5 21.5t55.5 54t37.5 71t22.5 73.5q3 17 5 33.5t2 33.5q0 27 -6 51.5t-19.5 43t-36 29.5t-55.5 11q-44 0 -78.5 -17t-60 -44.5t-42 -63.5t-24.5 -74zM89 -192h-60l194 914h60l-63 -294l2 -2
q36 45 88 68t103 23q44 0 74.5 -14t49 -38.5t27 -57t8.5 -69.5q0 -42 -9 -85q-10 -47 -31.5 -95t-54 -86.5t-76 -62.5t-98.5 -24t-94.5 24t-60.5 69h-2z" />
    <glyph glyph-name="ydieresis" unicode="&#xff;" horiz-adv-x="500" 
d="M187 502l82 -426l255 426h65l-424 -694h-66l117 192l-102 502h73zM438 641l16 78h67l-16 -78h-67zM271 641l16 78h67l-16 -78h-67z" />
    <glyph glyph-name="Amacron" unicode="&#x100;" horiz-adv-x="667" 
d="M542 255l-70 407l-245 -407h315zM9 0l439 722h76l135 -722h-71l-36 195h-359l-117 -195h-67zM386 843l11 50h245l-11 -50h-245z" />
    <glyph glyph-name="amacron" unicode="&#x101;" horiz-adv-x="500" 
d="M130 140q-5 -26 0 -44.5t18 -31t32 -18.5t42 -6q44 0 76 15t54.5 40t36.5 58t22 68q2 8 3.5 17t3.5 17q-9 2 -18.5 2h-20.5h-31q-33 0 -68 -5t-66 -17.5t-53.5 -35.5t-30.5 -59zM439 354q2 9 3 17t1 16q0 42 -27 58.5t-73 16.5q-47 0 -86 -18t-56 -69h-64q28 78 86.5 110
t131.5 32q71 0 110.5 -26t39.5 -86q0 -22 -6 -49l-51 -243q-8 -29 -12 -58t-7 -55h-62l13 74h-2l-4 -7q-23 -32 -67.5 -57t-107.5 -25q-60 0 -99 31t-39 88q0 19 4 36q11 51 46.5 87.5t84.5 54.5q55 20 116.5 23t116.5 3zM262 623l11 50h245l-11 -50h-245z" />
    <glyph glyph-name="Abreve" unicode="&#x102;" horiz-adv-x="667" 
d="M542 255l-70 407l-245 -407h315zM9 0l439 722h76l135 -722h-71l-36 195h-359l-117 -195h-67zM643 937q-17 -60 -55.5 -84t-92.5 -24q-49 0 -78 26.5t-18 81.5h23q0 -18 7.5 -30t19.5 -19t27 -10t29 -3q15 0 31.5 3t32.5 10t30 19t23 30h21z" />
    <glyph glyph-name="abreve" unicode="&#x103;" horiz-adv-x="500" 
d="M130 140q-5 -26 0 -44.5t18 -31t32 -18.5t42 -6q44 0 76 15t54.5 40t36.5 58t22 68q2 8 3.5 17t3.5 17q-9 2 -18.5 2h-20.5h-31q-33 0 -68 -5t-66 -17.5t-53.5 -35.5t-30.5 -59zM439 354q2 9 3 17t1 16q0 42 -27 58.5t-73 16.5q-47 0 -86 -18t-56 -69h-64q28 78 86.5 110
t131.5 32q71 0 110.5 -26t39.5 -86q0 -22 -6 -49l-51 -243q-8 -29 -12 -58t-7 -55h-62l13 74h-2l-4 -7q-23 -32 -67.5 -57t-107.5 -25q-60 0 -99 31t-39 88q0 19 4 36q11 51 46.5 87.5t84.5 54.5q55 20 116.5 23t116.5 3zM523 717q-17 -60 -55.5 -84t-92.5 -24
q-49 0 -78 26.5t-18 81.5h23q0 -18 7.5 -30t19.5 -19t27 -10t29 -3q15 0 31.5 3t32.5 10t30 19t23 30h21z" />
    <glyph glyph-name="Aogonek" unicode="&#x104;" horiz-adv-x="667" 
d="M616 -168q-15 -5 -33.5 -9.5t-38.5 -4.5q-14 0 -28.5 3t-26 11.5t-17 22.5t-0.5 37q4 21 16.5 38t29.5 30t36.5 23t36.5 17h-3l-36 195h-359l-117 -195h-67l439 722h76l135 -722h-28q-49 -27 -77 -49t-35 -54q-3 -14 0 -22t10 -12.5t15 -6t16 -1.5q18 0 32 3t31 8z
M542 255l-70 407l-245 -407h315z" />
    <glyph glyph-name="aogonek" unicode="&#x105;" horiz-adv-x="500" 
d="M439 354q2 9 3 17t1 16q0 42 -27 58.5t-73 16.5q-47 0 -86 -18t-56 -69h-64q28 78 86.5 110t131.5 32q71 0 110.5 -26t39.5 -86q0 -22 -6 -49l-51 -243q-8 -29 -12 -58t-7 -55h-12q-49 -27 -77 -49t-35 -54q-3 -14 0 -22t10 -12.5t15 -6t16 -1.5q18 0 32 3t31 8l-7 -34
q-15 -5 -33.5 -9.5t-38.5 -4.5q-14 0 -28.5 3t-26 11.5t-17 22.5t-0.5 37q4 21 16.5 38t29.5 30t36.5 23t36.5 17h-10l13 74h-2l-4 -7q-23 -32 -67.5 -57t-107.5 -25q-60 0 -99 31t-39 88q0 19 4 36q11 51 46.5 87.5t84.5 54.5q55 20 116.5 23t116.5 3zM130 140
q-5 -26 0 -44.5t18 -31t32 -18.5t42 -6q44 0 76 15t54.5 40t36.5 58t22 68q2 8 3.5 17t3.5 17q-9 2 -18.5 2h-20.5h-31q-33 0 -68 -5t-66 -17.5t-53.5 -35.5t-30.5 -59z" />
    <glyph glyph-name="Cacute" unicode="&#x106;" horiz-adv-x="667" 
d="M659 553q3 33 -7.5 56.5t-31 38.5t-48 22t-57.5 7q-69 0 -121.5 -28.5t-90 -74t-61 -102t-35.5 -111.5q-12 -53 -12 -107q0 -42 9.5 -80t31 -66.5t57 -45.5t88.5 -17q30 0 60.5 7.5t58.5 23.5t50.5 40.5t36.5 58.5h70q-18 -45 -49 -80.5t-70 -60t-83 -37t-87 -12.5
q-65 0 -111.5 19.5t-76 54t-43.5 81.5t-14 102t14 119q16 74 48.5 142t81 120t114 83t147.5 31q40 0 77 -9t65 -27.5t44.5 -48t16.5 -69.5v-15t-2 -15h-70zM696 927l-158 -143h-44l122 143h80z" />
    <glyph glyph-name="cacute" unicode="&#x107;" horiz-adv-x="500" 
d="M470 348q9 58 -20 86t-92 28q-35 0 -66 -17t-56.5 -45.5t-44 -66.5t-27.5 -81q-4 -17 -5.5 -34t-1.5 -33q0 -31 7 -57.5t21 -46t35 -30.5t48 -11q60 0 103.5 32.5t58.5 84.5h65q-61 -172 -233 -172q-45 0 -77.5 15t-53.5 40.5t-31 60t-10 73.5q0 38 9 77q11 51 35 99
t60 85t82.5 59.5t102.5 22.5q34 0 63.5 -9t50.5 -26.5t33 -42.5t12 -58q0 -15 -3 -33h-65zM542 707l-158 -143h-44l122 143h80z" />
    <glyph glyph-name="Ccircumflex" unicode="&#x108;" horiz-adv-x="667" 
d="M659 553q3 33 -7.5 56.5t-31 38.5t-48 22t-57.5 7q-69 0 -121.5 -28.5t-90 -74t-61 -102t-35.5 -111.5q-12 -53 -12 -107q0 -42 9.5 -80t31 -66.5t57 -45.5t88.5 -17q30 0 60.5 7.5t58.5 23.5t50.5 40.5t36.5 58.5h70q-18 -45 -49 -80.5t-70 -60t-83 -37t-87 -12.5
q-65 0 -111.5 19.5t-76 54t-43.5 81.5t-14 102t14 119q16 74 48.5 142t81 120t114 83t147.5 31q40 0 77 -9t65 -27.5t44.5 -48t16.5 -69.5v-15t-2 -15h-70zM534 927h73l68 -145h-47l-67 106l-112 -106h-46z" />
    <glyph glyph-name="ccircumflex" unicode="&#x109;" horiz-adv-x="500" 
d="M470 348q9 58 -20 86t-92 28q-35 0 -66 -17t-56.5 -45.5t-44 -66.5t-27.5 -81q-4 -17 -5.5 -34t-1.5 -33q0 -31 7 -57.5t21 -46t35 -30.5t48 -11q60 0 103.5 32.5t58.5 84.5h65q-61 -172 -233 -172q-45 0 -77.5 15t-53.5 40.5t-31 60t-10 73.5q0 38 9 77q11 51 35 99
t60 85t82.5 59.5t102.5 22.5q34 0 63.5 -9t50.5 -26.5t33 -42.5t12 -58q0 -15 -3 -33h-65zM381 707h73l68 -145h-47l-67 106l-112 -106h-46z" />
    <glyph glyph-name="Cdotaccent" unicode="&#x10a;" horiz-adv-x="667" 
d="M659 553q3 33 -7.5 56.5t-31 38.5t-48 22t-57.5 7q-69 0 -121.5 -28.5t-90 -74t-61 -102t-35.5 -111.5q-12 -53 -12 -107q0 -42 9.5 -80t31 -66.5t57 -45.5t88.5 -17q30 0 60.5 7.5t58.5 23.5t50.5 40.5t36.5 58.5h70q-18 -45 -49 -80.5t-70 -60t-83 -37t-87 -12.5
q-65 0 -111.5 19.5t-76 54t-43.5 81.5t-14 102t14 119q16 74 48.5 142t81 120t114 83t147.5 31q40 0 77 -9t65 -27.5t44.5 -48t16.5 -69.5v-15t-2 -15h-70zM507 839l19 88h74l-19 -88h-74z" />
    <glyph glyph-name="cdotaccent" unicode="&#x10b;" horiz-adv-x="500" 
d="M470 348q9 58 -20 86t-92 28q-35 0 -66 -17t-56.5 -45.5t-44 -66.5t-27.5 -81q-4 -17 -5.5 -34t-1.5 -33q0 -31 7 -57.5t21 -46t35 -30.5t48 -11q60 0 103.5 32.5t58.5 84.5h65q-61 -172 -233 -172q-45 0 -77.5 15t-53.5 40.5t-31 60t-10 73.5q0 38 9 77q11 51 35 99
t60 85t82.5 59.5t102.5 22.5q34 0 63.5 -9t50.5 -26.5t33 -42.5t12 -58q0 -15 -3 -33h-65zM360 619l19 88h74l-19 -88h-74z" />
    <glyph glyph-name="Ccaron" unicode="&#x10c;" horiz-adv-x="667" 
d="M659 553q3 33 -7.5 56.5t-31 38.5t-48 22t-57.5 7q-69 0 -121.5 -28.5t-90 -74t-61 -102t-35.5 -111.5q-12 -53 -12 -107q0 -42 9.5 -80t31 -66.5t57 -45.5t88.5 -17q30 0 60.5 7.5t58.5 23.5t50.5 40.5t36.5 58.5h70q-18 -45 -49 -80.5t-70 -60t-83 -37t-87 -12.5
q-65 0 -111.5 19.5t-76 54t-43.5 81.5t-14 102t14 119q16 74 48.5 142t81 120t114 83t147.5 31q40 0 77 -9t65 -27.5t44.5 -48t16.5 -69.5v-15t-2 -15h-70zM584 782h-73l-68 145h47l66 -106l113 106h46z" />
    <glyph glyph-name="ccaron" unicode="&#x10d;" horiz-adv-x="500" 
d="M470 348q9 58 -20 86t-92 28q-35 0 -66 -17t-56.5 -45.5t-44 -66.5t-27.5 -81q-4 -17 -5.5 -34t-1.5 -33q0 -31 7 -57.5t21 -46t35 -30.5t48 -11q60 0 103.5 32.5t58.5 84.5h65q-61 -172 -233 -172q-45 0 -77.5 15t-53.5 40.5t-31 60t-10 73.5q0 38 9 77q11 51 35 99
t60 85t82.5 59.5t102.5 22.5q34 0 63.5 -9t50.5 -26.5t33 -42.5t12 -58q0 -15 -3 -33h-65zM425 562h-73l-68 145h47l66 -106l113 106h46z" />
    <glyph glyph-name="Dcaron" unicode="&#x10e;" horiz-adv-x="722" 
d="M314 60q76 0 135 21.5t102 61t71 95t42 123.5q11 52 11 91q0 112 -73 162.5t-204 47.5h-102l-128 -602h146zM439 722q151 0 229 -63t78 -190q0 -50 -12 -108q-38 -179 -154 -270t-294 -91h-195l153 722h195zM495 782h-73l-68 145h47l66 -106l113 106h46z" />
    <glyph glyph-name="dcaron" unicode="&#x10f;" 
d="M479 263q3 17 5 32.5t2 30.5q0 28 -7 53t-22 43.5t-39 29t-58 10.5q-42 0 -75 -18t-57 -47t-39.5 -65t-22.5 -72q-5 -20 -7.5 -42t-2.5 -44q0 -26 5 -50.5t17 -43t32.5 -29.5t50.5 -11q49 0 86 19t63 50t43 71t26 83zM441 74l-1 4q-42 -45 -90 -69t-102 -24q-44 0 -74 15
t-48.5 40.5t-27 58.5t-8.5 70q0 42 9 84q10 49 31 96t54 84.5t77 60.5t100 23q51 0 93.5 -23t59.5 -68l2 2l63 294h60l-129 -609q-7 -29 -11 -58t-8 -55h-62zM799 722l-95 -146h-40l69 146h66z" />
    <glyph glyph-name="Dcroat" unicode="&#x110;" horiz-adv-x="722" 
d="M245 420h216l-10 -45h-216l-67 -315h146q76 0 135 21.5t102 61t71 95t42 123.5q11 52 11 91q0 112 -73 162.5t-204 47.5h-102zM170 375h-68l10 45h68l64 302h195q151 0 229 -63t78 -190q0 -50 -12 -108q-38 -179 -154 -270t-294 -91h-195z" />
    <glyph glyph-name="dcroat" unicode="&#x111;" 
d="M609 583l-99 -470q-7 -29 -11 -58t-8 -55h-62l12 74l-1 4q-42 -45 -90 -69t-102 -24q-44 0 -74 15t-48.5 40.5t-27 58.5t-8.5 70q0 42 9 84q10 49 31 96t54 84.5t77 60.5t100 23q51 0 93.5 -23t59.5 -68l2 2l33 155h-129l8 37h129l22 102h60l-22 -102h70l-8 -37h-70z
M479 263q3 17 5 32.5t2 30.5q0 28 -7 53t-22 43.5t-39 29t-58 10.5q-42 0 -75 -18t-57 -47t-39.5 -65t-22.5 -72q-5 -20 -7.5 -42t-2.5 -44q0 -26 5 -50.5t17 -43t32.5 -29.5t50.5 -11q49 0 86 19t63 50t43 71t26 83z" />
    <glyph glyph-name="Emacron" unicode="&#x112;" horiz-adv-x="611" 
d="M102 0l153 722h429l-13 -60h-364l-55 -259h350l-13 -60h-350l-60 -283h379l-12 -60h-444zM359 843l11 50h245l-11 -50h-245z" />
    <glyph glyph-name="emacron" unicode="&#x113;" 
d="M165 237q-3 -16 -5 -31t-2 -29q0 -30 8 -55t24.5 -43t43 -28.5t63.5 -10.5q27 0 52.5 9t48 25t40.5 38t30 48h63q-43 -91 -108.5 -133t-156.5 -42q-45 0 -77.5 15t-53.5 40.5t-31 60t-10 73.5q0 38 9 77q11 51 35 99t60 85t82.5 59.5t102.5 22.5q49 0 83.5 -13.5
t56.5 -37.5t31.5 -57.5t9.5 -73.5q0 -43 -11 -98h-388zM500 292q3 19 3 36q0 29 -7.5 53.5t-23.5 42.5t-40.5 28t-58.5 10q-37 0 -68 -14t-55.5 -38t-42.5 -54.5t-28 -63.5h321zM292 623l11 50h245l-11 -50h-245z" />
    <glyph glyph-name="Ebreve" unicode="&#x114;" horiz-adv-x="611" 
d="M102 0l153 722h429l-13 -60h-364l-55 -259h350l-13 -60h-350l-60 -283h379l-12 -60h-444zM622 937q-17 -60 -55.5 -84t-92.5 -24q-49 0 -78 26.5t-18 81.5h23q0 -18 7.5 -30t19.5 -19t27 -10t29 -3q15 0 31.5 3t32.5 10t30 19t23 30h21z" />
    <glyph glyph-name="ebreve" unicode="&#x115;" 
d="M165 237q-3 -16 -5 -31t-2 -29q0 -30 8 -55t24.5 -43t43 -28.5t63.5 -10.5q27 0 52.5 9t48 25t40.5 38t30 48h63q-43 -91 -108.5 -133t-156.5 -42q-45 0 -77.5 15t-53.5 40.5t-31 60t-10 73.5q0 38 9 77q11 51 35 99t60 85t82.5 59.5t102.5 22.5q49 0 83.5 -13.5
t56.5 -37.5t31.5 -57.5t9.5 -73.5q0 -43 -11 -98h-388zM500 292q3 19 3 36q0 29 -7.5 53.5t-23.5 42.5t-40.5 28t-58.5 10q-37 0 -68 -14t-55.5 -38t-42.5 -54.5t-28 -63.5h321zM555 717q-17 -60 -55.5 -84t-92.5 -24q-49 0 -78 26.5t-18 81.5h23q0 -18 7.5 -30t19.5 -19
t27 -10t29 -3q15 0 31.5 3t32.5 10t30 19t23 30h21z" />
    <glyph glyph-name="Edotaccent" unicode="&#x116;" horiz-adv-x="611" 
d="M102 0l153 722h429l-13 -60h-364l-55 -259h350l-13 -60h-350l-60 -283h379l-12 -60h-444zM451 839l19 88h74l-19 -88h-74z" />
    <glyph glyph-name="edotaccent" unicode="&#x117;" 
d="M165 237q-3 -16 -5 -31t-2 -29q0 -30 8 -55t24.5 -43t43 -28.5t63.5 -10.5q27 0 52.5 9t48 25t40.5 38t30 48h63q-43 -91 -108.5 -133t-156.5 -42q-45 0 -77.5 15t-53.5 40.5t-31 60t-10 73.5q0 38 9 77q11 51 35 99t60 85t82.5 59.5t102.5 22.5q49 0 83.5 -13.5
t56.5 -37.5t31.5 -57.5t9.5 -73.5q0 -43 -11 -98h-388zM500 292q3 19 3 36q0 29 -7.5 53.5t-23.5 42.5t-40.5 28t-58.5 10q-37 0 -68 -14t-55.5 -38t-42.5 -54.5t-28 -63.5h321zM379 619l19 88h74l-19 -88h-74z" />
    <glyph glyph-name="Eogonek" unicode="&#x118;" horiz-adv-x="611" 
d="M505 -168q-15 -5 -33.5 -9.5t-38.5 -4.5q-14 0 -28.5 3t-26 11.5t-17 22.5t-0.5 37q4 21 16.5 38t29.5 30t36.5 23t36.5 17h-378l153 722h429l-13 -60h-364l-55 -259h350l-13 -60h-350l-60 -283h379l-12 -60h-26q-49 -27 -77 -49t-35 -54q-3 -14 0 -22t10 -12.5t15 -6
t16 -1.5q18 0 32 3t31 8z" />
    <glyph glyph-name="eogonek" unicode="&#x119;" 
d="M327 -168q-15 -5 -33.5 -9.5t-38.5 -4.5q-14 0 -28.5 3t-26 11.5t-17 22.5t-0.5 37q7 32 31 55t53 38h-1q-45 0 -77.5 15t-53.5 40.5t-31 60t-10 73.5q0 38 9 77q11 51 35 99t60 85t82.5 59.5t102.5 22.5q49 0 83.5 -13.5t56.5 -37.5t31.5 -57.5t9.5 -73.5q0 -43 -11 -98
h-388q-3 -16 -5 -31t-2 -29q0 -30 8 -55t24.5 -43t43 -28.5t63.5 -10.5q27 0 52.5 9t48 25t40.5 38t30 48h63q-36 -76 -88 -118t-121 -53q-40 -23 -63 -43t-29 -49q-3 -14 0 -22t10 -12.5t15 -6t16 -1.5q18 0 32 3t31 8zM500 292q3 19 3 36q0 29 -7.5 53.5t-23.5 42.5
t-40.5 28t-58.5 10q-37 0 -68 -14t-55.5 -38t-42.5 -54.5t-28 -63.5h321z" />
    <glyph glyph-name="Ecaron" unicode="&#x11a;" horiz-adv-x="611" 
d="M102 0l153 722h429l-13 -60h-364l-55 -259h350l-13 -60h-350l-60 -283h379l-12 -60h-444zM502 782h-73l-68 145h47l66 -106l113 106h46z" />
    <glyph glyph-name="ecaron" unicode="&#x11b;" 
d="M165 237q-3 -16 -5 -31t-2 -29q0 -30 8 -55t24.5 -43t43 -28.5t63.5 -10.5q27 0 52.5 9t48 25t40.5 38t30 48h63q-43 -91 -108.5 -133t-156.5 -42q-45 0 -77.5 15t-53.5 40.5t-31 60t-10 73.5q0 38 9 77q11 51 35 99t60 85t82.5 59.5t102.5 22.5q49 0 83.5 -13.5
t56.5 -37.5t31.5 -57.5t9.5 -73.5q0 -43 -11 -98h-388zM500 292q3 19 3 36q0 29 -7.5 53.5t-23.5 42.5t-40.5 28t-58.5 10q-37 0 -68 -14t-55.5 -38t-42.5 -54.5t-28 -63.5h321zM433 562h-73l-68 145h47l66 -106l113 106h46z" />
    <glyph glyph-name="Gcircumflex" unicode="&#x11c;" horiz-adv-x="722" 
d="M709 368l-72 -338q-71 -26 -131 -35.5t-126 -9.5q-64 0 -111.5 18t-79 52t-47.5 81.5t-16 106.5q0 53 14 118q15 70 48 137.5t82.5 120.5t114.5 85.5t143 32.5q49 0 91 -12t71 -36.5t43 -60.5t8 -84h-74q4 34 -6 59t-30.5 41.5t-50 24.5t-65.5 8q-65 0 -116 -28.5
t-89 -73.5t-63 -101.5t-37 -112.5q-6 -29 -9.5 -55.5t-3.5 -51.5q0 -47 12.5 -85.5t39 -66t67.5 -42.5t99 -15q42 0 86.5 6.5t79.5 20.5l50 236h-181l13 60h246zM528 927h73l68 -145h-47l-67 106l-112 -106h-46z" />
    <glyph glyph-name="gcircumflex" unicode="&#x11d;" 
d="M481 262q6 27 6 55q0 29 -7 55t-22 46t-38.5 32t-56.5 12q-41 0 -74.5 -18.5t-58.5 -48t-41.5 -65.5t-23.5 -70q-3 -14 -5 -29t-2 -30q0 -28 6.5 -54t21 -46t37.5 -32t56 -12q43 0 77 18t59 47.5t41.5 66t24.5 73.5zM535 502h62q-7 -26 -15 -55t-14 -58l-64 -301
q-8 -37 -17 -75t-25.5 -72t-44 -62.5t-73.5 -47.5q-33 -14 -58.5 -18.5t-60.5 -4.5q-34 0 -68 6.5t-59.5 22t-38.5 41.5t-5 65h65q-2 -23 8.5 -38t28.5 -24.5t41 -13.5t47 -4q30 0 59 10t53.5 28t43 43.5t26.5 57.5l20 94h-2q-16 -22 -37.5 -39.5t-45.5 -29.5t-50 -18.5
t-50 -6.5q-46 0 -78.5 13t-53 36t-30 54.5t-9.5 69.5t9 80q11 51 33 98.5t55 83.5t78.5 58t102.5 22q55 0 90 -24t56 -69l2 4zM385 707h73l68 -145h-47l-67 106l-112 -106h-46z" />
    <glyph glyph-name="Gbreve" unicode="&#x11e;" horiz-adv-x="722" 
d="M709 368l-72 -338q-71 -26 -131 -35.5t-126 -9.5q-64 0 -111.5 18t-79 52t-47.5 81.5t-16 106.5q0 53 14 118q15 70 48 137.5t82.5 120.5t114.5 85.5t143 32.5q49 0 91 -12t71 -36.5t43 -60.5t8 -84h-74q4 34 -6 59t-30.5 41.5t-50 24.5t-65.5 8q-65 0 -116 -28.5
t-89 -73.5t-63 -101.5t-37 -112.5q-6 -29 -9.5 -55.5t-3.5 -51.5q0 -47 12.5 -85.5t39 -66t67.5 -42.5t99 -15q42 0 86.5 6.5t79.5 20.5l50 236h-181l13 60h246zM694 937q-17 -60 -55.5 -84t-92.5 -24q-49 0 -78 26.5t-18 81.5h23q0 -18 7.5 -30t19.5 -19t27 -10t29 -3
q15 0 31.5 3t32.5 10t30 19t23 30h21z" />
    <glyph glyph-name="gbreve" unicode="&#x11f;" 
d="M481 262q6 27 6 55q0 29 -7 55t-22 46t-38.5 32t-56.5 12q-41 0 -74.5 -18.5t-58.5 -48t-41.5 -65.5t-23.5 -70q-3 -14 -5 -29t-2 -30q0 -28 6.5 -54t21 -46t37.5 -32t56 -12q43 0 77 18t59 47.5t41.5 66t24.5 73.5zM535 502h62q-7 -26 -15 -55t-14 -58l-64 -301
q-8 -37 -17 -75t-25.5 -72t-44 -62.5t-73.5 -47.5q-33 -14 -58.5 -18.5t-60.5 -4.5q-34 0 -68 6.5t-59.5 22t-38.5 41.5t-5 65h65q-2 -23 8.5 -38t28.5 -24.5t41 -13.5t47 -4q30 0 59 10t53.5 28t43 43.5t26.5 57.5l20 94h-2q-16 -22 -37.5 -39.5t-45.5 -29.5t-50 -18.5
t-50 -6.5q-46 0 -78.5 13t-53 36t-30 54.5t-9.5 69.5t9 80q11 51 33 98.5t55 83.5t78.5 58t102.5 22q55 0 90 -24t56 -69l2 4zM549 717q-17 -60 -55.5 -84t-92.5 -24q-49 0 -78 26.5t-18 81.5h23q0 -18 7.5 -30t19.5 -19t27 -10t29 -3q15 0 31.5 3t32.5 10t30 19t23 30h21z
" />
    <glyph glyph-name="Gdotaccent" unicode="&#x120;" horiz-adv-x="722" 
d="M709 368l-72 -338q-71 -26 -131 -35.5t-126 -9.5q-64 0 -111.5 18t-79 52t-47.5 81.5t-16 106.5q0 53 14 118q15 70 48 137.5t82.5 120.5t114.5 85.5t143 32.5q49 0 91 -12t71 -36.5t43 -60.5t8 -84h-74q4 34 -6 59t-30.5 41.5t-50 24.5t-65.5 8q-65 0 -116 -28.5
t-89 -73.5t-63 -101.5t-37 -112.5q-6 -29 -9.5 -55.5t-3.5 -51.5q0 -47 12.5 -85.5t39 -66t67.5 -42.5t99 -15q42 0 86.5 6.5t79.5 20.5l50 236h-181l13 60h246zM511 839l19 88h74l-19 -88h-74z" />
    <glyph glyph-name="gdotaccent" unicode="&#x121;" 
d="M481 262q6 27 6 55q0 29 -7 55t-22 46t-38.5 32t-56.5 12q-41 0 -74.5 -18.5t-58.5 -48t-41.5 -65.5t-23.5 -70q-3 -14 -5 -29t-2 -30q0 -28 6.5 -54t21 -46t37.5 -32t56 -12q43 0 77 18t59 47.5t41.5 66t24.5 73.5zM535 502h62q-7 -26 -15 -55t-14 -58l-64 -301
q-8 -37 -17 -75t-25.5 -72t-44 -62.5t-73.5 -47.5q-33 -14 -58.5 -18.5t-60.5 -4.5q-34 0 -68 6.5t-59.5 22t-38.5 41.5t-5 65h65q-2 -23 8.5 -38t28.5 -24.5t41 -13.5t47 -4q30 0 59 10t53.5 28t43 43.5t26.5 57.5l20 94h-2q-16 -22 -37.5 -39.5t-45.5 -29.5t-50 -18.5
t-50 -6.5q-46 0 -78.5 13t-53 36t-30 54.5t-9.5 69.5t9 80q11 51 33 98.5t55 83.5t78.5 58t102.5 22q55 0 90 -24t56 -69l2 4zM362 619l19 88h74l-19 -88h-74z" />
    <glyph glyph-name="Gcommaaccent" unicode="&#x122;" horiz-adv-x="722" 
d="M709 368l-72 -338q-71 -26 -131 -35.5t-126 -9.5q-64 0 -111.5 18t-79 52t-47.5 81.5t-16 106.5q0 53 14 118q15 70 48 137.5t82.5 120.5t114.5 85.5t143 32.5q49 0 91 -12t71 -36.5t43 -60.5t8 -84h-74q4 34 -6 59t-30.5 41.5t-50 24.5t-65.5 8q-65 0 -116 -28.5
t-89 -73.5t-63 -101.5t-37 -112.5q-6 -29 -9.5 -55.5t-3.5 -51.5q0 -47 12.5 -85.5t39 -66t67.5 -42.5t99 -15q42 0 86.5 6.5t79.5 20.5l50 236h-181l13 60h246zM394 -74l-90 -145h-43l66 145h67z" />
    <glyph glyph-name="gcommaaccent" unicode="&#x123;" 
d="M481 262q6 27 6 55q0 29 -7 55t-22 46t-38.5 32t-56.5 12q-41 0 -74.5 -18.5t-58.5 -48t-41.5 -65.5t-23.5 -70q-3 -14 -5 -29t-2 -30q0 -28 6.5 -54t21 -46t37.5 -32t56 -12q43 0 77 18t59 47.5t41.5 66t24.5 73.5zM535 502h62q-7 -26 -15 -55t-14 -58l-64 -301
q-8 -37 -17 -75t-25.5 -72t-44 -62.5t-73.5 -47.5q-33 -14 -58.5 -18.5t-60.5 -4.5q-34 0 -68 6.5t-59.5 22t-38.5 41.5t-5 65h65q-2 -23 8.5 -38t28.5 -24.5t41 -13.5t47 -4q30 0 59 10t53.5 28t43 43.5t26.5 57.5l20 94h-2q-16 -22 -37.5 -39.5t-45.5 -29.5t-50 -18.5
t-50 -6.5q-46 0 -78.5 13t-53 36t-30 54.5t-9.5 69.5t9 80q11 51 33 98.5t55 83.5t78.5 58t102.5 22q55 0 90 -24t56 -69l2 4zM352 564l90 145h43l-66 -145h-67z" />
    <glyph glyph-name="Hcircumflex" unicode="&#x124;" horiz-adv-x="722" 
d="M99 0l153 722h65l-67 -317h394l67 317h65l-153 -722h-65l73 345h-394l-73 -345h-65zM520 927h73l68 -145h-47l-67 106l-112 -106h-46z" />
    <glyph glyph-name="hcircumflex" unicode="&#x125;" 
d="M230 426h2q36 48 81.5 69.5t94.5 21.5q44 0 71.5 -12.5t43.5 -32t21.5 -44t5.5 -48.5q0 -19 -2.5 -36t-5.5 -30l-66 -314h-60l68 324q2 11 3.5 21t1.5 20q0 47 -27.5 72t-79.5 25q-37 0 -67.5 -14.5t-53.5 -38.5t-38 -55t-22 -65l-61 -289h-60l153 722h60zM283 906h73
l68 -145h-47l-67 106l-112 -106h-46z" />
    <glyph glyph-name="Hbar" unicode="&#x126;" horiz-adv-x="722" 
d="M99 0l153 722h65l-39 -185h394l39 185h65l-153 -722h-65l73 345h-394l-73 -345h-65zM644 405l19 90h-394l-19 -90h394z" />
    <glyph glyph-name="hbar" unicode="&#x127;" 
d="M271 620h126l-8 -37h-126l-33 -157h2q36 48 81.5 69.5t94.5 21.5q44 0 71.5 -12.5t43.5 -32t21.5 -44t5.5 -48.5q0 -19 -2.5 -36t-5.5 -30l-66 -314h-60l68 324q2 11 3.5 21t1.5 20q0 47 -27.5 72t-79.5 25q-37 0 -67.5 -14.5t-53.5 -38.5t-38 -55t-22 -65l-61 -289h-60
l123 583h-73l8 37h73l22 102h60z" />
    <glyph glyph-name="Itilde" unicode="&#x128;" horiz-adv-x="278" 
d="M107 0l153 722h65l-153 -722h-65zM461 915q-15 -34 -43 -59.5t-66 -25.5q-11 0 -21.5 3t-21.5 8q-10 4 -22.5 7t-28.5 3q-15 0 -30.5 -7t-23.5 -22h-38q18 42 50.5 64.5t74.5 15.5q7 -1 17 -4t21 -7q11 -3 21 -6t16 -3q17 0 32.5 8.5t24.5 24.5h38z" />
    <glyph glyph-name="itilde" unicode="&#x129;" horiz-adv-x="222" 
d="M81 0l106 502h60l-106 -502h-60zM398 695q-15 -34 -43 -59.5t-66 -25.5q-11 0 -21.5 3t-21.5 8q-10 4 -22.5 7t-28.5 3q-15 0 -30.5 -7t-23.5 -22h-38q18 42 50.5 64.5t74.5 15.5q7 -1 17 -4t21 -7q11 -3 21 -6t16 -3q17 0 32.5 8.5t24.5 24.5h38z" />
    <glyph glyph-name="Imacron" unicode="&#x12a;" horiz-adv-x="278" 
d="M107 0l153 722h65l-153 -722h-65zM187 843l11 50h245l-11 -50h-245z" />
    <glyph glyph-name="imacron" unicode="&#x12b;" horiz-adv-x="222" 
d="M81 0l106 502h60l-106 -502h-60zM123 623l11 50h245l-11 -50h-245z" />
    <glyph glyph-name="Iogonek" unicode="&#x12e;" horiz-adv-x="278" 
d="M146 -168q-15 -5 -33.5 -9.5t-38.5 -4.5q-14 0 -28.5 3t-26 11.5t-17 22.5t-0.5 37q4 21 16.5 38t29.5 30t36.5 23t36.5 17h-14l153 722h65l-153 -722h-11q-49 -27 -77 -49t-35 -54q-3 -14 0 -22t10 -12.5t15 -6t16 -1.5q18 0 32 3t31 8z" />
    <glyph glyph-name="iogonek" unicode="&#x12f;" horiz-adv-x="222" 
d="M120 -168q-15 -5 -33.5 -9.5t-38.5 -4.5q-14 0 -28.5 3t-25.5 11.5t-16.5 22.5t-0.5 37q4 21 16.5 38t29.5 30t36 23t36 17h-14l106 502h60l-106 -502h-6q-49 -27 -77 -49t-35 -54q-3 -14 0 -22t10 -12.5t15 -6t16 -1.5q18 0 32 3t31 8zM283 647h-70l16 75h70z" />
    <glyph glyph-name="Idotaccent" unicode="&#x130;" horiz-adv-x="278" 
d="M107 0l153 722h65l-153 -722h-65zM278 839l19 88h74l-19 -88h-74z" />
    <glyph glyph-name="dotlessi" unicode="&#x131;" horiz-adv-x="222" 
d="M81 0l106 502h60l-106 -502h-60z" />
    <glyph glyph-name="IJ" unicode="&#x132;" horiz-adv-x="765" 
d="M107 0l153 722h65l-153 -722h-65zM385 178q-3 -21 -3 -38q0 -45 24 -70t81 -25q40 0 69.5 15t50 40t33 57.5t19.5 67.5l106 497h65l-106 -500q-10 -45 -28.5 -87.5t-49.5 -76t-75.5 -53.5t-105.5 -20q-42 0 -71.5 11t-47.5 30.5t-26.5 46.5t-8.5 59q0 11 1 22.5t3 23.5
h70z" />
    <glyph glyph-name="ij" unicode="&#x133;" horiz-adv-x="423" 
d="M247 502l-106 -502h-60l106 502h60zM283 647h-70l16 75h70zM175 -137q33 0 50 5.5t26.5 22t16 46.5t17.5 80l103 485h60l-111 -524q-11 -48 -20.5 -81.5t-26.5 -53.5t-46.5 -28.5t-79.5 -6.5zM484 647h-70l16 75h70z" />
    <glyph glyph-name="Jcircumflex" unicode="&#x134;" horiz-adv-x="500" 
d="M120 178q-3 -21 -3 -38q0 -45 24 -70t81 -25q40 0 69.5 15t50 40t33 57.5t19.5 67.5l106 497h65l-106 -500q-10 -45 -28.5 -87.5t-49.5 -76t-75.5 -53.5t-105.5 -20q-42 0 -71.5 11t-47.5 30.5t-26.5 46.5t-8.5 59q0 11 1 22.5t3 23.5h70zM526 927h73l68 -145h-47
l-67 106l-112 -106h-46z" />
    <glyph glyph-name="jcircumflex" unicode="&#x135;" horiz-adv-x="222" 
d="M-26 -137q33 0 50 5.5t26.5 22t16 46.5t17.5 80l103 485h60l-111 -524q-11 -48 -20.5 -81.5t-26.5 -53.5t-46.5 -28.5t-79.5 -6.5zM226 707h73l68 -145h-47l-67 106l-112 -106h-46z" />
    <glyph glyph-name="Kcommaaccent" unicode="&#x136;" horiz-adv-x="611" 
d="M106 0l153 722h64l-67 -318l391 318h82l-402 -326l279 -396h-89l-266 377l-81 -377h-64zM359 -74l-90 -145h-43l66 145h67z" />
    <glyph glyph-name="kcommaaccent" unicode="&#x137;" horiz-adv-x="500" 
d="M209 297l286 205h77l-300 -217l214 -285h-76l-207 272l-57 -272h-60l153 722h60zM281 -74l-90 -145h-43l66 145h67z" />
    <glyph glyph-name="Lacute" unicode="&#x139;" 
d="M100 0l153 722h65l-141 -662h363l-12 -60h-428zM466 927l-158 -143h-44l122 143h80z" />
    <glyph glyph-name="lacute" unicode="&#x13a;" horiz-adv-x="222" 
d="M141 0h-60l153 722h60zM443 898l-158 -143h-44l122 143h80z" />
    <glyph glyph-name="Lcommaaccent" unicode="&#x13b;" 
d="M100 0l153 722h65l-141 -662h363l-12 -60h-428zM341 -74l-90 -145h-43l66 145h67z" />
    <glyph glyph-name="lcommaaccent" unicode="&#x13c;" horiz-adv-x="222" 
d="M141 0h-60l153 722h60zM135 -74l-90 -145h-43l66 145h67z" />
    <glyph glyph-name="Lcaron" unicode="&#x13d;" 
d="M100 0l153 722h65l-141 -662h363l-12 -60h-428zM590 722l-95 -146h-40l69 146h66z" />
    <glyph glyph-name="lcaron" unicode="&#x13e;" horiz-adv-x="222" 
d="M141 0h-60l153 722h60zM465 722l-95 -146h-40l69 146h66z" />
    <glyph glyph-name="Ldot" unicode="&#x13f;" 
d="M100 0l153 722h65l-141 -662h363l-12 -60h-428zM440 362l19 88h74l-19 -88h-74z" />
    <glyph glyph-name="ldot" unicode="&#x140;" horiz-adv-x="311" 
d="M141 0h-60l153 722h60zM298 340l19 88h74l-19 -88h-74z" />
    <glyph glyph-name="Lslash" unicode="&#x141;" 
d="M100 0l84 399l-102 -37l9 40l102 37l60 283h65l-55 -257l102 37l-8 -40l-102 -37l-78 -365h363l-12 -60h-428z" />
    <glyph glyph-name="lslash" unicode="&#x142;" horiz-adv-x="222" 
d="M294 722l-53 -250l82 30l-7 -34l-83 -31l-92 -437h-60l87 413l-82 -30l7 34l83 31l58 274h60z" />
    <glyph glyph-name="Nacute" unicode="&#x143;" horiz-adv-x="722" 
d="M245 722h74l263 -635h2l135 635h65l-153 -722h-82l-258 624h-2l-132 -624h-65zM695 927l-158 -143h-44l122 143h80z" />
    <glyph glyph-name="nacute" unicode="&#x144;" 
d="M140 0h-60l82 389q6 29 10.5 58t8.5 55h62l-13 -74l2 -2q36 48 81.5 69.5t94.5 21.5q44 0 71.5 -12.5t43.5 -32t21.5 -44t5.5 -48.5q0 -19 -2.5 -36t-5.5 -30l-66 -314h-60l68 324q2 11 3.5 21t1.5 20q0 47 -27.5 72t-79.5 25q-37 0 -67.5 -14.5t-53.5 -38.5t-38 -55
t-22 -65zM562 707l-158 -143h-44l122 143h80z" />
    <glyph glyph-name="Ncommaaccent" unicode="&#x145;" horiz-adv-x="722" 
d="M245 722h74l263 -635h2l135 635h65l-153 -722h-82l-258 624h-2l-132 -624h-65zM407 -74l-90 -145h-43l66 145h67z" />
    <glyph glyph-name="ncommaaccent" unicode="&#x146;" 
d="M140 0h-60l82 389q6 29 10.5 58t8.5 55h62l-13 -74l2 -2q36 48 81.5 69.5t94.5 21.5q44 0 71.5 -12.5t43.5 -32t21.5 -44t5.5 -48.5q0 -19 -2.5 -36t-5.5 -30l-66 -314h-60l68 324q2 11 3.5 21t1.5 20q0 47 -27.5 72t-79.5 25q-37 0 -67.5 -14.5t-53.5 -38.5t-38 -55
t-22 -65zM299 -74l-90 -145h-43l66 145h67z" />
    <glyph glyph-name="Ncaron" unicode="&#x147;" horiz-adv-x="722" 
d="M245 722h74l263 -635h2l135 635h65l-153 -722h-82l-258 624h-2l-132 -624h-65zM552 782h-73l-68 145h47l66 -106l113 106h46z" />
    <glyph glyph-name="ncaron" unicode="&#x148;" 
d="M140 0h-60l82 389q6 29 10.5 58t8.5 55h62l-13 -74l2 -2q36 48 81.5 69.5t94.5 21.5q44 0 71.5 -12.5t43.5 -32t21.5 -44t5.5 -48.5q0 -19 -2.5 -36t-5.5 -30l-66 -314h-60l68 324q2 11 3.5 21t1.5 20q0 47 -27.5 72t-79.5 25q-37 0 -67.5 -14.5t-53.5 -38.5t-38 -55
t-22 -65zM434 562h-73l-68 145h47l66 -106l113 106h46z" />
    <glyph glyph-name="napostrophe" unicode="&#x149;" 
d="M140 0h-60l82 389q6 29 10.5 58t8.5 55h62l-13 -74l2 -2q36 48 81.5 69.5t94.5 21.5q44 0 71.5 -12.5t43.5 -32t21.5 -44t5.5 -48.5q0 -19 -2.5 -36t-5.5 -30l-66 -314h-60l68 324q2 11 3.5 21t1.5 20q0 47 -27.5 72t-79.5 25q-37 0 -67.5 -14.5t-53.5 -38.5t-38 -55
t-22 -65zM293 722l-95 -146h-40l69 146h66z" />
    <glyph glyph-name="Omacron" unicode="&#x14c;" horiz-adv-x="778" 
d="M213 361q-10 -47 -10 -97q0 -45 10.5 -85t33.5 -69.5t60.5 -47t90.5 -17.5q67 0 121 27t94 71.5t66 101.5t38 116q5 26 8.5 51t3.5 49q0 45 -11 84t-34.5 68.5t-61 46.5t-90.5 17q-68 0 -121.5 -27t-93 -71.5t-65.5 -101.5t-39 -116zM787 361q-18 -84 -54 -153.5
t-87.5 -119t-117 -76.5t-143.5 -27q-63 0 -111 18.5t-80 52t-48 81.5t-16 108q0 27 3 56t10 60q18 84 54 153.5t87.5 119t117 76.5t143.5 27q63 0 111 -18.5t80 -52t48 -81.5t16 -108q0 -27 -3 -56t-10 -60zM446 843l11 50h245l-11 -50h-245z" />
    <glyph glyph-name="omacron" unicode="&#x14d;" 
d="M500 251q6 28 6 60q0 29 -6.5 56.5t-22 48.5t-40.5 33.5t-61 12.5q-45 0 -81.5 -20t-63.5 -50.5t-44.5 -68t-24.5 -72.5q-3 -14 -5 -29t-2 -30q0 -29 7 -56.5t23 -48.5t40.5 -34t60.5 -13q46 0 82 20t63 50.5t44 68t25 72.5zM387 517q49 0 84.5 -15.5t57.5 -42.5
t32.5 -62.5t10.5 -75.5q0 -36 -7 -70q-11 -50 -35 -97.5t-61 -85t-86 -60.5t-109 -23q-49 0 -84 15.5t-57.5 42t-33 62t-10.5 74.5q0 34 8 72q10 49 34.5 97t61 85.5t85.5 60.5t109 23zM289 623l11 50h245l-11 -50h-245z" />
    <glyph glyph-name="Obreve" unicode="&#x14e;" horiz-adv-x="778" 
d="M213 361q-10 -47 -10 -97q0 -45 10.5 -85t33.5 -69.5t60.5 -47t90.5 -17.5q67 0 121 27t94 71.5t66 101.5t38 116q5 26 8.5 51t3.5 49q0 45 -11 84t-34.5 68.5t-61 46.5t-90.5 17q-68 0 -121.5 -27t-93 -71.5t-65.5 -101.5t-39 -116zM787 361q-18 -84 -54 -153.5
t-87.5 -119t-117 -76.5t-143.5 -27q-63 0 -111 18.5t-80 52t-48 81.5t-16 108q0 27 3 56t10 60q18 84 54 153.5t87.5 119t117 76.5t143.5 27q63 0 111 -18.5t80 -52t48 -81.5t16 -108q0 -27 -3 -56t-10 -60zM710 937q-17 -60 -55.5 -84t-92.5 -24q-49 0 -78 26.5t-18 81.5
h23q0 -18 7.5 -30t19.5 -19t27 -10t29 -3q15 0 31.5 3t32.5 10t30 19t23 30h21z" />
    <glyph glyph-name="obreve" unicode="&#x14f;" 
d="M500 251q6 28 6 60q0 29 -6.5 56.5t-22 48.5t-40.5 33.5t-61 12.5q-45 0 -81.5 -20t-63.5 -50.5t-44.5 -68t-24.5 -72.5q-3 -14 -5 -29t-2 -30q0 -29 7 -56.5t23 -48.5t40.5 -34t60.5 -13q46 0 82 20t63 50.5t44 68t25 72.5zM387 517q49 0 84.5 -15.5t57.5 -42.5
t32.5 -62.5t10.5 -75.5q0 -36 -7 -70q-11 -50 -35 -97.5t-61 -85t-86 -60.5t-109 -23q-49 0 -84 15.5t-57.5 42t-33 62t-10.5 74.5q0 34 8 72q10 49 34.5 97t61 85.5t85.5 60.5t109 23zM553 717q-17 -60 -55.5 -84t-92.5 -24q-49 0 -78 26.5t-18 81.5h23q0 -18 7.5 -30
t19.5 -19t27 -10t29 -3q15 0 31.5 3t32.5 10t30 19t23 30h21z" />
    <glyph glyph-name="Ohungarumlaut" unicode="&#x150;" horiz-adv-x="778" 
d="M213 361q-10 -47 -10 -97q0 -45 10.5 -85t33.5 -69.5t60.5 -47t90.5 -17.5q67 0 121 27t94 71.5t66 101.5t38 116q5 26 8.5 51t3.5 49q0 45 -11 84t-34.5 68.5t-61 46.5t-90.5 17q-68 0 -121.5 -27t-93 -71.5t-65.5 -101.5t-39 -116zM787 361q-18 -84 -54 -153.5
t-87.5 -119t-117 -76.5t-143.5 -27q-63 0 -111 18.5t-80 52t-48 81.5t-16 108q0 27 3 56t10 60q18 84 54 153.5t87.5 119t117 76.5t143.5 27q63 0 111 -18.5t80 -52t48 -81.5t16 -108q0 -27 -3 -56t-10 -60zM589 927h81l-159 -141h-47zM720 927h81l-159 -141h-47z" />
    <glyph glyph-name="ohungarumlaut" unicode="&#x151;" 
d="M500 251q6 28 6 60q0 29 -6.5 56.5t-22 48.5t-40.5 33.5t-61 12.5q-45 0 -81.5 -20t-63.5 -50.5t-44.5 -68t-24.5 -72.5q-3 -14 -5 -29t-2 -30q0 -29 7 -56.5t23 -48.5t40.5 -34t60.5 -13q46 0 82 20t63 50.5t44 68t25 72.5zM387 517q49 0 84.5 -15.5t57.5 -42.5
t32.5 -62.5t10.5 -75.5q0 -36 -7 -70q-11 -50 -35 -97.5t-61 -85t-86 -60.5t-109 -23q-49 0 -84 15.5t-57.5 42t-33 62t-10.5 74.5q0 34 8 72q10 49 34.5 97t61 85.5t85.5 60.5t109 23zM422 707h81l-159 -141h-47zM553 707h81l-159 -141h-47z" />
    <glyph glyph-name="OE" unicode="&#x152;" horiz-adv-x="1000" 
d="M207 361q-11 -53 -11 -101q0 -44 10 -83.5t31 -68.5t54.5 -46t80.5 -17q90 3 150 47t77 129l54 253q9 40 9 72q0 70 -40.5 100.5t-115.5 30.5q-60 0 -109.5 -27t-87 -71.5t-63.5 -101.5t-39 -116zM569 69h-4q-42 -44 -98.5 -64t-107.5 -20q-57 0 -101 18t-74 51.5
t-45 81.5t-15 107q0 57 13 118q18 84 53.5 153.5t85 119t111 76.5t132.5 27q52 0 96.5 -16t79.5 -62l13 63h376l-13 -60h-311l-55 -259h297l-13 -60h-297l-60 -283h326l-12 -60h-391z" />
    <glyph glyph-name="oe" unicode="&#x153;" horiz-adv-x="889" 
d="M479 256q8 37 8 70q0 27 -6 51.5t-19.5 43.5t-37 30t-57.5 11q-42 0 -76.5 -20t-60.5 -50.5t-43.5 -68t-24.5 -72.5q-3 -14 -5 -29.5t-2 -30.5q0 -29 6.5 -56t21.5 -48t38 -34t56 -13q46 0 80.5 19.5t59 50.5t39.5 69.5t23 76.5zM837 292q3 16 5 31t2 29q0 49 -25.5 79.5
t-87.5 30.5q-34 0 -64 -15t-54 -39.5t-40 -55t-21 -60.5h285zM540 237q-4 -16 -5.5 -31.5t-1.5 -30.5q0 -27 6.5 -51.5t20 -43t35 -29.5t52.5 -11q116 0 158 120h63q-38 -94 -97 -134.5t-135 -40.5q-28 0 -53.5 6.5t-46.5 21.5t-35.5 38.5t-20.5 58.5h-2q-36 -63 -93.5 -94
t-120.5 -31q-48 0 -81.5 15t-54.5 40.5t-30.5 59.5t-9.5 72t9 79q10 49 33.5 97t59.5 85.5t84 60.5t108 23q61 0 104.5 -31t52.5 -94q46 69 101.5 97t104.5 28q44 0 74.5 -12t49 -34t26.5 -52.5t8 -67.5q0 -26 -3.5 -54.5t-9.5 -59.5h-350z" />
    <glyph glyph-name="Racute" unicode="&#x154;" horiz-adv-x="667" 
d="M392 404q35 0 72 3t69.5 15.5t57.5 38.5t35 72q4 17 4 36q0 33 -14 51.5t-35 27.5t-46.5 11.5t-49.5 2.5h-31h-146l-55 -258h139zM168 0h-65l153 722h236q48 0 87 -6t75 -32q48 -35 48 -100q0 -24 -6 -51q-13 -60 -59.5 -99.5t-112.5 -55.5l-1 -2q54 -10 72 -40t18 -75
q0 -22 -3 -46q-6 -56 -11.5 -95t-5.5 -67q0 -16 2 -29t8 -24h-75q-3 22 -3 46q0 26 2.5 52t6.5 52q4 34 6.5 60.5t2.5 46.5q0 27 -5.5 43.5t-19.5 26.5t-38 13.5t-60 3.5h-179zM643 927l-158 -143h-44l122 143h80z" />
    <glyph glyph-name="racute" unicode="&#x155;" horiz-adv-x="333" 
d="M140 0h-60l82 389q7 29 12 58t7 55h62l-13 -74h2q22 38 62.5 63.5t91.5 25.5q15 0 23.5 -0.5t14.5 -2.5l-12 -56q-15 4 -36 4q-67 0 -111 -44t-61 -116zM440 707l-158 -143h-44l122 143h80z" />
    <glyph glyph-name="Rcommaaccent" unicode="&#x156;" horiz-adv-x="667" 
d="M392 404q35 0 72 3t69.5 15.5t57.5 38.5t35 72q4 17 4 36q0 33 -14 51.5t-35 27.5t-46.5 11.5t-49.5 2.5h-31h-146l-55 -258h139zM168 0h-65l153 722h236q48 0 87 -6t75 -32q48 -35 48 -100q0 -24 -6 -51q-13 -60 -59.5 -99.5t-112.5 -55.5l-1 -2q54 -10 72 -40t18 -75
q0 -22 -3 -46q-6 -56 -11.5 -95t-5.5 -67q0 -16 2 -29t8 -24h-75q-3 22 -3 46q0 26 2.5 52t6.5 52q4 34 6.5 60.5t2.5 46.5q0 27 -5.5 43.5t-19.5 26.5t-38 13.5t-60 3.5h-179zM383 -74l-90 -145h-43l66 145h67z" />
    <glyph glyph-name="rcommaaccent" unicode="&#x157;" horiz-adv-x="333" 
d="M140 0h-60l82 389q7 29 12 58t7 55h62l-13 -74h2q22 38 62.5 63.5t91.5 25.5q15 0 23.5 -0.5t14.5 -2.5l-12 -56q-15 4 -36 4q-67 0 -111 -44t-61 -116zM135 -74l-90 -145h-43l66 145h67z" />
    <glyph glyph-name="Rcaron" unicode="&#x158;" horiz-adv-x="667" 
d="M392 404q35 0 72 3t69.5 15.5t57.5 38.5t35 72q4 17 4 36q0 33 -14 51.5t-35 27.5t-46.5 11.5t-49.5 2.5h-31h-146l-55 -258h139zM168 0h-65l153 722h236q48 0 87 -6t75 -32q48 -35 48 -100q0 -24 -6 -51q-13 -60 -59.5 -99.5t-112.5 -55.5l-1 -2q54 -10 72 -40t18 -75
q0 -22 -3 -46q-6 -56 -11.5 -95t-5.5 -67q0 -16 2 -29t8 -24h-75q-3 22 -3 46q0 26 2.5 52t6.5 52q4 34 6.5 60.5t2.5 46.5q0 27 -5.5 43.5t-19.5 26.5t-38 13.5t-60 3.5h-179zM531 782h-73l-68 145h47l66 -106l113 106h46z" />
    <glyph glyph-name="rcaron" unicode="&#x159;" horiz-adv-x="333" 
d="M140 0h-60l82 389q7 29 12 58t7 55h62l-13 -74h2q22 38 62.5 63.5t91.5 25.5q15 0 23.5 -0.5t14.5 -2.5l-12 -56q-15 4 -36 4q-67 0 -111 -44t-61 -116zM312 562h-73l-68 145h47l66 -106l113 106h46z" />
    <glyph glyph-name="Sacute" unicode="&#x15a;" horiz-adv-x="611" 
d="M594 193q-12 -54 -41.5 -93t-70 -64.5t-90 -38t-101.5 -12.5q-42 0 -78.5 9t-63.5 28t-42 48.5t-15 70.5q0 19 5 47h70q-2 -10 -3 -18.5t-1 -16.5q0 -31 12 -52t33 -33.5t49.5 -17.5t60.5 -5q30 0 63 8t61.5 25t50 44t29.5 65q3 15 3 29q0 24 -11 41.5t-30.5 31t-48 24
t-62.5 22.5q-42 14 -76.5 29t-59.5 33.5t-38.5 43.5t-13.5 58q0 18 5 43q10 47 37.5 83.5t65 61t81.5 37.5t87 13q39 0 75.5 -6t64 -22t44.5 -43.5t17 -69.5v-15.5t-2 -15.5h-70q6 33 -4 55t-29.5 34.5t-46 17.5t-54.5 5q-29 0 -60 -7.5t-58.5 -22.5t-48 -39t-27.5 -57
q-3 -17 -3 -30q0 -27 12.5 -46t33 -33t47 -24t55.5 -20q34 -13 68.5 -26t61.5 -31t44 -44t17 -65q0 -20 -4 -39zM644 927l-158 -143h-44l122 143h80z" />
    <glyph glyph-name="sacute" unicode="&#x15b;" horiz-adv-x="500" 
d="M143 377q8 39 30 65.5t51.5 43t64 24t67.5 7.5q36 0 66.5 -7t51.5 -23t31 -42.5t5 -66.5h-65q3 24 -4.5 40t-22.5 25.5t-35.5 14t-43.5 4.5q-21 0 -42.5 -4.5t-39.5 -14t-31 -25t-18 -37.5q-6 -28 8 -42.5t43 -24.5t70 -20t88 -28q36 -14 52.5 -44.5t7.5 -72.5t-33.5 -73
t-58.5 -51.5t-74 -30t-80 -9.5q-30 0 -58.5 6.5t-51 20.5t-36 37t-13.5 56q0 15 3 32h65q-4 -28 4.5 -46.5t25 -30t39.5 -16t49 -4.5q24 0 48.5 6t45.5 18t36.5 31t21.5 45q6 27 -4 44t-30.5 27.5t-47.5 17t-55 13.5q-25 6 -49 13.5t-43 19.5t-30.5 29.5t-11.5 43.5
q0 7 1 14t3 15zM517 707l-158 -143h-44l122 143h80z" />
    <glyph glyph-name="Scircumflex" unicode="&#x15c;" horiz-adv-x="611" 
d="M594 193q-12 -54 -41.5 -93t-70 -64.5t-90 -38t-101.5 -12.5q-42 0 -78.5 9t-63.5 28t-42 48.5t-15 70.5q0 19 5 47h70q-2 -10 -3 -18.5t-1 -16.5q0 -31 12 -52t33 -33.5t49.5 -17.5t60.5 -5q30 0 63 8t61.5 25t50 44t29.5 65q3 15 3 29q0 24 -11 41.5t-30.5 31t-48 24
t-62.5 22.5q-42 14 -76.5 29t-59.5 33.5t-38.5 43.5t-13.5 58q0 18 5 43q10 47 37.5 83.5t65 61t81.5 37.5t87 13q39 0 75.5 -6t64 -22t44.5 -43.5t17 -69.5v-15.5t-2 -15.5h-70q6 33 -4 55t-29.5 34.5t-46 17.5t-54.5 5q-29 0 -60 -7.5t-58.5 -22.5t-48 -39t-27.5 -57
q-3 -17 -3 -30q0 -27 12.5 -46t33 -33t47 -24t55.5 -20q34 -13 68.5 -26t61.5 -31t44 -44t17 -65q0 -20 -4 -39zM472 927h73l68 -145h-47l-67 106l-112 -106h-46z" />
    <glyph glyph-name="scircumflex" unicode="&#x15d;" horiz-adv-x="500" 
d="M143 377q8 39 30 65.5t51.5 43t64 24t67.5 7.5q36 0 66.5 -7t51.5 -23t31 -42.5t5 -66.5h-65q3 24 -4.5 40t-22.5 25.5t-35.5 14t-43.5 4.5q-21 0 -42.5 -4.5t-39.5 -14t-31 -25t-18 -37.5q-6 -28 8 -42.5t43 -24.5t70 -20t88 -28q36 -14 52.5 -44.5t7.5 -72.5t-33.5 -73
t-58.5 -51.5t-74 -30t-80 -9.5q-30 0 -58.5 6.5t-51 20.5t-36 37t-13.5 56q0 15 3 32h65q-4 -28 4.5 -46.5t25 -30t39.5 -16t49 -4.5q24 0 48.5 6t45.5 18t36.5 31t21.5 45q6 27 -4 44t-30.5 27.5t-47.5 17t-55 13.5q-25 6 -49 13.5t-43 19.5t-30.5 29.5t-11.5 43.5
q0 7 1 14t3 15zM361 707h73l68 -145h-47l-67 106l-112 -106h-46z" />
    <glyph glyph-name="Scedilla" unicode="&#x15e;" horiz-adv-x="611" 
d="M184 -144q37 -12 72 -12q22 0 43 7.5t26 33.5q4 22 -11 29t-33 7h-14.5t-15.5 -2l35 66q-41 1 -76.5 10.5t-61.5 28.5t-41 48t-15 69q0 19 5 47h70q-2 -10 -3 -18.5t-1 -16.5q0 -31 12 -52t33 -33.5t49.5 -17.5t60.5 -5q30 0 63 8t61.5 25t50 44t29.5 65q3 15 3 29
q0 24 -11 41.5t-30.5 31t-48 24t-62.5 22.5q-42 14 -76.5 29t-59.5 33.5t-38.5 43.5t-13.5 58q0 18 5 43q10 47 37.5 83.5t65 61t81.5 37.5t87 13q39 0 75.5 -6t64 -22t44.5 -43.5t17 -69.5v-15.5t-2 -15.5h-70q6 33 -4 55t-29.5 34.5t-46 17.5t-54.5 5q-29 0 -60 -7.5
t-58.5 -22.5t-48 -39t-27.5 -57q-3 -17 -3 -30q0 -27 12.5 -46t33 -33t47 -24t55.5 -20q34 -13 68.5 -26t61.5 -31t44 -44t17 -65q0 -20 -4 -39q-11 -52 -38 -89.5t-65 -62.5t-84 -38.5t-95 -16.5l-18 -36q19 0 36.5 -2.5t30.5 -9.5t19 -19t2 -31q-5 -21 -20 -35t-34 -22
t-39 -11t-35 -3q-45 0 -83 11z" />
    <glyph glyph-name="scedilla" unicode="&#x15f;" horiz-adv-x="500" 
d="M128 -144q37 -12 72 -12q22 0 43 7.5t26 33.5q4 22 -11 29t-33 7h-14.5t-15.5 -2l35 66q-29 0 -57.5 6.5t-51 20.5t-36 37t-13.5 56q0 15 3 32h65q-4 -28 4.5 -46.5t25 -30t39.5 -16t49 -4.5q24 0 48.5 6t45.5 18t36.5 31t21.5 45q6 27 -4 44t-30.5 27.5t-47.5 17
t-55 13.5q-25 6 -49 13.5t-43 19.5t-30.5 29.5t-11.5 43.5q0 7 1 14t3 15q8 39 30 65.5t51.5 43t64 24t67.5 7.5q36 0 66.5 -7t51.5 -23t31 -42.5t5 -66.5h-65q3 24 -4.5 40t-22.5 25.5t-35.5 14t-43.5 4.5q-21 0 -42.5 -4.5t-39.5 -14t-31 -25t-18 -37.5q-6 -28 8 -42.5
t43 -24.5t70 -20t88 -28q36 -14 52.5 -44.5t7.5 -72.5q-8 -39 -30 -68.5t-52 -49.5t-66 -31t-73 -14l-18 -36q19 0 36.5 -2.5t30.5 -9.5t19 -19t2 -31q-5 -21 -20 -35t-34 -22t-39 -11t-35 -3q-45 0 -83 11z" />
    <glyph glyph-name="Scaron" unicode="&#x160;" horiz-adv-x="611" 
d="M594 193q-12 -54 -41.5 -93t-70 -64.5t-90 -38t-101.5 -12.5q-42 0 -78.5 9t-63.5 28t-42 48.5t-15 70.5q0 19 5 47h70q-2 -10 -3 -18.5t-1 -16.5q0 -31 12 -52t33 -33.5t49.5 -17.5t60.5 -5q30 0 63 8t61.5 25t50 44t29.5 65q3 15 3 29q0 24 -11 41.5t-30.5 31t-48 24
t-62.5 22.5q-42 14 -76.5 29t-59.5 33.5t-38.5 43.5t-13.5 58q0 18 5 43q10 47 37.5 83.5t65 61t81.5 37.5t87 13q39 0 75.5 -6t64 -22t44.5 -43.5t17 -69.5v-15.5t-2 -15.5h-70q6 33 -4 55t-29.5 34.5t-46 17.5t-54.5 5q-29 0 -60 -7.5t-58.5 -22.5t-48 -39t-27.5 -57
q-3 -17 -3 -30q0 -27 12.5 -46t33 -33t47 -24t55.5 -20q34 -13 68.5 -26t61.5 -31t44 -44t17 -65q0 -20 -4 -39zM508 782h-73l-68 145h47l66 -106l113 106h46z" />
    <glyph glyph-name="scaron" unicode="&#x161;" horiz-adv-x="500" 
d="M143 377q8 39 30 65.5t51.5 43t64 24t67.5 7.5q36 0 66.5 -7t51.5 -23t31 -42.5t5 -66.5h-65q3 24 -4.5 40t-22.5 25.5t-35.5 14t-43.5 4.5q-21 0 -42.5 -4.5t-39.5 -14t-31 -25t-18 -37.5q-6 -28 8 -42.5t43 -24.5t70 -20t88 -28q36 -14 52.5 -44.5t7.5 -72.5t-33.5 -73
t-58.5 -51.5t-74 -30t-80 -9.5q-30 0 -58.5 6.5t-51 20.5t-36 37t-13.5 56q0 15 3 32h65q-4 -28 4.5 -46.5t25 -30t39.5 -16t49 -4.5q24 0 48.5 6t45.5 18t36.5 31t21.5 45q6 27 -4 44t-30.5 27.5t-47.5 17t-55 13.5q-25 6 -49 13.5t-43 19.5t-30.5 29.5t-11.5 43.5
q0 7 1 14t3 15zM405 562h-73l-68 145h47l66 -106l113 106h46z" />
    <glyph glyph-name="Tcommaaccent" unicode="&#x162;" 
d="M387 662h-233l13 60h528l-13 -60h-229l-141 -662h-64zM300 -74l-90 -145h-43l66 145h67z" />
    <glyph glyph-name="tcommaaccent" unicode="&#x163;" horiz-adv-x="333" 
d="M218 447h-100l11 55h100l23 107l65 26l-28 -133h114l-11 -55h-114l-72 -336q-17 -71 54 -71q14 0 27 1t26 5l-11 -52q-15 -4 -31.5 -6.5t-31.5 -2.5q-30 0 -49.5 5.5t-30.5 15t-15.5 23t-4.5 28.5q0 18 4 38t8 39zM201 -74l-90 -145h-43l66 145h67z" />
    <glyph glyph-name="Tcaron" unicode="&#x164;" 
d="M387 662h-233l13 60h528l-13 -60h-229l-141 -662h-64zM480 782h-73l-68 145h47l66 -106l113 106h46z" />
    <glyph glyph-name="tcaron" unicode="&#x165;" horiz-adv-x="333" 
d="M218 447h-100l11 55h100l23 107l65 26l-28 -133h114l-11 -55h-114l-72 -336q-17 -71 54 -71q14 0 27 1t26 5l-11 -52q-15 -4 -31.5 -6.5t-31.5 -2.5q-30 0 -49.5 5.5t-30.5 15t-15.5 23t-4.5 28.5q0 18 4 38t8 39zM530 722l-95 -146h-40l69 146h66z" />
    <glyph glyph-name="Tbar" unicode="&#x166;" 
d="M403 430l-91 -430h-64l90 430h-125l8 40h125l41 192h-233l13 60h528l-13 -60h-229l-42 -192h126l-8 -40h-126z" />
    <glyph glyph-name="tbar" unicode="&#x167;" horiz-adv-x="333" 
d="M183 283h-71l8 37h71l27 127h-100l11 55h100l23 107l65 26l-28 -133h114l-11 -55h-114l-27 -127h98l-8 -37h-98l-37 -172q-17 -71 54 -71q14 0 27 1t26 5l-11 -52q-15 -4 -31.5 -6.5t-31.5 -2.5q-30 0 -49.5 5.5t-30.5 15t-15.5 23t-4.5 28.5q0 18 4 38t8 39z" />
    <glyph glyph-name="Utilde" unicode="&#x168;" horiz-adv-x="722" 
d="M315 722l-99 -467q-2 -14 -3.5 -27.5t-1.5 -26.5q0 -75 41 -115.5t118 -40.5q91 0 155 55t89 155l99 467h65l-100 -468q-13 -59 -40 -108t-67.5 -85t-94 -56t-119.5 -20q-56 0 -96 14t-66.5 40t-39 62.5t-12.5 80.5q0 37 7 72l100 468h65zM711 915q-15 -34 -43 -59.5
t-66 -25.5q-11 0 -21.5 3t-21.5 8q-10 4 -22.5 7t-28.5 3q-15 0 -30.5 -7t-23.5 -22h-38q18 42 50.5 64.5t74.5 15.5q7 -1 17 -4t21 -7q11 -3 21 -6t16 -3q17 0 32.5 8.5t24.5 24.5h38z" />
    <glyph glyph-name="utilde" unicode="&#x169;" 
d="M522 502h60l-82 -389q-7 -29 -11 -58t-8 -55h-62l12 74l-1 2q-37 -48 -82.5 -69.5t-94.5 -21.5q-44 0 -71.5 12.5t-43 32.5t-21 44t-5.5 48q0 19 2.5 36t4.5 30l67 314h60l-69 -324q-2 -11 -3.5 -21t-1.5 -20q0 -47 28 -72t80 -25q37 0 67.5 14.5t53.5 38.5t38 55t22 65z
M567 695q-15 -34 -43 -59.5t-66 -25.5q-11 0 -21.5 3t-21.5 8q-10 4 -22.5 7t-28.5 3q-15 0 -30.5 -7t-23.5 -22h-38q18 42 50.5 64.5t74.5 15.5q7 -1 17 -4t21 -7q11 -3 21 -6t16 -3q17 0 32.5 8.5t24.5 24.5h38z" />
    <glyph glyph-name="Umacron" unicode="&#x16a;" horiz-adv-x="722" 
d="M315 722l-99 -467q-2 -14 -3.5 -27.5t-1.5 -26.5q0 -75 41 -115.5t118 -40.5q91 0 155 55t89 155l99 467h65l-100 -468q-13 -59 -40 -108t-67.5 -85t-94 -56t-119.5 -20q-56 0 -96 14t-66.5 40t-39 62.5t-12.5 80.5q0 37 7 72l100 468h65zM420 843l11 50h245l-11 -50
h-245z" />
    <glyph glyph-name="umacron" unicode="&#x16b;" 
d="M522 502h60l-82 -389q-7 -29 -11 -58t-8 -55h-62l12 74l-1 2q-37 -48 -82.5 -69.5t-94.5 -21.5q-44 0 -71.5 12.5t-43 32.5t-21 44t-5.5 48q0 19 2.5 36t4.5 30l67 314h60l-69 -324q-2 -11 -3.5 -21t-1.5 -20q0 -47 28 -72t80 -25q37 0 67.5 14.5t53.5 38.5t38 55t22 65z
M289 623l11 50h245l-11 -50h-245z" />
    <glyph glyph-name="Ubreve" unicode="&#x16c;" horiz-adv-x="722" 
d="M315 722l-99 -467q-2 -14 -3.5 -27.5t-1.5 -26.5q0 -75 41 -115.5t118 -40.5q91 0 155 55t89 155l99 467h65l-100 -468q-13 -59 -40 -108t-67.5 -85t-94 -56t-119.5 -20q-56 0 -96 14t-66.5 40t-39 62.5t-12.5 80.5q0 37 7 72l100 468h65zM685 937q-17 -60 -55.5 -84
t-92.5 -24q-49 0 -78 26.5t-18 81.5h23q0 -18 7.5 -30t19.5 -19t27 -10t29 -3q15 0 31.5 3t32.5 10t30 19t23 30h21z" />
    <glyph glyph-name="ubreve" unicode="&#x16d;" 
d="M522 502h60l-82 -389q-7 -29 -11 -58t-8 -55h-62l12 74l-1 2q-37 -48 -82.5 -69.5t-94.5 -21.5q-44 0 -71.5 12.5t-43 32.5t-21 44t-5.5 48q0 19 2.5 36t4.5 30l67 314h60l-69 -324q-2 -11 -3.5 -21t-1.5 -20q0 -47 28 -72t80 -25q37 0 67.5 14.5t53.5 38.5t38 55t22 65z
M555 717q-17 -60 -55.5 -84t-92.5 -24q-49 0 -78 26.5t-18 81.5h23q0 -18 7.5 -30t19.5 -19t27 -10t29 -3q15 0 31.5 3t32.5 10t30 19t23 30h21z" />
    <glyph glyph-name="Uring" unicode="&#x16e;" horiz-adv-x="722" 
d="M315 722l-99 -467q-2 -14 -3.5 -27.5t-1.5 -26.5q0 -75 41 -115.5t118 -40.5q91 0 155 55t89 155l99 467h65l-100 -468q-13 -59 -40 -108t-67.5 -85t-94 -56t-119.5 -20q-56 0 -96 14t-66.5 40t-39 62.5t-12.5 80.5q0 37 7 72l100 468h65zM452 869q4 19 15 36t26 29.5
t33 20t37 7.5t34.5 -7.5t25.5 -20t14 -29.5t0 -36t-15 -35.5t-26.5 -29t-34 -20t-37.5 -7.5q-38 0 -59 27t-13 65zM600 869q5 23 -8 39.5t-36 16.5t-43 -16.5t-25 -39.5t8 -39.5t36 -16.5t43 16.5t25 39.5z" />
    <glyph glyph-name="uring" unicode="&#x16f;" 
d="M522 502h60l-82 -389q-7 -29 -11 -58t-8 -55h-62l12 74l-1 2q-37 -48 -82.5 -69.5t-94.5 -21.5q-44 0 -71.5 12.5t-43 32.5t-21 44t-5.5 48q0 19 2.5 36t4.5 30l67 314h60l-69 -324q-2 -11 -3.5 -21t-1.5 -20q0 -47 28 -72t80 -25q37 0 67.5 14.5t53.5 38.5t38 55t22 65z
M323 650q4 19 15 36t26 29.5t33 20t37 7.5t34.5 -7.5t25.5 -20t14 -29.5t0 -36t-15 -35.5t-26.5 -29t-34 -20t-37.5 -7.5q-38 0 -59 27t-13 65zM471 650q5 23 -8 39.5t-36 16.5t-43 -16.5t-25 -39.5t8 -39.5t36 -16.5t43 16.5t25 39.5z" />
    <glyph glyph-name="Uhungarumlaut" unicode="&#x170;" horiz-adv-x="722" 
d="M315 722l-99 -467q-2 -14 -3.5 -27.5t-1.5 -26.5q0 -75 41 -115.5t118 -40.5q91 0 155 55t89 155l99 467h65l-100 -468q-13 -59 -40 -108t-67.5 -85t-94 -56t-119.5 -20q-56 0 -96 14t-66.5 40t-39 62.5t-12.5 80.5q0 37 7 72l100 468h65zM551 927h81l-159 -141h-47z
M682 927h81l-159 -141h-47z" />
    <glyph glyph-name="uhungarumlaut" unicode="&#x171;" 
d="M522 502h60l-82 -389q-7 -29 -11 -58t-8 -55h-62l12 74l-1 2q-37 -48 -82.5 -69.5t-94.5 -21.5q-44 0 -71.5 12.5t-43 32.5t-21 44t-5.5 48q0 19 2.5 36t4.5 30l67 314h60l-69 -324q-2 -11 -3.5 -21t-1.5 -20q0 -47 28 -72t80 -25q37 0 67.5 14.5t53.5 38.5t38 55t22 65z
M429 707h81l-159 -141h-47zM560 707h81l-159 -141h-47z" />
    <glyph glyph-name="Uogonek" unicode="&#x172;" horiz-adv-x="722" 
d="M399 -168q-15 -5 -33.5 -9.5t-38.5 -4.5q-14 0 -28.5 3t-26 11.5t-17 22.5t-0.5 37q7 32 32 55.5t54 38.5q-101 5 -150 58.5t-49 138.5q0 31 8 71l100 468h65l-99 -467q-2 -14 -3.5 -27.5t-1.5 -26.5q0 -75 41 -115.5t118 -40.5q91 0 155 55t89 155l99 467h65l-100 -468
q-12 -54 -36.5 -101t-61 -82t-84.5 -57t-106 -27q-38 -22 -60 -41.5t-28 -48.5q-3 -14 0 -22t10 -12.5t15 -6t16 -1.5q18 0 32 3t31 8z" />
    <glyph glyph-name="uogonek" unicode="&#x173;" 
d="M463 -168q-15 -5 -33.5 -9.5t-38.5 -4.5q-14 0 -28.5 3t-26 11.5t-17 22.5t-0.5 37q4 21 16.5 38t29.5 30t36.5 23t36.5 17h-19l12 74l-1 2q-37 -48 -82.5 -69.5t-94.5 -21.5q-44 0 -71.5 12.5t-43 32.5t-21 44t-5.5 48q0 19 2.5 36t4.5 30l67 314h60l-69 -324
q-2 -11 -3.5 -21t-1.5 -20q0 -47 28 -72t80 -25q37 0 67.5 14.5t53.5 38.5t38 55t22 65l61 289h60l-82 -389q-7 -29 -11 -58t-8 -55h-3q-49 -27 -77 -49t-35 -54q-3 -14 0 -22t10 -12.5t15 -6t16 -1.5q18 0 32 3t31 8z" />
    <glyph glyph-name="Wcircumflex" unicode="&#x174;" horiz-adv-x="1000" 
d="M290 0h-92l-35 722h69l28 -657h2l351 657h79l80 -657h2l307 657h63l-343 -722h-89l-74 655h-2zM661 927h73l68 -145h-47l-67 106l-112 -106h-46z" />
    <glyph glyph-name="wcircumflex" unicode="&#x175;" horiz-adv-x="833" 
d="M248 79h2l242 423h71l59 -419h2l234 419h66l-293 -502h-57l-62 433h-2l-249 -433h-61l-78 502h66zM533 707h73l68 -145h-47l-67 106l-112 -106h-46z" />
    <glyph glyph-name="Ycircumflex" unicode="&#x176;" horiz-adv-x="611" 
d="M340 312l-179 410h83l147 -349l295 349h70l-351 -408l-66 -314h-65zM471 927h73l68 -145h-47l-67 106l-112 -106h-46z" />
    <glyph glyph-name="ycircumflex" unicode="&#x177;" horiz-adv-x="500" 
d="M187 502l82 -426l255 426h65l-424 -694h-66l117 192l-102 502h73zM374 707h73l68 -145h-47l-67 106l-112 -106h-46z" />
    <glyph glyph-name="Ydieresis" unicode="&#x178;" horiz-adv-x="611" 
d="M340 312l-179 410h83l147 -349l295 349h70l-351 -408l-66 -314h-65zM534 839l19 88h74l-19 -88h-74zM360 839l19 88h74l-19 -88h-74z" />
    <glyph glyph-name="Zacute" unicode="&#x179;" 
d="M39 0l12 60l529 602h-401l13 60h478l-13 -60l-530 -602h402l-12 -60h-478zM609 927l-158 -143h-44l122 143h80z" />
    <glyph glyph-name="zacute" unicode="&#x17a;" horiz-adv-x="444" 
d="M51 55l377 392h-293l11 55h364l-11 -55l-375 -392h291l-11 -55h-364zM505 707l-158 -143h-44l122 143h80z" />
    <glyph glyph-name="Zdotaccent" unicode="&#x17b;" 
d="M39 0l12 60l529 602h-401l13 60h478l-13 -60l-530 -602h402l-12 -60h-478zM419 839l19 88h74l-19 -88h-74z" />
    <glyph glyph-name="zdotaccent" unicode="&#x17c;" horiz-adv-x="444" 
d="M51 55l377 392h-293l11 55h364l-11 -55l-375 -392h291l-11 -55h-364zM319 619l19 88h74l-19 -88h-74z" />
    <glyph glyph-name="Zcaron" unicode="&#x17d;" 
d="M39 0l12 60l529 602h-401l13 60h478l-13 -60l-530 -602h402l-12 -60h-478zM480 782h-73l-68 145h47l66 -106l113 106h46z" />
    <glyph glyph-name="zcaron" unicode="&#x17e;" horiz-adv-x="444" 
d="M51 55l377 392h-293l11 55h364l-11 -55l-375 -392h291l-11 -55h-364zM377 562h-73l-68 145h47l66 -106l113 106h46z" />
    <glyph glyph-name="florin" unicode="&#x192;" 
d="M225 408l22 60h94l33 80q10 26 23 54t32.5 51.5t47 38.5t65.5 15q18 0 35 -2t34 -5l-20 -57q-10 2 -21 3t-22 1q-45 0 -66 -22t-34 -57l-41 -100h106l-21 -60h-107l-147 -363q-14 -35 -29 -76.5t-37.5 -77t-54.5 -59.5t-80 -24q-25 0 -44 6l21 54q26 -7 48 -1
q15 4 27.5 16.5t22.5 28.5t17.5 33t13.5 31l176 432h-94z" />
    <glyph glyph-name="Scommaaccent" unicode="&#x218;" horiz-adv-x="611" 
d="M594 193q-12 -54 -41.5 -93t-70 -64.5t-90 -38t-101.5 -12.5q-42 0 -78.5 9t-63.5 28t-42 48.5t-15 70.5q0 19 5 47h70q-2 -10 -3 -18.5t-1 -16.5q0 -31 12 -52t33 -33.5t49.5 -17.5t60.5 -5q30 0 63 8t61.5 25t50 44t29.5 65q3 15 3 29q0 24 -11 41.5t-30.5 31t-48 24
t-62.5 22.5q-42 14 -76.5 29t-59.5 33.5t-38.5 43.5t-13.5 58q0 18 5 43q10 47 37.5 83.5t65 61t81.5 37.5t87 13q39 0 75.5 -6t64 -22t44.5 -43.5t17 -69.5v-15.5t-2 -15.5h-70q6 33 -4 55t-29.5 34.5t-46 17.5t-54.5 5q-29 0 -60 -7.5t-58.5 -22.5t-48 -39t-27.5 -57
q-3 -17 -3 -30q0 -27 12.5 -46t33 -33t47 -24t55.5 -20q34 -13 68.5 -26t61.5 -31t44 -44t17 -65q0 -20 -4 -39zM329 -74l-90 -145h-43l66 145h67z" />
    <glyph glyph-name="scommaaccent" unicode="&#x219;" horiz-adv-x="500" 
d="M143 377q8 39 30 65.5t51.5 43t64 24t67.5 7.5q36 0 66.5 -7t51.5 -23t31 -42.5t5 -66.5h-65q3 24 -4.5 40t-22.5 25.5t-35.5 14t-43.5 4.5q-21 0 -42.5 -4.5t-39.5 -14t-31 -25t-18 -37.5q-6 -28 8 -42.5t43 -24.5t70 -20t88 -28q36 -14 52.5 -44.5t7.5 -72.5t-33.5 -73
t-58.5 -51.5t-74 -30t-80 -9.5q-30 0 -58.5 6.5t-51 20.5t-36 37t-13.5 56q0 15 3 32h65q-4 -28 4.5 -46.5t25 -30t39.5 -16t49 -4.5q24 0 48.5 6t45.5 18t36.5 31t21.5 45q6 27 -4 44t-30.5 27.5t-47.5 17t-55 13.5q-25 6 -49 13.5t-43 19.5t-30.5 29.5t-11.5 43.5
q0 7 1 14t3 15zM277 -74l-90 -145h-43l66 145h67z" />
    <glyph glyph-name="uni021A" unicode="&#x21a;" 
d="M387 662h-233l13 60h528l-13 -60h-229l-141 -662h-64zM300 -74l-90 -145h-43l66 145h67z" />
    <glyph glyph-name="uni021B" unicode="&#x21b;" horiz-adv-x="333" 
d="M218 447h-100l11 55h100l23 107l65 26l-28 -133h114l-11 -55h-114l-72 -336q-17 -71 54 -71q14 0 27 1t26 5l-11 -52q-15 -4 -31.5 -6.5t-31.5 -2.5q-30 0 -49.5 5.5t-30.5 15t-15.5 23t-4.5 28.5q0 18 4 38t8 39zM201 -74l-90 -145h-43l66 145h67z" />
    <glyph glyph-name="dotlessj" unicode="&#x237;" horiz-adv-x="222" 
d="M-26 -137q33 0 50 5.5t26.5 22t16 46.5t17.5 80l103 485h60l-111 -524q-11 -48 -20.5 -81.5t-26.5 -53.5t-46.5 -28.5t-79.5 -6.5z" />
    <glyph glyph-name="circumflex" unicode="&#x2c6;" horiz-adv-x="278" 
d="M253 707h73l68 -145h-47l-67 106l-112 -106h-46z" />
    <glyph glyph-name="caron" unicode="&#x2c7;" horiz-adv-x="278" 
d="M294 562h-73l-68 145h47l66 -106l113 106h46z" />
    <glyph glyph-name="uni02C9" unicode="&#x2c9;" horiz-adv-x="278" 
d="M149 623l11 50h245l-11 -50h-245z" />
    <glyph glyph-name="breve" unicode="&#x2d8;" horiz-adv-x="278" 
d="M413 717q-17 -60 -55.5 -84t-92.5 -24q-49 0 -78 26.5t-18 81.5h23q0 -18 7.5 -30t19.5 -19t27 -10t29 -3q15 0 31.5 3t32.5 10t30 19t23 30h21z" />
    <glyph glyph-name="dotaccent" unicode="&#x2d9;" horiz-adv-x="278" 
d="M233 619l19 88h74l-19 -88h-74z" />
    <glyph glyph-name="ring" unicode="&#x2da;" horiz-adv-x="278" 
d="M184 650q4 19 15 36t26 29.5t33 20t37 7.5t34.5 -7.5t25.5 -20t14 -29.5t0 -36t-15 -35.5t-26.5 -29t-34 -20t-37.5 -7.5q-38 0 -59 27t-13 65zM332 650q5 23 -8 39.5t-36 16.5t-43 -16.5t-25 -39.5t8 -39.5t36 -16.5t43 16.5t25 39.5z" />
    <glyph glyph-name="ogonek" unicode="&#x2db;" horiz-adv-x="278" 
d="M156 -168q-15 -5 -33.5 -9.5t-38.5 -4.5q-14 0 -28.5 3t-26 11.5t-17 22.5t-0.5 37q4 21 16.5 38t29.5 30t36.5 23t36.5 17h40q-49 -27 -77 -49t-35 -54q-3 -14 0 -22t10 -12.5t15 -6t16 -1.5q18 0 32 3t31 8z" />
    <glyph glyph-name="tilde" unicode="&#x2dc;" horiz-adv-x="278" 
d="M424 695q-15 -34 -43 -59.5t-66 -25.5q-11 0 -21.5 3t-21.5 8q-10 4 -22.5 7t-28.5 3q-15 0 -30.5 -7t-23.5 -22h-38q18 42 50.5 64.5t74.5 15.5q7 -1 17 -4t21 -7q11 -3 21 -6t16 -3q17 0 32.5 8.5t24.5 24.5h38z" />
    <glyph glyph-name="hungarumlaut" unicode="&#x2dd;" 
d="M370 707h81l-159 -141h-47zM501 707h81l-159 -141h-47z" />
    <glyph glyph-name="uni0394" unicode="&#x394;" horiz-adv-x="670" 
d="M15 0l432 712h74l136 -712h-642zM469 645l-350 -583h455z" />
    <glyph glyph-name="uni03A9" unicode="&#x3a9;" horiz-adv-x="744" 
d="M434 0l38 181q47 8 85.5 28.5t68 51.5t50 70t30.5 84q6 27 6 53q0 43 -15 78.5t-42 60.5t-65 39t-84 14q-53 0 -103 -18.5t-91 -51t-70 -77.5t-40 -98q-3 -17 -5 -32.5t-2 -30.5q0 -66 34.5 -112.5t106.5 -58.5l-38 -181h-251l12 58h197l17 82q-73 22 -109 78.5
t-36 130.5q0 35 7 67q14 67 51.5 123t90 96.5t115.5 63t128 22.5q57 0 104.5 -17.5t82 -49t54 -75.5t19.5 -97q0 -34 -7 -65q-10 -48 -32.5 -92.5t-55 -81.5t-75 -63.5t-93.5 -39.5l-17 -82h197l-12 -58h-251z" />
    <glyph glyph-name="uni03BC" unicode="&#x3bc;" 
d="M522 502h60l-82 -389q-7 -29 -11 -58t-8 -55h-62l12 74l-1 2q-37 -48 -82.5 -69.5t-94.5 -21.5q-29 0 -57 7t-54 18l-43 -202h-60l147 694h60l-69 -324q-2 -11 -3.5 -21t-1.5 -20q0 -47 28 -72t80 -25q37 0 67.5 14.5t53.5 38.5t38 55t22 65z" />
    <glyph glyph-name="pi" unicode="&#x3c0;" horiz-adv-x="563" 
d="M532 11q-18 -8 -34 -12.5t-34 -4.5q-36 0 -48.5 14.5t-12.5 37.5q0 14 3 31t7 34l72 336h-224l-95 -447h-60l95 447h-74l11 55h494l-11 -55h-76l-73 -343q-2 -8 -3 -15t-1 -13q0 -11 6.5 -18.5t23.5 -7.5q23 0 44 10z" />
    <glyph glyph-name="afii10023" unicode="&#x401;" horiz-adv-x="611" 
d="M102 0l153 722h429l-13 -60h-364l-55 -259h350l-13 -60h-350l-60 -283h379l-12 -60h-444zM534 839l19 88h74l-19 -88h-74zM360 839l19 88h74l-19 -88h-74z" />
    <glyph glyph-name="afii10051" unicode="&#x402;" horiz-adv-x="740" 
d="M403 422q12 4 29.5 9.5t40 10t48.5 8t55 3.5q49 0 82.5 -13t54.5 -36.5t30 -55.5t9 -69q0 -66 -18.5 -132t-56 -119t-93.5 -86t-131 -33h-34l11 55h34q57 0 98.5 29t69.5 74t41.5 98.5t13.5 102.5q0 63 -30 95.5t-96 32.5q-27 0 -52.5 -3.5t-48 -8t-40 -10t-29.5 -9.5
l-78 -365h-66l141 665h-233l12 57h528l-12 -57h-229z" />
    <glyph glyph-name="afii10052" unicode="&#x403;" 
d="M95 0l153 722h408l-12 -57h-343l-141 -665h-65zM650 927l-158 -143h-44l122 143h80z" />
    <glyph glyph-name="afii10053" unicode="&#x404;" horiz-adv-x="667" 
d="M656 175q-35 -85 -113 -135t-182 -50q-65 0 -110 19.5t-73.5 53.5t-41.5 80t-13 99q0 89 26 177t77 158t125.5 113.5t171.5 43.5q37 0 74 -7.5t67 -24.5t49 -46.5t19 -72.5q0 -15 -3 -30h-70v14q0 51 -38 80.5t-107 29.5q-60 0 -108 -23t-85 -61t-62.5 -87.5
t-40.5 -102.5h331l-13 -58h-331q-4 -23 -6 -44.5t-2 -42.5q0 -44 10 -82t32 -66.5t57.5 -45t87.5 -16.5q35 0 66.5 9.5t58 26t46 40t30.5 51.5h71z" />
    <glyph glyph-name="afii10054" unicode="&#x405;" horiz-adv-x="611" 
d="M594 193q-12 -54 -41.5 -93t-70 -64.5t-90 -38t-101.5 -12.5q-42 0 -78.5 9t-63.5 28t-42 48.5t-15 70.5q0 19 5 47h70q-2 -10 -3 -18.5t-1 -16.5q0 -31 12 -52t33 -33.5t49.5 -17.5t60.5 -5q30 0 63 8t61.5 25t50 44t29.5 65q3 15 3 29q0 24 -11 41.5t-30.5 31t-48 24
t-62.5 22.5q-42 14 -76.5 29t-59.5 33.5t-38.5 43.5t-13.5 58q0 18 5 43q10 47 37.5 83.5t65 61t81.5 37.5t87 13q39 0 75.5 -6t64 -22t44.5 -43.5t17 -69.5v-15.5t-2 -15.5h-70q6 33 -4 55t-29.5 34.5t-46 17.5t-54.5 5q-29 0 -60 -7.5t-58.5 -22.5t-48 -39t-27.5 -57
q-3 -17 -3 -30q0 -27 12.5 -46t33 -33t47 -24t55.5 -20q34 -13 68.5 -26t61.5 -31t44 -44t17 -65q0 -20 -4 -39z" />
    <glyph glyph-name="afii10055" unicode="&#x406;" horiz-adv-x="278" 
d="M107 0l153 722h65l-153 -722h-65z" />
    <glyph glyph-name="afii10056" unicode="&#x407;" horiz-adv-x="278" 
d="M107 0l153 722h65l-153 -722h-65zM368 844l16 78h67l-16 -78h-67zM201 844l16 78h67l-16 -78h-67z" />
    <glyph glyph-name="afii10057" unicode="&#x408;" horiz-adv-x="500" 
d="M120 178q-3 -21 -3 -38q0 -45 24 -70t81 -25q40 0 69.5 15t50 40t33 57.5t19.5 67.5l106 497h65l-106 -500q-10 -45 -28.5 -87.5t-49.5 -76t-75.5 -53.5t-105.5 -20q-42 0 -71.5 11t-47.5 30.5t-26.5 46.5t-8.5 59q0 11 1 22.5t3 23.5h70z" />
    <glyph glyph-name="afii10058" unicode="&#x409;" horiz-adv-x="1035" 
d="M971 239q0 107 -156 107h-158l-62 -288h158q45 0 84.5 10t69 32t47 56.5t17.5 82.5zM518 0l141 665h-294l-61 -290q-9 -42 -19 -84.5t-23.5 -83t-30.5 -76.5t-41 -66q-26 -33 -61.5 -51t-77.5 -18q-8 0 -22 2.5t-19 4.5l12 56q2 -2 13 -2.5t15 -0.5q48 0 81 38.5t56 96
t38 124t27 122.5l60 285h424l-67 -318h176q96 0 146.5 -40t50.5 -113q0 -60 -22.5 -106.5t-61.5 -79t-90.5 -49t-108.5 -16.5h-241z" />
    <glyph glyph-name="afii10059" unicode="&#x40a;" horiz-adv-x="1035" 
d="M753 58q45 0 84.5 10t69 32t47 56.5t17.5 82.5q0 107 -156 107h-158l-62 -288h158zM845 404q96 0 146.5 -40t50.5 -113q0 -60 -22.5 -106.5t-61.5 -79t-90.5 -49t-108.5 -16.5h-241l73 345h-354l-73 -345h-65l153 722h65l-67 -317h354l67 317h65l-67 -318h176z" />
    <glyph glyph-name="afii10060" unicode="&#x40b;" horiz-adv-x="760" 
d="M247 0l141 665h-233l12 57h528l-12 -57h-229l-51 -243q8 2 24.5 6.5t39 9t49 8t54.5 3.5q42 0 78.5 -7t62.5 -24t41 -47.5t15 -76.5q0 -40 -10 -84l-45 -210h-65l47 221q6 30 6 53q0 37 -13 60t-33.5 36.5t-46.5 18.5t-51 5q-43 0 -87 -9t-78 -16l-78 -369h-66z" />
    <glyph glyph-name="afii10061" unicode="&#x40c;" horiz-adv-x="611" 
d="M106 0l153 722h64l-67 -318l391 318h82l-402 -326l279 -396h-89l-266 377l-81 -377h-64zM650 927l-158 -143h-44l122 143h80z" />
    <glyph glyph-name="afii10062" unicode="&#x40e;" horiz-adv-x="611" 
d="M475 800q-107 0 -107 103q0 6 0.5 12t1.5 13h38q5 -71 80 -71t113 71h40q-20 -63 -62.5 -95.5t-103.5 -32.5zM159 722h73l128 -450l325 450h74l-519 -722h-77l149 206z" />
    <glyph glyph-name="afii10145" unicode="&#x40f;" horiz-adv-x="722" 
d="M623 0h-221l-34 -161h-65l34 161h-238l153 722h65l-141 -664h394l141 664h65z" />
    <glyph glyph-name="afii10017" unicode="&#x410;" horiz-adv-x="667" 
d="M542 255l-70 407l-245 -407h315zM9 0l439 722h76l135 -722h-71l-36 195h-359l-117 -195h-67z" />
    <glyph glyph-name="afii10018" unicode="&#x411;" horiz-adv-x="667" 
d="M376 58q45 0 85 10.5t70 33t47 57.5t17 83q0 107 -157 107h-199l-62 -291h199zM468 406q198 0 198 -148q0 -63 -21.5 -111t-59.5 -81t-90 -49.5t-113 -16.5h-282l153 722h458l-12 -57h-393l-55 -259h217z" />
    <glyph glyph-name="afii10019" unicode="&#x412;" horiz-adv-x="667" 
d="M177 60h159q46 -1 84 5.5t66.5 23t47.5 44t28 69.5q2 11 3.5 20t1.5 18q0 33 -16 53.5t-43.5 32t-66 15t-83.5 3.5h-120zM407 404q32 0 63.5 6.5t58.5 22t46.5 40.5t27.5 62q2 9 3 17.5t1 16.5q0 28 -12.5 46.5t-33.5 28.5t-47.5 14t-54.5 4h-154l-55 -258h157zM100 0
l153 722l259 -1q36 0 66 -9t52.5 -27t35 -44t12.5 -60q0 -21 -4 -40q-6 -30 -22 -56.5t-38.5 -48t-50 -36.5t-57.5 -22l-1 -2q62 -11 96.5 -45.5t34.5 -93.5q0 -11 -1.5 -21.5t-3.5 -22.5q-8 -36 -27 -70.5t-50 -61.5t-75.5 -44t-103.5 -17h-275z" />
    <glyph glyph-name="afii10020" unicode="&#x413;" 
d="M95 0l153 722h408l-12 -57h-343l-141 -665h-65z" />
    <glyph glyph-name="afii10021" unicode="&#x414;" horiz-adv-x="722" 
d="M690 665h-272l-33 -155q-12 -57 -31.5 -118t-46.5 -120.5t-61 -114.5t-75 -99h390zM605 -161l34 161h-557l-34 -161h-63l46 219h62q98 104 154 230.5t86 275.5l33 158h401l-141 -664h88l-46 -219h-63z" />
    <glyph glyph-name="afii10022" unicode="&#x415;" horiz-adv-x="611" 
d="M102 0l153 722h429l-13 -60h-364l-55 -259h350l-13 -60h-350l-60 -283h379l-12 -60h-444z" />
    <glyph glyph-name="afii10024" unicode="&#x416;" horiz-adv-x="935" 
d="M648 722l-67 -318h2l384 318h86l-404 -333l281 -389h-80l-273 377h-2l-80 -377h-65l80 377h-2l-420 -377h-93l450 401l-267 321h77l259 -318h2l67 318h65z" />
    <glyph glyph-name="afii10025" unicode="&#x417;" horiz-adv-x="611" 
d="M480 382q29 -8 43 -15t28 -20q43 -40 43 -106q0 -60 -26.5 -107t-69.5 -79.5t-97.5 -49t-109.5 -16.5q-35 0 -67.5 6t-58.5 20.5t-45 37t-27 55.5q-2 10 -3.5 18t-1.5 18t1.5 21.5t3.5 27.5h70q-2 -8 -2 -15.5v-15.5q0 -116 142 -116q40 0 79.5 13t71 37.5t51 59
t19.5 77.5q0 52 -37.5 83t-101.5 31q-18 0 -48 -3l14 66q11 -1 20 -1h17q35 0 69 11.5t60.5 32.5t42.5 51.5t16 68.5q0 48 -34 76t-97 28q-36 0 -67.5 -11t-54.5 -28q-22 -16 -34.5 -34t-24.5 -50h-72q7 25 11.5 38t14.5 28q35 54 96.5 85t139.5 31q91 0 141.5 -40
t50.5 -109q0 -51 -22 -96t-64 -74q-17 -11 -33 -18t-46 -15z" />
    <glyph glyph-name="afii10026" unicode="&#x418;" horiz-adv-x="722" 
d="M558 0l135 635h-3l-517 -635h-74l153 722h65l-132 -625h3l506 625h82l-153 -722h-65z" />
    <glyph glyph-name="afii10027" unicode="&#x419;" horiz-adv-x="722" 
d="M537 800q-107 0 -107 103q0 6 0.5 12t1.5 13h38q5 -71 80 -71t113 71h40q-20 -63 -62.5 -95.5t-103.5 -32.5zM558 0l135 635h-3l-517 -635h-74l153 722h65l-132 -625h3l506 625h82l-153 -722h-65z" />
    <glyph glyph-name="afii10028" unicode="&#x41a;" horiz-adv-x="611" 
d="M106 0l153 722h64l-67 -318l391 318h82l-402 -326l279 -396h-89l-266 377l-81 -377h-64z" />
    <glyph glyph-name="afii10029" unicode="&#x41b;" horiz-adv-x="697" 
d="M309 375q-9 -42 -19.5 -84.5t-24 -83t-31 -76.5t-41.5 -66q-26 -33 -60.5 -51t-76.5 -18q-8 0 -22 2.5t-19 4.5l12 56q2 -2 13 -2.5t15 -0.5q48 0 81 38.5t56 96t38 124t27 122.5l60 285h434l-153 -722h-65l141 665h-304z" />
    <glyph glyph-name="afii10030" unicode="&#x41c;" horiz-adv-x="944" 
d="M97 0l153 722h104l137 -629l411 629h99l-153 -722h-65l141 667h-2l-417 -667h-65l-135 664h-2l-141 -664h-65z" />
    <glyph glyph-name="afii10031" unicode="&#x41d;" horiz-adv-x="722" 
d="M99 0l153 722h65l-67 -317h394l67 317h65l-153 -722h-65l73 345h-394l-73 -345h-65z" />
    <glyph glyph-name="afii10032" unicode="&#x41e;" horiz-adv-x="778" 
d="M213 361q-10 -47 -10 -97q0 -45 10.5 -85t33.5 -69.5t60.5 -47t90.5 -17.5q67 0 121 27t94 71.5t66 101.5t38 116q5 26 8.5 51t3.5 49q0 45 -11 84t-34.5 68.5t-61 46.5t-90.5 17q-68 0 -121.5 -27t-93 -71.5t-65.5 -101.5t-39 -116zM787 361q-18 -84 -54 -153.5
t-87.5 -119t-117 -76.5t-143.5 -27q-63 0 -111 18.5t-80 52t-48 81.5t-16 108q0 27 3 56t10 60q18 84 54 153.5t87.5 119t117 76.5t143.5 27q63 0 111 -18.5t80 -52t48 -81.5t16 -108q0 -27 -3 -56t-10 -60z" />
    <glyph glyph-name="afii10033" unicode="&#x41f;" horiz-adv-x="722" 
d="M99 0l153 722h524l-153 -722h-65l141 665h-394l-141 -665h-65z" />
    <glyph glyph-name="afii10034" unicode="&#x420;" horiz-adv-x="611" 
d="M244 374h158q36 0 71 6.5t63.5 23t49.5 44.5t30 70q4 19 4 38q0 31 -12.5 51.5t-34 32.5t-50 17t-60.5 5h-158zM100 0l153 722h181q47 1 93.5 -4.5t83 -23t59 -48.5t22.5 -79q0 -22 -6 -49q-14 -65 -49 -105t-82 -62.5t-101.5 -30t-106.5 -6.5h-116l-66 -314h-65z" />
    <glyph glyph-name="afii10035" unicode="&#x421;" horiz-adv-x="667" 
d="M659 553q3 33 -7.5 56.5t-31 38.5t-48 22t-57.5 7q-69 0 -121.5 -28.5t-90 -74t-61 -102t-35.5 -111.5q-12 -53 -12 -107q0 -42 9.5 -80t31 -66.5t57 -45.5t88.5 -17q30 0 60.5 7.5t58.5 23.5t50.5 40.5t36.5 58.5h70q-18 -45 -49 -80.5t-70 -60t-83 -37t-87 -12.5
q-65 0 -111.5 19.5t-76 54t-43.5 81.5t-14 102t14 119q16 74 48.5 142t81 120t114 83t147.5 31q40 0 77 -9t65 -27.5t44.5 -48t16.5 -69.5v-15t-2 -15h-70z" />
    <glyph glyph-name="afii10036" unicode="&#x422;" 
d="M387 662h-233l13 60h528l-13 -60h-229l-141 -662h-64z" />
    <glyph glyph-name="afii10037" unicode="&#x423;" horiz-adv-x="611" 
d="M159 722h73l128 -450l325 450h74l-519 -722h-77l149 206z" />
    <glyph glyph-name="afii10038" unicode="&#x424;" horiz-adv-x="791" 
d="M492 608q-71 0 -124.5 -24.5t-90 -67t-55 -99.5t-18.5 -123q0 -84 47.5 -126.5t138.5 -42.5zM745 448q0 160 -188 160l-102 -483q69 0 123 26.5t91 70.5t56.5 102.5t19.5 123.5zM428 0h-65l15 70q-118 0 -182.5 58.5t-64.5 163.5q0 81 27.5 149t77 117t118 76.5
t150.5 27.5l12 60h65l-12 -60q114 0 181.5 -52t67.5 -158q0 -80 -28 -149.5t-78 -121t-119 -81.5t-150 -30z" />
    <glyph glyph-name="afii10039" unicode="&#x425;" horiz-adv-x="611" 
d="M82 0h-74l336 372l-170 350h85l139 -304l277 304h73l-324 -350l179 -372h-83l-151 323z" />
    <glyph glyph-name="afii10040" unicode="&#x426;" horiz-adv-x="740" 
d="M99 0l154 722h65l-142 -664h394l142 664h65l-142 -664h82l-46 -219h-63l34 161h-543z" />
    <glyph glyph-name="afii10041" unicode="&#x427;" horiz-adv-x="667" 
d="M656 722h65l-153 -722h-65l74 350q-5 -2 -4.5 -1.5t-7.5 -1.5q-58 -12 -101.5 -19t-85.5 -7q-99 0 -145 38t-46 126q0 23 3.5 49.5t9.5 56.5l27 131h65l-30 -142q-9 -45 -9 -80q0 -64 34 -93t106 -29q40 0 88 6t108 20z" />
    <glyph glyph-name="afii10042" unicode="&#x428;" horiz-adv-x="1066" 
d="M99 0l153 722h65l-141 -664h336l141 664h65l-141 -664h336l141 664h65l-153 -722h-867z" />
    <glyph glyph-name="afii10043" unicode="&#x429;" horiz-adv-x="1083" 
d="M951 -161l34 161h-886l153 722h65l-141 -664h336l141 664h65l-141 -664h336l141 664h65l-141 -664h82l-46 -219h-63z" />
    <glyph glyph-name="afii10044" unicode="&#x42a;" horiz-adv-x="722" 
d="M288 58h158q45 0 84.5 10t69.5 31.5t47 56t17 83.5q0 107 -156 107h-158zM155 665l12 57h262l-67 -318h176q96 0 146.5 -40t50.5 -113q0 -60 -22.5 -106.5t-61.5 -79t-90.5 -49t-108.5 -16.5h-241l141 665h-197z" />
    <glyph glyph-name="afii10045" unicode="&#x42b;" horiz-adv-x="852" 
d="M177 58h158q45 0 84.5 10t69.5 31.5t47 56t17 83.5q0 107 -156 107h-158zM253 722h65l-67 -318h176q96 0 146.5 -40t50.5 -113q0 -60 -22.5 -106.5t-61.5 -79t-90.5 -49t-108.5 -16.5h-241zM906 722l-153 -722h-65l153 722h65z" />
    <glyph glyph-name="afii10046" unicode="&#x42c;" horiz-adv-x="611" 
d="M177 58h158q45 0 84.5 10t69.5 31.5t47 56t17 83.5q0 107 -156 107h-158zM253 722h65l-67 -318h176q96 0 146.5 -40t50.5 -113q0 -60 -22.5 -106.5t-61.5 -79t-90.5 -49t-108.5 -16.5h-241z" />
    <glyph glyph-name="afii10047" unicode="&#x42d;" horiz-adv-x="667" 
d="M687 361q-16 -75 -48.5 -142t-82 -118t-115 -81t-147.5 -30q-100 0 -153 45.5t-53 127.5v12h72v-7q0 -54 40.5 -87t107.5 -33q62 0 112 26t88 68t64 95t40 108h-332l13 58h330q6 36 6 71q0 42 -9.5 79t-30.5 64.5t-56 43.5t-86 16q-73 0 -127.5 -33.5t-72.5 -90.5h-70
q13 51 43 85.5t68.5 56t82 30.5t84.5 9q121 0 183.5 -64.5t62.5 -185.5q0 -28 -3 -58.5t-11 -64.5z" />
    <glyph glyph-name="afii10048" unicode="&#x42e;" horiz-adv-x="998" 
d="M947 467q0 100 -49.5 155.5t-143.5 55.5q-81 0 -142.5 -38.5t-103 -98.5t-62.5 -134t-21 -145q0 -103 50.5 -159t144.5 -56q81 0 142 39t102 100t62 135.5t21 145.5zM237 345l-73 -345h-65l153 722h65l-67 -319h125q21 79 58 140.5t87 104.5t111.5 65.5t132.5 22.5
q68 0 116.5 -19t80 -53t46 -81t14.5 -103q0 -90 -27.5 -178t-80.5 -157.5t-130.5 -112.5t-177.5 -43q-68 0 -115.5 19.5t-78.5 54t-45 81.5t-14 103q0 51 10 98h-125z" />
    <glyph glyph-name="afii10049" unicode="&#x42f;" horiz-adv-x="667" 
d="M650 665h-154q-40 0 -81 -4.5t-74 -20t-54 -46.5t-21 -84q0 -34 15.5 -55t41 -32.5t58 -15.5t67.5 -4h147zM509 0l74 346h-187q-47 0 -76.5 -6t-50 -26t-36.5 -58.5t-35 -103.5l-10 -33q-5 -17 -10 -32t-10 -29t-11.5 -28t-15.5 -30h-75q8 10 12 15.5t8 13.5q9 17 18 40
t22 68t23 76t18 52q22 54 54 78t84 35l1 2q-48 16 -79 48.5t-31 83.5q0 64 26.5 105t68 64.5t92.5 32t100 8.5h244l-153 -722h-65z" />
    <glyph glyph-name="afii10065" unicode="&#x430;" horiz-adv-x="500" 
d="M130 140q-5 -26 0 -44.5t18 -31t32 -18.5t42 -6q44 0 76 15t54.5 40t36.5 58t22 68q2 8 3.5 17t3.5 17q-9 2 -18.5 2h-20.5h-31q-33 0 -68 -5t-66 -17.5t-53.5 -35.5t-30.5 -59zM439 354q2 9 3 17t1 16q0 42 -27 58.5t-73 16.5q-47 0 -86 -18t-56 -69h-64q28 78 86.5 110
t131.5 32q71 0 110.5 -26t39.5 -86q0 -22 -6 -49l-51 -243q-8 -29 -12 -58t-7 -55h-62l13 74h-2l-4 -7q-23 -32 -67.5 -57t-107.5 -25q-60 0 -99 31t-39 88q0 19 4 36q11 51 46.5 87.5t84.5 54.5q55 20 116.5 23t116.5 3z" />
    <glyph glyph-name="afii10066" unicode="&#x431;" 
d="M508 322q0 66 -33.5 103.5t-96.5 37.5q-39 0 -73.5 -14.5t-62.5 -41.5t-48 -65.5t-30 -86.5q-5 -20 -6.5 -37t-1.5 -34q0 -69 34 -105t98 -36q52 0 93 26t69.5 67t43 90t14.5 96zM277 -11q-91 0 -138.5 49.5t-47.5 136.5q0 44 14 111q24 113 57 194t89 132q26 24 53 38
t54.5 22.5t55 12.5t55.5 8q30 4 54 10t33 19h82q-17 -35 -49.5 -55.5t-94.5 -27.5q-32 -3 -60.5 -6.5t-55 -10t-51.5 -19t-50 -33.5q-20 -17 -36 -39.5t-28.5 -47t-21.5 -48.5t-14 -43l2 -2q45 63 100.5 94t118.5 31q40 0 73 -13.5t56 -38t35.5 -57.5t12.5 -72
q0 -64 -20.5 -126t-58.5 -110.5t-93.5 -78.5t-125.5 -30z" />
    <glyph glyph-name="afii10067" unicode="&#x432;" horiz-adv-x="520" 
d="M309 52q25 0 49.5 7t43 21t30 35t11.5 49q0 68 -102 68h-156l-38 -180h162zM339 284q25 0 48.5 6t41.5 18.5t28.5 32.5t10.5 48q0 62 -87 62h-149l-36 -167h143zM420 263q43 -7 65.5 -33.5t22.5 -62.5t-16 -67t-42.5 -53t-60 -34.5t-67.5 -12.5h-247l107 502h224
q63 0 96.5 -24t33.5 -69q0 -25 -9.5 -48.5t-25 -43t-36.5 -33.5t-45 -20v-1z" />
    <glyph glyph-name="afii10068" unicode="&#x433;" horiz-adv-x="444" 
d="M236 449l-95 -449h-61l107 502h327l-12 -53h-266z" />
    <glyph glyph-name="afii10069" unicode="&#x434;" 
d="M509 449h-194l-3 -17q-9 -51 -23 -103t-33.5 -101.5t-45 -94t-58.5 -80.5h273zM455 -141l30 141h-413l-30 -141h-61l41 194h56q35 32 66.5 78.5t51.5 97.5q10 26 16.5 46t12 42.5t12 51.5t16.5 73l13 60h316l-96 -449h71l-41 -194h-61z" />
    <glyph glyph-name="afii10070" unicode="&#x435;" 
d="M165 237q-3 -16 -5 -31t-2 -29q0 -30 8 -55t24.5 -43t43 -28.5t63.5 -10.5q27 0 52.5 9t48 25t40.5 38t30 48h63q-43 -91 -108.5 -133t-156.5 -42q-45 0 -77.5 15t-53.5 40.5t-31 60t-10 73.5q0 38 9 77q11 51 35 99t60 85t82.5 59.5t102.5 22.5q49 0 83.5 -13.5
t56.5 -37.5t31.5 -57.5t9.5 -73.5q0 -43 -11 -98h-388zM500 292q3 19 3 36q0 29 -7.5 53.5t-23.5 42.5t-40.5 28t-58.5 10q-37 0 -68 -14t-55.5 -38t-42.5 -54.5t-28 -63.5h321z" />
    <glyph glyph-name="afii10072" unicode="&#x436;" horiz-adv-x="740" 
d="M656 0l-203 250l-53 -250h-60l53 250l-300 -250h-83l324 265l-197 237h72l189 -231l49 231h60l-49 -231l278 231h81l-300 -245l213 -257h-74z" />
    <glyph glyph-name="afii10073" unicode="&#x437;" horiz-adv-x="500" 
d="M391 266q42 -5 67 -29.5t25 -63.5q0 -46 -21 -80.5t-54 -57.5t-74 -34.5t-81 -11.5q-29 0 -59.5 6t-55 19.5t-40.5 36.5t-16 57q0 14 3 32h65q-1 -5 -1 -9.5v-8.5q0 -24 10.5 -39.5t27 -24t37 -12t40.5 -3.5q30 0 57.5 7t48.5 22t34 38.5t13 56.5q0 72 -103 72h-9
q-9 0 -23.5 -0.5t-19.5 -1.5l12 53l36 -2q26 -2 52 4.5t46.5 20.5t33.5 35.5t13 50.5t-22.5 46.5t-73.5 17.5q-48 0 -84.5 -18.5t-55.5 -68.5h-63q26 77 78.5 108t135.5 31q72 0 109 -26t37 -74q0 -27 -9.5 -51.5t-26.5 -44t-40 -33t-49 -19.5v-1z" />
    <glyph glyph-name="afii10074" unicode="&#x438;" 
d="M415 0l88 414h-3l-350 -414h-70l107 502h61l-90 -421h3l352 421h70l-107 -502h-61z" />
    <glyph glyph-name="afii10075" unicode="&#x439;" 
d="M415 0l88 414h-3l-350 -414h-70l107 502h61l-90 -421h3l352 421h70l-107 -502h-61zM406 592q-52 0 -78.5 25.5t-26.5 73.5v11t1 12h33q5 -71 83 -71q77 0 115 71h34q-18 -60 -59.5 -91t-101.5 -31z" />
    <glyph glyph-name="afii10076" unicode="&#x43a;" horiz-adv-x="500" 
d="M202 273l288 229h81l-307 -245l220 -257h-72l-215 248l-53 -248h-61l107 502h61z" />
    <glyph glyph-name="afii10077" unicode="&#x43b;" 
d="M475 0h-61l95 449h-207l-34 -162q-17 -80 -36.5 -135.5t-43.5 -91t-52 -51.5t-61 -16q-12 0 -25 1.5t-21 5.5l11 52q4 -2 11.5 -2.5t15.5 -0.5q14 0 26 3t20 11q15 13 27.5 31.5t24.5 46.5t23 67.5t23 95.5l42 198h329z" />
    <glyph glyph-name="afii10078" unicode="&#x43c;" horiz-adv-x="689" 
d="M549 0l96 450h-3l-262 -450h-71l-70 450h-3l-96 -450h-60l107 502h94l69 -454h3l264 454h99l-107 -502h-60z" />
    <glyph glyph-name="afii10079" unicode="&#x43d;" 
d="M415 0l50 234h-274l-50 -234h-61l107 502h61l-46 -215h274l46 215h61l-107 -502h-61z" />
    <glyph glyph-name="afii10080" unicode="&#x43e;" 
d="M500 251q6 28 6 60q0 29 -6.5 56.5t-22 48.5t-40.5 33.5t-61 12.5q-45 0 -81.5 -20t-63.5 -50.5t-44.5 -68t-24.5 -72.5q-3 -14 -5 -29t-2 -30q0 -29 7 -56.5t23 -48.5t40.5 -34t60.5 -13q46 0 82 20t63 50.5t44 68t25 72.5zM387 517q49 0 84.5 -15.5t57.5 -42.5
t32.5 -62.5t10.5 -75.5q0 -36 -7 -70q-11 -50 -35 -97.5t-61 -85t-86 -60.5t-109 -23q-49 0 -84 15.5t-57.5 42t-33 62t-10.5 74.5q0 34 8 72q10 49 34.5 97t61 85.5t85.5 60.5t109 23z" />
    <glyph glyph-name="afii10081" unicode="&#x43f;" 
d="M415 0l95 449h-274l-95 -449h-61l107 502h396l-107 -502h-61z" />
    <glyph glyph-name="afii10082" unicode="&#x440;" 
d="M185 263q-9 -41 -9 -80q0 -30 7 -56t22.5 -45.5t41 -30.5t62.5 -11q43 0 75.5 21.5t55.5 54t37.5 71t22.5 73.5q3 17 5 33.5t2 33.5q0 27 -6 51.5t-19.5 43t-36 29.5t-55.5 11q-44 0 -78.5 -17t-60 -44.5t-42 -63.5t-24.5 -74zM89 -192h-60l123 581q7 29 11 58t8 55h62
l-13 -74l2 -2q36 45 88 68t103 23q44 0 74.5 -14t49 -38.5t27 -57t8.5 -69.5q0 -42 -9 -85q-10 -47 -31.5 -95t-54 -86.5t-76 -62.5t-98.5 -24t-94.5 24t-60.5 69h-2z" />
    <glyph glyph-name="afii10083" unicode="&#x441;" horiz-adv-x="500" 
d="M470 348q9 58 -20 86t-92 28q-35 0 -66 -17t-56.5 -45.5t-44 -66.5t-27.5 -81q-4 -17 -5.5 -34t-1.5 -33q0 -31 7 -57.5t21 -46t35 -30.5t48 -11q60 0 103.5 32.5t58.5 84.5h65q-61 -172 -233 -172q-45 0 -77.5 15t-53.5 40.5t-31 60t-10 73.5q0 38 9 77q11 51 35 99
t60 85t82.5 59.5t102.5 22.5q34 0 63.5 -9t50.5 -26.5t33 -42.5t12 -58q0 -15 -3 -33h-65z" />
    <glyph glyph-name="afii10084" unicode="&#x442;" horiz-adv-x="487" 
d="M370 449l-95 -449h-61l95 449h-192l12 53h445l-12 -53h-192z" />
    <glyph glyph-name="afii10085" unicode="&#x443;" horiz-adv-x="500" 
d="M187 502l82 -426l255 426h65l-424 -694h-66l117 192l-102 502h73z" />
    <glyph glyph-name="afii10086" unicode="&#x444;" horiz-adv-x="754" 
d="M435 415q-11 20 -31 32.5t-46 12.5q-54 0 -92.5 -27.5t-63 -70t-36.5 -93t-12 -95.5q0 -63 28 -96.5t82 -33.5q13 0 27.5 4.5t28 11.5t26 15.5t21.5 16.5zM708 332q0 128 -115 128q-26 0 -51.5 -12.5t-45.5 -32.5l-68 -323q10 -16 32.5 -32t48.5 -16q52 0 89.5 28.5
t62 72t36 93.5t11.5 94zM509 -9q-29 0 -54.5 14t-38.5 31l-49 -227h-61l49 227q-20 -17 -52 -31t-61 -14q-72 0 -112.5 47t-40.5 132q0 57 17 117.5t51 110.5t83 82.5t114 32.5q26 0 52.5 -13.5t40.5 -30.5l53 253h61l-53 -253q22 17 53.5 30.5t57.5 13.5q75 0 114.5 -45
t39.5 -129q0 -56 -17 -117.5t-50.5 -112.5t-83 -84.5t-113.5 -33.5z" />
    <glyph glyph-name="afii10087" unicode="&#x445;" horiz-adv-x="500" 
d="M504 502h69l-231 -243l141 -259h-79l-114 215l-201 -215h-72l2 2l246 255l-133 245h80l105 -205z" />
    <glyph glyph-name="afii10088" unicode="&#x446;" horiz-adv-x="564" 
d="M80 0l107 502h61l-96 -449h274l96 449h61l-96 -449h75l-41 -194h-61l30 141h-410z" />
    <glyph glyph-name="afii10089" unicode="&#x447;" horiz-adv-x="500" 
d="M475 502h61l-107 -502h-61l49 230q-15 -6 -33 -11t-37.5 -8t-39 -5t-35.5 -2q-70 0 -106.5 31t-36.5 92q0 25 6 55l26 120h61l-28 -128q-4 -17 -4 -38q0 -82 103 -82q15 0 33 1.5t36 5t35 8t30 10.5z" />
    <glyph glyph-name="afii10090" unicode="&#x448;" horiz-adv-x="811" 
d="M187 502h61l-96 -449h234l96 449h61l-96 -449h234l96 449h61l-107 -502h-651z" />
    <glyph glyph-name="afii10091" unicode="&#x449;" horiz-adv-x="816" 
d="M712 -141l30 141h-662l107 502h61l-96 -449h234l96 449h61l-96 -449h234l96 449h61l-96 -449h72l-41 -194h-61z" />
    <glyph glyph-name="afii10092" unicode="&#x44a;" horiz-adv-x="611" 
d="M404 53q28 0 54 9t45.5 25.5t31 40.5t11.5 54q0 73 -105 73h-138l-43 -202h144zM124 449l12 53h220l-42 -194h159q66 0 103 -33.5t37 -87.5q0 -39 -15 -73.5t-41 -59.5t-62 -39.5t-78 -14.5h-229l95 449h-159z" />
    <glyph glyph-name="afii10093" unicode="&#x44b;" horiz-adv-x="667" 
d="M273 53q28 0 54 9t45.5 25.5t31 40.5t11.5 54q0 73 -105 73h-118l-43 -202h124zM342 308q66 0 103 -33t37 -88q0 -40 -15 -74t-42 -59t-63.5 -39.5t-78.5 -14.5h-206l107 502h61l-42 -194h139zM698 502l-107 -502h-61l107 502h61z" />
    <glyph glyph-name="afii10094" unicode="&#x44c;" horiz-adv-x="500" 
d="M293 53q28 0 54 9t45.5 25.5t31 40.5t11.5 54q0 73 -105 73h-138l-43 -202h144zM362 308q66 0 103 -33t37 -88q0 -40 -15 -74t-42 -59t-63.5 -39.5t-78.5 -14.5h-226l107 502h61l-42 -194h159z" />
    <glyph glyph-name="afii10095" unicode="&#x44d;" horiz-adv-x="500" 
d="M238 -11q-35 0 -65.5 8t-53 25t-35.5 43.5t-13 64.5v13.5t1 13.5h67q-1 -5 -1 -10.5v-10.5q0 -42 27.5 -67.5t76.5 -25.5q72 0 123.5 50t74.5 144h-210l12 55h208q3 24 3 45q0 63 -27 94.5t-87 31.5q-57 0 -98.5 -28.5t-58.5 -86.5h-69q12 43 35 75t54 52t68.5 30
t79.5 10q85 0 126.5 -46.5t41.5 -131.5q0 -62 -17.5 -124t-53 -112t-88 -81t-121.5 -31z" />
    <glyph glyph-name="afii10096" unicode="&#x44e;" horiz-adv-x="746" 
d="M692 322q0 66 -33.5 103.5t-96.5 37.5q-54 0 -95.5 -25.5t-69.5 -66t-42.5 -90t-14.5 -97.5q0 -69 34 -105t98 -36q52 0 93 26t69.5 67t43 90t14.5 96zM188 237l-50 -237h-61l107 502h61l-45 -210h92q16 51 43.5 92.5t63.5 70.5t80 44.5t93 15.5q48 0 83.5 -14t58 -38.5
t33.5 -59t11 -74.5q0 -64 -20.5 -125t-59 -109t-93.5 -77t-124 -29q-91 0 -139.5 49.5t-48.5 137.5q0 28 6 61h-91z" />
    <glyph glyph-name="afii10097" unicode="&#x44f;" horiz-adv-x="520" 
d="M475 449h-145q-26 0 -49.5 -6.5t-42 -20t-29.5 -34t-11 -48.5q0 -66 101 -66h139zM380 0l47 223h-150q-33 0 -51 -5.5t-34 -21.5q-14 -13 -23 -31.5t-16 -37.5t-11 -35.5t-7 -25.5q-5 -15 -11.5 -33.5t-13.5 -32.5h-63q3 7 5.5 12t3.5 8q5 12 12.5 35.5t17.5 53.5
q6 19 11.5 36t13 31.5t17.5 27t26 23.5q22 16 66 23l1 2q-36 8 -61 30.5t-25 61.5t17 68.5t44.5 49.5t62 30t69.5 10h220l-107 -502h-61z" />
    <glyph glyph-name="afii10071" unicode="&#x451;" 
d="M165 237q-3 -16 -5 -31t-2 -29q0 -30 8 -55t24.5 -43t43 -28.5t63.5 -10.5q27 0 52.5 9t48 25t40.5 38t30 48h63q-43 -91 -108.5 -133t-156.5 -42q-45 0 -77.5 15t-53.5 40.5t-31 60t-10 73.5q0 38 9 77q11 51 35 99t60 85t82.5 59.5t102.5 22.5q49 0 83.5 -13.5
t56.5 -37.5t31.5 -57.5t9.5 -73.5q0 -43 -11 -98h-388zM500 292q3 19 3 36q0 29 -7.5 53.5t-23.5 42.5t-40.5 28t-58.5 10q-37 0 -68 -14t-55.5 -38t-42.5 -54.5t-28 -63.5h321zM461 624l16 78h67l-16 -78h-67zM294 624l16 78h67l-16 -78h-67z" />
    <glyph glyph-name="afii10099" unicode="&#x452;" horiz-adv-x="545" 
d="M241 -147q66 7 116.5 59t70.5 149l20 97q5 25 5 40q0 48 -27.5 73t-78.5 25q-66 0 -115 -46t-65 -127l-26 -123h-61l95 450h-68l11 52h68l47 220h61l-47 -220h236l-11 -52h-236l-40 -190h2q17 20 27 30t24 20q58 41 126 41q140 0 140 -132q0 -16 -2 -33.5t-6 -37.5
l-24 -116q-2 -11 -9.5 -32t-20.5 -46t-33.5 -51.5t-47.5 -48.5t-62.5 -36.5t-79.5 -15.5z" />
    <glyph glyph-name="afii10100" unicode="&#x453;" horiz-adv-x="444" 
d="M236 449l-95 -449h-61l107 502h327l-12 -53h-266zM538 707l-158 -143h-44l122 143h80z" />
    <glyph glyph-name="afii10101" unicode="&#x454;" horiz-adv-x="500" 
d="M495 157q-26 -82 -85.5 -124.5t-134.5 -42.5q-84 0 -134.5 44t-50.5 136q0 60 17.5 121.5t51 111t83.5 81t116 31.5q38 0 71 -8t57 -24.5t38 -42.5t14 -61q0 -8 -0.5 -15.5t-1.5 -15.5h-69q1 5 1 10v10q0 48 -29.5 71.5t-80.5 23.5q-69 0 -113 -43t-70 -128h208l-12 -55
h-209q-6 -33 -6 -60q0 -66 30.5 -100t90.5 -34q55 0 96 31.5t55 82.5h67z" />
    <glyph glyph-name="afii10102" unicode="&#x455;" horiz-adv-x="500" 
d="M143 377q8 39 30 65.5t51.5 43t64 24t67.5 7.5q36 0 66.5 -7t51.5 -23t31 -42.5t5 -66.5h-65q3 24 -4.5 40t-22.5 25.5t-35.5 14t-43.5 4.5q-21 0 -42.5 -4.5t-39.5 -14t-31 -25t-18 -37.5q-6 -28 8 -42.5t43 -24.5t70 -20t88 -28q36 -14 52.5 -44.5t7.5 -72.5t-33.5 -73
t-58.5 -51.5t-74 -30t-80 -9.5q-30 0 -58.5 6.5t-51 20.5t-36 37t-13.5 56q0 15 3 32h65q-4 -28 4.5 -46.5t25 -30t39.5 -16t49 -4.5q24 0 48.5 6t45.5 18t36.5 31t21.5 45q6 27 -4 44t-30.5 27.5t-47.5 17t-55 13.5q-25 6 -49 13.5t-43 19.5t-30.5 29.5t-11.5 43.5
q0 7 1 14t3 15z" />
    <glyph glyph-name="afii10103" unicode="&#x456;" horiz-adv-x="222" 
d="M247 502l-106 -502h-60l106 502h60zM283 647h-70l16 75h70z" />
    <glyph glyph-name="afii10104" unicode="&#x457;" horiz-adv-x="222" 
d="M81 0l106 502h60l-106 -502h-60zM294 624l16 78h67l-16 -78h-67zM127 624l16 78h67l-16 -78h-67z" />
    <glyph glyph-name="afii10105" unicode="&#x458;" horiz-adv-x="222" 
d="M-26 -137q33 0 50 5.5t26.5 22t16 46.5t17.5 80l103 485h60l-111 -524q-11 -48 -20.5 -81.5t-26.5 -53.5t-46.5 -28.5t-79.5 -6.5zM283 647h-70l16 75h70z" />
    <glyph glyph-name="afii10106" unicode="&#x459;" horiz-adv-x="816" 
d="M751 182q0 73 -105 73h-126l-43 -202h132q28 0 54 9t45.5 25.5t31 40.5t11.5 54zM405 0l95 449h-204l-34 -162q-18 -84 -38 -140t-43 -90.5t-50.5 -49t-61.5 -14.5q-27 0 -40 7l11 52q7 -3 21 -3t27 3t21 11q15 13 27.5 31.5t23.5 46.5t22 67.5t23 95.5l42 198h326
l-42 -195h147q66 0 102.5 -34t36.5 -89q0 -38 -14.5 -71.5t-40.5 -58.5t-62 -39.5t-78 -14.5h-217z" />
    <glyph glyph-name="afii10107" unicode="&#x45a;" horiz-adv-x="816" 
d="M818 184q0 -38 -15 -71.5t-41 -58.5t-62 -39.5t-78 -14.5h-217l53 249h-264l-53 -249h-61l107 502h61l-43 -201h264l43 201h61l-43 -201h147q66 0 103.5 -31.5t37.5 -85.5zM750 178q0 71 -105 71h-126l-42 -196h132q28 0 54 8.5t45 24t30.5 39t11.5 53.5z" />
    <glyph glyph-name="afii10108" unicode="&#x45b;" 
d="M415 0l33 154q5 25 5 40q0 48 -27.5 73t-78.5 25q-66 0 -114.5 -46t-65.5 -127l-26 -119h-61l96 449h-68l11 53h68l46 220h61l-46 -220h236l-11 -53h-236l-41 -193h2q17 20 27 30t24 20q58 41 126 41q73 0 106.5 -33.5t33.5 -96.5q0 -17 -1.5 -35t-6.5 -38l-31 -144h-61z
" />
    <glyph glyph-name="afii10109" unicode="&#x45c;" horiz-adv-x="500" 
d="M202 273l288 229h81l-307 -245l220 -257h-72l-215 248l-53 -248h-61l107 502h61zM538 707l-158 -143h-44l122 143h80z" />
    <glyph glyph-name="afii10110" unicode="&#x45e;" horiz-adv-x="500" 
d="M383 592q-52 0 -78.5 25.5t-26.5 73.5v11t1 12h33q5 -71 83 -71q77 0 115 71h34q-18 -60 -59.5 -91t-101.5 -31zM120 502h68l78 -418l257 418h70l-424 -694h-71l120 198z" />
    <glyph glyph-name="afii10193" unicode="&#x45f;" 
d="M476 0h-165l-30 -141h-61l30 141h-170l107 502h61l-96 -449h274l96 449h61z" />
    <glyph glyph-name="afii10050" unicode="&#x490;" 
d="M160 0h-65l153 722h343l27 127h65l-39 -184h-343z" />
    <glyph glyph-name="afii10098" unicode="&#x491;" horiz-adv-x="444" 
d="M236 449l-95 -449h-61l107 502h267l26 126h60l-38 -179h-266z" />
    <glyph glyph-name="endash" unicode="&#x2013;" horiz-adv-x="500" 
d="M50 237l13 60h500l-13 -60h-500z" />
    <glyph glyph-name="emdash" unicode="&#x2014;" horiz-adv-x="1000" 
d="M50 237l13 60h1000l-13 -60h-1000z" />
    <glyph glyph-name="quoteleft" unicode="&#x2018;" horiz-adv-x="278" 
d="M182 517l116 205h52l-87 -205h-81z" />
    <glyph glyph-name="quoteright" unicode="&#x2019;" horiz-adv-x="278" 
d="M358 722l-116 -205h-52l87 205h81z" />
    <glyph glyph-name="quotesinglbase" unicode="&#x201a;" horiz-adv-x="278" 
d="M222 81l-116 -205h-52l87 205h81z" />
    <glyph glyph-name="quotedblleft" unicode="&#x201c;" 
d="M412 517l116 205h52l-87 -205h-81zM228 517l116 205h52l-87 -205h-81z" />
    <glyph glyph-name="quotedblright" unicode="&#x201d;" 
d="M590 722l-116 -205h-52l87 205h81zM406 722l-116 -205h-52l87 205h81z" />
    <glyph glyph-name="quotedblbase" unicode="&#x201e;" 
d="M452 81l-116 -205h-52l87 205h81zM268 81l-116 -205h-52l87 205h81z" />
    <glyph glyph-name="dagger" unicode="&#x2020;" 
d="M179 487l12 55h172l38 180h60l-38 -180h172l-12 -55h-172l-103 -487h-60l103 487h-172z" />
    <glyph glyph-name="daggerdbl" unicode="&#x2021;" 
d="M179 487l12 55h172l38 180h60l-38 -180h172l-12 -55h-172l-54 -255h172l-12 -55h-172l-37 -177h-60l37 177h-172l12 55h172l54 255h-172z" />
    <glyph glyph-name="bullet" unicode="&#x2022;" horiz-adv-x="500" 
d="M506 361q-8 -37 -29 -69.5t-51 -57t-66 -39t-73 -14.5q-32 0 -58.5 11t-46 30t-30 45.5t-10.5 56.5q0 20 4 37q8 37 29 70t50.5 57.5t65 38.5t72.5 14q32 0 59 -10.5t46.5 -29.5t30.5 -45t11 -57q0 -9 -1 -18.5t-3 -19.5z" />
    <glyph glyph-name="ellipsis" unicode="&#x2026;" horiz-adv-x="1000" 
d="M225 86l-18 -86h-80l18 86h80zM558 86l-18 -86h-80l18 86h80zM891 86l-18 -86h-80l18 86h80z" />
    <glyph glyph-name="perthousand" unicode="&#x2030;" horiz-adv-x="1000" 
d="M659 707h53l-569 -722h-56zM315 662q-24 0 -43 -10.5t-33.5 -27.5t-24 -37.5t-13.5 -41.5q-3 -18 -3 -35q0 -32 14.5 -57t52.5 -25q24 0 43.5 10.5t34 27.5t23.5 37.5t13 41.5q3 18 3 36q0 32 -14.5 56.5t-52.5 24.5zM534 264q-24 0 -43.5 -10.5t-34 -27.5t-23.5 -37.5
t-13 -41.5q-2 -9 -3 -18.5t-1 -18.5q0 -32 15.5 -56t52.5 -24q24 0 43 10.5t33.5 27.5t23.5 37.5t14 41.5q3 18 3 35q0 32 -14.5 57t-52.5 25zM474 -15q-58 0 -86.5 30.5t-28.5 81.5q0 23 6 50q7 35 22.5 65t38 51.5t52 33.5t65.5 12q60 0 87.5 -31.5t27.5 -82.5
q0 -20 -5 -48q-8 -35 -23.5 -65t-38 -51.5t-52 -33.5t-65.5 -12zM256 383q-58 0 -87 30.5t-29 81.5q0 23 6 50q7 35 22.5 65t38.5 51.5t52.5 33.5t65.5 12q60 0 87 -31t27 -82q0 -11 -1 -23.5t-4 -25.5q-8 -35 -23.5 -65t-37.5 -51.5t-51.5 -33.5t-65.5 -12zM821 -15
q-58 0 -86.5 30.5t-28.5 81.5q0 23 6 50q7 35 22.5 65t38 51.5t52 33.5t65.5 12q60 0 87.5 -31.5t27.5 -82.5q0 -20 -5 -48q-8 -35 -23.5 -65t-38 -51.5t-52 -33.5t-65.5 -12zM881 264q-24 0 -43.5 -10.5t-34 -27.5t-23.5 -37.5t-13 -41.5q-2 -9 -3 -18.5t-1 -18.5
q0 -32 15.5 -56t52.5 -24q24 0 43 10.5t33.5 27.5t23.5 37.5t14 41.5q3 18 3 35q0 32 -14.5 57t-52.5 25z" />
    <glyph glyph-name="guilsinglleft" unicode="&#x2039;" horiz-adv-x="278" 
d="M313 462l-135 -195l51 -195h-50l-65 195l148 195h51z" />
    <glyph glyph-name="guilsinglright" unicode="&#x203a;" horiz-adv-x="278" 
d="M78 72l134 195l-50 195h50l64 -195l-147 -195h-51z" />
    <glyph glyph-name="fraction" unicode="&#x2044;" horiz-adv-x="167" 
d="M-96 0h-55l567 707h53z" />
    <glyph glyph-name="Euro" unicode="&#x20ac;" 
d="M155 321l5 25q2 9 5.5 22.5t6.5 22.5h-60l23 46h52q19 54 50 103t72 86t91.5 59t109.5 22q69 0 104.5 -17.5t48.5 -46.5l-41 -68q-14 38 -45.5 55t-80.5 17q-44 0 -81.5 -18t-67.5 -47t-52.5 -67t-37.5 -78h303l-23 -46h-295q-3 -9 -7 -22.5t-6 -22.5l-5 -25h279l-24 -46
h-261q-3 -24 -3 -48q0 -37 7.5 -70t24.5 -58t44.5 -39.5t67.5 -14.5q48 0 86.5 13t78.5 48l-15 -73q-32 -25 -76 -36.5t-86 -11.5q-54 0 -92 18t-62 50t-35 74.5t-11 92.5q0 26 3 55h-65l24 46h46z" />
    <glyph glyph-name="afii61289" unicode="&#x2113;" horiz-adv-x="500" 
d="M423 41q-70 -55 -141 -55q-47 0 -75.5 22t-28.5 69q0 8 1 17.5t3 19.5l24 114l-71 -62h-2l-18 37l104 84l55 259q18 85 64.5 130t101.5 45q40 0 63.5 -24t23.5 -67q0 -8 -1 -17.5t-3 -19.5q-16 -75 -76 -153t-163 -165l-32 -150q-4 -15 -4 -29q0 -34 19.5 -46t41.5 -12
q20 0 44.5 9t51.5 29h2zM464 588q4 16 4 32q0 25 -10 39t-28 14q-23 0 -48 -28t-38 -88l-47 -222q69 66 112.5 131t54.5 122z" />
    <glyph glyph-name="afii61352" unicode="&#x2116;" horiz-adv-x="1020" 
d="M231 693h72l230 -606l130 606h62l-148 -693h-79l-225 593l-127 -593h-63zM762 240q0 -38 20 -59.5t55 -21.5q27 0 49.5 13t39 33.5t26 46t9.5 50.5q0 37 -20.5 59.5t-55.5 22.5q-28 0 -50.5 -13t-38.5 -33.5t-25 -46.5t-9 -51zM956 0h-304l11 50h304zM892 431
q60 0 93 -31.5t33 -86.5q0 -39 -14.5 -75.5t-40.5 -64t-61 -44.5t-75 -17q-58 0 -90 32t-32 86q0 39 14 75t39 64t59 45t75 17z" />
    <glyph glyph-name="trademark" unicode="&#x2122;" horiz-adv-x="940" 
d="M493 682h-132l-81 -381h-55l81 381h-133l9 40h320zM730 411h2l184 311h99l-90 -421h-55l81 377h-2l-226 -377h-34l-64 377h-2l-81 -377h-55l90 421h99z" />
    <glyph glyph-name="Omega" unicode="&#x2126;" horiz-adv-x="744" 
d="M434 0l38 181q47 8 85.5 28.5t68 51.5t50 70t30.5 84q6 27 6 53q0 43 -15 78.5t-42 60.5t-65 39t-84 14q-53 0 -103 -18.5t-91 -51t-70 -77.5t-40 -98q-3 -17 -5 -32.5t-2 -30.5q0 -66 34.5 -112.5t106.5 -58.5l-38 -181h-251l12 58h197l17 82q-73 22 -109 78.5
t-36 130.5q0 35 7 67q14 67 51.5 123t90 96.5t115.5 63t128 22.5q57 0 104.5 -17.5t82 -49t54 -75.5t19.5 -97q0 -34 -7 -65q-10 -48 -32.5 -92.5t-55 -81.5t-75 -63.5t-93.5 -39.5l-17 -82h197l-12 -58h-251z" />
    <glyph glyph-name="estimated" unicode="&#x212e;" horiz-adv-x="600" 
d="M510 295l31 145q-50 60 -134 60t-157 -60l-31 -145h291zM212 259l-39 -181q47 -59 133 -59q63 0 114.5 28.5t103.5 91.5l31 -21q-31 -36 -60 -61.5t-60 -42t-64.5 -24t-72.5 -7.5q-50 0 -88.5 15.5t-64.5 43t-39.5 65.5t-13.5 83q0 35 7 69q12 58 41 108.5t70.5 87.5
t93.5 58.5t111 21.5q49 0 88 -15t66 -42t41 -65t14 -84q0 -17 -2 -34t-6 -36h-404z" />
    <glyph glyph-name="partialdiff" unicode="&#x2202;" horiz-adv-x="496" 
d="M532 363q-12 -55 -34 -120.5t-58 -122t-88.5 -94.5t-124.5 -38q-39 0 -68.5 13t-49 36t-29.5 53.5t-10 65.5q0 27 6 56q9 43 30.5 82t52.5 68t70.5 46t85.5 17q49 0 87 -23t61 -61l12 52q5 23 8 47.5t3 49.5q0 34 -6.5 65.5t-21.5 56t-40.5 39.5t-63.5 15q-35 0 -63 -13
t-59 -33l-27 43q38 28 76.5 43t81.5 15q53 0 88 -18.5t56 -50t30 -72.5t9 -86q0 -66 -14 -131zM445 278q-20 36 -54 63.5t-82 27.5q-34 0 -62.5 -13t-50 -35t-36.5 -51t-22 -60q-5 -25 -5 -45q0 -24 6 -46.5t19 -40t33 -27.5t48 -10q43 0 77.5 24t60 60t42.5 77t26 76z" />
    <glyph glyph-name="Delta" unicode="&#x2206;" horiz-adv-x="670" 
d="M15 0l432 712h74l136 -712h-642zM469 645l-350 -583h455z" />
    <glyph glyph-name="product" unicode="&#x220f;" horiz-adv-x="711" 
d="M529 -214l199 938h-438l-199 -938h-66l213 1000h570l-213 -1000h-66z" />
    <glyph glyph-name="summation" unicode="&#x2211;" horiz-adv-x="604" 
d="M-20 -214l12 55l423 448l-221 441l12 56h527l-14 -62h-442l217 -435l-422 -442h473l-13 -61h-552z" />
    <glyph glyph-name="minus" unicode="&#x2212;" horiz-adv-x="660" 
d="M139 281h500l-13 -60h-500z" />
    <glyph glyph-name="uni2215" unicode="&#x2215;" horiz-adv-x="167" 
d="M-96 0h-55l567 707h53z" />
    <glyph glyph-name="uni2219" unicode="&#x2219;" horiz-adv-x="278" 
d="M223 208h-80l18 86h80z" />
    <glyph glyph-name="radical" unicode="&#x221a;" horiz-adv-x="493" 
d="M246 -214h-66l-92 340l-50 -22l-14 50l110 48l88 -332l384 916h63z" />
    <glyph glyph-name="infinity" unicode="&#x221e;" horiz-adv-x="741" 
d="M753 252q-7 -31 -22.5 -58t-38 -47t-50.5 -31.5t-60 -11.5q-29 0 -52.5 9.5t-44 25t-37.5 34.5t-33 38q-26 -18 -51 -37t-50.5 -34.5t-53 -25.5t-57.5 -10q-55 0 -84 31t-29 80q0 16 3 34q7 30 22.5 57t37.5 47.5t50 32t60 11.5q29 0 53 -10.5t44 -27t37.5 -36
t33.5 -38.5q24 19 49 39t51 36.5t53.5 27t57.5 10.5q54 0 84.5 -30t30.5 -79q0 -20 -4 -37zM695 249q8 38 -6.5 65t-56.5 27q-21 0 -43.5 -9.5t-44.5 -24t-43.5 -30.5t-39.5 -29q13 -14 27.5 -29t31 -28t35.5 -21t42 -8q38 0 64 25t34 62zM385 249q-12 13 -26.5 28.5
t-32 29.5t-36.5 23.5t-40 9.5q-19 0 -35.5 -7.5t-29 -20t-21.5 -28.5t-13 -34q-8 -38 8.5 -63t56.5 -25q20 0 43 8.5t45.5 21.5t43 28.5t37.5 28.5z" />
    <glyph glyph-name="integral" unicode="&#x222b;" horiz-adv-x="543" 
d="M562 736q-4 -17 -16 -25.5t-28 -8.5q-14 0 -20 6t-9 13.5t-5.5 14t-9.5 6.5q-12 0 -21.5 -13t-17.5 -32.5t-14 -42.5t-10.5 -44.5t-7 -37.5t-3.5 -21l-108 -504q-7 -32 -17.5 -76.5t-30 -85.5t-50.5 -69.5t-79 -28.5q-21 0 -38 11t-12 36q3 14 14.5 23t25.5 9
q13 0 18.5 -6t8.5 -13t6 -13t9 -6q13 0 25 22.5t20.5 51t14 54t6.5 31.5l5 21l105 495q5 23 10.5 53t13.5 61.5t20.5 61.5t30.5 54t44 38.5t61 14.5q11 0 23 -2.5t21 -8.5t13.5 -15.5t1.5 -23.5z" />
    <glyph glyph-name="approxequal" unicode="&#x2248;" horiz-adv-x="660" 
d="M678 402q-8 -26 -22 -51t-33 -44t-43.5 -30.5t-53.5 -11.5q-32 0 -67 11.5t-70 25.5q-34 14 -66.5 25t-59.5 11q-34 0 -59.5 -24.5t-36.5 -55.5h-45q9 26 23 51t33 44.5t43.5 31.5t54.5 12q33 0 67 -11t68 -25q35 -14 67 -25.5t61 -11.5q36 0 59 23t37 55h43zM642 232
q-9 -26 -23 -51t-33 -44.5t-43.5 -31t-54.5 -11.5q-32 0 -67 11.5t-69 25.5t-66 25t-59 11q-34 0 -59.5 -24.5t-36.5 -55.5h-45q9 26 23 51t32.5 45t43 32t54.5 12q33 0 67 -11t69 -25q34 -14 66.5 -25.5t61.5 -11.5q35 0 58 23t37 55h44z" />
    <glyph glyph-name="notequal" unicode="&#x2260;" horiz-adv-x="660" 
d="M319 120l-107 -144l-46 27l87 117h-149l13 60h181l95 130h-249l13 60h282l108 147l46 -28l-88 -119h154l-13 -60h-186l-96 -130h255l-13 -60h-287z" />
    <glyph glyph-name="lessequal" unicode="&#x2264;" horiz-adv-x="660" 
d="M141 296l14 65l542 189l-13 -65l-453 -157l386 -155l-14 -65zM80 6l12 59h502l-12 -59h-502z" />
    <glyph glyph-name="greaterequal" unicode="&#x2265;" horiz-adv-x="660" 
d="M101 108l14 65l453 155l-386 157l13 65l462 -189l-14 -65zM80 6l12 59h502l-12 -59h-502z" />
    <glyph glyph-name="lozenge" unicode="&#x25ca;" horiz-adv-x="593" 
d="M319 -35h-63l-86 391l252 391h63l88 -391zM440 681l-205 -325l67 -325l206 325z" />
    <glyph glyph-name="grave.cap" unicode="&#xe300;" horiz-adv-x="278" 
d="M297 927l60 -143h-44l-96 143h80z" />
    <glyph glyph-name="acute.cap" unicode="&#xe301;" horiz-adv-x="278" 
d="M455 927l-158 -143h-44l122 143h80z" />
    <glyph glyph-name="circumflex.cap" unicode="&#xe302;" horiz-adv-x="278" 
d="M300 927h73l68 -145h-47l-67 106l-112 -106h-46z" />
    <glyph glyph-name="caron.cap" unicode="&#xe303;" horiz-adv-x="278" 
d="M341 782h-73l-68 145h47l66 -106l113 106h46z" />
    <glyph glyph-name="tilde.cap" unicode="&#xe304;" horiz-adv-x="278" 
d="M471 915q-16 -34 -43.5 -59.5t-65.5 -25.5q-11 0 -21.5 3t-21.5 8q-11 4 -23.5 7t-28.5 3q-15 0 -30.5 -7t-22.5 -22h-38q18 42 50.5 64.5t74.5 15.5q7 -1 17 -4t21 -7q11 -3 21 -6t16 -3q17 0 32.5 8.5t24.5 24.5h38z" />
    <glyph glyph-name="dieresis.cap" unicode="&#xe305;" horiz-adv-x="278" 
d="M367 839l19 88h74l-19 -88h-74zM193 839l19 88h74l-19 -88h-74z" />
    <glyph glyph-name="macron.cap" unicode="&#xe306;" horiz-adv-x="278" 
d="M196 843l11 50h245l-11 -50h-245z" />
    <glyph glyph-name="breve.cap" unicode="&#xe307;" horiz-adv-x="278" 
d="M460 937q-17 -60 -55.5 -84t-92.5 -24q-49 0 -78 26.5t-18 81.5h23q0 -18 7.5 -30t19.5 -19t27 -10t29 -3q15 0 31.5 3t32.5 10t30 19t23 30h21z" />
    <glyph glyph-name="ring.cap" unicode="&#xe308;" horiz-adv-x="278" 
d="M230 869q4 19 15 36t26.5 29.5t33.5 20t37 7.5q39 0 60 -27.5t13 -65.5q-4 -19 -14.5 -35.5t-26 -29t-34 -20t-37.5 -7.5t-34 7.5t-25 20t-14 29t0 35.5zM378 869q5 23 -8 39.5t-36 16.5t-43 -16.5t-25 -39.5t8 -39.5t36 -16.5t43 16.5t25 39.5z" />
    <glyph glyph-name="hungarumlaut.cap" unicode="&#xe309;" 
d="M417 927h81l-159 -141h-47zM548 927h81l-159 -141h-47z" />
    <glyph glyph-name="dotaccent.cap" unicode="&#xe30a;" horiz-adv-x="278" 
d="M280 839l19 88h74l-19 -88h-74z" />
    <glyph glyph-name="caron.alt" unicode="&#xe30b;" horiz-adv-x="278" 
d="M347 722l-95 -146h-40l69 146h66z" />
    <glyph glyph-name="commaaccent" unicode="&#xe30c;" horiz-adv-x="278" 
d="M160 -74l-90 -145h-43l66 145h67z" />
    <glyph glyph-name="commaaccent.alt" unicode="&#xe30d;" horiz-adv-x="278" 
d="M203 564l90 145h43l-66 -145h-67z" />
    <glyph glyph-name="uniF8FF" unicode="&#xf8ff;" horiz-adv-x="512" 
d="M222 117v67h56v-67h-56zM225 234l-2 17q0 56 13 81q7 13 18 27.5t28 31.5q32 30 41 47.5t9 35.5q0 36 -22.5 60.5t-53.5 24.5t-53.5 -22t-28.5 -73l-50 8q7 72 44 104.5t91 32.5t89 -35.5t35 -95.5q0 -32 -12.5 -58.5t-50.5 -61.5q-37 -33 -43 -52q-6 -20 -6 -72h-46z
M462 50v617h-412v-617h412zM512 718v-718h-512v718h512z" />
    <glyph glyph-name="i.dot" horiz-adv-x="222" 
d="M247 502l-106 -502h-60l106 502h60zM283 647h-70l16 75h70z" />
    </font>
</defs>
</svg>
